G04 #@! TF.GenerationSoftware,KiCad,Pcbnew,7.0.6*
G04 #@! TF.CreationDate,2023-09-04T22:35:04-04:00*
G04 #@! TF.ProjectId,DingoPDM,44696e67-6f50-4444-9d2e-6b696361645f,v3*
G04 #@! TF.SameCoordinates,Original*
G04 #@! TF.FileFunction,Legend,Top*
G04 #@! TF.FilePolarity,Positive*
%FSLAX46Y46*%
G04 Gerber Fmt 4.6, Leading zero omitted, Abs format (unit mm)*
G04 Created by KiCad (PCBNEW 7.0.6) date 2023-09-04 22:35:04*
%MOMM*%
%LPD*%
G01*
G04 APERTURE LIST*
G04 Aperture macros list*
%AMRoundRect*
0 Rectangle with rounded corners*
0 $1 Rounding radius*
0 $2 $3 $4 $5 $6 $7 $8 $9 X,Y pos of 4 corners*
0 Add a 4 corners polygon primitive as box body*
4,1,4,$2,$3,$4,$5,$6,$7,$8,$9,$2,$3,0*
0 Add four circle primitives for the rounded corners*
1,1,$1+$1,$2,$3*
1,1,$1+$1,$4,$5*
1,1,$1+$1,$6,$7*
1,1,$1+$1,$8,$9*
0 Add four rect primitives between the rounded corners*
20,1,$1+$1,$2,$3,$4,$5,0*
20,1,$1+$1,$4,$5,$6,$7,0*
20,1,$1+$1,$6,$7,$8,$9,0*
20,1,$1+$1,$8,$9,$2,$3,0*%
G04 Aperture macros list end*
%ADD10C,0.152400*%
%ADD11C,0.304800*%
%ADD12C,0.150000*%
%ADD13C,0.120000*%
%ADD14C,0.200000*%
%ADD15C,0.250000*%
%ADD16C,0.100000*%
%ADD17C,0.010000*%
%ADD18RoundRect,0.250000X-0.262500X-0.450000X0.262500X-0.450000X0.262500X0.450000X-0.262500X0.450000X0*%
%ADD19RoundRect,0.243750X0.243750X0.456250X-0.243750X0.456250X-0.243750X-0.456250X0.243750X-0.456250X0*%
%ADD20RoundRect,0.250000X-0.450000X0.262500X-0.450000X-0.262500X0.450000X-0.262500X0.450000X0.262500X0*%
%ADD21RoundRect,0.250000X0.450000X-0.262500X0.450000X0.262500X-0.450000X0.262500X-0.450000X-0.262500X0*%
%ADD22RoundRect,0.150000X-0.825000X-0.150000X0.825000X-0.150000X0.825000X0.150000X-0.825000X0.150000X0*%
%ADD23R,2.400000X2.400000*%
%ADD24RoundRect,0.250000X-0.250000X-0.475000X0.250000X-0.475000X0.250000X0.475000X-0.250000X0.475000X0*%
%ADD25RoundRect,0.250000X-0.475000X0.250000X-0.475000X-0.250000X0.475000X-0.250000X0.475000X0.250000X0*%
%ADD26RoundRect,0.250000X0.475000X-0.250000X0.475000X0.250000X-0.475000X0.250000X-0.475000X-0.250000X0*%
%ADD27RoundRect,0.250000X0.250000X0.475000X-0.250000X0.475000X-0.250000X-0.475000X0.250000X-0.475000X0*%
%ADD28C,1.875000*%
%ADD29RoundRect,0.250000X0.625000X-0.312500X0.625000X0.312500X-0.625000X0.312500X-0.625000X-0.312500X0*%
%ADD30RoundRect,0.100000X0.637500X0.100000X-0.637500X0.100000X-0.637500X-0.100000X0.637500X-0.100000X0*%
%ADD31RoundRect,0.100000X0.712500X0.100000X-0.712500X0.100000X-0.712500X-0.100000X0.712500X-0.100000X0*%
%ADD32R,1.000000X1.000000*%
%ADD33RoundRect,0.250000X0.262500X0.450000X-0.262500X0.450000X-0.262500X-0.450000X0.262500X-0.450000X0*%
%ADD34R,0.450000X1.310000*%
%ADD35R,4.000000X2.650000*%
%ADD36C,6.000000*%
%ADD37RoundRect,0.075000X0.075000X-0.700000X0.075000X0.700000X-0.075000X0.700000X-0.075000X-0.700000X0*%
%ADD38RoundRect,0.075000X0.700000X-0.075000X0.700000X0.075000X-0.700000X0.075000X-0.700000X-0.075000X0*%
%ADD39C,2.000000*%
%ADD40R,2.655000X2.655000*%
%ADD41C,2.655000*%
%ADD42R,2.500000X2.500000*%
%ADD43RoundRect,0.150000X-0.150000X0.825000X-0.150000X-0.825000X0.150000X-0.825000X0.150000X0.825000X0*%
%ADD44RoundRect,0.243750X-0.456250X0.243750X-0.456250X-0.243750X0.456250X-0.243750X0.456250X0.243750X0*%
%ADD45RoundRect,0.070000X-0.300000X0.650000X-0.300000X-0.650000X0.300000X-0.650000X0.300000X0.650000X0*%
%ADD46RoundRect,0.150000X0.587500X0.150000X-0.587500X0.150000X-0.587500X-0.150000X0.587500X-0.150000X0*%
%ADD47R,2.500000X1.700000*%
%ADD48RoundRect,0.250000X0.250000X0.250000X-0.250000X0.250000X-0.250000X-0.250000X0.250000X-0.250000X0*%
%ADD49C,0.700000*%
%ADD50O,0.900000X2.400000*%
%ADD51O,0.900000X1.700000*%
%ADD52RoundRect,0.250000X-0.625000X0.312500X-0.625000X-0.312500X0.625000X-0.312500X0.625000X0.312500X0*%
%ADD53RoundRect,0.250000X-0.250000X-0.250000X0.250000X-0.250000X0.250000X0.250000X-0.250000X0.250000X0*%
%ADD54R,1.500000X2.200000*%
%ADD55R,3.800000X2.200000*%
%ADD56RoundRect,0.225000X-0.225000X-0.375000X0.225000X-0.375000X0.225000X0.375000X-0.225000X0.375000X0*%
%ADD57R,3.300000X2.500000*%
%ADD58R,1.300000X1.000000*%
%ADD59C,0.990600*%
%ADD60C,0.787400*%
G04 APERTURE END LIST*
D10*
X30637238Y-58603905D02*
X30975905Y-58603905D01*
X31121048Y-59136095D02*
X30637238Y-59136095D01*
X30637238Y-59136095D02*
X30637238Y-58120095D01*
X30637238Y-58120095D02*
X31121048Y-58120095D01*
X31556476Y-59136095D02*
X31556476Y-58458762D01*
X31556476Y-58652286D02*
X31604857Y-58555524D01*
X31604857Y-58555524D02*
X31653238Y-58507143D01*
X31653238Y-58507143D02*
X31750000Y-58458762D01*
X31750000Y-58458762D02*
X31846762Y-58458762D01*
X32185428Y-59136095D02*
X32185428Y-58458762D01*
X32185428Y-58652286D02*
X32233809Y-58555524D01*
X32233809Y-58555524D02*
X32282190Y-58507143D01*
X32282190Y-58507143D02*
X32378952Y-58458762D01*
X32378952Y-58458762D02*
X32475714Y-58458762D01*
X32959523Y-59136095D02*
X32862761Y-59087715D01*
X32862761Y-59087715D02*
X32814380Y-59039334D01*
X32814380Y-59039334D02*
X32765999Y-58942572D01*
X32765999Y-58942572D02*
X32765999Y-58652286D01*
X32765999Y-58652286D02*
X32814380Y-58555524D01*
X32814380Y-58555524D02*
X32862761Y-58507143D01*
X32862761Y-58507143D02*
X32959523Y-58458762D01*
X32959523Y-58458762D02*
X33104666Y-58458762D01*
X33104666Y-58458762D02*
X33201428Y-58507143D01*
X33201428Y-58507143D02*
X33249809Y-58555524D01*
X33249809Y-58555524D02*
X33298190Y-58652286D01*
X33298190Y-58652286D02*
X33298190Y-58942572D01*
X33298190Y-58942572D02*
X33249809Y-59039334D01*
X33249809Y-59039334D02*
X33201428Y-59087715D01*
X33201428Y-59087715D02*
X33104666Y-59136095D01*
X33104666Y-59136095D02*
X32959523Y-59136095D01*
X33733618Y-59136095D02*
X33733618Y-58458762D01*
X33733618Y-58652286D02*
X33781999Y-58555524D01*
X33781999Y-58555524D02*
X33830380Y-58507143D01*
X33830380Y-58507143D02*
X33927142Y-58458762D01*
X33927142Y-58458762D02*
X34023904Y-58458762D01*
X19388667Y-61373715D02*
X19533810Y-61422095D01*
X19533810Y-61422095D02*
X19775715Y-61422095D01*
X19775715Y-61422095D02*
X19872477Y-61373715D01*
X19872477Y-61373715D02*
X19920858Y-61325334D01*
X19920858Y-61325334D02*
X19969239Y-61228572D01*
X19969239Y-61228572D02*
X19969239Y-61131810D01*
X19969239Y-61131810D02*
X19920858Y-61035048D01*
X19920858Y-61035048D02*
X19872477Y-60986667D01*
X19872477Y-60986667D02*
X19775715Y-60938286D01*
X19775715Y-60938286D02*
X19582191Y-60889905D01*
X19582191Y-60889905D02*
X19485429Y-60841524D01*
X19485429Y-60841524D02*
X19437048Y-60793143D01*
X19437048Y-60793143D02*
X19388667Y-60696381D01*
X19388667Y-60696381D02*
X19388667Y-60599619D01*
X19388667Y-60599619D02*
X19437048Y-60502857D01*
X19437048Y-60502857D02*
X19485429Y-60454476D01*
X19485429Y-60454476D02*
X19582191Y-60406095D01*
X19582191Y-60406095D02*
X19824096Y-60406095D01*
X19824096Y-60406095D02*
X19969239Y-60454476D01*
X20259524Y-60744762D02*
X20646572Y-60744762D01*
X20404667Y-60406095D02*
X20404667Y-61276953D01*
X20404667Y-61276953D02*
X20453048Y-61373715D01*
X20453048Y-61373715D02*
X20549810Y-61422095D01*
X20549810Y-61422095D02*
X20646572Y-61422095D01*
X21420667Y-61422095D02*
X21420667Y-60889905D01*
X21420667Y-60889905D02*
X21372286Y-60793143D01*
X21372286Y-60793143D02*
X21275524Y-60744762D01*
X21275524Y-60744762D02*
X21082000Y-60744762D01*
X21082000Y-60744762D02*
X20985238Y-60793143D01*
X21420667Y-61373715D02*
X21323905Y-61422095D01*
X21323905Y-61422095D02*
X21082000Y-61422095D01*
X21082000Y-61422095D02*
X20985238Y-61373715D01*
X20985238Y-61373715D02*
X20936857Y-61276953D01*
X20936857Y-61276953D02*
X20936857Y-61180191D01*
X20936857Y-61180191D02*
X20985238Y-61083429D01*
X20985238Y-61083429D02*
X21082000Y-61035048D01*
X21082000Y-61035048D02*
X21323905Y-61035048D01*
X21323905Y-61035048D02*
X21420667Y-60986667D01*
X21759333Y-60744762D02*
X22146381Y-60744762D01*
X21904476Y-60406095D02*
X21904476Y-61276953D01*
X21904476Y-61276953D02*
X21952857Y-61373715D01*
X21952857Y-61373715D02*
X22049619Y-61422095D01*
X22049619Y-61422095D02*
X22146381Y-61422095D01*
X22920476Y-60744762D02*
X22920476Y-61422095D01*
X22485047Y-60744762D02*
X22485047Y-61276953D01*
X22485047Y-61276953D02*
X22533428Y-61373715D01*
X22533428Y-61373715D02*
X22630190Y-61422095D01*
X22630190Y-61422095D02*
X22775333Y-61422095D01*
X22775333Y-61422095D02*
X22872095Y-61373715D01*
X22872095Y-61373715D02*
X22920476Y-61325334D01*
X23355904Y-61373715D02*
X23452666Y-61422095D01*
X23452666Y-61422095D02*
X23646190Y-61422095D01*
X23646190Y-61422095D02*
X23742952Y-61373715D01*
X23742952Y-61373715D02*
X23791333Y-61276953D01*
X23791333Y-61276953D02*
X23791333Y-61228572D01*
X23791333Y-61228572D02*
X23742952Y-61131810D01*
X23742952Y-61131810D02*
X23646190Y-61083429D01*
X23646190Y-61083429D02*
X23501047Y-61083429D01*
X23501047Y-61083429D02*
X23404285Y-61035048D01*
X23404285Y-61035048D02*
X23355904Y-60938286D01*
X23355904Y-60938286D02*
X23355904Y-60889905D01*
X23355904Y-60889905D02*
X23404285Y-60793143D01*
X23404285Y-60793143D02*
X23501047Y-60744762D01*
X23501047Y-60744762D02*
X23646190Y-60744762D01*
X23646190Y-60744762D02*
X23742952Y-60793143D01*
X-21553714Y-18948215D02*
X-20973142Y-18948215D01*
X-21263428Y-19964215D02*
X-21263428Y-18948215D01*
X-20247428Y-19915835D02*
X-20344190Y-19964215D01*
X-20344190Y-19964215D02*
X-20537714Y-19964215D01*
X-20537714Y-19964215D02*
X-20634476Y-19915835D01*
X-20634476Y-19915835D02*
X-20682857Y-19819073D01*
X-20682857Y-19819073D02*
X-20682857Y-19432025D01*
X-20682857Y-19432025D02*
X-20634476Y-19335263D01*
X-20634476Y-19335263D02*
X-20537714Y-19286882D01*
X-20537714Y-19286882D02*
X-20344190Y-19286882D01*
X-20344190Y-19286882D02*
X-20247428Y-19335263D01*
X-20247428Y-19335263D02*
X-20199047Y-19432025D01*
X-20199047Y-19432025D02*
X-20199047Y-19528787D01*
X-20199047Y-19528787D02*
X-20682857Y-19625549D01*
X-19763619Y-19964215D02*
X-19763619Y-19286882D01*
X-19763619Y-19383644D02*
X-19715238Y-19335263D01*
X-19715238Y-19335263D02*
X-19618476Y-19286882D01*
X-19618476Y-19286882D02*
X-19473333Y-19286882D01*
X-19473333Y-19286882D02*
X-19376571Y-19335263D01*
X-19376571Y-19335263D02*
X-19328190Y-19432025D01*
X-19328190Y-19432025D02*
X-19328190Y-19964215D01*
X-19328190Y-19432025D02*
X-19279809Y-19335263D01*
X-19279809Y-19335263D02*
X-19183047Y-19286882D01*
X-19183047Y-19286882D02*
X-19037904Y-19286882D01*
X-19037904Y-19286882D02*
X-18941143Y-19335263D01*
X-18941143Y-19335263D02*
X-18892762Y-19432025D01*
X-18892762Y-19432025D02*
X-18892762Y-19964215D01*
X-18408952Y-19286882D02*
X-18408952Y-20302882D01*
X-18408952Y-19335263D02*
X-18312190Y-19286882D01*
X-18312190Y-19286882D02*
X-18118666Y-19286882D01*
X-18118666Y-19286882D02*
X-18021904Y-19335263D01*
X-18021904Y-19335263D02*
X-17973523Y-19383644D01*
X-17973523Y-19383644D02*
X-17925142Y-19480406D01*
X-17925142Y-19480406D02*
X-17925142Y-19770692D01*
X-17925142Y-19770692D02*
X-17973523Y-19867454D01*
X-17973523Y-19867454D02*
X-18021904Y-19915835D01*
X-18021904Y-19915835D02*
X-18118666Y-19964215D01*
X-18118666Y-19964215D02*
X-18312190Y-19964215D01*
X-18312190Y-19964215D02*
X-18408952Y-19915835D01*
X-19642666Y-21503214D02*
X-19594285Y-21551595D01*
X-19594285Y-21551595D02*
X-19642666Y-21599975D01*
X-19642666Y-21599975D02*
X-19691047Y-21551595D01*
X-19691047Y-21551595D02*
X-19642666Y-21503214D01*
X-19642666Y-21503214D02*
X-19642666Y-21599975D01*
X-19642666Y-20971023D02*
X-19594285Y-21019404D01*
X-19594285Y-21019404D02*
X-19642666Y-21067785D01*
X-19642666Y-21067785D02*
X-19691047Y-21019404D01*
X-19691047Y-21019404D02*
X-19642666Y-20971023D01*
X-19642666Y-20971023D02*
X-19642666Y-21067785D01*
X-18868570Y-21987023D02*
X-18916951Y-21938642D01*
X-18916951Y-21938642D02*
X-19013713Y-21793499D01*
X-19013713Y-21793499D02*
X-19062094Y-21696737D01*
X-19062094Y-21696737D02*
X-19110475Y-21551595D01*
X-19110475Y-21551595D02*
X-19158856Y-21309690D01*
X-19158856Y-21309690D02*
X-19158856Y-21116166D01*
X-19158856Y-21116166D02*
X-19110475Y-20874261D01*
X-19110475Y-20874261D02*
X-19062094Y-20729118D01*
X-19062094Y-20729118D02*
X-19013713Y-20632356D01*
X-19013713Y-20632356D02*
X-18916951Y-20487214D01*
X-18916951Y-20487214D02*
X-18868570Y-20438833D01*
X-14659428Y-37038095D02*
X-14659428Y-36022095D01*
X-14659428Y-36022095D02*
X-14272380Y-36022095D01*
X-14272380Y-36022095D02*
X-14175618Y-36070476D01*
X-14175618Y-36070476D02*
X-14127237Y-36118857D01*
X-14127237Y-36118857D02*
X-14078856Y-36215619D01*
X-14078856Y-36215619D02*
X-14078856Y-36360762D01*
X-14078856Y-36360762D02*
X-14127237Y-36457524D01*
X-14127237Y-36457524D02*
X-14175618Y-36505905D01*
X-14175618Y-36505905D02*
X-14272380Y-36554286D01*
X-14272380Y-36554286D02*
X-14659428Y-36554286D01*
X-13498285Y-37038095D02*
X-13595047Y-36989715D01*
X-13595047Y-36989715D02*
X-13643428Y-36941334D01*
X-13643428Y-36941334D02*
X-13691809Y-36844572D01*
X-13691809Y-36844572D02*
X-13691809Y-36554286D01*
X-13691809Y-36554286D02*
X-13643428Y-36457524D01*
X-13643428Y-36457524D02*
X-13595047Y-36409143D01*
X-13595047Y-36409143D02*
X-13498285Y-36360762D01*
X-13498285Y-36360762D02*
X-13353142Y-36360762D01*
X-13353142Y-36360762D02*
X-13256380Y-36409143D01*
X-13256380Y-36409143D02*
X-13207999Y-36457524D01*
X-13207999Y-36457524D02*
X-13159618Y-36554286D01*
X-13159618Y-36554286D02*
X-13159618Y-36844572D01*
X-13159618Y-36844572D02*
X-13207999Y-36941334D01*
X-13207999Y-36941334D02*
X-13256380Y-36989715D01*
X-13256380Y-36989715D02*
X-13353142Y-37038095D01*
X-13353142Y-37038095D02*
X-13498285Y-37038095D01*
X-12820952Y-36360762D02*
X-12627428Y-37038095D01*
X-12627428Y-37038095D02*
X-12433904Y-36554286D01*
X-12433904Y-36554286D02*
X-12240380Y-37038095D01*
X-12240380Y-37038095D02*
X-12046856Y-36360762D01*
X-11272761Y-36989715D02*
X-11369523Y-37038095D01*
X-11369523Y-37038095D02*
X-11563047Y-37038095D01*
X-11563047Y-37038095D02*
X-11659809Y-36989715D01*
X-11659809Y-36989715D02*
X-11708190Y-36892953D01*
X-11708190Y-36892953D02*
X-11708190Y-36505905D01*
X-11708190Y-36505905D02*
X-11659809Y-36409143D01*
X-11659809Y-36409143D02*
X-11563047Y-36360762D01*
X-11563047Y-36360762D02*
X-11369523Y-36360762D01*
X-11369523Y-36360762D02*
X-11272761Y-36409143D01*
X-11272761Y-36409143D02*
X-11224380Y-36505905D01*
X-11224380Y-36505905D02*
X-11224380Y-36602667D01*
X-11224380Y-36602667D02*
X-11708190Y-36699429D01*
X-10788952Y-37038095D02*
X-10788952Y-36360762D01*
X-10788952Y-36554286D02*
X-10740571Y-36457524D01*
X-10740571Y-36457524D02*
X-10692190Y-36409143D01*
X-10692190Y-36409143D02*
X-10595428Y-36360762D01*
X-10595428Y-36360762D02*
X-10498666Y-36360762D01*
X-9385905Y-36941334D02*
X-9337524Y-36989715D01*
X-9337524Y-36989715D02*
X-9385905Y-37038095D01*
X-9385905Y-37038095D02*
X-9434286Y-36989715D01*
X-9434286Y-36989715D02*
X-9385905Y-36941334D01*
X-9385905Y-36941334D02*
X-9385905Y-37038095D01*
X-9385905Y-36409143D02*
X-9337524Y-36457524D01*
X-9337524Y-36457524D02*
X-9385905Y-36505905D01*
X-9385905Y-36505905D02*
X-9434286Y-36457524D01*
X-9434286Y-36457524D02*
X-9385905Y-36409143D01*
X-9385905Y-36409143D02*
X-9385905Y-36505905D01*
X-8998857Y-37425143D02*
X-8950476Y-37376762D01*
X-8950476Y-37376762D02*
X-8853714Y-37231619D01*
X-8853714Y-37231619D02*
X-8805333Y-37134857D01*
X-8805333Y-37134857D02*
X-8756952Y-36989715D01*
X-8756952Y-36989715D02*
X-8708571Y-36747810D01*
X-8708571Y-36747810D02*
X-8708571Y-36554286D01*
X-8708571Y-36554286D02*
X-8756952Y-36312381D01*
X-8756952Y-36312381D02*
X-8805333Y-36167238D01*
X-8805333Y-36167238D02*
X-8853714Y-36070476D01*
X-8853714Y-36070476D02*
X-8950476Y-35925334D01*
X-8950476Y-35925334D02*
X-8998857Y-35876953D01*
D11*
X-19373471Y-25920095D02*
X-19373471Y-24758952D01*
X-19373471Y-25339524D02*
X-17341471Y-25339524D01*
X-17341471Y-25339524D02*
X-17631757Y-25146000D01*
X-17631757Y-25146000D02*
X-17825281Y-24952476D01*
X-17825281Y-24952476D02*
X-17922043Y-24758952D01*
X-17534995Y-26694190D02*
X-17438233Y-26790952D01*
X-17438233Y-26790952D02*
X-17341471Y-26984476D01*
X-17341471Y-26984476D02*
X-17341471Y-27468285D01*
X-17341471Y-27468285D02*
X-17438233Y-27661809D01*
X-17438233Y-27661809D02*
X-17534995Y-27758571D01*
X-17534995Y-27758571D02*
X-17728519Y-27855333D01*
X-17728519Y-27855333D02*
X-17922043Y-27855333D01*
X-17922043Y-27855333D02*
X-18212329Y-27758571D01*
X-18212329Y-27758571D02*
X-19373471Y-26597428D01*
X-19373471Y-26597428D02*
X-19373471Y-27855333D01*
X-17341471Y-28435904D02*
X-19373471Y-29113238D01*
X-19373471Y-29113238D02*
X-17341471Y-29790571D01*
D10*
X-4937334Y24202570D02*
X-4985715Y24250951D01*
X-4985715Y24250951D02*
X-5034095Y24396094D01*
X-5034095Y24396094D02*
X-5034095Y24492856D01*
X-5034095Y24492856D02*
X-4985715Y24637999D01*
X-4985715Y24637999D02*
X-4888953Y24734761D01*
X-4888953Y24734761D02*
X-4792191Y24783142D01*
X-4792191Y24783142D02*
X-4598667Y24831523D01*
X-4598667Y24831523D02*
X-4453524Y24831523D01*
X-4453524Y24831523D02*
X-4260000Y24783142D01*
X-4260000Y24783142D02*
X-4163238Y24734761D01*
X-4163238Y24734761D02*
X-4066476Y24637999D01*
X-4066476Y24637999D02*
X-4018095Y24492856D01*
X-4018095Y24492856D02*
X-4018095Y24396094D01*
X-4018095Y24396094D02*
X-4066476Y24250951D01*
X-4066476Y24250951D02*
X-4114857Y24202570D01*
X-4018095Y23912285D02*
X-4018095Y23331713D01*
X-5034095Y23621999D02*
X-4018095Y23621999D01*
X-14335334Y24323523D02*
X-14383715Y24371904D01*
X-14383715Y24371904D02*
X-14432095Y24517047D01*
X-14432095Y24517047D02*
X-14432095Y24613809D01*
X-14432095Y24613809D02*
X-14383715Y24758952D01*
X-14383715Y24758952D02*
X-14286953Y24855714D01*
X-14286953Y24855714D02*
X-14190191Y24904095D01*
X-14190191Y24904095D02*
X-13996667Y24952476D01*
X-13996667Y24952476D02*
X-13851524Y24952476D01*
X-13851524Y24952476D02*
X-13658000Y24904095D01*
X-13658000Y24904095D02*
X-13561238Y24855714D01*
X-13561238Y24855714D02*
X-13464476Y24758952D01*
X-13464476Y24758952D02*
X-13416095Y24613809D01*
X-13416095Y24613809D02*
X-13416095Y24517047D01*
X-13416095Y24517047D02*
X-13464476Y24371904D01*
X-13464476Y24371904D02*
X-13512857Y24323523D01*
X-14432095Y23307523D02*
X-13948286Y23646190D01*
X-14432095Y23888095D02*
X-13416095Y23888095D01*
X-13416095Y23888095D02*
X-13416095Y23501047D01*
X-13416095Y23501047D02*
X-13464476Y23404285D01*
X-13464476Y23404285D02*
X-13512857Y23355904D01*
X-13512857Y23355904D02*
X-13609619Y23307523D01*
X-13609619Y23307523D02*
X-13754762Y23307523D01*
X-13754762Y23307523D02*
X-13851524Y23355904D01*
X-13851524Y23355904D02*
X-13899905Y23404285D01*
X-13899905Y23404285D02*
X-13948286Y23501047D01*
X-13948286Y23501047D02*
X-13948286Y23888095D01*
X-36784095Y36285D02*
X-35768095Y36285D01*
X-35768095Y36285D02*
X-35768095Y-350762D01*
X-35768095Y-350762D02*
X-35816476Y-447524D01*
X-35816476Y-447524D02*
X-35864857Y-495905D01*
X-35864857Y-495905D02*
X-35961619Y-544286D01*
X-35961619Y-544286D02*
X-36106762Y-544286D01*
X-36106762Y-544286D02*
X-36203524Y-495905D01*
X-36203524Y-495905D02*
X-36251905Y-447524D01*
X-36251905Y-447524D02*
X-36300286Y-350762D01*
X-36300286Y-350762D02*
X-36300286Y36285D01*
X-36784095Y-979714D02*
X-35768095Y-979714D01*
X-35768095Y-979714D02*
X-35768095Y-1221619D01*
X-35768095Y-1221619D02*
X-35816476Y-1366762D01*
X-35816476Y-1366762D02*
X-35913238Y-1463524D01*
X-35913238Y-1463524D02*
X-36010000Y-1511905D01*
X-36010000Y-1511905D02*
X-36203524Y-1560286D01*
X-36203524Y-1560286D02*
X-36348667Y-1560286D01*
X-36348667Y-1560286D02*
X-36542191Y-1511905D01*
X-36542191Y-1511905D02*
X-36638953Y-1463524D01*
X-36638953Y-1463524D02*
X-36735715Y-1366762D01*
X-36735715Y-1366762D02*
X-36784095Y-1221619D01*
X-36784095Y-1221619D02*
X-36784095Y-979714D01*
X-36784095Y-1995714D02*
X-35768095Y-1995714D01*
X-35768095Y-1995714D02*
X-36493810Y-2334381D01*
X-36493810Y-2334381D02*
X-35768095Y-2673048D01*
X-35768095Y-2673048D02*
X-36784095Y-2673048D01*
X-36106762Y-3834190D02*
X-36784095Y-4076095D01*
X-36784095Y-4076095D02*
X-36106762Y-4318000D01*
X-35768095Y-4608285D02*
X-35768095Y-5285619D01*
X-35768095Y-5285619D02*
X-36784095Y-4850190D01*
X-36687334Y-5672666D02*
X-36735715Y-5721047D01*
X-36735715Y-5721047D02*
X-36784095Y-5672666D01*
X-36784095Y-5672666D02*
X-36735715Y-5624285D01*
X-36735715Y-5624285D02*
X-36687334Y-5672666D01*
X-36687334Y-5672666D02*
X-36784095Y-5672666D01*
X-36784095Y-6688667D02*
X-36784095Y-6108095D01*
X-36784095Y-6398381D02*
X-35768095Y-6398381D01*
X-35768095Y-6398381D02*
X-35913238Y-6301619D01*
X-35913238Y-6301619D02*
X-36010000Y-6204857D01*
X-36010000Y-6204857D02*
X-36058381Y-6108095D01*
X-36070476Y16268094D02*
X-36022095Y16364856D01*
X-36022095Y16364856D02*
X-36022095Y16509999D01*
X-36022095Y16509999D02*
X-36070476Y16655142D01*
X-36070476Y16655142D02*
X-36167238Y16751904D01*
X-36167238Y16751904D02*
X-36264000Y16800285D01*
X-36264000Y16800285D02*
X-36457524Y16848666D01*
X-36457524Y16848666D02*
X-36602667Y16848666D01*
X-36602667Y16848666D02*
X-36796191Y16800285D01*
X-36796191Y16800285D02*
X-36892953Y16751904D01*
X-36892953Y16751904D02*
X-36989715Y16655142D01*
X-36989715Y16655142D02*
X-37038095Y16509999D01*
X-37038095Y16509999D02*
X-37038095Y16413237D01*
X-37038095Y16413237D02*
X-36989715Y16268094D01*
X-36989715Y16268094D02*
X-36941334Y16219713D01*
X-36941334Y16219713D02*
X-36602667Y16219713D01*
X-36602667Y16219713D02*
X-36602667Y16413237D01*
X-37038095Y15784285D02*
X-36022095Y15784285D01*
X-36022095Y15784285D02*
X-37038095Y15203713D01*
X-37038095Y15203713D02*
X-36022095Y15203713D01*
X-37038095Y14719904D02*
X-36022095Y14719904D01*
X-36022095Y14719904D02*
X-36022095Y14477999D01*
X-36022095Y14477999D02*
X-36070476Y14332856D01*
X-36070476Y14332856D02*
X-36167238Y14236094D01*
X-36167238Y14236094D02*
X-36264000Y14187713D01*
X-36264000Y14187713D02*
X-36457524Y14139332D01*
X-36457524Y14139332D02*
X-36602667Y14139332D01*
X-36602667Y14139332D02*
X-36796191Y14187713D01*
X-36796191Y14187713D02*
X-36892953Y14236094D01*
X-36892953Y14236094D02*
X-36989715Y14332856D01*
X-36989715Y14332856D02*
X-37038095Y14477999D01*
X-37038095Y14477999D02*
X-37038095Y14719904D01*
X-36911095Y-9676190D02*
X-35895095Y-9676190D01*
X-35991857Y-10111619D02*
X-35943476Y-10160000D01*
X-35943476Y-10160000D02*
X-35895095Y-10256762D01*
X-35895095Y-10256762D02*
X-35895095Y-10498667D01*
X-35895095Y-10498667D02*
X-35943476Y-10595429D01*
X-35943476Y-10595429D02*
X-35991857Y-10643810D01*
X-35991857Y-10643810D02*
X-36088619Y-10692191D01*
X-36088619Y-10692191D02*
X-36185381Y-10692191D01*
X-36185381Y-10692191D02*
X-36330524Y-10643810D01*
X-36330524Y-10643810D02*
X-36911095Y-10063238D01*
X-36911095Y-10063238D02*
X-36911095Y-10692191D01*
X-36814334Y-11708191D02*
X-36862715Y-11659810D01*
X-36862715Y-11659810D02*
X-36911095Y-11514667D01*
X-36911095Y-11514667D02*
X-36911095Y-11417905D01*
X-36911095Y-11417905D02*
X-36862715Y-11272762D01*
X-36862715Y-11272762D02*
X-36765953Y-11176000D01*
X-36765953Y-11176000D02*
X-36669191Y-11127619D01*
X-36669191Y-11127619D02*
X-36475667Y-11079238D01*
X-36475667Y-11079238D02*
X-36330524Y-11079238D01*
X-36330524Y-11079238D02*
X-36137000Y-11127619D01*
X-36137000Y-11127619D02*
X-36040238Y-11176000D01*
X-36040238Y-11176000D02*
X-35943476Y-11272762D01*
X-35943476Y-11272762D02*
X-35895095Y-11417905D01*
X-35895095Y-11417905D02*
X-35895095Y-11514667D01*
X-35895095Y-11514667D02*
X-35943476Y-11659810D01*
X-35943476Y-11659810D02*
X-35991857Y-11708191D01*
D11*
X-32028190Y21666326D02*
X-32221714Y21763088D01*
X-32221714Y21763088D02*
X-32512000Y21763088D01*
X-32512000Y21763088D02*
X-32802285Y21666326D01*
X-32802285Y21666326D02*
X-32995809Y21472802D01*
X-32995809Y21472802D02*
X-33092571Y21279278D01*
X-33092571Y21279278D02*
X-33189333Y20892230D01*
X-33189333Y20892230D02*
X-33189333Y20601945D01*
X-33189333Y20601945D02*
X-33092571Y20214897D01*
X-33092571Y20214897D02*
X-32995809Y20021373D01*
X-32995809Y20021373D02*
X-32802285Y19827850D01*
X-32802285Y19827850D02*
X-32512000Y19731088D01*
X-32512000Y19731088D02*
X-32318476Y19731088D01*
X-32318476Y19731088D02*
X-32028190Y19827850D01*
X-32028190Y19827850D02*
X-31931428Y19924611D01*
X-31931428Y19924611D02*
X-31931428Y20601945D01*
X-31931428Y20601945D02*
X-32318476Y20601945D01*
X-31060571Y19731088D02*
X-31060571Y21763088D01*
X-31060571Y21763088D02*
X-29899428Y19731088D01*
X-29899428Y19731088D02*
X-29899428Y21763088D01*
X-28931809Y19731088D02*
X-28931809Y21763088D01*
X-28931809Y21763088D02*
X-28447999Y21763088D01*
X-28447999Y21763088D02*
X-28157714Y21666326D01*
X-28157714Y21666326D02*
X-27964190Y21472802D01*
X-27964190Y21472802D02*
X-27867428Y21279278D01*
X-27867428Y21279278D02*
X-27770666Y20892230D01*
X-27770666Y20892230D02*
X-27770666Y20601945D01*
X-27770666Y20601945D02*
X-27867428Y20214897D01*
X-27867428Y20214897D02*
X-27964190Y20021373D01*
X-27964190Y20021373D02*
X-28157714Y19827850D01*
X-28157714Y19827850D02*
X-28447999Y19731088D01*
X-28447999Y19731088D02*
X-28931809Y19731088D01*
D12*
X-5527819Y31397411D02*
X-5527819Y31968839D01*
X-5527819Y31683125D02*
X-4527819Y31683125D01*
X-4527819Y31683125D02*
X-4670676Y31778363D01*
X-4670676Y31778363D02*
X-4765914Y31873601D01*
X-4765914Y31873601D02*
X-4813533Y31968839D01*
X-5146866Y30968839D02*
X-5146866Y30206935D01*
X-5432580Y29159316D02*
X-5480200Y29206935D01*
X-5480200Y29206935D02*
X-5527819Y29349792D01*
X-5527819Y29349792D02*
X-5527819Y29445030D01*
X-5527819Y29445030D02*
X-5480200Y29587887D01*
X-5480200Y29587887D02*
X-5384961Y29683125D01*
X-5384961Y29683125D02*
X-5289723Y29730744D01*
X-5289723Y29730744D02*
X-5099247Y29778363D01*
X-5099247Y29778363D02*
X-4956390Y29778363D01*
X-4956390Y29778363D02*
X-4765914Y29730744D01*
X-4765914Y29730744D02*
X-4670676Y29683125D01*
X-4670676Y29683125D02*
X-4575438Y29587887D01*
X-4575438Y29587887D02*
X-4527819Y29445030D01*
X-4527819Y29445030D02*
X-4527819Y29349792D01*
X-4527819Y29349792D02*
X-4575438Y29206935D01*
X-4575438Y29206935D02*
X-4623057Y29159316D01*
X-5242104Y28778363D02*
X-5242104Y28302173D01*
X-5527819Y28873601D02*
X-4527819Y28540268D01*
X-4527819Y28540268D02*
X-5527819Y28206935D01*
X-5527819Y27873601D02*
X-4527819Y27873601D01*
X-4527819Y27873601D02*
X-5527819Y27302173D01*
X-5527819Y27302173D02*
X-4527819Y27302173D01*
X-5527819Y26349792D02*
X-5527819Y26825982D01*
X-5527819Y26825982D02*
X-4527819Y26825982D01*
X-6233057Y31968839D02*
X-6185438Y31921220D01*
X-6185438Y31921220D02*
X-6137819Y31825982D01*
X-6137819Y31825982D02*
X-6137819Y31587887D01*
X-6137819Y31587887D02*
X-6185438Y31492649D01*
X-6185438Y31492649D02*
X-6233057Y31445030D01*
X-6233057Y31445030D02*
X-6328295Y31397411D01*
X-6328295Y31397411D02*
X-6423533Y31397411D01*
X-6423533Y31397411D02*
X-6566390Y31445030D01*
X-6566390Y31445030D02*
X-7137819Y32016458D01*
X-7137819Y32016458D02*
X-7137819Y31397411D01*
X-6756866Y30968839D02*
X-6756866Y30206935D01*
X-7042580Y29159316D02*
X-7090200Y29206935D01*
X-7090200Y29206935D02*
X-7137819Y29349792D01*
X-7137819Y29349792D02*
X-7137819Y29445030D01*
X-7137819Y29445030D02*
X-7090200Y29587887D01*
X-7090200Y29587887D02*
X-6994961Y29683125D01*
X-6994961Y29683125D02*
X-6899723Y29730744D01*
X-6899723Y29730744D02*
X-6709247Y29778363D01*
X-6709247Y29778363D02*
X-6566390Y29778363D01*
X-6566390Y29778363D02*
X-6375914Y29730744D01*
X-6375914Y29730744D02*
X-6280676Y29683125D01*
X-6280676Y29683125D02*
X-6185438Y29587887D01*
X-6185438Y29587887D02*
X-6137819Y29445030D01*
X-6137819Y29445030D02*
X-6137819Y29349792D01*
X-6137819Y29349792D02*
X-6185438Y29206935D01*
X-6185438Y29206935D02*
X-6233057Y29159316D01*
X-6852104Y28778363D02*
X-6852104Y28302173D01*
X-7137819Y28873601D02*
X-6137819Y28540268D01*
X-6137819Y28540268D02*
X-7137819Y28206935D01*
X-7137819Y27873601D02*
X-6137819Y27873601D01*
X-6137819Y27873601D02*
X-7137819Y27302173D01*
X-7137819Y27302173D02*
X-6137819Y27302173D01*
X-7137819Y26825982D02*
X-6137819Y26825982D01*
X-6614009Y26825982D02*
X-6614009Y26254554D01*
X-7137819Y26254554D02*
X-6137819Y26254554D01*
X-7747819Y32016458D02*
X-7747819Y31397411D01*
X-7747819Y31397411D02*
X-8128771Y31730744D01*
X-8128771Y31730744D02*
X-8128771Y31587887D01*
X-8128771Y31587887D02*
X-8176390Y31492649D01*
X-8176390Y31492649D02*
X-8224009Y31445030D01*
X-8224009Y31445030D02*
X-8319247Y31397411D01*
X-8319247Y31397411D02*
X-8557342Y31397411D01*
X-8557342Y31397411D02*
X-8652580Y31445030D01*
X-8652580Y31445030D02*
X-8700200Y31492649D01*
X-8700200Y31492649D02*
X-8747819Y31587887D01*
X-8747819Y31587887D02*
X-8747819Y31873601D01*
X-8747819Y31873601D02*
X-8700200Y31968839D01*
X-8700200Y31968839D02*
X-8652580Y32016458D01*
X-8366866Y30968839D02*
X-8366866Y30206935D01*
X-7747819Y29540268D02*
X-7747819Y29349792D01*
X-7747819Y29349792D02*
X-7795438Y29254554D01*
X-7795438Y29254554D02*
X-7890676Y29159316D01*
X-7890676Y29159316D02*
X-8081152Y29111697D01*
X-8081152Y29111697D02*
X-8414485Y29111697D01*
X-8414485Y29111697D02*
X-8604961Y29159316D01*
X-8604961Y29159316D02*
X-8700200Y29254554D01*
X-8700200Y29254554D02*
X-8747819Y29349792D01*
X-8747819Y29349792D02*
X-8747819Y29540268D01*
X-8747819Y29540268D02*
X-8700200Y29635506D01*
X-8700200Y29635506D02*
X-8604961Y29730744D01*
X-8604961Y29730744D02*
X-8414485Y29778363D01*
X-8414485Y29778363D02*
X-8081152Y29778363D01*
X-8081152Y29778363D02*
X-7890676Y29730744D01*
X-7890676Y29730744D02*
X-7795438Y29635506D01*
X-7795438Y29635506D02*
X-7747819Y29540268D01*
X-7747819Y28683125D02*
X-8557342Y28683125D01*
X-8557342Y28683125D02*
X-8652580Y28635506D01*
X-8652580Y28635506D02*
X-8700200Y28587887D01*
X-8700200Y28587887D02*
X-8747819Y28492649D01*
X-8747819Y28492649D02*
X-8747819Y28302173D01*
X-8747819Y28302173D02*
X-8700200Y28206935D01*
X-8700200Y28206935D02*
X-8652580Y28159316D01*
X-8652580Y28159316D02*
X-8557342Y28111697D01*
X-8557342Y28111697D02*
X-7747819Y28111697D01*
X-7747819Y27778363D02*
X-7747819Y27206935D01*
X-8747819Y27492649D02*
X-7747819Y27492649D01*
X-8176390Y26730744D02*
X-8128771Y26825982D01*
X-8128771Y26825982D02*
X-8081152Y26873601D01*
X-8081152Y26873601D02*
X-7985914Y26921220D01*
X-7985914Y26921220D02*
X-7938295Y26921220D01*
X-7938295Y26921220D02*
X-7843057Y26873601D01*
X-7843057Y26873601D02*
X-7795438Y26825982D01*
X-7795438Y26825982D02*
X-7747819Y26730744D01*
X-7747819Y26730744D02*
X-7747819Y26540268D01*
X-7747819Y26540268D02*
X-7795438Y26445030D01*
X-7795438Y26445030D02*
X-7843057Y26397411D01*
X-7843057Y26397411D02*
X-7938295Y26349792D01*
X-7938295Y26349792D02*
X-7985914Y26349792D01*
X-7985914Y26349792D02*
X-8081152Y26397411D01*
X-8081152Y26397411D02*
X-8128771Y26445030D01*
X-8128771Y26445030D02*
X-8176390Y26540268D01*
X-8176390Y26540268D02*
X-8176390Y26730744D01*
X-8176390Y26730744D02*
X-8224009Y26825982D01*
X-8224009Y26825982D02*
X-8271628Y26873601D01*
X-8271628Y26873601D02*
X-8366866Y26921220D01*
X-8366866Y26921220D02*
X-8557342Y26921220D01*
X-8557342Y26921220D02*
X-8652580Y26873601D01*
X-8652580Y26873601D02*
X-8700200Y26825982D01*
X-8700200Y26825982D02*
X-8747819Y26730744D01*
X-8747819Y26730744D02*
X-8747819Y26540268D01*
X-8747819Y26540268D02*
X-8700200Y26445030D01*
X-8700200Y26445030D02*
X-8652580Y26397411D01*
X-8652580Y26397411D02*
X-8557342Y26349792D01*
X-8557342Y26349792D02*
X-8366866Y26349792D01*
X-8366866Y26349792D02*
X-8271628Y26397411D01*
X-8271628Y26397411D02*
X-8224009Y26445030D01*
X-8224009Y26445030D02*
X-8176390Y26540268D01*
X-9691152Y31492649D02*
X-10357819Y31492649D01*
X-9310200Y31730744D02*
X-10024485Y31968839D01*
X-10024485Y31968839D02*
X-10024485Y31349792D01*
X-9976866Y30968839D02*
X-9976866Y30206935D01*
X-9357819Y29540268D02*
X-9357819Y29349792D01*
X-9357819Y29349792D02*
X-9405438Y29254554D01*
X-9405438Y29254554D02*
X-9500676Y29159316D01*
X-9500676Y29159316D02*
X-9691152Y29111697D01*
X-9691152Y29111697D02*
X-10024485Y29111697D01*
X-10024485Y29111697D02*
X-10214961Y29159316D01*
X-10214961Y29159316D02*
X-10310200Y29254554D01*
X-10310200Y29254554D02*
X-10357819Y29349792D01*
X-10357819Y29349792D02*
X-10357819Y29540268D01*
X-10357819Y29540268D02*
X-10310200Y29635506D01*
X-10310200Y29635506D02*
X-10214961Y29730744D01*
X-10214961Y29730744D02*
X-10024485Y29778363D01*
X-10024485Y29778363D02*
X-9691152Y29778363D01*
X-9691152Y29778363D02*
X-9500676Y29730744D01*
X-9500676Y29730744D02*
X-9405438Y29635506D01*
X-9405438Y29635506D02*
X-9357819Y29540268D01*
X-9357819Y28683125D02*
X-10167342Y28683125D01*
X-10167342Y28683125D02*
X-10262580Y28635506D01*
X-10262580Y28635506D02*
X-10310200Y28587887D01*
X-10310200Y28587887D02*
X-10357819Y28492649D01*
X-10357819Y28492649D02*
X-10357819Y28302173D01*
X-10357819Y28302173D02*
X-10310200Y28206935D01*
X-10310200Y28206935D02*
X-10262580Y28159316D01*
X-10262580Y28159316D02*
X-10167342Y28111697D01*
X-10167342Y28111697D02*
X-9357819Y28111697D01*
X-9357819Y27778363D02*
X-9357819Y27206935D01*
X-10357819Y27492649D02*
X-9357819Y27492649D01*
X-9357819Y26968839D02*
X-9357819Y26302173D01*
X-9357819Y26302173D02*
X-10357819Y26730744D01*
X-10967819Y31445030D02*
X-10967819Y31921220D01*
X-10967819Y31921220D02*
X-11444009Y31968839D01*
X-11444009Y31968839D02*
X-11396390Y31921220D01*
X-11396390Y31921220D02*
X-11348771Y31825982D01*
X-11348771Y31825982D02*
X-11348771Y31587887D01*
X-11348771Y31587887D02*
X-11396390Y31492649D01*
X-11396390Y31492649D02*
X-11444009Y31445030D01*
X-11444009Y31445030D02*
X-11539247Y31397411D01*
X-11539247Y31397411D02*
X-11777342Y31397411D01*
X-11777342Y31397411D02*
X-11872580Y31445030D01*
X-11872580Y31445030D02*
X-11920200Y31492649D01*
X-11920200Y31492649D02*
X-11967819Y31587887D01*
X-11967819Y31587887D02*
X-11967819Y31825982D01*
X-11967819Y31825982D02*
X-11920200Y31921220D01*
X-11920200Y31921220D02*
X-11872580Y31968839D01*
X-11586866Y30968839D02*
X-11586866Y30206935D01*
X-10967819Y29540268D02*
X-10967819Y29349792D01*
X-10967819Y29349792D02*
X-11015438Y29254554D01*
X-11015438Y29254554D02*
X-11110676Y29159316D01*
X-11110676Y29159316D02*
X-11301152Y29111697D01*
X-11301152Y29111697D02*
X-11634485Y29111697D01*
X-11634485Y29111697D02*
X-11824961Y29159316D01*
X-11824961Y29159316D02*
X-11920200Y29254554D01*
X-11920200Y29254554D02*
X-11967819Y29349792D01*
X-11967819Y29349792D02*
X-11967819Y29540268D01*
X-11967819Y29540268D02*
X-11920200Y29635506D01*
X-11920200Y29635506D02*
X-11824961Y29730744D01*
X-11824961Y29730744D02*
X-11634485Y29778363D01*
X-11634485Y29778363D02*
X-11301152Y29778363D01*
X-11301152Y29778363D02*
X-11110676Y29730744D01*
X-11110676Y29730744D02*
X-11015438Y29635506D01*
X-11015438Y29635506D02*
X-10967819Y29540268D01*
X-10967819Y28683125D02*
X-11777342Y28683125D01*
X-11777342Y28683125D02*
X-11872580Y28635506D01*
X-11872580Y28635506D02*
X-11920200Y28587887D01*
X-11920200Y28587887D02*
X-11967819Y28492649D01*
X-11967819Y28492649D02*
X-11967819Y28302173D01*
X-11967819Y28302173D02*
X-11920200Y28206935D01*
X-11920200Y28206935D02*
X-11872580Y28159316D01*
X-11872580Y28159316D02*
X-11777342Y28111697D01*
X-11777342Y28111697D02*
X-10967819Y28111697D01*
X-10967819Y27778363D02*
X-10967819Y27206935D01*
X-11967819Y27492649D02*
X-10967819Y27492649D01*
X-10967819Y26445030D02*
X-10967819Y26635506D01*
X-10967819Y26635506D02*
X-11015438Y26730744D01*
X-11015438Y26730744D02*
X-11063057Y26778363D01*
X-11063057Y26778363D02*
X-11205914Y26873601D01*
X-11205914Y26873601D02*
X-11396390Y26921220D01*
X-11396390Y26921220D02*
X-11777342Y26921220D01*
X-11777342Y26921220D02*
X-11872580Y26873601D01*
X-11872580Y26873601D02*
X-11920200Y26825982D01*
X-11920200Y26825982D02*
X-11967819Y26730744D01*
X-11967819Y26730744D02*
X-11967819Y26540268D01*
X-11967819Y26540268D02*
X-11920200Y26445030D01*
X-11920200Y26445030D02*
X-11872580Y26397411D01*
X-11872580Y26397411D02*
X-11777342Y26349792D01*
X-11777342Y26349792D02*
X-11539247Y26349792D01*
X-11539247Y26349792D02*
X-11444009Y26397411D01*
X-11444009Y26397411D02*
X-11396390Y26445030D01*
X-11396390Y26445030D02*
X-11348771Y26540268D01*
X-11348771Y26540268D02*
X-11348771Y26730744D01*
X-11348771Y26730744D02*
X-11396390Y26825982D01*
X-11396390Y26825982D02*
X-11444009Y26873601D01*
X-11444009Y26873601D02*
X-11539247Y26921220D01*
X-12577819Y31492649D02*
X-12577819Y31683125D01*
X-12577819Y31683125D02*
X-12625438Y31778363D01*
X-12625438Y31778363D02*
X-12673057Y31825982D01*
X-12673057Y31825982D02*
X-12815914Y31921220D01*
X-12815914Y31921220D02*
X-13006390Y31968839D01*
X-13006390Y31968839D02*
X-13387342Y31968839D01*
X-13387342Y31968839D02*
X-13482580Y31921220D01*
X-13482580Y31921220D02*
X-13530200Y31873601D01*
X-13530200Y31873601D02*
X-13577819Y31778363D01*
X-13577819Y31778363D02*
X-13577819Y31587887D01*
X-13577819Y31587887D02*
X-13530200Y31492649D01*
X-13530200Y31492649D02*
X-13482580Y31445030D01*
X-13482580Y31445030D02*
X-13387342Y31397411D01*
X-13387342Y31397411D02*
X-13149247Y31397411D01*
X-13149247Y31397411D02*
X-13054009Y31445030D01*
X-13054009Y31445030D02*
X-13006390Y31492649D01*
X-13006390Y31492649D02*
X-12958771Y31587887D01*
X-12958771Y31587887D02*
X-12958771Y31778363D01*
X-12958771Y31778363D02*
X-13006390Y31873601D01*
X-13006390Y31873601D02*
X-13054009Y31921220D01*
X-13054009Y31921220D02*
X-13149247Y31968839D01*
X-13196866Y30968839D02*
X-13196866Y30206935D01*
X-12577819Y29540268D02*
X-12577819Y29349792D01*
X-12577819Y29349792D02*
X-12625438Y29254554D01*
X-12625438Y29254554D02*
X-12720676Y29159316D01*
X-12720676Y29159316D02*
X-12911152Y29111697D01*
X-12911152Y29111697D02*
X-13244485Y29111697D01*
X-13244485Y29111697D02*
X-13434961Y29159316D01*
X-13434961Y29159316D02*
X-13530200Y29254554D01*
X-13530200Y29254554D02*
X-13577819Y29349792D01*
X-13577819Y29349792D02*
X-13577819Y29540268D01*
X-13577819Y29540268D02*
X-13530200Y29635506D01*
X-13530200Y29635506D02*
X-13434961Y29730744D01*
X-13434961Y29730744D02*
X-13244485Y29778363D01*
X-13244485Y29778363D02*
X-12911152Y29778363D01*
X-12911152Y29778363D02*
X-12720676Y29730744D01*
X-12720676Y29730744D02*
X-12625438Y29635506D01*
X-12625438Y29635506D02*
X-12577819Y29540268D01*
X-12577819Y28683125D02*
X-13387342Y28683125D01*
X-13387342Y28683125D02*
X-13482580Y28635506D01*
X-13482580Y28635506D02*
X-13530200Y28587887D01*
X-13530200Y28587887D02*
X-13577819Y28492649D01*
X-13577819Y28492649D02*
X-13577819Y28302173D01*
X-13577819Y28302173D02*
X-13530200Y28206935D01*
X-13530200Y28206935D02*
X-13482580Y28159316D01*
X-13482580Y28159316D02*
X-13387342Y28111697D01*
X-13387342Y28111697D02*
X-12577819Y28111697D01*
X-12577819Y27778363D02*
X-12577819Y27206935D01*
X-13577819Y27492649D02*
X-12577819Y27492649D01*
X-12577819Y26397411D02*
X-12577819Y26873601D01*
X-12577819Y26873601D02*
X-13054009Y26921220D01*
X-13054009Y26921220D02*
X-13006390Y26873601D01*
X-13006390Y26873601D02*
X-12958771Y26778363D01*
X-12958771Y26778363D02*
X-12958771Y26540268D01*
X-12958771Y26540268D02*
X-13006390Y26445030D01*
X-13006390Y26445030D02*
X-13054009Y26397411D01*
X-13054009Y26397411D02*
X-13149247Y26349792D01*
X-13149247Y26349792D02*
X-13387342Y26349792D01*
X-13387342Y26349792D02*
X-13482580Y26397411D01*
X-13482580Y26397411D02*
X-13530200Y26445030D01*
X-13530200Y26445030D02*
X-13577819Y26540268D01*
X-13577819Y26540268D02*
X-13577819Y26778363D01*
X-13577819Y26778363D02*
X-13530200Y26873601D01*
X-13530200Y26873601D02*
X-13482580Y26921220D01*
X-14187819Y32016458D02*
X-14187819Y31349792D01*
X-14187819Y31349792D02*
X-15187819Y31778363D01*
X-14806866Y30968839D02*
X-14806866Y30206935D01*
X-14187819Y29540268D02*
X-14187819Y29349792D01*
X-14187819Y29349792D02*
X-14235438Y29254554D01*
X-14235438Y29254554D02*
X-14330676Y29159316D01*
X-14330676Y29159316D02*
X-14521152Y29111697D01*
X-14521152Y29111697D02*
X-14854485Y29111697D01*
X-14854485Y29111697D02*
X-15044961Y29159316D01*
X-15044961Y29159316D02*
X-15140200Y29254554D01*
X-15140200Y29254554D02*
X-15187819Y29349792D01*
X-15187819Y29349792D02*
X-15187819Y29540268D01*
X-15187819Y29540268D02*
X-15140200Y29635506D01*
X-15140200Y29635506D02*
X-15044961Y29730744D01*
X-15044961Y29730744D02*
X-14854485Y29778363D01*
X-14854485Y29778363D02*
X-14521152Y29778363D01*
X-14521152Y29778363D02*
X-14330676Y29730744D01*
X-14330676Y29730744D02*
X-14235438Y29635506D01*
X-14235438Y29635506D02*
X-14187819Y29540268D01*
X-14187819Y28683125D02*
X-14997342Y28683125D01*
X-14997342Y28683125D02*
X-15092580Y28635506D01*
X-15092580Y28635506D02*
X-15140200Y28587887D01*
X-15140200Y28587887D02*
X-15187819Y28492649D01*
X-15187819Y28492649D02*
X-15187819Y28302173D01*
X-15187819Y28302173D02*
X-15140200Y28206935D01*
X-15140200Y28206935D02*
X-15092580Y28159316D01*
X-15092580Y28159316D02*
X-14997342Y28111697D01*
X-14997342Y28111697D02*
X-14187819Y28111697D01*
X-14187819Y27778363D02*
X-14187819Y27206935D01*
X-15187819Y27492649D02*
X-14187819Y27492649D01*
X-15187819Y26349792D02*
X-15187819Y26921220D01*
X-15187819Y26635506D02*
X-14187819Y26635506D01*
X-14187819Y26635506D02*
X-14330676Y26730744D01*
X-14330676Y26730744D02*
X-14425914Y26825982D01*
X-14425914Y26825982D02*
X-14473533Y26921220D01*
X-16226390Y31778363D02*
X-16178771Y31873601D01*
X-16178771Y31873601D02*
X-16131152Y31921220D01*
X-16131152Y31921220D02*
X-16035914Y31968839D01*
X-16035914Y31968839D02*
X-15988295Y31968839D01*
X-15988295Y31968839D02*
X-15893057Y31921220D01*
X-15893057Y31921220D02*
X-15845438Y31873601D01*
X-15845438Y31873601D02*
X-15797819Y31778363D01*
X-15797819Y31778363D02*
X-15797819Y31587887D01*
X-15797819Y31587887D02*
X-15845438Y31492649D01*
X-15845438Y31492649D02*
X-15893057Y31445030D01*
X-15893057Y31445030D02*
X-15988295Y31397411D01*
X-15988295Y31397411D02*
X-16035914Y31397411D01*
X-16035914Y31397411D02*
X-16131152Y31445030D01*
X-16131152Y31445030D02*
X-16178771Y31492649D01*
X-16178771Y31492649D02*
X-16226390Y31587887D01*
X-16226390Y31587887D02*
X-16226390Y31778363D01*
X-16226390Y31778363D02*
X-16274009Y31873601D01*
X-16274009Y31873601D02*
X-16321628Y31921220D01*
X-16321628Y31921220D02*
X-16416866Y31968839D01*
X-16416866Y31968839D02*
X-16607342Y31968839D01*
X-16607342Y31968839D02*
X-16702580Y31921220D01*
X-16702580Y31921220D02*
X-16750200Y31873601D01*
X-16750200Y31873601D02*
X-16797819Y31778363D01*
X-16797819Y31778363D02*
X-16797819Y31587887D01*
X-16797819Y31587887D02*
X-16750200Y31492649D01*
X-16750200Y31492649D02*
X-16702580Y31445030D01*
X-16702580Y31445030D02*
X-16607342Y31397411D01*
X-16607342Y31397411D02*
X-16416866Y31397411D01*
X-16416866Y31397411D02*
X-16321628Y31445030D01*
X-16321628Y31445030D02*
X-16274009Y31492649D01*
X-16274009Y31492649D02*
X-16226390Y31587887D01*
X-16416866Y30968839D02*
X-16416866Y30206935D01*
X-16797819Y29730744D02*
X-15797819Y29730744D01*
X-16797819Y29254554D02*
X-15797819Y29254554D01*
X-15797819Y29254554D02*
X-16797819Y28683126D01*
X-16797819Y28683126D02*
X-15797819Y28683126D01*
X-16797819Y27683126D02*
X-16797819Y28254554D01*
X-16797819Y27968840D02*
X-15797819Y27968840D01*
X-15797819Y27968840D02*
X-15940676Y28064078D01*
X-15940676Y28064078D02*
X-16035914Y28159316D01*
X-16035914Y28159316D02*
X-16083533Y28254554D01*
X-18407819Y31873601D02*
X-18407819Y31683125D01*
X-18407819Y31683125D02*
X-18360200Y31587887D01*
X-18360200Y31587887D02*
X-18312580Y31540268D01*
X-18312580Y31540268D02*
X-18169723Y31445030D01*
X-18169723Y31445030D02*
X-17979247Y31397411D01*
X-17979247Y31397411D02*
X-17598295Y31397411D01*
X-17598295Y31397411D02*
X-17503057Y31445030D01*
X-17503057Y31445030D02*
X-17455438Y31492649D01*
X-17455438Y31492649D02*
X-17407819Y31587887D01*
X-17407819Y31587887D02*
X-17407819Y31778363D01*
X-17407819Y31778363D02*
X-17455438Y31873601D01*
X-17455438Y31873601D02*
X-17503057Y31921220D01*
X-17503057Y31921220D02*
X-17598295Y31968839D01*
X-17598295Y31968839D02*
X-17836390Y31968839D01*
X-17836390Y31968839D02*
X-17931628Y31921220D01*
X-17931628Y31921220D02*
X-17979247Y31873601D01*
X-17979247Y31873601D02*
X-18026866Y31778363D01*
X-18026866Y31778363D02*
X-18026866Y31587887D01*
X-18026866Y31587887D02*
X-17979247Y31492649D01*
X-17979247Y31492649D02*
X-17931628Y31445030D01*
X-17931628Y31445030D02*
X-17836390Y31397411D01*
X-18026866Y30968839D02*
X-18026866Y30206935D01*
X-17407819Y29540268D02*
X-17407819Y29349792D01*
X-17407819Y29349792D02*
X-17455438Y29254554D01*
X-17455438Y29254554D02*
X-17550676Y29159316D01*
X-17550676Y29159316D02*
X-17741152Y29111697D01*
X-17741152Y29111697D02*
X-18074485Y29111697D01*
X-18074485Y29111697D02*
X-18264961Y29159316D01*
X-18264961Y29159316D02*
X-18360200Y29254554D01*
X-18360200Y29254554D02*
X-18407819Y29349792D01*
X-18407819Y29349792D02*
X-18407819Y29540268D01*
X-18407819Y29540268D02*
X-18360200Y29635506D01*
X-18360200Y29635506D02*
X-18264961Y29730744D01*
X-18264961Y29730744D02*
X-18074485Y29778363D01*
X-18074485Y29778363D02*
X-17741152Y29778363D01*
X-17741152Y29778363D02*
X-17550676Y29730744D01*
X-17550676Y29730744D02*
X-17455438Y29635506D01*
X-17455438Y29635506D02*
X-17407819Y29540268D01*
X-17407819Y28683125D02*
X-18217342Y28683125D01*
X-18217342Y28683125D02*
X-18312580Y28635506D01*
X-18312580Y28635506D02*
X-18360200Y28587887D01*
X-18360200Y28587887D02*
X-18407819Y28492649D01*
X-18407819Y28492649D02*
X-18407819Y28302173D01*
X-18407819Y28302173D02*
X-18360200Y28206935D01*
X-18360200Y28206935D02*
X-18312580Y28159316D01*
X-18312580Y28159316D02*
X-18217342Y28111697D01*
X-18217342Y28111697D02*
X-17407819Y28111697D01*
X-17407819Y27778363D02*
X-17407819Y27206935D01*
X-18407819Y27492649D02*
X-17407819Y27492649D01*
X-17741152Y26445030D02*
X-18407819Y26445030D01*
X-17360200Y26683125D02*
X-18074485Y26921220D01*
X-18074485Y26921220D02*
X-18074485Y26302173D01*
X-20017819Y31397411D02*
X-20017819Y31968839D01*
X-20017819Y31683125D02*
X-19017819Y31683125D01*
X-19017819Y31683125D02*
X-19160676Y31778363D01*
X-19160676Y31778363D02*
X-19255914Y31873601D01*
X-19255914Y31873601D02*
X-19303533Y31968839D01*
X-19017819Y30778363D02*
X-19017819Y30683125D01*
X-19017819Y30683125D02*
X-19065438Y30587887D01*
X-19065438Y30587887D02*
X-19113057Y30540268D01*
X-19113057Y30540268D02*
X-19208295Y30492649D01*
X-19208295Y30492649D02*
X-19398771Y30445030D01*
X-19398771Y30445030D02*
X-19636866Y30445030D01*
X-19636866Y30445030D02*
X-19827342Y30492649D01*
X-19827342Y30492649D02*
X-19922580Y30540268D01*
X-19922580Y30540268D02*
X-19970200Y30587887D01*
X-19970200Y30587887D02*
X-20017819Y30683125D01*
X-20017819Y30683125D02*
X-20017819Y30778363D01*
X-20017819Y30778363D02*
X-19970200Y30873601D01*
X-19970200Y30873601D02*
X-19922580Y30921220D01*
X-19922580Y30921220D02*
X-19827342Y30968839D01*
X-19827342Y30968839D02*
X-19636866Y31016458D01*
X-19636866Y31016458D02*
X-19398771Y31016458D01*
X-19398771Y31016458D02*
X-19208295Y30968839D01*
X-19208295Y30968839D02*
X-19113057Y30921220D01*
X-19113057Y30921220D02*
X-19065438Y30873601D01*
X-19065438Y30873601D02*
X-19017819Y30778363D01*
X-19636866Y30016458D02*
X-19636866Y29254554D01*
X-19017819Y28587887D02*
X-19017819Y28397411D01*
X-19017819Y28397411D02*
X-19065438Y28302173D01*
X-19065438Y28302173D02*
X-19160676Y28206935D01*
X-19160676Y28206935D02*
X-19351152Y28159316D01*
X-19351152Y28159316D02*
X-19684485Y28159316D01*
X-19684485Y28159316D02*
X-19874961Y28206935D01*
X-19874961Y28206935D02*
X-19970200Y28302173D01*
X-19970200Y28302173D02*
X-20017819Y28397411D01*
X-20017819Y28397411D02*
X-20017819Y28587887D01*
X-20017819Y28587887D02*
X-19970200Y28683125D01*
X-19970200Y28683125D02*
X-19874961Y28778363D01*
X-19874961Y28778363D02*
X-19684485Y28825982D01*
X-19684485Y28825982D02*
X-19351152Y28825982D01*
X-19351152Y28825982D02*
X-19160676Y28778363D01*
X-19160676Y28778363D02*
X-19065438Y28683125D01*
X-19065438Y28683125D02*
X-19017819Y28587887D01*
X-19017819Y27730744D02*
X-19827342Y27730744D01*
X-19827342Y27730744D02*
X-19922580Y27683125D01*
X-19922580Y27683125D02*
X-19970200Y27635506D01*
X-19970200Y27635506D02*
X-20017819Y27540268D01*
X-20017819Y27540268D02*
X-20017819Y27349792D01*
X-20017819Y27349792D02*
X-19970200Y27254554D01*
X-19970200Y27254554D02*
X-19922580Y27206935D01*
X-19922580Y27206935D02*
X-19827342Y27159316D01*
X-19827342Y27159316D02*
X-19017819Y27159316D01*
X-19017819Y26825982D02*
X-19017819Y26254554D01*
X-20017819Y26540268D02*
X-19017819Y26540268D01*
X-19017819Y26016458D02*
X-19017819Y25397411D01*
X-19017819Y25397411D02*
X-19398771Y25730744D01*
X-19398771Y25730744D02*
X-19398771Y25587887D01*
X-19398771Y25587887D02*
X-19446390Y25492649D01*
X-19446390Y25492649D02*
X-19494009Y25445030D01*
X-19494009Y25445030D02*
X-19589247Y25397411D01*
X-19589247Y25397411D02*
X-19827342Y25397411D01*
X-19827342Y25397411D02*
X-19922580Y25445030D01*
X-19922580Y25445030D02*
X-19970200Y25492649D01*
X-19970200Y25492649D02*
X-20017819Y25587887D01*
X-20017819Y25587887D02*
X-20017819Y25873601D01*
X-20017819Y25873601D02*
X-19970200Y25968839D01*
X-19970200Y25968839D02*
X-19922580Y26016458D01*
X-21627819Y31397411D02*
X-21627819Y31968839D01*
X-21627819Y31683125D02*
X-20627819Y31683125D01*
X-20627819Y31683125D02*
X-20770676Y31778363D01*
X-20770676Y31778363D02*
X-20865914Y31873601D01*
X-20865914Y31873601D02*
X-20913533Y31968839D01*
X-21627819Y30445030D02*
X-21627819Y31016458D01*
X-21627819Y30730744D02*
X-20627819Y30730744D01*
X-20627819Y30730744D02*
X-20770676Y30825982D01*
X-20770676Y30825982D02*
X-20865914Y30921220D01*
X-20865914Y30921220D02*
X-20913533Y31016458D01*
X-21246866Y30016458D02*
X-21246866Y29254554D01*
X-21627819Y28778363D02*
X-20627819Y28778363D01*
X-21627819Y28302173D02*
X-20627819Y28302173D01*
X-20627819Y28302173D02*
X-21627819Y27730745D01*
X-21627819Y27730745D02*
X-20627819Y27730745D01*
X-20723057Y27302173D02*
X-20675438Y27254554D01*
X-20675438Y27254554D02*
X-20627819Y27159316D01*
X-20627819Y27159316D02*
X-20627819Y26921221D01*
X-20627819Y26921221D02*
X-20675438Y26825983D01*
X-20675438Y26825983D02*
X-20723057Y26778364D01*
X-20723057Y26778364D02*
X-20818295Y26730745D01*
X-20818295Y26730745D02*
X-20913533Y26730745D01*
X-20913533Y26730745D02*
X-21056390Y26778364D01*
X-21056390Y26778364D02*
X-21627819Y27349792D01*
X-21627819Y27349792D02*
X-21627819Y26730745D01*
X-23237819Y31397411D02*
X-23237819Y31968839D01*
X-23237819Y31683125D02*
X-22237819Y31683125D01*
X-22237819Y31683125D02*
X-22380676Y31778363D01*
X-22380676Y31778363D02*
X-22475914Y31873601D01*
X-22475914Y31873601D02*
X-22523533Y31968839D01*
X-22333057Y31016458D02*
X-22285438Y30968839D01*
X-22285438Y30968839D02*
X-22237819Y30873601D01*
X-22237819Y30873601D02*
X-22237819Y30635506D01*
X-22237819Y30635506D02*
X-22285438Y30540268D01*
X-22285438Y30540268D02*
X-22333057Y30492649D01*
X-22333057Y30492649D02*
X-22428295Y30445030D01*
X-22428295Y30445030D02*
X-22523533Y30445030D01*
X-22523533Y30445030D02*
X-22666390Y30492649D01*
X-22666390Y30492649D02*
X-23237819Y31064077D01*
X-23237819Y31064077D02*
X-23237819Y30445030D01*
X-22856866Y30016458D02*
X-22856866Y29254554D01*
X-22237819Y28587887D02*
X-22237819Y28397411D01*
X-22237819Y28397411D02*
X-22285438Y28302173D01*
X-22285438Y28302173D02*
X-22380676Y28206935D01*
X-22380676Y28206935D02*
X-22571152Y28159316D01*
X-22571152Y28159316D02*
X-22904485Y28159316D01*
X-22904485Y28159316D02*
X-23094961Y28206935D01*
X-23094961Y28206935D02*
X-23190200Y28302173D01*
X-23190200Y28302173D02*
X-23237819Y28397411D01*
X-23237819Y28397411D02*
X-23237819Y28587887D01*
X-23237819Y28587887D02*
X-23190200Y28683125D01*
X-23190200Y28683125D02*
X-23094961Y28778363D01*
X-23094961Y28778363D02*
X-22904485Y28825982D01*
X-22904485Y28825982D02*
X-22571152Y28825982D01*
X-22571152Y28825982D02*
X-22380676Y28778363D01*
X-22380676Y28778363D02*
X-22285438Y28683125D01*
X-22285438Y28683125D02*
X-22237819Y28587887D01*
X-22237819Y27730744D02*
X-23047342Y27730744D01*
X-23047342Y27730744D02*
X-23142580Y27683125D01*
X-23142580Y27683125D02*
X-23190200Y27635506D01*
X-23190200Y27635506D02*
X-23237819Y27540268D01*
X-23237819Y27540268D02*
X-23237819Y27349792D01*
X-23237819Y27349792D02*
X-23190200Y27254554D01*
X-23190200Y27254554D02*
X-23142580Y27206935D01*
X-23142580Y27206935D02*
X-23047342Y27159316D01*
X-23047342Y27159316D02*
X-22237819Y27159316D01*
X-22237819Y26825982D02*
X-22237819Y26254554D01*
X-23237819Y26540268D02*
X-22237819Y26540268D01*
X-22333057Y25968839D02*
X-22285438Y25921220D01*
X-22285438Y25921220D02*
X-22237819Y25825982D01*
X-22237819Y25825982D02*
X-22237819Y25587887D01*
X-22237819Y25587887D02*
X-22285438Y25492649D01*
X-22285438Y25492649D02*
X-22333057Y25445030D01*
X-22333057Y25445030D02*
X-22428295Y25397411D01*
X-22428295Y25397411D02*
X-22523533Y25397411D01*
X-22523533Y25397411D02*
X-22666390Y25445030D01*
X-22666390Y25445030D02*
X-23237819Y26016458D01*
X-23237819Y26016458D02*
X-23237819Y25397411D01*
D10*
X-36784095Y-15518190D02*
X-35768095Y-15518190D01*
X-35864857Y-15953619D02*
X-35816476Y-16002000D01*
X-35816476Y-16002000D02*
X-35768095Y-16098762D01*
X-35768095Y-16098762D02*
X-35768095Y-16340667D01*
X-35768095Y-16340667D02*
X-35816476Y-16437429D01*
X-35816476Y-16437429D02*
X-35864857Y-16485810D01*
X-35864857Y-16485810D02*
X-35961619Y-16534191D01*
X-35961619Y-16534191D02*
X-36058381Y-16534191D01*
X-36058381Y-16534191D02*
X-36203524Y-16485810D01*
X-36203524Y-16485810D02*
X-36784095Y-15905238D01*
X-36784095Y-15905238D02*
X-36784095Y-16534191D01*
X-36784095Y-16969619D02*
X-35768095Y-16969619D01*
X-35768095Y-16969619D02*
X-35768095Y-17211524D01*
X-35768095Y-17211524D02*
X-35816476Y-17356667D01*
X-35816476Y-17356667D02*
X-35913238Y-17453429D01*
X-35913238Y-17453429D02*
X-36010000Y-17501810D01*
X-36010000Y-17501810D02*
X-36203524Y-17550191D01*
X-36203524Y-17550191D02*
X-36348667Y-17550191D01*
X-36348667Y-17550191D02*
X-36542191Y-17501810D01*
X-36542191Y-17501810D02*
X-36638953Y-17453429D01*
X-36638953Y-17453429D02*
X-36735715Y-17356667D01*
X-36735715Y-17356667D02*
X-36784095Y-17211524D01*
X-36784095Y-17211524D02*
X-36784095Y-16969619D01*
D12*
X-18610180Y-38963285D02*
X-18610180Y-39534713D01*
X-18610180Y-39248999D02*
X-19610180Y-39248999D01*
X-19610180Y-39248999D02*
X-19467323Y-39344237D01*
X-19467323Y-39344237D02*
X-19372085Y-39439475D01*
X-19372085Y-39439475D02*
X-19324466Y-39534713D01*
D13*
X12726936Y-60171000D02*
X13181064Y-60171000D01*
X12726936Y-58701000D02*
X13181064Y-58701000D01*
X16790936Y-59717000D02*
X17245064Y-59717000D01*
X16790936Y-61187000D02*
X17245064Y-61187000D01*
X23275000Y-58222000D02*
X20590000Y-58222000D01*
X23275000Y-60142000D02*
X23275000Y-58222000D01*
X20590000Y-60142000D02*
X23275000Y-60142000D01*
X33943000Y-59492000D02*
X31258000Y-59492000D01*
X33943000Y-61412000D02*
X33943000Y-59492000D01*
X31258000Y-61412000D02*
X33943000Y-61412000D01*
X11911000Y-19076936D02*
X11911000Y-19531064D01*
X10441000Y-19076936D02*
X10441000Y-19531064D01*
X14505000Y-19531064D02*
X14505000Y-19076936D01*
X15975000Y-19531064D02*
X15975000Y-19076936D01*
X-13397000Y-28301000D02*
X-16847000Y-28301000D01*
X-13397000Y-28301000D02*
X-11447000Y-28301000D01*
X-13397000Y-33421000D02*
X-15347000Y-33421000D01*
X-13397000Y-33421000D02*
X-11447000Y-33421000D01*
X2792000Y-54054600D02*
X2792000Y-57654600D01*
X2792000Y-57654600D02*
X8542000Y-57654600D01*
X8542000Y-54054600D02*
X2792000Y-54054600D01*
X-23121252Y-8409000D02*
X-22598748Y-8409000D01*
X-23121252Y-9879000D02*
X-22598748Y-9879000D01*
X-10949000Y-23106748D02*
X-10949000Y-23629252D01*
X-12419000Y-23106748D02*
X-12419000Y-23629252D01*
X-4799000Y-13469252D02*
X-4799000Y-12946748D01*
X-3329000Y-13469252D02*
X-3329000Y-12946748D01*
X1785252Y-27151000D02*
X1262748Y-27151000D01*
X1785252Y-25681000D02*
X1262748Y-25681000D01*
X23121252Y-9879000D02*
X22598748Y-9879000D01*
X23121252Y-8409000D02*
X22598748Y-8409000D01*
X11911000Y-23040748D02*
X11911000Y-23563252D01*
X10441000Y-23040748D02*
X10441000Y-23563252D01*
X-16009252Y-14505000D02*
X-15486748Y-14505000D01*
X-16009252Y-15975000D02*
X-15486748Y-15975000D01*
X17533252Y-32546000D02*
X17010748Y-32546000D01*
X17533252Y-31076000D02*
X17010748Y-31076000D01*
X-29638000Y-22178000D02*
X-19638000Y-22178000D01*
X-29638000Y-32178000D02*
X-29638000Y-22178000D01*
X-19638000Y-22178000D02*
X-19638000Y-32178000D01*
X-19638000Y-32178000D02*
X-29638000Y-32178000D01*
X3329000Y-19531064D02*
X3329000Y-19076936D01*
X4799000Y-19531064D02*
X4799000Y-19076936D01*
X5815000Y-22632936D02*
X5815000Y-23087064D01*
X4345000Y-22632936D02*
X4345000Y-23087064D01*
X735000Y-19076936D02*
X735000Y-19531064D01*
X-735000Y-19076936D02*
X-735000Y-19531064D01*
X-5482000Y-19584564D02*
X-5482000Y-18130436D01*
X-3662000Y-19584564D02*
X-3662000Y-18130436D01*
X1297000Y-19531064D02*
X1297000Y-19076936D01*
X2767000Y-19531064D02*
X2767000Y-19076936D01*
X1296936Y-23649000D02*
X1751064Y-23649000D01*
X1296936Y-25119000D02*
X1751064Y-25119000D01*
X18568936Y-25046000D02*
X19023064Y-25046000D01*
X18568936Y-26516000D02*
X19023064Y-26516000D01*
X29845000Y-52140000D02*
X33445000Y-52140000D01*
X29845000Y-52140000D02*
X27645000Y-52140000D01*
X29845000Y-46920000D02*
X32045000Y-46920000D01*
X29845000Y-46920000D02*
X27645000Y-46920000D01*
X14673948Y-36349000D02*
X15196452Y-36349000D01*
X14673948Y-37819000D02*
X15196452Y-37819000D01*
X-23162500Y-17993000D02*
X-20237500Y-17993000D01*
X-23162500Y-17993000D02*
X-24662500Y-17993000D01*
X-23162500Y-14773000D02*
X-21662500Y-14773000D01*
X-23162500Y-14773000D02*
X-24662500Y-14773000D01*
X23883252Y-45185000D02*
X23360748Y-45185000D01*
X23883252Y-43715000D02*
X23360748Y-43715000D01*
X25268000Y-47459000D02*
X25268000Y-45759000D01*
X25268000Y-47459000D02*
X22118000Y-47459000D01*
X25268000Y-45759000D02*
X22118000Y-45759000D01*
X29564000Y-41301936D02*
X29564000Y-41756064D01*
X28094000Y-41301936D02*
X28094000Y-41756064D01*
X26262064Y-43026000D02*
X25807936Y-43026000D01*
X26262064Y-41556000D02*
X25807936Y-41556000D01*
X-7339000Y-13469252D02*
X-7339000Y-12946748D01*
X-5869000Y-13469252D02*
X-5869000Y-12946748D01*
X3329000Y-13469252D02*
X3329000Y-12946748D01*
X4799000Y-13469252D02*
X4799000Y-12946748D01*
D14*
X8694800Y-14250000D02*
X8694800Y-11150000D01*
X13594800Y-14250000D02*
X13594800Y-11150000D01*
D15*
X9319800Y-16800000D02*
G75*
G03*
X9319800Y-16800000I-125000J0D01*
G01*
D13*
X5869000Y-13469252D02*
X5869000Y-12946748D01*
X7339000Y-13469252D02*
X7339000Y-12946748D01*
X16517252Y-15975000D02*
X15994748Y-15975000D01*
X16517252Y-14505000D02*
X15994748Y-14505000D01*
X-8409000Y-19076936D02*
X-8409000Y-19531064D01*
X-9879000Y-19076936D02*
X-9879000Y-19531064D01*
X14046564Y-51789000D02*
X13592436Y-51789000D01*
X14046564Y-50319000D02*
X13592436Y-50319000D01*
X-13435000Y15740748D02*
X-13435000Y16263252D01*
X-11965000Y15740748D02*
X-11965000Y16263252D01*
X23649000Y-32038064D02*
X23649000Y-31583936D01*
X25119000Y-32038064D02*
X25119000Y-31583936D01*
X2268000Y-47796600D02*
X3218000Y-47796600D01*
X3218000Y-47796600D02*
X3218000Y-49136600D01*
X12488000Y-47796600D02*
X11538000Y-47796600D01*
X2268000Y-46846600D02*
X2268000Y-47796600D01*
X12488000Y-46846600D02*
X12488000Y-47796600D01*
X2268000Y-38526600D02*
X2268000Y-37576600D01*
X12488000Y-38526600D02*
X12488000Y-37576600D01*
X2268000Y-37576600D02*
X3218000Y-37576600D01*
X12488000Y-37576600D02*
X11538000Y-37576600D01*
D14*
X-2368000Y-14250000D02*
X-2368000Y-11150000D01*
X2532000Y-14250000D02*
X2532000Y-11150000D01*
D15*
X-1743000Y-16800000D02*
G75*
G03*
X-1743000Y-16800000I-125000J0D01*
G01*
D13*
X18769000Y-28501748D02*
X18769000Y-29024252D01*
X17299000Y-28501748D02*
X17299000Y-29024252D01*
X14504936Y-23649000D02*
X14959064Y-23649000D01*
X14504936Y-25119000D02*
X14959064Y-25119000D01*
D12*
X-32763000Y15621000D02*
G75*
G03*
X-32763000Y15621000I-1400000J0D01*
G01*
D13*
X14104252Y-55980000D02*
X13581748Y-55980000D01*
X14104252Y-54510000D02*
X13581748Y-54510000D01*
X-29415000Y-36549000D02*
X-20165000Y-36549000D01*
X-21865000Y-37099000D02*
X-24065000Y-37099000D01*
X-24065000Y-37099000D02*
X-24065000Y-40099000D01*
X-21865000Y-37599000D02*
X-21165000Y-37599000D01*
X-24065000Y-37599000D02*
X-24765000Y-37599000D01*
X-21865000Y-38599000D02*
X-21165000Y-38599000D01*
X-24065000Y-38599000D02*
X-24765000Y-38599000D01*
X-18015000Y-38649000D02*
X-18015000Y-46949000D01*
X-21865000Y-39599000D02*
X-21165000Y-39599000D01*
X-24065000Y-39599000D02*
X-24765000Y-39599000D01*
X-21865000Y-40099000D02*
X-21865000Y-37099000D01*
X-24065000Y-40099000D02*
X-21865000Y-40099000D01*
X-18465000Y-40899000D02*
X-20365000Y-40899000D01*
X-20365000Y-40899000D02*
X-20365000Y-44799000D01*
X-20665000Y-40899000D02*
X-22565000Y-40899000D01*
X-22565000Y-40899000D02*
X-22565000Y-44799000D01*
X-18465000Y-44799000D02*
X-18465000Y-40899000D01*
X-20365000Y-44799000D02*
X-18465000Y-44799000D01*
X-20665000Y-44799000D02*
X-20665000Y-40899000D01*
X-22565000Y-44799000D02*
X-20665000Y-44799000D01*
X-31515000Y-46949000D02*
X-31515000Y-38649000D01*
X-24665000Y-47199000D02*
X-27465000Y-47199000D01*
X-27465000Y-47199000D02*
X-27465000Y-48399000D01*
X-24665000Y-48399000D02*
X-24665000Y-47199000D01*
X-27465000Y-48399000D02*
X-24665000Y-48399000D01*
X-20115000Y-49049000D02*
X-29415000Y-49049000D01*
X-23476552Y-42799000D02*
G75*
G03*
X-23476552Y-42799000I-2594224J0D01*
G01*
X-6253800Y18302200D02*
X-6253800Y21752200D01*
X-6253800Y18302200D02*
X-6253800Y16352200D01*
X-11373800Y18302200D02*
X-11373800Y20252200D01*
X-11373800Y18302200D02*
X-11373800Y16352200D01*
X-10441000Y-19076936D02*
X-10441000Y-19531064D01*
X-11911000Y-19076936D02*
X-11911000Y-19531064D01*
X-28074252Y-33301000D02*
X-27551748Y-33301000D01*
X-28074252Y-34771000D02*
X-27551748Y-34771000D01*
X-22537748Y-34771000D02*
X-23060252Y-34771000D01*
X-22537748Y-33301000D02*
X-23060252Y-33301000D01*
X-33501000Y-43187252D02*
X-33501000Y-42664748D01*
X-32031000Y-43187252D02*
X-32031000Y-42664748D01*
X-16737000Y-47378252D02*
X-16737000Y-46855748D01*
X-15267000Y-47378252D02*
X-15267000Y-46855748D01*
X-11295748Y-39089000D02*
X-11818252Y-39089000D01*
X-11295748Y-37619000D02*
X-11818252Y-37619000D01*
X4274452Y-59942400D02*
X3751948Y-59942400D01*
X4274452Y-58472400D02*
X3751948Y-58472400D01*
X7460348Y-58472400D02*
X7982852Y-58472400D01*
X7460348Y-59942400D02*
X7982852Y-59942400D01*
X-15042000Y-35399000D02*
X-16962000Y-35399000D01*
X-16962000Y-35399000D02*
X-16962000Y-38084000D01*
X-15042000Y-38084000D02*
X-15042000Y-35399000D01*
D16*
X-7499800Y12046200D02*
X-7549800Y12046200D01*
X-7549800Y12046200D02*
X-7549800Y12821200D01*
X-10524800Y12046200D02*
X-10174800Y12046200D01*
X-7224800Y11671200D02*
X-7499800Y12046200D01*
X-10524800Y11571200D02*
X-10524800Y12046200D01*
X-7224800Y11396200D02*
X-7224800Y11671200D01*
X-7224800Y10771200D02*
X-7224800Y10396200D01*
X-7224800Y10396200D02*
X-7524800Y10396200D01*
X-10224800Y10396200D02*
X-10524800Y10396200D01*
X-10299800Y10396200D02*
X-10174800Y10396200D01*
X-10524800Y10396200D02*
X-10524800Y10846200D01*
D13*
X-21810000Y-20645000D02*
X-21810000Y-18725000D01*
X-21810000Y-18725000D02*
X-24495000Y-18725000D01*
X-24495000Y-20645000D02*
X-21810000Y-20645000D01*
X21234400Y-34133000D02*
X22909400Y-34133000D01*
X21234400Y-34133000D02*
X20584400Y-34133000D01*
X21234400Y-31013000D02*
X21884400Y-31013000D01*
X21234400Y-31013000D02*
X20584400Y-31013000D01*
X21211300Y-30389000D02*
X22886300Y-30389000D01*
X21211300Y-30389000D02*
X20561300Y-30389000D01*
X21211300Y-27269000D02*
X21861300Y-27269000D01*
X21211300Y-27269000D02*
X20561300Y-27269000D01*
X-15139936Y-23341000D02*
X-15594064Y-23341000D01*
X-15139936Y-21871000D02*
X-15594064Y-21871000D01*
X-15139936Y-25500000D02*
X-15594064Y-25500000D01*
X-15139936Y-24030000D02*
X-15594064Y-24030000D01*
X-27077936Y-20420000D02*
X-27532064Y-20420000D01*
X-27077936Y-18950000D02*
X-27532064Y-18950000D01*
D17*
X-30447404Y-4933951D02*
X-30374658Y-4944111D01*
X-30294218Y-5001236D01*
X-30236487Y-5084277D01*
X-30215487Y-5135503D01*
X-30209965Y-5187857D01*
X-30222042Y-5251989D01*
X-30253840Y-5338546D01*
X-30307479Y-5458178D01*
X-30313505Y-5471048D01*
X-30362330Y-5583099D01*
X-30408017Y-5701414D01*
X-30439802Y-5797550D01*
X-30472023Y-5888680D01*
X-30503685Y-5937055D01*
X-30518809Y-5943600D01*
X-30545980Y-5921584D01*
X-30555815Y-5862951D01*
X-30548340Y-5778827D01*
X-30523586Y-5680333D01*
X-30518100Y-5664200D01*
X-30487558Y-5551721D01*
X-30487029Y-5455083D01*
X-30518047Y-5352534D01*
X-30544062Y-5295900D01*
X-30594111Y-5166363D01*
X-30599911Y-5107975D01*
X-30447404Y-5107975D01*
X-30442075Y-5133426D01*
X-30440266Y-5138245D01*
X-30420145Y-5169348D01*
X-30408705Y-5169572D01*
X-30411554Y-5142702D01*
X-30426048Y-5124026D01*
X-30447404Y-5107975D01*
X-30599911Y-5107975D01*
X-30604333Y-5063467D01*
X-30574690Y-4989186D01*
X-30550548Y-4967140D01*
X-30462533Y-4931839D01*
X-30447404Y-4933951D01*
G36*
X-30447404Y-4933951D02*
G01*
X-30374658Y-4944111D01*
X-30294218Y-5001236D01*
X-30236487Y-5084277D01*
X-30215487Y-5135503D01*
X-30209965Y-5187857D01*
X-30222042Y-5251989D01*
X-30253840Y-5338546D01*
X-30307479Y-5458178D01*
X-30313505Y-5471048D01*
X-30362330Y-5583099D01*
X-30408017Y-5701414D01*
X-30439802Y-5797550D01*
X-30472023Y-5888680D01*
X-30503685Y-5937055D01*
X-30518809Y-5943600D01*
X-30545980Y-5921584D01*
X-30555815Y-5862951D01*
X-30548340Y-5778827D01*
X-30523586Y-5680333D01*
X-30518100Y-5664200D01*
X-30487558Y-5551721D01*
X-30487029Y-5455083D01*
X-30518047Y-5352534D01*
X-30544062Y-5295900D01*
X-30594111Y-5166363D01*
X-30599911Y-5107975D01*
X-30447404Y-5107975D01*
X-30442075Y-5133426D01*
X-30440266Y-5138245D01*
X-30420145Y-5169348D01*
X-30408705Y-5169572D01*
X-30411554Y-5142702D01*
X-30426048Y-5124026D01*
X-30447404Y-5107975D01*
X-30599911Y-5107975D01*
X-30604333Y-5063467D01*
X-30574690Y-4989186D01*
X-30550548Y-4967140D01*
X-30462533Y-4931839D01*
X-30447404Y-4933951D01*
G37*
X-30580548Y-191150D02*
X-30533447Y-248011D01*
X-30501198Y-347141D01*
X-30484518Y-482014D01*
X-30484122Y-646105D01*
X-30500727Y-832890D01*
X-30505932Y-870888D01*
X-30536348Y-1014364D01*
X-30583895Y-1114536D01*
X-30655587Y-1177884D01*
X-30758436Y-1210889D01*
X-30883840Y-1220007D01*
X-30966256Y-1228453D01*
X-31033804Y-1248687D01*
X-31050004Y-1258107D01*
X-31130384Y-1293004D01*
X-31211272Y-1283554D01*
X-31286621Y-1235783D01*
X-31350387Y-1155721D01*
X-31396525Y-1049394D01*
X-31418987Y-922830D01*
X-31420194Y-889000D01*
X-31427082Y-835746D01*
X-31238325Y-835746D01*
X-31234628Y-920901D01*
X-31209875Y-988594D01*
X-31169670Y-1045456D01*
X-31124679Y-1055804D01*
X-31064990Y-1021039D01*
X-31052774Y-1010835D01*
X-31001561Y-942714D01*
X-30980981Y-863227D01*
X-30992690Y-789423D01*
X-31026981Y-745514D01*
X-31100869Y-713412D01*
X-31165012Y-723450D01*
X-31212975Y-767079D01*
X-31238325Y-835746D01*
X-31427082Y-835746D01*
X-31429114Y-820031D01*
X-31451857Y-724459D01*
X-31483512Y-622900D01*
X-31483725Y-622300D01*
X-31518605Y-521215D01*
X-31263275Y-521215D01*
X-31233087Y-555656D01*
X-31188289Y-576099D01*
X-31115075Y-594608D01*
X-31100869Y-596953D01*
X-31079520Y-600479D01*
X-30958623Y-631242D01*
X-30878235Y-687763D01*
X-30832411Y-775241D01*
X-30821467Y-826202D01*
X-30804644Y-904896D01*
X-30782598Y-935134D01*
X-30751304Y-919242D01*
X-30722740Y-883348D01*
X-30694476Y-809482D01*
X-30684476Y-707408D01*
X-30692821Y-596351D01*
X-30719591Y-495536D01*
X-30721115Y-491824D01*
X-30759030Y-401079D01*
X-30968765Y-419337D01*
X-31114110Y-436392D01*
X-31210516Y-458476D01*
X-31259674Y-486459D01*
X-31263275Y-521215D01*
X-31518605Y-521215D01*
X-31519591Y-518358D01*
X-31538800Y-449912D01*
X-31542138Y-404747D01*
X-31530391Y-370648D01*
X-31504345Y-335400D01*
X-31502350Y-332988D01*
X-31473340Y-307254D01*
X-31429085Y-288174D01*
X-31359310Y-273104D01*
X-31253739Y-259398D01*
X-31191200Y-252911D01*
X-31058781Y-238651D01*
X-30925449Y-222396D01*
X-30811674Y-206716D01*
X-30767289Y-199686D01*
X-30759030Y-198611D01*
X-30680244Y-188351D01*
X-30611768Y-185779D01*
X-30580548Y-191150D01*
G36*
X-30580548Y-191150D02*
G01*
X-30533447Y-248011D01*
X-30501198Y-347141D01*
X-30484518Y-482014D01*
X-30484122Y-646105D01*
X-30500727Y-832890D01*
X-30505932Y-870888D01*
X-30536348Y-1014364D01*
X-30583895Y-1114536D01*
X-30655587Y-1177884D01*
X-30758436Y-1210889D01*
X-30883840Y-1220007D01*
X-30966256Y-1228453D01*
X-31033804Y-1248687D01*
X-31050004Y-1258107D01*
X-31130384Y-1293004D01*
X-31211272Y-1283554D01*
X-31286621Y-1235783D01*
X-31350387Y-1155721D01*
X-31396525Y-1049394D01*
X-31418987Y-922830D01*
X-31420194Y-889000D01*
X-31427082Y-835746D01*
X-31238325Y-835746D01*
X-31234628Y-920901D01*
X-31209875Y-988594D01*
X-31169670Y-1045456D01*
X-31124679Y-1055804D01*
X-31064990Y-1021039D01*
X-31052774Y-1010835D01*
X-31001561Y-942714D01*
X-30980981Y-863227D01*
X-30992690Y-789423D01*
X-31026981Y-745514D01*
X-31100869Y-713412D01*
X-31165012Y-723450D01*
X-31212975Y-767079D01*
X-31238325Y-835746D01*
X-31427082Y-835746D01*
X-31429114Y-820031D01*
X-31451857Y-724459D01*
X-31483512Y-622900D01*
X-31483725Y-622300D01*
X-31518605Y-521215D01*
X-31263275Y-521215D01*
X-31233087Y-555656D01*
X-31188289Y-576099D01*
X-31115075Y-594608D01*
X-31100869Y-596953D01*
X-31079520Y-600479D01*
X-30958623Y-631242D01*
X-30878235Y-687763D01*
X-30832411Y-775241D01*
X-30821467Y-826202D01*
X-30804644Y-904896D01*
X-30782598Y-935134D01*
X-30751304Y-919242D01*
X-30722740Y-883348D01*
X-30694476Y-809482D01*
X-30684476Y-707408D01*
X-30692821Y-596351D01*
X-30719591Y-495536D01*
X-30721115Y-491824D01*
X-30759030Y-401079D01*
X-30968765Y-419337D01*
X-31114110Y-436392D01*
X-31210516Y-458476D01*
X-31259674Y-486459D01*
X-31263275Y-521215D01*
X-31518605Y-521215D01*
X-31519591Y-518358D01*
X-31538800Y-449912D01*
X-31542138Y-404747D01*
X-31530391Y-370648D01*
X-31504345Y-335400D01*
X-31502350Y-332988D01*
X-31473340Y-307254D01*
X-31429085Y-288174D01*
X-31359310Y-273104D01*
X-31253739Y-259398D01*
X-31191200Y-252911D01*
X-31058781Y-238651D01*
X-30925449Y-222396D01*
X-30811674Y-206716D01*
X-30767289Y-199686D01*
X-30759030Y-198611D01*
X-30680244Y-188351D01*
X-30611768Y-185779D01*
X-30580548Y-191150D01*
G37*
X-32791968Y5013938D02*
X-32771695Y4994982D01*
X-32747695Y4958517D01*
X-32745017Y4907369D01*
X-32756360Y4845997D01*
X-32767632Y4694252D01*
X-32729713Y4555001D01*
X-32642694Y4428416D01*
X-32506667Y4314671D01*
X-32458875Y4284592D01*
X-32297025Y4188528D01*
X-32096103Y4208614D01*
X-32029442Y4215279D01*
X-31889266Y4227346D01*
X-31740632Y4236997D01*
X-31607573Y4242779D01*
X-31559079Y4243733D01*
X-31516161Y4244261D01*
X-31441394Y4245182D01*
X-31324370Y4247378D01*
X-31232513Y4249855D01*
X-31229300Y4249968D01*
X-31154387Y4250988D01*
X-31118025Y4243016D01*
X-31108050Y4220022D01*
X-31110350Y4191000D01*
X-31117434Y4127504D01*
X-31126029Y4040462D01*
X-31129686Y4000500D01*
X-31150705Y3781164D01*
X-31171819Y3604959D01*
X-31195010Y3464255D01*
X-31222262Y3351420D01*
X-31255558Y3258820D01*
X-31296883Y3178823D01*
X-31348219Y3103799D01*
X-31369943Y3076026D01*
X-31463365Y2988318D01*
X-31592491Y2916184D01*
X-31763217Y2856672D01*
X-31853809Y2833543D01*
X-31945697Y2814991D01*
X-32022320Y2809219D01*
X-32105922Y2816214D01*
X-32205148Y2833346D01*
X-32349415Y2857723D01*
X-32447465Y2865300D01*
X-32501618Y2854276D01*
X-32514192Y2822847D01*
X-32487507Y2769210D01*
X-32423882Y2691564D01*
X-32408823Y2675048D01*
X-32345018Y2597321D01*
X-32316104Y2536961D01*
X-32313573Y2494625D01*
X-32332789Y2435877D01*
X-32370090Y2423343D01*
X-32423428Y2456597D01*
X-32487489Y2530756D01*
X-32542491Y2605259D01*
X-32590069Y2669533D01*
X-32611260Y2698041D01*
X-32635943Y2750561D01*
X-32658774Y2830671D01*
X-32667832Y2877599D01*
X-32692335Y2968302D01*
X-32733765Y3062714D01*
X-32783806Y3146052D01*
X-32834138Y3203534D01*
X-32860033Y3219152D01*
X-32897355Y3209363D01*
X-32935528Y3176712D01*
X-32986452Y3136985D01*
X-33029097Y3124200D01*
X-33057522Y3129346D01*
X-33067965Y3153278D01*
X-33063457Y3208741D01*
X-33057776Y3244850D01*
X-33048361Y3336347D01*
X-32682015Y3336347D01*
X-32641972Y3276500D01*
X-32600687Y3228910D01*
X-32465417Y3116359D01*
X-32300584Y3043502D01*
X-32110341Y3012040D01*
X-32067500Y3010851D01*
X-31874507Y3028733D01*
X-31712429Y3085300D01*
X-31580218Y3181581D01*
X-31476829Y3318608D01*
X-31401213Y3497412D01*
X-31352978Y3714631D01*
X-31336212Y3841809D01*
X-31331946Y3927988D01*
X-31341576Y3981742D01*
X-31366495Y4011643D01*
X-31403551Y4025332D01*
X-31516161Y4043901D01*
X-31594222Y4038987D01*
X-31650264Y4006184D01*
X-31696819Y3941090D01*
X-31709111Y3917950D01*
X-31820598Y3730253D01*
X-31943052Y3588825D01*
X-32083455Y3489293D01*
X-32248789Y3427282D01*
X-32446037Y3398418D01*
X-32543750Y3395099D01*
X-32634859Y3389941D01*
X-32680295Y3372259D01*
X-32682015Y3336347D01*
X-33048361Y3336347D01*
X-33047460Y3345100D01*
X-33043089Y3472801D01*
X-33044245Y3612252D01*
X-33049746Y3731174D01*
X-32842200Y3731174D01*
X-32840451Y3647150D01*
X-32831595Y3600376D01*
X-32810219Y3577331D01*
X-32775971Y3565746D01*
X-32713025Y3559348D01*
X-32615761Y3559700D01*
X-32500042Y3565624D01*
X-32381726Y3575941D01*
X-32276676Y3589473D01*
X-32200752Y3605043D01*
X-32187218Y3609475D01*
X-32075297Y3677850D01*
X-31980840Y3788416D01*
X-31950728Y3840739D01*
X-31912953Y3920936D01*
X-31903200Y3971507D01*
X-31927178Y3999226D01*
X-31990597Y4010865D01*
X-32096103Y4013200D01*
X-32202468Y4009199D01*
X-32326976Y3998371D01*
X-32457940Y3982478D01*
X-32583669Y3963284D01*
X-32692475Y3942552D01*
X-32772668Y3922045D01*
X-32810450Y3905456D01*
X-32829378Y3864709D01*
X-32840393Y3786777D01*
X-32842200Y3731174D01*
X-33049746Y3731174D01*
X-33050513Y3747749D01*
X-33061476Y3863589D01*
X-33076269Y3942544D01*
X-33090432Y4014896D01*
X-33078522Y4063684D01*
X-33033962Y4094276D01*
X-32950179Y4112039D01*
X-32858724Y4120100D01*
X-32740949Y4129671D01*
X-32668790Y4142675D01*
X-32637060Y4162947D01*
X-32640576Y4194324D01*
X-32674154Y4240640D01*
X-32682597Y4250410D01*
X-32736721Y4318345D01*
X-32799725Y4406004D01*
X-32837605Y4462894D01*
X-32908727Y4556896D01*
X-32978836Y4610834D01*
X-33008976Y4623354D01*
X-33096928Y4671331D01*
X-33154973Y4741299D01*
X-33172400Y4809006D01*
X-33164248Y4841302D01*
X-33130321Y4844469D01*
X-33102550Y4837871D01*
X-33009687Y4818844D01*
X-32950583Y4824676D01*
X-32913862Y4856915D01*
X-32909594Y4864100D01*
X-32861241Y4950572D01*
X-32830415Y4999722D01*
X-32809772Y5018520D01*
X-32791968Y5013938D01*
G36*
X-32791968Y5013938D02*
G01*
X-32771695Y4994982D01*
X-32747695Y4958517D01*
X-32745017Y4907369D01*
X-32756360Y4845997D01*
X-32767632Y4694252D01*
X-32729713Y4555001D01*
X-32642694Y4428416D01*
X-32506667Y4314671D01*
X-32458875Y4284592D01*
X-32297025Y4188528D01*
X-32096103Y4208614D01*
X-32029442Y4215279D01*
X-31889266Y4227346D01*
X-31740632Y4236997D01*
X-31607573Y4242779D01*
X-31559079Y4243733D01*
X-31516161Y4244261D01*
X-31441394Y4245182D01*
X-31324370Y4247378D01*
X-31232513Y4249855D01*
X-31229300Y4249968D01*
X-31154387Y4250988D01*
X-31118025Y4243016D01*
X-31108050Y4220022D01*
X-31110350Y4191000D01*
X-31117434Y4127504D01*
X-31126029Y4040462D01*
X-31129686Y4000500D01*
X-31150705Y3781164D01*
X-31171819Y3604959D01*
X-31195010Y3464255D01*
X-31222262Y3351420D01*
X-31255558Y3258820D01*
X-31296883Y3178823D01*
X-31348219Y3103799D01*
X-31369943Y3076026D01*
X-31463365Y2988318D01*
X-31592491Y2916184D01*
X-31763217Y2856672D01*
X-31853809Y2833543D01*
X-31945697Y2814991D01*
X-32022320Y2809219D01*
X-32105922Y2816214D01*
X-32205148Y2833346D01*
X-32349415Y2857723D01*
X-32447465Y2865300D01*
X-32501618Y2854276D01*
X-32514192Y2822847D01*
X-32487507Y2769210D01*
X-32423882Y2691564D01*
X-32408823Y2675048D01*
X-32345018Y2597321D01*
X-32316104Y2536961D01*
X-32313573Y2494625D01*
X-32332789Y2435877D01*
X-32370090Y2423343D01*
X-32423428Y2456597D01*
X-32487489Y2530756D01*
X-32542491Y2605259D01*
X-32590069Y2669533D01*
X-32611260Y2698041D01*
X-32635943Y2750561D01*
X-32658774Y2830671D01*
X-32667832Y2877599D01*
X-32692335Y2968302D01*
X-32733765Y3062714D01*
X-32783806Y3146052D01*
X-32834138Y3203534D01*
X-32860033Y3219152D01*
X-32897355Y3209363D01*
X-32935528Y3176712D01*
X-32986452Y3136985D01*
X-33029097Y3124200D01*
X-33057522Y3129346D01*
X-33067965Y3153278D01*
X-33063457Y3208741D01*
X-33057776Y3244850D01*
X-33048361Y3336347D01*
X-32682015Y3336347D01*
X-32641972Y3276500D01*
X-32600687Y3228910D01*
X-32465417Y3116359D01*
X-32300584Y3043502D01*
X-32110341Y3012040D01*
X-32067500Y3010851D01*
X-31874507Y3028733D01*
X-31712429Y3085300D01*
X-31580218Y3181581D01*
X-31476829Y3318608D01*
X-31401213Y3497412D01*
X-31352978Y3714631D01*
X-31336212Y3841809D01*
X-31331946Y3927988D01*
X-31341576Y3981742D01*
X-31366495Y4011643D01*
X-31403551Y4025332D01*
X-31516161Y4043901D01*
X-31594222Y4038987D01*
X-31650264Y4006184D01*
X-31696819Y3941090D01*
X-31709111Y3917950D01*
X-31820598Y3730253D01*
X-31943052Y3588825D01*
X-32083455Y3489293D01*
X-32248789Y3427282D01*
X-32446037Y3398418D01*
X-32543750Y3395099D01*
X-32634859Y3389941D01*
X-32680295Y3372259D01*
X-32682015Y3336347D01*
X-33048361Y3336347D01*
X-33047460Y3345100D01*
X-33043089Y3472801D01*
X-33044245Y3612252D01*
X-33049746Y3731174D01*
X-32842200Y3731174D01*
X-32840451Y3647150D01*
X-32831595Y3600376D01*
X-32810219Y3577331D01*
X-32775971Y3565746D01*
X-32713025Y3559348D01*
X-32615761Y3559700D01*
X-32500042Y3565624D01*
X-32381726Y3575941D01*
X-32276676Y3589473D01*
X-32200752Y3605043D01*
X-32187218Y3609475D01*
X-32075297Y3677850D01*
X-31980840Y3788416D01*
X-31950728Y3840739D01*
X-31912953Y3920936D01*
X-31903200Y3971507D01*
X-31927178Y3999226D01*
X-31990597Y4010865D01*
X-32096103Y4013200D01*
X-32202468Y4009199D01*
X-32326976Y3998371D01*
X-32457940Y3982478D01*
X-32583669Y3963284D01*
X-32692475Y3942552D01*
X-32772668Y3922045D01*
X-32810450Y3905456D01*
X-32829378Y3864709D01*
X-32840393Y3786777D01*
X-32842200Y3731174D01*
X-33049746Y3731174D01*
X-33050513Y3747749D01*
X-33061476Y3863589D01*
X-33076269Y3942544D01*
X-33090432Y4014896D01*
X-33078522Y4063684D01*
X-33033962Y4094276D01*
X-32950179Y4112039D01*
X-32858724Y4120100D01*
X-32740949Y4129671D01*
X-32668790Y4142675D01*
X-32637060Y4162947D01*
X-32640576Y4194324D01*
X-32674154Y4240640D01*
X-32682597Y4250410D01*
X-32736721Y4318345D01*
X-32799725Y4406004D01*
X-32837605Y4462894D01*
X-32908727Y4556896D01*
X-32978836Y4610834D01*
X-33008976Y4623354D01*
X-33096928Y4671331D01*
X-33154973Y4741299D01*
X-33172400Y4809006D01*
X-33164248Y4841302D01*
X-33130321Y4844469D01*
X-33102550Y4837871D01*
X-33009687Y4818844D01*
X-32950583Y4824676D01*
X-32913862Y4856915D01*
X-32909594Y4864100D01*
X-32861241Y4950572D01*
X-32830415Y4999722D01*
X-32809772Y5018520D01*
X-32791968Y5013938D01*
G37*
X-31423116Y-3233732D02*
X-31305576Y-3240723D01*
X-31222187Y-3248299D01*
X-31070354Y-3261154D01*
X-30899661Y-3270966D01*
X-30739130Y-3276200D01*
X-30686198Y-3276669D01*
X-30539815Y-3280030D01*
X-30431179Y-3294004D01*
X-30347474Y-3324294D01*
X-30275882Y-3376605D01*
X-30203590Y-3456640D01*
X-30162500Y-3509734D01*
X-30092795Y-3597652D01*
X-30006124Y-3700471D01*
X-29920777Y-3796517D01*
X-29917567Y-3800001D01*
X-29809177Y-3921000D01*
X-29731653Y-4019437D01*
X-29678848Y-4107543D01*
X-29644615Y-4197552D01*
X-29622808Y-4301697D01*
X-29609099Y-4413937D01*
X-29594812Y-4570289D01*
X-29588706Y-4691393D01*
X-29591476Y-4792248D01*
X-29603815Y-4887852D01*
X-29626418Y-4993201D01*
X-29638060Y-5039756D01*
X-29661674Y-5139750D01*
X-29672579Y-5217983D01*
X-29671515Y-5295693D01*
X-29659225Y-5394119D01*
X-29652031Y-5439730D01*
X-29635885Y-5548280D01*
X-29623721Y-5646573D01*
X-29617674Y-5716871D01*
X-29617370Y-5727700D01*
X-29617224Y-5771509D01*
X-29617012Y-5859236D01*
X-29616747Y-5984001D01*
X-29616443Y-6138920D01*
X-29616113Y-6317114D01*
X-29615771Y-6511700D01*
X-29615625Y-6598533D01*
X-29615079Y-6822620D01*
X-29613984Y-7002914D01*
X-29611911Y-7146422D01*
X-29608429Y-7260152D01*
X-29603111Y-7351111D01*
X-29595526Y-7426305D01*
X-29585245Y-7492743D01*
X-29571839Y-7557430D01*
X-29554878Y-7627375D01*
X-29551849Y-7639351D01*
X-29517697Y-7781115D01*
X-29498274Y-7886870D01*
X-29493358Y-7969155D01*
X-29502729Y-8040513D01*
X-29526167Y-8113483D01*
X-29542805Y-8153827D01*
X-29594836Y-8250067D01*
X-29660568Y-8319467D01*
X-29747022Y-8364439D01*
X-29861221Y-8387396D01*
X-30010187Y-8390753D01*
X-30193950Y-8377623D01*
X-30322922Y-8365757D01*
X-30417867Y-8360945D01*
X-30495197Y-8364159D01*
X-30571319Y-8376368D01*
X-30662643Y-8398541D01*
X-30695371Y-8407258D01*
X-30846269Y-8441798D01*
X-30976702Y-8455192D01*
X-31100381Y-8445687D01*
X-31231017Y-8411531D01*
X-31382320Y-8350972D01*
X-31475644Y-8307540D01*
X-31615814Y-8236545D01*
X-31726529Y-8169849D01*
X-31826230Y-8094816D01*
X-31933355Y-7998806D01*
X-31952000Y-7981053D01*
X-32156612Y-7785100D01*
X-32156521Y-7629330D01*
X-31989863Y-7629330D01*
X-31987504Y-7643850D01*
X-31963781Y-7708969D01*
X-31925100Y-7776190D01*
X-31861292Y-7848250D01*
X-31786224Y-7908236D01*
X-31715878Y-7944535D01*
X-31685682Y-7950200D01*
X-31658197Y-7942119D01*
X-31651513Y-7909089D01*
X-31658802Y-7854950D01*
X-31691585Y-7670720D01*
X-31717113Y-7530508D01*
X-31736964Y-7428305D01*
X-31752720Y-7358102D01*
X-31765959Y-7313891D01*
X-31778263Y-7289665D01*
X-31791211Y-7279414D01*
X-31806383Y-7277130D01*
X-31810758Y-7277100D01*
X-31866562Y-7300201D01*
X-31918889Y-7360493D01*
X-31961225Y-7444458D01*
X-31987054Y-7538576D01*
X-31989863Y-7629330D01*
X-32156521Y-7629330D01*
X-32156506Y-7602764D01*
X-32159817Y-7487869D01*
X-32175596Y-7412529D01*
X-32212368Y-7369331D01*
X-32278658Y-7350864D01*
X-32382993Y-7349713D01*
X-32443972Y-7352831D01*
X-32556964Y-7359096D01*
X-32700241Y-7366471D01*
X-32853330Y-7373925D01*
X-32964382Y-7379040D01*
X-33123580Y-7389651D01*
X-33300541Y-7406986D01*
X-33469314Y-7428275D01*
X-33561282Y-7442738D01*
X-33754643Y-7471248D01*
X-33934010Y-7487537D01*
X-34090130Y-7491307D01*
X-34213750Y-7482258D01*
X-34281996Y-7465984D01*
X-34393424Y-7398589D01*
X-34482087Y-7288267D01*
X-34546646Y-7142147D01*
X-34602139Y-7014405D01*
X-34693814Y-6856893D01*
X-34812710Y-6681739D01*
X-34915652Y-6532329D01*
X-34988063Y-6414012D01*
X-35033625Y-6320330D01*
X-35052899Y-6260178D01*
X-35072175Y-6178508D01*
X-35099248Y-6066497D01*
X-35129525Y-5943070D01*
X-35143153Y-5888118D01*
X-35172121Y-5771056D01*
X-35190115Y-5689018D01*
X-35197877Y-5627595D01*
X-35196716Y-5590538D01*
X-35000248Y-5590538D01*
X-34995639Y-5689794D01*
X-34971030Y-5780599D01*
X-34965484Y-5794448D01*
X-34944865Y-5858772D01*
X-34920908Y-5955877D01*
X-34897776Y-6068302D01*
X-34890532Y-6108700D01*
X-34869071Y-6222698D01*
X-34848292Y-6299387D01*
X-34823032Y-6351923D01*
X-34788132Y-6393459D01*
X-34773447Y-6407150D01*
X-34716062Y-6453431D01*
X-34672214Y-6473473D01*
X-34640153Y-6463322D01*
X-34618134Y-6419026D01*
X-34617411Y-6414688D01*
X-34359654Y-6414688D01*
X-34357687Y-6559565D01*
X-34353019Y-6672615D01*
X-34345003Y-6763314D01*
X-34332996Y-6841141D01*
X-34316352Y-6915572D01*
X-34311538Y-6934200D01*
X-34270004Y-7066287D01*
X-34222464Y-7155201D01*
X-34160918Y-7208531D01*
X-34077366Y-7233863D01*
X-33990133Y-7239069D01*
X-33901531Y-7236622D01*
X-33781396Y-7229984D01*
X-33648713Y-7220312D01*
X-33572450Y-7213669D01*
X-33420938Y-7199518D01*
X-33247517Y-7183292D01*
X-33080853Y-7167674D01*
X-33017163Y-7161697D01*
X-32841858Y-7142638D01*
X-32695834Y-7121506D01*
X-32584410Y-7099366D01*
X-32512904Y-7077283D01*
X-32486634Y-7056318D01*
X-32486600Y-7055576D01*
X-32497356Y-7019364D01*
X-32523418Y-6962100D01*
X-32525161Y-6958706D01*
X-32586715Y-6889656D01*
X-32674302Y-6860927D01*
X-32752715Y-6868283D01*
X-32809400Y-6872239D01*
X-32896650Y-6867257D01*
X-32991977Y-6854951D01*
X-33122851Y-6825023D01*
X-33235441Y-6783659D01*
X-33323169Y-6735203D01*
X-33379458Y-6684003D01*
X-33397729Y-6634403D01*
X-33380214Y-6598454D01*
X-33350279Y-6582402D01*
X-33306879Y-6592473D01*
X-33253785Y-6620233D01*
X-33180352Y-6651569D01*
X-33078513Y-6681569D01*
X-32971037Y-6703608D01*
X-32870916Y-6717492D01*
X-32807892Y-6720686D01*
X-32769291Y-6712665D01*
X-32743727Y-6694213D01*
X-32721549Y-6663771D01*
X-32727245Y-6630624D01*
X-32760940Y-6580011D01*
X-32807070Y-6502383D01*
X-32812033Y-6451049D01*
X-32775873Y-6427575D01*
X-32756725Y-6426200D01*
X-32671095Y-6451314D01*
X-32589331Y-6525611D01*
X-32513057Y-6647526D01*
X-32500666Y-6673060D01*
X-32445034Y-6770693D01*
X-32370700Y-6873119D01*
X-32288338Y-6968061D01*
X-32208622Y-7043240D01*
X-32142228Y-7086381D01*
X-32140809Y-7086951D01*
X-32089794Y-7094313D01*
X-32006085Y-7093770D01*
X-31907145Y-7085494D01*
X-31900006Y-7084617D01*
X-31810758Y-7077393D01*
X-31753113Y-7072726D01*
X-31642626Y-7082542D01*
X-31562927Y-7119402D01*
X-31508400Y-7188643D01*
X-31473426Y-7295601D01*
X-31452389Y-7445613D01*
X-31446873Y-7515126D01*
X-31421328Y-7730230D01*
X-31377478Y-7900450D01*
X-31315669Y-8024822D01*
X-31236246Y-8102385D01*
X-31235864Y-8102617D01*
X-31208488Y-8116672D01*
X-31174311Y-8127181D01*
X-31126652Y-8134464D01*
X-31058831Y-8138840D01*
X-30964167Y-8140630D01*
X-30835981Y-8140154D01*
X-30667591Y-8137730D01*
X-30548168Y-8135546D01*
X-30371747Y-8131214D01*
X-30208132Y-8125385D01*
X-30065533Y-8118496D01*
X-29952159Y-8110980D01*
X-29876218Y-8103276D01*
X-29851338Y-8098536D01*
X-29800427Y-8075768D01*
X-29767854Y-8039456D01*
X-29752550Y-7982063D01*
X-29753448Y-7896053D01*
X-29769479Y-7773890D01*
X-29789399Y-7661413D01*
X-29815178Y-7505095D01*
X-29836594Y-7331718D01*
X-29854022Y-7135419D01*
X-29867841Y-6910336D01*
X-29878430Y-6650607D01*
X-29886166Y-6350369D01*
X-29890310Y-6096000D01*
X-29892706Y-5916678D01*
X-29895092Y-5745184D01*
X-29897326Y-5591131D01*
X-29899268Y-5464129D01*
X-29900777Y-5373788D01*
X-29901297Y-5346700D01*
X-29895871Y-5245390D01*
X-29878430Y-5118928D01*
X-29852302Y-4990589D01*
X-29847751Y-4972268D01*
X-29813804Y-4794068D01*
X-29807008Y-4637525D01*
X-29826578Y-4508687D01*
X-29871732Y-4413602D01*
X-29926334Y-4365579D01*
X-29971230Y-4354813D01*
X-30057715Y-4345467D01*
X-30176594Y-4337683D01*
X-30318672Y-4331600D01*
X-30474753Y-4327360D01*
X-30635642Y-4325103D01*
X-30792144Y-4324970D01*
X-30935064Y-4327101D01*
X-31055208Y-4331637D01*
X-31143379Y-4338718D01*
X-31184771Y-4346328D01*
X-31275893Y-4398051D01*
X-31329027Y-4478886D01*
X-31342438Y-4582361D01*
X-31314395Y-4702008D01*
X-31292800Y-4749800D01*
X-31256478Y-4826685D01*
X-31247440Y-4877451D01*
X-31268523Y-4920509D01*
X-31322563Y-4974271D01*
X-31328173Y-4979383D01*
X-31381937Y-5036927D01*
X-31412549Y-5098964D01*
X-31430112Y-5187176D01*
X-31432031Y-5202249D01*
X-31462144Y-5357103D01*
X-31512486Y-5467870D01*
X-31588576Y-5538943D01*
X-31695932Y-5574714D01*
X-31840073Y-5579573D01*
X-31900140Y-5574794D01*
X-31980851Y-5569192D01*
X-32099761Y-5564407D01*
X-32250556Y-5560435D01*
X-32426921Y-5557274D01*
X-32622539Y-5554921D01*
X-32831097Y-5553373D01*
X-33046280Y-5552629D01*
X-33261771Y-5552684D01*
X-33471257Y-5553537D01*
X-33668421Y-5555184D01*
X-33846949Y-5557624D01*
X-34000526Y-5560852D01*
X-34122837Y-5564867D01*
X-34207567Y-5569666D01*
X-34248400Y-5575246D01*
X-34249734Y-5575800D01*
X-34284111Y-5597557D01*
X-34310411Y-5628511D01*
X-34329729Y-5675180D01*
X-34343162Y-5744080D01*
X-34351807Y-5841728D01*
X-34356760Y-5974640D01*
X-34359118Y-6149334D01*
X-34359563Y-6228509D01*
X-34359654Y-6414688D01*
X-34617411Y-6414688D01*
X-34604409Y-6336631D01*
X-34597231Y-6212184D01*
X-34594853Y-6041730D01*
X-34594800Y-6002913D01*
X-34593421Y-5860796D01*
X-34588416Y-5758346D01*
X-34578486Y-5684484D01*
X-34562328Y-5628131D01*
X-34546702Y-5593338D01*
X-34474060Y-5483959D01*
X-34379925Y-5403935D01*
X-34259242Y-5351699D01*
X-34106952Y-5325684D01*
X-33917999Y-5324322D01*
X-33731200Y-5340614D01*
X-33518745Y-5357601D01*
X-33336343Y-5355661D01*
X-33286700Y-5351026D01*
X-33201990Y-5345095D01*
X-33078077Y-5341759D01*
X-32925448Y-5340805D01*
X-32754594Y-5342014D01*
X-32576004Y-5345173D01*
X-32400167Y-5350064D01*
X-32237574Y-5356471D01*
X-32098712Y-5364180D01*
X-31994073Y-5372973D01*
X-31953200Y-5378484D01*
X-31834727Y-5391383D01*
X-31756887Y-5381030D01*
X-31714737Y-5346617D01*
X-31710992Y-5338864D01*
X-31691053Y-5272530D01*
X-31668804Y-5169481D01*
X-31646409Y-5043602D01*
X-31626032Y-4908783D01*
X-31609837Y-4778908D01*
X-31599989Y-4667866D01*
X-31598017Y-4613938D01*
X-31587515Y-4464667D01*
X-31553426Y-4352090D01*
X-31490644Y-4265579D01*
X-31397444Y-4196483D01*
X-31280100Y-4127500D01*
X-30792144Y-4127500D01*
X-30615488Y-4127500D01*
X-30436630Y-4126879D01*
X-30274700Y-4125132D01*
X-30136575Y-4122428D01*
X-30029129Y-4118938D01*
X-29959236Y-4114832D01*
X-29933980Y-4110625D01*
X-29931324Y-4074580D01*
X-29961782Y-4014419D01*
X-30019907Y-3939099D01*
X-30070932Y-3885289D01*
X-30137459Y-3816028D01*
X-30216052Y-3728550D01*
X-30274395Y-3660094D01*
X-30343706Y-3585422D01*
X-30413916Y-3524442D01*
X-30464895Y-3492868D01*
X-30520407Y-3480434D01*
X-30620844Y-3468642D01*
X-30760335Y-3457975D01*
X-30933004Y-3448914D01*
X-31058173Y-3444182D01*
X-31572847Y-3427338D01*
X-31633934Y-3488425D01*
X-31695706Y-3581258D01*
X-31735763Y-3708400D01*
X-31749858Y-3853870D01*
X-31759245Y-3936031D01*
X-31783438Y-4039301D01*
X-31809809Y-4120570D01*
X-31845034Y-4226055D01*
X-31874173Y-4333798D01*
X-31887547Y-4400429D01*
X-31931485Y-4535801D01*
X-32016355Y-4643909D01*
X-32112263Y-4707133D01*
X-32148504Y-4720747D01*
X-32195894Y-4730361D01*
X-32261819Y-4736300D01*
X-32353668Y-4738887D01*
X-32478829Y-4738445D01*
X-32644692Y-4735299D01*
X-32715808Y-4733566D01*
X-33020544Y-4726807D01*
X-33312325Y-4722188D01*
X-33586690Y-4719666D01*
X-33839179Y-4719202D01*
X-34065332Y-4720753D01*
X-34260690Y-4724278D01*
X-34420793Y-4729736D01*
X-34541181Y-4737087D01*
X-34617394Y-4746287D01*
X-34636929Y-4751331D01*
X-34683055Y-4787813D01*
X-34736044Y-4866654D01*
X-34789268Y-4971584D01*
X-34879368Y-5173353D01*
X-34943584Y-5339188D01*
X-34983387Y-5475960D01*
X-35000248Y-5590538D01*
X-35196716Y-5590538D01*
X-35196147Y-5572379D01*
X-35185669Y-5508964D01*
X-35167183Y-5422941D01*
X-35167118Y-5422640D01*
X-35137640Y-5317274D01*
X-35092214Y-5190404D01*
X-35035982Y-5053228D01*
X-34974087Y-4916946D01*
X-34911670Y-4792756D01*
X-34853874Y-4691858D01*
X-34805840Y-4625451D01*
X-34796949Y-4616450D01*
X-34734348Y-4571229D01*
X-34675115Y-4547334D01*
X-34664249Y-4546235D01*
X-34624411Y-4545848D01*
X-34541063Y-4544943D01*
X-34421488Y-4543602D01*
X-34272972Y-4541908D01*
X-34102801Y-4539944D01*
X-33921700Y-4537831D01*
X-33732140Y-4536407D01*
X-33552319Y-4536548D01*
X-33390608Y-4538132D01*
X-33255376Y-4541037D01*
X-33154992Y-4545141D01*
X-33101184Y-4549786D01*
X-33025537Y-4557472D01*
X-32913007Y-4564476D01*
X-32777511Y-4570119D01*
X-32632966Y-4573723D01*
X-32600112Y-4574190D01*
X-32435013Y-4575087D01*
X-32312895Y-4570823D01*
X-32225960Y-4557790D01*
X-32166413Y-4532382D01*
X-32126458Y-4490992D01*
X-32098299Y-4430015D01*
X-32074139Y-4345844D01*
X-32069852Y-4328900D01*
X-32042254Y-4230082D01*
X-32012716Y-4141297D01*
X-31990131Y-4087141D01*
X-31968893Y-4018033D01*
X-31955761Y-3917531D01*
X-31952951Y-3843011D01*
X-31935953Y-3684795D01*
X-31889125Y-3537083D01*
X-31818028Y-3408994D01*
X-31728223Y-3309649D01*
X-31625271Y-3248168D01*
X-31583148Y-3236495D01*
X-31572847Y-3235780D01*
X-31520716Y-3232157D01*
X-31423116Y-3233732D01*
G36*
X-31423116Y-3233732D02*
G01*
X-31305576Y-3240723D01*
X-31222187Y-3248299D01*
X-31070354Y-3261154D01*
X-30899661Y-3270966D01*
X-30739130Y-3276200D01*
X-30686198Y-3276669D01*
X-30539815Y-3280030D01*
X-30431179Y-3294004D01*
X-30347474Y-3324294D01*
X-30275882Y-3376605D01*
X-30203590Y-3456640D01*
X-30162500Y-3509734D01*
X-30092795Y-3597652D01*
X-30006124Y-3700471D01*
X-29920777Y-3796517D01*
X-29917567Y-3800001D01*
X-29809177Y-3921000D01*
X-29731653Y-4019437D01*
X-29678848Y-4107543D01*
X-29644615Y-4197552D01*
X-29622808Y-4301697D01*
X-29609099Y-4413937D01*
X-29594812Y-4570289D01*
X-29588706Y-4691393D01*
X-29591476Y-4792248D01*
X-29603815Y-4887852D01*
X-29626418Y-4993201D01*
X-29638060Y-5039756D01*
X-29661674Y-5139750D01*
X-29672579Y-5217983D01*
X-29671515Y-5295693D01*
X-29659225Y-5394119D01*
X-29652031Y-5439730D01*
X-29635885Y-5548280D01*
X-29623721Y-5646573D01*
X-29617674Y-5716871D01*
X-29617370Y-5727700D01*
X-29617224Y-5771509D01*
X-29617012Y-5859236D01*
X-29616747Y-5984001D01*
X-29616443Y-6138920D01*
X-29616113Y-6317114D01*
X-29615771Y-6511700D01*
X-29615625Y-6598533D01*
X-29615079Y-6822620D01*
X-29613984Y-7002914D01*
X-29611911Y-7146422D01*
X-29608429Y-7260152D01*
X-29603111Y-7351111D01*
X-29595526Y-7426305D01*
X-29585245Y-7492743D01*
X-29571839Y-7557430D01*
X-29554878Y-7627375D01*
X-29551849Y-7639351D01*
X-29517697Y-7781115D01*
X-29498274Y-7886870D01*
X-29493358Y-7969155D01*
X-29502729Y-8040513D01*
X-29526167Y-8113483D01*
X-29542805Y-8153827D01*
X-29594836Y-8250067D01*
X-29660568Y-8319467D01*
X-29747022Y-8364439D01*
X-29861221Y-8387396D01*
X-30010187Y-8390753D01*
X-30193950Y-8377623D01*
X-30322922Y-8365757D01*
X-30417867Y-8360945D01*
X-30495197Y-8364159D01*
X-30571319Y-8376368D01*
X-30662643Y-8398541D01*
X-30695371Y-8407258D01*
X-30846269Y-8441798D01*
X-30976702Y-8455192D01*
X-31100381Y-8445687D01*
X-31231017Y-8411531D01*
X-31382320Y-8350972D01*
X-31475644Y-8307540D01*
X-31615814Y-8236545D01*
X-31726529Y-8169849D01*
X-31826230Y-8094816D01*
X-31933355Y-7998806D01*
X-31952000Y-7981053D01*
X-32156612Y-7785100D01*
X-32156521Y-7629330D01*
X-31989863Y-7629330D01*
X-31987504Y-7643850D01*
X-31963781Y-7708969D01*
X-31925100Y-7776190D01*
X-31861292Y-7848250D01*
X-31786224Y-7908236D01*
X-31715878Y-7944535D01*
X-31685682Y-7950200D01*
X-31658197Y-7942119D01*
X-31651513Y-7909089D01*
X-31658802Y-7854950D01*
X-31691585Y-7670720D01*
X-31717113Y-7530508D01*
X-31736964Y-7428305D01*
X-31752720Y-7358102D01*
X-31765959Y-7313891D01*
X-31778263Y-7289665D01*
X-31791211Y-7279414D01*
X-31806383Y-7277130D01*
X-31810758Y-7277100D01*
X-31866562Y-7300201D01*
X-31918889Y-7360493D01*
X-31961225Y-7444458D01*
X-31987054Y-7538576D01*
X-31989863Y-7629330D01*
X-32156521Y-7629330D01*
X-32156506Y-7602764D01*
X-32159817Y-7487869D01*
X-32175596Y-7412529D01*
X-32212368Y-7369331D01*
X-32278658Y-7350864D01*
X-32382993Y-7349713D01*
X-32443972Y-7352831D01*
X-32556964Y-7359096D01*
X-32700241Y-7366471D01*
X-32853330Y-7373925D01*
X-32964382Y-7379040D01*
X-33123580Y-7389651D01*
X-33300541Y-7406986D01*
X-33469314Y-7428275D01*
X-33561282Y-7442738D01*
X-33754643Y-7471248D01*
X-33934010Y-7487537D01*
X-34090130Y-7491307D01*
X-34213750Y-7482258D01*
X-34281996Y-7465984D01*
X-34393424Y-7398589D01*
X-34482087Y-7288267D01*
X-34546646Y-7142147D01*
X-34602139Y-7014405D01*
X-34693814Y-6856893D01*
X-34812710Y-6681739D01*
X-34915652Y-6532329D01*
X-34988063Y-6414012D01*
X-35033625Y-6320330D01*
X-35052899Y-6260178D01*
X-35072175Y-6178508D01*
X-35099248Y-6066497D01*
X-35129525Y-5943070D01*
X-35143153Y-5888118D01*
X-35172121Y-5771056D01*
X-35190115Y-5689018D01*
X-35197877Y-5627595D01*
X-35196716Y-5590538D01*
X-35000248Y-5590538D01*
X-34995639Y-5689794D01*
X-34971030Y-5780599D01*
X-34965484Y-5794448D01*
X-34944865Y-5858772D01*
X-34920908Y-5955877D01*
X-34897776Y-6068302D01*
X-34890532Y-6108700D01*
X-34869071Y-6222698D01*
X-34848292Y-6299387D01*
X-34823032Y-6351923D01*
X-34788132Y-6393459D01*
X-34773447Y-6407150D01*
X-34716062Y-6453431D01*
X-34672214Y-6473473D01*
X-34640153Y-6463322D01*
X-34618134Y-6419026D01*
X-34617411Y-6414688D01*
X-34359654Y-6414688D01*
X-34357687Y-6559565D01*
X-34353019Y-6672615D01*
X-34345003Y-6763314D01*
X-34332996Y-6841141D01*
X-34316352Y-6915572D01*
X-34311538Y-6934200D01*
X-34270004Y-7066287D01*
X-34222464Y-7155201D01*
X-34160918Y-7208531D01*
X-34077366Y-7233863D01*
X-33990133Y-7239069D01*
X-33901531Y-7236622D01*
X-33781396Y-7229984D01*
X-33648713Y-7220312D01*
X-33572450Y-7213669D01*
X-33420938Y-7199518D01*
X-33247517Y-7183292D01*
X-33080853Y-7167674D01*
X-33017163Y-7161697D01*
X-32841858Y-7142638D01*
X-32695834Y-7121506D01*
X-32584410Y-7099366D01*
X-32512904Y-7077283D01*
X-32486634Y-7056318D01*
X-32486600Y-7055576D01*
X-32497356Y-7019364D01*
X-32523418Y-6962100D01*
X-32525161Y-6958706D01*
X-32586715Y-6889656D01*
X-32674302Y-6860927D01*
X-32752715Y-6868283D01*
X-32809400Y-6872239D01*
X-32896650Y-6867257D01*
X-32991977Y-6854951D01*
X-33122851Y-6825023D01*
X-33235441Y-6783659D01*
X-33323169Y-6735203D01*
X-33379458Y-6684003D01*
X-33397729Y-6634403D01*
X-33380214Y-6598454D01*
X-33350279Y-6582402D01*
X-33306879Y-6592473D01*
X-33253785Y-6620233D01*
X-33180352Y-6651569D01*
X-33078513Y-6681569D01*
X-32971037Y-6703608D01*
X-32870916Y-6717492D01*
X-32807892Y-6720686D01*
X-32769291Y-6712665D01*
X-32743727Y-6694213D01*
X-32721549Y-6663771D01*
X-32727245Y-6630624D01*
X-32760940Y-6580011D01*
X-32807070Y-6502383D01*
X-32812033Y-6451049D01*
X-32775873Y-6427575D01*
X-32756725Y-6426200D01*
X-32671095Y-6451314D01*
X-32589331Y-6525611D01*
X-32513057Y-6647526D01*
X-32500666Y-6673060D01*
X-32445034Y-6770693D01*
X-32370700Y-6873119D01*
X-32288338Y-6968061D01*
X-32208622Y-7043240D01*
X-32142228Y-7086381D01*
X-32140809Y-7086951D01*
X-32089794Y-7094313D01*
X-32006085Y-7093770D01*
X-31907145Y-7085494D01*
X-31900006Y-7084617D01*
X-31810758Y-7077393D01*
X-31753113Y-7072726D01*
X-31642626Y-7082542D01*
X-31562927Y-7119402D01*
X-31508400Y-7188643D01*
X-31473426Y-7295601D01*
X-31452389Y-7445613D01*
X-31446873Y-7515126D01*
X-31421328Y-7730230D01*
X-31377478Y-7900450D01*
X-31315669Y-8024822D01*
X-31236246Y-8102385D01*
X-31235864Y-8102617D01*
X-31208488Y-8116672D01*
X-31174311Y-8127181D01*
X-31126652Y-8134464D01*
X-31058831Y-8138840D01*
X-30964167Y-8140630D01*
X-30835981Y-8140154D01*
X-30667591Y-8137730D01*
X-30548168Y-8135546D01*
X-30371747Y-8131214D01*
X-30208132Y-8125385D01*
X-30065533Y-8118496D01*
X-29952159Y-8110980D01*
X-29876218Y-8103276D01*
X-29851338Y-8098536D01*
X-29800427Y-8075768D01*
X-29767854Y-8039456D01*
X-29752550Y-7982063D01*
X-29753448Y-7896053D01*
X-29769479Y-7773890D01*
X-29789399Y-7661413D01*
X-29815178Y-7505095D01*
X-29836594Y-7331718D01*
X-29854022Y-7135419D01*
X-29867841Y-6910336D01*
X-29878430Y-6650607D01*
X-29886166Y-6350369D01*
X-29890310Y-6096000D01*
X-29892706Y-5916678D01*
X-29895092Y-5745184D01*
X-29897326Y-5591131D01*
X-29899268Y-5464129D01*
X-29900777Y-5373788D01*
X-29901297Y-5346700D01*
X-29895871Y-5245390D01*
X-29878430Y-5118928D01*
X-29852302Y-4990589D01*
X-29847751Y-4972268D01*
X-29813804Y-4794068D01*
X-29807008Y-4637525D01*
X-29826578Y-4508687D01*
X-29871732Y-4413602D01*
X-29926334Y-4365579D01*
X-29971230Y-4354813D01*
X-30057715Y-4345467D01*
X-30176594Y-4337683D01*
X-30318672Y-4331600D01*
X-30474753Y-4327360D01*
X-30635642Y-4325103D01*
X-30792144Y-4324970D01*
X-30935064Y-4327101D01*
X-31055208Y-4331637D01*
X-31143379Y-4338718D01*
X-31184771Y-4346328D01*
X-31275893Y-4398051D01*
X-31329027Y-4478886D01*
X-31342438Y-4582361D01*
X-31314395Y-4702008D01*
X-31292800Y-4749800D01*
X-31256478Y-4826685D01*
X-31247440Y-4877451D01*
X-31268523Y-4920509D01*
X-31322563Y-4974271D01*
X-31328173Y-4979383D01*
X-31381937Y-5036927D01*
X-31412549Y-5098964D01*
X-31430112Y-5187176D01*
X-31432031Y-5202249D01*
X-31462144Y-5357103D01*
X-31512486Y-5467870D01*
X-31588576Y-5538943D01*
X-31695932Y-5574714D01*
X-31840073Y-5579573D01*
X-31900140Y-5574794D01*
X-31980851Y-5569192D01*
X-32099761Y-5564407D01*
X-32250556Y-5560435D01*
X-32426921Y-5557274D01*
X-32622539Y-5554921D01*
X-32831097Y-5553373D01*
X-33046280Y-5552629D01*
X-33261771Y-5552684D01*
X-33471257Y-5553537D01*
X-33668421Y-5555184D01*
X-33846949Y-5557624D01*
X-34000526Y-5560852D01*
X-34122837Y-5564867D01*
X-34207567Y-5569666D01*
X-34248400Y-5575246D01*
X-34249734Y-5575800D01*
X-34284111Y-5597557D01*
X-34310411Y-5628511D01*
X-34329729Y-5675180D01*
X-34343162Y-5744080D01*
X-34351807Y-5841728D01*
X-34356760Y-5974640D01*
X-34359118Y-6149334D01*
X-34359563Y-6228509D01*
X-34359654Y-6414688D01*
X-34617411Y-6414688D01*
X-34604409Y-6336631D01*
X-34597231Y-6212184D01*
X-34594853Y-6041730D01*
X-34594800Y-6002913D01*
X-34593421Y-5860796D01*
X-34588416Y-5758346D01*
X-34578486Y-5684484D01*
X-34562328Y-5628131D01*
X-34546702Y-5593338D01*
X-34474060Y-5483959D01*
X-34379925Y-5403935D01*
X-34259242Y-5351699D01*
X-34106952Y-5325684D01*
X-33917999Y-5324322D01*
X-33731200Y-5340614D01*
X-33518745Y-5357601D01*
X-33336343Y-5355661D01*
X-33286700Y-5351026D01*
X-33201990Y-5345095D01*
X-33078077Y-5341759D01*
X-32925448Y-5340805D01*
X-32754594Y-5342014D01*
X-32576004Y-5345173D01*
X-32400167Y-5350064D01*
X-32237574Y-5356471D01*
X-32098712Y-5364180D01*
X-31994073Y-5372973D01*
X-31953200Y-5378484D01*
X-31834727Y-5391383D01*
X-31756887Y-5381030D01*
X-31714737Y-5346617D01*
X-31710992Y-5338864D01*
X-31691053Y-5272530D01*
X-31668804Y-5169481D01*
X-31646409Y-5043602D01*
X-31626032Y-4908783D01*
X-31609837Y-4778908D01*
X-31599989Y-4667866D01*
X-31598017Y-4613938D01*
X-31587515Y-4464667D01*
X-31553426Y-4352090D01*
X-31490644Y-4265579D01*
X-31397444Y-4196483D01*
X-31280100Y-4127500D01*
X-30792144Y-4127500D01*
X-30615488Y-4127500D01*
X-30436630Y-4126879D01*
X-30274700Y-4125132D01*
X-30136575Y-4122428D01*
X-30029129Y-4118938D01*
X-29959236Y-4114832D01*
X-29933980Y-4110625D01*
X-29931324Y-4074580D01*
X-29961782Y-4014419D01*
X-30019907Y-3939099D01*
X-30070932Y-3885289D01*
X-30137459Y-3816028D01*
X-30216052Y-3728550D01*
X-30274395Y-3660094D01*
X-30343706Y-3585422D01*
X-30413916Y-3524442D01*
X-30464895Y-3492868D01*
X-30520407Y-3480434D01*
X-30620844Y-3468642D01*
X-30760335Y-3457975D01*
X-30933004Y-3448914D01*
X-31058173Y-3444182D01*
X-31572847Y-3427338D01*
X-31633934Y-3488425D01*
X-31695706Y-3581258D01*
X-31735763Y-3708400D01*
X-31749858Y-3853870D01*
X-31759245Y-3936031D01*
X-31783438Y-4039301D01*
X-31809809Y-4120570D01*
X-31845034Y-4226055D01*
X-31874173Y-4333798D01*
X-31887547Y-4400429D01*
X-31931485Y-4535801D01*
X-32016355Y-4643909D01*
X-32112263Y-4707133D01*
X-32148504Y-4720747D01*
X-32195894Y-4730361D01*
X-32261819Y-4736300D01*
X-32353668Y-4738887D01*
X-32478829Y-4738445D01*
X-32644692Y-4735299D01*
X-32715808Y-4733566D01*
X-33020544Y-4726807D01*
X-33312325Y-4722188D01*
X-33586690Y-4719666D01*
X-33839179Y-4719202D01*
X-34065332Y-4720753D01*
X-34260690Y-4724278D01*
X-34420793Y-4729736D01*
X-34541181Y-4737087D01*
X-34617394Y-4746287D01*
X-34636929Y-4751331D01*
X-34683055Y-4787813D01*
X-34736044Y-4866654D01*
X-34789268Y-4971584D01*
X-34879368Y-5173353D01*
X-34943584Y-5339188D01*
X-34983387Y-5475960D01*
X-35000248Y-5590538D01*
X-35196716Y-5590538D01*
X-35196147Y-5572379D01*
X-35185669Y-5508964D01*
X-35167183Y-5422941D01*
X-35167118Y-5422640D01*
X-35137640Y-5317274D01*
X-35092214Y-5190404D01*
X-35035982Y-5053228D01*
X-34974087Y-4916946D01*
X-34911670Y-4792756D01*
X-34853874Y-4691858D01*
X-34805840Y-4625451D01*
X-34796949Y-4616450D01*
X-34734348Y-4571229D01*
X-34675115Y-4547334D01*
X-34664249Y-4546235D01*
X-34624411Y-4545848D01*
X-34541063Y-4544943D01*
X-34421488Y-4543602D01*
X-34272972Y-4541908D01*
X-34102801Y-4539944D01*
X-33921700Y-4537831D01*
X-33732140Y-4536407D01*
X-33552319Y-4536548D01*
X-33390608Y-4538132D01*
X-33255376Y-4541037D01*
X-33154992Y-4545141D01*
X-33101184Y-4549786D01*
X-33025537Y-4557472D01*
X-32913007Y-4564476D01*
X-32777511Y-4570119D01*
X-32632966Y-4573723D01*
X-32600112Y-4574190D01*
X-32435013Y-4575087D01*
X-32312895Y-4570823D01*
X-32225960Y-4557790D01*
X-32166413Y-4532382D01*
X-32126458Y-4490992D01*
X-32098299Y-4430015D01*
X-32074139Y-4345844D01*
X-32069852Y-4328900D01*
X-32042254Y-4230082D01*
X-32012716Y-4141297D01*
X-31990131Y-4087141D01*
X-31968893Y-4018033D01*
X-31955761Y-3917531D01*
X-31952951Y-3843011D01*
X-31935953Y-3684795D01*
X-31889125Y-3537083D01*
X-31818028Y-3408994D01*
X-31728223Y-3309649D01*
X-31625271Y-3248168D01*
X-31583148Y-3236495D01*
X-31572847Y-3235780D01*
X-31520716Y-3232157D01*
X-31423116Y-3233732D01*
G37*
X-32957658Y1261619D02*
X-32865548Y1255212D01*
X-32787289Y1237106D01*
X-32642151Y1206566D01*
X-32461492Y1183736D01*
X-32260116Y1169388D01*
X-32052828Y1164296D01*
X-31854430Y1169232D01*
X-31711900Y1180940D01*
X-31604337Y1187627D01*
X-31516042Y1175952D01*
X-31427833Y1146414D01*
X-31368555Y1125772D01*
X-31304920Y1111070D01*
X-31226678Y1101241D01*
X-31123579Y1095219D01*
X-30985371Y1091939D01*
X-30894433Y1090949D01*
X-30730730Y1090618D01*
X-30606190Y1093383D01*
X-30509216Y1100240D01*
X-30428215Y1112184D01*
X-30351593Y1130211D01*
X-30314980Y1140714D01*
X-30198717Y1172967D01*
X-30106202Y1188884D01*
X-30030016Y1184251D01*
X-29962742Y1154849D01*
X-29896962Y1096462D01*
X-29825257Y1004873D01*
X-29740210Y875866D01*
X-29680492Y780045D01*
X-29590499Y629658D01*
X-29529673Y512291D01*
X-29497455Y419770D01*
X-29493287Y343920D01*
X-29516612Y276565D01*
X-29566871Y209531D01*
X-29636844Y140723D01*
X-29692670Y84489D01*
X-29720420Y34607D01*
X-29729599Y-31462D01*
X-29730186Y-80590D01*
X-29725685Y-165602D01*
X-29714033Y-281707D01*
X-29697285Y-410043D01*
X-29686968Y-477047D01*
X-29666522Y-617678D01*
X-29657607Y-730577D01*
X-29659541Y-837320D01*
X-29671638Y-959484D01*
X-29671659Y-959647D01*
X-29683346Y-1087220D01*
X-29691299Y-1239969D01*
X-29694361Y-1392339D01*
X-29693882Y-1451649D01*
X-29692984Y-1584533D01*
X-29699367Y-1684330D01*
X-29717774Y-1766576D01*
X-29752951Y-1846807D01*
X-29809643Y-1940560D01*
X-29871119Y-2032000D01*
X-29930520Y-2130599D01*
X-29983456Y-2238165D01*
X-30009574Y-2305480D01*
X-30030287Y-2361827D01*
X-30057023Y-2411641D01*
X-30096754Y-2463011D01*
X-30156454Y-2524026D01*
X-30243094Y-2602776D01*
X-30333790Y-2681657D01*
X-30441957Y-2772691D01*
X-30544523Y-2855063D01*
X-30631709Y-2921186D01*
X-30693731Y-2963474D01*
X-30706256Y-2970525D01*
X-30902750Y-3047417D01*
X-31115758Y-3091144D01*
X-31240976Y-3098800D01*
X-31339360Y-3094723D01*
X-31423417Y-3078902D01*
X-31514171Y-3045947D01*
X-31598316Y-3007210D01*
X-31707229Y-2957699D01*
X-31817694Y-2912429D01*
X-31907554Y-2880427D01*
X-31915100Y-2878143D01*
X-32012254Y-2839747D01*
X-32106567Y-2787451D01*
X-32135860Y-2766533D01*
X-32213632Y-2713118D01*
X-32277807Y-2693319D01*
X-32337639Y-2709880D01*
X-32402382Y-2765548D01*
X-32481293Y-2863066D01*
X-32486961Y-2870687D01*
X-32570127Y-2972322D01*
X-32666558Y-3074583D01*
X-32756840Y-3157034D01*
X-32765769Y-3164180D01*
X-32846915Y-3236088D01*
X-32942703Y-3333219D01*
X-33037897Y-3439712D01*
X-33082070Y-3493476D01*
X-33203802Y-3639546D01*
X-33312302Y-3750296D01*
X-33418995Y-3834821D01*
X-33535306Y-3902216D01*
X-33667700Y-3959659D01*
X-33866066Y-4019857D01*
X-34040441Y-4035958D01*
X-34193783Y-4006806D01*
X-34329051Y-3931248D01*
X-34449203Y-3808130D01*
X-34557198Y-3636298D01*
X-34572258Y-3606800D01*
X-34615616Y-3510780D01*
X-34643857Y-3420539D01*
X-34661882Y-3316295D01*
X-34672945Y-3200400D01*
X-34685820Y-3078983D01*
X-34704310Y-2962488D01*
X-34725164Y-2870099D01*
X-34733216Y-2844800D01*
X-34786265Y-2673573D01*
X-34806649Y-2528908D01*
X-34801999Y-2482479D01*
X-34666820Y-2482479D01*
X-34660725Y-2573054D01*
X-34633948Y-2687794D01*
X-34607175Y-2775917D01*
X-34563017Y-2950858D01*
X-34544882Y-3110919D01*
X-34544647Y-3131517D01*
X-34540771Y-3216942D01*
X-34526065Y-3302614D01*
X-34497023Y-3402649D01*
X-34450138Y-3531161D01*
X-34436953Y-3564981D01*
X-34369661Y-3725913D01*
X-34307498Y-3842580D01*
X-34242320Y-3919749D01*
X-34165985Y-3962191D01*
X-34070348Y-3974674D01*
X-33947267Y-3961968D01*
X-33808035Y-3933335D01*
X-33711928Y-3910165D01*
X-33634814Y-3886277D01*
X-33569382Y-3855785D01*
X-33508318Y-3812800D01*
X-33444309Y-3751432D01*
X-33370043Y-3665793D01*
X-33278208Y-3549995D01*
X-33190564Y-3436107D01*
X-33102590Y-3327076D01*
X-33011615Y-3224078D01*
X-32928708Y-3139112D01*
X-32867961Y-3086365D01*
X-32780830Y-3011616D01*
X-32692495Y-2919113D01*
X-32647134Y-2862602D01*
X-32563287Y-2753822D01*
X-32476285Y-2652227D01*
X-32393623Y-2565487D01*
X-32322797Y-2501269D01*
X-32271300Y-2467243D01*
X-32257375Y-2463800D01*
X-32218007Y-2482339D01*
X-32162832Y-2530144D01*
X-32121321Y-2576071D01*
X-32033828Y-2663273D01*
X-31932745Y-2718885D01*
X-31896011Y-2732038D01*
X-31807730Y-2765140D01*
X-31696369Y-2812653D01*
X-31583734Y-2865200D01*
X-31566413Y-2873767D01*
X-31413974Y-2939058D01*
X-31278702Y-2969324D01*
X-31142740Y-2966336D01*
X-30988232Y-2931864D01*
X-30986260Y-2931286D01*
X-30781881Y-2851350D01*
X-30618098Y-2743919D01*
X-30530800Y-2655612D01*
X-30462056Y-2580281D01*
X-30388350Y-2512144D01*
X-30356519Y-2487513D01*
X-30288076Y-2430982D01*
X-30235684Y-2371692D01*
X-30207918Y-2321099D01*
X-30210753Y-2292779D01*
X-30239762Y-2295387D01*
X-30301969Y-2317288D01*
X-30385608Y-2354132D01*
X-30414164Y-2367966D01*
X-30653266Y-2459169D01*
X-30801855Y-2491005D01*
X-30904093Y-2504674D01*
X-30987056Y-2508858D01*
X-31069889Y-2502628D01*
X-31171736Y-2485056D01*
X-31246314Y-2469464D01*
X-31374106Y-2438461D01*
X-31481624Y-2402371D01*
X-31588187Y-2353306D01*
X-31713117Y-2283378D01*
X-31737314Y-2269002D01*
X-31866955Y-2185705D01*
X-31977885Y-2103225D01*
X-32058171Y-2030639D01*
X-32073844Y-2012950D01*
X-32146729Y-1937524D01*
X-32205170Y-1908527D01*
X-32252788Y-1924911D01*
X-32276527Y-1954234D01*
X-32312507Y-1990513D01*
X-32379532Y-2041435D01*
X-32464231Y-2096987D01*
X-32479487Y-2106207D01*
X-32584392Y-2169651D01*
X-32657119Y-2217866D01*
X-32709377Y-2261208D01*
X-32752873Y-2310035D01*
X-32799317Y-2374704D01*
X-32823468Y-2410497D01*
X-32902042Y-2519670D01*
X-33001275Y-2642705D01*
X-33125274Y-2784248D01*
X-33278143Y-2948946D01*
X-33463987Y-3141446D01*
X-33515678Y-3194050D01*
X-33627144Y-3306790D01*
X-33709876Y-3388361D01*
X-33770767Y-3443806D01*
X-33816711Y-3478169D01*
X-33854602Y-3496493D01*
X-33891333Y-3503820D01*
X-33933797Y-3505195D01*
X-33940986Y-3505200D01*
X-34030998Y-3496937D01*
X-34101022Y-3464900D01*
X-34147288Y-3428236D01*
X-34205284Y-3367641D01*
X-34250040Y-3295410D01*
X-34283631Y-3203855D01*
X-34308133Y-3085285D01*
X-34325622Y-2932010D01*
X-34338174Y-2736341D01*
X-34339066Y-2717790D01*
X-34348363Y-2549102D01*
X-34359238Y-2423166D01*
X-34373425Y-2331934D01*
X-34392657Y-2267359D01*
X-34418667Y-2221392D01*
X-34453190Y-2185985D01*
X-34453713Y-2185550D01*
X-34495314Y-2168454D01*
X-34537477Y-2190795D01*
X-34584809Y-2256316D01*
X-34618287Y-2319289D01*
X-34652563Y-2402436D01*
X-34666820Y-2482479D01*
X-34801999Y-2482479D01*
X-34793515Y-2397760D01*
X-34746013Y-2267084D01*
X-34688751Y-2163855D01*
X-34631505Y-2063692D01*
X-34577730Y-1957399D01*
X-34548130Y-1890080D01*
X-34507027Y-1799333D01*
X-34449352Y-1689700D01*
X-34381453Y-1571407D01*
X-34309673Y-1454681D01*
X-34240360Y-1349749D01*
X-34179858Y-1266839D01*
X-34134514Y-1216178D01*
X-34125808Y-1209431D01*
X-34059874Y-1182954D01*
X-33974926Y-1168761D01*
X-33954343Y-1168025D01*
X-33847218Y-1156034D01*
X-33764221Y-1124162D01*
X-33716534Y-1077369D01*
X-33710526Y-1059886D01*
X-33722360Y-1014530D01*
X-33775333Y-989892D01*
X-33863690Y-987152D01*
X-33974433Y-1005732D01*
X-34080629Y-1023780D01*
X-34207918Y-1035133D01*
X-34315400Y-1037376D01*
X-34425420Y-1037993D01*
X-34502255Y-1047864D01*
X-34563146Y-1070111D01*
X-34594800Y-1087956D01*
X-34697338Y-1130532D01*
X-34804626Y-1141638D01*
X-34896437Y-1119268D01*
X-34898694Y-1118084D01*
X-34934745Y-1086454D01*
X-34989094Y-1024611D01*
X-35051538Y-944391D01*
X-35068378Y-921234D01*
X-35128884Y-834699D01*
X-35165663Y-770755D01*
X-35184974Y-710986D01*
X-35193077Y-636978D01*
X-35195893Y-546100D01*
X-35201423Y-439328D01*
X-35212007Y-343775D01*
X-35225516Y-277804D01*
X-35227739Y-271396D01*
X-35252767Y-137146D01*
X-35247136Y-87619D01*
X-35115313Y-87619D01*
X-35114269Y-114300D01*
X-35102397Y-169289D01*
X-35085262Y-249266D01*
X-35077308Y-286542D01*
X-35064755Y-371594D01*
X-35063138Y-445195D01*
X-35066312Y-467281D01*
X-35069730Y-559558D01*
X-35043494Y-657277D01*
X-34995142Y-739877D01*
X-34952609Y-777435D01*
X-34891081Y-830860D01*
X-34841288Y-901652D01*
X-34839424Y-905455D01*
X-34800643Y-966499D01*
X-34755005Y-986855D01*
X-34691199Y-968476D01*
X-34639863Y-939894D01*
X-34583659Y-912958D01*
X-34514757Y-897190D01*
X-34418702Y-890148D01*
X-34339114Y-889094D01*
X-34215490Y-885662D01*
X-34089867Y-876690D01*
X-33986924Y-864012D01*
X-33975856Y-862070D01*
X-33825998Y-847933D01*
X-33696185Y-862959D01*
X-33612403Y-875823D01*
X-33544252Y-878379D01*
X-33519209Y-874285D01*
X-33486867Y-847990D01*
X-33433056Y-789801D01*
X-33365995Y-709047D01*
X-33311323Y-638446D01*
X-33239424Y-541269D01*
X-33195673Y-476883D01*
X-33176596Y-438324D01*
X-33178718Y-418627D01*
X-33197821Y-410942D01*
X-33260089Y-408163D01*
X-33360631Y-411480D01*
X-33487439Y-419749D01*
X-33628508Y-431823D01*
X-33771830Y-446556D01*
X-33905397Y-462804D01*
X-34017203Y-479420D01*
X-34095241Y-495258D01*
X-34102482Y-497259D01*
X-34241297Y-524416D01*
X-34380935Y-528952D01*
X-34506327Y-511794D01*
X-34602404Y-473867D01*
X-34614191Y-465828D01*
X-34660487Y-424576D01*
X-34696317Y-373725D01*
X-34722526Y-307292D01*
X-34739956Y-219291D01*
X-34749454Y-103738D01*
X-34751861Y45350D01*
X-34748024Y233958D01*
X-34740496Y429516D01*
X-34741987Y518473D01*
X-34754845Y568912D01*
X-34763663Y576821D01*
X-34790298Y561267D01*
X-34833405Y510102D01*
X-34886848Y433205D01*
X-34944488Y340456D01*
X-35000187Y241736D01*
X-35047809Y146922D01*
X-35081216Y65895D01*
X-35081393Y65376D01*
X-35104525Y-17501D01*
X-35115313Y-87619D01*
X-35247136Y-87619D01*
X-35234771Y21148D01*
X-35203226Y127000D01*
X-35158303Y233753D01*
X-35101189Y346157D01*
X-35073260Y393700D01*
X-35007660Y500690D01*
X-34957744Y590471D01*
X-34911648Y685677D01*
X-34867623Y785489D01*
X-34590974Y785489D01*
X-34560750Y669215D01*
X-34541804Y623252D01*
X-34517976Y564991D01*
X-34504396Y513179D01*
X-34500172Y453911D01*
X-34504410Y373277D01*
X-34516218Y257372D01*
X-34517550Y245374D01*
X-34530016Y69219D01*
X-34527057Y-86375D01*
X-34509476Y-212827D01*
X-34478073Y-301557D01*
X-34464620Y-321330D01*
X-34411574Y-348809D01*
X-34325741Y-352845D01*
X-34219266Y-333703D01*
X-34159843Y-314702D01*
X-34073885Y-291891D01*
X-33945505Y-271433D01*
X-33772911Y-253161D01*
X-33554313Y-236907D01*
X-33287921Y-222504D01*
X-33083500Y-213870D01*
X-32927151Y-208515D01*
X-32813405Y-206599D01*
X-32734153Y-208565D01*
X-32681287Y-214854D01*
X-32646697Y-225910D01*
X-32626300Y-238831D01*
X-32591324Y-270745D01*
X-32595970Y-293486D01*
X-32624804Y-317500D01*
X-32682444Y-347790D01*
X-32720768Y-355600D01*
X-32762388Y-374192D01*
X-32828673Y-425180D01*
X-32912446Y-501374D01*
X-33006529Y-595588D01*
X-33103744Y-700634D01*
X-33196914Y-809325D01*
X-33278807Y-914400D01*
X-33455521Y-1129354D01*
X-33651905Y-1313867D01*
X-33734040Y-1378873D01*
X-33809650Y-1425611D01*
X-33886800Y-1443418D01*
X-33947170Y-1443884D01*
X-34036708Y-1448671D01*
X-34093679Y-1477475D01*
X-34128164Y-1539568D01*
X-34147811Y-1628462D01*
X-34171443Y-1721837D01*
X-34208020Y-1816904D01*
X-34214472Y-1830118D01*
X-34247044Y-1900268D01*
X-34260343Y-1957165D01*
X-34253697Y-2017360D01*
X-34226433Y-2097408D01*
X-34201100Y-2159000D01*
X-34172934Y-2231997D01*
X-34154468Y-2300320D01*
X-34143736Y-2377967D01*
X-34138770Y-2478939D01*
X-34137600Y-2610824D01*
X-34130747Y-2822152D01*
X-34109327Y-2990391D01*
X-34072044Y-3121489D01*
X-34017601Y-3221393D01*
X-33999683Y-3243916D01*
X-33953104Y-3289404D01*
X-33912417Y-3299413D01*
X-33874632Y-3288783D01*
X-33832763Y-3259768D01*
X-33764942Y-3197661D01*
X-33677045Y-3108955D01*
X-33574952Y-3000149D01*
X-33464540Y-2877739D01*
X-33351689Y-2748222D01*
X-33242275Y-2618094D01*
X-33142179Y-2493851D01*
X-33070714Y-2400300D01*
X-32938326Y-2233870D01*
X-32809656Y-2101303D01*
X-32670431Y-1988957D01*
X-32570427Y-1922139D01*
X-32498682Y-1864028D01*
X-32419668Y-1780136D01*
X-32358971Y-1700875D01*
X-32272714Y-1588272D01*
X-32205170Y-1529098D01*
X-32198836Y-1523548D01*
X-32135832Y-1505714D01*
X-32091579Y-1525095D01*
X-32059443Y-1564629D01*
X-32015715Y-1634515D01*
X-31973310Y-1712980D01*
X-31909524Y-1834134D01*
X-31854189Y-1920375D01*
X-31796343Y-1983729D01*
X-31725019Y-2036226D01*
X-31630166Y-2089418D01*
X-31392851Y-2194835D01*
X-31163078Y-2260641D01*
X-30946356Y-2286023D01*
X-30748196Y-2270169D01*
X-30630559Y-2236837D01*
X-30487310Y-2171903D01*
X-30331136Y-2084061D01*
X-30180407Y-1984811D01*
X-30053491Y-1885648D01*
X-30019238Y-1854200D01*
X-29956149Y-1784696D01*
X-29912504Y-1712043D01*
X-29885527Y-1625609D01*
X-29872443Y-1514764D01*
X-29870475Y-1368877D01*
X-29872385Y-1291784D01*
X-29872811Y-1173658D01*
X-29868439Y-1032620D01*
X-29860190Y-896237D01*
X-29858537Y-876300D01*
X-29850284Y-733620D01*
X-29854851Y-614303D01*
X-29873752Y-492186D01*
X-29883347Y-447014D01*
X-29911214Y-268239D01*
X-29916178Y-95493D01*
X-29899654Y62279D01*
X-29863058Y196133D01*
X-29807804Y297125D01*
X-29758221Y343846D01*
X-29706361Y396954D01*
X-29697871Y463127D01*
X-29733048Y547012D01*
X-29775149Y607662D01*
X-29835514Y687607D01*
X-29907429Y784941D01*
X-29961282Y859123D01*
X-30018398Y935433D01*
X-30060569Y978557D01*
X-30100870Y997679D01*
X-30152376Y1001987D01*
X-30164482Y1001889D01*
X-30239620Y995568D01*
X-30342328Y980305D01*
X-30450863Y959351D01*
X-30454812Y958485D01*
X-30583167Y935206D01*
X-30691853Y929356D01*
X-30808400Y939576D01*
X-30816063Y940645D01*
X-30948238Y952015D01*
X-31072895Y943745D01*
X-31166761Y926898D01*
X-31288358Y903018D01*
X-31372280Y893021D01*
X-31430097Y898315D01*
X-31473382Y920309D01*
X-31513702Y960411D01*
X-31521930Y970131D01*
X-31589661Y1051261D01*
X-31733782Y1019008D01*
X-31841649Y1002982D01*
X-31979482Y997650D01*
X-32156443Y1002721D01*
X-32189772Y1004523D01*
X-32501643Y1022290D01*
X-32619835Y919995D01*
X-32740500Y838293D01*
X-32863997Y795674D01*
X-32979638Y795498D01*
X-32999878Y800551D01*
X-33046888Y827555D01*
X-33112184Y881024D01*
X-33175530Y943109D01*
X-33274928Y1049171D01*
X-33064918Y1049171D01*
X-33060578Y993486D01*
X-33039050Y958745D01*
X-32973136Y909658D01*
X-32892602Y901411D01*
X-32815414Y935815D01*
X-32774624Y972774D01*
X-32770902Y999827D01*
X-32799840Y1036693D01*
X-32873844Y1089843D01*
X-32957658Y1107454D01*
X-33020521Y1091922D01*
X-33064918Y1049171D01*
X-33274928Y1049171D01*
X-33292961Y1068413D01*
X-33645430Y1054082D01*
X-33872340Y1044625D01*
X-34054084Y1036260D01*
X-34196265Y1028337D01*
X-34304487Y1020208D01*
X-34384354Y1011222D01*
X-34441468Y1000732D01*
X-34481435Y988087D01*
X-34509857Y972639D01*
X-34532338Y953738D01*
X-34535110Y950999D01*
X-34582471Y877275D01*
X-34590974Y785489D01*
X-34867623Y785489D01*
X-34866268Y788560D01*
X-34779548Y947611D01*
X-34763663Y965873D01*
X-34674839Y1067993D01*
X-34556983Y1144361D01*
X-34536466Y1152412D01*
X-34477810Y1164802D01*
X-34375809Y1177057D01*
X-34237919Y1188749D01*
X-34071593Y1199448D01*
X-33884287Y1208726D01*
X-33683455Y1216155D01*
X-33476551Y1221304D01*
X-33299400Y1223583D01*
X-33292961Y1224048D01*
X-33240216Y1227866D01*
X-33152696Y1238503D01*
X-33079389Y1249460D01*
X-32963693Y1262038D01*
X-32957658Y1261619D01*
G36*
X-32957658Y1261619D02*
G01*
X-32865548Y1255212D01*
X-32787289Y1237106D01*
X-32642151Y1206566D01*
X-32461492Y1183736D01*
X-32260116Y1169388D01*
X-32052828Y1164296D01*
X-31854430Y1169232D01*
X-31711900Y1180940D01*
X-31604337Y1187627D01*
X-31516042Y1175952D01*
X-31427833Y1146414D01*
X-31368555Y1125772D01*
X-31304920Y1111070D01*
X-31226678Y1101241D01*
X-31123579Y1095219D01*
X-30985371Y1091939D01*
X-30894433Y1090949D01*
X-30730730Y1090618D01*
X-30606190Y1093383D01*
X-30509216Y1100240D01*
X-30428215Y1112184D01*
X-30351593Y1130211D01*
X-30314980Y1140714D01*
X-30198717Y1172967D01*
X-30106202Y1188884D01*
X-30030016Y1184251D01*
X-29962742Y1154849D01*
X-29896962Y1096462D01*
X-29825257Y1004873D01*
X-29740210Y875866D01*
X-29680492Y780045D01*
X-29590499Y629658D01*
X-29529673Y512291D01*
X-29497455Y419770D01*
X-29493287Y343920D01*
X-29516612Y276565D01*
X-29566871Y209531D01*
X-29636844Y140723D01*
X-29692670Y84489D01*
X-29720420Y34607D01*
X-29729599Y-31462D01*
X-29730186Y-80590D01*
X-29725685Y-165602D01*
X-29714033Y-281707D01*
X-29697285Y-410043D01*
X-29686968Y-477047D01*
X-29666522Y-617678D01*
X-29657607Y-730577D01*
X-29659541Y-837320D01*
X-29671638Y-959484D01*
X-29671659Y-959647D01*
X-29683346Y-1087220D01*
X-29691299Y-1239969D01*
X-29694361Y-1392339D01*
X-29693882Y-1451649D01*
X-29692984Y-1584533D01*
X-29699367Y-1684330D01*
X-29717774Y-1766576D01*
X-29752951Y-1846807D01*
X-29809643Y-1940560D01*
X-29871119Y-2032000D01*
X-29930520Y-2130599D01*
X-29983456Y-2238165D01*
X-30009574Y-2305480D01*
X-30030287Y-2361827D01*
X-30057023Y-2411641D01*
X-30096754Y-2463011D01*
X-30156454Y-2524026D01*
X-30243094Y-2602776D01*
X-30333790Y-2681657D01*
X-30441957Y-2772691D01*
X-30544523Y-2855063D01*
X-30631709Y-2921186D01*
X-30693731Y-2963474D01*
X-30706256Y-2970525D01*
X-30902750Y-3047417D01*
X-31115758Y-3091144D01*
X-31240976Y-3098800D01*
X-31339360Y-3094723D01*
X-31423417Y-3078902D01*
X-31514171Y-3045947D01*
X-31598316Y-3007210D01*
X-31707229Y-2957699D01*
X-31817694Y-2912429D01*
X-31907554Y-2880427D01*
X-31915100Y-2878143D01*
X-32012254Y-2839747D01*
X-32106567Y-2787451D01*
X-32135860Y-2766533D01*
X-32213632Y-2713118D01*
X-32277807Y-2693319D01*
X-32337639Y-2709880D01*
X-32402382Y-2765548D01*
X-32481293Y-2863066D01*
X-32486961Y-2870687D01*
X-32570127Y-2972322D01*
X-32666558Y-3074583D01*
X-32756840Y-3157034D01*
X-32765769Y-3164180D01*
X-32846915Y-3236088D01*
X-32942703Y-3333219D01*
X-33037897Y-3439712D01*
X-33082070Y-3493476D01*
X-33203802Y-3639546D01*
X-33312302Y-3750296D01*
X-33418995Y-3834821D01*
X-33535306Y-3902216D01*
X-33667700Y-3959659D01*
X-33866066Y-4019857D01*
X-34040441Y-4035958D01*
X-34193783Y-4006806D01*
X-34329051Y-3931248D01*
X-34449203Y-3808130D01*
X-34557198Y-3636298D01*
X-34572258Y-3606800D01*
X-34615616Y-3510780D01*
X-34643857Y-3420539D01*
X-34661882Y-3316295D01*
X-34672945Y-3200400D01*
X-34685820Y-3078983D01*
X-34704310Y-2962488D01*
X-34725164Y-2870099D01*
X-34733216Y-2844800D01*
X-34786265Y-2673573D01*
X-34806649Y-2528908D01*
X-34801999Y-2482479D01*
X-34666820Y-2482479D01*
X-34660725Y-2573054D01*
X-34633948Y-2687794D01*
X-34607175Y-2775917D01*
X-34563017Y-2950858D01*
X-34544882Y-3110919D01*
X-34544647Y-3131517D01*
X-34540771Y-3216942D01*
X-34526065Y-3302614D01*
X-34497023Y-3402649D01*
X-34450138Y-3531161D01*
X-34436953Y-3564981D01*
X-34369661Y-3725913D01*
X-34307498Y-3842580D01*
X-34242320Y-3919749D01*
X-34165985Y-3962191D01*
X-34070348Y-3974674D01*
X-33947267Y-3961968D01*
X-33808035Y-3933335D01*
X-33711928Y-3910165D01*
X-33634814Y-3886277D01*
X-33569382Y-3855785D01*
X-33508318Y-3812800D01*
X-33444309Y-3751432D01*
X-33370043Y-3665793D01*
X-33278208Y-3549995D01*
X-33190564Y-3436107D01*
X-33102590Y-3327076D01*
X-33011615Y-3224078D01*
X-32928708Y-3139112D01*
X-32867961Y-3086365D01*
X-32780830Y-3011616D01*
X-32692495Y-2919113D01*
X-32647134Y-2862602D01*
X-32563287Y-2753822D01*
X-32476285Y-2652227D01*
X-32393623Y-2565487D01*
X-32322797Y-2501269D01*
X-32271300Y-2467243D01*
X-32257375Y-2463800D01*
X-32218007Y-2482339D01*
X-32162832Y-2530144D01*
X-32121321Y-2576071D01*
X-32033828Y-2663273D01*
X-31932745Y-2718885D01*
X-31896011Y-2732038D01*
X-31807730Y-2765140D01*
X-31696369Y-2812653D01*
X-31583734Y-2865200D01*
X-31566413Y-2873767D01*
X-31413974Y-2939058D01*
X-31278702Y-2969324D01*
X-31142740Y-2966336D01*
X-30988232Y-2931864D01*
X-30986260Y-2931286D01*
X-30781881Y-2851350D01*
X-30618098Y-2743919D01*
X-30530800Y-2655612D01*
X-30462056Y-2580281D01*
X-30388350Y-2512144D01*
X-30356519Y-2487513D01*
X-30288076Y-2430982D01*
X-30235684Y-2371692D01*
X-30207918Y-2321099D01*
X-30210753Y-2292779D01*
X-30239762Y-2295387D01*
X-30301969Y-2317288D01*
X-30385608Y-2354132D01*
X-30414164Y-2367966D01*
X-30653266Y-2459169D01*
X-30801855Y-2491005D01*
X-30904093Y-2504674D01*
X-30987056Y-2508858D01*
X-31069889Y-2502628D01*
X-31171736Y-2485056D01*
X-31246314Y-2469464D01*
X-31374106Y-2438461D01*
X-31481624Y-2402371D01*
X-31588187Y-2353306D01*
X-31713117Y-2283378D01*
X-31737314Y-2269002D01*
X-31866955Y-2185705D01*
X-31977885Y-2103225D01*
X-32058171Y-2030639D01*
X-32073844Y-2012950D01*
X-32146729Y-1937524D01*
X-32205170Y-1908527D01*
X-32252788Y-1924911D01*
X-32276527Y-1954234D01*
X-32312507Y-1990513D01*
X-32379532Y-2041435D01*
X-32464231Y-2096987D01*
X-32479487Y-2106207D01*
X-32584392Y-2169651D01*
X-32657119Y-2217866D01*
X-32709377Y-2261208D01*
X-32752873Y-2310035D01*
X-32799317Y-2374704D01*
X-32823468Y-2410497D01*
X-32902042Y-2519670D01*
X-33001275Y-2642705D01*
X-33125274Y-2784248D01*
X-33278143Y-2948946D01*
X-33463987Y-3141446D01*
X-33515678Y-3194050D01*
X-33627144Y-3306790D01*
X-33709876Y-3388361D01*
X-33770767Y-3443806D01*
X-33816711Y-3478169D01*
X-33854602Y-3496493D01*
X-33891333Y-3503820D01*
X-33933797Y-3505195D01*
X-33940986Y-3505200D01*
X-34030998Y-3496937D01*
X-34101022Y-3464900D01*
X-34147288Y-3428236D01*
X-34205284Y-3367641D01*
X-34250040Y-3295410D01*
X-34283631Y-3203855D01*
X-34308133Y-3085285D01*
X-34325622Y-2932010D01*
X-34338174Y-2736341D01*
X-34339066Y-2717790D01*
X-34348363Y-2549102D01*
X-34359238Y-2423166D01*
X-34373425Y-2331934D01*
X-34392657Y-2267359D01*
X-34418667Y-2221392D01*
X-34453190Y-2185985D01*
X-34453713Y-2185550D01*
X-34495314Y-2168454D01*
X-34537477Y-2190795D01*
X-34584809Y-2256316D01*
X-34618287Y-2319289D01*
X-34652563Y-2402436D01*
X-34666820Y-2482479D01*
X-34801999Y-2482479D01*
X-34793515Y-2397760D01*
X-34746013Y-2267084D01*
X-34688751Y-2163855D01*
X-34631505Y-2063692D01*
X-34577730Y-1957399D01*
X-34548130Y-1890080D01*
X-34507027Y-1799333D01*
X-34449352Y-1689700D01*
X-34381453Y-1571407D01*
X-34309673Y-1454681D01*
X-34240360Y-1349749D01*
X-34179858Y-1266839D01*
X-34134514Y-1216178D01*
X-34125808Y-1209431D01*
X-34059874Y-1182954D01*
X-33974926Y-1168761D01*
X-33954343Y-1168025D01*
X-33847218Y-1156034D01*
X-33764221Y-1124162D01*
X-33716534Y-1077369D01*
X-33710526Y-1059886D01*
X-33722360Y-1014530D01*
X-33775333Y-989892D01*
X-33863690Y-987152D01*
X-33974433Y-1005732D01*
X-34080629Y-1023780D01*
X-34207918Y-1035133D01*
X-34315400Y-1037376D01*
X-34425420Y-1037993D01*
X-34502255Y-1047864D01*
X-34563146Y-1070111D01*
X-34594800Y-1087956D01*
X-34697338Y-1130532D01*
X-34804626Y-1141638D01*
X-34896437Y-1119268D01*
X-34898694Y-1118084D01*
X-34934745Y-1086454D01*
X-34989094Y-1024611D01*
X-35051538Y-944391D01*
X-35068378Y-921234D01*
X-35128884Y-834699D01*
X-35165663Y-770755D01*
X-35184974Y-710986D01*
X-35193077Y-636978D01*
X-35195893Y-546100D01*
X-35201423Y-439328D01*
X-35212007Y-343775D01*
X-35225516Y-277804D01*
X-35227739Y-271396D01*
X-35252767Y-137146D01*
X-35247136Y-87619D01*
X-35115313Y-87619D01*
X-35114269Y-114300D01*
X-35102397Y-169289D01*
X-35085262Y-249266D01*
X-35077308Y-286542D01*
X-35064755Y-371594D01*
X-35063138Y-445195D01*
X-35066312Y-467281D01*
X-35069730Y-559558D01*
X-35043494Y-657277D01*
X-34995142Y-739877D01*
X-34952609Y-777435D01*
X-34891081Y-830860D01*
X-34841288Y-901652D01*
X-34839424Y-905455D01*
X-34800643Y-966499D01*
X-34755005Y-986855D01*
X-34691199Y-968476D01*
X-34639863Y-939894D01*
X-34583659Y-912958D01*
X-34514757Y-897190D01*
X-34418702Y-890148D01*
X-34339114Y-889094D01*
X-34215490Y-885662D01*
X-34089867Y-876690D01*
X-33986924Y-864012D01*
X-33975856Y-862070D01*
X-33825998Y-847933D01*
X-33696185Y-862959D01*
X-33612403Y-875823D01*
X-33544252Y-878379D01*
X-33519209Y-874285D01*
X-33486867Y-847990D01*
X-33433056Y-789801D01*
X-33365995Y-709047D01*
X-33311323Y-638446D01*
X-33239424Y-541269D01*
X-33195673Y-476883D01*
X-33176596Y-438324D01*
X-33178718Y-418627D01*
X-33197821Y-410942D01*
X-33260089Y-408163D01*
X-33360631Y-411480D01*
X-33487439Y-419749D01*
X-33628508Y-431823D01*
X-33771830Y-446556D01*
X-33905397Y-462804D01*
X-34017203Y-479420D01*
X-34095241Y-495258D01*
X-34102482Y-497259D01*
X-34241297Y-524416D01*
X-34380935Y-528952D01*
X-34506327Y-511794D01*
X-34602404Y-473867D01*
X-34614191Y-465828D01*
X-34660487Y-424576D01*
X-34696317Y-373725D01*
X-34722526Y-307292D01*
X-34739956Y-219291D01*
X-34749454Y-103738D01*
X-34751861Y45350D01*
X-34748024Y233958D01*
X-34740496Y429516D01*
X-34741987Y518473D01*
X-34754845Y568912D01*
X-34763663Y576821D01*
X-34790298Y561267D01*
X-34833405Y510102D01*
X-34886848Y433205D01*
X-34944488Y340456D01*
X-35000187Y241736D01*
X-35047809Y146922D01*
X-35081216Y65895D01*
X-35081393Y65376D01*
X-35104525Y-17501D01*
X-35115313Y-87619D01*
X-35247136Y-87619D01*
X-35234771Y21148D01*
X-35203226Y127000D01*
X-35158303Y233753D01*
X-35101189Y346157D01*
X-35073260Y393700D01*
X-35007660Y500690D01*
X-34957744Y590471D01*
X-34911648Y685677D01*
X-34867623Y785489D01*
X-34590974Y785489D01*
X-34560750Y669215D01*
X-34541804Y623252D01*
X-34517976Y564991D01*
X-34504396Y513179D01*
X-34500172Y453911D01*
X-34504410Y373277D01*
X-34516218Y257372D01*
X-34517550Y245374D01*
X-34530016Y69219D01*
X-34527057Y-86375D01*
X-34509476Y-212827D01*
X-34478073Y-301557D01*
X-34464620Y-321330D01*
X-34411574Y-348809D01*
X-34325741Y-352845D01*
X-34219266Y-333703D01*
X-34159843Y-314702D01*
X-34073885Y-291891D01*
X-33945505Y-271433D01*
X-33772911Y-253161D01*
X-33554313Y-236907D01*
X-33287921Y-222504D01*
X-33083500Y-213870D01*
X-32927151Y-208515D01*
X-32813405Y-206599D01*
X-32734153Y-208565D01*
X-32681287Y-214854D01*
X-32646697Y-225910D01*
X-32626300Y-238831D01*
X-32591324Y-270745D01*
X-32595970Y-293486D01*
X-32624804Y-317500D01*
X-32682444Y-347790D01*
X-32720768Y-355600D01*
X-32762388Y-374192D01*
X-32828673Y-425180D01*
X-32912446Y-501374D01*
X-33006529Y-595588D01*
X-33103744Y-700634D01*
X-33196914Y-809325D01*
X-33278807Y-914400D01*
X-33455521Y-1129354D01*
X-33651905Y-1313867D01*
X-33734040Y-1378873D01*
X-33809650Y-1425611D01*
X-33886800Y-1443418D01*
X-33947170Y-1443884D01*
X-34036708Y-1448671D01*
X-34093679Y-1477475D01*
X-34128164Y-1539568D01*
X-34147811Y-1628462D01*
X-34171443Y-1721837D01*
X-34208020Y-1816904D01*
X-34214472Y-1830118D01*
X-34247044Y-1900268D01*
X-34260343Y-1957165D01*
X-34253697Y-2017360D01*
X-34226433Y-2097408D01*
X-34201100Y-2159000D01*
X-34172934Y-2231997D01*
X-34154468Y-2300320D01*
X-34143736Y-2377967D01*
X-34138770Y-2478939D01*
X-34137600Y-2610824D01*
X-34130747Y-2822152D01*
X-34109327Y-2990391D01*
X-34072044Y-3121489D01*
X-34017601Y-3221393D01*
X-33999683Y-3243916D01*
X-33953104Y-3289404D01*
X-33912417Y-3299413D01*
X-33874632Y-3288783D01*
X-33832763Y-3259768D01*
X-33764942Y-3197661D01*
X-33677045Y-3108955D01*
X-33574952Y-3000149D01*
X-33464540Y-2877739D01*
X-33351689Y-2748222D01*
X-33242275Y-2618094D01*
X-33142179Y-2493851D01*
X-33070714Y-2400300D01*
X-32938326Y-2233870D01*
X-32809656Y-2101303D01*
X-32670431Y-1988957D01*
X-32570427Y-1922139D01*
X-32498682Y-1864028D01*
X-32419668Y-1780136D01*
X-32358971Y-1700875D01*
X-32272714Y-1588272D01*
X-32205170Y-1529098D01*
X-32198836Y-1523548D01*
X-32135832Y-1505714D01*
X-32091579Y-1525095D01*
X-32059443Y-1564629D01*
X-32015715Y-1634515D01*
X-31973310Y-1712980D01*
X-31909524Y-1834134D01*
X-31854189Y-1920375D01*
X-31796343Y-1983729D01*
X-31725019Y-2036226D01*
X-31630166Y-2089418D01*
X-31392851Y-2194835D01*
X-31163078Y-2260641D01*
X-30946356Y-2286023D01*
X-30748196Y-2270169D01*
X-30630559Y-2236837D01*
X-30487310Y-2171903D01*
X-30331136Y-2084061D01*
X-30180407Y-1984811D01*
X-30053491Y-1885648D01*
X-30019238Y-1854200D01*
X-29956149Y-1784696D01*
X-29912504Y-1712043D01*
X-29885527Y-1625609D01*
X-29872443Y-1514764D01*
X-29870475Y-1368877D01*
X-29872385Y-1291784D01*
X-29872811Y-1173658D01*
X-29868439Y-1032620D01*
X-29860190Y-896237D01*
X-29858537Y-876300D01*
X-29850284Y-733620D01*
X-29854851Y-614303D01*
X-29873752Y-492186D01*
X-29883347Y-447014D01*
X-29911214Y-268239D01*
X-29916178Y-95493D01*
X-29899654Y62279D01*
X-29863058Y196133D01*
X-29807804Y297125D01*
X-29758221Y343846D01*
X-29706361Y396954D01*
X-29697871Y463127D01*
X-29733048Y547012D01*
X-29775149Y607662D01*
X-29835514Y687607D01*
X-29907429Y784941D01*
X-29961282Y859123D01*
X-30018398Y935433D01*
X-30060569Y978557D01*
X-30100870Y997679D01*
X-30152376Y1001987D01*
X-30164482Y1001889D01*
X-30239620Y995568D01*
X-30342328Y980305D01*
X-30450863Y959351D01*
X-30454812Y958485D01*
X-30583167Y935206D01*
X-30691853Y929356D01*
X-30808400Y939576D01*
X-30816063Y940645D01*
X-30948238Y952015D01*
X-31072895Y943745D01*
X-31166761Y926898D01*
X-31288358Y903018D01*
X-31372280Y893021D01*
X-31430097Y898315D01*
X-31473382Y920309D01*
X-31513702Y960411D01*
X-31521930Y970131D01*
X-31589661Y1051261D01*
X-31733782Y1019008D01*
X-31841649Y1002982D01*
X-31979482Y997650D01*
X-32156443Y1002721D01*
X-32189772Y1004523D01*
X-32501643Y1022290D01*
X-32619835Y919995D01*
X-32740500Y838293D01*
X-32863997Y795674D01*
X-32979638Y795498D01*
X-32999878Y800551D01*
X-33046888Y827555D01*
X-33112184Y881024D01*
X-33175530Y943109D01*
X-33274928Y1049171D01*
X-33064918Y1049171D01*
X-33060578Y993486D01*
X-33039050Y958745D01*
X-32973136Y909658D01*
X-32892602Y901411D01*
X-32815414Y935815D01*
X-32774624Y972774D01*
X-32770902Y999827D01*
X-32799840Y1036693D01*
X-32873844Y1089843D01*
X-32957658Y1107454D01*
X-33020521Y1091922D01*
X-33064918Y1049171D01*
X-33274928Y1049171D01*
X-33292961Y1068413D01*
X-33645430Y1054082D01*
X-33872340Y1044625D01*
X-34054084Y1036260D01*
X-34196265Y1028337D01*
X-34304487Y1020208D01*
X-34384354Y1011222D01*
X-34441468Y1000732D01*
X-34481435Y988087D01*
X-34509857Y972639D01*
X-34532338Y953738D01*
X-34535110Y950999D01*
X-34582471Y877275D01*
X-34590974Y785489D01*
X-34867623Y785489D01*
X-34866268Y788560D01*
X-34779548Y947611D01*
X-34763663Y965873D01*
X-34674839Y1067993D01*
X-34556983Y1144361D01*
X-34536466Y1152412D01*
X-34477810Y1164802D01*
X-34375809Y1177057D01*
X-34237919Y1188749D01*
X-34071593Y1199448D01*
X-33884287Y1208726D01*
X-33683455Y1216155D01*
X-33476551Y1221304D01*
X-33299400Y1223583D01*
X-33292961Y1224048D01*
X-33240216Y1227866D01*
X-33152696Y1238503D01*
X-33079389Y1249460D01*
X-32963693Y1262038D01*
X-32957658Y1261619D01*
G37*
X-30660425Y6926685D02*
X-30653632Y6926348D01*
X-30551123Y6914045D01*
X-30524087Y6910485D01*
X-30405551Y6892238D01*
X-30293008Y6870460D01*
X-30205331Y6848946D01*
X-30183553Y6842019D01*
X-30078129Y6783352D01*
X-29969964Y6685355D01*
X-29868674Y6557969D01*
X-29802164Y6447542D01*
X-29770481Y6382001D01*
X-29748545Y6318764D01*
X-29733744Y6244637D01*
X-29723460Y6146424D01*
X-29715080Y6010931D01*
X-29714880Y6007100D01*
X-29700548Y5777120D01*
X-29683248Y5591305D01*
X-29661810Y5443051D01*
X-29635064Y5325757D01*
X-29601839Y5232819D01*
X-29565533Y5164705D01*
X-29506565Y5033690D01*
X-29487482Y4897535D01*
X-29509096Y4769563D01*
X-29537756Y4708911D01*
X-29557964Y4667872D01*
X-29572329Y4615543D01*
X-29582087Y4542295D01*
X-29588469Y4438499D01*
X-29592710Y4294526D01*
X-29593073Y4277111D01*
X-29594257Y4138017D01*
X-29592424Y4007773D01*
X-29587956Y3899545D01*
X-29581232Y3826497D01*
X-29579779Y3817929D01*
X-29571963Y3754121D01*
X-29578507Y3694482D01*
X-29603108Y3621854D01*
X-29639705Y3539808D01*
X-29681595Y3445358D01*
X-29703817Y3374343D01*
X-29710328Y3305222D01*
X-29705081Y3216456D01*
X-29703021Y3194978D01*
X-29701184Y3032772D01*
X-29734555Y2897414D01*
X-29808156Y2774895D01*
X-29883229Y2692273D01*
X-29946567Y2626657D01*
X-29980805Y2575847D01*
X-29994797Y2520880D01*
X-29997399Y2447787D01*
X-30021051Y2310730D01*
X-30086649Y2190423D01*
X-30186158Y2094532D01*
X-30311542Y2030725D01*
X-30454766Y2006668D01*
X-30459727Y2006640D01*
X-30544150Y2000114D01*
X-30605726Y1973215D01*
X-30662927Y1923496D01*
X-30741379Y1848962D01*
X-30803490Y1802779D01*
X-30867031Y1775655D01*
X-30949772Y1758295D01*
X-30990328Y1752271D01*
X-31089903Y1732268D01*
X-31178412Y1698129D01*
X-31276022Y1641242D01*
X-31320692Y1611182D01*
X-31406322Y1554185D01*
X-31474457Y1517335D01*
X-31542812Y1494415D01*
X-31629102Y1479207D01*
X-31729399Y1467741D01*
X-31895909Y1456004D01*
X-32032432Y1460161D01*
X-32122218Y1473091D01*
X-32215615Y1487485D01*
X-32297333Y1489101D01*
X-32389476Y1477083D01*
X-32475024Y1459433D01*
X-32665443Y1428012D01*
X-32831138Y1427853D01*
X-32985447Y1461799D01*
X-33141705Y1532695D01*
X-33302852Y1635972D01*
X-33416887Y1700468D01*
X-33539742Y1731472D01*
X-33562398Y1734130D01*
X-33751690Y1778350D01*
X-33922909Y1869987D01*
X-34075809Y2008890D01*
X-34143240Y2093156D01*
X-34223612Y2199398D01*
X-34320329Y2320895D01*
X-34415532Y2435339D01*
X-34437830Y2461182D01*
X-34569057Y2633621D01*
X-34678626Y2820979D01*
X-34759871Y3009802D01*
X-34806128Y3186632D01*
X-34809745Y3212163D01*
X-34829140Y3321193D01*
X-34858025Y3432123D01*
X-34875850Y3483987D01*
X-34922114Y3617070D01*
X-34964097Y3766207D01*
X-34998004Y3915017D01*
X-35020039Y4047117D01*
X-35026600Y4134670D01*
X-35033216Y4212055D01*
X-35051083Y4321751D01*
X-35077228Y4447299D01*
X-35099534Y4538368D01*
X-35138351Y4701833D01*
X-35158556Y4828069D01*
X-35161566Y4926530D01*
X-35160299Y4943012D01*
X-35157785Y5015267D01*
X-35167552Y5086397D01*
X-35193099Y5171725D01*
X-35237924Y5286576D01*
X-35239765Y5291029D01*
X-35304438Y5479865D01*
X-35328859Y5628795D01*
X-35174440Y5628795D01*
X-35153663Y5520962D01*
X-35105769Y5386851D01*
X-35090100Y5348436D01*
X-35042694Y5224984D01*
X-35015224Y5125836D01*
X-35003065Y5030829D01*
X-35001181Y4960788D01*
X-34992339Y4832511D01*
X-34968332Y4681732D01*
X-34940148Y4559300D01*
X-34908645Y4420535D01*
X-34881510Y4264109D01*
X-34863958Y4120709D01*
X-34862465Y4102100D01*
X-34837466Y3890699D01*
X-34796227Y3701612D01*
X-34741610Y3547289D01*
X-34728723Y3520490D01*
X-34707768Y3462256D01*
X-34684060Y3370047D01*
X-34661614Y3260236D01*
X-34654002Y3215759D01*
X-34623888Y3070518D01*
X-34583268Y2931337D01*
X-34543981Y2832170D01*
X-34500732Y2757105D01*
X-34438816Y2668867D01*
X-34366412Y2576972D01*
X-34291699Y2490936D01*
X-34222854Y2420274D01*
X-34168056Y2374503D01*
X-34140073Y2362200D01*
X-34114024Y2379001D01*
X-34123848Y2426981D01*
X-34168417Y2502514D01*
X-34194750Y2538363D01*
X-34275378Y2643905D01*
X-34330308Y2719944D01*
X-34364466Y2777506D01*
X-34382783Y2827616D01*
X-34390186Y2881299D01*
X-34391605Y2949581D01*
X-34391600Y2978704D01*
X-34394079Y3077683D01*
X-34406036Y3148830D01*
X-34434248Y3214359D01*
X-34485493Y3296483D01*
X-34491161Y3304989D01*
X-34550717Y3403337D01*
X-34585209Y3490364D01*
X-34604077Y3592033D01*
X-34607750Y3625692D01*
X-34629516Y3777471D01*
X-34664828Y3949340D01*
X-34709083Y4122987D01*
X-34757674Y4280100D01*
X-34799487Y4388179D01*
X-34832729Y4468283D01*
X-34841951Y4509700D01*
X-34670059Y4509700D01*
X-34648188Y4454953D01*
X-34629271Y4432300D01*
X-34592719Y4404792D01*
X-34562171Y4416587D01*
X-34550591Y4427523D01*
X-34530895Y4476527D01*
X-34547126Y4529019D01*
X-34589836Y4565639D01*
X-34621093Y4572000D01*
X-34660726Y4553856D01*
X-34670059Y4509700D01*
X-34841951Y4509700D01*
X-34845482Y4525558D01*
X-34839943Y4582628D01*
X-34824157Y4642179D01*
X-34803154Y4727513D01*
X-34790864Y4802911D01*
X-34789509Y4826000D01*
X-34792347Y4876734D01*
X-34799745Y4965811D01*
X-34810488Y5081107D01*
X-34823362Y5210494D01*
X-34837155Y5341846D01*
X-34850651Y5463036D01*
X-34862637Y5561938D01*
X-34864892Y5579060D01*
X-34863116Y5612486D01*
X-34704512Y5612486D01*
X-34696315Y5555436D01*
X-34676071Y5473326D01*
X-34655520Y5399240D01*
X-34637276Y5307397D01*
X-34624518Y5191326D01*
X-34621093Y5108117D01*
X-34620200Y5086421D01*
X-34617574Y4976496D01*
X-34605378Y4895513D01*
X-34577132Y4824888D01*
X-34526360Y4746039D01*
X-34479776Y4683627D01*
X-34414516Y4592330D01*
X-34382289Y4523667D01*
X-34382000Y4462644D01*
X-34412552Y4394268D01*
X-34453976Y4330693D01*
X-34503574Y4256390D01*
X-34527797Y4207596D01*
X-34530641Y4168373D01*
X-34516102Y4122783D01*
X-34509885Y4107721D01*
X-34491622Y4043073D01*
X-34473871Y3944553D01*
X-34459430Y3829038D01*
X-34454671Y3774851D01*
X-34443748Y3653480D01*
X-34429521Y3566125D01*
X-34407416Y3496015D01*
X-34372860Y3426381D01*
X-34348196Y3384367D01*
X-34282451Y3252925D01*
X-34251013Y3126583D01*
X-34248038Y3098800D01*
X-34237001Y2987635D01*
X-34222463Y2909490D01*
X-34197801Y2846681D01*
X-34156389Y2781524D01*
X-34102544Y2710405D01*
X-34032313Y2606618D01*
X-33963822Y2483731D01*
X-33919515Y2386539D01*
X-33853026Y2249592D01*
X-33766451Y2135879D01*
X-33650902Y2036822D01*
X-33497489Y1943838D01*
X-33420724Y1905063D01*
X-33308023Y1849529D01*
X-33195372Y1792373D01*
X-33102955Y1743875D01*
X-33083936Y1733514D01*
X-32957372Y1663700D01*
X-32385436Y1661323D01*
X-32152972Y1661347D01*
X-31964442Y1664128D01*
X-31813017Y1670531D01*
X-31691866Y1681417D01*
X-31594160Y1697648D01*
X-31513068Y1720089D01*
X-31441760Y1749602D01*
X-31373406Y1787048D01*
X-31369000Y1789719D01*
X-31263718Y1844593D01*
X-31145074Y1893174D01*
X-31078001Y1914248D01*
X-30984502Y1944470D01*
X-30902140Y1980994D01*
X-30862101Y2006018D01*
X-30756724Y2090484D01*
X-30680864Y2147364D01*
X-30624894Y2181447D01*
X-30579185Y2197526D01*
X-30534111Y2200392D01*
X-30482108Y2195107D01*
X-30405308Y2189147D01*
X-30355980Y2201101D01*
X-30312182Y2237095D01*
X-30305155Y2244495D01*
X-30262854Y2304968D01*
X-30257167Y2368889D01*
X-30260486Y2388581D01*
X-30265951Y2446233D01*
X-30254045Y2501107D01*
X-30219612Y2562564D01*
X-30157499Y2639965D01*
X-30069529Y2735348D01*
X-29964293Y2855065D01*
X-29896215Y2958307D01*
X-29860208Y3056814D01*
X-29851186Y3162327D01*
X-29855964Y3228315D01*
X-29861509Y3321052D01*
X-29851922Y3403854D01*
X-29823656Y3499922D01*
X-29807819Y3543302D01*
X-29775604Y3635891D01*
X-29752503Y3715643D01*
X-29743405Y3765632D01*
X-29743399Y3766343D01*
X-29761071Y3837083D01*
X-29807275Y3924874D01*
X-29871798Y4013915D01*
X-29944424Y4088405D01*
X-29959385Y4100444D01*
X-30012301Y4148201D01*
X-30040058Y4188063D01*
X-30041224Y4199668D01*
X-30012440Y4219049D01*
X-29949834Y4235681D01*
X-29906530Y4241800D01*
X-29781500Y4254500D01*
X-29789776Y4470400D01*
X-29792593Y4578556D01*
X-29789146Y4650765D01*
X-29776660Y4701763D01*
X-29752360Y4746283D01*
X-29732626Y4773785D01*
X-29680278Y4854435D01*
X-29667923Y4906654D01*
X-29696622Y4934643D01*
X-29767430Y4942600D01*
X-29775150Y4942493D01*
X-29883100Y4940300D01*
X-29880001Y5067300D01*
X-29877353Y5155184D01*
X-29873199Y5270993D01*
X-29868364Y5391906D01*
X-29867582Y5410200D01*
X-29865951Y5533312D01*
X-29869565Y5679753D01*
X-29877472Y5832990D01*
X-29888715Y5976493D01*
X-29902341Y6093729D01*
X-29909499Y6136080D01*
X-29939216Y6181231D01*
X-30005820Y6233555D01*
X-30047343Y6258183D01*
X-30201064Y6317678D01*
X-30350484Y6327108D01*
X-30493871Y6286447D01*
X-30534847Y6264833D01*
X-30626291Y6221210D01*
X-30723693Y6189117D01*
X-30753988Y6182816D01*
X-30852826Y6150300D01*
X-30910489Y6092775D01*
X-30924073Y6013459D01*
X-30921601Y5997059D01*
X-30922228Y5932713D01*
X-30939040Y5849437D01*
X-30949056Y5817826D01*
X-30977163Y5685336D01*
X-30974003Y5563826D01*
X-30967270Y5471797D01*
X-30975064Y5406328D01*
X-31004374Y5362204D01*
X-31062188Y5334210D01*
X-31155495Y5317132D01*
X-31291282Y5305757D01*
X-31322481Y5303808D01*
X-31501788Y5298175D01*
X-31678688Y5301908D01*
X-31827195Y5314259D01*
X-31940154Y5327044D01*
X-32023529Y5329796D01*
X-32097793Y5321120D01*
X-32183423Y5299620D01*
X-32225399Y5287131D01*
X-32328441Y5258390D01*
X-32408190Y5245581D01*
X-32488966Y5246923D01*
X-32592703Y5260278D01*
X-32714216Y5275719D01*
X-32862086Y5288761D01*
X-33043881Y5299939D01*
X-33267172Y5309786D01*
X-33324800Y5311905D01*
X-33391535Y5308919D01*
X-33475576Y5298664D01*
X-33492880Y5295792D01*
X-33597461Y5277416D01*
X-33615708Y5374680D01*
X-33637837Y5459715D01*
X-33667201Y5536071D01*
X-33669877Y5541411D01*
X-33690400Y5606701D01*
X-33694975Y5638575D01*
X-33528000Y5638575D01*
X-33514624Y5608203D01*
X-33492560Y5574644D01*
X-33471499Y5555007D01*
X-33435315Y5539094D01*
X-33376203Y5525336D01*
X-33286357Y5512165D01*
X-33157970Y5498012D01*
X-33067110Y5489147D01*
X-32912840Y5475930D01*
X-32758701Y5465220D01*
X-32619904Y5457913D01*
X-32511664Y5454903D01*
X-32486600Y5454984D01*
X-32172417Y5460290D01*
X-31900562Y5466089D01*
X-31672519Y5472330D01*
X-31489772Y5478961D01*
X-31353803Y5485931D01*
X-31266098Y5493189D01*
X-31233954Y5498484D01*
X-31187887Y5515922D01*
X-31171727Y5544989D01*
X-31176858Y5603527D01*
X-31178492Y5613356D01*
X-31174852Y5740197D01*
X-31154550Y5804347D01*
X-31129432Y5898745D01*
X-31119760Y6011068D01*
X-31120233Y6036562D01*
X-31120262Y6121342D01*
X-31106615Y6177281D01*
X-31072048Y6225930D01*
X-31048249Y6250675D01*
X-30959296Y6314951D01*
X-30858628Y6341085D01*
X-30777694Y6358303D01*
X-30674071Y6391084D01*
X-30572583Y6431323D01*
X-30472956Y6472681D01*
X-30395305Y6494339D01*
X-30350484Y6497902D01*
X-30316822Y6500578D01*
X-30225491Y6496468D01*
X-30134274Y6491310D01*
X-30083944Y6493426D01*
X-30064891Y6504544D01*
X-30067000Y6524996D01*
X-30113225Y6603510D01*
X-30192354Y6662529D01*
X-30309795Y6704759D01*
X-30470958Y6732909D01*
X-30485791Y6734621D01*
X-30589110Y6744696D01*
X-30660425Y6745216D01*
X-30718037Y6733717D01*
X-30780242Y6707737D01*
X-30815404Y6690263D01*
X-30945644Y6640341D01*
X-31086951Y6611159D01*
X-31100474Y6609778D01*
X-31178475Y6600761D01*
X-31235523Y6585240D01*
X-31286702Y6555074D01*
X-31347094Y6502121D01*
X-31404264Y6445800D01*
X-31554300Y6295764D01*
X-31549837Y6147022D01*
X-31552569Y6048088D01*
X-31567122Y5989840D01*
X-31576642Y5978955D01*
X-31621298Y5963085D01*
X-31701290Y5944360D01*
X-31801455Y5925444D01*
X-31906630Y5909000D01*
X-32001651Y5897690D01*
X-32059605Y5894137D01*
X-32130928Y5882774D01*
X-32202241Y5845394D01*
X-32269716Y5792052D01*
X-32352284Y5730447D01*
X-32439256Y5680484D01*
X-32487133Y5661040D01*
X-32540424Y5648269D01*
X-32592546Y5646083D01*
X-32657128Y5656166D01*
X-32747795Y5680200D01*
X-32821382Y5702323D01*
X-32934841Y5735719D01*
X-33014413Y5754175D01*
X-33074197Y5759418D01*
X-33128294Y5753180D01*
X-33164675Y5744435D01*
X-33259126Y5725351D01*
X-33353431Y5715407D01*
X-33370884Y5715000D01*
X-33452338Y5703818D01*
X-33509167Y5674689D01*
X-33528000Y5638575D01*
X-33694975Y5638575D01*
X-33703403Y5697286D01*
X-33705800Y5752733D01*
X-33718424Y5880521D01*
X-33758925Y5970105D01*
X-33831242Y6028086D01*
X-33881795Y6047661D01*
X-33934238Y6060041D01*
X-33981552Y6058982D01*
X-34038827Y6041141D01*
X-34121150Y6003181D01*
X-34152041Y5987843D01*
X-34252785Y5941712D01*
X-34350928Y5903794D01*
X-34426000Y5881961D01*
X-34428822Y5881426D01*
X-34557832Y5845809D01*
X-34642788Y5792615D01*
X-34688317Y5718792D01*
X-34691369Y5708331D01*
X-34702313Y5658707D01*
X-34704512Y5612486D01*
X-34863116Y5612486D01*
X-34858133Y5706287D01*
X-34805726Y5821831D01*
X-34712396Y5920566D01*
X-34582870Y5997366D01*
X-34435996Y6044201D01*
X-34309663Y6081289D01*
X-34206838Y6130676D01*
X-34132861Y6187243D01*
X-34093074Y6245871D01*
X-34092819Y6301443D01*
X-34126009Y6341253D01*
X-34207674Y6372810D01*
X-34303003Y6356931D01*
X-34385794Y6313017D01*
X-34464881Y6271363D01*
X-34566345Y6231341D01*
X-34632262Y6211319D01*
X-34721489Y6183022D01*
X-34795614Y6144094D01*
X-34872254Y6083701D01*
X-34933561Y6026053D01*
X-35047662Y5908980D01*
X-35124082Y5811369D01*
X-35165461Y5721786D01*
X-35174440Y5628795D01*
X-35328859Y5628795D01*
X-35330762Y5640400D01*
X-35318487Y5770745D01*
X-35307150Y5803900D01*
X-35280077Y5846803D01*
X-35227096Y5915322D01*
X-35157671Y5998613D01*
X-35081266Y6085833D01*
X-35007348Y6166139D01*
X-34945381Y6228687D01*
X-34909241Y6259746D01*
X-34858173Y6285458D01*
X-34777675Y6315819D01*
X-34707997Y6337571D01*
X-34607947Y6372065D01*
X-34512701Y6414876D01*
X-34464949Y6442435D01*
X-34383632Y6486274D01*
X-34299173Y6515857D01*
X-34283549Y6519007D01*
X-34207674Y6524974D01*
X-34207015Y6525026D01*
X-34135807Y6513670D01*
X-34062724Y6480543D01*
X-33980569Y6421251D01*
X-33882141Y6331398D01*
X-33760244Y6206587D01*
X-33744413Y6189812D01*
X-33642559Y6082011D01*
X-33568302Y6005913D01*
X-33514426Y5956230D01*
X-33473714Y5927671D01*
X-33438947Y5914946D01*
X-33402908Y5912765D01*
X-33369441Y5914966D01*
X-33229190Y5923030D01*
X-33112865Y5920441D01*
X-32999195Y5905103D01*
X-32866911Y5874923D01*
X-32810052Y5859863D01*
X-32679541Y5826815D01*
X-32585076Y5812155D01*
X-32514397Y5818544D01*
X-32455247Y5848644D01*
X-32395366Y5905115D01*
X-32347727Y5960233D01*
X-32253288Y6073212D01*
X-32083539Y6056486D01*
X-31964797Y6050385D01*
X-31875656Y6060740D01*
X-31819195Y6079284D01*
X-31757586Y6110344D01*
X-31730621Y6147069D01*
X-31724248Y6209592D01*
X-31724211Y6215354D01*
X-31722484Y6270167D01*
X-31713624Y6313767D01*
X-31691334Y6357576D01*
X-31649316Y6413019D01*
X-31581274Y6491518D01*
X-31556755Y6519123D01*
X-31453097Y6635627D01*
X-31377089Y6719468D01*
X-31322276Y6775638D01*
X-31282204Y6809126D01*
X-31250420Y6824920D01*
X-31220470Y6828012D01*
X-31185900Y6823390D01*
X-31167371Y6820166D01*
X-31095376Y6815426D01*
X-31020634Y6829830D01*
X-30924044Y6867289D01*
X-30912746Y6872320D01*
X-30838721Y6904444D01*
X-30781489Y6923113D01*
X-30725107Y6929893D01*
X-30660425Y6926685D01*
G36*
X-30660425Y6926685D02*
G01*
X-30653632Y6926348D01*
X-30551123Y6914045D01*
X-30524087Y6910485D01*
X-30405551Y6892238D01*
X-30293008Y6870460D01*
X-30205331Y6848946D01*
X-30183553Y6842019D01*
X-30078129Y6783352D01*
X-29969964Y6685355D01*
X-29868674Y6557969D01*
X-29802164Y6447542D01*
X-29770481Y6382001D01*
X-29748545Y6318764D01*
X-29733744Y6244637D01*
X-29723460Y6146424D01*
X-29715080Y6010931D01*
X-29714880Y6007100D01*
X-29700548Y5777120D01*
X-29683248Y5591305D01*
X-29661810Y5443051D01*
X-29635064Y5325757D01*
X-29601839Y5232819D01*
X-29565533Y5164705D01*
X-29506565Y5033690D01*
X-29487482Y4897535D01*
X-29509096Y4769563D01*
X-29537756Y4708911D01*
X-29557964Y4667872D01*
X-29572329Y4615543D01*
X-29582087Y4542295D01*
X-29588469Y4438499D01*
X-29592710Y4294526D01*
X-29593073Y4277111D01*
X-29594257Y4138017D01*
X-29592424Y4007773D01*
X-29587956Y3899545D01*
X-29581232Y3826497D01*
X-29579779Y3817929D01*
X-29571963Y3754121D01*
X-29578507Y3694482D01*
X-29603108Y3621854D01*
X-29639705Y3539808D01*
X-29681595Y3445358D01*
X-29703817Y3374343D01*
X-29710328Y3305222D01*
X-29705081Y3216456D01*
X-29703021Y3194978D01*
X-29701184Y3032772D01*
X-29734555Y2897414D01*
X-29808156Y2774895D01*
X-29883229Y2692273D01*
X-29946567Y2626657D01*
X-29980805Y2575847D01*
X-29994797Y2520880D01*
X-29997399Y2447787D01*
X-30021051Y2310730D01*
X-30086649Y2190423D01*
X-30186158Y2094532D01*
X-30311542Y2030725D01*
X-30454766Y2006668D01*
X-30459727Y2006640D01*
X-30544150Y2000114D01*
X-30605726Y1973215D01*
X-30662927Y1923496D01*
X-30741379Y1848962D01*
X-30803490Y1802779D01*
X-30867031Y1775655D01*
X-30949772Y1758295D01*
X-30990328Y1752271D01*
X-31089903Y1732268D01*
X-31178412Y1698129D01*
X-31276022Y1641242D01*
X-31320692Y1611182D01*
X-31406322Y1554185D01*
X-31474457Y1517335D01*
X-31542812Y1494415D01*
X-31629102Y1479207D01*
X-31729399Y1467741D01*
X-31895909Y1456004D01*
X-32032432Y1460161D01*
X-32122218Y1473091D01*
X-32215615Y1487485D01*
X-32297333Y1489101D01*
X-32389476Y1477083D01*
X-32475024Y1459433D01*
X-32665443Y1428012D01*
X-32831138Y1427853D01*
X-32985447Y1461799D01*
X-33141705Y1532695D01*
X-33302852Y1635972D01*
X-33416887Y1700468D01*
X-33539742Y1731472D01*
X-33562398Y1734130D01*
X-33751690Y1778350D01*
X-33922909Y1869987D01*
X-34075809Y2008890D01*
X-34143240Y2093156D01*
X-34223612Y2199398D01*
X-34320329Y2320895D01*
X-34415532Y2435339D01*
X-34437830Y2461182D01*
X-34569057Y2633621D01*
X-34678626Y2820979D01*
X-34759871Y3009802D01*
X-34806128Y3186632D01*
X-34809745Y3212163D01*
X-34829140Y3321193D01*
X-34858025Y3432123D01*
X-34875850Y3483987D01*
X-34922114Y3617070D01*
X-34964097Y3766207D01*
X-34998004Y3915017D01*
X-35020039Y4047117D01*
X-35026600Y4134670D01*
X-35033216Y4212055D01*
X-35051083Y4321751D01*
X-35077228Y4447299D01*
X-35099534Y4538368D01*
X-35138351Y4701833D01*
X-35158556Y4828069D01*
X-35161566Y4926530D01*
X-35160299Y4943012D01*
X-35157785Y5015267D01*
X-35167552Y5086397D01*
X-35193099Y5171725D01*
X-35237924Y5286576D01*
X-35239765Y5291029D01*
X-35304438Y5479865D01*
X-35328859Y5628795D01*
X-35174440Y5628795D01*
X-35153663Y5520962D01*
X-35105769Y5386851D01*
X-35090100Y5348436D01*
X-35042694Y5224984D01*
X-35015224Y5125836D01*
X-35003065Y5030829D01*
X-35001181Y4960788D01*
X-34992339Y4832511D01*
X-34968332Y4681732D01*
X-34940148Y4559300D01*
X-34908645Y4420535D01*
X-34881510Y4264109D01*
X-34863958Y4120709D01*
X-34862465Y4102100D01*
X-34837466Y3890699D01*
X-34796227Y3701612D01*
X-34741610Y3547289D01*
X-34728723Y3520490D01*
X-34707768Y3462256D01*
X-34684060Y3370047D01*
X-34661614Y3260236D01*
X-34654002Y3215759D01*
X-34623888Y3070518D01*
X-34583268Y2931337D01*
X-34543981Y2832170D01*
X-34500732Y2757105D01*
X-34438816Y2668867D01*
X-34366412Y2576972D01*
X-34291699Y2490936D01*
X-34222854Y2420274D01*
X-34168056Y2374503D01*
X-34140073Y2362200D01*
X-34114024Y2379001D01*
X-34123848Y2426981D01*
X-34168417Y2502514D01*
X-34194750Y2538363D01*
X-34275378Y2643905D01*
X-34330308Y2719944D01*
X-34364466Y2777506D01*
X-34382783Y2827616D01*
X-34390186Y2881299D01*
X-34391605Y2949581D01*
X-34391600Y2978704D01*
X-34394079Y3077683D01*
X-34406036Y3148830D01*
X-34434248Y3214359D01*
X-34485493Y3296483D01*
X-34491161Y3304989D01*
X-34550717Y3403337D01*
X-34585209Y3490364D01*
X-34604077Y3592033D01*
X-34607750Y3625692D01*
X-34629516Y3777471D01*
X-34664828Y3949340D01*
X-34709083Y4122987D01*
X-34757674Y4280100D01*
X-34799487Y4388179D01*
X-34832729Y4468283D01*
X-34841951Y4509700D01*
X-34670059Y4509700D01*
X-34648188Y4454953D01*
X-34629271Y4432300D01*
X-34592719Y4404792D01*
X-34562171Y4416587D01*
X-34550591Y4427523D01*
X-34530895Y4476527D01*
X-34547126Y4529019D01*
X-34589836Y4565639D01*
X-34621093Y4572000D01*
X-34660726Y4553856D01*
X-34670059Y4509700D01*
X-34841951Y4509700D01*
X-34845482Y4525558D01*
X-34839943Y4582628D01*
X-34824157Y4642179D01*
X-34803154Y4727513D01*
X-34790864Y4802911D01*
X-34789509Y4826000D01*
X-34792347Y4876734D01*
X-34799745Y4965811D01*
X-34810488Y5081107D01*
X-34823362Y5210494D01*
X-34837155Y5341846D01*
X-34850651Y5463036D01*
X-34862637Y5561938D01*
X-34864892Y5579060D01*
X-34863116Y5612486D01*
X-34704512Y5612486D01*
X-34696315Y5555436D01*
X-34676071Y5473326D01*
X-34655520Y5399240D01*
X-34637276Y5307397D01*
X-34624518Y5191326D01*
X-34621093Y5108117D01*
X-34620200Y5086421D01*
X-34617574Y4976496D01*
X-34605378Y4895513D01*
X-34577132Y4824888D01*
X-34526360Y4746039D01*
X-34479776Y4683627D01*
X-34414516Y4592330D01*
X-34382289Y4523667D01*
X-34382000Y4462644D01*
X-34412552Y4394268D01*
X-34453976Y4330693D01*
X-34503574Y4256390D01*
X-34527797Y4207596D01*
X-34530641Y4168373D01*
X-34516102Y4122783D01*
X-34509885Y4107721D01*
X-34491622Y4043073D01*
X-34473871Y3944553D01*
X-34459430Y3829038D01*
X-34454671Y3774851D01*
X-34443748Y3653480D01*
X-34429521Y3566125D01*
X-34407416Y3496015D01*
X-34372860Y3426381D01*
X-34348196Y3384367D01*
X-34282451Y3252925D01*
X-34251013Y3126583D01*
X-34248038Y3098800D01*
X-34237001Y2987635D01*
X-34222463Y2909490D01*
X-34197801Y2846681D01*
X-34156389Y2781524D01*
X-34102544Y2710405D01*
X-34032313Y2606618D01*
X-33963822Y2483731D01*
X-33919515Y2386539D01*
X-33853026Y2249592D01*
X-33766451Y2135879D01*
X-33650902Y2036822D01*
X-33497489Y1943838D01*
X-33420724Y1905063D01*
X-33308023Y1849529D01*
X-33195372Y1792373D01*
X-33102955Y1743875D01*
X-33083936Y1733514D01*
X-32957372Y1663700D01*
X-32385436Y1661323D01*
X-32152972Y1661347D01*
X-31964442Y1664128D01*
X-31813017Y1670531D01*
X-31691866Y1681417D01*
X-31594160Y1697648D01*
X-31513068Y1720089D01*
X-31441760Y1749602D01*
X-31373406Y1787048D01*
X-31369000Y1789719D01*
X-31263718Y1844593D01*
X-31145074Y1893174D01*
X-31078001Y1914248D01*
X-30984502Y1944470D01*
X-30902140Y1980994D01*
X-30862101Y2006018D01*
X-30756724Y2090484D01*
X-30680864Y2147364D01*
X-30624894Y2181447D01*
X-30579185Y2197526D01*
X-30534111Y2200392D01*
X-30482108Y2195107D01*
X-30405308Y2189147D01*
X-30355980Y2201101D01*
X-30312182Y2237095D01*
X-30305155Y2244495D01*
X-30262854Y2304968D01*
X-30257167Y2368889D01*
X-30260486Y2388581D01*
X-30265951Y2446233D01*
X-30254045Y2501107D01*
X-30219612Y2562564D01*
X-30157499Y2639965D01*
X-30069529Y2735348D01*
X-29964293Y2855065D01*
X-29896215Y2958307D01*
X-29860208Y3056814D01*
X-29851186Y3162327D01*
X-29855964Y3228315D01*
X-29861509Y3321052D01*
X-29851922Y3403854D01*
X-29823656Y3499922D01*
X-29807819Y3543302D01*
X-29775604Y3635891D01*
X-29752503Y3715643D01*
X-29743405Y3765632D01*
X-29743399Y3766343D01*
X-29761071Y3837083D01*
X-29807275Y3924874D01*
X-29871798Y4013915D01*
X-29944424Y4088405D01*
X-29959385Y4100444D01*
X-30012301Y4148201D01*
X-30040058Y4188063D01*
X-30041224Y4199668D01*
X-30012440Y4219049D01*
X-29949834Y4235681D01*
X-29906530Y4241800D01*
X-29781500Y4254500D01*
X-29789776Y4470400D01*
X-29792593Y4578556D01*
X-29789146Y4650765D01*
X-29776660Y4701763D01*
X-29752360Y4746283D01*
X-29732626Y4773785D01*
X-29680278Y4854435D01*
X-29667923Y4906654D01*
X-29696622Y4934643D01*
X-29767430Y4942600D01*
X-29775150Y4942493D01*
X-29883100Y4940300D01*
X-29880001Y5067300D01*
X-29877353Y5155184D01*
X-29873199Y5270993D01*
X-29868364Y5391906D01*
X-29867582Y5410200D01*
X-29865951Y5533312D01*
X-29869565Y5679753D01*
X-29877472Y5832990D01*
X-29888715Y5976493D01*
X-29902341Y6093729D01*
X-29909499Y6136080D01*
X-29939216Y6181231D01*
X-30005820Y6233555D01*
X-30047343Y6258183D01*
X-30201064Y6317678D01*
X-30350484Y6327108D01*
X-30493871Y6286447D01*
X-30534847Y6264833D01*
X-30626291Y6221210D01*
X-30723693Y6189117D01*
X-30753988Y6182816D01*
X-30852826Y6150300D01*
X-30910489Y6092775D01*
X-30924073Y6013459D01*
X-30921601Y5997059D01*
X-30922228Y5932713D01*
X-30939040Y5849437D01*
X-30949056Y5817826D01*
X-30977163Y5685336D01*
X-30974003Y5563826D01*
X-30967270Y5471797D01*
X-30975064Y5406328D01*
X-31004374Y5362204D01*
X-31062188Y5334210D01*
X-31155495Y5317132D01*
X-31291282Y5305757D01*
X-31322481Y5303808D01*
X-31501788Y5298175D01*
X-31678688Y5301908D01*
X-31827195Y5314259D01*
X-31940154Y5327044D01*
X-32023529Y5329796D01*
X-32097793Y5321120D01*
X-32183423Y5299620D01*
X-32225399Y5287131D01*
X-32328441Y5258390D01*
X-32408190Y5245581D01*
X-32488966Y5246923D01*
X-32592703Y5260278D01*
X-32714216Y5275719D01*
X-32862086Y5288761D01*
X-33043881Y5299939D01*
X-33267172Y5309786D01*
X-33324800Y5311905D01*
X-33391535Y5308919D01*
X-33475576Y5298664D01*
X-33492880Y5295792D01*
X-33597461Y5277416D01*
X-33615708Y5374680D01*
X-33637837Y5459715D01*
X-33667201Y5536071D01*
X-33669877Y5541411D01*
X-33690400Y5606701D01*
X-33694975Y5638575D01*
X-33528000Y5638575D01*
X-33514624Y5608203D01*
X-33492560Y5574644D01*
X-33471499Y5555007D01*
X-33435315Y5539094D01*
X-33376203Y5525336D01*
X-33286357Y5512165D01*
X-33157970Y5498012D01*
X-33067110Y5489147D01*
X-32912840Y5475930D01*
X-32758701Y5465220D01*
X-32619904Y5457913D01*
X-32511664Y5454903D01*
X-32486600Y5454984D01*
X-32172417Y5460290D01*
X-31900562Y5466089D01*
X-31672519Y5472330D01*
X-31489772Y5478961D01*
X-31353803Y5485931D01*
X-31266098Y5493189D01*
X-31233954Y5498484D01*
X-31187887Y5515922D01*
X-31171727Y5544989D01*
X-31176858Y5603527D01*
X-31178492Y5613356D01*
X-31174852Y5740197D01*
X-31154550Y5804347D01*
X-31129432Y5898745D01*
X-31119760Y6011068D01*
X-31120233Y6036562D01*
X-31120262Y6121342D01*
X-31106615Y6177281D01*
X-31072048Y6225930D01*
X-31048249Y6250675D01*
X-30959296Y6314951D01*
X-30858628Y6341085D01*
X-30777694Y6358303D01*
X-30674071Y6391084D01*
X-30572583Y6431323D01*
X-30472956Y6472681D01*
X-30395305Y6494339D01*
X-30350484Y6497902D01*
X-30316822Y6500578D01*
X-30225491Y6496468D01*
X-30134274Y6491310D01*
X-30083944Y6493426D01*
X-30064891Y6504544D01*
X-30067000Y6524996D01*
X-30113225Y6603510D01*
X-30192354Y6662529D01*
X-30309795Y6704759D01*
X-30470958Y6732909D01*
X-30485791Y6734621D01*
X-30589110Y6744696D01*
X-30660425Y6745216D01*
X-30718037Y6733717D01*
X-30780242Y6707737D01*
X-30815404Y6690263D01*
X-30945644Y6640341D01*
X-31086951Y6611159D01*
X-31100474Y6609778D01*
X-31178475Y6600761D01*
X-31235523Y6585240D01*
X-31286702Y6555074D01*
X-31347094Y6502121D01*
X-31404264Y6445800D01*
X-31554300Y6295764D01*
X-31549837Y6147022D01*
X-31552569Y6048088D01*
X-31567122Y5989840D01*
X-31576642Y5978955D01*
X-31621298Y5963085D01*
X-31701290Y5944360D01*
X-31801455Y5925444D01*
X-31906630Y5909000D01*
X-32001651Y5897690D01*
X-32059605Y5894137D01*
X-32130928Y5882774D01*
X-32202241Y5845394D01*
X-32269716Y5792052D01*
X-32352284Y5730447D01*
X-32439256Y5680484D01*
X-32487133Y5661040D01*
X-32540424Y5648269D01*
X-32592546Y5646083D01*
X-32657128Y5656166D01*
X-32747795Y5680200D01*
X-32821382Y5702323D01*
X-32934841Y5735719D01*
X-33014413Y5754175D01*
X-33074197Y5759418D01*
X-33128294Y5753180D01*
X-33164675Y5744435D01*
X-33259126Y5725351D01*
X-33353431Y5715407D01*
X-33370884Y5715000D01*
X-33452338Y5703818D01*
X-33509167Y5674689D01*
X-33528000Y5638575D01*
X-33694975Y5638575D01*
X-33703403Y5697286D01*
X-33705800Y5752733D01*
X-33718424Y5880521D01*
X-33758925Y5970105D01*
X-33831242Y6028086D01*
X-33881795Y6047661D01*
X-33934238Y6060041D01*
X-33981552Y6058982D01*
X-34038827Y6041141D01*
X-34121150Y6003181D01*
X-34152041Y5987843D01*
X-34252785Y5941712D01*
X-34350928Y5903794D01*
X-34426000Y5881961D01*
X-34428822Y5881426D01*
X-34557832Y5845809D01*
X-34642788Y5792615D01*
X-34688317Y5718792D01*
X-34691369Y5708331D01*
X-34702313Y5658707D01*
X-34704512Y5612486D01*
X-34863116Y5612486D01*
X-34858133Y5706287D01*
X-34805726Y5821831D01*
X-34712396Y5920566D01*
X-34582870Y5997366D01*
X-34435996Y6044201D01*
X-34309663Y6081289D01*
X-34206838Y6130676D01*
X-34132861Y6187243D01*
X-34093074Y6245871D01*
X-34092819Y6301443D01*
X-34126009Y6341253D01*
X-34207674Y6372810D01*
X-34303003Y6356931D01*
X-34385794Y6313017D01*
X-34464881Y6271363D01*
X-34566345Y6231341D01*
X-34632262Y6211319D01*
X-34721489Y6183022D01*
X-34795614Y6144094D01*
X-34872254Y6083701D01*
X-34933561Y6026053D01*
X-35047662Y5908980D01*
X-35124082Y5811369D01*
X-35165461Y5721786D01*
X-35174440Y5628795D01*
X-35328859Y5628795D01*
X-35330762Y5640400D01*
X-35318487Y5770745D01*
X-35307150Y5803900D01*
X-35280077Y5846803D01*
X-35227096Y5915322D01*
X-35157671Y5998613D01*
X-35081266Y6085833D01*
X-35007348Y6166139D01*
X-34945381Y6228687D01*
X-34909241Y6259746D01*
X-34858173Y6285458D01*
X-34777675Y6315819D01*
X-34707997Y6337571D01*
X-34607947Y6372065D01*
X-34512701Y6414876D01*
X-34464949Y6442435D01*
X-34383632Y6486274D01*
X-34299173Y6515857D01*
X-34283549Y6519007D01*
X-34207674Y6524974D01*
X-34207015Y6525026D01*
X-34135807Y6513670D01*
X-34062724Y6480543D01*
X-33980569Y6421251D01*
X-33882141Y6331398D01*
X-33760244Y6206587D01*
X-33744413Y6189812D01*
X-33642559Y6082011D01*
X-33568302Y6005913D01*
X-33514426Y5956230D01*
X-33473714Y5927671D01*
X-33438947Y5914946D01*
X-33402908Y5912765D01*
X-33369441Y5914966D01*
X-33229190Y5923030D01*
X-33112865Y5920441D01*
X-32999195Y5905103D01*
X-32866911Y5874923D01*
X-32810052Y5859863D01*
X-32679541Y5826815D01*
X-32585076Y5812155D01*
X-32514397Y5818544D01*
X-32455247Y5848644D01*
X-32395366Y5905115D01*
X-32347727Y5960233D01*
X-32253288Y6073212D01*
X-32083539Y6056486D01*
X-31964797Y6050385D01*
X-31875656Y6060740D01*
X-31819195Y6079284D01*
X-31757586Y6110344D01*
X-31730621Y6147069D01*
X-31724248Y6209592D01*
X-31724211Y6215354D01*
X-31722484Y6270167D01*
X-31713624Y6313767D01*
X-31691334Y6357576D01*
X-31649316Y6413019D01*
X-31581274Y6491518D01*
X-31556755Y6519123D01*
X-31453097Y6635627D01*
X-31377089Y6719468D01*
X-31322276Y6775638D01*
X-31282204Y6809126D01*
X-31250420Y6824920D01*
X-31220470Y6828012D01*
X-31185900Y6823390D01*
X-31167371Y6820166D01*
X-31095376Y6815426D01*
X-31020634Y6829830D01*
X-30924044Y6867289D01*
X-30912746Y6872320D01*
X-30838721Y6904444D01*
X-30781489Y6923113D01*
X-30725107Y6929893D01*
X-30660425Y6926685D01*
G37*
D13*
X416852Y-48831800D02*
X-105652Y-48831800D01*
X416852Y-47361800D02*
X-105652Y-47361800D01*
X-1297000Y-19076936D02*
X-1297000Y-19531064D01*
X-2767000Y-19076936D02*
X-2767000Y-19531064D01*
X-2313000Y-22632936D02*
X-2313000Y-23087064D01*
X-3783000Y-22632936D02*
X-3783000Y-23087064D01*
X-735000Y18822936D02*
X-735000Y19277064D01*
X735000Y18822936D02*
X735000Y19277064D01*
X15975000Y16009252D02*
X15975000Y15486748D01*
X14505000Y16009252D02*
X14505000Y15486748D01*
D16*
X-21118000Y-7496000D02*
X-21118000Y-7096000D01*
X-21118000Y-7496000D02*
X-21518000Y-7496000D01*
X-21118000Y-4696000D02*
X-21118000Y-5096000D01*
X-21118000Y-4696000D02*
X-21518000Y-4696000D01*
X-21927820Y-7495540D02*
X-21927820Y-7030720D01*
X-21927820Y-7030720D02*
X-22004020Y-7030720D01*
X-21927820Y-5153660D02*
X-22004020Y-5153660D01*
X-21927820Y-4693920D02*
X-21927820Y-5153660D01*
X-22004020Y-7495540D02*
X-21927820Y-7495540D01*
X-22004020Y-7030720D02*
X-22004020Y-7495540D01*
X-22004020Y-5153660D02*
X-22004020Y-4693920D01*
X-22004020Y-4693920D02*
X-21927820Y-4693920D01*
X-25618000Y-7496000D02*
X-25218000Y-7496000D01*
X-25618000Y-7496000D02*
X-25618000Y-7096000D01*
X-25618000Y-4696000D02*
X-25218000Y-4696000D01*
X-25618000Y-4696000D02*
X-25618000Y-5096000D01*
D13*
X16234000Y-23202000D02*
X16234000Y-21502000D01*
X16234000Y-23202000D02*
X12974000Y-23202000D01*
X16234000Y-21502000D02*
X12974000Y-21502000D01*
X401652Y-50965400D02*
X-120852Y-50965400D01*
X401652Y-49495400D02*
X-120852Y-49495400D01*
D14*
X11410400Y14102800D02*
X11410400Y11002800D01*
X6510400Y14102800D02*
X6510400Y11002800D01*
D15*
X11035400Y16652800D02*
G75*
G03*
X11035400Y16652800I-125000J0D01*
G01*
D13*
X3026000Y-23202000D02*
X3026000Y-21502000D01*
X3026000Y-23202000D02*
X-234000Y-23202000D01*
X3026000Y-21502000D02*
X-234000Y-21502000D01*
X-18717400Y-58141200D02*
X-18717400Y-59041200D01*
X-18717400Y-61741200D02*
X-18717400Y-64471200D01*
X-18717400Y-64471200D02*
X-9527400Y-64471200D01*
X-18597400Y-55061200D02*
X-9647400Y-55061200D01*
X-9527400Y-58141200D02*
X-9527400Y-59041200D01*
X-9527400Y-61741200D02*
X-9527400Y-64471200D01*
X15978136Y23442600D02*
X16432264Y23442600D01*
X15978136Y21972600D02*
X16432264Y21972600D01*
D12*
X714200Y-54889400D02*
G75*
G03*
X714200Y-54889400I-1400000J0D01*
G01*
D13*
X17325748Y-45493000D02*
X17848252Y-45493000D01*
X17325748Y-46963000D02*
X17848252Y-46963000D01*
X13943000Y-19076936D02*
X13943000Y-19531064D01*
X12473000Y-19076936D02*
X12473000Y-19531064D01*
X7950564Y23141000D02*
X7496436Y23141000D01*
X7950564Y24611000D02*
X7496436Y24611000D01*
X-11965000Y19785064D02*
X-11965000Y19330936D01*
X-13435000Y19785064D02*
X-13435000Y19330936D01*
D12*
X-32737600Y-16408400D02*
G75*
G03*
X-32737600Y-16408400I-1400000J0D01*
G01*
D14*
X2460400Y14204400D02*
X2460400Y11104400D01*
X-2439600Y14204400D02*
X-2439600Y11104400D01*
D15*
X2085400Y16754400D02*
G75*
G03*
X2085400Y16754400I-125000J0D01*
G01*
D13*
X8155000Y18822936D02*
X8155000Y19277064D01*
X9625000Y18822936D02*
X9625000Y19277064D01*
X13864000Y17999064D02*
X13864000Y16544936D01*
X12044000Y17999064D02*
X12044000Y16544936D01*
X-8355000Y-53416564D02*
X-8355000Y-52962436D01*
X-6885000Y-53416564D02*
X-6885000Y-52962436D01*
X18441936Y-48287000D02*
X18896064Y-48287000D01*
X18441936Y-49757000D02*
X18896064Y-49757000D01*
D12*
X-32763000Y-10922000D02*
G75*
G03*
X-32763000Y-10922000I-1400000J0D01*
G01*
D13*
X-1042936Y26824000D02*
X-1497064Y26824000D01*
X-1042936Y28294000D02*
X-1497064Y28294000D01*
X26154748Y-58447000D02*
X26677252Y-58447000D01*
X26154748Y-59917000D02*
X26677252Y-59917000D01*
D12*
X-10284000Y24130000D02*
G75*
G03*
X-10284000Y24130000I-1400000J0D01*
G01*
D13*
X-13896748Y-27659000D02*
X-14419252Y-27659000D01*
X-13896748Y-26189000D02*
X-14419252Y-26189000D01*
X11276000Y24899252D02*
X11276000Y24376748D01*
X9806000Y24899252D02*
X9806000Y24376748D01*
X-28469500Y-17152252D02*
X-28469500Y-16629748D01*
X-26999500Y-17152252D02*
X-26999500Y-16629748D01*
X-3026000Y22694000D02*
X-3026000Y20994000D01*
X-3026000Y22694000D02*
X234000Y22694000D01*
X-3026000Y20994000D02*
X234000Y20994000D01*
X4974000Y17937564D02*
X4974000Y16483436D01*
X3154000Y17937564D02*
X3154000Y16483436D01*
D16*
X20610000Y-4696000D02*
X20610000Y-5096000D01*
X20610000Y-4696000D02*
X21010000Y-4696000D01*
X20610000Y-7496000D02*
X20610000Y-7096000D01*
X20610000Y-7496000D02*
X21010000Y-7496000D01*
X21419820Y-4696460D02*
X21419820Y-5161280D01*
X21419820Y-5161280D02*
X21496020Y-5161280D01*
X21419820Y-7038340D02*
X21496020Y-7038340D01*
X21419820Y-7498080D02*
X21419820Y-7038340D01*
X21496020Y-4696460D02*
X21419820Y-4696460D01*
X21496020Y-5161280D02*
X21496020Y-4696460D01*
X21496020Y-7038340D02*
X21496020Y-7498080D01*
X21496020Y-7498080D02*
X21419820Y-7498080D01*
X25110000Y-4696000D02*
X24710000Y-4696000D01*
X25110000Y-4696000D02*
X25110000Y-5096000D01*
X25110000Y-7496000D02*
X24710000Y-7496000D01*
X25110000Y-7496000D02*
X25110000Y-7096000D01*
D13*
X-1297000Y19277064D02*
X-1297000Y18822936D01*
X-2767000Y19277064D02*
X-2767000Y18822936D01*
X-3529000Y-49325264D02*
X-3529000Y-48871136D01*
X-2059000Y-49325264D02*
X-2059000Y-48871136D01*
X13562064Y26062000D02*
X13107936Y26062000D01*
X13562064Y27532000D02*
X13107936Y27532000D01*
X18441936Y-52351000D02*
X18896064Y-52351000D01*
X18441936Y-53821000D02*
X18896064Y-53821000D01*
X4799000Y13215252D02*
X4799000Y12692748D01*
X3329000Y13215252D02*
X3329000Y12692748D01*
D16*
X-14613600Y-42319000D02*
X-14613600Y-42719000D01*
X-14613600Y-45069000D02*
X-14613600Y-45544000D01*
X-14613600Y-45544000D02*
X-14313600Y-45869000D01*
X-14313600Y-45869000D02*
X-14313600Y-46064000D01*
X-14113600Y-42319000D02*
X-14613600Y-42319000D01*
X-8438600Y-42319000D02*
X-8063600Y-42319000D01*
X-8063600Y-42319000D02*
X-8063600Y-42619000D01*
X-8063600Y-45394000D02*
X-8063600Y-45869000D01*
X-8063600Y-45869000D02*
X-8513600Y-45869000D01*
D13*
X-16658000Y-19523064D02*
X-16658000Y-18068936D01*
X-14838000Y-19523064D02*
X-14838000Y-18068936D01*
X-12473000Y-19076936D02*
X-12473000Y-19531064D01*
X-13943000Y-19076936D02*
X-13943000Y-19531064D01*
D12*
X-5458000Y24130000D02*
G75*
G03*
X-5458000Y24130000I-1400000J0D01*
G01*
D13*
X5864000Y22694000D02*
X5864000Y20994000D01*
X5864000Y22694000D02*
X9124000Y22694000D01*
X5864000Y20994000D02*
X9124000Y20994000D01*
X-20266000Y-52340000D02*
X-20266000Y-54340000D01*
X-20266000Y-52340000D02*
X-16256000Y-52340000D01*
X-20266000Y-54340000D02*
X-16256000Y-54340000D01*
D12*
X3000Y-36017200D02*
G75*
G03*
X3000Y-36017200I-1400000J0D01*
G01*
D13*
X-3329000Y13215252D02*
X-3329000Y12692748D01*
X-4799000Y13215252D02*
X-4799000Y12692748D01*
X14104252Y-53821000D02*
X13581748Y-53821000D01*
X14104252Y-52351000D02*
X13581748Y-52351000D01*
X13107936Y21436000D02*
X13562064Y21436000D01*
X13107936Y19966000D02*
X13562064Y19966000D01*
X-15267000Y-40514536D02*
X-15267000Y-40968664D01*
X-16737000Y-40514536D02*
X-16737000Y-40968664D01*
X20473936Y30707000D02*
X20928064Y30707000D01*
X20473936Y29237000D02*
X20928064Y29237000D01*
X13689000Y13281252D02*
X13689000Y12758748D01*
X12219000Y13281252D02*
X12219000Y12758748D01*
X-8355064Y-23649000D02*
X-7900936Y-23649000D01*
X-8355064Y-25119000D02*
X-7900936Y-25119000D01*
X2513000Y24899252D02*
X2513000Y24376748D01*
X1043000Y24899252D02*
X1043000Y24376748D01*
D14*
X-13372000Y-14250000D02*
X-13372000Y-11150000D01*
X-8472000Y-14250000D02*
X-8472000Y-11150000D01*
D15*
X-12747000Y-16800000D02*
G75*
G03*
X-12747000Y-16800000I-125000J0D01*
G01*
D13*
X7593000Y19277064D02*
X7593000Y18822936D01*
X6123000Y19277064D02*
X6123000Y18822936D01*
D16*
X-30555000Y-26986000D02*
X-31855000Y-26986000D01*
X-30555000Y-26986000D02*
X-30555000Y-27486000D01*
X-31855000Y-26986000D02*
X-31855000Y-27386000D01*
X-35455000Y-26986000D02*
X-35455000Y-27386000D01*
X-36755000Y-26986000D02*
X-35455000Y-26986000D01*
X-36755000Y-26986000D02*
X-36755000Y-27486000D01*
X-30555000Y-27086000D02*
X-31855000Y-27086000D01*
X-36755000Y-27086000D02*
X-35455000Y-27086000D01*
X-30555000Y-27186000D02*
X-31855000Y-27186000D01*
X-36755000Y-27186000D02*
X-35455000Y-27186000D01*
X-30555000Y-27286000D02*
X-31855000Y-27286000D01*
X-36755000Y-27286000D02*
X-35455000Y-27286000D01*
X-30555000Y-27386000D02*
X-31855000Y-27386000D01*
X-36755000Y-27386000D02*
X-35455000Y-27386000D01*
X-30555000Y-34186000D02*
X-30555000Y-33686000D01*
X-30555000Y-34186000D02*
X-31055000Y-34186000D01*
X-36755000Y-34186000D02*
X-36755000Y-33686000D01*
X-36755000Y-34186000D02*
X-36255000Y-34186000D01*
D13*
X-6711000Y-60866000D02*
X-6711000Y-55466000D01*
X-4211000Y-60866000D02*
X-6711000Y-60866000D01*
X-5961000Y-59466000D02*
X-5961000Y-56866000D01*
X-4961000Y-59466000D02*
X-5961000Y-59466000D01*
X-5961000Y-56866000D02*
X-4961000Y-56866000D01*
X-4961000Y-56866000D02*
X-4961000Y-59466000D01*
X-6711000Y-55466000D02*
X-4211000Y-55466000D01*
X-4211000Y-55466000D02*
X-4211000Y-60866000D01*
D16*
X-5961000Y-57766000D02*
X-6661000Y-57766000D01*
X-6661000Y-57366000D01*
X-5961000Y-57366000D01*
X-5961000Y-57766000D01*
G36*
X-5961000Y-57766000D02*
G01*
X-6661000Y-57766000D01*
X-6661000Y-57366000D01*
X-5961000Y-57366000D01*
X-5961000Y-57766000D01*
G37*
X-4261000Y-57766000D02*
X-4961000Y-57766000D01*
X-4961000Y-57366000D01*
X-4261000Y-57366000D01*
X-4261000Y-57766000D01*
G36*
X-4261000Y-57766000D02*
G01*
X-4961000Y-57766000D01*
X-4961000Y-57366000D01*
X-4261000Y-57366000D01*
X-4261000Y-57766000D01*
G37*
D13*
X29710748Y-44858000D02*
X30233252Y-44858000D01*
X29710748Y-46328000D02*
X30233252Y-46328000D01*
X18465436Y-56415000D02*
X18919564Y-56415000D01*
X18465436Y-57885000D02*
X18919564Y-57885000D01*
D12*
X28400Y-39420800D02*
G75*
G03*
X28400Y-39420800I-1400000J0D01*
G01*
D13*
X18441936Y-50319000D02*
X18896064Y-50319000D01*
X18441936Y-51789000D02*
X18896064Y-51789000D01*
X-892436Y23141000D02*
X-1346564Y23141000D01*
X-892436Y24611000D02*
X-1346564Y24611000D01*
X-1497064Y30453000D02*
X-1042936Y30453000D01*
X-1497064Y28983000D02*
X-1042936Y28983000D01*
X13107936Y29564000D02*
X13562064Y29564000D01*
X13107936Y28094000D02*
X13562064Y28094000D01*
X1961948Y-33849000D02*
X2484452Y-33849000D01*
X1961948Y-35319000D02*
X2484452Y-35319000D01*
X9879000Y-19076936D02*
X9879000Y-19531064D01*
X8409000Y-19076936D02*
X8409000Y-19531064D01*
X5948000Y-19523064D02*
X5948000Y-18068936D01*
X7768000Y-19523064D02*
X7768000Y-18068936D01*
X18441936Y-54383000D02*
X18896064Y-54383000D01*
X18441936Y-55853000D02*
X18896064Y-55853000D01*
X-6118000Y-23202000D02*
X-6118000Y-21502000D01*
X-6118000Y-23202000D02*
X-9378000Y-23202000D01*
X-6118000Y-21502000D02*
X-9378000Y-21502000D01*
X20473936Y28675000D02*
X20928064Y28675000D01*
X20473936Y27205000D02*
X20928064Y27205000D01*
X-35480000Y32178000D02*
X-25480000Y32178000D01*
X-35480000Y22178000D02*
X-35480000Y32178000D01*
X-25480000Y32178000D02*
X-25480000Y22178000D01*
X-25480000Y22178000D02*
X-35480000Y22178000D01*
X16162348Y-38533400D02*
X16684852Y-38533400D01*
X16162348Y-40003400D02*
X16684852Y-40003400D01*
X-7747000Y-30607000D02*
X-7112000Y-30607000D01*
X-7747000Y-31242000D02*
X-7747000Y-30607000D01*
X-4726000Y-52985936D02*
X-4726000Y-53440064D01*
X-6196000Y-52985936D02*
X-6196000Y-53440064D01*
X26611500Y-57937000D02*
X30211500Y-57937000D01*
X26611500Y-57937000D02*
X24411500Y-57937000D01*
X26611500Y-52717000D02*
X28811500Y-52717000D01*
X26611500Y-52717000D02*
X24411500Y-52717000D01*
X-7847000Y-19531064D02*
X-7847000Y-19076936D01*
X-6377000Y-19531064D02*
X-6377000Y-19076936D01*
%LPC*%
D18*
X13866500Y-59436000D03*
X12041500Y-59436000D03*
X16105500Y-60452000D03*
X17930500Y-60452000D03*
D19*
X22527500Y-59182000D03*
X20652500Y-59182000D03*
X33195500Y-60452000D03*
X31320500Y-60452000D03*
D20*
X11176000Y-18391500D03*
X11176000Y-20216500D03*
D21*
X15240000Y-20216500D03*
X15240000Y-18391500D03*
D22*
X-15872000Y-28956000D03*
X-15872000Y-30226000D03*
X-15872000Y-31496000D03*
X-15872000Y-32766000D03*
X-10922000Y-32766000D03*
X-10922000Y-31496000D03*
X-10922000Y-30226000D03*
X-10922000Y-28956000D03*
D23*
X3792000Y-55854600D03*
X7892000Y-55854600D03*
D24*
X-23810000Y-9144000D03*
X-21910000Y-9144000D03*
D25*
X-11684000Y-22418000D03*
X-11684000Y-24318000D03*
D26*
X-4064000Y-14158000D03*
X-4064000Y-12258000D03*
D27*
X2474000Y-26416000D03*
X574000Y-26416000D03*
X23810000Y-9144000D03*
X21910000Y-9144000D03*
D25*
X11176000Y-22352000D03*
X11176000Y-24252000D03*
D24*
X-16698000Y-15240000D03*
X-14798000Y-15240000D03*
D27*
X18222000Y-31811000D03*
X16322000Y-31811000D03*
D28*
X-28448000Y-23368000D03*
X-28448000Y-30988000D03*
X-25908000Y-23368000D03*
X-25908000Y-30988000D03*
X-23368000Y-23368000D03*
X-23368000Y-30988000D03*
X-20828000Y-23368000D03*
X-20828000Y-30988000D03*
D21*
X4064000Y-20216500D03*
X4064000Y-18391500D03*
D20*
X5080000Y-21947500D03*
X5080000Y-23772500D03*
X0Y-18391500D03*
X0Y-20216500D03*
D29*
X-4572000Y-20320000D03*
X-4572000Y-17395000D03*
D21*
X2032000Y-20216500D03*
X2032000Y-18391500D03*
D18*
X611500Y-24384000D03*
X2436500Y-24384000D03*
X17883500Y-25781000D03*
X19708500Y-25781000D03*
D30*
X32707500Y-51480000D03*
X32707500Y-50830000D03*
X32707500Y-50180000D03*
X32707500Y-49530000D03*
X32707500Y-48880000D03*
X32707500Y-48230000D03*
X32707500Y-47580000D03*
X26982500Y-47580000D03*
X26982500Y-48230000D03*
X26982500Y-48880000D03*
X26982500Y-49530000D03*
X26982500Y-50180000D03*
X26982500Y-50830000D03*
X26982500Y-51480000D03*
D24*
X13985200Y-37084000D03*
X15885200Y-37084000D03*
D31*
X-21050000Y-17358000D03*
X-21050000Y-16708000D03*
X-21050000Y-16058000D03*
X-21050000Y-15408000D03*
X-25275000Y-15408000D03*
X-25275000Y-16058000D03*
X-25275000Y-16708000D03*
X-25275000Y-17358000D03*
D27*
X24572000Y-44450000D03*
X22672000Y-44450000D03*
D32*
X24618000Y-46609000D03*
X22118000Y-46609000D03*
D20*
X28829000Y-40616500D03*
X28829000Y-42441500D03*
D33*
X26947500Y-42291000D03*
X25122500Y-42291000D03*
D26*
X-6604000Y-14158000D03*
X-6604000Y-12258000D03*
X4064000Y-14158000D03*
X4064000Y-12258000D03*
D34*
X9194800Y-15550000D03*
X9844800Y-15550000D03*
X10494800Y-15550000D03*
X11144800Y-15550000D03*
X11794800Y-15550000D03*
X12444800Y-15550000D03*
X13094800Y-15550000D03*
X13094800Y-9850000D03*
X12444800Y-9850000D03*
X11794800Y-9850000D03*
X11144800Y-9850000D03*
X10494800Y-9850000D03*
X9844800Y-9850000D03*
X9194800Y-9850000D03*
D35*
X11144800Y-12700000D03*
D26*
X6604000Y-14158000D03*
X6604000Y-12258000D03*
D27*
X17206000Y-15240000D03*
X15306000Y-15240000D03*
D20*
X-9144000Y-18391500D03*
X-9144000Y-20216500D03*
D36*
X-33020000Y-21590000D03*
D33*
X14732000Y-51054000D03*
X12907000Y-51054000D03*
D26*
X-12700000Y15052000D03*
X-12700000Y16952000D03*
D36*
X-21082000Y21590000D03*
D21*
X24384000Y-32723500D03*
X24384000Y-30898500D03*
D37*
X3628000Y-48361600D03*
X4128000Y-48361600D03*
X4628000Y-48361600D03*
X5128000Y-48361600D03*
X5628000Y-48361600D03*
X6128000Y-48361600D03*
X6628000Y-48361600D03*
X7128000Y-48361600D03*
X7628000Y-48361600D03*
X8128000Y-48361600D03*
X8628000Y-48361600D03*
X9128000Y-48361600D03*
X9628000Y-48361600D03*
X10128000Y-48361600D03*
X10628000Y-48361600D03*
X11128000Y-48361600D03*
D38*
X13053000Y-46436600D03*
X13053000Y-45936600D03*
X13053000Y-45436600D03*
X13053000Y-44936600D03*
X13053000Y-44436600D03*
X13053000Y-43936600D03*
X13053000Y-43436600D03*
X13053000Y-42936600D03*
X13053000Y-42436600D03*
X13053000Y-41936600D03*
X13053000Y-41436600D03*
X13053000Y-40936600D03*
X13053000Y-40436600D03*
X13053000Y-39936600D03*
X13053000Y-39436600D03*
X13053000Y-38936600D03*
D37*
X11128000Y-37011600D03*
X10628000Y-37011600D03*
X10128000Y-37011600D03*
X9628000Y-37011600D03*
X9128000Y-37011600D03*
X8628000Y-37011600D03*
X8128000Y-37011600D03*
X7628000Y-37011600D03*
X7128000Y-37011600D03*
X6628000Y-37011600D03*
X6128000Y-37011600D03*
X5628000Y-37011600D03*
X5128000Y-37011600D03*
X4628000Y-37011600D03*
X4128000Y-37011600D03*
X3628000Y-37011600D03*
D38*
X1703000Y-38936600D03*
X1703000Y-39436600D03*
X1703000Y-39936600D03*
X1703000Y-40436600D03*
X1703000Y-40936600D03*
X1703000Y-41436600D03*
X1703000Y-41936600D03*
X1703000Y-42436600D03*
X1703000Y-42936600D03*
X1703000Y-43436600D03*
X1703000Y-43936600D03*
X1703000Y-44436600D03*
X1703000Y-44936600D03*
X1703000Y-45436600D03*
X1703000Y-45936600D03*
X1703000Y-46436600D03*
D34*
X-1868000Y-15550000D03*
X-1218000Y-15550000D03*
X-568000Y-15550000D03*
X82000Y-15550000D03*
X732000Y-15550000D03*
X1382000Y-15550000D03*
X2032000Y-15550000D03*
X2032000Y-9850000D03*
X1382000Y-9850000D03*
X732000Y-9850000D03*
X82000Y-9850000D03*
X-568000Y-9850000D03*
X-1218000Y-9850000D03*
X-1868000Y-9850000D03*
D35*
X82000Y-12700000D03*
D25*
X18034000Y-27813000D03*
X18034000Y-29713000D03*
D18*
X13819500Y-24384000D03*
X15644500Y-24384000D03*
D39*
X-34163000Y15621000D03*
D27*
X14793000Y-55245000D03*
X12893000Y-55245000D03*
D40*
X-11110000Y4560000D03*
D41*
X-6670000Y4560000D03*
X-2220000Y4560000D03*
X2220000Y4560000D03*
X6670000Y4560000D03*
X11110000Y4560000D03*
X11110000Y-4560000D03*
X6670000Y-4560000D03*
X2220000Y-4560000D03*
X-2220000Y-4560000D03*
X-6670000Y-4560000D03*
X-11110000Y-4560000D03*
D42*
X-18765000Y-37299000D03*
X-18765000Y-48299000D03*
X-30765000Y-48299000D03*
X-30765000Y-37299000D03*
D43*
X-6908800Y20777200D03*
X-8178800Y20777200D03*
X-9448800Y20777200D03*
X-10718800Y20777200D03*
X-10718800Y15827200D03*
X-9448800Y15827200D03*
X-8178800Y15827200D03*
X-6908800Y15827200D03*
D20*
X-11176000Y-18391500D03*
X-11176000Y-20216500D03*
D24*
X-28763000Y-34036000D03*
X-26863000Y-34036000D03*
D27*
X-21849000Y-34036000D03*
X-23749000Y-34036000D03*
D26*
X-32766000Y-43876000D03*
X-32766000Y-41976000D03*
X-16002000Y-48067000D03*
X-16002000Y-46167000D03*
D27*
X-10607000Y-38354000D03*
X-12507000Y-38354000D03*
X4963200Y-59207400D03*
X3063200Y-59207400D03*
D24*
X6771600Y-59207400D03*
X8671600Y-59207400D03*
D44*
X-16002000Y-36146500D03*
X-16002000Y-38021500D03*
D45*
X-7924800Y12271200D03*
X-9824800Y12271200D03*
X-8874800Y10171200D03*
D19*
X-22557500Y-19685000D03*
X-24432500Y-19685000D03*
D46*
X22171900Y-33523000D03*
X22171900Y-31623000D03*
X20296900Y-32573000D03*
X22148800Y-29779000D03*
X22148800Y-27879000D03*
X20273800Y-28829000D03*
D33*
X-14454500Y-22606000D03*
X-16279500Y-22606000D03*
X-14454500Y-24765000D03*
X-16279500Y-24765000D03*
X-26392500Y-19685000D03*
X-28217500Y-19685000D03*
D27*
X1105600Y-48096800D03*
X-794400Y-48096800D03*
D20*
X-2032000Y-18391500D03*
X-2032000Y-20216500D03*
X-3048000Y-21947500D03*
X-3048000Y-23772500D03*
D21*
X0Y18137500D03*
X0Y19962500D03*
D25*
X15240000Y16698000D03*
X15240000Y14798000D03*
D47*
X-25368000Y-6096000D03*
X-21368000Y-6096000D03*
D48*
X15474000Y-22352000D03*
X12974000Y-22352000D03*
D27*
X1090400Y-50230400D03*
X-809600Y-50230400D03*
D34*
X10910400Y15402800D03*
X10260400Y15402800D03*
X9610400Y15402800D03*
X8960400Y15402800D03*
X8310400Y15402800D03*
X7660400Y15402800D03*
X7010400Y15402800D03*
X7010400Y9702800D03*
X7660400Y9702800D03*
X8310400Y9702800D03*
X8960400Y9702800D03*
X9610400Y9702800D03*
X10260400Y9702800D03*
X10910400Y9702800D03*
D35*
X8960400Y12552800D03*
D48*
X2266000Y-22352000D03*
X-234000Y-22352000D03*
D49*
X-17097400Y-55741200D03*
X-16247400Y-55741200D03*
X-15397400Y-55741200D03*
X-14547400Y-55741200D03*
X-13697400Y-55741200D03*
X-12847400Y-55741200D03*
X-11997400Y-55741200D03*
X-11147400Y-55741200D03*
X-11147400Y-57091200D03*
X-11997400Y-57091200D03*
X-12847400Y-57091200D03*
X-13697400Y-57091200D03*
X-14547400Y-57091200D03*
X-15397400Y-57091200D03*
X-16247400Y-57091200D03*
X-17097400Y-57091200D03*
D50*
X-18447400Y-56721200D03*
D51*
X-18447400Y-60101200D03*
D50*
X-9797400Y-56721200D03*
D51*
X-9797400Y-60101200D03*
D18*
X15292700Y22707600D03*
X17117700Y22707600D03*
D39*
X-685800Y-54889400D03*
D24*
X16637000Y-46228000D03*
X18537000Y-46228000D03*
D20*
X13208000Y-18391500D03*
X13208000Y-20216500D03*
D33*
X8636000Y23876000D03*
X6811000Y23876000D03*
D20*
X-12700000Y20470500D03*
X-12700000Y18645500D03*
D39*
X-34137600Y-16408400D03*
D34*
X1960400Y15504400D03*
X1310400Y15504400D03*
X660400Y15504400D03*
X10400Y15504400D03*
X-639600Y15504400D03*
X-1289600Y15504400D03*
X-1939600Y15504400D03*
X-1939600Y9804400D03*
X-1289600Y9804400D03*
X-639600Y9804400D03*
X10400Y9804400D03*
X660400Y9804400D03*
X1310400Y9804400D03*
X1960400Y9804400D03*
D35*
X10400Y12654400D03*
D21*
X8890000Y18137500D03*
X8890000Y19962500D03*
D52*
X12954000Y18734500D03*
X12954000Y15809500D03*
D21*
X-7620000Y-54102000D03*
X-7620000Y-52277000D03*
D18*
X17756500Y-49022000D03*
X19581500Y-49022000D03*
D39*
X-34163000Y-10922000D03*
D33*
X-357500Y27559000D03*
X-2182500Y27559000D03*
D24*
X25466000Y-59182000D03*
X27366000Y-59182000D03*
D39*
X-11684000Y24130000D03*
D27*
X-13208000Y-26924000D03*
X-15108000Y-26924000D03*
D25*
X10541000Y25588000D03*
X10541000Y23688000D03*
D26*
X-27734500Y-17841000D03*
X-27734500Y-15941000D03*
D53*
X-2266000Y21844000D03*
X234000Y21844000D03*
D52*
X4064000Y18673000D03*
X4064000Y15748000D03*
D47*
X24860000Y-6096000D03*
X20860000Y-6096000D03*
D20*
X-2032000Y19962500D03*
X-2032000Y18137500D03*
D21*
X-2794000Y-50010700D03*
X-2794000Y-48185700D03*
D33*
X14247500Y26797000D03*
X12422500Y26797000D03*
D18*
X17756500Y-53086000D03*
X19581500Y-53086000D03*
D25*
X4064000Y13904000D03*
X4064000Y12004000D03*
D54*
X-13638600Y-47244000D03*
X-11338600Y-47244000D03*
X-9038600Y-47244000D03*
D55*
X-11338600Y-40944000D03*
D29*
X-15748000Y-20258500D03*
X-15748000Y-17333500D03*
D20*
X-13208000Y-18391500D03*
X-13208000Y-20216500D03*
D39*
X-6858000Y24130000D03*
D53*
X6624000Y21844000D03*
X9124000Y21844000D03*
D56*
X-19556000Y-53340000D03*
X-16256000Y-53340000D03*
D39*
X-1397000Y-36017200D03*
D25*
X-4064000Y13904000D03*
X-4064000Y12004000D03*
D27*
X14793000Y-53086000D03*
X12893000Y-53086000D03*
D18*
X12422500Y20701000D03*
X14247500Y20701000D03*
D20*
X-16002000Y-39829100D03*
X-16002000Y-41654100D03*
D18*
X19788500Y29972000D03*
X21613500Y29972000D03*
D25*
X12954000Y13970000D03*
X12954000Y12070000D03*
D18*
X-9040500Y-24384000D03*
X-7215500Y-24384000D03*
D25*
X1778000Y25588000D03*
X1778000Y23688000D03*
D36*
X26670000Y21590000D03*
D34*
X-12872000Y-15550000D03*
X-12222000Y-15550000D03*
X-11572000Y-15550000D03*
X-10922000Y-15550000D03*
X-10272000Y-15550000D03*
X-9622000Y-15550000D03*
X-8972000Y-15550000D03*
X-8972000Y-9850000D03*
X-9622000Y-9850000D03*
X-10272000Y-9850000D03*
X-10922000Y-9850000D03*
X-11572000Y-9850000D03*
X-12222000Y-9850000D03*
X-12872000Y-9850000D03*
D35*
X-10922000Y-12700000D03*
D20*
X6858000Y19962500D03*
X6858000Y18137500D03*
D57*
X-33655000Y-27136000D03*
X-33665000Y-34036000D03*
D58*
X-3511000Y-59916000D03*
X-7411000Y-58166000D03*
X-3511000Y-56416000D03*
D24*
X29022000Y-45593000D03*
X30922000Y-45593000D03*
D18*
X17780000Y-57150000D03*
X19605000Y-57150000D03*
D39*
X-1371600Y-39420800D03*
D18*
X17756500Y-51054000D03*
X19581500Y-51054000D03*
D33*
X-207000Y23876000D03*
X-2032000Y23876000D03*
D18*
X-2182500Y29718000D03*
X-357500Y29718000D03*
X12422500Y28829000D03*
X14247500Y28829000D03*
D24*
X1273200Y-34584000D03*
X3173200Y-34584000D03*
D20*
X9144000Y-18391500D03*
X9144000Y-20216500D03*
D29*
X6858000Y-20258500D03*
X6858000Y-17333500D03*
D36*
X26670000Y-21590000D03*
D18*
X17756500Y-55118000D03*
X19581500Y-55118000D03*
D48*
X-6878000Y-22352000D03*
X-9378000Y-22352000D03*
D18*
X19788500Y27940000D03*
X21613500Y27940000D03*
D28*
X-34290000Y30988000D03*
X-34290000Y23368000D03*
X-31750000Y30988000D03*
X-31750000Y23368000D03*
X-29210000Y30988000D03*
X-29210000Y23368000D03*
X-26670000Y30988000D03*
X-26670000Y23368000D03*
D24*
X15473600Y-39268400D03*
X17373600Y-39268400D03*
D59*
X-6477000Y-29972000D03*
X-5461000Y-35052000D03*
X-7493000Y-35052000D03*
D60*
X-7112000Y-31242000D03*
X-5842000Y-31242000D03*
X-7112000Y-32512000D03*
X-5842000Y-32512000D03*
X-7112000Y-33782000D03*
X-5842000Y-33782000D03*
D20*
X-5461000Y-52300500D03*
X-5461000Y-54125500D03*
D30*
X29474000Y-57277000D03*
X29474000Y-56627000D03*
X29474000Y-55977000D03*
X29474000Y-55327000D03*
X29474000Y-54677000D03*
X29474000Y-54027000D03*
X29474000Y-53377000D03*
X23749000Y-53377000D03*
X23749000Y-54027000D03*
X23749000Y-54677000D03*
X23749000Y-55327000D03*
X23749000Y-55977000D03*
X23749000Y-56627000D03*
X23749000Y-57277000D03*
D21*
X-7112000Y-20216500D03*
X-7112000Y-18391500D03*
%LPD*%
M02*
