G04 #@! TF.GenerationSoftware,KiCad,Pcbnew,7.0.6*
G04 #@! TF.CreationDate,2023-09-04T22:35:05-04:00*
G04 #@! TF.ProjectId,DingoPDM,44696e67-6f50-4444-9d2e-6b696361645f,v3*
G04 #@! TF.SameCoordinates,Original*
G04 #@! TF.FileFunction,Soldermask,Bot*
G04 #@! TF.FilePolarity,Negative*
%FSLAX46Y46*%
G04 Gerber Fmt 4.6, Leading zero omitted, Abs format (unit mm)*
G04 Created by KiCad (PCBNEW 7.0.6) date 2023-09-04 22:35:05*
%MOMM*%
%LPD*%
G01*
G04 APERTURE LIST*
%ADD10C,1.875000*%
%ADD11C,6.000000*%
%ADD12C,2.000000*%
%ADD13R,2.655000X2.655000*%
%ADD14C,2.655000*%
%ADD15C,0.700000*%
%ADD16O,0.900000X2.400000*%
%ADD17O,0.900000X1.700000*%
%ADD18C,0.990600*%
G04 APERTURE END LIST*
D10*
X-28448000Y-23368000D03*
X-28448000Y-30988000D03*
X-25908000Y-23368000D03*
X-25908000Y-30988000D03*
X-23368000Y-23368000D03*
X-23368000Y-30988000D03*
X-20828000Y-23368000D03*
X-20828000Y-30988000D03*
D11*
X-33020000Y-21590000D03*
X-21082000Y21590000D03*
D12*
X-34163000Y15621000D03*
D13*
X-11110000Y4560000D03*
D14*
X-6670000Y4560000D03*
X-2220000Y4560000D03*
X2220000Y4560000D03*
X6670000Y4560000D03*
X11110000Y4560000D03*
X11110000Y-4560000D03*
X6670000Y-4560000D03*
X2220000Y-4560000D03*
X-2220000Y-4560000D03*
X-6670000Y-4560000D03*
X-11110000Y-4560000D03*
D15*
X-17097400Y-55741200D03*
X-16247400Y-55741200D03*
X-15397400Y-55741200D03*
X-14547400Y-55741200D03*
X-13697400Y-55741200D03*
X-12847400Y-55741200D03*
X-11997400Y-55741200D03*
X-11147400Y-55741200D03*
X-11147400Y-57091200D03*
X-11997400Y-57091200D03*
X-12847400Y-57091200D03*
X-13697400Y-57091200D03*
X-14547400Y-57091200D03*
X-15397400Y-57091200D03*
X-16247400Y-57091200D03*
X-17097400Y-57091200D03*
D16*
X-18447400Y-56721200D03*
D17*
X-18447400Y-60101200D03*
D16*
X-9797400Y-56721200D03*
D17*
X-9797400Y-60101200D03*
D12*
X-685800Y-54889400D03*
X-34137600Y-16408400D03*
X-34163000Y-10922000D03*
X-11684000Y24130000D03*
X-6858000Y24130000D03*
X-1397000Y-36017200D03*
D11*
X26670000Y21590000D03*
D12*
X-1371600Y-39420800D03*
D11*
X26670000Y-21590000D03*
D10*
X-34290000Y30988000D03*
X-34290000Y23368000D03*
X-31750000Y30988000D03*
X-31750000Y23368000D03*
X-29210000Y30988000D03*
X-29210000Y23368000D03*
X-26670000Y30988000D03*
X-26670000Y23368000D03*
D18*
X-6477000Y-29972000D03*
X-5461000Y-35052000D03*
X-7493000Y-35052000D03*
G36*
X-8997761Y-11398885D02*
G01*
X-8952006Y-11451689D01*
X-8940800Y-11503200D01*
X-8940800Y-13896800D01*
X-8960485Y-13963839D01*
X-9013289Y-14009594D01*
X-9064800Y-14020800D01*
X-12779200Y-14020800D01*
X-12846239Y-14001115D01*
X-12891994Y-13948311D01*
X-12903200Y-13896800D01*
X-12903200Y-11503200D01*
X-12883515Y-11436161D01*
X-12830711Y-11390406D01*
X-12779200Y-11379200D01*
X-9064800Y-11379200D01*
X-8997761Y-11398885D01*
G37*
G36*
X13074839Y-11398885D02*
G01*
X13120594Y-11451689D01*
X13131800Y-11503200D01*
X13131800Y-13896800D01*
X13112115Y-13963839D01*
X13059311Y-14009594D01*
X13007800Y-14020800D01*
X9293400Y-14020800D01*
X9226361Y-14001115D01*
X9180606Y-13948311D01*
X9169400Y-13896800D01*
X9169400Y-11503200D01*
X9189085Y-11436161D01*
X9241889Y-11390406D01*
X9293400Y-11379200D01*
X13007800Y-11379200D01*
X13074839Y-11398885D01*
G37*
G36*
X1924239Y13950315D02*
G01*
X1969994Y13897511D01*
X1981200Y13846000D01*
X1981200Y11452400D01*
X1961515Y11385361D01*
X1908711Y11339606D01*
X1857200Y11328400D01*
X-1857200Y11328400D01*
X-1924239Y11348085D01*
X-1969994Y11400889D01*
X-1981200Y11452400D01*
X-1981200Y13846000D01*
X-1961515Y13913039D01*
X-1908711Y13958794D01*
X-1857200Y13970000D01*
X1857200Y13970000D01*
X1924239Y13950315D01*
G37*
G36*
X10865039Y13848715D02*
G01*
X10910794Y13795911D01*
X10922000Y13744400D01*
X10922000Y11350800D01*
X10902315Y11283761D01*
X10849511Y11238006D01*
X10798000Y11226800D01*
X7083600Y11226800D01*
X7016561Y11246485D01*
X6970806Y11299289D01*
X6959600Y11350800D01*
X6959600Y13744400D01*
X6979285Y13811439D01*
X7032089Y13857194D01*
X7083600Y13868400D01*
X10798000Y13868400D01*
X10865039Y13848715D01*
G37*
G36*
X2000439Y-11398885D02*
G01*
X2046194Y-11451689D01*
X2057400Y-11503200D01*
X2057400Y-13896800D01*
X2037715Y-13963839D01*
X1984911Y-14009594D01*
X1933400Y-14020800D01*
X-1781000Y-14020800D01*
X-1848039Y-14001115D01*
X-1893794Y-13948311D01*
X-1905000Y-13896800D01*
X-1905000Y-11503200D01*
X-1885315Y-11436161D01*
X-1832511Y-11390406D01*
X-1781000Y-11379200D01*
X1933400Y-11379200D01*
X2000439Y-11398885D01*
G37*
M02*
