G04 #@! TF.GenerationSoftware,KiCad,Pcbnew,7.0.6*
G04 #@! TF.CreationDate,2023-09-04T22:35:04-04:00*
G04 #@! TF.ProjectId,DingoPDM,44696e67-6f50-4444-9d2e-6b696361645f,v3*
G04 #@! TF.SameCoordinates,Original*
G04 #@! TF.FileFunction,Paste,Top*
G04 #@! TF.FilePolarity,Positive*
%FSLAX46Y46*%
G04 Gerber Fmt 4.6, Leading zero omitted, Abs format (unit mm)*
G04 Created by KiCad (PCBNEW 7.0.6) date 2023-09-04 22:35:04*
%MOMM*%
%LPD*%
G01*
G04 APERTURE LIST*
G04 Aperture macros list*
%AMRoundRect*
0 Rectangle with rounded corners*
0 $1 Rounding radius*
0 $2 $3 $4 $5 $6 $7 $8 $9 X,Y pos of 4 corners*
0 Add a 4 corners polygon primitive as box body*
4,1,4,$2,$3,$4,$5,$6,$7,$8,$9,$2,$3,0*
0 Add four circle primitives for the rounded corners*
1,1,$1+$1,$2,$3*
1,1,$1+$1,$4,$5*
1,1,$1+$1,$6,$7*
1,1,$1+$1,$8,$9*
0 Add four rect primitives between the rounded corners*
20,1,$1+$1,$2,$3,$4,$5,0*
20,1,$1+$1,$4,$5,$6,$7,0*
20,1,$1+$1,$6,$7,$8,$9,0*
20,1,$1+$1,$8,$9,$2,$3,0*%
G04 Aperture macros list end*
%ADD10C,0.010000*%
%ADD11RoundRect,0.250000X-0.262500X-0.450000X0.262500X-0.450000X0.262500X0.450000X-0.262500X0.450000X0*%
%ADD12RoundRect,0.243750X0.243750X0.456250X-0.243750X0.456250X-0.243750X-0.456250X0.243750X-0.456250X0*%
%ADD13RoundRect,0.250000X-0.450000X0.262500X-0.450000X-0.262500X0.450000X-0.262500X0.450000X0.262500X0*%
%ADD14RoundRect,0.250000X0.450000X-0.262500X0.450000X0.262500X-0.450000X0.262500X-0.450000X-0.262500X0*%
%ADD15RoundRect,0.150000X-0.825000X-0.150000X0.825000X-0.150000X0.825000X0.150000X-0.825000X0.150000X0*%
%ADD16R,2.400000X2.400000*%
%ADD17RoundRect,0.250000X-0.250000X-0.475000X0.250000X-0.475000X0.250000X0.475000X-0.250000X0.475000X0*%
%ADD18RoundRect,0.250000X-0.475000X0.250000X-0.475000X-0.250000X0.475000X-0.250000X0.475000X0.250000X0*%
%ADD19RoundRect,0.250000X0.475000X-0.250000X0.475000X0.250000X-0.475000X0.250000X-0.475000X-0.250000X0*%
%ADD20RoundRect,0.250000X0.250000X0.475000X-0.250000X0.475000X-0.250000X-0.475000X0.250000X-0.475000X0*%
%ADD21RoundRect,0.250000X0.625000X-0.312500X0.625000X0.312500X-0.625000X0.312500X-0.625000X-0.312500X0*%
%ADD22RoundRect,0.100000X0.637500X0.100000X-0.637500X0.100000X-0.637500X-0.100000X0.637500X-0.100000X0*%
%ADD23RoundRect,0.100000X0.712500X0.100000X-0.712500X0.100000X-0.712500X-0.100000X0.712500X-0.100000X0*%
%ADD24R,1.000000X1.000000*%
%ADD25RoundRect,0.250000X0.262500X0.450000X-0.262500X0.450000X-0.262500X-0.450000X0.262500X-0.450000X0*%
%ADD26R,0.450000X1.310000*%
%ADD27RoundRect,0.075000X0.075000X-0.700000X0.075000X0.700000X-0.075000X0.700000X-0.075000X-0.700000X0*%
%ADD28RoundRect,0.075000X0.700000X-0.075000X0.700000X0.075000X-0.700000X0.075000X-0.700000X-0.075000X0*%
%ADD29R,2.500000X2.500000*%
%ADD30RoundRect,0.150000X-0.150000X0.825000X-0.150000X-0.825000X0.150000X-0.825000X0.150000X0.825000X0*%
%ADD31RoundRect,0.243750X-0.456250X0.243750X-0.456250X-0.243750X0.456250X-0.243750X0.456250X0.243750X0*%
%ADD32R,0.600000X1.300000*%
%ADD33RoundRect,0.150000X0.587500X0.150000X-0.587500X0.150000X-0.587500X-0.150000X0.587500X-0.150000X0*%
%ADD34R,2.500000X1.700000*%
%ADD35RoundRect,0.250000X0.250000X0.250000X-0.250000X0.250000X-0.250000X-0.250000X0.250000X-0.250000X0*%
%ADD36RoundRect,0.250000X-0.625000X0.312500X-0.625000X-0.312500X0.625000X-0.312500X0.625000X0.312500X0*%
%ADD37RoundRect,0.250000X-0.250000X-0.250000X0.250000X-0.250000X0.250000X0.250000X-0.250000X0.250000X0*%
%ADD38R,1.500000X2.200000*%
%ADD39R,3.800000X2.200000*%
%ADD40RoundRect,0.225000X-0.225000X-0.375000X0.225000X-0.375000X0.225000X0.375000X-0.225000X0.375000X0*%
%ADD41R,3.300000X2.500000*%
%ADD42R,1.300000X1.000000*%
G04 APERTURE END LIST*
D10*
X10994800Y-14025000D02*
X9144800Y-14025000D01*
X9144800Y-11375000D01*
X10994800Y-11375000D01*
X10994800Y-14025000D01*
G36*
X10994800Y-14025000D02*
G01*
X9144800Y-14025000D01*
X9144800Y-11375000D01*
X10994800Y-11375000D01*
X10994800Y-14025000D01*
G37*
X13144800Y-14025000D02*
X11294800Y-14025000D01*
X11294800Y-11375000D01*
X13144800Y-11375000D01*
X13144800Y-14025000D01*
G36*
X13144800Y-14025000D02*
G01*
X11294800Y-14025000D01*
X11294800Y-11375000D01*
X13144800Y-11375000D01*
X13144800Y-14025000D01*
G37*
X-68000Y-14025000D02*
X-1918000Y-14025000D01*
X-1918000Y-11375000D01*
X-68000Y-11375000D01*
X-68000Y-14025000D01*
G36*
X-68000Y-14025000D02*
G01*
X-1918000Y-14025000D01*
X-1918000Y-11375000D01*
X-68000Y-11375000D01*
X-68000Y-14025000D01*
G37*
X2082000Y-14025000D02*
X232000Y-14025000D01*
X232000Y-11375000D01*
X2082000Y-11375000D01*
X2082000Y-14025000D01*
G36*
X2082000Y-14025000D02*
G01*
X232000Y-14025000D01*
X232000Y-11375000D01*
X2082000Y-11375000D01*
X2082000Y-14025000D01*
G37*
X10960400Y11227800D02*
X9110400Y11227800D01*
X9110400Y13877800D01*
X10960400Y13877800D01*
X10960400Y11227800D01*
G36*
X10960400Y11227800D02*
G01*
X9110400Y11227800D01*
X9110400Y13877800D01*
X10960400Y13877800D01*
X10960400Y11227800D01*
G37*
X8810400Y11227800D02*
X6960400Y11227800D01*
X6960400Y13877800D01*
X8810400Y13877800D01*
X8810400Y11227800D01*
G36*
X8810400Y11227800D02*
G01*
X6960400Y11227800D01*
X6960400Y13877800D01*
X8810400Y13877800D01*
X8810400Y11227800D01*
G37*
X2010400Y11329400D02*
X160400Y11329400D01*
X160400Y13979400D01*
X2010400Y13979400D01*
X2010400Y11329400D01*
G36*
X2010400Y11329400D02*
G01*
X160400Y11329400D01*
X160400Y13979400D01*
X2010400Y13979400D01*
X2010400Y11329400D01*
G37*
X-139600Y11329400D02*
X-1989600Y11329400D01*
X-1989600Y13979400D01*
X-139600Y13979400D01*
X-139600Y11329400D01*
G36*
X-139600Y11329400D02*
G01*
X-1989600Y11329400D01*
X-1989600Y13979400D01*
X-139600Y13979400D01*
X-139600Y11329400D01*
G37*
X-11072000Y-14025000D02*
X-12922000Y-14025000D01*
X-12922000Y-11375000D01*
X-11072000Y-11375000D01*
X-11072000Y-14025000D01*
G36*
X-11072000Y-14025000D02*
G01*
X-12922000Y-14025000D01*
X-12922000Y-11375000D01*
X-11072000Y-11375000D01*
X-11072000Y-14025000D01*
G37*
X-8922000Y-14025000D02*
X-10772000Y-14025000D01*
X-10772000Y-11375000D01*
X-8922000Y-11375000D01*
X-8922000Y-14025000D01*
G36*
X-8922000Y-14025000D02*
G01*
X-10772000Y-14025000D01*
X-10772000Y-11375000D01*
X-8922000Y-11375000D01*
X-8922000Y-14025000D01*
G37*
D11*
X13866500Y-59436000D03*
X12041500Y-59436000D03*
X16105500Y-60452000D03*
X17930500Y-60452000D03*
D12*
X22527500Y-59182000D03*
X20652500Y-59182000D03*
X33195500Y-60452000D03*
X31320500Y-60452000D03*
D13*
X11176000Y-18391500D03*
X11176000Y-20216500D03*
D14*
X15240000Y-20216500D03*
X15240000Y-18391500D03*
D15*
X-15872000Y-28956000D03*
X-15872000Y-30226000D03*
X-15872000Y-31496000D03*
X-15872000Y-32766000D03*
X-10922000Y-32766000D03*
X-10922000Y-31496000D03*
X-10922000Y-30226000D03*
X-10922000Y-28956000D03*
D16*
X3792000Y-55854600D03*
X7892000Y-55854600D03*
D17*
X-23810000Y-9144000D03*
X-21910000Y-9144000D03*
D18*
X-11684000Y-22418000D03*
X-11684000Y-24318000D03*
D19*
X-4064000Y-14158000D03*
X-4064000Y-12258000D03*
D20*
X2474000Y-26416000D03*
X574000Y-26416000D03*
X23810000Y-9144000D03*
X21910000Y-9144000D03*
D18*
X11176000Y-22352000D03*
X11176000Y-24252000D03*
D17*
X-16698000Y-15240000D03*
X-14798000Y-15240000D03*
D20*
X18222000Y-31811000D03*
X16322000Y-31811000D03*
D14*
X4064000Y-20216500D03*
X4064000Y-18391500D03*
D13*
X5080000Y-21947500D03*
X5080000Y-23772500D03*
X0Y-18391500D03*
X0Y-20216500D03*
D21*
X-4572000Y-20320000D03*
X-4572000Y-17395000D03*
D14*
X2032000Y-20216500D03*
X2032000Y-18391500D03*
D11*
X611500Y-24384000D03*
X2436500Y-24384000D03*
X17883500Y-25781000D03*
X19708500Y-25781000D03*
D22*
X32707500Y-51480000D03*
X32707500Y-50830000D03*
X32707500Y-50180000D03*
X32707500Y-49530000D03*
X32707500Y-48880000D03*
X32707500Y-48230000D03*
X32707500Y-47580000D03*
X26982500Y-47580000D03*
X26982500Y-48230000D03*
X26982500Y-48880000D03*
X26982500Y-49530000D03*
X26982500Y-50180000D03*
X26982500Y-50830000D03*
X26982500Y-51480000D03*
D17*
X13985200Y-37084000D03*
X15885200Y-37084000D03*
D23*
X-21050000Y-17358000D03*
X-21050000Y-16708000D03*
X-21050000Y-16058000D03*
X-21050000Y-15408000D03*
X-25275000Y-15408000D03*
X-25275000Y-16058000D03*
X-25275000Y-16708000D03*
X-25275000Y-17358000D03*
D20*
X24572000Y-44450000D03*
X22672000Y-44450000D03*
D24*
X24618000Y-46609000D03*
X22118000Y-46609000D03*
D13*
X28829000Y-40616500D03*
X28829000Y-42441500D03*
D25*
X26947500Y-42291000D03*
X25122500Y-42291000D03*
D19*
X-6604000Y-14158000D03*
X-6604000Y-12258000D03*
X4064000Y-14158000D03*
X4064000Y-12258000D03*
D26*
X9194800Y-15550000D03*
X9844800Y-15550000D03*
X10494800Y-15550000D03*
X11144800Y-15550000D03*
X11794800Y-15550000D03*
X12444800Y-15550000D03*
X13094800Y-15550000D03*
X13094800Y-9850000D03*
X12444800Y-9850000D03*
X11794800Y-9850000D03*
X11144800Y-9850000D03*
X10494800Y-9850000D03*
X9844800Y-9850000D03*
X9194800Y-9850000D03*
D19*
X6604000Y-14158000D03*
X6604000Y-12258000D03*
D20*
X17206000Y-15240000D03*
X15306000Y-15240000D03*
D13*
X-9144000Y-18391500D03*
X-9144000Y-20216500D03*
D25*
X14732000Y-51054000D03*
X12907000Y-51054000D03*
D19*
X-12700000Y15052000D03*
X-12700000Y16952000D03*
D14*
X24384000Y-32723500D03*
X24384000Y-30898500D03*
D27*
X3628000Y-48361600D03*
X4128000Y-48361600D03*
X4628000Y-48361600D03*
X5128000Y-48361600D03*
X5628000Y-48361600D03*
X6128000Y-48361600D03*
X6628000Y-48361600D03*
X7128000Y-48361600D03*
X7628000Y-48361600D03*
X8128000Y-48361600D03*
X8628000Y-48361600D03*
X9128000Y-48361600D03*
X9628000Y-48361600D03*
X10128000Y-48361600D03*
X10628000Y-48361600D03*
X11128000Y-48361600D03*
D28*
X13053000Y-46436600D03*
X13053000Y-45936600D03*
X13053000Y-45436600D03*
X13053000Y-44936600D03*
X13053000Y-44436600D03*
X13053000Y-43936600D03*
X13053000Y-43436600D03*
X13053000Y-42936600D03*
X13053000Y-42436600D03*
X13053000Y-41936600D03*
X13053000Y-41436600D03*
X13053000Y-40936600D03*
X13053000Y-40436600D03*
X13053000Y-39936600D03*
X13053000Y-39436600D03*
X13053000Y-38936600D03*
D27*
X11128000Y-37011600D03*
X10628000Y-37011600D03*
X10128000Y-37011600D03*
X9628000Y-37011600D03*
X9128000Y-37011600D03*
X8628000Y-37011600D03*
X8128000Y-37011600D03*
X7628000Y-37011600D03*
X7128000Y-37011600D03*
X6628000Y-37011600D03*
X6128000Y-37011600D03*
X5628000Y-37011600D03*
X5128000Y-37011600D03*
X4628000Y-37011600D03*
X4128000Y-37011600D03*
X3628000Y-37011600D03*
D28*
X1703000Y-38936600D03*
X1703000Y-39436600D03*
X1703000Y-39936600D03*
X1703000Y-40436600D03*
X1703000Y-40936600D03*
X1703000Y-41436600D03*
X1703000Y-41936600D03*
X1703000Y-42436600D03*
X1703000Y-42936600D03*
X1703000Y-43436600D03*
X1703000Y-43936600D03*
X1703000Y-44436600D03*
X1703000Y-44936600D03*
X1703000Y-45436600D03*
X1703000Y-45936600D03*
X1703000Y-46436600D03*
D26*
X-1868000Y-15550000D03*
X-1218000Y-15550000D03*
X-568000Y-15550000D03*
X82000Y-15550000D03*
X732000Y-15550000D03*
X1382000Y-15550000D03*
X2032000Y-15550000D03*
X2032000Y-9850000D03*
X1382000Y-9850000D03*
X732000Y-9850000D03*
X82000Y-9850000D03*
X-568000Y-9850000D03*
X-1218000Y-9850000D03*
X-1868000Y-9850000D03*
D18*
X18034000Y-27813000D03*
X18034000Y-29713000D03*
D11*
X13819500Y-24384000D03*
X15644500Y-24384000D03*
D20*
X14793000Y-55245000D03*
X12893000Y-55245000D03*
D29*
X-18765000Y-37299000D03*
X-18765000Y-48299000D03*
X-30765000Y-48299000D03*
X-30765000Y-37299000D03*
D30*
X-6908800Y20777200D03*
X-8178800Y20777200D03*
X-9448800Y20777200D03*
X-10718800Y20777200D03*
X-10718800Y15827200D03*
X-9448800Y15827200D03*
X-8178800Y15827200D03*
X-6908800Y15827200D03*
D13*
X-11176000Y-18391500D03*
X-11176000Y-20216500D03*
D17*
X-28763000Y-34036000D03*
X-26863000Y-34036000D03*
D20*
X-21849000Y-34036000D03*
X-23749000Y-34036000D03*
D19*
X-32766000Y-43876000D03*
X-32766000Y-41976000D03*
X-16002000Y-48067000D03*
X-16002000Y-46167000D03*
D20*
X-10607000Y-38354000D03*
X-12507000Y-38354000D03*
X4963200Y-59207400D03*
X3063200Y-59207400D03*
D17*
X6771600Y-59207400D03*
X8671600Y-59207400D03*
D31*
X-16002000Y-36146500D03*
X-16002000Y-38021500D03*
D32*
X-7924800Y12271200D03*
X-9824800Y12271200D03*
X-8874800Y10171200D03*
D12*
X-22557500Y-19685000D03*
X-24432500Y-19685000D03*
D33*
X22171900Y-33523000D03*
X22171900Y-31623000D03*
X20296900Y-32573000D03*
X22148800Y-29779000D03*
X22148800Y-27879000D03*
X20273800Y-28829000D03*
D25*
X-14454500Y-22606000D03*
X-16279500Y-22606000D03*
X-14454500Y-24765000D03*
X-16279500Y-24765000D03*
X-26392500Y-19685000D03*
X-28217500Y-19685000D03*
D20*
X1105600Y-48096800D03*
X-794400Y-48096800D03*
D13*
X-2032000Y-18391500D03*
X-2032000Y-20216500D03*
X-3048000Y-21947500D03*
X-3048000Y-23772500D03*
D14*
X0Y18137500D03*
X0Y19962500D03*
D18*
X15240000Y16698000D03*
X15240000Y14798000D03*
D34*
X-25368000Y-6096000D03*
X-21368000Y-6096000D03*
D35*
X15474000Y-22352000D03*
X12974000Y-22352000D03*
D20*
X1090400Y-50230400D03*
X-809600Y-50230400D03*
D26*
X10910400Y15402800D03*
X10260400Y15402800D03*
X9610400Y15402800D03*
X8960400Y15402800D03*
X8310400Y15402800D03*
X7660400Y15402800D03*
X7010400Y15402800D03*
X7010400Y9702800D03*
X7660400Y9702800D03*
X8310400Y9702800D03*
X8960400Y9702800D03*
X9610400Y9702800D03*
X10260400Y9702800D03*
X10910400Y9702800D03*
D35*
X2266000Y-22352000D03*
X-234000Y-22352000D03*
D11*
X15292700Y22707600D03*
X17117700Y22707600D03*
D17*
X16637000Y-46228000D03*
X18537000Y-46228000D03*
D13*
X13208000Y-18391500D03*
X13208000Y-20216500D03*
D25*
X8636000Y23876000D03*
X6811000Y23876000D03*
D13*
X-12700000Y20470500D03*
X-12700000Y18645500D03*
D26*
X1960400Y15504400D03*
X1310400Y15504400D03*
X660400Y15504400D03*
X10400Y15504400D03*
X-639600Y15504400D03*
X-1289600Y15504400D03*
X-1939600Y15504400D03*
X-1939600Y9804400D03*
X-1289600Y9804400D03*
X-639600Y9804400D03*
X10400Y9804400D03*
X660400Y9804400D03*
X1310400Y9804400D03*
X1960400Y9804400D03*
D14*
X8890000Y18137500D03*
X8890000Y19962500D03*
D36*
X12954000Y18734500D03*
X12954000Y15809500D03*
D14*
X-7620000Y-54102000D03*
X-7620000Y-52277000D03*
D11*
X17756500Y-49022000D03*
X19581500Y-49022000D03*
D25*
X-357500Y27559000D03*
X-2182500Y27559000D03*
D17*
X25466000Y-59182000D03*
X27366000Y-59182000D03*
D20*
X-13208000Y-26924000D03*
X-15108000Y-26924000D03*
D18*
X10541000Y25588000D03*
X10541000Y23688000D03*
D19*
X-27734500Y-17841000D03*
X-27734500Y-15941000D03*
D37*
X-2266000Y21844000D03*
X234000Y21844000D03*
D36*
X4064000Y18673000D03*
X4064000Y15748000D03*
D34*
X24860000Y-6096000D03*
X20860000Y-6096000D03*
D13*
X-2032000Y19962500D03*
X-2032000Y18137500D03*
D14*
X-2794000Y-50010700D03*
X-2794000Y-48185700D03*
D25*
X14247500Y26797000D03*
X12422500Y26797000D03*
D11*
X17756500Y-53086000D03*
X19581500Y-53086000D03*
D18*
X4064000Y13904000D03*
X4064000Y12004000D03*
D38*
X-13638600Y-47244000D03*
X-11338600Y-47244000D03*
X-9038600Y-47244000D03*
D39*
X-11338600Y-40944000D03*
D21*
X-15748000Y-20258500D03*
X-15748000Y-17333500D03*
D13*
X-13208000Y-18391500D03*
X-13208000Y-20216500D03*
D37*
X6624000Y21844000D03*
X9124000Y21844000D03*
D40*
X-19556000Y-53340000D03*
X-16256000Y-53340000D03*
D18*
X-4064000Y13904000D03*
X-4064000Y12004000D03*
D20*
X14793000Y-53086000D03*
X12893000Y-53086000D03*
D11*
X12422500Y20701000D03*
X14247500Y20701000D03*
D13*
X-16002000Y-39829100D03*
X-16002000Y-41654100D03*
D11*
X19788500Y29972000D03*
X21613500Y29972000D03*
D18*
X12954000Y13970000D03*
X12954000Y12070000D03*
D11*
X-9040500Y-24384000D03*
X-7215500Y-24384000D03*
D18*
X1778000Y25588000D03*
X1778000Y23688000D03*
D26*
X-12872000Y-15550000D03*
X-12222000Y-15550000D03*
X-11572000Y-15550000D03*
X-10922000Y-15550000D03*
X-10272000Y-15550000D03*
X-9622000Y-15550000D03*
X-8972000Y-15550000D03*
X-8972000Y-9850000D03*
X-9622000Y-9850000D03*
X-10272000Y-9850000D03*
X-10922000Y-9850000D03*
X-11572000Y-9850000D03*
X-12222000Y-9850000D03*
X-12872000Y-9850000D03*
D13*
X6858000Y19962500D03*
X6858000Y18137500D03*
D41*
X-33655000Y-27136000D03*
X-33665000Y-34036000D03*
D42*
X-3511000Y-59916000D03*
X-7411000Y-58166000D03*
X-3511000Y-56416000D03*
D17*
X29022000Y-45593000D03*
X30922000Y-45593000D03*
D11*
X17780000Y-57150000D03*
X19605000Y-57150000D03*
X17756500Y-51054000D03*
X19581500Y-51054000D03*
D25*
X-207000Y23876000D03*
X-2032000Y23876000D03*
D11*
X-2182500Y29718000D03*
X-357500Y29718000D03*
X12422500Y28829000D03*
X14247500Y28829000D03*
D17*
X1273200Y-34584000D03*
X3173200Y-34584000D03*
D13*
X9144000Y-18391500D03*
X9144000Y-20216500D03*
D21*
X6858000Y-20258500D03*
X6858000Y-17333500D03*
D11*
X17756500Y-55118000D03*
X19581500Y-55118000D03*
D35*
X-6878000Y-22352000D03*
X-9378000Y-22352000D03*
D11*
X19788500Y27940000D03*
X21613500Y27940000D03*
D17*
X15473600Y-39268400D03*
X17373600Y-39268400D03*
D13*
X-5461000Y-52300500D03*
X-5461000Y-54125500D03*
D22*
X29474000Y-57277000D03*
X29474000Y-56627000D03*
X29474000Y-55977000D03*
X29474000Y-55327000D03*
X29474000Y-54677000D03*
X29474000Y-54027000D03*
X29474000Y-53377000D03*
X23749000Y-53377000D03*
X23749000Y-54027000D03*
X23749000Y-54677000D03*
X23749000Y-55327000D03*
X23749000Y-55977000D03*
X23749000Y-56627000D03*
X23749000Y-57277000D03*
D14*
X-7112000Y-20216500D03*
X-7112000Y-18391500D03*
M02*
