G04 #@! TF.GenerationSoftware,KiCad,Pcbnew,7.0.6*
G04 #@! TF.CreationDate,2023-09-04T22:35:04-04:00*
G04 #@! TF.ProjectId,DingoPDM,44696e67-6f50-4444-9d2e-6b696361645f,v3*
G04 #@! TF.SameCoordinates,Original*
G04 #@! TF.FileFunction,Copper,L3,Inr*
G04 #@! TF.FilePolarity,Positive*
%FSLAX46Y46*%
G04 Gerber Fmt 4.6, Leading zero omitted, Abs format (unit mm)*
G04 Created by KiCad (PCBNEW 7.0.6) date 2023-09-04 22:35:04*
%MOMM*%
%LPD*%
G01*
G04 APERTURE LIST*
G04 #@! TA.AperFunction,ComponentPad*
%ADD10C,1.875000*%
G04 #@! TD*
G04 #@! TA.AperFunction,ComponentPad*
%ADD11C,6.000000*%
G04 #@! TD*
G04 #@! TA.AperFunction,ComponentPad*
%ADD12C,2.000000*%
G04 #@! TD*
G04 #@! TA.AperFunction,ComponentPad*
%ADD13R,2.655000X2.655000*%
G04 #@! TD*
G04 #@! TA.AperFunction,ComponentPad*
%ADD14C,2.655000*%
G04 #@! TD*
G04 #@! TA.AperFunction,ComponentPad*
%ADD15C,0.700000*%
G04 #@! TD*
G04 #@! TA.AperFunction,ComponentPad*
%ADD16O,0.900000X2.400000*%
G04 #@! TD*
G04 #@! TA.AperFunction,ComponentPad*
%ADD17O,0.900000X1.700000*%
G04 #@! TD*
G04 #@! TA.AperFunction,ViaPad*
%ADD18C,0.800000*%
G04 #@! TD*
G04 #@! TA.AperFunction,Conductor*
%ADD19C,0.203200*%
G04 #@! TD*
G04 APERTURE END LIST*
D10*
X-28448000Y-23368000D03*
X-28448000Y-30988000D03*
X-25908000Y-23368000D03*
X-25908000Y-30988000D03*
X-23368000Y-23368000D03*
X-23368000Y-30988000D03*
X-20828000Y-23368000D03*
X-20828000Y-30988000D03*
D11*
X-33020000Y-21590000D03*
X-21082000Y21590000D03*
D12*
X-34163000Y15621000D03*
D13*
X-11110000Y4560000D03*
D14*
X-6670000Y4560000D03*
X-2220000Y4560000D03*
X2220000Y4560000D03*
X6670000Y4560000D03*
X11110000Y4560000D03*
X11110000Y-4560000D03*
X6670000Y-4560000D03*
X2220000Y-4560000D03*
X-2220000Y-4560000D03*
X-6670000Y-4560000D03*
X-11110000Y-4560000D03*
D15*
X-17097400Y-55741200D03*
X-16247400Y-55741200D03*
X-15397400Y-55741200D03*
X-14547400Y-55741200D03*
X-13697400Y-55741200D03*
X-12847400Y-55741200D03*
X-11997400Y-55741200D03*
X-11147400Y-55741200D03*
X-11147400Y-57091200D03*
X-11997400Y-57091200D03*
X-12847400Y-57091200D03*
X-13697400Y-57091200D03*
X-14547400Y-57091200D03*
X-15397400Y-57091200D03*
X-16247400Y-57091200D03*
X-17097400Y-57091200D03*
D16*
X-18447400Y-56721200D03*
D17*
X-18447400Y-60101200D03*
D16*
X-9797400Y-56721200D03*
D17*
X-9797400Y-60101200D03*
D12*
X-685800Y-54889400D03*
X-34137600Y-16408400D03*
X-34163000Y-10922000D03*
X-11684000Y24130000D03*
X-6858000Y24130000D03*
X-1397000Y-36017200D03*
D11*
X26670000Y21590000D03*
D12*
X-1371600Y-39420800D03*
D11*
X26670000Y-21590000D03*
D10*
X-34290000Y30988000D03*
X-34290000Y23368000D03*
X-31750000Y30988000D03*
X-31750000Y23368000D03*
X-29210000Y30988000D03*
X-29210000Y23368000D03*
X-26670000Y30988000D03*
X-26670000Y23368000D03*
D18*
X29718000Y-51054000D03*
X25908000Y-56388000D03*
X14478000Y-60960000D03*
X11877600Y-57912000D03*
X8382000Y-52324000D03*
X9398000Y-51816000D03*
X6985000Y-51917600D03*
X20193000Y-46990000D03*
X9499600Y-24028402D03*
X-13360400Y-45110400D03*
X10033000Y-57632600D03*
X-34671000Y-32131000D03*
X-27432000Y-6604000D03*
X10414000Y21844000D03*
X3810000Y-60807600D03*
X-838200Y-51816000D03*
X-25527000Y-7874000D03*
X-19685000Y-46355000D03*
X-33528000Y-32131000D03*
X25781000Y-4445000D03*
X10033000Y-55600600D03*
X-3048000Y-29972000D03*
X-10464800Y-21437600D03*
X-20701000Y-47498000D03*
X-18542000Y-46355000D03*
X-33528000Y-35941000D03*
X26924000Y-6858000D03*
X4826000Y-50647600D03*
X2210607Y-36041793D03*
X1778000Y-57505600D03*
X6985000Y-53568600D03*
X26670000Y26162000D03*
X-31369000Y-34798000D03*
X10033000Y-53568600D03*
X-6482688Y-36318713D03*
X-27432000Y-5207000D03*
X6984193Y-50648407D03*
X-8915400Y8715200D03*
X1778000Y-53568600D03*
X13716000Y-56515000D03*
X-14478000Y-45110400D03*
X12953997Y17398997D03*
X-34671000Y-35941000D03*
X-20701000Y-48641000D03*
X1778000Y-60807600D03*
X4064000Y17272000D03*
X-32385000Y-32131000D03*
X24003000Y-4445000D03*
X-965200Y25704800D03*
X4826000Y-53568600D03*
X-4572000Y-18923000D03*
X-15748000Y-18796000D03*
X10033000Y-60807600D03*
X4826000Y-51917600D03*
X-1016000Y-24130000D03*
X5969000Y-60807600D03*
X8509000Y-53568600D03*
X6858000Y-18796000D03*
X15240000Y-35433000D03*
X26924000Y-5461000D03*
X-25527000Y-4318000D03*
X1778000Y-55600600D03*
X3302000Y-53568600D03*
X7874000Y-60807600D03*
X-27686000Y-14478000D03*
X31115000Y-54737000D03*
X13716000Y-25654000D03*
X22098000Y-56007000D03*
X-9093200Y-26009600D03*
X-710956Y-25649219D03*
X22315000Y-54864000D03*
X-1320800Y13563600D03*
X1346200Y13563600D03*
X508000Y-11811000D03*
X-11303000Y-11811000D03*
X-381000Y-11811000D03*
X1346200Y11785600D03*
X-9525000Y-11811000D03*
X9372600Y11658600D03*
X8483600Y13436600D03*
X8483600Y12547600D03*
X10261600Y12547600D03*
X9372600Y12547600D03*
X1397000Y-12700000D03*
X9372600Y13436600D03*
X-9525000Y-12700000D03*
X12446000Y-11811000D03*
X-431800Y12674600D03*
X-10414000Y-13589000D03*
X10668000Y-12700000D03*
X-12192000Y-11811000D03*
X9779000Y-13589000D03*
X10261600Y13436600D03*
X-1270000Y-11811000D03*
X7594600Y13436600D03*
X-10414000Y-11811000D03*
X-381000Y-13589000D03*
X-12192000Y-13589000D03*
X9779000Y-11811000D03*
X10668000Y-13589000D03*
X-11303000Y-13589000D03*
X1346200Y12674600D03*
X508000Y-13589000D03*
X10261600Y11658600D03*
X508000Y-12700000D03*
X457200Y12674600D03*
X-431800Y11785600D03*
X-1320800Y11785600D03*
X-431800Y13563600D03*
X8483600Y11658600D03*
X7594600Y11658600D03*
X12446000Y-13589000D03*
X-12192000Y-12700000D03*
X457200Y11785600D03*
X-1270000Y-12700000D03*
X-1270000Y-13589000D03*
X7594600Y12547600D03*
X11557000Y-11811000D03*
X12446000Y-12700000D03*
X1397000Y-13589000D03*
X-1320800Y12674600D03*
X-381000Y-12700000D03*
X-9525000Y-13589000D03*
X10668000Y-11811000D03*
X1397000Y-11811000D03*
X457200Y13563600D03*
X11557000Y-13589000D03*
X9779000Y-12700000D03*
X-11303000Y-12700000D03*
X-10414000Y-12700000D03*
X11557000Y-12700000D03*
X28829000Y-38608000D03*
X24384000Y-29591000D03*
X21463000Y-24638000D03*
X-938753Y-46189802D03*
X-938993Y-45185793D03*
X2844800Y10261600D03*
X1193800Y6959600D03*
X685800Y8483600D03*
X1574800Y8483600D03*
X2463800Y8483600D03*
X1143000Y1778000D03*
X2844800Y9372600D03*
X3048000Y1778000D03*
X3098800Y6959600D03*
X-2870200Y9372600D03*
X-1270000Y1778000D03*
X-2870200Y10261600D03*
X-711200Y8483600D03*
X-2997200Y6959600D03*
X-1219200Y6959600D03*
X-2489200Y8483600D03*
X-1600200Y8483600D03*
X-3048000Y1778000D03*
X21590000Y-4445000D03*
X13970000Y-9271000D03*
X12700000Y-8509000D03*
X19812000Y-8890000D03*
X13970000Y-10160000D03*
X11811000Y-8509000D03*
X18796000Y-5461000D03*
X16510000Y-8890000D03*
X19812000Y-4445000D03*
X18796000Y-6731000D03*
X10922000Y-8509000D03*
X19812000Y-1524000D03*
X16510000Y-3810000D03*
X10033000Y-8509000D03*
X9652000Y-6858000D03*
X9144000Y-8509000D03*
X13589000Y-8509000D03*
X11176000Y-1524000D03*
X11176000Y-6858000D03*
X12954000Y-6858000D03*
X-16510000Y-3810000D03*
X-12954000Y-6731000D03*
X-16510000Y-8890000D03*
X-19304000Y-5334000D03*
X-13462000Y-8382000D03*
X-12573000Y-8382000D03*
X-20320000Y-4445000D03*
X-11303000Y-6731000D03*
X-21844000Y-4445000D03*
X-13843000Y-9271000D03*
X-10922000Y-8382000D03*
X-19304000Y-6731000D03*
X-20320000Y-8890000D03*
X-11176000Y-1524000D03*
X-20320000Y-1524000D03*
X-9652000Y-6731000D03*
X-11811000Y-8382000D03*
X-10033000Y-8382000D03*
X-13843000Y-10160000D03*
X-9144000Y-8382000D03*
X-14376400Y15189200D03*
X-50800Y-33985200D03*
X23749000Y-27813000D03*
X-35712400Y-37439600D03*
X30480000Y-43942000D03*
X16129000Y-55372000D03*
X-10886400Y-44069000D03*
X31115000Y-55753000D03*
X-7874000Y-29845000D03*
X-11811000Y-44069000D03*
X-10886400Y-43053000D03*
X-11811000Y-45085000D03*
X-11811000Y-43053000D03*
X-10886400Y-45085000D03*
X12191996Y-36626800D03*
X20193000Y-45974000D03*
X2413000Y-50292000D03*
X8229600Y8432800D03*
X6451600Y8432800D03*
X6070600Y10210800D03*
X7620000Y1778000D03*
X6070600Y9321800D03*
X7721600Y6908800D03*
X5842000Y1778000D03*
X7340600Y8432800D03*
X5943600Y6908800D03*
X10515600Y8432800D03*
X11785600Y9321800D03*
X10033000Y1778000D03*
X10134600Y6908800D03*
X11785600Y10210800D03*
X11404600Y8432800D03*
X9626600Y8432800D03*
X12039600Y6908800D03*
X11938000Y1778000D03*
X2921000Y-10160000D03*
X762000Y-8382000D03*
X1270000Y-6858000D03*
X2540000Y-8382000D03*
X1651000Y-8382000D03*
X1270000Y-1524000D03*
X3048000Y-6858000D03*
X3048000Y-1524000D03*
X2921000Y-9271000D03*
X-2794000Y-10160000D03*
X-635000Y-8382000D03*
X-2413000Y-8382000D03*
X-1270000Y-1524000D03*
X-1143000Y-6858000D03*
X-3175000Y-1524000D03*
X-3048000Y-6858000D03*
X-2794000Y-9271000D03*
X-1524000Y-8382000D03*
X25285568Y-50269447D03*
X13208000Y24638000D03*
X6604000Y-46736000D03*
X-3556000Y-46736000D03*
X-9474200Y24768000D03*
X-32893000Y-48260000D03*
X-9042400Y-31496000D03*
X-1016000Y-42672000D03*
X-18288000Y-18034000D03*
X-19177000Y-18669000D03*
X-1020653Y-43692653D03*
X-12801600Y-32613600D03*
X12573000Y-28448000D03*
X6324837Y-33359380D03*
X14732000Y-30353000D03*
X7970293Y-35391180D03*
X24130000Y-50291990D03*
X1905000Y22352000D03*
X508000Y-32131000D03*
X-5597768Y-39233232D03*
X-6206000Y-43942000D03*
X7112000Y-34417000D03*
X-5207000Y-45212000D03*
X-4699000Y-40132000D03*
X-6340232Y-38490768D03*
X-12293600Y-52740000D03*
X1651000Y-31369000D03*
X-7256000Y-43942000D03*
D19*
X11176000Y-59436000D02*
X12700000Y-60960000D01*
X12700000Y-60960000D02*
X14478000Y-60960000D01*
X11176000Y-53086000D02*
X11176000Y-59436000D01*
X10668000Y-52578000D02*
X11176000Y-53086000D01*
X8636000Y-52578000D02*
X10668000Y-52578000D01*
X8382000Y-52324000D02*
X8636000Y-52578000D01*
X11176000Y-51816000D02*
X11877600Y-52517600D01*
X9398000Y-51816000D02*
X11176000Y-51816000D01*
X11877600Y-52517600D02*
X11877600Y-57912000D01*
X25781000Y-31623000D02*
X23114000Y-34290000D01*
X23114000Y-34290000D02*
X23114000Y-51816000D01*
X13716000Y-25654000D02*
X23241000Y-25654000D01*
X26035000Y-54737000D02*
X31115000Y-54737000D01*
X23114000Y-51816000D02*
X26035000Y-54737000D01*
X25781000Y-28194000D02*
X25781000Y-31623000D01*
X31242000Y-54610000D02*
X31115000Y-54737000D01*
X23241000Y-25654000D02*
X25781000Y-28194000D01*
X-7506800Y-27596000D02*
X15277000Y-27596000D01*
X21590000Y-33909000D02*
X21590000Y-55499000D01*
X15277000Y-27596000D02*
X21590000Y-33909000D01*
X-9093200Y-26009600D02*
X-7506800Y-27596000D01*
X21590000Y-55499000D02*
X22098000Y-56007000D01*
X-710956Y-25649219D02*
X614625Y-26974800D01*
X22315000Y-33618000D02*
X22315000Y-54864000D01*
X15671800Y-26974800D02*
X22315000Y-33618000D01*
X614625Y-26974800D02*
X15671800Y-26974800D01*
X28829000Y-29972000D02*
X12446000Y-13589000D01*
X28829000Y-38608000D02*
X28829000Y-29972000D01*
X19812000Y-26416000D02*
X22987000Y-29591000D01*
X-6670000Y-20381000D02*
X-4318000Y-22733000D01*
X9017000Y-26416000D02*
X19812000Y-26416000D01*
X-6670000Y-4560000D02*
X-6670000Y-20381000D01*
X-4318000Y-22733000D02*
X5334000Y-22733000D01*
X5334000Y-22733000D02*
X9017000Y-26416000D01*
X22987000Y-29591000D02*
X24384000Y-29591000D01*
X6670000Y-4560000D02*
X6670000Y-15306000D01*
X6670000Y-15306000D02*
X16002000Y-24638000D01*
X16002000Y-24638000D02*
X21463000Y-24638000D01*
X-29337000Y-10668000D02*
X-29337000Y7239000D01*
X-14097000Y-34798000D02*
X-14097000Y-25908000D01*
X-14605000Y24765000D02*
X-12827000Y26543000D01*
X-14605000Y21971000D02*
X-14605000Y24765000D01*
X-12827000Y26543000D02*
X-9271000Y26543000D01*
X-2705198Y-46189802D02*
X-14097000Y-34798000D01*
X-29337000Y7239000D02*
X-14605000Y21971000D01*
X-938753Y-46189802D02*
X-2705198Y-46189802D01*
X-14097000Y-25908000D02*
X-29337000Y-10668000D01*
X-9271000Y26543000D02*
X-6858000Y24130000D01*
X-28829000Y-10287000D02*
X-13589000Y-25527000D01*
X-13589000Y-25527000D02*
X-13589000Y-34671000D01*
X-3074207Y-45185793D02*
X-938993Y-45185793D01*
X-11684000Y24130000D02*
X-28829000Y6985000D01*
X-13589000Y-34671000D02*
X-3074207Y-45185793D01*
X-28829000Y6985000D02*
X-28829000Y-10287000D01*
X13208000Y24638000D02*
X32766000Y5080000D01*
X32766000Y-47244000D02*
X29740553Y-50269447D01*
X29740553Y-50269447D02*
X25285568Y-50269447D01*
X32766000Y5080000D02*
X32766000Y-47244000D01*
X-10515600Y-31445200D02*
X-10515600Y-32766000D01*
X-10464800Y-31496000D02*
X-10515600Y-31445200D01*
X-1143000Y-42799000D02*
X-1016000Y-42672000D01*
X-10515600Y-36052064D02*
X-3768664Y-42799000D01*
X-10515600Y-25806400D02*
X-10515600Y-31445200D01*
X-18288000Y-18034000D02*
X-10515600Y-25806400D01*
X-10515600Y-32766000D02*
X-10515600Y-36052064D01*
X-9042400Y-31496000D02*
X-10464800Y-31496000D01*
X-3768664Y-42799000D02*
X-1143000Y-42799000D01*
X-3454400Y-43688000D02*
X-1025306Y-43688000D01*
X-19177000Y-18669000D02*
X-10922000Y-26924000D01*
X-10922000Y-31115000D02*
X-10922000Y-32562800D01*
X-10972800Y-32613600D02*
X-10922000Y-32562800D01*
X-10922000Y-36220400D02*
X-3454400Y-43688000D01*
X-1025306Y-43688000D02*
X-1020653Y-43692653D01*
X-10922000Y-26924000D02*
X-10922000Y-31115000D01*
X-10922000Y-32562800D02*
X-10922000Y-36220400D01*
X-12801600Y-32613600D02*
X-10972800Y-32613600D01*
X7534620Y-33359380D02*
X12446000Y-28448000D01*
X12446000Y-28448000D02*
X12573000Y-28448000D01*
X6324837Y-33359380D02*
X7534620Y-33359380D01*
X13008473Y-30353000D02*
X7970293Y-35391180D01*
X14732000Y-30353000D02*
X13008473Y-30353000D01*
X3937000Y20320000D02*
X1905000Y22352000D01*
X12827000Y20320000D02*
X3937000Y20320000D01*
X26669990Y-47752000D02*
X28702000Y-47752000D01*
X24130000Y-50291990D02*
X26669990Y-47752000D01*
X31369000Y-45085000D02*
X31369000Y1778000D01*
X28702000Y-47752000D02*
X31369000Y-45085000D01*
X31369000Y1778000D02*
X12827000Y20320000D01*
X-14547400Y-55845795D02*
X-14547400Y-55741200D01*
X-13665200Y-53441600D02*
X-14547400Y-54323800D01*
X-6223000Y-43959000D02*
X-6223000Y-48959200D01*
X-13697400Y-57091200D02*
X-13697400Y-56695795D01*
X-13697400Y-56695795D02*
X-14547400Y-55845795D01*
X-6223000Y-48959200D02*
X-10705400Y-53441600D01*
X-3964400Y-37746400D02*
X-5451232Y-39233232D01*
X-1203538Y-32131000D02*
X-3964400Y-34891862D01*
X508000Y-32131000D02*
X-1203538Y-32131000D01*
X-5451232Y-39233232D02*
X-5597768Y-39233232D01*
X-3964400Y-34891862D02*
X-3964400Y-37746400D01*
X-10705400Y-53441600D02*
X-13665200Y-53441600D01*
X-6206000Y-43942000D02*
X-6223000Y-43959000D01*
X-14547400Y-54323800D02*
X-14547400Y-55741200D01*
X-3302000Y-38735000D02*
X-4699000Y-40132000D01*
X-3302000Y-34925000D02*
X-3302000Y-38735000D01*
X5461000Y-34417000D02*
X4064000Y-33020000D01*
X7112000Y-34417000D02*
X5461000Y-34417000D01*
X4064000Y-33020000D02*
X-1397000Y-33020000D01*
X-1397000Y-33020000D02*
X-3302000Y-34925000D01*
X1651000Y-31369000D02*
X-1082462Y-31369000D01*
X-4417600Y-34704138D02*
X-4417600Y-36548600D01*
X-4417600Y-36548600D02*
X-6340232Y-38471232D01*
X-10640200Y-52740000D02*
X-12293600Y-52740000D01*
X-1082462Y-31369000D02*
X-4417600Y-34704138D01*
X-7256000Y-43942000D02*
X-7239000Y-43959000D01*
X-7239000Y-49338800D02*
X-10640200Y-52740000D01*
X-6340232Y-38471232D02*
X-6340232Y-38490768D01*
X-7239000Y-43959000D02*
X-7239000Y-49338800D01*
G04 #@! TA.AperFunction,Conductor*
G36*
X-9139967Y-51330D02*
G01*
X-9028701Y-65979D01*
X-8997440Y-74356D01*
X-8905081Y-112612D01*
X-8877050Y-128796D01*
X-8797741Y-189653D01*
X-8774853Y-212541D01*
X-8713996Y-291850D01*
X-8697812Y-319881D01*
X-8659556Y-412240D01*
X-8651179Y-443504D01*
X-8636531Y-554766D01*
X-8636000Y-562868D01*
X-8636000Y-10155931D01*
X-8636531Y-10164033D01*
X-8651179Y-10275295D01*
X-8659557Y-10306562D01*
X-8697810Y-10398914D01*
X-8713996Y-10426949D01*
X-8774853Y-10506258D01*
X-8797741Y-10529146D01*
X-8877050Y-10590003D01*
X-8905085Y-10606189D01*
X-8997437Y-10644442D01*
X-9028703Y-10652820D01*
X-9123957Y-10665361D01*
X-9139967Y-10667469D01*
X-9148067Y-10668000D01*
X-22347933Y-10668000D01*
X-22356032Y-10667469D01*
X-22369410Y-10665707D01*
X-22467296Y-10652820D01*
X-22498562Y-10644442D01*
X-22590914Y-10606189D01*
X-22618949Y-10590003D01*
X-22698258Y-10529146D01*
X-22721146Y-10506258D01*
X-22782003Y-10426949D01*
X-22798189Y-10398914D01*
X-22836442Y-10306562D01*
X-22844820Y-10275296D01*
X-22859469Y-10164033D01*
X-22860000Y-10155932D01*
X-22860000Y-562867D01*
X-22859469Y-554766D01*
X-22844820Y-443503D01*
X-22836442Y-412237D01*
X-22798189Y-319885D01*
X-22782003Y-291850D01*
X-22721146Y-212541D01*
X-22698258Y-189653D01*
X-22618949Y-128796D01*
X-22590915Y-112610D01*
X-22498561Y-74356D01*
X-22467296Y-65979D01*
X-22356032Y-51330D01*
X-22347932Y-50800D01*
X-9148068Y-50800D01*
X-9139967Y-51330D01*
G37*
G04 #@! TD.AperFunction*
G04 #@! TA.AperFunction,Conductor*
G36*
X-580167Y-51330D02*
G01*
X-468901Y-65979D01*
X-437640Y-74356D01*
X-345281Y-112612D01*
X-317250Y-128796D01*
X-237941Y-189653D01*
X-215053Y-212541D01*
X-154196Y-291850D01*
X-138012Y-319881D01*
X-99756Y-412240D01*
X-91379Y-443504D01*
X-76731Y-554766D01*
X-76200Y-562868D01*
X-76200Y-10155931D01*
X-76731Y-10164033D01*
X-91379Y-10275295D01*
X-99757Y-10306562D01*
X-138010Y-10398914D01*
X-154196Y-10426949D01*
X-215053Y-10506258D01*
X-237941Y-10529146D01*
X-317250Y-10590003D01*
X-345285Y-10606189D01*
X-437637Y-10644442D01*
X-468903Y-10652820D01*
X-564157Y-10665361D01*
X-580167Y-10667469D01*
X-588267Y-10668000D01*
X-3805933Y-10668000D01*
X-3814032Y-10667469D01*
X-3827410Y-10665707D01*
X-3925296Y-10652820D01*
X-3956562Y-10644442D01*
X-4048914Y-10606189D01*
X-4076949Y-10590003D01*
X-4156258Y-10529146D01*
X-4179146Y-10506258D01*
X-4240003Y-10426949D01*
X-4256189Y-10398914D01*
X-4294442Y-10306562D01*
X-4302820Y-10275296D01*
X-4317469Y-10164033D01*
X-4318000Y-10155932D01*
X-4318000Y-562867D01*
X-4317469Y-554766D01*
X-4302820Y-443503D01*
X-4294442Y-412237D01*
X-4256189Y-319885D01*
X-4240003Y-291850D01*
X-4179146Y-212541D01*
X-4156258Y-189653D01*
X-4076949Y-128796D01*
X-4048915Y-112610D01*
X-3956561Y-74356D01*
X-3925296Y-65979D01*
X-3814032Y-51330D01*
X-3805932Y-50800D01*
X-588268Y-50800D01*
X-580167Y-51330D01*
G37*
G04 #@! TD.AperFunction*
G04 #@! TA.AperFunction,Conductor*
G36*
X8360632Y10718269D02*
G01*
X8374010Y10716507D01*
X8471896Y10703620D01*
X8503162Y10695242D01*
X8595514Y10656989D01*
X8623549Y10640803D01*
X8702858Y10579946D01*
X8725746Y10557058D01*
X8786603Y10477749D01*
X8802789Y10449714D01*
X8841042Y10357362D01*
X8849420Y10326094D01*
X8859139Y10252266D01*
X8859936Y10227988D01*
X8859378Y10219470D01*
X8859100Y10210976D01*
X8859100Y711023D01*
X8859378Y702529D01*
X8859936Y694011D01*
X8859139Y669733D01*
X8849420Y595905D01*
X8841042Y564637D01*
X8802789Y472285D01*
X8786603Y444250D01*
X8725746Y364941D01*
X8702858Y342053D01*
X8623549Y281196D01*
X8595515Y265010D01*
X8503162Y226757D01*
X8471896Y218379D01*
X8360632Y203730D01*
X8352532Y203200D01*
X5160268Y203200D01*
X5152167Y203730D01*
X5040901Y218379D01*
X5009640Y226756D01*
X4917281Y265012D01*
X4889250Y281196D01*
X4809941Y342053D01*
X4787053Y364941D01*
X4726196Y444250D01*
X4710012Y472281D01*
X4671756Y564640D01*
X4663379Y595903D01*
X4663379Y595905D01*
X4653658Y669738D01*
X4652864Y694019D01*
X4653422Y702531D01*
X4653700Y711020D01*
X4653700Y10248508D01*
X4654231Y10256609D01*
X4663379Y10326095D01*
X4671757Y10357362D01*
X4710010Y10449714D01*
X4726196Y10477749D01*
X4787053Y10557058D01*
X4809941Y10579946D01*
X4889250Y10640803D01*
X4917285Y10656989D01*
X5009637Y10695242D01*
X5040903Y10703620D01*
X5136157Y10716161D01*
X5152167Y10718269D01*
X5160267Y10718800D01*
X8352533Y10718800D01*
X8360632Y10718269D01*
G37*
G04 #@! TD.AperFunction*
G04 #@! TA.AperFunction,Conductor*
G36*
X3890232Y10769069D02*
G01*
X3903610Y10767307D01*
X4001496Y10754420D01*
X4032762Y10746042D01*
X4125114Y10707789D01*
X4153149Y10691603D01*
X4232458Y10630746D01*
X4255346Y10607858D01*
X4316203Y10528549D01*
X4332389Y10500514D01*
X4370642Y10408162D01*
X4379020Y10376896D01*
X4393669Y10265633D01*
X4394200Y10257532D01*
X4394200Y715267D01*
X4393669Y707166D01*
X4379020Y595903D01*
X4370642Y564637D01*
X4332389Y472285D01*
X4316203Y444250D01*
X4255346Y364941D01*
X4232458Y342053D01*
X4153149Y281196D01*
X4125115Y265010D01*
X4032762Y226757D01*
X4001496Y218379D01*
X3890232Y203730D01*
X3882132Y203200D01*
X588268Y203200D01*
X580167Y203730D01*
X468901Y218379D01*
X437640Y226756D01*
X345281Y265012D01*
X317250Y281196D01*
X237941Y342053D01*
X215053Y364941D01*
X154196Y444250D01*
X138012Y472281D01*
X99756Y564640D01*
X91379Y595904D01*
X76731Y707166D01*
X76200Y715268D01*
X76200Y10257531D01*
X76731Y10265633D01*
X91379Y10376895D01*
X99757Y10408162D01*
X138010Y10500514D01*
X154196Y10528549D01*
X215053Y10607858D01*
X237941Y10630746D01*
X317250Y10691603D01*
X345285Y10707789D01*
X437637Y10746042D01*
X468903Y10754420D01*
X564157Y10766961D01*
X580167Y10769069D01*
X588267Y10769600D01*
X3882133Y10769600D01*
X3890232Y10769069D01*
G37*
G04 #@! TD.AperFunction*
G04 #@! TA.AperFunction,Conductor*
G36*
X-732567Y10769069D02*
G01*
X-716557Y10766961D01*
X-621303Y10754420D01*
X-590037Y10746042D01*
X-497685Y10707789D01*
X-469650Y10691603D01*
X-390341Y10630746D01*
X-367453Y10607858D01*
X-306596Y10528549D01*
X-290410Y10500514D01*
X-252157Y10408162D01*
X-243779Y10376895D01*
X-229131Y10265633D01*
X-228600Y10257531D01*
X-228600Y715268D01*
X-229131Y707166D01*
X-243779Y595904D01*
X-252156Y564640D01*
X-290412Y472281D01*
X-306596Y444250D01*
X-367453Y364941D01*
X-390341Y342053D01*
X-469650Y281196D01*
X-497681Y265012D01*
X-590040Y226756D01*
X-621301Y218379D01*
X-687242Y209698D01*
X-690791Y209231D01*
X-698892Y208700D01*
X-3810172Y208700D01*
X-3818646Y208423D01*
X-3826932Y207881D01*
X-3835220Y207339D01*
X-3843688Y206505D01*
X-3864759Y203730D01*
X-3872858Y203200D01*
X-3932932Y203200D01*
X-3941032Y203730D01*
X-4052296Y218379D01*
X-4083562Y226757D01*
X-4175915Y265010D01*
X-4203949Y281196D01*
X-4283258Y342053D01*
X-4306146Y364941D01*
X-4367003Y444250D01*
X-4383189Y472285D01*
X-4421442Y564637D01*
X-4429820Y595903D01*
X-4444469Y707166D01*
X-4445000Y715267D01*
X-4445000Y10257532D01*
X-4444469Y10265633D01*
X-4429820Y10376896D01*
X-4421442Y10408162D01*
X-4383189Y10500514D01*
X-4367003Y10528549D01*
X-4306146Y10607858D01*
X-4283258Y10630746D01*
X-4203949Y10691603D01*
X-4175914Y10707789D01*
X-4083562Y10746042D01*
X-4052296Y10754420D01*
X-3954410Y10767307D01*
X-3941032Y10769069D01*
X-3932933Y10769600D01*
X-740667Y10769600D01*
X-732567Y10769069D01*
G37*
G04 #@! TD.AperFunction*
G04 #@! TA.AperFunction,Conductor*
G36*
X9571839Y-51330D02*
G01*
X9592912Y-54105D01*
X9601380Y-54939D01*
X9609668Y-55481D01*
X9617955Y-56023D01*
X9626428Y-56300D01*
X9626429Y-56300D01*
X12827172Y-56300D01*
X12835646Y-56023D01*
X12843932Y-55481D01*
X12852220Y-54939D01*
X12860688Y-54105D01*
X12881759Y-51330D01*
X12889858Y-50800D01*
X21839932Y-50800D01*
X21848032Y-51330D01*
X21959296Y-65979D01*
X21990561Y-74356D01*
X22082915Y-112610D01*
X22110949Y-128796D01*
X22190258Y-189653D01*
X22213146Y-212541D01*
X22274003Y-291850D01*
X22290189Y-319885D01*
X22328442Y-412237D01*
X22336820Y-443503D01*
X22351469Y-554766D01*
X22352000Y-562867D01*
X22352000Y-10155932D01*
X22351469Y-10164033D01*
X22336820Y-10275296D01*
X22328442Y-10306562D01*
X22290189Y-10398914D01*
X22274003Y-10426949D01*
X22213146Y-10506258D01*
X22190258Y-10529146D01*
X22110949Y-10590003D01*
X22082914Y-10606189D01*
X21990562Y-10644442D01*
X21959296Y-10652820D01*
X21861410Y-10665707D01*
X21848032Y-10667469D01*
X21839933Y-10668000D01*
X8894067Y-10668000D01*
X8885967Y-10667469D01*
X8869957Y-10665361D01*
X8774703Y-10652820D01*
X8743437Y-10644442D01*
X8651085Y-10606189D01*
X8623050Y-10590003D01*
X8543741Y-10529146D01*
X8520853Y-10506258D01*
X8459996Y-10426949D01*
X8443810Y-10398914D01*
X8405557Y-10306562D01*
X8397179Y-10275295D01*
X8382531Y-10164033D01*
X8382000Y-10155931D01*
X8382000Y-562868D01*
X8382531Y-554766D01*
X8397179Y-443504D01*
X8405556Y-412240D01*
X8443812Y-319881D01*
X8459996Y-291850D01*
X8520853Y-212541D01*
X8543741Y-189653D01*
X8623050Y-128796D01*
X8651081Y-112612D01*
X8743440Y-74356D01*
X8774701Y-65979D01*
X8885967Y-51330D01*
X8894068Y-50800D01*
X9563742Y-50800D01*
X9571839Y-51330D01*
G37*
G04 #@! TD.AperFunction*
G04 #@! TA.AperFunction,Conductor*
G36*
X3966432Y-51330D02*
G01*
X4077696Y-65979D01*
X4108961Y-74356D01*
X4201315Y-112610D01*
X4229349Y-128796D01*
X4308658Y-189653D01*
X4331546Y-212541D01*
X4392403Y-291850D01*
X4408589Y-319885D01*
X4446842Y-412237D01*
X4455220Y-443503D01*
X4469869Y-554766D01*
X4470400Y-562867D01*
X4470400Y-10155932D01*
X4469869Y-10164033D01*
X4455220Y-10275296D01*
X4446842Y-10306562D01*
X4408589Y-10398914D01*
X4392403Y-10426949D01*
X4331546Y-10506258D01*
X4308658Y-10529146D01*
X4229349Y-10590003D01*
X4201314Y-10606189D01*
X4108962Y-10644442D01*
X4077696Y-10652820D01*
X3979810Y-10665707D01*
X3966432Y-10667469D01*
X3958333Y-10668000D01*
X740667Y-10668000D01*
X732567Y-10667469D01*
X716557Y-10665361D01*
X621303Y-10652820D01*
X590037Y-10644442D01*
X497685Y-10606189D01*
X469650Y-10590003D01*
X390341Y-10529146D01*
X367453Y-10506258D01*
X306596Y-10426949D01*
X290410Y-10398914D01*
X252157Y-10306562D01*
X243779Y-10275295D01*
X229131Y-10164033D01*
X228600Y-10155931D01*
X228600Y-562868D01*
X229131Y-554766D01*
X243779Y-443504D01*
X252156Y-412240D01*
X290412Y-319881D01*
X306596Y-291850D01*
X367453Y-212541D01*
X390341Y-189653D01*
X469650Y-128796D01*
X497681Y-112612D01*
X590040Y-74356D01*
X621301Y-65979D01*
X690790Y-56831D01*
X698892Y-56300D01*
X3886372Y-56300D01*
X3894846Y-56023D01*
X3903132Y-55481D01*
X3911420Y-54939D01*
X3919888Y-54105D01*
X3940959Y-51330D01*
X3949058Y-50800D01*
X3958332Y-50800D01*
X3966432Y-51330D01*
G37*
G04 #@! TD.AperFunction*
G04 #@! TA.AperFunction,Conductor*
G36*
X12831032Y10718269D02*
G01*
X12844410Y10716507D01*
X12942296Y10703620D01*
X12973562Y10695242D01*
X13065914Y10656989D01*
X13093949Y10640803D01*
X13173258Y10579946D01*
X13196146Y10557058D01*
X13257003Y10477749D01*
X13273189Y10449714D01*
X13311442Y10357362D01*
X13319820Y10326096D01*
X13334469Y10214833D01*
X13335000Y10206732D01*
X13335000Y715267D01*
X13334469Y707166D01*
X13319820Y595903D01*
X13311442Y564637D01*
X13273189Y472285D01*
X13257003Y444250D01*
X13196146Y364941D01*
X13173258Y342053D01*
X13093949Y281196D01*
X13065915Y265010D01*
X12973562Y226757D01*
X12942296Y218379D01*
X12831032Y203730D01*
X12822932Y203200D01*
X9630668Y203200D01*
X9622567Y203730D01*
X9511301Y218379D01*
X9480040Y226756D01*
X9387681Y265012D01*
X9359650Y281196D01*
X9280341Y342053D01*
X9257453Y364941D01*
X9196596Y444250D01*
X9180412Y472281D01*
X9142156Y564640D01*
X9133779Y595904D01*
X9119131Y707166D01*
X9118600Y715268D01*
X9118600Y10206731D01*
X9119131Y10214833D01*
X9133779Y10326095D01*
X9142157Y10357362D01*
X9180410Y10449714D01*
X9196596Y10477749D01*
X9257453Y10557058D01*
X9280341Y10579946D01*
X9359650Y10640803D01*
X9387685Y10656989D01*
X9480037Y10695242D01*
X9511303Y10703620D01*
X9606557Y10716161D01*
X9622567Y10718269D01*
X9630667Y10718800D01*
X12822933Y10718800D01*
X12831032Y10718269D01*
G37*
G04 #@! TD.AperFunction*
M02*
