G04 #@! TF.GenerationSoftware,KiCad,Pcbnew,7.0.6*
G04 #@! TF.CreationDate,2023-09-04T22:35:04-04:00*
G04 #@! TF.ProjectId,DingoPDM,44696e67-6f50-4444-9d2e-6b696361645f,v3*
G04 #@! TF.SameCoordinates,Original*
G04 #@! TF.FileFunction,Copper,L4,Bot*
G04 #@! TF.FilePolarity,Positive*
%FSLAX46Y46*%
G04 Gerber Fmt 4.6, Leading zero omitted, Abs format (unit mm)*
G04 Created by KiCad (PCBNEW 7.0.6) date 2023-09-04 22:35:04*
%MOMM*%
%LPD*%
G01*
G04 APERTURE LIST*
G04 #@! TA.AperFunction,ComponentPad*
%ADD10C,1.875000*%
G04 #@! TD*
G04 #@! TA.AperFunction,ComponentPad*
%ADD11C,6.000000*%
G04 #@! TD*
G04 #@! TA.AperFunction,ComponentPad*
%ADD12C,2.000000*%
G04 #@! TD*
G04 #@! TA.AperFunction,ComponentPad*
%ADD13R,2.655000X2.655000*%
G04 #@! TD*
G04 #@! TA.AperFunction,ComponentPad*
%ADD14C,2.655000*%
G04 #@! TD*
G04 #@! TA.AperFunction,ComponentPad*
%ADD15C,0.700000*%
G04 #@! TD*
G04 #@! TA.AperFunction,ComponentPad*
%ADD16O,0.900000X2.400000*%
G04 #@! TD*
G04 #@! TA.AperFunction,ComponentPad*
%ADD17O,0.900000X1.700000*%
G04 #@! TD*
G04 #@! TA.AperFunction,ViaPad*
%ADD18C,0.800000*%
G04 #@! TD*
G04 #@! TA.AperFunction,Conductor*
%ADD19C,0.250000*%
G04 #@! TD*
G04 #@! TA.AperFunction,Conductor*
%ADD20C,0.203200*%
G04 #@! TD*
G04 APERTURE END LIST*
D10*
X-28448000Y-23368000D03*
X-28448000Y-30988000D03*
X-25908000Y-23368000D03*
X-25908000Y-30988000D03*
X-23368000Y-23368000D03*
X-23368000Y-30988000D03*
X-20828000Y-23368000D03*
X-20828000Y-30988000D03*
D11*
X-33020000Y-21590000D03*
X-21082000Y21590000D03*
D12*
X-34163000Y15621000D03*
D13*
X-11110000Y4560000D03*
D14*
X-6670000Y4560000D03*
X-2220000Y4560000D03*
X2220000Y4560000D03*
X6670000Y4560000D03*
X11110000Y4560000D03*
X11110000Y-4560000D03*
X6670000Y-4560000D03*
X2220000Y-4560000D03*
X-2220000Y-4560000D03*
X-6670000Y-4560000D03*
X-11110000Y-4560000D03*
D15*
X-17097400Y-55741200D03*
X-16247400Y-55741200D03*
X-15397400Y-55741200D03*
X-14547400Y-55741200D03*
X-13697400Y-55741200D03*
X-12847400Y-55741200D03*
X-11997400Y-55741200D03*
X-11147400Y-55741200D03*
X-11147400Y-57091200D03*
X-11997400Y-57091200D03*
X-12847400Y-57091200D03*
X-13697400Y-57091200D03*
X-14547400Y-57091200D03*
X-15397400Y-57091200D03*
X-16247400Y-57091200D03*
X-17097400Y-57091200D03*
D16*
X-18447400Y-56721200D03*
D17*
X-18447400Y-60101200D03*
D16*
X-9797400Y-56721200D03*
D17*
X-9797400Y-60101200D03*
D12*
X-685800Y-54889400D03*
X-34137600Y-16408400D03*
X-34163000Y-10922000D03*
X-11684000Y24130000D03*
X-6858000Y24130000D03*
X-1397000Y-36017200D03*
D11*
X26670000Y21590000D03*
D12*
X-1371600Y-39420800D03*
D11*
X26670000Y-21590000D03*
D10*
X-34290000Y30988000D03*
X-34290000Y23368000D03*
X-31750000Y30988000D03*
X-31750000Y23368000D03*
X-29210000Y30988000D03*
X-29210000Y23368000D03*
X-26670000Y30988000D03*
X-26670000Y23368000D03*
D18*
X29718000Y-51054000D03*
X25908000Y-56388000D03*
X14478000Y-60960000D03*
X11877600Y-57912000D03*
X8382000Y-52324000D03*
X9398000Y-51816000D03*
X6985000Y-51917600D03*
X20193000Y-46990000D03*
X9499600Y-24028402D03*
X-13360400Y-45110400D03*
X10033000Y-57632600D03*
X-34671000Y-32131000D03*
X-27432000Y-6604000D03*
X10414000Y21844000D03*
X3810000Y-60807600D03*
X-838200Y-51816000D03*
X-25527000Y-7874000D03*
X-19685000Y-46355000D03*
X-33528000Y-32131000D03*
X25781000Y-4445000D03*
X10033000Y-55600600D03*
X-3048000Y-29972000D03*
X-10464800Y-21437600D03*
X-20701000Y-47498000D03*
X-18542000Y-46355000D03*
X-33528000Y-35941000D03*
X26924000Y-6858000D03*
X4826000Y-50647600D03*
X2210607Y-36041793D03*
X1778000Y-57505600D03*
X6985000Y-53568600D03*
X26670000Y26162000D03*
X-31369000Y-34798000D03*
X10033000Y-53568600D03*
X-6482688Y-36318713D03*
X-27432000Y-5207000D03*
X6984193Y-50648407D03*
X-8915400Y8715200D03*
X1778000Y-53568600D03*
X13716000Y-56515000D03*
X-14478000Y-45110400D03*
X12953997Y17398997D03*
X-34671000Y-35941000D03*
X-20701000Y-48641000D03*
X1778000Y-60807600D03*
X4064000Y17272000D03*
X-32385000Y-32131000D03*
X24003000Y-4445000D03*
X-965200Y25704800D03*
X4826000Y-53568600D03*
X-4572000Y-18923000D03*
X-15748000Y-18796000D03*
X10033000Y-60807600D03*
X4826000Y-51917600D03*
X-1016000Y-24130000D03*
X5969000Y-60807600D03*
X8509000Y-53568600D03*
X6858000Y-18796000D03*
X15240000Y-35433000D03*
X26924000Y-5461000D03*
X-25527000Y-4318000D03*
X1778000Y-55600600D03*
X3302000Y-53568600D03*
X7874000Y-60807600D03*
X-27686000Y-14478000D03*
X31115000Y-54737000D03*
X13716000Y-25654000D03*
X22098000Y-56007000D03*
X-9093200Y-26009600D03*
X-710956Y-25649219D03*
X22315000Y-54864000D03*
X-1320800Y13563600D03*
X1346200Y13563600D03*
X508000Y-11811000D03*
X-11303000Y-11811000D03*
X-381000Y-11811000D03*
X1346200Y11785600D03*
X-9525000Y-11811000D03*
X9372600Y11658600D03*
X8483600Y13436600D03*
X8483600Y12547600D03*
X10261600Y12547600D03*
X9372600Y12547600D03*
X1397000Y-12700000D03*
X9372600Y13436600D03*
X-9525000Y-12700000D03*
X12446000Y-11811000D03*
X-431800Y12674600D03*
X-10414000Y-13589000D03*
X10668000Y-12700000D03*
X-12192000Y-11811000D03*
X9779000Y-13589000D03*
X10261600Y13436600D03*
X-1270000Y-11811000D03*
X7594600Y13436600D03*
X-10414000Y-11811000D03*
X-381000Y-13589000D03*
X-12192000Y-13589000D03*
X9779000Y-11811000D03*
X10668000Y-13589000D03*
X-11303000Y-13589000D03*
X1346200Y12674600D03*
X508000Y-13589000D03*
X10261600Y11658600D03*
X508000Y-12700000D03*
X457200Y12674600D03*
X-431800Y11785600D03*
X-1320800Y11785600D03*
X-431800Y13563600D03*
X8483600Y11658600D03*
X7594600Y11658600D03*
X12446000Y-13589000D03*
X-12192000Y-12700000D03*
X457200Y11785600D03*
X-1270000Y-12700000D03*
X-1270000Y-13589000D03*
X7594600Y12547600D03*
X11557000Y-11811000D03*
X12446000Y-12700000D03*
X1397000Y-13589000D03*
X-1320800Y12674600D03*
X-381000Y-12700000D03*
X-9525000Y-13589000D03*
X10668000Y-11811000D03*
X1397000Y-11811000D03*
X457200Y13563600D03*
X11557000Y-13589000D03*
X9779000Y-12700000D03*
X-11303000Y-12700000D03*
X-10414000Y-12700000D03*
X11557000Y-12700000D03*
X28829000Y-38608000D03*
X24384000Y-29591000D03*
X21463000Y-24638000D03*
X-938753Y-46189802D03*
X-938993Y-45185793D03*
X2844800Y10261600D03*
X1193800Y6959600D03*
X685800Y8483600D03*
X1574800Y8483600D03*
X2463800Y8483600D03*
X1143000Y1778000D03*
X2844800Y9372600D03*
X3048000Y1778000D03*
X3098800Y6959600D03*
X-2870200Y9372600D03*
X-1270000Y1778000D03*
X-2870200Y10261600D03*
X-711200Y8483600D03*
X-2997200Y6959600D03*
X-1219200Y6959600D03*
X-2489200Y8483600D03*
X-1600200Y8483600D03*
X-3048000Y1778000D03*
X21590000Y-4445000D03*
X13970000Y-9271000D03*
X12700000Y-8509000D03*
X19812000Y-8890000D03*
X13970000Y-10160000D03*
X11811000Y-8509000D03*
X18796000Y-5461000D03*
X16510000Y-8890000D03*
X19812000Y-4445000D03*
X18796000Y-6731000D03*
X10922000Y-8509000D03*
X19812000Y-1524000D03*
X16510000Y-3810000D03*
X10033000Y-8509000D03*
X9652000Y-6858000D03*
X9144000Y-8509000D03*
X13589000Y-8509000D03*
X11176000Y-1524000D03*
X11176000Y-6858000D03*
X12954000Y-6858000D03*
X-16510000Y-3810000D03*
X-12954000Y-6731000D03*
X-16510000Y-8890000D03*
X-19304000Y-5334000D03*
X-13462000Y-8382000D03*
X-12573000Y-8382000D03*
X-20320000Y-4445000D03*
X-11303000Y-6731000D03*
X-21844000Y-4445000D03*
X-13843000Y-9271000D03*
X-10922000Y-8382000D03*
X-19304000Y-6731000D03*
X-20320000Y-8890000D03*
X-11176000Y-1524000D03*
X-20320000Y-1524000D03*
X-9652000Y-6731000D03*
X-11811000Y-8382000D03*
X-10033000Y-8382000D03*
X-13843000Y-10160000D03*
X-9144000Y-8382000D03*
X-14376400Y15189200D03*
X-50800Y-33985200D03*
X23749000Y-27813000D03*
X-35712400Y-37439600D03*
X30480000Y-43942000D03*
X16129000Y-55372000D03*
X-10886400Y-44069000D03*
X31115000Y-55753000D03*
X-7874000Y-29845000D03*
X-11811000Y-44069000D03*
X-10886400Y-43053000D03*
X-11811000Y-45085000D03*
X-11811000Y-43053000D03*
X-10886400Y-45085000D03*
X12191996Y-36626800D03*
X20193000Y-45974000D03*
X2413000Y-50292000D03*
X8229600Y8432800D03*
X6451600Y8432800D03*
X6070600Y10210800D03*
X7620000Y1778000D03*
X6070600Y9321800D03*
X7721600Y6908800D03*
X5842000Y1778000D03*
X7340600Y8432800D03*
X5943600Y6908800D03*
X10515600Y8432800D03*
X11785600Y9321800D03*
X10033000Y1778000D03*
X10134600Y6908800D03*
X11785600Y10210800D03*
X11404600Y8432800D03*
X9626600Y8432800D03*
X12039600Y6908800D03*
X11938000Y1778000D03*
X2921000Y-10160000D03*
X762000Y-8382000D03*
X1270000Y-6858000D03*
X2540000Y-8382000D03*
X1651000Y-8382000D03*
X1270000Y-1524000D03*
X3048000Y-6858000D03*
X3048000Y-1524000D03*
X2921000Y-9271000D03*
X-2794000Y-10160000D03*
X-635000Y-8382000D03*
X-2413000Y-8382000D03*
X-1270000Y-1524000D03*
X-1143000Y-6858000D03*
X-3175000Y-1524000D03*
X-3048000Y-6858000D03*
X-2794000Y-9271000D03*
X-1524000Y-8382000D03*
X25285568Y-50269447D03*
X13208000Y24638000D03*
X6604000Y-46736000D03*
X-3556000Y-46736000D03*
X-9474200Y24768000D03*
X-32893000Y-48260000D03*
X-9042400Y-31496000D03*
X-1016000Y-42672000D03*
X-18288000Y-18034000D03*
X-19177000Y-18669000D03*
X-1020653Y-43692653D03*
X-12801600Y-32613600D03*
X12573000Y-28448000D03*
X6324837Y-33359380D03*
X14732000Y-30353000D03*
X7970293Y-35391180D03*
X24130000Y-50291990D03*
X1905000Y22352000D03*
X508000Y-32131000D03*
X-5597768Y-39233232D03*
X-6206000Y-43942000D03*
X7112000Y-34417000D03*
X-5207000Y-45212000D03*
X-4699000Y-40132000D03*
X-6340232Y-38490768D03*
X-12293600Y-52740000D03*
X1651000Y-31369000D03*
X-7256000Y-43942000D03*
D19*
X-16662400Y25501600D02*
X-14376400Y23215600D01*
X-34899600Y25501600D02*
X-16662400Y25501600D01*
X-36830000Y-36322000D02*
X-36830000Y23571200D01*
X-35712400Y-37439600D02*
X-36830000Y-36322000D01*
X-14376400Y23215600D02*
X-14376400Y15189200D01*
X-36830000Y23571200D02*
X-34899600Y25501600D01*
D20*
X2921000Y-47371000D02*
X-2921000Y-47371000D01*
X-2921000Y-47371000D02*
X-3556000Y-46736000D01*
X3556000Y-46736000D02*
X2921000Y-47371000D01*
X6604000Y-46736000D02*
X3556000Y-46736000D01*
D19*
X-35087322Y25954800D02*
X-10661000Y25954800D01*
X-32893000Y-48260000D02*
X-37283200Y-43869800D01*
X-37283200Y-43869800D02*
X-37283200Y23758922D01*
X-10661000Y25954800D02*
X-9474200Y24768000D01*
X-37283200Y23758922D02*
X-35087322Y25954800D01*
G04 #@! TA.AperFunction,Conductor*
G36*
X-9139967Y-51330D02*
G01*
X-9028701Y-65979D01*
X-8997440Y-74356D01*
X-8905081Y-112612D01*
X-8877050Y-128796D01*
X-8797741Y-189653D01*
X-8774853Y-212541D01*
X-8713996Y-291850D01*
X-8697812Y-319881D01*
X-8659556Y-412240D01*
X-8651179Y-443504D01*
X-8636531Y-554766D01*
X-8636000Y-562868D01*
X-8636000Y-10155931D01*
X-8636531Y-10164033D01*
X-8651179Y-10275295D01*
X-8659557Y-10306562D01*
X-8697810Y-10398914D01*
X-8713996Y-10426949D01*
X-8774853Y-10506258D01*
X-8797741Y-10529146D01*
X-8877050Y-10590003D01*
X-8905085Y-10606189D01*
X-8997437Y-10644442D01*
X-9028703Y-10652820D01*
X-9123957Y-10665361D01*
X-9139967Y-10667469D01*
X-9148067Y-10668000D01*
X-22347933Y-10668000D01*
X-22356032Y-10667469D01*
X-22369410Y-10665707D01*
X-22467296Y-10652820D01*
X-22498562Y-10644442D01*
X-22590914Y-10606189D01*
X-22618949Y-10590003D01*
X-22698258Y-10529146D01*
X-22721146Y-10506258D01*
X-22782003Y-10426949D01*
X-22798189Y-10398914D01*
X-22836442Y-10306562D01*
X-22844820Y-10275296D01*
X-22859469Y-10164033D01*
X-22860000Y-10155932D01*
X-22860000Y-562867D01*
X-22859469Y-554766D01*
X-22844820Y-443503D01*
X-22836442Y-412237D01*
X-22798189Y-319885D01*
X-22782003Y-291850D01*
X-22721146Y-212541D01*
X-22698258Y-189653D01*
X-22618949Y-128796D01*
X-22590915Y-112610D01*
X-22498561Y-74356D01*
X-22467296Y-65979D01*
X-22356032Y-51330D01*
X-22347932Y-50800D01*
X-9148068Y-50800D01*
X-9139967Y-51330D01*
G37*
G04 #@! TD.AperFunction*
G04 #@! TA.AperFunction,Conductor*
G36*
X-580167Y-51330D02*
G01*
X-468901Y-65979D01*
X-437640Y-74356D01*
X-345281Y-112612D01*
X-317250Y-128796D01*
X-237941Y-189653D01*
X-215053Y-212541D01*
X-154196Y-291850D01*
X-138012Y-319881D01*
X-99756Y-412240D01*
X-91379Y-443504D01*
X-76731Y-554766D01*
X-76200Y-562868D01*
X-76200Y-10155931D01*
X-76731Y-10164033D01*
X-91379Y-10275295D01*
X-99757Y-10306562D01*
X-138010Y-10398914D01*
X-154196Y-10426949D01*
X-215053Y-10506258D01*
X-237941Y-10529146D01*
X-317250Y-10590003D01*
X-345285Y-10606189D01*
X-437637Y-10644442D01*
X-468903Y-10652820D01*
X-564157Y-10665361D01*
X-580167Y-10667469D01*
X-588267Y-10668000D01*
X-3805933Y-10668000D01*
X-3814032Y-10667469D01*
X-3827410Y-10665707D01*
X-3925296Y-10652820D01*
X-3956562Y-10644442D01*
X-4048914Y-10606189D01*
X-4076949Y-10590003D01*
X-4156258Y-10529146D01*
X-4179146Y-10506258D01*
X-4240003Y-10426949D01*
X-4256189Y-10398914D01*
X-4294442Y-10306562D01*
X-4302820Y-10275296D01*
X-4317469Y-10164033D01*
X-4318000Y-10155932D01*
X-4318000Y-562867D01*
X-4317469Y-554766D01*
X-4302820Y-443503D01*
X-4294442Y-412237D01*
X-4256189Y-319885D01*
X-4240003Y-291850D01*
X-4179146Y-212541D01*
X-4156258Y-189653D01*
X-4076949Y-128796D01*
X-4048915Y-112610D01*
X-3956561Y-74356D01*
X-3925296Y-65979D01*
X-3814032Y-51330D01*
X-3805932Y-50800D01*
X-588268Y-50800D01*
X-580167Y-51330D01*
G37*
G04 #@! TD.AperFunction*
G04 #@! TA.AperFunction,Conductor*
G36*
X8360632Y10718269D02*
G01*
X8374010Y10716507D01*
X8471896Y10703620D01*
X8503162Y10695242D01*
X8595514Y10656989D01*
X8623549Y10640803D01*
X8702858Y10579946D01*
X8725746Y10557058D01*
X8786603Y10477749D01*
X8802789Y10449714D01*
X8841042Y10357362D01*
X8849420Y10326094D01*
X8859139Y10252266D01*
X8859936Y10227988D01*
X8859378Y10219470D01*
X8859100Y10210976D01*
X8859100Y711023D01*
X8859378Y702529D01*
X8859936Y694011D01*
X8859139Y669733D01*
X8849420Y595905D01*
X8841042Y564637D01*
X8802789Y472285D01*
X8786603Y444250D01*
X8725746Y364941D01*
X8702858Y342053D01*
X8623549Y281196D01*
X8595515Y265010D01*
X8503162Y226757D01*
X8471896Y218379D01*
X8360632Y203730D01*
X8352532Y203200D01*
X5160268Y203200D01*
X5152167Y203730D01*
X5040901Y218379D01*
X5009640Y226756D01*
X4917281Y265012D01*
X4889250Y281196D01*
X4809941Y342053D01*
X4787053Y364941D01*
X4726196Y444250D01*
X4710012Y472281D01*
X4671756Y564640D01*
X4663379Y595903D01*
X4663379Y595905D01*
X4653658Y669738D01*
X4652864Y694019D01*
X4653422Y702531D01*
X4653700Y711020D01*
X4653700Y10248508D01*
X4654231Y10256609D01*
X4663379Y10326095D01*
X4671757Y10357362D01*
X4710010Y10449714D01*
X4726196Y10477749D01*
X4787053Y10557058D01*
X4809941Y10579946D01*
X4889250Y10640803D01*
X4917285Y10656989D01*
X5009637Y10695242D01*
X5040903Y10703620D01*
X5136157Y10716161D01*
X5152167Y10718269D01*
X5160267Y10718800D01*
X8352533Y10718800D01*
X8360632Y10718269D01*
G37*
G04 #@! TD.AperFunction*
G04 #@! TA.AperFunction,Conductor*
G36*
X3890232Y10769069D02*
G01*
X3903610Y10767307D01*
X4001496Y10754420D01*
X4032762Y10746042D01*
X4125114Y10707789D01*
X4153149Y10691603D01*
X4232458Y10630746D01*
X4255346Y10607858D01*
X4316203Y10528549D01*
X4332389Y10500514D01*
X4370642Y10408162D01*
X4379020Y10376896D01*
X4393669Y10265633D01*
X4394200Y10257532D01*
X4394200Y715267D01*
X4393669Y707166D01*
X4379020Y595903D01*
X4370642Y564637D01*
X4332389Y472285D01*
X4316203Y444250D01*
X4255346Y364941D01*
X4232458Y342053D01*
X4153149Y281196D01*
X4125115Y265010D01*
X4032762Y226757D01*
X4001496Y218379D01*
X3890232Y203730D01*
X3882132Y203200D01*
X588268Y203200D01*
X580167Y203730D01*
X468901Y218379D01*
X437640Y226756D01*
X345281Y265012D01*
X317250Y281196D01*
X237941Y342053D01*
X215053Y364941D01*
X154196Y444250D01*
X138012Y472281D01*
X99756Y564640D01*
X91379Y595904D01*
X76731Y707166D01*
X76200Y715268D01*
X76200Y10257531D01*
X76731Y10265633D01*
X91379Y10376895D01*
X99757Y10408162D01*
X138010Y10500514D01*
X154196Y10528549D01*
X215053Y10607858D01*
X237941Y10630746D01*
X317250Y10691603D01*
X345285Y10707789D01*
X437637Y10746042D01*
X468903Y10754420D01*
X564157Y10766961D01*
X580167Y10769069D01*
X588267Y10769600D01*
X3882133Y10769600D01*
X3890232Y10769069D01*
G37*
G04 #@! TD.AperFunction*
G04 #@! TA.AperFunction,Conductor*
G36*
X-732567Y10769069D02*
G01*
X-716557Y10766961D01*
X-621303Y10754420D01*
X-590037Y10746042D01*
X-497685Y10707789D01*
X-469650Y10691603D01*
X-390341Y10630746D01*
X-367453Y10607858D01*
X-306596Y10528549D01*
X-290410Y10500514D01*
X-252157Y10408162D01*
X-243779Y10376895D01*
X-229131Y10265633D01*
X-228600Y10257531D01*
X-228600Y715268D01*
X-229131Y707166D01*
X-243779Y595904D01*
X-252156Y564640D01*
X-290412Y472281D01*
X-306596Y444250D01*
X-367453Y364941D01*
X-390341Y342053D01*
X-469650Y281196D01*
X-497681Y265012D01*
X-590040Y226756D01*
X-621301Y218379D01*
X-687242Y209698D01*
X-690791Y209231D01*
X-698892Y208700D01*
X-3810172Y208700D01*
X-3818646Y208423D01*
X-3826932Y207881D01*
X-3835220Y207339D01*
X-3843688Y206505D01*
X-3864759Y203730D01*
X-3872858Y203200D01*
X-3932932Y203200D01*
X-3941032Y203730D01*
X-4052296Y218379D01*
X-4083562Y226757D01*
X-4175915Y265010D01*
X-4203949Y281196D01*
X-4283258Y342053D01*
X-4306146Y364941D01*
X-4367003Y444250D01*
X-4383189Y472285D01*
X-4421442Y564637D01*
X-4429820Y595903D01*
X-4444469Y707166D01*
X-4445000Y715267D01*
X-4445000Y10257532D01*
X-4444469Y10265633D01*
X-4429820Y10376896D01*
X-4421442Y10408162D01*
X-4383189Y10500514D01*
X-4367003Y10528549D01*
X-4306146Y10607858D01*
X-4283258Y10630746D01*
X-4203949Y10691603D01*
X-4175914Y10707789D01*
X-4083562Y10746042D01*
X-4052296Y10754420D01*
X-3954410Y10767307D01*
X-3941032Y10769069D01*
X-3932933Y10769600D01*
X-740667Y10769600D01*
X-732567Y10769069D01*
G37*
G04 #@! TD.AperFunction*
G04 #@! TA.AperFunction,Conductor*
G36*
X9571839Y-51330D02*
G01*
X9592912Y-54105D01*
X9601380Y-54939D01*
X9609668Y-55481D01*
X9617955Y-56023D01*
X9626428Y-56300D01*
X9626429Y-56300D01*
X12827172Y-56300D01*
X12835646Y-56023D01*
X12843932Y-55481D01*
X12852220Y-54939D01*
X12860688Y-54105D01*
X12881759Y-51330D01*
X12889858Y-50800D01*
X21839932Y-50800D01*
X21848032Y-51330D01*
X21959296Y-65979D01*
X21990561Y-74356D01*
X22082915Y-112610D01*
X22110949Y-128796D01*
X22190258Y-189653D01*
X22213146Y-212541D01*
X22274003Y-291850D01*
X22290189Y-319885D01*
X22328442Y-412237D01*
X22336820Y-443503D01*
X22351469Y-554766D01*
X22352000Y-562867D01*
X22352000Y-10155932D01*
X22351469Y-10164033D01*
X22336820Y-10275296D01*
X22328442Y-10306562D01*
X22290189Y-10398914D01*
X22274003Y-10426949D01*
X22213146Y-10506258D01*
X22190258Y-10529146D01*
X22110949Y-10590003D01*
X22082914Y-10606189D01*
X21990562Y-10644442D01*
X21959296Y-10652820D01*
X21861410Y-10665707D01*
X21848032Y-10667469D01*
X21839933Y-10668000D01*
X8894067Y-10668000D01*
X8885967Y-10667469D01*
X8869957Y-10665361D01*
X8774703Y-10652820D01*
X8743437Y-10644442D01*
X8651085Y-10606189D01*
X8623050Y-10590003D01*
X8543741Y-10529146D01*
X8520853Y-10506258D01*
X8459996Y-10426949D01*
X8443810Y-10398914D01*
X8405557Y-10306562D01*
X8397179Y-10275295D01*
X8382531Y-10164033D01*
X8382000Y-10155931D01*
X8382000Y-562868D01*
X8382531Y-554766D01*
X8397179Y-443504D01*
X8405556Y-412240D01*
X8443812Y-319881D01*
X8459996Y-291850D01*
X8520853Y-212541D01*
X8543741Y-189653D01*
X8623050Y-128796D01*
X8651081Y-112612D01*
X8743440Y-74356D01*
X8774701Y-65979D01*
X8885967Y-51330D01*
X8894068Y-50800D01*
X9563742Y-50800D01*
X9571839Y-51330D01*
G37*
G04 #@! TD.AperFunction*
G04 #@! TA.AperFunction,Conductor*
G36*
X3966432Y-51330D02*
G01*
X4077696Y-65979D01*
X4108961Y-74356D01*
X4201315Y-112610D01*
X4229349Y-128796D01*
X4308658Y-189653D01*
X4331546Y-212541D01*
X4392403Y-291850D01*
X4408589Y-319885D01*
X4446842Y-412237D01*
X4455220Y-443503D01*
X4469869Y-554766D01*
X4470400Y-562867D01*
X4470400Y-10155932D01*
X4469869Y-10164033D01*
X4455220Y-10275296D01*
X4446842Y-10306562D01*
X4408589Y-10398914D01*
X4392403Y-10426949D01*
X4331546Y-10506258D01*
X4308658Y-10529146D01*
X4229349Y-10590003D01*
X4201314Y-10606189D01*
X4108962Y-10644442D01*
X4077696Y-10652820D01*
X3979810Y-10665707D01*
X3966432Y-10667469D01*
X3958333Y-10668000D01*
X740667Y-10668000D01*
X732567Y-10667469D01*
X716557Y-10665361D01*
X621303Y-10652820D01*
X590037Y-10644442D01*
X497685Y-10606189D01*
X469650Y-10590003D01*
X390341Y-10529146D01*
X367453Y-10506258D01*
X306596Y-10426949D01*
X290410Y-10398914D01*
X252157Y-10306562D01*
X243779Y-10275295D01*
X229131Y-10164033D01*
X228600Y-10155931D01*
X228600Y-562868D01*
X229131Y-554766D01*
X243779Y-443504D01*
X252156Y-412240D01*
X290412Y-319881D01*
X306596Y-291850D01*
X367453Y-212541D01*
X390341Y-189653D01*
X469650Y-128796D01*
X497681Y-112612D01*
X590040Y-74356D01*
X621301Y-65979D01*
X690790Y-56831D01*
X698892Y-56300D01*
X3886372Y-56300D01*
X3894846Y-56023D01*
X3903132Y-55481D01*
X3911420Y-54939D01*
X3919888Y-54105D01*
X3940959Y-51330D01*
X3949058Y-50800D01*
X3958332Y-50800D01*
X3966432Y-51330D01*
G37*
G04 #@! TD.AperFunction*
G04 #@! TA.AperFunction,Conductor*
G36*
X12831032Y10718269D02*
G01*
X12844410Y10716507D01*
X12942296Y10703620D01*
X12973562Y10695242D01*
X13065914Y10656989D01*
X13093949Y10640803D01*
X13173258Y10579946D01*
X13196146Y10557058D01*
X13257003Y10477749D01*
X13273189Y10449714D01*
X13311442Y10357362D01*
X13319820Y10326096D01*
X13334469Y10214833D01*
X13335000Y10206732D01*
X13335000Y715267D01*
X13334469Y707166D01*
X13319820Y595903D01*
X13311442Y564637D01*
X13273189Y472285D01*
X13257003Y444250D01*
X13196146Y364941D01*
X13173258Y342053D01*
X13093949Y281196D01*
X13065915Y265010D01*
X12973562Y226757D01*
X12942296Y218379D01*
X12831032Y203730D01*
X12822932Y203200D01*
X9630668Y203200D01*
X9622567Y203730D01*
X9511301Y218379D01*
X9480040Y226756D01*
X9387681Y265012D01*
X9359650Y281196D01*
X9280341Y342053D01*
X9257453Y364941D01*
X9196596Y444250D01*
X9180412Y472281D01*
X9142156Y564640D01*
X9133779Y595904D01*
X9119131Y707166D01*
X9118600Y715268D01*
X9118600Y10206731D01*
X9119131Y10214833D01*
X9133779Y10326095D01*
X9142157Y10357362D01*
X9180410Y10449714D01*
X9196596Y10477749D01*
X9257453Y10557058D01*
X9280341Y10579946D01*
X9359650Y10640803D01*
X9387685Y10656989D01*
X9480037Y10695242D01*
X9511303Y10703620D01*
X9606557Y10716161D01*
X9622567Y10718269D01*
X9630667Y10718800D01*
X12822933Y10718800D01*
X12831032Y10718269D01*
G37*
G04 #@! TD.AperFunction*
G04 #@! TA.AperFunction,Conductor*
G36*
X34032169Y-27416733D02*
G01*
X34032169Y-27416732D01*
X34032170Y-27416733D01*
X34040681Y-27416498D01*
X34057309Y-27415493D01*
X34065799Y-27414699D01*
X34190194Y-27398927D01*
X34190192Y-27398927D01*
X34191620Y-27398649D01*
X34195860Y-27397826D01*
X34265422Y-27404369D01*
X34320405Y-27447481D01*
X34343351Y-27513475D01*
X34343500Y-27519552D01*
X34343500Y-61651500D01*
X34323815Y-61718539D01*
X34271011Y-61764294D01*
X34219500Y-61775500D01*
X14835647Y-61775500D01*
X14768608Y-61755815D01*
X14722853Y-61703011D01*
X14712909Y-61633853D01*
X14741934Y-61570297D01*
X14778020Y-61541703D01*
X14852529Y-61502599D01*
X14971498Y-61397201D01*
X15061787Y-61266395D01*
X15118149Y-61117782D01*
X15137307Y-60960000D01*
X15118149Y-60802218D01*
X15061787Y-60653605D01*
X14971498Y-60522799D01*
X14971495Y-60522796D01*
X14971493Y-60522794D01*
X14852530Y-60417401D01*
X14711791Y-60343536D01*
X14557472Y-60305500D01*
X14557471Y-60305500D01*
X14398529Y-60305500D01*
X14398528Y-60305500D01*
X14244208Y-60343536D01*
X14103469Y-60417401D01*
X13984506Y-60522794D01*
X13984500Y-60522801D01*
X13894214Y-60653602D01*
X13837850Y-60802218D01*
X13818693Y-60959999D01*
X13818693Y-60960000D01*
X13837850Y-61117781D01*
X13894214Y-61266397D01*
X13941764Y-61335285D01*
X13984502Y-61397201D01*
X13984504Y-61397203D01*
X13984506Y-61397205D01*
X14103469Y-61502598D01*
X14103471Y-61502599D01*
X14177978Y-61541703D01*
X14228191Y-61590288D01*
X14244166Y-61658307D01*
X14220831Y-61724165D01*
X14165595Y-61766952D01*
X14120353Y-61775500D01*
X-37521500Y-61775500D01*
X-37588539Y-61755815D01*
X-37634294Y-61703011D01*
X-37645500Y-61651500D01*
X-37645500Y-60543811D01*
X-19151900Y-60543811D01*
X-19136452Y-60671036D01*
X-19075785Y-60831002D01*
X-18978599Y-60971801D01*
X-18850541Y-61085250D01*
X-18699054Y-61164757D01*
X-18699050Y-61164757D01*
X-18699050Y-61164758D01*
X-18532943Y-61205700D01*
X-18532942Y-61205700D01*
X-18361857Y-61205700D01*
X-18195749Y-61164758D01*
X-18195748Y-61164757D01*
X-18195746Y-61164757D01*
X-18044259Y-61085250D01*
X-17916201Y-60971801D01*
X-17908054Y-60959999D01*
X-17819016Y-60831003D01*
X-17819015Y-60831002D01*
X-17758348Y-60671039D01*
X-17758347Y-60671034D01*
X-17742900Y-60543813D01*
X-17742900Y-60543811D01*
X-10501900Y-60543811D01*
X-10486452Y-60671036D01*
X-10425785Y-60831002D01*
X-10328599Y-60971801D01*
X-10200541Y-61085250D01*
X-10049054Y-61164757D01*
X-10049050Y-61164757D01*
X-10049050Y-61164758D01*
X-9882943Y-61205700D01*
X-9882942Y-61205700D01*
X-9711857Y-61205700D01*
X-9545749Y-61164758D01*
X-9545748Y-61164757D01*
X-9545746Y-61164757D01*
X-9394259Y-61085250D01*
X-9266201Y-60971801D01*
X-9258054Y-60959999D01*
X-9169016Y-60831003D01*
X-9169015Y-60831002D01*
X-9108348Y-60671039D01*
X-9108347Y-60671034D01*
X-9092900Y-60543813D01*
X-9092900Y-59658586D01*
X-9108347Y-59531365D01*
X-9108348Y-59531360D01*
X-9169015Y-59371397D01*
X-9169016Y-59371396D01*
X-9266200Y-59230599D01*
X-9394259Y-59117150D01*
X-9545749Y-59037641D01*
X-9711857Y-58996700D01*
X-9711858Y-58996700D01*
X-9882942Y-58996700D01*
X-9882943Y-58996700D01*
X-10049050Y-59037641D01*
X-10049053Y-59037642D01*
X-10049054Y-59037643D01*
X-10200541Y-59117150D01*
X-10328599Y-59230599D01*
X-10425785Y-59371398D01*
X-10458883Y-59458672D01*
X-10486451Y-59531360D01*
X-10486451Y-59531362D01*
X-10486452Y-59531364D01*
X-10501900Y-59658589D01*
X-10501900Y-60543811D01*
X-17742900Y-60543811D01*
X-17742900Y-59658586D01*
X-17758347Y-59531365D01*
X-17758348Y-59531360D01*
X-17819015Y-59371397D01*
X-17819016Y-59371396D01*
X-17916200Y-59230599D01*
X-18044259Y-59117150D01*
X-18195749Y-59037641D01*
X-18361857Y-58996700D01*
X-18361858Y-58996700D01*
X-18532942Y-58996700D01*
X-18532943Y-58996700D01*
X-18699050Y-59037641D01*
X-18699053Y-59037642D01*
X-18699054Y-59037643D01*
X-18850541Y-59117150D01*
X-18978599Y-59230599D01*
X-19075785Y-59371398D01*
X-19108883Y-59458672D01*
X-19136451Y-59531360D01*
X-19136451Y-59531362D01*
X-19136452Y-59531364D01*
X-19151900Y-59658589D01*
X-19151900Y-60543811D01*
X-37645500Y-60543811D01*
X-37645500Y-57513813D01*
X-19151900Y-57513813D01*
X-19150865Y-57522334D01*
X-19136452Y-57641036D01*
X-19075785Y-57801002D01*
X-18978599Y-57941801D01*
X-18850541Y-58055250D01*
X-18699054Y-58134757D01*
X-18699050Y-58134757D01*
X-18699050Y-58134758D01*
X-18532943Y-58175700D01*
X-18532942Y-58175700D01*
X-18361857Y-58175700D01*
X-18195749Y-58134758D01*
X-18195748Y-58134757D01*
X-18195746Y-58134757D01*
X-18044259Y-58055250D01*
X-17916201Y-57941801D01*
X-17819015Y-57801002D01*
X-17781057Y-57700916D01*
X-17758348Y-57641039D01*
X-17758347Y-57641034D01*
X-17751110Y-57581432D01*
X-17723487Y-57517254D01*
X-17665553Y-57478199D01*
X-17595700Y-57476665D01*
X-17536107Y-57513139D01*
X-17529647Y-57520882D01*
X-17528534Y-57522334D01*
X-17402258Y-57619230D01*
X-17255206Y-57680140D01*
X-17113846Y-57698750D01*
X-17097401Y-57700916D01*
X-17097400Y-57700916D01*
X-17097399Y-57700916D01*
X-17079040Y-57698498D01*
X-16939594Y-57680140D01*
X-16792542Y-57619230D01*
X-16792541Y-57619229D01*
X-16792540Y-57619229D01*
X-16747886Y-57584964D01*
X-16682717Y-57559769D01*
X-16614272Y-57573807D01*
X-16596923Y-57584956D01*
X-16552258Y-57619230D01*
X-16405206Y-57680140D01*
X-16263846Y-57698750D01*
X-16247401Y-57700916D01*
X-16247400Y-57700916D01*
X-16247399Y-57700916D01*
X-16229040Y-57698498D01*
X-16089594Y-57680140D01*
X-15991559Y-57639533D01*
X-15942544Y-57619231D01*
X-15942543Y-57619230D01*
X-15942542Y-57619230D01*
X-15897885Y-57584962D01*
X-15832719Y-57559769D01*
X-15764274Y-57573806D01*
X-15746920Y-57584958D01*
X-15702258Y-57619230D01*
X-15555206Y-57680140D01*
X-15413846Y-57698750D01*
X-15397401Y-57700916D01*
X-15397400Y-57700916D01*
X-15397399Y-57700916D01*
X-15379040Y-57698498D01*
X-15239594Y-57680140D01*
X-15141559Y-57639533D01*
X-15092544Y-57619231D01*
X-15092543Y-57619230D01*
X-15092542Y-57619230D01*
X-15047885Y-57584962D01*
X-14982719Y-57559769D01*
X-14914274Y-57573806D01*
X-14896920Y-57584958D01*
X-14852258Y-57619230D01*
X-14705206Y-57680140D01*
X-14563846Y-57698750D01*
X-14547401Y-57700916D01*
X-14547400Y-57700916D01*
X-14547399Y-57700916D01*
X-14529040Y-57698498D01*
X-14389594Y-57680140D01*
X-14291559Y-57639533D01*
X-14242544Y-57619231D01*
X-14242543Y-57619230D01*
X-14242542Y-57619230D01*
X-14197885Y-57584962D01*
X-14132719Y-57559769D01*
X-14064274Y-57573806D01*
X-14046920Y-57584958D01*
X-14002258Y-57619230D01*
X-13855206Y-57680140D01*
X-13713846Y-57698750D01*
X-13697401Y-57700916D01*
X-13697400Y-57700916D01*
X-13697399Y-57700916D01*
X-13679040Y-57698498D01*
X-13539594Y-57680140D01*
X-13392542Y-57619230D01*
X-13392541Y-57619229D01*
X-13392540Y-57619229D01*
X-13347886Y-57584964D01*
X-13282717Y-57559769D01*
X-13214272Y-57573807D01*
X-13196923Y-57584956D01*
X-13152258Y-57619230D01*
X-13005206Y-57680140D01*
X-12863846Y-57698750D01*
X-12847401Y-57700916D01*
X-12847400Y-57700916D01*
X-12847399Y-57700916D01*
X-12829040Y-57698498D01*
X-12689594Y-57680140D01*
X-12591559Y-57639533D01*
X-12542544Y-57619231D01*
X-12542543Y-57619230D01*
X-12542542Y-57619230D01*
X-12497885Y-57584962D01*
X-12432719Y-57559769D01*
X-12364274Y-57573806D01*
X-12346920Y-57584958D01*
X-12302258Y-57619230D01*
X-12155206Y-57680140D01*
X-12013846Y-57698750D01*
X-11997401Y-57700916D01*
X-11997400Y-57700916D01*
X-11997399Y-57700916D01*
X-11979040Y-57698498D01*
X-11839594Y-57680140D01*
X-11741559Y-57639533D01*
X-11692544Y-57619231D01*
X-11692543Y-57619230D01*
X-11692542Y-57619230D01*
X-11647885Y-57584962D01*
X-11582719Y-57559769D01*
X-11514274Y-57573806D01*
X-11496920Y-57584958D01*
X-11452258Y-57619230D01*
X-11305206Y-57680140D01*
X-11163846Y-57698750D01*
X-11147401Y-57700916D01*
X-11147400Y-57700916D01*
X-11147399Y-57700916D01*
X-11129040Y-57698498D01*
X-10989594Y-57680140D01*
X-10891559Y-57639533D01*
X-10842544Y-57619231D01*
X-10842543Y-57619230D01*
X-10842542Y-57619230D01*
X-10716266Y-57522334D01*
X-10715163Y-57520897D01*
X-10713921Y-57519990D01*
X-10710519Y-57516588D01*
X-10709988Y-57517118D01*
X-10658737Y-57479692D01*
X-10588991Y-57475535D01*
X-10528070Y-57509745D01*
X-10495315Y-57571461D01*
X-10493689Y-57581432D01*
X-10486452Y-57641036D01*
X-10425785Y-57801002D01*
X-10328599Y-57941801D01*
X-10200541Y-58055250D01*
X-10049054Y-58134757D01*
X-10049050Y-58134757D01*
X-10049050Y-58134758D01*
X-9882943Y-58175700D01*
X-9882942Y-58175700D01*
X-9711857Y-58175700D01*
X-9545749Y-58134758D01*
X-9545748Y-58134757D01*
X-9545746Y-58134757D01*
X-9394259Y-58055250D01*
X-9266201Y-57941801D01*
X-9169015Y-57801002D01*
X-9131057Y-57700916D01*
X-9108348Y-57641039D01*
X-9108347Y-57641034D01*
X-9092900Y-57513813D01*
X-9092900Y-55928586D01*
X-9108347Y-55801365D01*
X-9108348Y-55801360D01*
X-9169015Y-55641397D01*
X-9169016Y-55641396D01*
X-9266200Y-55500599D01*
X-9394259Y-55387150D01*
X-9545749Y-55307641D01*
X-9711857Y-55266700D01*
X-9711858Y-55266700D01*
X-9882942Y-55266700D01*
X-9882943Y-55266700D01*
X-10049050Y-55307641D01*
X-10049053Y-55307642D01*
X-10049054Y-55307643D01*
X-10200541Y-55387150D01*
X-10328599Y-55500599D01*
X-10348395Y-55529279D01*
X-10364263Y-55552267D01*
X-10418546Y-55596257D01*
X-10487995Y-55603917D01*
X-10550560Y-55572813D01*
X-10580874Y-55529280D01*
X-10619369Y-55436343D01*
X-10716266Y-55310066D01*
X-10842544Y-55213168D01*
X-10989590Y-55152261D01*
X-10989594Y-55152260D01*
X-11147399Y-55131484D01*
X-11147401Y-55131484D01*
X-11226302Y-55141872D01*
X-11305206Y-55152260D01*
X-11305207Y-55152260D01*
X-11305209Y-55152261D01*
X-11452255Y-55213168D01*
X-11452257Y-55213169D01*
X-11452258Y-55213170D01*
X-11496914Y-55247436D01*
X-11562080Y-55272630D01*
X-11630525Y-55258592D01*
X-11647885Y-55247436D01*
X-11692541Y-55213170D01*
X-11692543Y-55213169D01*
X-11839590Y-55152261D01*
X-11839594Y-55152260D01*
X-11997399Y-55131484D01*
X-11997401Y-55131484D01*
X-12076302Y-55141872D01*
X-12155206Y-55152260D01*
X-12155207Y-55152260D01*
X-12155209Y-55152261D01*
X-12302255Y-55213168D01*
X-12302257Y-55213169D01*
X-12302258Y-55213170D01*
X-12346914Y-55247436D01*
X-12412082Y-55272630D01*
X-12480527Y-55258592D01*
X-12497881Y-55247439D01*
X-12524947Y-55226670D01*
X-12542544Y-55213168D01*
X-12689590Y-55152261D01*
X-12689594Y-55152260D01*
X-12847399Y-55131484D01*
X-12847401Y-55131484D01*
X-12926302Y-55141872D01*
X-13005206Y-55152260D01*
X-13005207Y-55152260D01*
X-13005209Y-55152261D01*
X-13152255Y-55213168D01*
X-13152257Y-55213169D01*
X-13152258Y-55213170D01*
X-13196914Y-55247436D01*
X-13262082Y-55272630D01*
X-13330527Y-55258592D01*
X-13347881Y-55247439D01*
X-13374947Y-55226670D01*
X-13392544Y-55213168D01*
X-13539590Y-55152261D01*
X-13539594Y-55152260D01*
X-13697399Y-55131484D01*
X-13697401Y-55131484D01*
X-13776302Y-55141872D01*
X-13855206Y-55152260D01*
X-13855207Y-55152260D01*
X-13855209Y-55152261D01*
X-14002255Y-55213168D01*
X-14002257Y-55213169D01*
X-14002258Y-55213170D01*
X-14046914Y-55247436D01*
X-14112082Y-55272630D01*
X-14180527Y-55258592D01*
X-14197881Y-55247439D01*
X-14224947Y-55226670D01*
X-14242544Y-55213168D01*
X-14389590Y-55152261D01*
X-14389594Y-55152260D01*
X-14547399Y-55131484D01*
X-14547401Y-55131484D01*
X-14626302Y-55141872D01*
X-14705206Y-55152260D01*
X-14705207Y-55152260D01*
X-14705209Y-55152261D01*
X-14852255Y-55213168D01*
X-14852257Y-55213169D01*
X-14852258Y-55213170D01*
X-14896914Y-55247436D01*
X-14962080Y-55272630D01*
X-15030525Y-55258592D01*
X-15047885Y-55247436D01*
X-15092541Y-55213170D01*
X-15092543Y-55213169D01*
X-15239590Y-55152261D01*
X-15239594Y-55152260D01*
X-15397399Y-55131484D01*
X-15397401Y-55131484D01*
X-15476302Y-55141872D01*
X-15555206Y-55152260D01*
X-15555207Y-55152260D01*
X-15555209Y-55152261D01*
X-15702255Y-55213168D01*
X-15702257Y-55213169D01*
X-15702258Y-55213170D01*
X-15746914Y-55247436D01*
X-15812082Y-55272630D01*
X-15880527Y-55258592D01*
X-15897881Y-55247439D01*
X-15924947Y-55226670D01*
X-15942544Y-55213168D01*
X-16089590Y-55152261D01*
X-16089594Y-55152260D01*
X-16247399Y-55131484D01*
X-16247401Y-55131484D01*
X-16326302Y-55141872D01*
X-16405206Y-55152260D01*
X-16405207Y-55152260D01*
X-16405209Y-55152261D01*
X-16552255Y-55213168D01*
X-16552257Y-55213169D01*
X-16552258Y-55213170D01*
X-16596914Y-55247436D01*
X-16662082Y-55272630D01*
X-16730527Y-55258592D01*
X-16747881Y-55247439D01*
X-16774947Y-55226670D01*
X-16792544Y-55213168D01*
X-16939590Y-55152261D01*
X-16939594Y-55152260D01*
X-17097399Y-55131484D01*
X-17097401Y-55131484D01*
X-17176302Y-55141872D01*
X-17255206Y-55152260D01*
X-17255207Y-55152260D01*
X-17255209Y-55152261D01*
X-17402255Y-55213168D01*
X-17402257Y-55213169D01*
X-17402258Y-55213170D01*
X-17528534Y-55310066D01*
X-17625430Y-55436342D01*
X-17663926Y-55529282D01*
X-17707765Y-55583683D01*
X-17774059Y-55605748D01*
X-17841758Y-55588469D01*
X-17880535Y-55552269D01*
X-17916201Y-55500599D01*
X-18044259Y-55387150D01*
X-18195749Y-55307641D01*
X-18361857Y-55266700D01*
X-18361858Y-55266700D01*
X-18532942Y-55266700D01*
X-18532943Y-55266700D01*
X-18699050Y-55307641D01*
X-18699053Y-55307642D01*
X-18699054Y-55307643D01*
X-18850541Y-55387150D01*
X-18978599Y-55500599D01*
X-19075785Y-55641398D01*
X-19098238Y-55700602D01*
X-19136451Y-55801360D01*
X-19136452Y-55801365D01*
X-19151900Y-55928586D01*
X-19151900Y-57513813D01*
X-37645500Y-57513813D01*
X-37645500Y-54889400D01*
X-1945092Y-54889400D01*
X-1925961Y-55108074D01*
X-1869147Y-55320103D01*
X-1776379Y-55519046D01*
X-1650474Y-55698857D01*
X-1495257Y-55854074D01*
X-1315446Y-55979979D01*
X-1116503Y-56072747D01*
X-904474Y-56129561D01*
X-740468Y-56143909D01*
X-685802Y-56148692D01*
X-685800Y-56148692D01*
X-685798Y-56148692D01*
X-623321Y-56143225D01*
X-467126Y-56129561D01*
X-255097Y-56072747D01*
X-56154Y-55979979D01*
X-56151Y-55979977D01*
X-56149Y-55979976D01*
X60157Y-55898537D01*
X123657Y-55854074D01*
X278874Y-55698857D01*
X404779Y-55519046D01*
X497547Y-55320103D01*
X554361Y-55108074D01*
X573492Y-54889400D01*
X554361Y-54670726D01*
X497547Y-54458697D01*
X404779Y-54259754D01*
X404777Y-54259751D01*
X404776Y-54259749D01*
X278877Y-54079947D01*
X278872Y-54079941D01*
X123658Y-53924727D01*
X123652Y-53924722D01*
X-56149Y-53798823D01*
X-56157Y-53798819D01*
X-255091Y-53706055D01*
X-255095Y-53706053D01*
X-255097Y-53706053D01*
X-344702Y-53682042D01*
X-467124Y-53649239D01*
X-467131Y-53649238D01*
X-685798Y-53630108D01*
X-685802Y-53630108D01*
X-904468Y-53649238D01*
X-904475Y-53649239D01*
X-965685Y-53665640D01*
X-1116503Y-53706053D01*
X-1116506Y-53706054D01*
X-1116508Y-53706055D01*
X-1315442Y-53798819D01*
X-1315450Y-53798823D01*
X-1495252Y-53924722D01*
X-1495258Y-53924727D01*
X-1650472Y-54079941D01*
X-1650477Y-54079947D01*
X-1776376Y-54259749D01*
X-1776377Y-54259751D01*
X-1776379Y-54259754D01*
X-1869147Y-54458697D01*
X-1925961Y-54670726D01*
X-1945092Y-54889400D01*
X-37645500Y-54889400D01*
X-37645500Y-52740000D01*
X-12952907Y-52740000D01*
X-12933749Y-52897782D01*
X-12877387Y-53046395D01*
X-12787098Y-53177201D01*
X-12668129Y-53282599D01*
X-12527393Y-53356463D01*
X-12424511Y-53381820D01*
X-12373072Y-53394500D01*
X-12373071Y-53394500D01*
X-12214128Y-53394500D01*
X-12136967Y-53375481D01*
X-12059807Y-53356463D01*
X-11919071Y-53282599D01*
X-11919069Y-53282598D01*
X-11800106Y-53177205D01*
X-11800104Y-53177203D01*
X-11800102Y-53177201D01*
X-11709813Y-53046395D01*
X-11693598Y-53003639D01*
X-11653450Y-52897781D01*
X-11634293Y-52740000D01*
X-11634293Y-52739999D01*
X-11653450Y-52582218D01*
X-11709814Y-52433602D01*
X-11800100Y-52302801D01*
X-11800106Y-52302794D01*
X-11919069Y-52197401D01*
X-12059808Y-52123536D01*
X-12214128Y-52085500D01*
X-12214129Y-52085500D01*
X-12373071Y-52085500D01*
X-12373072Y-52085500D01*
X-12527391Y-52123536D01*
X-12668130Y-52197401D01*
X-12787093Y-52302794D01*
X-12787095Y-52302796D01*
X-12787098Y-52302799D01*
X-12877387Y-52433605D01*
X-12933749Y-52582218D01*
X-12952907Y-52740000D01*
X-37645500Y-52740000D01*
X-37645500Y-51816000D01*
X-1497507Y-51816000D01*
X-1478349Y-51973782D01*
X-1421987Y-52122395D01*
X-1331698Y-52253201D01*
X-1212729Y-52358599D01*
X-1071993Y-52432463D01*
X-994063Y-52451671D01*
X-917672Y-52470500D01*
X-917671Y-52470500D01*
X-758728Y-52470500D01*
X-664761Y-52447339D01*
X-604407Y-52432463D01*
X-463671Y-52358599D01*
X-463669Y-52358598D01*
X-344706Y-52253205D01*
X-344704Y-52253203D01*
X-344702Y-52253201D01*
X-330543Y-52232689D01*
X-254414Y-52122397D01*
X-198050Y-51973781D01*
X-178893Y-51816000D01*
X-178893Y-51815999D01*
X-198050Y-51658218D01*
X-254414Y-51509602D01*
X-344700Y-51378801D01*
X-344706Y-51378794D01*
X-463669Y-51273401D01*
X-604408Y-51199536D01*
X-758728Y-51161500D01*
X-758729Y-51161500D01*
X-917671Y-51161500D01*
X-917672Y-51161500D01*
X-1071991Y-51199536D01*
X-1212730Y-51273401D01*
X-1331693Y-51378794D01*
X-1331695Y-51378796D01*
X-1331698Y-51378799D01*
X-1421987Y-51509605D01*
X-1478349Y-51658218D01*
X-1497507Y-51816000D01*
X-37645500Y-51816000D01*
X-37645500Y-44271712D01*
X-37625815Y-44204673D01*
X-37573011Y-44158918D01*
X-37503853Y-44148974D01*
X-37440297Y-44177999D01*
X-37433833Y-44184017D01*
X-33573943Y-48043907D01*
X-33540460Y-48105228D01*
X-33538530Y-48146532D01*
X-33552307Y-48259999D01*
X-33552307Y-48260000D01*
X-33533149Y-48417782D01*
X-33476787Y-48566395D01*
X-33386498Y-48697201D01*
X-33267529Y-48802599D01*
X-33126793Y-48876463D01*
X-33023911Y-48901820D01*
X-32972472Y-48914500D01*
X-32972471Y-48914500D01*
X-32813528Y-48914500D01*
X-32736368Y-48895481D01*
X-32659207Y-48876463D01*
X-32518471Y-48802599D01*
X-32518469Y-48802598D01*
X-32399506Y-48697205D01*
X-32399504Y-48697203D01*
X-32399502Y-48697201D01*
X-32360709Y-48641000D01*
X-21360307Y-48641000D01*
X-21341149Y-48798782D01*
X-21284787Y-48947395D01*
X-21194498Y-49078201D01*
X-21075529Y-49183599D01*
X-20934793Y-49257463D01*
X-20831911Y-49282821D01*
X-20780472Y-49295500D01*
X-20780471Y-49295500D01*
X-20621528Y-49295500D01*
X-20544368Y-49276481D01*
X-20467207Y-49257463D01*
X-20326471Y-49183599D01*
X-20326469Y-49183598D01*
X-20207506Y-49078205D01*
X-20207504Y-49078203D01*
X-20207502Y-49078201D01*
X-20117213Y-48947395D01*
X-20090312Y-48876463D01*
X-20060850Y-48798781D01*
X-20041693Y-48641000D01*
X-20041693Y-48640999D01*
X-20060850Y-48483218D01*
X-20117214Y-48334602D01*
X-20207500Y-48203801D01*
X-20207507Y-48203793D01*
X-20254327Y-48162314D01*
X-20291453Y-48103124D01*
X-20290685Y-48033259D01*
X-20254327Y-47976686D01*
X-20207507Y-47935206D01*
X-20207504Y-47935203D01*
X-20207502Y-47935201D01*
X-20131083Y-47824489D01*
X-20117214Y-47804397D01*
X-20060850Y-47655781D01*
X-20041693Y-47498000D01*
X-20041693Y-47497999D01*
X-20060850Y-47340218D01*
X-20117214Y-47191602D01*
X-20182414Y-47097144D01*
X-20204297Y-47030789D01*
X-20186831Y-46963137D01*
X-20135563Y-46915668D01*
X-20066770Y-46903451D01*
X-20022739Y-46916907D01*
X-19918793Y-46971463D01*
X-19764472Y-47009500D01*
X-19764471Y-47009500D01*
X-19605528Y-47009500D01*
X-19528368Y-46990481D01*
X-19451207Y-46971463D01*
X-19310471Y-46897599D01*
X-19195725Y-46795942D01*
X-19132495Y-46766222D01*
X-19063231Y-46775405D01*
X-19031275Y-46795941D01*
X-18916529Y-46897599D01*
X-18775793Y-46971463D01*
X-18687558Y-46993211D01*
X-18621472Y-47009500D01*
X-18621471Y-47009500D01*
X-18462528Y-47009500D01*
X-18385368Y-46990481D01*
X-18308207Y-46971463D01*
X-18167471Y-46897599D01*
X-18167469Y-46897598D01*
X-18048506Y-46792205D01*
X-18048504Y-46792203D01*
X-18048502Y-46792201D01*
X-18009709Y-46736000D01*
X-4215307Y-46736000D01*
X-4196149Y-46893782D01*
X-4139787Y-47042395D01*
X-4049498Y-47173201D01*
X-3930529Y-47278599D01*
X-3789793Y-47352463D01*
X-3686911Y-47377820D01*
X-3635472Y-47390500D01*
X-3635471Y-47390500D01*
X-3476530Y-47390500D01*
X-3476529Y-47390500D01*
X-3429492Y-47378906D01*
X-3359690Y-47381975D01*
X-3312137Y-47411620D01*
X-3181965Y-47541792D01*
X-3176333Y-47548267D01*
X-3168855Y-47558169D01*
X-3168855Y-47558171D01*
X-3132934Y-47590915D01*
X-3130894Y-47592863D01*
X-3116876Y-47606883D01*
X-3114567Y-47608464D01*
X-3107856Y-47613778D01*
X-3084504Y-47635067D01*
X-3077726Y-47637692D01*
X-3052443Y-47651020D01*
X-3046453Y-47655124D01*
X-3015716Y-47662352D01*
X-3007508Y-47664894D01*
X-2978070Y-47676300D01*
X-2970804Y-47676300D01*
X-2942414Y-47679593D01*
X-2935343Y-47681257D01*
X-2904071Y-47676894D01*
X-2895498Y-47676300D01*
X2162000Y-47676300D01*
X2229039Y-47695985D01*
X2247765Y-47717596D01*
X2249681Y-47715681D01*
X2286000Y-47752000D01*
X5337000Y-47752000D01*
X5404039Y-47771685D01*
X5449794Y-47824489D01*
X5461000Y-47876000D01*
X5461000Y-49253600D01*
X5441315Y-49320639D01*
X5388511Y-49366394D01*
X5337000Y-49377600D01*
X4444999Y-49377600D01*
X4318000Y-49504599D01*
X4318000Y-50192768D01*
X4298315Y-50259807D01*
X4296050Y-50263208D01*
X4242214Y-50341202D01*
X4185850Y-50489818D01*
X4166693Y-50647599D01*
X4166693Y-50647600D01*
X4185850Y-50805382D01*
X4242212Y-50953994D01*
X4296050Y-51031991D01*
X4317933Y-51098345D01*
X4318000Y-51102431D01*
X4318000Y-51462768D01*
X4298315Y-51529807D01*
X4296050Y-51533208D01*
X4242214Y-51611202D01*
X4185850Y-51759818D01*
X4166693Y-51917599D01*
X4166693Y-51917600D01*
X4185850Y-52075382D01*
X4242212Y-52223994D01*
X4296050Y-52301991D01*
X4317933Y-52368345D01*
X4318000Y-52372431D01*
X4318000Y-52936600D01*
X4298315Y-53003639D01*
X4245511Y-53049394D01*
X4194000Y-53060600D01*
X3762610Y-53060600D01*
X3695571Y-53040915D01*
X3680386Y-53029418D01*
X3676529Y-53026001D01*
X3535793Y-52952137D01*
X3535792Y-52952136D01*
X3535791Y-52952136D01*
X3381472Y-52914100D01*
X3381471Y-52914100D01*
X3222529Y-52914100D01*
X3222528Y-52914100D01*
X3068208Y-52952136D01*
X2927472Y-53026000D01*
X2927470Y-53026001D01*
X2927471Y-53026001D01*
X2923616Y-53029415D01*
X2860385Y-53059137D01*
X2841390Y-53060600D01*
X2238610Y-53060600D01*
X2171571Y-53040915D01*
X2156386Y-53029418D01*
X2152529Y-53026001D01*
X2011793Y-52952137D01*
X2011792Y-52952136D01*
X2011791Y-52952136D01*
X1857472Y-52914100D01*
X1857471Y-52914100D01*
X1698529Y-52914100D01*
X1698528Y-52914100D01*
X1544208Y-52952136D01*
X1403472Y-53026000D01*
X1403470Y-53026001D01*
X1403471Y-53026001D01*
X1399616Y-53029415D01*
X1336385Y-53059137D01*
X1317390Y-53060600D01*
X1270000Y-53060600D01*
X1270000Y-53113768D01*
X1250315Y-53180807D01*
X1248050Y-53184208D01*
X1194214Y-53262202D01*
X1137850Y-53410818D01*
X1118693Y-53568599D01*
X1118693Y-53568600D01*
X1137850Y-53726382D01*
X1194212Y-53874994D01*
X1248050Y-53952991D01*
X1269933Y-54019345D01*
X1270000Y-54023431D01*
X1270000Y-55145768D01*
X1250315Y-55212807D01*
X1248050Y-55216208D01*
X1194214Y-55294202D01*
X1137850Y-55442818D01*
X1118693Y-55600599D01*
X1118693Y-55600600D01*
X1137850Y-55758382D01*
X1194212Y-55906994D01*
X1248050Y-55984991D01*
X1269933Y-56051345D01*
X1270000Y-56055431D01*
X1270000Y-57050768D01*
X1250315Y-57117807D01*
X1248050Y-57121208D01*
X1194214Y-57199202D01*
X1137850Y-57347818D01*
X1118693Y-57505599D01*
X1118693Y-57505600D01*
X1137850Y-57663382D01*
X1194212Y-57811994D01*
X1248050Y-57889991D01*
X1269933Y-57956345D01*
X1270000Y-57960431D01*
X1270000Y-60352768D01*
X1250315Y-60419807D01*
X1248050Y-60423208D01*
X1194214Y-60501202D01*
X1137850Y-60649818D01*
X1118693Y-60807599D01*
X1118693Y-60807600D01*
X1137850Y-60965382D01*
X1194212Y-61113994D01*
X1248050Y-61191991D01*
X1269933Y-61258345D01*
X1270000Y-61262431D01*
X1270000Y-61315600D01*
X1317390Y-61315600D01*
X1384429Y-61335285D01*
X1399613Y-61346781D01*
X1403471Y-61350199D01*
X1544207Y-61424063D01*
X1621367Y-61443081D01*
X1698528Y-61462100D01*
X1698529Y-61462100D01*
X1857472Y-61462100D01*
X1908911Y-61449421D01*
X2011793Y-61424063D01*
X2152529Y-61350199D01*
X2156383Y-61346784D01*
X2219615Y-61317063D01*
X2238610Y-61315600D01*
X3349390Y-61315600D01*
X3416429Y-61335285D01*
X3431613Y-61346781D01*
X3435471Y-61350199D01*
X3576207Y-61424063D01*
X3653367Y-61443081D01*
X3730528Y-61462100D01*
X3730529Y-61462100D01*
X3889472Y-61462100D01*
X3940911Y-61449421D01*
X4043793Y-61424063D01*
X4184529Y-61350199D01*
X4188383Y-61346784D01*
X4251615Y-61317063D01*
X4270610Y-61315600D01*
X5508390Y-61315600D01*
X5575429Y-61335285D01*
X5590613Y-61346781D01*
X5594471Y-61350199D01*
X5735207Y-61424063D01*
X5812368Y-61443081D01*
X5889528Y-61462100D01*
X5889529Y-61462100D01*
X6048472Y-61462100D01*
X6099911Y-61449421D01*
X6202793Y-61424063D01*
X6343529Y-61350199D01*
X6347383Y-61346784D01*
X6410615Y-61317063D01*
X6429610Y-61315600D01*
X7413390Y-61315600D01*
X7480429Y-61335285D01*
X7495613Y-61346781D01*
X7499471Y-61350199D01*
X7640207Y-61424063D01*
X7717367Y-61443081D01*
X7794528Y-61462100D01*
X7794529Y-61462100D01*
X7953472Y-61462100D01*
X8004911Y-61449421D01*
X8107793Y-61424063D01*
X8248529Y-61350199D01*
X8252383Y-61346784D01*
X8315615Y-61317063D01*
X8334610Y-61315600D01*
X9572390Y-61315600D01*
X9639429Y-61335285D01*
X9654613Y-61346781D01*
X9658471Y-61350199D01*
X9799207Y-61424063D01*
X9876368Y-61443081D01*
X9953528Y-61462100D01*
X9953529Y-61462100D01*
X10112472Y-61462100D01*
X10163911Y-61449421D01*
X10266793Y-61424063D01*
X10407529Y-61350199D01*
X10411383Y-61346784D01*
X10474615Y-61317063D01*
X10493610Y-61315600D01*
X10541000Y-61315600D01*
X10541000Y-61262431D01*
X10560685Y-61195392D01*
X10562950Y-61191991D01*
X10616787Y-61113995D01*
X10673149Y-60965382D01*
X10692307Y-60807600D01*
X10673149Y-60649818D01*
X10616787Y-60501205D01*
X10562950Y-60423208D01*
X10541067Y-60356853D01*
X10541000Y-60352768D01*
X10541000Y-58087431D01*
X10560685Y-58020392D01*
X10562950Y-58016991D01*
X10616787Y-57938995D01*
X10627025Y-57912000D01*
X11218293Y-57912000D01*
X11237450Y-58069781D01*
X11244144Y-58087431D01*
X11293813Y-58218395D01*
X11384102Y-58349201D01*
X11384104Y-58349203D01*
X11384106Y-58349205D01*
X11503069Y-58454598D01*
X11503071Y-58454599D01*
X11643807Y-58528463D01*
X11720967Y-58547481D01*
X11798128Y-58566500D01*
X11798129Y-58566500D01*
X11957072Y-58566500D01*
X12008511Y-58553821D01*
X12111393Y-58528463D01*
X12252129Y-58454599D01*
X12371098Y-58349201D01*
X12461387Y-58218395D01*
X12517749Y-58069782D01*
X12536907Y-57912000D01*
X12517749Y-57754218D01*
X12461387Y-57605605D01*
X12371098Y-57474799D01*
X12371095Y-57474796D01*
X12371093Y-57474794D01*
X12252130Y-57369401D01*
X12111391Y-57295536D01*
X11957072Y-57257500D01*
X11957071Y-57257500D01*
X11798129Y-57257500D01*
X11798128Y-57257500D01*
X11643808Y-57295536D01*
X11503069Y-57369401D01*
X11384106Y-57474794D01*
X11384100Y-57474801D01*
X11293814Y-57605602D01*
X11237450Y-57754218D01*
X11218293Y-57911999D01*
X11218293Y-57912000D01*
X10627025Y-57912000D01*
X10673149Y-57790382D01*
X10692307Y-57632600D01*
X10690683Y-57619229D01*
X10673149Y-57474818D01*
X10633169Y-57369401D01*
X10616787Y-57326205D01*
X10562950Y-57248208D01*
X10541067Y-57181853D01*
X10541000Y-57177768D01*
X10541000Y-56515000D01*
X13056693Y-56515000D01*
X13075850Y-56672781D01*
X13132214Y-56821397D01*
X13207591Y-56930599D01*
X13222502Y-56952201D01*
X13222504Y-56952203D01*
X13222506Y-56952205D01*
X13341469Y-57057598D01*
X13341471Y-57057599D01*
X13482207Y-57131463D01*
X13559367Y-57150481D01*
X13636528Y-57169500D01*
X13636529Y-57169500D01*
X13795472Y-57169500D01*
X13846911Y-57156821D01*
X13949793Y-57131463D01*
X14090529Y-57057599D01*
X14209498Y-56952201D01*
X14299787Y-56821395D01*
X14356149Y-56672782D01*
X14375307Y-56515000D01*
X14371237Y-56481484D01*
X14356149Y-56357218D01*
X14351697Y-56345479D01*
X14299787Y-56208605D01*
X14209498Y-56077799D01*
X14209495Y-56077796D01*
X14209493Y-56077794D01*
X14129584Y-56007000D01*
X21438693Y-56007000D01*
X21457850Y-56164781D01*
X21497463Y-56269230D01*
X21509754Y-56301639D01*
X21514214Y-56313397D01*
X21588229Y-56420626D01*
X21604502Y-56444201D01*
X21604504Y-56444203D01*
X21604506Y-56444205D01*
X21723469Y-56549598D01*
X21723471Y-56549599D01*
X21864207Y-56623463D01*
X21939853Y-56642108D01*
X22018528Y-56661500D01*
X22018529Y-56661500D01*
X22177472Y-56661500D01*
X22256147Y-56642108D01*
X22331793Y-56623463D01*
X22472529Y-56549599D01*
X22591498Y-56444201D01*
X22630291Y-56388000D01*
X25248693Y-56388000D01*
X25267850Y-56545781D01*
X25287441Y-56597436D01*
X25311737Y-56661500D01*
X25324214Y-56694397D01*
X25400343Y-56804689D01*
X25414502Y-56825201D01*
X25414504Y-56825203D01*
X25414506Y-56825205D01*
X25533469Y-56930598D01*
X25533471Y-56930599D01*
X25674207Y-57004463D01*
X25751367Y-57023481D01*
X25828528Y-57042500D01*
X25828529Y-57042500D01*
X25987472Y-57042500D01*
X26038911Y-57029820D01*
X26141793Y-57004463D01*
X26282529Y-56930599D01*
X26401498Y-56825201D01*
X26491787Y-56694395D01*
X26548149Y-56545782D01*
X26567307Y-56388000D01*
X26563569Y-56357218D01*
X26548149Y-56230218D01*
X26525178Y-56169650D01*
X26491787Y-56081605D01*
X26489156Y-56077794D01*
X26440290Y-56006999D01*
X26401498Y-55950799D01*
X26401495Y-55950796D01*
X26401493Y-55950794D01*
X26282530Y-55845401D01*
X26141791Y-55771536D01*
X25987472Y-55733500D01*
X25987471Y-55733500D01*
X25828529Y-55733500D01*
X25828528Y-55733500D01*
X25674208Y-55771536D01*
X25533469Y-55845401D01*
X25414506Y-55950794D01*
X25414500Y-55950801D01*
X25324214Y-56081602D01*
X25267850Y-56230218D01*
X25248693Y-56387999D01*
X25248693Y-56388000D01*
X22630291Y-56388000D01*
X22681787Y-56313395D01*
X22738149Y-56164782D01*
X22757307Y-56007000D01*
X22750482Y-55950794D01*
X22738149Y-55849218D01*
X22736701Y-55845401D01*
X22681787Y-55700605D01*
X22680580Y-55698857D01*
X22614386Y-55602958D01*
X22592503Y-55536604D01*
X22609968Y-55468952D01*
X22658808Y-55422722D01*
X22689529Y-55406599D01*
X22808498Y-55301201D01*
X22898787Y-55170395D01*
X22955149Y-55021782D01*
X22974307Y-54864000D01*
X22958887Y-54737000D01*
X30455693Y-54737000D01*
X30474850Y-54894781D01*
X30531214Y-55043397D01*
X30601876Y-55145768D01*
X30621502Y-55174201D01*
X30621504Y-55174203D01*
X30621506Y-55174205D01*
X30740469Y-55279598D01*
X30740471Y-55279599D01*
X30881207Y-55353463D01*
X30958368Y-55372481D01*
X31035528Y-55391500D01*
X31035529Y-55391500D01*
X31194472Y-55391500D01*
X31245911Y-55378821D01*
X31348793Y-55353463D01*
X31489529Y-55279599D01*
X31608498Y-55174201D01*
X31698787Y-55043395D01*
X31755149Y-54894782D01*
X31774307Y-54737000D01*
X31770569Y-54706218D01*
X31755149Y-54579218D01*
X31746951Y-54557602D01*
X31698787Y-54430605D01*
X31696156Y-54426794D01*
X31608499Y-54299801D01*
X31608498Y-54299799D01*
X31608495Y-54299796D01*
X31608493Y-54299794D01*
X31489530Y-54194401D01*
X31348791Y-54120536D01*
X31194472Y-54082500D01*
X31194471Y-54082500D01*
X31035529Y-54082500D01*
X31035528Y-54082500D01*
X30881208Y-54120536D01*
X30740469Y-54194401D01*
X30621506Y-54299794D01*
X30621500Y-54299801D01*
X30531214Y-54430602D01*
X30474850Y-54579218D01*
X30455693Y-54736999D01*
X30455693Y-54737000D01*
X22958887Y-54737000D01*
X22955149Y-54706218D01*
X22898787Y-54557605D01*
X22808498Y-54426799D01*
X22808495Y-54426796D01*
X22808493Y-54426794D01*
X22689530Y-54321401D01*
X22548791Y-54247536D01*
X22394472Y-54209500D01*
X22394471Y-54209500D01*
X22235529Y-54209500D01*
X22235528Y-54209500D01*
X22081208Y-54247536D01*
X21940469Y-54321401D01*
X21821506Y-54426794D01*
X21821500Y-54426801D01*
X21731214Y-54557602D01*
X21674850Y-54706218D01*
X21655693Y-54863999D01*
X21655693Y-54864000D01*
X21674850Y-55021781D01*
X21731214Y-55170397D01*
X21798614Y-55268042D01*
X21820497Y-55334396D01*
X21803032Y-55402048D01*
X21754191Y-55448277D01*
X21738681Y-55456417D01*
X21723468Y-55464402D01*
X21604506Y-55569794D01*
X21604500Y-55569801D01*
X21514214Y-55700602D01*
X21457850Y-55849218D01*
X21438693Y-56006999D01*
X21438693Y-56007000D01*
X14129584Y-56007000D01*
X14090530Y-55972401D01*
X13949791Y-55898536D01*
X13795472Y-55860500D01*
X13795471Y-55860500D01*
X13636529Y-55860500D01*
X13636528Y-55860500D01*
X13482208Y-55898536D01*
X13341469Y-55972401D01*
X13222506Y-56077794D01*
X13222500Y-56077801D01*
X13132214Y-56208602D01*
X13075850Y-56357218D01*
X13056693Y-56514999D01*
X13056693Y-56515000D01*
X10541000Y-56515000D01*
X10541000Y-56055431D01*
X10560685Y-55988392D01*
X10562950Y-55984991D01*
X10571640Y-55972401D01*
X10616787Y-55906995D01*
X10673149Y-55758382D01*
X10692307Y-55600600D01*
X10673149Y-55442818D01*
X10616787Y-55294205D01*
X10562950Y-55216208D01*
X10541067Y-55149853D01*
X10541000Y-55145768D01*
X10541000Y-54023431D01*
X10560685Y-53956392D01*
X10562950Y-53952991D01*
X10582463Y-53924722D01*
X10616787Y-53874995D01*
X10673149Y-53726382D01*
X10692307Y-53568600D01*
X10673149Y-53410818D01*
X10616787Y-53262205D01*
X10562950Y-53184208D01*
X10541067Y-53117853D01*
X10541000Y-53113768D01*
X10541000Y-53060600D01*
X10493610Y-53060600D01*
X10426571Y-53040915D01*
X10411386Y-53029418D01*
X10407529Y-53026001D01*
X10266793Y-52952137D01*
X10266792Y-52952136D01*
X10266791Y-52952136D01*
X10112472Y-52914100D01*
X10112471Y-52914100D01*
X9953529Y-52914100D01*
X9953528Y-52914100D01*
X9799208Y-52952136D01*
X9658472Y-53026000D01*
X9658470Y-53026001D01*
X9658471Y-53026001D01*
X9654616Y-53029415D01*
X9591385Y-53059137D01*
X9572390Y-53060600D01*
X8969610Y-53060600D01*
X8902571Y-53040915D01*
X8887386Y-53029418D01*
X8883529Y-53026001D01*
X8849851Y-53008325D01*
X8799641Y-52959742D01*
X8783666Y-52891723D01*
X8807001Y-52825865D01*
X8825245Y-52805720D01*
X8875498Y-52761201D01*
X8965787Y-52630395D01*
X9012443Y-52507373D01*
X9054621Y-52451671D01*
X9120219Y-52427614D01*
X9158060Y-52430948D01*
X9318528Y-52470500D01*
X9318529Y-52470500D01*
X9477472Y-52470500D01*
X9553863Y-52451671D01*
X9631793Y-52432463D01*
X9772529Y-52358599D01*
X9891498Y-52253201D01*
X9981787Y-52122395D01*
X10038149Y-51973782D01*
X10057307Y-51816000D01*
X10038149Y-51658218D01*
X9981787Y-51509605D01*
X9891498Y-51378799D01*
X9891495Y-51378796D01*
X9891493Y-51378794D01*
X9772530Y-51273401D01*
X9631791Y-51199536D01*
X9477472Y-51161500D01*
X9477471Y-51161500D01*
X9318529Y-51161500D01*
X9318528Y-51161500D01*
X9164208Y-51199536D01*
X9023469Y-51273401D01*
X8904506Y-51378794D01*
X8904500Y-51378801D01*
X8814214Y-51509603D01*
X8814212Y-51509606D01*
X8767555Y-51632627D01*
X8725377Y-51688329D01*
X8659779Y-51712385D01*
X8621939Y-51709051D01*
X8461472Y-51669500D01*
X8461471Y-51669500D01*
X8302529Y-51669500D01*
X8302528Y-51669500D01*
X8148208Y-51707536D01*
X8007469Y-51781401D01*
X7888506Y-51886794D01*
X7888498Y-51886803D01*
X7863391Y-51923177D01*
X7809108Y-51967167D01*
X7739659Y-51974825D01*
X7677094Y-51943721D01*
X7641278Y-51883730D01*
X7638246Y-51867682D01*
X7625149Y-51759818D01*
X7605321Y-51707536D01*
X7568787Y-51611205D01*
X7514950Y-51533208D01*
X7493067Y-51466853D01*
X7493000Y-51462768D01*
X7493000Y-51102069D01*
X7507115Y-51054000D01*
X29058693Y-51054000D01*
X29077850Y-51211781D01*
X29134214Y-51360397D01*
X29204876Y-51462768D01*
X29224502Y-51491201D01*
X29224504Y-51491203D01*
X29224506Y-51491205D01*
X29343469Y-51596598D01*
X29343471Y-51596599D01*
X29484207Y-51670463D01*
X29556692Y-51688329D01*
X29638528Y-51708500D01*
X29638529Y-51708500D01*
X29797472Y-51708500D01*
X29848911Y-51695821D01*
X29951793Y-51670463D01*
X30092529Y-51596599D01*
X30211498Y-51491201D01*
X30301787Y-51360395D01*
X30358149Y-51211782D01*
X30377307Y-51054000D01*
X30358149Y-50896218D01*
X30301787Y-50747605D01*
X30211498Y-50616799D01*
X30211495Y-50616796D01*
X30211493Y-50616794D01*
X30092530Y-50511401D01*
X29951791Y-50437536D01*
X29797472Y-50399500D01*
X29797471Y-50399500D01*
X29638529Y-50399500D01*
X29638528Y-50399500D01*
X29484208Y-50437536D01*
X29343469Y-50511401D01*
X29224506Y-50616794D01*
X29224500Y-50616801D01*
X29134214Y-50747602D01*
X29077850Y-50896218D01*
X29058693Y-51053999D01*
X29058693Y-51054000D01*
X7507115Y-51054000D01*
X7512685Y-51035030D01*
X7514950Y-51031629D01*
X7567980Y-50954802D01*
X7624342Y-50806189D01*
X7643500Y-50648407D01*
X7624342Y-50490625D01*
X7567980Y-50342012D01*
X7533452Y-50291990D01*
X23470693Y-50291990D01*
X23489850Y-50449771D01*
X23513224Y-50511401D01*
X23544952Y-50595061D01*
X23546214Y-50598387D01*
X23580183Y-50647599D01*
X23636502Y-50729191D01*
X23636504Y-50729193D01*
X23636506Y-50729195D01*
X23755469Y-50834588D01*
X23755471Y-50834589D01*
X23896207Y-50908453D01*
X23959069Y-50923947D01*
X24050528Y-50946490D01*
X24050529Y-50946490D01*
X24209472Y-50946490D01*
X24300931Y-50923947D01*
X24363793Y-50908453D01*
X24504529Y-50834589D01*
X24623498Y-50729191D01*
X24623503Y-50729182D01*
X24626577Y-50725714D01*
X24685762Y-50688581D01*
X24755628Y-50689341D01*
X24801627Y-50715114D01*
X24911039Y-50812046D01*
X25051775Y-50885910D01*
X25128935Y-50904928D01*
X25206096Y-50923947D01*
X25206097Y-50923947D01*
X25365040Y-50923947D01*
X25416479Y-50911268D01*
X25519361Y-50885910D01*
X25660097Y-50812046D01*
X25779066Y-50706648D01*
X25869355Y-50575842D01*
X25925717Y-50427229D01*
X25944875Y-50269447D01*
X25944117Y-50263208D01*
X25925717Y-50111665D01*
X25923496Y-50105808D01*
X25869355Y-49963052D01*
X25779066Y-49832246D01*
X25779063Y-49832243D01*
X25779061Y-49832241D01*
X25660098Y-49726848D01*
X25519359Y-49652983D01*
X25365040Y-49614947D01*
X25365039Y-49614947D01*
X25206097Y-49614947D01*
X25206096Y-49614947D01*
X25051776Y-49652983D01*
X24911037Y-49726848D01*
X24792073Y-49832242D01*
X24788981Y-49835733D01*
X24729791Y-49872859D01*
X24659926Y-49872091D01*
X24613939Y-49846320D01*
X24504530Y-49749391D01*
X24363791Y-49675526D01*
X24209472Y-49637490D01*
X24209471Y-49637490D01*
X24050529Y-49637490D01*
X24050528Y-49637490D01*
X23896208Y-49675526D01*
X23755469Y-49749391D01*
X23636506Y-49854784D01*
X23636500Y-49854791D01*
X23546214Y-49985592D01*
X23489850Y-50134208D01*
X23470693Y-50291989D01*
X23470693Y-50291990D01*
X7533452Y-50291990D01*
X7477691Y-50211206D01*
X7477688Y-50211203D01*
X7477686Y-50211201D01*
X7358723Y-50105808D01*
X7217984Y-50031943D01*
X7136564Y-50011875D01*
X7078559Y-49979159D01*
X6640319Y-49540919D01*
X6606834Y-49479596D01*
X6604000Y-49453238D01*
X6604000Y-49377600D01*
X6477000Y-49377600D01*
X6474000Y-49377600D01*
X6406961Y-49357915D01*
X6361206Y-49305111D01*
X6350000Y-49253600D01*
X6350000Y-47876000D01*
X6369685Y-47808961D01*
X6422489Y-47763206D01*
X6474000Y-47752000D01*
X12446000Y-47752000D01*
X12446000Y-46990000D01*
X19533693Y-46990000D01*
X19552850Y-47147781D01*
X19569470Y-47191602D01*
X19602463Y-47278598D01*
X19609214Y-47296397D01*
X19666166Y-47378906D01*
X19699502Y-47427201D01*
X19699504Y-47427203D01*
X19699506Y-47427205D01*
X19818469Y-47532598D01*
X19818471Y-47532599D01*
X19959207Y-47606463D01*
X20036367Y-47625481D01*
X20113528Y-47644500D01*
X20113529Y-47644500D01*
X20272472Y-47644500D01*
X20342311Y-47627286D01*
X20426793Y-47606463D01*
X20567529Y-47532599D01*
X20686498Y-47427201D01*
X20776787Y-47296395D01*
X20833149Y-47147782D01*
X20852307Y-46990000D01*
X20845761Y-46936092D01*
X20833149Y-46832218D01*
X20811602Y-46775405D01*
X20776787Y-46683605D01*
X20686498Y-46552799D01*
X20686495Y-46552796D01*
X20686493Y-46552794D01*
X20567530Y-46447401D01*
X20426791Y-46373536D01*
X20272472Y-46335500D01*
X20272471Y-46335500D01*
X20113529Y-46335500D01*
X20113528Y-46335500D01*
X19959208Y-46373536D01*
X19818469Y-46447401D01*
X19699506Y-46552794D01*
X19699500Y-46552801D01*
X19609214Y-46683602D01*
X19552850Y-46832218D01*
X19533693Y-46989999D01*
X19533693Y-46990000D01*
X12446000Y-46990000D01*
X12446000Y-38608000D01*
X28169693Y-38608000D01*
X28188850Y-38765781D01*
X28200752Y-38797163D01*
X28245213Y-38914395D01*
X28335502Y-39045201D01*
X28335504Y-39045203D01*
X28335506Y-39045205D01*
X28454469Y-39150598D01*
X28454471Y-39150599D01*
X28595207Y-39224463D01*
X28672368Y-39243481D01*
X28749528Y-39262500D01*
X28749529Y-39262500D01*
X28908472Y-39262500D01*
X28959911Y-39249820D01*
X29062793Y-39224463D01*
X29203529Y-39150599D01*
X29322498Y-39045201D01*
X29412787Y-38914395D01*
X29469149Y-38765782D01*
X29488307Y-38608000D01*
X29485196Y-38582382D01*
X29469149Y-38450218D01*
X29423640Y-38330223D01*
X29412787Y-38301605D01*
X29322498Y-38170799D01*
X29322495Y-38170796D01*
X29322493Y-38170794D01*
X29203530Y-38065401D01*
X29062791Y-37991536D01*
X28908472Y-37953500D01*
X28908471Y-37953500D01*
X28749529Y-37953500D01*
X28749528Y-37953500D01*
X28595208Y-37991536D01*
X28454469Y-38065401D01*
X28335506Y-38170794D01*
X28335500Y-38170801D01*
X28245214Y-38301602D01*
X28188850Y-38450218D01*
X28169693Y-38607999D01*
X28169693Y-38608000D01*
X12446000Y-38608000D01*
X12446000Y-37592000D01*
X2286000Y-37592000D01*
X2286000Y-46941700D01*
X2266315Y-47008739D01*
X2213511Y-47054494D01*
X2162000Y-47065700D01*
X-736296Y-47065700D01*
X-803335Y-47046015D01*
X-849090Y-46993211D01*
X-859034Y-46924053D01*
X-830009Y-46860497D01*
X-771231Y-46822723D01*
X-765971Y-46821303D01*
X-745769Y-46816323D01*
X-704960Y-46806265D01*
X-564224Y-46732401D01*
X-564222Y-46732400D01*
X-445259Y-46627007D01*
X-445257Y-46627005D01*
X-445255Y-46627003D01*
X-394037Y-46552801D01*
X-354967Y-46496199D01*
X-298603Y-46347583D01*
X-279446Y-46189802D01*
X-279446Y-46189801D01*
X-298603Y-46032020D01*
X-354967Y-45883404D01*
X-441484Y-45758063D01*
X-463367Y-45691708D01*
X-445901Y-45624057D01*
X-441484Y-45617183D01*
X-355207Y-45492190D01*
X-298843Y-45343574D01*
X-279686Y-45185793D01*
X-279686Y-45185792D01*
X-298843Y-45028011D01*
X-355207Y-44879395D01*
X-445493Y-44748594D01*
X-445499Y-44748587D01*
X-564462Y-44643194D01*
X-705201Y-44569329D01*
X-785425Y-44549556D01*
X-845805Y-44514399D01*
X-877593Y-44452180D01*
X-870697Y-44382651D01*
X-827305Y-44327889D01*
X-793604Y-44312498D01*
X-793878Y-44311778D01*
X-786863Y-44309117D01*
X-786862Y-44309116D01*
X-786860Y-44309116D01*
X-646124Y-44235252D01*
X-646122Y-44235251D01*
X-527159Y-44129858D01*
X-527157Y-44129856D01*
X-527155Y-44129854D01*
X-495742Y-44084344D01*
X-436867Y-43999050D01*
X-380503Y-43850434D01*
X-361346Y-43692653D01*
X-361346Y-43692652D01*
X-380503Y-43534871D01*
X-436867Y-43386255D01*
X-526682Y-43256137D01*
X-548565Y-43189783D01*
X-531100Y-43122131D01*
X-526682Y-43115257D01*
X-432214Y-42978397D01*
X-375850Y-42829781D01*
X-356693Y-42672000D01*
X-356693Y-42671999D01*
X-375850Y-42514218D01*
X-432214Y-42365602D01*
X-522500Y-42234801D01*
X-522506Y-42234794D01*
X-641469Y-42129401D01*
X-782208Y-42055536D01*
X-936528Y-42017500D01*
X-936529Y-42017500D01*
X-1095471Y-42017500D01*
X-1095472Y-42017500D01*
X-1249791Y-42055536D01*
X-1390530Y-42129401D01*
X-1509493Y-42234794D01*
X-1509495Y-42234796D01*
X-1509498Y-42234799D01*
X-1599787Y-42365605D01*
X-1656149Y-42514218D01*
X-1675307Y-42672000D01*
X-1656149Y-42829782D01*
X-1599787Y-42978395D01*
X-1509969Y-43108517D01*
X-1488087Y-43174868D01*
X-1505552Y-43242520D01*
X-1509970Y-43249395D01*
X-1514150Y-43255451D01*
X-1514151Y-43255452D01*
X-1604440Y-43386258D01*
X-1660802Y-43534871D01*
X-1679960Y-43692653D01*
X-1660802Y-43850435D01*
X-1604440Y-43999048D01*
X-1514151Y-44129854D01*
X-1395182Y-44235252D01*
X-1254446Y-44309116D01*
X-1174220Y-44328889D01*
X-1113841Y-44364045D01*
X-1082052Y-44426264D01*
X-1088948Y-44495792D01*
X-1132338Y-44550555D01*
X-1166040Y-44565949D01*
X-1165768Y-44566668D01*
X-1172782Y-44569328D01*
X-1313523Y-44643194D01*
X-1432486Y-44748587D01*
X-1432488Y-44748589D01*
X-1432491Y-44748592D01*
X-1522780Y-44879398D01*
X-1579142Y-45028011D01*
X-1598300Y-45185793D01*
X-1579142Y-45343575D01*
X-1522780Y-45492188D01*
X-1436259Y-45617534D01*
X-1414378Y-45683885D01*
X-1431843Y-45751537D01*
X-1436256Y-45758403D01*
X-1522540Y-45883407D01*
X-1578902Y-46032020D01*
X-1598060Y-46189802D01*
X-1578902Y-46347584D01*
X-1522540Y-46496197D01*
X-1432251Y-46627003D01*
X-1313282Y-46732401D01*
X-1172546Y-46806265D01*
X-1123639Y-46818319D01*
X-1111535Y-46821303D01*
X-1051154Y-46856459D01*
X-1019366Y-46918679D01*
X-1026262Y-46988207D01*
X-1069653Y-47042970D01*
X-1135763Y-47065580D01*
X-1141210Y-47065700D01*
X-2743177Y-47065700D01*
X-2810216Y-47046015D01*
X-2830860Y-47029379D01*
X-2878639Y-46981598D01*
X-2912123Y-46920275D01*
X-2914052Y-46878973D01*
X-2896693Y-46736000D01*
X-2896693Y-46735999D01*
X-2915850Y-46578218D01*
X-2972214Y-46429602D01*
X-3062500Y-46298801D01*
X-3062506Y-46298794D01*
X-3181469Y-46193401D01*
X-3322208Y-46119536D01*
X-3476528Y-46081500D01*
X-3476529Y-46081500D01*
X-3635471Y-46081500D01*
X-3635472Y-46081500D01*
X-3789791Y-46119536D01*
X-3930530Y-46193401D01*
X-4049493Y-46298794D01*
X-4049495Y-46298796D01*
X-4049498Y-46298799D01*
X-4139787Y-46429605D01*
X-4196149Y-46578218D01*
X-4215307Y-46736000D01*
X-18009709Y-46736000D01*
X-17958214Y-46661397D01*
X-17901850Y-46512781D01*
X-17882693Y-46355000D01*
X-17882693Y-46354999D01*
X-17901850Y-46197218D01*
X-17958214Y-46048602D01*
X-18048500Y-45917801D01*
X-18048506Y-45917794D01*
X-18167469Y-45812401D01*
X-18308208Y-45738536D01*
X-18462528Y-45700500D01*
X-18462529Y-45700500D01*
X-18621471Y-45700500D01*
X-18621472Y-45700500D01*
X-18775791Y-45738536D01*
X-18916530Y-45812401D01*
X-19031273Y-45914055D01*
X-19094506Y-45943777D01*
X-19163769Y-45934593D01*
X-19195727Y-45914055D01*
X-19310469Y-45812401D01*
X-19451208Y-45738536D01*
X-19605528Y-45700500D01*
X-19605529Y-45700500D01*
X-19764471Y-45700500D01*
X-19764472Y-45700500D01*
X-19918791Y-45738536D01*
X-20059530Y-45812401D01*
X-20178493Y-45917794D01*
X-20178495Y-45917796D01*
X-20178498Y-45917799D01*
X-20268787Y-46048605D01*
X-20295688Y-46119537D01*
X-20325149Y-46197218D01*
X-20343406Y-46347583D01*
X-20344307Y-46355000D01*
X-20325149Y-46512782D01*
X-20268787Y-46661395D01*
X-20203585Y-46755855D01*
X-20181702Y-46822209D01*
X-20199167Y-46889860D01*
X-20250434Y-46937331D01*
X-20319228Y-46949548D01*
X-20363260Y-46936092D01*
X-20467208Y-46881536D01*
X-20621528Y-46843500D01*
X-20621529Y-46843500D01*
X-20780471Y-46843500D01*
X-20780472Y-46843500D01*
X-20934791Y-46881536D01*
X-21075530Y-46955401D01*
X-21194493Y-47060794D01*
X-21194495Y-47060796D01*
X-21194498Y-47060799D01*
X-21284787Y-47191605D01*
X-21341149Y-47340218D01*
X-21360307Y-47498000D01*
X-21341149Y-47655782D01*
X-21284787Y-47804395D01*
X-21194498Y-47935201D01*
X-21194493Y-47935205D01*
X-21147673Y-47976685D01*
X-21110546Y-48035874D01*
X-21111314Y-48105740D01*
X-21147673Y-48162315D01*
X-21194493Y-48203794D01*
X-21194495Y-48203796D01*
X-21194498Y-48203799D01*
X-21284787Y-48334605D01*
X-21341149Y-48483218D01*
X-21360307Y-48641000D01*
X-32360709Y-48641000D01*
X-32309214Y-48566397D01*
X-32252850Y-48417781D01*
X-32233693Y-48260000D01*
X-32233693Y-48259999D01*
X-32252850Y-48102218D01*
X-32309214Y-47953602D01*
X-32399500Y-47822801D01*
X-32399506Y-47822794D01*
X-32518469Y-47717401D01*
X-32659208Y-47643536D01*
X-32813528Y-47605500D01*
X-32813529Y-47605500D01*
X-32972471Y-47605500D01*
X-32972474Y-47605500D01*
X-32992959Y-47610549D01*
X-33062761Y-47607479D01*
X-33110313Y-47577833D01*
X-35577747Y-45110400D01*
X-15137307Y-45110400D01*
X-15118149Y-45268182D01*
X-15061787Y-45416795D01*
X-14971498Y-45547601D01*
X-14852529Y-45652999D01*
X-14711793Y-45726863D01*
X-14611687Y-45751537D01*
X-14557472Y-45764900D01*
X-14557471Y-45764900D01*
X-14398528Y-45764900D01*
X-14321368Y-45745881D01*
X-14244207Y-45726863D01*
X-14103471Y-45652999D01*
X-14001425Y-45562593D01*
X-13938195Y-45532874D01*
X-13868931Y-45542056D01*
X-13836977Y-45562591D01*
X-13734929Y-45652999D01*
X-13594193Y-45726863D01*
X-13494087Y-45751537D01*
X-13439872Y-45764900D01*
X-13439871Y-45764900D01*
X-13280928Y-45764900D01*
X-13203768Y-45745881D01*
X-13126607Y-45726863D01*
X-12985871Y-45652999D01*
X-12985869Y-45652998D01*
X-12866906Y-45547605D01*
X-12866904Y-45547603D01*
X-12866902Y-45547601D01*
X-12846744Y-45518397D01*
X-12776614Y-45416797D01*
X-12720250Y-45268181D01*
X-12713429Y-45212000D01*
X-5866307Y-45212000D01*
X-5847149Y-45369782D01*
X-5790787Y-45518395D01*
X-5700498Y-45649201D01*
X-5581529Y-45754599D01*
X-5440793Y-45828463D01*
X-5337911Y-45853820D01*
X-5286472Y-45866500D01*
X-5286471Y-45866500D01*
X-5127528Y-45866500D01*
X-5050368Y-45847481D01*
X-4973207Y-45828463D01*
X-4832471Y-45754599D01*
X-4832469Y-45754598D01*
X-4713506Y-45649205D01*
X-4713504Y-45649203D01*
X-4713502Y-45649201D01*
X-4691641Y-45617530D01*
X-4623214Y-45518397D01*
X-4566850Y-45369781D01*
X-4547693Y-45212000D01*
X-4547693Y-45211999D01*
X-4566850Y-45054218D01*
X-4623214Y-44905602D01*
X-4713500Y-44774801D01*
X-4713506Y-44774794D01*
X-4832469Y-44669401D01*
X-4973208Y-44595536D01*
X-5127528Y-44557500D01*
X-5127529Y-44557500D01*
X-5286471Y-44557500D01*
X-5286472Y-44557500D01*
X-5440791Y-44595536D01*
X-5581530Y-44669401D01*
X-5700493Y-44774794D01*
X-5700495Y-44774796D01*
X-5700498Y-44774799D01*
X-5790787Y-44905605D01*
X-5847149Y-45054218D01*
X-5866307Y-45212000D01*
X-12713429Y-45212000D01*
X-12701093Y-45110400D01*
X-12701093Y-45110399D01*
X-12720250Y-44952618D01*
X-12776614Y-44804002D01*
X-12866900Y-44673201D01*
X-12866906Y-44673194D01*
X-12985869Y-44567801D01*
X-13126608Y-44493936D01*
X-13280928Y-44455900D01*
X-13280929Y-44455900D01*
X-13439871Y-44455900D01*
X-13439872Y-44455900D01*
X-13594191Y-44493936D01*
X-13734930Y-44567801D01*
X-13836973Y-44658204D01*
X-13900206Y-44687926D01*
X-13969469Y-44678742D01*
X-14001427Y-44658204D01*
X-14103469Y-44567801D01*
X-14244208Y-44493936D01*
X-14398528Y-44455900D01*
X-14398529Y-44455900D01*
X-14557471Y-44455900D01*
X-14557472Y-44455900D01*
X-14711791Y-44493936D01*
X-14852530Y-44567801D01*
X-14971493Y-44673194D01*
X-14971495Y-44673196D01*
X-14971498Y-44673199D01*
X-15061787Y-44804005D01*
X-15118149Y-44952618D01*
X-15137307Y-45110400D01*
X-35577747Y-45110400D01*
X-36746147Y-43942000D01*
X-7915307Y-43942000D01*
X-7896149Y-44099782D01*
X-7839787Y-44248395D01*
X-7749498Y-44379201D01*
X-7630529Y-44484599D01*
X-7489793Y-44558463D01*
X-7386911Y-44583821D01*
X-7335472Y-44596500D01*
X-7335471Y-44596500D01*
X-7176528Y-44596500D01*
X-7099367Y-44577481D01*
X-7022207Y-44558463D01*
X-6881471Y-44484599D01*
X-6813226Y-44424139D01*
X-6749995Y-44394418D01*
X-6680731Y-44403601D01*
X-6648774Y-44424138D01*
X-6580529Y-44484599D01*
X-6439793Y-44558463D01*
X-6336911Y-44583820D01*
X-6285472Y-44596500D01*
X-6285471Y-44596500D01*
X-6126528Y-44596500D01*
X-6049368Y-44577481D01*
X-5972207Y-44558463D01*
X-5831471Y-44484599D01*
X-5831469Y-44484598D01*
X-5712506Y-44379205D01*
X-5712504Y-44379203D01*
X-5712502Y-44379201D01*
X-5664126Y-44309116D01*
X-5622214Y-44248397D01*
X-5617228Y-44235252D01*
X-5595515Y-44177999D01*
X-5565850Y-44099781D01*
X-5546693Y-43942000D01*
X-5546693Y-43941999D01*
X-5565850Y-43784218D01*
X-5622214Y-43635602D01*
X-5712500Y-43504801D01*
X-5712506Y-43504794D01*
X-5831469Y-43399401D01*
X-5972208Y-43325536D01*
X-6126528Y-43287500D01*
X-6126529Y-43287500D01*
X-6285471Y-43287500D01*
X-6285472Y-43287500D01*
X-6439791Y-43325536D01*
X-6439792Y-43325536D01*
X-6439793Y-43325537D01*
X-6580529Y-43399401D01*
X-6630197Y-43443403D01*
X-6648773Y-43459860D01*
X-6712006Y-43489581D01*
X-6781270Y-43480397D01*
X-6813227Y-43459860D01*
X-6881472Y-43399400D01*
X-7022208Y-43325536D01*
X-7176528Y-43287500D01*
X-7176529Y-43287500D01*
X-7335471Y-43287500D01*
X-7335472Y-43287500D01*
X-7489791Y-43325536D01*
X-7630530Y-43399401D01*
X-7749493Y-43504794D01*
X-7749495Y-43504796D01*
X-7749498Y-43504799D01*
X-7839787Y-43635605D01*
X-7896149Y-43784218D01*
X-7915307Y-43942000D01*
X-36746147Y-43942000D01*
X-36918181Y-43769966D01*
X-36951666Y-43708643D01*
X-36954500Y-43682285D01*
X-36954500Y-38490768D01*
X-6999539Y-38490768D01*
X-6980381Y-38648550D01*
X-6924019Y-38797163D01*
X-6833730Y-38927969D01*
X-6714761Y-39033367D01*
X-6574025Y-39107231D01*
X-6471143Y-39132588D01*
X-6419704Y-39145268D01*
X-6377610Y-39145268D01*
X-6310571Y-39164953D01*
X-6264816Y-39217757D01*
X-6254514Y-39254320D01*
X-6237917Y-39391014D01*
X-6181555Y-39539627D01*
X-6091266Y-39670433D01*
X-5972297Y-39775831D01*
X-5831561Y-39849695D01*
X-5728679Y-39875052D01*
X-5677240Y-39887732D01*
X-5677239Y-39887732D01*
X-5518295Y-39887732D01*
X-5518294Y-39887731D01*
X-5508144Y-39885229D01*
X-5497223Y-39882538D01*
X-5427420Y-39885606D01*
X-5370358Y-39925925D01*
X-5344152Y-39990694D01*
X-5344449Y-40017875D01*
X-5358307Y-40132000D01*
X-5339149Y-40289782D01*
X-5282787Y-40438395D01*
X-5192498Y-40569201D01*
X-5073529Y-40674599D01*
X-4932793Y-40748463D01*
X-4829911Y-40773820D01*
X-4778472Y-40786500D01*
X-4778471Y-40786500D01*
X-4619528Y-40786500D01*
X-4542368Y-40767481D01*
X-4465207Y-40748463D01*
X-4324471Y-40674599D01*
X-4324469Y-40674598D01*
X-4205506Y-40569205D01*
X-4205504Y-40569203D01*
X-4205502Y-40569201D01*
X-4115213Y-40438395D01*
X-4095144Y-40385477D01*
X-4058850Y-40289781D01*
X-4039693Y-40132000D01*
X-4039693Y-40131999D01*
X-4058850Y-39974218D01*
X-4115214Y-39825602D01*
X-4205500Y-39694801D01*
X-4205506Y-39694794D01*
X-4324469Y-39589401D01*
X-4465208Y-39515536D01*
X-4619528Y-39477500D01*
X-4619529Y-39477500D01*
X-4778471Y-39477500D01*
X-4778473Y-39477500D01*
X-4799547Y-39482694D01*
X-4869350Y-39479624D01*
X-4926411Y-39439304D01*
X-4933897Y-39420800D01*
X-2630892Y-39420800D01*
X-2611761Y-39639474D01*
X-2554947Y-39851503D01*
X-2462179Y-40050446D01*
X-2336274Y-40230257D01*
X-2181057Y-40385474D01*
X-2001246Y-40511379D01*
X-1802303Y-40604147D01*
X-1590274Y-40660961D01*
X-1434398Y-40674598D01*
X-1371602Y-40680092D01*
X-1371600Y-40680092D01*
X-1371598Y-40680092D01*
X-1308802Y-40674598D01*
X-1152926Y-40660961D01*
X-940897Y-40604147D01*
X-741954Y-40511379D01*
X-741951Y-40511377D01*
X-741949Y-40511376D01*
X-562147Y-40385477D01*
X-562141Y-40385472D01*
X-406927Y-40230258D01*
X-406922Y-40230252D01*
X-281023Y-40050450D01*
X-281019Y-40050442D01*
X-188255Y-39851508D01*
X-188254Y-39851506D01*
X-188253Y-39851503D01*
X-139736Y-39670437D01*
X-131439Y-39639475D01*
X-131438Y-39639468D01*
X-112308Y-39420802D01*
X-112308Y-39420797D01*
X-131438Y-39202131D01*
X-131439Y-39202124D01*
X-173488Y-39045201D01*
X-188253Y-38990097D01*
X-188253Y-38990095D01*
X-188255Y-38990091D01*
X-281019Y-38791157D01*
X-281023Y-38791149D01*
X-406922Y-38611347D01*
X-406927Y-38611341D01*
X-562141Y-38456127D01*
X-562147Y-38456122D01*
X-741949Y-38330223D01*
X-741957Y-38330219D01*
X-940891Y-38237455D01*
X-940895Y-38237453D01*
X-940897Y-38237453D01*
X-1030502Y-38213442D01*
X-1152924Y-38180639D01*
X-1152931Y-38180638D01*
X-1371598Y-38161508D01*
X-1371602Y-38161508D01*
X-1590268Y-38180638D01*
X-1590275Y-38180639D01*
X-1651485Y-38197040D01*
X-1802303Y-38237453D01*
X-1802306Y-38237454D01*
X-1802308Y-38237455D01*
X-2001242Y-38330219D01*
X-2001250Y-38330223D01*
X-2181052Y-38456122D01*
X-2181058Y-38456127D01*
X-2336272Y-38611341D01*
X-2336277Y-38611347D01*
X-2462176Y-38791149D01*
X-2462177Y-38791151D01*
X-2462179Y-38791154D01*
X-2554947Y-38990097D01*
X-2611761Y-39202126D01*
X-2630892Y-39420800D01*
X-4933897Y-39420800D01*
X-4952616Y-39374534D01*
X-4952317Y-39347351D01*
X-4938461Y-39233232D01*
X-4938461Y-39233231D01*
X-4957618Y-39075450D01*
X-5013982Y-38926834D01*
X-5104268Y-38796033D01*
X-5104274Y-38796026D01*
X-5223237Y-38690633D01*
X-5363976Y-38616768D01*
X-5518296Y-38578732D01*
X-5518297Y-38578732D01*
X-5560390Y-38578732D01*
X-5627429Y-38559047D01*
X-5673184Y-38506243D01*
X-5683486Y-38469678D01*
X-5700082Y-38332986D01*
X-5756446Y-38184370D01*
X-5846732Y-38053569D01*
X-5846738Y-38053562D01*
X-5965701Y-37948169D01*
X-6106440Y-37874304D01*
X-6260760Y-37836268D01*
X-6260761Y-37836268D01*
X-6419703Y-37836268D01*
X-6419704Y-37836268D01*
X-6574023Y-37874304D01*
X-6714762Y-37948169D01*
X-6833725Y-38053562D01*
X-6833727Y-38053564D01*
X-6833730Y-38053567D01*
X-6924019Y-38184373D01*
X-6980381Y-38332986D01*
X-6999539Y-38490768D01*
X-36954500Y-38490768D01*
X-36954500Y-35941000D01*
X-35330307Y-35941000D01*
X-35311149Y-36098782D01*
X-35254787Y-36247395D01*
X-35164498Y-36378201D01*
X-35045529Y-36483599D01*
X-34904793Y-36557463D01*
X-34801911Y-36582821D01*
X-34750472Y-36595500D01*
X-34750471Y-36595500D01*
X-34591528Y-36595500D01*
X-34514368Y-36576481D01*
X-34437207Y-36557463D01*
X-34296471Y-36483599D01*
X-34181725Y-36381942D01*
X-34118495Y-36352222D01*
X-34049231Y-36361405D01*
X-34017275Y-36381941D01*
X-33902529Y-36483599D01*
X-33761793Y-36557463D01*
X-33658911Y-36582820D01*
X-33607472Y-36595500D01*
X-33607471Y-36595500D01*
X-33448528Y-36595500D01*
X-33371367Y-36576481D01*
X-33294207Y-36557463D01*
X-33153471Y-36483599D01*
X-33153469Y-36483598D01*
X-33034506Y-36378205D01*
X-33034504Y-36378203D01*
X-33034502Y-36378201D01*
X-32944213Y-36247395D01*
X-32911421Y-36160931D01*
X-32887850Y-36098781D01*
X-32868693Y-35941000D01*
X-32868693Y-35940999D01*
X-32887850Y-35783218D01*
X-32944214Y-35634602D01*
X-33034500Y-35503801D01*
X-33034506Y-35503794D01*
X-33153469Y-35398401D01*
X-33294208Y-35324536D01*
X-33448528Y-35286500D01*
X-33448529Y-35286500D01*
X-33607471Y-35286500D01*
X-33607472Y-35286500D01*
X-33761791Y-35324536D01*
X-33902530Y-35398401D01*
X-34017273Y-35500055D01*
X-34080506Y-35529777D01*
X-34149769Y-35520593D01*
X-34181727Y-35500055D01*
X-34296469Y-35398401D01*
X-34437208Y-35324536D01*
X-34591528Y-35286500D01*
X-34591529Y-35286500D01*
X-34750471Y-35286500D01*
X-34750472Y-35286500D01*
X-34904791Y-35324536D01*
X-35045530Y-35398401D01*
X-35164493Y-35503794D01*
X-35164495Y-35503796D01*
X-35164498Y-35503799D01*
X-35254787Y-35634605D01*
X-35311149Y-35783218D01*
X-35330307Y-35941000D01*
X-36954500Y-35941000D01*
X-36954500Y-33837057D01*
X-36934815Y-33770018D01*
X-36882011Y-33724263D01*
X-36812853Y-33714319D01*
X-36749297Y-33743344D01*
X-36722219Y-33776632D01*
X-36688118Y-33837740D01*
X-36642822Y-33890938D01*
X-36609815Y-33923344D01*
X-36520507Y-33971051D01*
X-36453641Y-33991316D01*
X-36453633Y-33991317D01*
X-36453634Y-33991317D01*
X-36380626Y-34002461D01*
X-35512527Y-34009987D01*
X-31828448Y-34041929D01*
X-31761583Y-34062194D01*
X-31716287Y-34115392D01*
X-31706944Y-34184634D01*
X-31736519Y-34247936D01*
X-31747297Y-34258739D01*
X-31862493Y-34360794D01*
X-31862495Y-34360796D01*
X-31862498Y-34360799D01*
X-31952787Y-34491605D01*
X-31995264Y-34603607D01*
X-32009149Y-34640218D01*
X-32023036Y-34754593D01*
X-32028307Y-34798000D01*
X-32009149Y-34955782D01*
X-31952787Y-35104395D01*
X-31862498Y-35235201D01*
X-31743529Y-35340599D01*
X-31602793Y-35414463D01*
X-31499911Y-35439820D01*
X-31448472Y-35452500D01*
X-31448471Y-35452500D01*
X-31289528Y-35452500D01*
X-31212367Y-35433481D01*
X-31135207Y-35414463D01*
X-30994471Y-35340599D01*
X-30994469Y-35340598D01*
X-30875506Y-35235205D01*
X-30875504Y-35235203D01*
X-30875502Y-35235201D01*
X-30785213Y-35104395D01*
X-30781900Y-35095660D01*
X-8242607Y-35095660D01*
X-8212332Y-35267354D01*
X-8143279Y-35427438D01*
X-8039168Y-35567283D01*
X-7905614Y-35679349D01*
X-7749815Y-35757594D01*
X-7580171Y-35797800D01*
X-7580169Y-35797800D01*
X-7449571Y-35797800D01*
X-7449564Y-35797800D01*
X-7319836Y-35782637D01*
X-7156007Y-35723008D01*
X-7156003Y-35723005D01*
X-7149556Y-35719768D01*
X-7148695Y-35721481D01*
X-7091182Y-35703930D01*
X-7023937Y-35722903D01*
X-6977625Y-35775219D01*
X-6966949Y-35844268D01*
X-6987816Y-35898361D01*
X-7066475Y-36012318D01*
X-7122837Y-36160931D01*
X-7141995Y-36318713D01*
X-7122837Y-36476495D01*
X-7066475Y-36625108D01*
X-6976186Y-36755914D01*
X-6857217Y-36861312D01*
X-6716481Y-36935176D01*
X-6613599Y-36960533D01*
X-6562160Y-36973213D01*
X-6562159Y-36973213D01*
X-6403216Y-36973213D01*
X-6326055Y-36954194D01*
X-6248895Y-36935176D01*
X-6108159Y-36861312D01*
X-6108157Y-36861311D01*
X-5989194Y-36755918D01*
X-5989192Y-36755916D01*
X-5989190Y-36755914D01*
X-5975031Y-36735402D01*
X-5898902Y-36625110D01*
X-5842538Y-36476494D01*
X-5823381Y-36318713D01*
X-5823381Y-36318712D01*
X-5842538Y-36160931D01*
X-5897049Y-36017202D01*
X-2656292Y-36017202D01*
X-2653800Y-36045680D01*
X-2637161Y-36235874D01*
X-2580347Y-36447903D01*
X-2487579Y-36646846D01*
X-2361674Y-36826657D01*
X-2206457Y-36981874D01*
X-2026646Y-37107779D01*
X-1827703Y-37200547D01*
X-1615674Y-37257361D01*
X-1451668Y-37271709D01*
X-1397002Y-37276492D01*
X-1397000Y-37276492D01*
X-1396998Y-37276492D01*
X-1334521Y-37271025D01*
X-1178326Y-37257361D01*
X-966297Y-37200547D01*
X-767354Y-37107779D01*
X-767351Y-37107777D01*
X-767349Y-37107776D01*
X-587547Y-36981877D01*
X-587541Y-36981872D01*
X-432327Y-36826658D01*
X-432322Y-36826652D01*
X-306423Y-36646850D01*
X-306419Y-36646842D01*
X-213655Y-36447908D01*
X-213654Y-36447906D01*
X-213653Y-36447903D01*
X-164696Y-36265195D01*
X-156839Y-36235875D01*
X-156838Y-36235868D01*
X-139859Y-36041793D01*
X1551300Y-36041793D01*
X1570457Y-36199574D01*
X1626821Y-36348190D01*
X1647539Y-36378205D01*
X1717109Y-36478994D01*
X1717111Y-36478996D01*
X1717113Y-36478998D01*
X1836076Y-36584391D01*
X1836078Y-36584392D01*
X1976814Y-36658256D01*
X2053974Y-36677274D01*
X2131135Y-36696293D01*
X2131136Y-36696293D01*
X2290079Y-36696293D01*
X2341518Y-36683613D01*
X2444400Y-36658256D01*
X2585136Y-36584392D01*
X2704105Y-36478994D01*
X2794394Y-36348188D01*
X2850756Y-36199575D01*
X2869914Y-36041793D01*
X2865767Y-36007643D01*
X2850756Y-35884011D01*
X2845520Y-35870205D01*
X2794394Y-35735398D01*
X2704105Y-35604592D01*
X2704102Y-35604589D01*
X2704100Y-35604587D01*
X2585137Y-35499194D01*
X2448416Y-35427438D01*
X2444400Y-35425330D01*
X2444399Y-35425329D01*
X2444398Y-35425329D01*
X2290079Y-35387293D01*
X2290078Y-35387293D01*
X2131136Y-35387293D01*
X2131135Y-35387293D01*
X1976815Y-35425329D01*
X1836076Y-35499194D01*
X1717113Y-35604587D01*
X1717107Y-35604594D01*
X1626821Y-35735395D01*
X1570457Y-35884011D01*
X1551300Y-36041792D01*
X1551300Y-36041793D01*
X-139859Y-36041793D01*
X-137708Y-36017202D01*
X-137708Y-36017197D01*
X-156838Y-35798531D01*
X-156839Y-35798524D01*
X-208804Y-35604594D01*
X-213653Y-35586497D01*
X-213653Y-35586495D01*
X-213655Y-35586491D01*
X-306419Y-35387557D01*
X-306423Y-35387549D01*
X-432322Y-35207747D01*
X-432327Y-35207741D01*
X-587541Y-35052527D01*
X-587547Y-35052522D01*
X-767349Y-34926623D01*
X-767357Y-34926619D01*
X-966291Y-34833855D01*
X-966295Y-34833853D01*
X-966297Y-34833853D01*
X-1055902Y-34809842D01*
X-1178324Y-34777039D01*
X-1178331Y-34777038D01*
X-1396998Y-34757908D01*
X-1397002Y-34757908D01*
X-1615668Y-34777038D01*
X-1615675Y-34777039D01*
X-1676885Y-34793440D01*
X-1827703Y-34833853D01*
X-1827706Y-34833854D01*
X-1827708Y-34833855D01*
X-2026642Y-34926619D01*
X-2026650Y-34926623D01*
X-2206452Y-35052522D01*
X-2206458Y-35052527D01*
X-2361672Y-35207741D01*
X-2361677Y-35207747D01*
X-2487576Y-35387549D01*
X-2487577Y-35387551D01*
X-2487579Y-35387554D01*
X-2580347Y-35586497D01*
X-2637161Y-35798526D01*
X-2643432Y-35870205D01*
X-2656292Y-36017197D01*
X-2656292Y-36017202D01*
X-5897049Y-36017202D01*
X-5898902Y-36012315D01*
X-5988933Y-35881884D01*
X-6010816Y-35815530D01*
X-5993351Y-35747878D01*
X-5942083Y-35700408D01*
X-5873289Y-35688191D01*
X-5831231Y-35700634D01*
X-5717815Y-35757594D01*
X-5548171Y-35797800D01*
X-5548169Y-35797800D01*
X-5417571Y-35797800D01*
X-5417564Y-35797800D01*
X-5287836Y-35782637D01*
X-5124007Y-35723008D01*
X-5092446Y-35702250D01*
X-4978348Y-35627207D01*
X-4978347Y-35627206D01*
X-4858706Y-35500396D01*
X-4858704Y-35500393D01*
X-4771533Y-35349407D01*
X-4734622Y-35226114D01*
X-4721531Y-35182389D01*
X-4721530Y-35182383D01*
X-4711393Y-35008340D01*
X-4741667Y-34836650D01*
X-4741668Y-34836647D01*
X-4768382Y-34774717D01*
X-4810721Y-34676562D01*
X-4810724Y-34676556D01*
X-4914832Y-34536716D01*
X-5048385Y-34424651D01*
X-5048387Y-34424650D01*
X-5204181Y-34346407D01*
X-5204185Y-34346406D01*
X-5373829Y-34306200D01*
X-5504436Y-34306200D01*
X-5634164Y-34321362D01*
X-5634164Y-34321363D01*
X-5634167Y-34321364D01*
X-5797991Y-34380991D01*
X-5797995Y-34380993D01*
X-5943651Y-34476792D01*
X-5943652Y-34476793D01*
X-6063293Y-34603603D01*
X-6063293Y-34603604D01*
X-6063296Y-34603607D01*
X-6150467Y-34754593D01*
X-6200469Y-34921612D01*
X-6210607Y-35095660D01*
X-6180332Y-35267354D01*
X-6111279Y-35427438D01*
X-6012610Y-35559971D01*
X-5988368Y-35625497D01*
X-6003400Y-35693731D01*
X-6052935Y-35743006D01*
X-6121247Y-35757677D01*
X-6169699Y-35743814D01*
X-6248894Y-35702250D01*
X-6248894Y-35702249D01*
X-6403216Y-35664213D01*
X-6403217Y-35664213D01*
X-6562159Y-35664213D01*
X-6562160Y-35664213D01*
X-6716479Y-35702249D01*
X-6781802Y-35736533D01*
X-6850310Y-35750257D01*
X-6915363Y-35724765D01*
X-6956307Y-35668149D01*
X-6960142Y-35598384D01*
X-6929622Y-35541643D01*
X-6890704Y-35500393D01*
X-6803533Y-35349407D01*
X-6766622Y-35226114D01*
X-6753531Y-35182389D01*
X-6753530Y-35182383D01*
X-6743393Y-35008340D01*
X-6773667Y-34836650D01*
X-6773668Y-34836647D01*
X-6800382Y-34774717D01*
X-6842721Y-34676562D01*
X-6842724Y-34676556D01*
X-6946832Y-34536716D01*
X-7080385Y-34424651D01*
X-7080387Y-34424650D01*
X-7236181Y-34346407D01*
X-7236185Y-34346406D01*
X-7405829Y-34306200D01*
X-7536436Y-34306200D01*
X-7666164Y-34321362D01*
X-7666164Y-34321363D01*
X-7666167Y-34321364D01*
X-7829991Y-34380991D01*
X-7829995Y-34380993D01*
X-7975651Y-34476792D01*
X-7975652Y-34476793D01*
X-8095293Y-34603603D01*
X-8095293Y-34603604D01*
X-8095296Y-34603607D01*
X-8182467Y-34754593D01*
X-8232469Y-34921612D01*
X-8242607Y-35095660D01*
X-30781900Y-35095660D01*
X-30765542Y-35052527D01*
X-30728850Y-34955781D01*
X-30709693Y-34798000D01*
X-30709693Y-34797999D01*
X-30728850Y-34640218D01*
X-30785214Y-34491602D01*
X-30875500Y-34360801D01*
X-30875502Y-34360798D01*
X-30981600Y-34266803D01*
X-31018726Y-34207613D01*
X-31017958Y-34137747D01*
X-30979540Y-34079388D01*
X-30915669Y-34051064D01*
X-30898305Y-34049993D01*
X-17459378Y-34166511D01*
X-17459377Y-34166510D01*
X-17459377Y-34166511D01*
X-17450237Y-34166268D01*
X-17432420Y-34165166D01*
X-17429389Y-34164871D01*
X-17423327Y-34164281D01*
X-17290102Y-34146567D01*
X-17272192Y-34142888D01*
X-17221058Y-34128568D01*
X-17203841Y-34122410D01*
X-17203838Y-34122409D01*
X-17203837Y-34122408D01*
X-17088700Y-34071830D01*
X-17072519Y-34063316D01*
X-17072518Y-34063316D01*
X-17038007Y-34041929D01*
X-17027379Y-34035343D01*
X-17012555Y-34024643D01*
X-16999662Y-34013880D01*
X-16909390Y-33938516D01*
X-16902585Y-33932416D01*
X-16889702Y-33920021D01*
X-16883342Y-33913457D01*
X-16777838Y-33796581D01*
X-16383178Y-33359380D01*
X5665530Y-33359380D01*
X5684687Y-33517161D01*
X5741051Y-33665777D01*
X5780941Y-33723567D01*
X5831339Y-33796581D01*
X5831341Y-33796583D01*
X5831343Y-33796585D01*
X5950306Y-33901978D01*
X5950308Y-33901979D01*
X6091044Y-33975843D01*
X6168204Y-33994861D01*
X6245365Y-34013880D01*
X6385251Y-34013880D01*
X6452290Y-34033565D01*
X6498045Y-34086369D01*
X6507989Y-34155527D01*
X6501194Y-34181846D01*
X6491422Y-34207613D01*
X6471850Y-34259218D01*
X6452693Y-34416999D01*
X6452693Y-34417000D01*
X6471850Y-34574781D01*
X6528214Y-34723397D01*
X6579709Y-34798000D01*
X6618502Y-34854201D01*
X6618504Y-34854203D01*
X6618506Y-34854205D01*
X6737469Y-34959598D01*
X6737471Y-34959599D01*
X6878207Y-35033463D01*
X6955367Y-35052481D01*
X7032528Y-35071500D01*
X7032529Y-35071500D01*
X7191469Y-35071500D01*
X7191471Y-35071500D01*
X7191472Y-35071499D01*
X7197569Y-35070759D01*
X7266493Y-35082216D01*
X7318282Y-35129117D01*
X7336492Y-35196571D01*
X7330801Y-35225833D01*
X7331939Y-35226114D01*
X7330144Y-35233396D01*
X7310986Y-35391179D01*
X7310986Y-35391180D01*
X7330143Y-35548961D01*
X7386507Y-35697577D01*
X7422870Y-35750257D01*
X7476795Y-35828381D01*
X7476797Y-35828383D01*
X7476799Y-35828385D01*
X7595762Y-35933778D01*
X7595764Y-35933779D01*
X7736500Y-36007643D01*
X7813660Y-36026661D01*
X7890821Y-36045680D01*
X7890822Y-36045680D01*
X8049765Y-36045680D01*
X8101204Y-36033001D01*
X8204086Y-36007643D01*
X8344822Y-35933779D01*
X8463791Y-35828381D01*
X8554080Y-35697575D01*
X8610442Y-35548962D01*
X8624522Y-35433000D01*
X14580693Y-35433000D01*
X14599850Y-35590781D01*
X14613665Y-35627206D01*
X14649997Y-35723006D01*
X14656214Y-35739397D01*
X14681558Y-35776114D01*
X14746502Y-35870201D01*
X14746504Y-35870203D01*
X14746506Y-35870205D01*
X14865469Y-35975598D01*
X14865471Y-35975599D01*
X15006207Y-36049463D01*
X15083367Y-36068481D01*
X15160528Y-36087500D01*
X15160529Y-36087500D01*
X15319472Y-36087500D01*
X15370911Y-36074820D01*
X15473793Y-36049463D01*
X15614529Y-35975599D01*
X15733498Y-35870201D01*
X15823787Y-35739395D01*
X15880149Y-35590782D01*
X15899307Y-35433000D01*
X15888087Y-35340598D01*
X15880149Y-35275218D01*
X15864971Y-35235198D01*
X15823787Y-35126605D01*
X15733498Y-34995799D01*
X15733495Y-34995796D01*
X15733493Y-34995794D01*
X15614530Y-34890401D01*
X15473791Y-34816536D01*
X15319472Y-34778500D01*
X15319471Y-34778500D01*
X15160529Y-34778500D01*
X15160528Y-34778500D01*
X15006208Y-34816536D01*
X14865469Y-34890401D01*
X14746506Y-34995794D01*
X14746500Y-34995801D01*
X14656214Y-35126602D01*
X14599850Y-35275218D01*
X14580693Y-35432999D01*
X14580693Y-35433000D01*
X8624522Y-35433000D01*
X8629600Y-35391180D01*
X8623458Y-35340599D01*
X8610442Y-35233398D01*
X8610441Y-35233396D01*
X8554080Y-35084785D01*
X8463791Y-34953979D01*
X8463788Y-34953976D01*
X8463786Y-34953974D01*
X8344823Y-34848581D01*
X8204084Y-34774716D01*
X8049765Y-34736680D01*
X8049764Y-34736680D01*
X7890822Y-34736680D01*
X7890817Y-34736680D01*
X7884713Y-34737421D01*
X7815790Y-34725959D01*
X7764005Y-34679054D01*
X7745800Y-34611598D01*
X7751496Y-34582347D01*
X7750354Y-34582066D01*
X7752146Y-34574787D01*
X7752149Y-34574782D01*
X7771307Y-34417000D01*
X7764482Y-34360794D01*
X7752149Y-34259218D01*
X7747870Y-34247936D01*
X7695787Y-34110605D01*
X7605498Y-33979799D01*
X7605495Y-33979796D01*
X7605493Y-33979794D01*
X7486530Y-33874401D01*
X7345791Y-33800536D01*
X7191472Y-33762500D01*
X7191471Y-33762500D01*
X7051586Y-33762500D01*
X6984547Y-33742815D01*
X6938792Y-33690011D01*
X6928848Y-33620853D01*
X6935642Y-33594533D01*
X6964986Y-33517162D01*
X6984144Y-33359380D01*
X6964986Y-33201598D01*
X6908624Y-33052985D01*
X6907116Y-33050801D01*
X6818336Y-32922181D01*
X6818335Y-32922179D01*
X6818332Y-32922176D01*
X6818330Y-32922174D01*
X6699367Y-32816781D01*
X6558628Y-32742916D01*
X6404309Y-32704880D01*
X6404308Y-32704880D01*
X6245366Y-32704880D01*
X6245365Y-32704880D01*
X6091045Y-32742916D01*
X5950306Y-32816781D01*
X5831343Y-32922174D01*
X5831337Y-32922181D01*
X5741051Y-33052982D01*
X5684687Y-33201598D01*
X5665530Y-33359379D01*
X5665530Y-33359380D01*
X-16383178Y-33359380D01*
X-15709964Y-32613600D01*
X-13460907Y-32613600D01*
X-13441749Y-32771382D01*
X-13385387Y-32919995D01*
X-13295098Y-33050801D01*
X-13176129Y-33156199D01*
X-13035393Y-33230063D01*
X-12932511Y-33255420D01*
X-12881072Y-33268100D01*
X-12881071Y-33268100D01*
X-12722128Y-33268100D01*
X-12644967Y-33249081D01*
X-12567807Y-33230063D01*
X-12427071Y-33156199D01*
X-12427069Y-33156198D01*
X-12308106Y-33050805D01*
X-12308104Y-33050803D01*
X-12308102Y-33050801D01*
X-12219322Y-32922181D01*
X-12217814Y-32919997D01*
X-12161450Y-32771381D01*
X-12142293Y-32613600D01*
X-12142293Y-32613599D01*
X-12161450Y-32455818D01*
X-12217814Y-32307202D01*
X-12308100Y-32176401D01*
X-12308106Y-32176394D01*
X-12427069Y-32071001D01*
X-12567808Y-31997136D01*
X-12722128Y-31959100D01*
X-12722129Y-31959100D01*
X-12881071Y-31959100D01*
X-12881072Y-31959100D01*
X-13035391Y-31997136D01*
X-13176130Y-32071001D01*
X-13295093Y-32176394D01*
X-13295095Y-32176396D01*
X-13295098Y-32176399D01*
X-13385387Y-32307205D01*
X-13441749Y-32455818D01*
X-13460907Y-32613600D01*
X-15709964Y-32613600D01*
X-14701109Y-31496000D01*
X-9701707Y-31496000D01*
X-9682549Y-31653782D01*
X-9626187Y-31802395D01*
X-9535898Y-31933201D01*
X-9416929Y-32038599D01*
X-9276193Y-32112463D01*
X-9200981Y-32131001D01*
X-9121872Y-32150500D01*
X-9121871Y-32150500D01*
X-8962928Y-32150500D01*
X-8883819Y-32131001D01*
X-8883815Y-32131000D01*
X-151307Y-32131000D01*
X-132149Y-32288782D01*
X-75787Y-32437395D01*
X14502Y-32568201D01*
X14504Y-32568203D01*
X14506Y-32568205D01*
X133469Y-32673598D01*
X133471Y-32673599D01*
X274207Y-32747463D01*
X351368Y-32766481D01*
X428528Y-32785500D01*
X428529Y-32785500D01*
X587472Y-32785500D01*
X644754Y-32771381D01*
X741793Y-32747463D01*
X882529Y-32673599D01*
X1001498Y-32568201D01*
X1091787Y-32437395D01*
X1148149Y-32288782D01*
X1167307Y-32131000D01*
X1159901Y-32070009D01*
X1171361Y-32001089D01*
X1218264Y-31949303D01*
X1285720Y-31931095D01*
X1340621Y-31945267D01*
X1417207Y-31985463D01*
X1480604Y-32001089D01*
X1571528Y-32023500D01*
X1571529Y-32023500D01*
X1730472Y-32023500D01*
X1781911Y-32010821D01*
X1884793Y-31985463D01*
X2025529Y-31911599D01*
X2144498Y-31806201D01*
X2234787Y-31675395D01*
X2291149Y-31526782D01*
X2310307Y-31369000D01*
X2306569Y-31338218D01*
X2291149Y-31211218D01*
X2282951Y-31189602D01*
X2234787Y-31062605D01*
X2232156Y-31058794D01*
X2196751Y-31007500D01*
X2144498Y-30931799D01*
X2144495Y-30931796D01*
X2144493Y-30931794D01*
X2025530Y-30826401D01*
X1884791Y-30752536D01*
X1730472Y-30714500D01*
X1730471Y-30714500D01*
X1571529Y-30714500D01*
X1571528Y-30714500D01*
X1417208Y-30752536D01*
X1276469Y-30826401D01*
X1157506Y-30931794D01*
X1157500Y-30931801D01*
X1067214Y-31062602D01*
X1010850Y-31211218D01*
X991693Y-31368999D01*
X991693Y-31369000D01*
X999098Y-31429988D01*
X987637Y-31498911D01*
X940733Y-31550697D01*
X873278Y-31568904D01*
X818377Y-31554731D01*
X741791Y-31514536D01*
X587472Y-31476500D01*
X587471Y-31476500D01*
X428529Y-31476500D01*
X428528Y-31476500D01*
X274208Y-31514536D01*
X133469Y-31588401D01*
X14506Y-31693794D01*
X14500Y-31693801D01*
X-75785Y-31824602D01*
X-75787Y-31824605D01*
X-116971Y-31933198D01*
X-132149Y-31973218D01*
X-140087Y-32038598D01*
X-151307Y-32131000D01*
X-8883815Y-32131000D01*
X-8808607Y-32112463D01*
X-8667871Y-32038599D01*
X-8667869Y-32038598D01*
X-8548906Y-31933205D01*
X-8548904Y-31933203D01*
X-8548902Y-31933201D01*
X-8533991Y-31911599D01*
X-8458614Y-31802397D01*
X-8402250Y-31653781D01*
X-8383093Y-31496000D01*
X-8383093Y-31495999D01*
X-8402250Y-31338218D01*
X-8458614Y-31189602D01*
X-8548900Y-31058801D01*
X-8548906Y-31058794D01*
X-8667869Y-30953401D01*
X-8808608Y-30879536D01*
X-8962928Y-30841500D01*
X-8962929Y-30841500D01*
X-9121871Y-30841500D01*
X-9121872Y-30841500D01*
X-9276191Y-30879536D01*
X-9416930Y-30953401D01*
X-9535893Y-31058794D01*
X-9535895Y-31058796D01*
X-9535898Y-31058799D01*
X-9626187Y-31189605D01*
X-9682549Y-31338218D01*
X-9701707Y-31496000D01*
X-14701109Y-31496000D01*
X-13364809Y-30015660D01*
X-7226607Y-30015660D01*
X-7196332Y-30187354D01*
X-7127279Y-30347438D01*
X-7023168Y-30487283D01*
X-6889614Y-30599349D01*
X-6733815Y-30677594D01*
X-6564171Y-30717800D01*
X-6564169Y-30717800D01*
X-6433571Y-30717800D01*
X-6433564Y-30717800D01*
X-6303836Y-30702637D01*
X-6140007Y-30643008D01*
X-6114908Y-30626500D01*
X-5994348Y-30547207D01*
X-5994347Y-30547206D01*
X-5874706Y-30420396D01*
X-5874704Y-30420393D01*
X-5787533Y-30269407D01*
X-5746875Y-30133599D01*
X-5737531Y-30102389D01*
X-5737530Y-30102383D01*
X-5729936Y-29972000D01*
X-3707307Y-29972000D01*
X-3688149Y-30129782D01*
X-3631787Y-30278395D01*
X-3541498Y-30409201D01*
X-3422529Y-30514599D01*
X-3281793Y-30588463D01*
X-3178911Y-30613820D01*
X-3127472Y-30626500D01*
X-3127471Y-30626500D01*
X-2968528Y-30626500D01*
X-2891367Y-30607481D01*
X-2814207Y-30588463D01*
X-2673471Y-30514599D01*
X-2673469Y-30514598D01*
X-2554506Y-30409205D01*
X-2554504Y-30409203D01*
X-2554502Y-30409201D01*
X-2515709Y-30353000D01*
X14072693Y-30353000D01*
X14091850Y-30510781D01*
X14105665Y-30547206D01*
X14141997Y-30643006D01*
X14148214Y-30659397D01*
X14160775Y-30677594D01*
X14238502Y-30790201D01*
X14238504Y-30790203D01*
X14238506Y-30790205D01*
X14357469Y-30895598D01*
X14357471Y-30895599D01*
X14498207Y-30969463D01*
X14575368Y-30988481D01*
X14652528Y-31007500D01*
X14652529Y-31007500D01*
X14811472Y-31007500D01*
X14862911Y-30994820D01*
X14965793Y-30969463D01*
X15106529Y-30895599D01*
X15225498Y-30790201D01*
X15315787Y-30659395D01*
X15372149Y-30510782D01*
X15391307Y-30353000D01*
X15372149Y-30195218D01*
X15315787Y-30046605D01*
X15225498Y-29915799D01*
X15225495Y-29915796D01*
X15225493Y-29915794D01*
X15106530Y-29810401D01*
X14965791Y-29736536D01*
X14811472Y-29698500D01*
X14811471Y-29698500D01*
X14652529Y-29698500D01*
X14652528Y-29698500D01*
X14498208Y-29736536D01*
X14357469Y-29810401D01*
X14238506Y-29915794D01*
X14238500Y-29915801D01*
X14148214Y-30046602D01*
X14091850Y-30195218D01*
X14072693Y-30352999D01*
X14072693Y-30353000D01*
X-2515709Y-30353000D01*
X-2464214Y-30278397D01*
X-2451737Y-30245500D01*
X-2429685Y-30187354D01*
X-2407850Y-30129781D01*
X-2388693Y-29972000D01*
X-2388693Y-29971999D01*
X-2407850Y-29814218D01*
X-2464214Y-29665602D01*
X-2515708Y-29591000D01*
X23724693Y-29591000D01*
X23743850Y-29748781D01*
X23800214Y-29897397D01*
X23851709Y-29972000D01*
X23890502Y-30028201D01*
X23890504Y-30028203D01*
X23890506Y-30028205D01*
X24009469Y-30133598D01*
X24009471Y-30133599D01*
X24150207Y-30207463D01*
X24227367Y-30226481D01*
X24304528Y-30245500D01*
X24304529Y-30245500D01*
X24463472Y-30245500D01*
X24514911Y-30232820D01*
X24617793Y-30207463D01*
X24758529Y-30133599D01*
X24877498Y-30028201D01*
X24967787Y-29897395D01*
X25024149Y-29748782D01*
X25043307Y-29591000D01*
X25036482Y-29534794D01*
X25024149Y-29433218D01*
X25010335Y-29396795D01*
X24967787Y-29284605D01*
X24877498Y-29153799D01*
X24877495Y-29153796D01*
X24877493Y-29153794D01*
X24758530Y-29048401D01*
X24617791Y-28974536D01*
X24463472Y-28936500D01*
X24463471Y-28936500D01*
X24304529Y-28936500D01*
X24304528Y-28936500D01*
X24150208Y-28974536D01*
X24009469Y-29048401D01*
X23890506Y-29153794D01*
X23890500Y-29153801D01*
X23800214Y-29284602D01*
X23743850Y-29433218D01*
X23724693Y-29590999D01*
X23724693Y-29591000D01*
X-2515708Y-29591000D01*
X-2554500Y-29534801D01*
X-2554506Y-29534794D01*
X-2673469Y-29429401D01*
X-2814208Y-29355536D01*
X-2968528Y-29317500D01*
X-2968529Y-29317500D01*
X-3127471Y-29317500D01*
X-3127472Y-29317500D01*
X-3281791Y-29355536D01*
X-3422530Y-29429401D01*
X-3541493Y-29534794D01*
X-3541495Y-29534796D01*
X-3541498Y-29534799D01*
X-3631787Y-29665605D01*
X-3666315Y-29756647D01*
X-3688149Y-29814218D01*
X-3700482Y-29915794D01*
X-3707307Y-29972000D01*
X-5729936Y-29972000D01*
X-5727393Y-29928340D01*
X-5757667Y-29756650D01*
X-5757668Y-29756647D01*
X-5761061Y-29748782D01*
X-5826721Y-29596562D01*
X-5826724Y-29596556D01*
X-5930832Y-29456716D01*
X-6064385Y-29344651D01*
X-6064387Y-29344650D01*
X-6220181Y-29266407D01*
X-6220185Y-29266406D01*
X-6389829Y-29226200D01*
X-6520436Y-29226200D01*
X-6650164Y-29241362D01*
X-6650164Y-29241363D01*
X-6650167Y-29241364D01*
X-6813991Y-29300991D01*
X-6813995Y-29300993D01*
X-6959651Y-29396792D01*
X-6959652Y-29396793D01*
X-7079293Y-29523603D01*
X-7079293Y-29523604D01*
X-7079296Y-29523607D01*
X-7166467Y-29674593D01*
X-7216469Y-29841612D01*
X-7226607Y-30015660D01*
X-13364809Y-30015660D01*
X-11949685Y-28448000D01*
X11913693Y-28448000D01*
X11932850Y-28605781D01*
X11973427Y-28712773D01*
X11989213Y-28754395D01*
X12079502Y-28885201D01*
X12079504Y-28885203D01*
X12079506Y-28885205D01*
X12198469Y-28990598D01*
X12198471Y-28990599D01*
X12339207Y-29064463D01*
X12416368Y-29083481D01*
X12493528Y-29102500D01*
X12493529Y-29102500D01*
X12652472Y-29102500D01*
X12703911Y-29089820D01*
X12806793Y-29064463D01*
X12947529Y-28990599D01*
X13066498Y-28885201D01*
X13156787Y-28754395D01*
X13213149Y-28605782D01*
X13232307Y-28448000D01*
X13213149Y-28290218D01*
X13156787Y-28141605D01*
X13066498Y-28010799D01*
X13066495Y-28010796D01*
X13066493Y-28010794D01*
X12947530Y-27905401D01*
X12806791Y-27831536D01*
X12652472Y-27793500D01*
X12652471Y-27793500D01*
X12493529Y-27793500D01*
X12493528Y-27793500D01*
X12339208Y-27831536D01*
X12198469Y-27905401D01*
X12079506Y-28010794D01*
X12079500Y-28010801D01*
X11989214Y-28141602D01*
X11932850Y-28290218D01*
X11913693Y-28447999D01*
X11913693Y-28448000D01*
X-11949685Y-28448000D01*
X-10844394Y-27223569D01*
X-10784861Y-27186996D01*
X-10751701Y-27182660D01*
X34032169Y-27416733D01*
G37*
G04 #@! TD.AperFunction*
G04 #@! TA.AperFunction,Conductor*
G36*
X-36749297Y-21309785D02*
G01*
X-36716712Y-21354219D01*
X-36710720Y-21368056D01*
X-36688626Y-21408696D01*
X-36617163Y-21480424D01*
X-36608159Y-21486464D01*
X-36563453Y-21540153D01*
X-36554869Y-21609494D01*
X-36585137Y-21672467D01*
X-36596034Y-21683153D01*
X-36598748Y-21685505D01*
X-36651552Y-21731260D01*
X-36683670Y-21764546D01*
X-36683671Y-21764547D01*
X-36720626Y-21835191D01*
X-36769142Y-21885469D01*
X-36837139Y-21901536D01*
X-36903029Y-21878290D01*
X-36945891Y-21823112D01*
X-36954500Y-21777714D01*
X-36954500Y-21403498D01*
X-36934815Y-21336459D01*
X-36882011Y-21290704D01*
X-36812853Y-21280760D01*
X-36749297Y-21309785D01*
G37*
G04 #@! TD.AperFunction*
G04 #@! TA.AperFunction,Conductor*
G36*
X-14304798Y15709352D02*
G01*
X-14267420Y15661234D01*
X-14265601Y15662140D01*
X-14262887Y15656690D01*
X-14226285Y15598337D01*
X-14225759Y15597500D01*
X-14178007Y15541153D01*
X-14178005Y15541151D01*
X-14178000Y15541146D01*
X-14089839Y15463042D01*
X-14070017Y15440668D01*
X-14032628Y15386502D01*
X-14018736Y15360034D01*
X-13995399Y15298502D01*
X-13988245Y15269480D01*
X-13980312Y15204139D01*
X-13980312Y15174258D01*
X-13988244Y15108923D01*
X-13995395Y15079905D01*
X-14018742Y15018349D01*
X-14032624Y14991900D01*
X-14070017Y14937728D01*
X-14089829Y14915364D01*
X-14139098Y14871714D01*
X-14163685Y14854742D01*
X-14221978Y14824147D01*
X-14249915Y14813553D01*
X-14290663Y14803510D01*
X-14313822Y14797803D01*
X-14343495Y14794200D01*
X-14409303Y14794200D01*
X-14438978Y14797803D01*
X-14502879Y14813553D01*
X-14530829Y14824153D01*
X-14589099Y14854735D01*
X-14613701Y14871717D01*
X-14662957Y14915354D01*
X-14682779Y14937728D01*
X-14720171Y14991898D01*
X-14734064Y15018369D01*
X-14757398Y15079897D01*
X-14764552Y15108918D01*
X-14772486Y15174251D01*
X-14772486Y15204149D01*
X-14764552Y15269480D01*
X-14757398Y15298502D01*
X-14734062Y15360034D01*
X-14720171Y15386502D01*
X-14682787Y15440663D01*
X-14662964Y15463038D01*
X-14568122Y15547063D01*
X-14568121Y15547064D01*
X-14555628Y15559765D01*
X-14555627Y15559765D01*
X-14527736Y15592312D01*
X-14522729Y15598337D01*
X-14522728Y15598338D01*
X-14487201Y15666253D01*
X-14438685Y15716532D01*
X-14370687Y15732598D01*
X-14304798Y15709352D01*
G37*
G04 #@! TD.AperFunction*
G04 #@! TA.AperFunction,Conductor*
G36*
X34286539Y33053815D02*
G01*
X34332294Y33001011D01*
X34343500Y32949500D01*
X34343500Y-26984316D01*
X34323815Y-27051355D01*
X34271011Y-27097110D01*
X34266504Y-27099062D01*
X34180500Y-27134292D01*
X34149092Y-27142561D01*
X34104802Y-27148176D01*
X34037388Y-27156723D01*
X34029268Y-27157214D01*
X22837369Y-27098717D01*
X-10694619Y-26923454D01*
X-10694626Y-26923454D01*
X-10922000Y-26922267D01*
X-11074362Y-27091052D01*
X-11074363Y-27091053D01*
X-11120859Y-27142561D01*
X-17072906Y-33736181D01*
X-17079203Y-33742239D01*
X-17171844Y-33819580D01*
X-17201440Y-33837921D01*
X-17299840Y-33881147D01*
X-17333367Y-33890536D01*
X-17387252Y-33897701D01*
X-17453002Y-33906443D01*
X-17461699Y-33906981D01*
X-24128362Y-33849180D01*
X-36378375Y-33742971D01*
X-36445241Y-33722706D01*
X-36490537Y-33669508D01*
X-36501300Y-33618976D01*
X-36501300Y-32131000D01*
X-35330307Y-32131000D01*
X-35311149Y-32288782D01*
X-35254787Y-32437395D01*
X-35164498Y-32568201D01*
X-35045529Y-32673599D01*
X-34904793Y-32747463D01*
X-34807750Y-32771382D01*
X-34750472Y-32785500D01*
X-34750471Y-32785500D01*
X-34591528Y-32785500D01*
X-34514368Y-32766481D01*
X-34437207Y-32747463D01*
X-34296471Y-32673599D01*
X-34181725Y-32571942D01*
X-34118495Y-32542222D01*
X-34049231Y-32551405D01*
X-34017275Y-32571941D01*
X-33902529Y-32673599D01*
X-33761793Y-32747463D01*
X-33664750Y-32771382D01*
X-33607472Y-32785500D01*
X-33607471Y-32785500D01*
X-33448528Y-32785500D01*
X-33371367Y-32766481D01*
X-33294207Y-32747463D01*
X-33153471Y-32673599D01*
X-33038725Y-32571942D01*
X-32975495Y-32542222D01*
X-32906231Y-32551405D01*
X-32874275Y-32571941D01*
X-32759529Y-32673599D01*
X-32618793Y-32747463D01*
X-32521750Y-32771382D01*
X-32464472Y-32785500D01*
X-32464471Y-32785500D01*
X-32305528Y-32785500D01*
X-32228367Y-32766481D01*
X-32151207Y-32747463D01*
X-32010471Y-32673599D01*
X-32010469Y-32673598D01*
X-31891506Y-32568205D01*
X-31891504Y-32568203D01*
X-31891502Y-32568201D01*
X-31801213Y-32437395D01*
X-31785427Y-32395773D01*
X-31744850Y-32288781D01*
X-31725693Y-32131000D01*
X-31725693Y-32130999D01*
X-31744850Y-31973218D01*
X-31801214Y-31824602D01*
X-31891500Y-31693801D01*
X-31891506Y-31693794D01*
X-32010469Y-31588401D01*
X-32151208Y-31514536D01*
X-32305528Y-31476500D01*
X-32305529Y-31476500D01*
X-32464471Y-31476500D01*
X-32464472Y-31476500D01*
X-32618791Y-31514536D01*
X-32759530Y-31588401D01*
X-32874273Y-31690055D01*
X-32937506Y-31719777D01*
X-33006769Y-31710593D01*
X-33038727Y-31690055D01*
X-33153469Y-31588401D01*
X-33294208Y-31514536D01*
X-33448528Y-31476500D01*
X-33448529Y-31476500D01*
X-33607471Y-31476500D01*
X-33607472Y-31476500D01*
X-33761791Y-31514536D01*
X-33902530Y-31588401D01*
X-34017273Y-31690055D01*
X-34080506Y-31719777D01*
X-34149769Y-31710593D01*
X-34181727Y-31690055D01*
X-34296469Y-31588401D01*
X-34437208Y-31514536D01*
X-34591528Y-31476500D01*
X-34591529Y-31476500D01*
X-34750471Y-31476500D01*
X-34750472Y-31476500D01*
X-34904791Y-31514536D01*
X-35045530Y-31588401D01*
X-35164493Y-31693794D01*
X-35164495Y-31693796D01*
X-35164498Y-31693799D01*
X-35254787Y-31824605D01*
X-35311149Y-31973218D01*
X-35330307Y-32131000D01*
X-36501300Y-32131000D01*
X-36501300Y-26009600D01*
X-9752507Y-26009600D01*
X-9733349Y-26167382D01*
X-9676987Y-26315995D01*
X-9586698Y-26446801D01*
X-9467729Y-26552199D01*
X-9326993Y-26626063D01*
X-9224111Y-26651420D01*
X-9172672Y-26664100D01*
X-9172671Y-26664100D01*
X-9013728Y-26664100D01*
X-8936567Y-26645081D01*
X-8859407Y-26626063D01*
X-8718671Y-26552199D01*
X-8718669Y-26552198D01*
X-8599706Y-26446805D01*
X-8599704Y-26446803D01*
X-8599702Y-26446801D01*
X-8509413Y-26315995D01*
X-8490332Y-26265682D01*
X-8453050Y-26167381D01*
X-8433893Y-26009600D01*
X-8433893Y-26009599D01*
X-8453050Y-25851818D01*
X-8509414Y-25703202D01*
X-8546676Y-25649219D01*
X-1370263Y-25649219D01*
X-1351105Y-25807001D01*
X-1294743Y-25955614D01*
X-1204454Y-26086420D01*
X-1085485Y-26191818D01*
X-944749Y-26265682D01*
X-841867Y-26291040D01*
X-790428Y-26303719D01*
X-790427Y-26303719D01*
X-631484Y-26303719D01*
X-554323Y-26284700D01*
X-477163Y-26265682D01*
X-345536Y-26196599D01*
X-336425Y-26191817D01*
X-217462Y-26086424D01*
X-217460Y-26086422D01*
X-217458Y-26086420D01*
X-127169Y-25955614D01*
X-72620Y-25811782D01*
X-70806Y-25807000D01*
X-52229Y-25654000D01*
X13056693Y-25654000D01*
X13075850Y-25811781D01*
X13116427Y-25918773D01*
X13132213Y-25960395D01*
X13222502Y-26091201D01*
X13222504Y-26091203D01*
X13222506Y-26091205D01*
X13341469Y-26196598D01*
X13341471Y-26196599D01*
X13482207Y-26270463D01*
X13559368Y-26289481D01*
X13636528Y-26308500D01*
X13636529Y-26308500D01*
X13795472Y-26308500D01*
X13846911Y-26295821D01*
X13949793Y-26270463D01*
X14090529Y-26196599D01*
X14209498Y-26091201D01*
X14299787Y-25960395D01*
X14356149Y-25811782D01*
X14375307Y-25654000D01*
X14374726Y-25649219D01*
X14356149Y-25496218D01*
X14317055Y-25393137D01*
X14299787Y-25347605D01*
X14209498Y-25216799D01*
X14209495Y-25216796D01*
X14209493Y-25216794D01*
X14090530Y-25111401D01*
X13949791Y-25037536D01*
X13795472Y-24999500D01*
X13795471Y-24999500D01*
X13636529Y-24999500D01*
X13636528Y-24999500D01*
X13482208Y-25037536D01*
X13341469Y-25111401D01*
X13222506Y-25216794D01*
X13222500Y-25216801D01*
X13132214Y-25347602D01*
X13075850Y-25496218D01*
X13056693Y-25653999D01*
X13056693Y-25654000D01*
X-52229Y-25654000D01*
X-51649Y-25649219D01*
X-51649Y-25649218D01*
X-70806Y-25491437D01*
X-127170Y-25342821D01*
X-217456Y-25212020D01*
X-217462Y-25212013D01*
X-336425Y-25106620D01*
X-477164Y-25032755D01*
X-631484Y-24994719D01*
X-631485Y-24994719D01*
X-768188Y-24994719D01*
X-835227Y-24975034D01*
X-850373Y-24957554D01*
X-865055Y-24989703D01*
X-923833Y-25027477D01*
X-929093Y-25028897D01*
X-944746Y-25032755D01*
X-944749Y-25032756D01*
X-1018296Y-25071356D01*
X-1085486Y-25106620D01*
X-1204449Y-25212013D01*
X-1204451Y-25212015D01*
X-1204454Y-25212018D01*
X-1294743Y-25342824D01*
X-1351104Y-25491437D01*
X-1351105Y-25491437D01*
X-1360935Y-25572399D01*
X-1370263Y-25649219D01*
X-8546676Y-25649219D01*
X-8599700Y-25572401D01*
X-8599706Y-25572394D01*
X-8718669Y-25467001D01*
X-8859408Y-25393136D01*
X-9013728Y-25355100D01*
X-9013729Y-25355100D01*
X-9172671Y-25355100D01*
X-9172672Y-25355100D01*
X-9326991Y-25393136D01*
X-9467730Y-25467001D01*
X-9586693Y-25572394D01*
X-9586695Y-25572396D01*
X-9586698Y-25572399D01*
X-9676987Y-25703205D01*
X-9716352Y-25807001D01*
X-9733349Y-25851818D01*
X-9746532Y-25960395D01*
X-9752507Y-26009600D01*
X-36501300Y-26009600D01*
X-36501300Y-21994416D01*
X-36481615Y-21927377D01*
X-36428811Y-21881622D01*
X-36359653Y-21871678D01*
X-36296097Y-21900703D01*
X-36258323Y-21959481D01*
X-36254935Y-21974345D01*
X-36203080Y-22290649D01*
X-36108667Y-22630693D01*
X-35978042Y-22958536D01*
X-35812737Y-23270334D01*
X-35614690Y-23562432D01*
X-35386223Y-23831405D01*
X-35130013Y-24074100D01*
X-34849066Y-24287670D01*
X-34849049Y-24287680D01*
X-34849045Y-24287683D01*
X-34770740Y-24334797D01*
X-34546674Y-24469613D01*
X-34226384Y-24617795D01*
X-33891950Y-24730479D01*
X-33547293Y-24806344D01*
X-33196454Y-24844500D01*
X-33196448Y-24844500D01*
X-32843552Y-24844500D01*
X-32843546Y-24844500D01*
X-32492707Y-24806344D01*
X-32148050Y-24730479D01*
X-31813616Y-24617795D01*
X-31712470Y-24571000D01*
X-31493334Y-24469617D01*
X-31493330Y-24469614D01*
X-31493326Y-24469613D01*
X-31486656Y-24465600D01*
X-31190954Y-24287683D01*
X-31190942Y-24287675D01*
X-31190934Y-24287670D01*
X-30983522Y-24130000D01*
X-1675307Y-24130000D01*
X-1656149Y-24287782D01*
X-1599787Y-24436395D01*
X-1509498Y-24567201D01*
X-1390529Y-24672599D01*
X-1249793Y-24746463D01*
X-1146911Y-24771821D01*
X-1095472Y-24784500D01*
X-958768Y-24784500D01*
X-891729Y-24804185D01*
X-876582Y-24821664D01*
X-861901Y-24789516D01*
X-803123Y-24751742D01*
X-797863Y-24750322D01*
X-794435Y-24749477D01*
X-782207Y-24746463D01*
X-641471Y-24672599D01*
X-641469Y-24672598D01*
X-522506Y-24567205D01*
X-522504Y-24567203D01*
X-522502Y-24567201D01*
X-462462Y-24480218D01*
X-432214Y-24436397D01*
X-375850Y-24287781D01*
X-356693Y-24130000D01*
X-356693Y-24129999D01*
X-369028Y-24028402D01*
X8840293Y-24028402D01*
X8859450Y-24186183D01*
X8897940Y-24287670D01*
X8914602Y-24331605D01*
X8915814Y-24334799D01*
X8991943Y-24445091D01*
X9006102Y-24465603D01*
X9006104Y-24465605D01*
X9006106Y-24465607D01*
X9125069Y-24571000D01*
X9125071Y-24571001D01*
X9265807Y-24644865D01*
X9342968Y-24663883D01*
X9420128Y-24682902D01*
X9420129Y-24682902D01*
X9579072Y-24682902D01*
X9630511Y-24670222D01*
X9733393Y-24644865D01*
X9746473Y-24638000D01*
X20803693Y-24638000D01*
X20822850Y-24795781D01*
X20879214Y-24944397D01*
X20910487Y-24989703D01*
X20969502Y-25075201D01*
X20969504Y-25075203D01*
X20969506Y-25075205D01*
X21088469Y-25180598D01*
X21088471Y-25180599D01*
X21229207Y-25254463D01*
X21306368Y-25273481D01*
X21383528Y-25292500D01*
X21383529Y-25292500D01*
X21542472Y-25292500D01*
X21593911Y-25279821D01*
X21696793Y-25254463D01*
X21837529Y-25180599D01*
X21956498Y-25075201D01*
X22046787Y-24944395D01*
X22103149Y-24795782D01*
X22122307Y-24638000D01*
X22103149Y-24480218D01*
X22046787Y-24331605D01*
X21956498Y-24200799D01*
X21956495Y-24200796D01*
X21956493Y-24200794D01*
X21837530Y-24095401D01*
X21696791Y-24021536D01*
X21542472Y-23983500D01*
X21542471Y-23983500D01*
X21383529Y-23983500D01*
X21383528Y-23983500D01*
X21229208Y-24021536D01*
X21088469Y-24095401D01*
X20969506Y-24200794D01*
X20969500Y-24200801D01*
X20879214Y-24331602D01*
X20822850Y-24480218D01*
X20803693Y-24637999D01*
X20803693Y-24638000D01*
X9746473Y-24638000D01*
X9874129Y-24571001D01*
X9993098Y-24465603D01*
X10083387Y-24334797D01*
X10139749Y-24186184D01*
X10158907Y-24028402D01*
X10158073Y-24021537D01*
X10139749Y-23870620D01*
X10083387Y-23722007D01*
X9993098Y-23591201D01*
X9993095Y-23591198D01*
X9993093Y-23591196D01*
X9874130Y-23485803D01*
X9733391Y-23411938D01*
X9579072Y-23373902D01*
X9579071Y-23373902D01*
X9420129Y-23373902D01*
X9420128Y-23373902D01*
X9265808Y-23411938D01*
X9125069Y-23485803D01*
X9006106Y-23591196D01*
X9006100Y-23591203D01*
X8915814Y-23722004D01*
X8859450Y-23870620D01*
X8840293Y-24028401D01*
X8840293Y-24028402D01*
X-369028Y-24028402D01*
X-375850Y-23972218D01*
X-432214Y-23823602D01*
X-522500Y-23692801D01*
X-522506Y-23692794D01*
X-641469Y-23587401D01*
X-782208Y-23513536D01*
X-936528Y-23475500D01*
X-936529Y-23475500D01*
X-1095471Y-23475500D01*
X-1095472Y-23475500D01*
X-1249791Y-23513536D01*
X-1390530Y-23587401D01*
X-1509493Y-23692794D01*
X-1509495Y-23692796D01*
X-1509498Y-23692799D01*
X-1599787Y-23823605D01*
X-1656149Y-23972217D01*
X-1656149Y-23972218D01*
X-1668520Y-24074107D01*
X-1675307Y-24130000D01*
X-30983522Y-24130000D01*
X-30909987Y-24074100D01*
X-30653777Y-23831405D01*
X-30653769Y-23831396D01*
X-30425316Y-23562440D01*
X-30425308Y-23562430D01*
X-30227267Y-23270342D01*
X-30227266Y-23270339D01*
X-30061962Y-22958544D01*
X-30061953Y-22958526D01*
X-29931331Y-22630689D01*
X-29931330Y-22630687D01*
X-29836922Y-22290657D01*
X-29836917Y-22290636D01*
X-29779827Y-21942404D01*
X-29779826Y-21942387D01*
X-29776161Y-21874801D01*
X-29760720Y-21590000D01*
X-29768983Y-21437600D01*
X-11124107Y-21437600D01*
X-11104949Y-21595382D01*
X-11048587Y-21743995D01*
X-10958298Y-21874801D01*
X-10839329Y-21980199D01*
X-10698593Y-22054063D01*
X-10595711Y-22079420D01*
X-10544272Y-22092100D01*
X-10544271Y-22092100D01*
X-10385328Y-22092100D01*
X-10308168Y-22073081D01*
X-10231007Y-22054063D01*
X-10090271Y-21980199D01*
X-10090269Y-21980198D01*
X-9971306Y-21874805D01*
X-9971304Y-21874803D01*
X-9971302Y-21874801D01*
X-9881013Y-21743995D01*
X-9865227Y-21702373D01*
X-9824650Y-21595381D01*
X-9823997Y-21590000D01*
X23410720Y-21590000D01*
X23426161Y-21874801D01*
X23429826Y-21942387D01*
X23429827Y-21942404D01*
X23486917Y-22290636D01*
X23486922Y-22290657D01*
X23581330Y-22630687D01*
X23581331Y-22630689D01*
X23711953Y-22958526D01*
X23711962Y-22958544D01*
X23877266Y-23270339D01*
X23877267Y-23270342D01*
X24075308Y-23562430D01*
X24075316Y-23562440D01*
X24303769Y-23831396D01*
X24303777Y-23831405D01*
X24559987Y-24074100D01*
X24840934Y-24287670D01*
X24840942Y-24287675D01*
X24840954Y-24287683D01*
X25136656Y-24465600D01*
X25143326Y-24469613D01*
X25143330Y-24469614D01*
X25143334Y-24469617D01*
X25362470Y-24571000D01*
X25463616Y-24617795D01*
X25798050Y-24730479D01*
X26142707Y-24806344D01*
X26493546Y-24844500D01*
X26493552Y-24844500D01*
X26846448Y-24844500D01*
X26846454Y-24844500D01*
X27197293Y-24806344D01*
X27541950Y-24730479D01*
X27876384Y-24617795D01*
X28196674Y-24469613D01*
X28420740Y-24334797D01*
X28499045Y-24287683D01*
X28499049Y-24287680D01*
X28499066Y-24287670D01*
X28780013Y-24074100D01*
X29036223Y-23831405D01*
X29264690Y-23562432D01*
X29462737Y-23270334D01*
X29628042Y-22958536D01*
X29758667Y-22630693D01*
X29853080Y-22290649D01*
X29910174Y-21942390D01*
X29929280Y-21590000D01*
X29910174Y-21237610D01*
X29904933Y-21205644D01*
X29853082Y-20889363D01*
X29853081Y-20889362D01*
X29853080Y-20889351D01*
X29810563Y-20736222D01*
X29758669Y-20549312D01*
X29758668Y-20549310D01*
X29628046Y-20221473D01*
X29628037Y-20221455D01*
X29462737Y-19909666D01*
X29462733Y-19909660D01*
X29462732Y-19909657D01*
X29264691Y-19617569D01*
X29264683Y-19617559D01*
X29036230Y-19348603D01*
X29036225Y-19348597D01*
X29025669Y-19338598D01*
X28780013Y-19105900D01*
X28780006Y-19105894D01*
X28780003Y-19105892D01*
X28608336Y-18975395D01*
X28499066Y-18892330D01*
X28499060Y-18892326D01*
X28499045Y-18892316D01*
X28196678Y-18710389D01*
X28196665Y-18710382D01*
X27876394Y-18562209D01*
X27876389Y-18562207D01*
X27876384Y-18562205D01*
X27713366Y-18507278D01*
X27541949Y-18449520D01*
X27197291Y-18373655D01*
X26846455Y-18335500D01*
X26846454Y-18335500D01*
X26493546Y-18335500D01*
X26493544Y-18335500D01*
X26142708Y-18373655D01*
X25798050Y-18449520D01*
X25539525Y-18536628D01*
X25463616Y-18562205D01*
X25463613Y-18562206D01*
X25463605Y-18562209D01*
X25143334Y-18710382D01*
X25143321Y-18710389D01*
X24840954Y-18892316D01*
X24840938Y-18892327D01*
X24559996Y-19105892D01*
X24559987Y-19105900D01*
X24303774Y-19348597D01*
X24303769Y-19348603D01*
X24075316Y-19617559D01*
X24075308Y-19617569D01*
X23877267Y-19909657D01*
X23877266Y-19909660D01*
X23711962Y-20221455D01*
X23711953Y-20221473D01*
X23581331Y-20549310D01*
X23581330Y-20549312D01*
X23486922Y-20889342D01*
X23486917Y-20889363D01*
X23429827Y-21237595D01*
X23429826Y-21237608D01*
X23429826Y-21237610D01*
X23410720Y-21590000D01*
X-9823997Y-21590000D01*
X-9805493Y-21437600D01*
X-9805493Y-21437599D01*
X-9824650Y-21279818D01*
X-9881014Y-21131202D01*
X-9971300Y-21000401D01*
X-9971306Y-21000394D01*
X-10090269Y-20895001D01*
X-10231008Y-20821136D01*
X-10385328Y-20783100D01*
X-10385329Y-20783100D01*
X-10544271Y-20783100D01*
X-10544272Y-20783100D01*
X-10698591Y-20821136D01*
X-10839330Y-20895001D01*
X-10958293Y-21000394D01*
X-10958295Y-21000396D01*
X-10958298Y-21000399D01*
X-11048587Y-21131205D01*
X-11104949Y-21279818D01*
X-11124107Y-21437600D01*
X-29768983Y-21437600D01*
X-29779826Y-21237610D01*
X-29779826Y-21237608D01*
X-29779827Y-21237595D01*
X-29836917Y-20889363D01*
X-29836922Y-20889342D01*
X-29931330Y-20549312D01*
X-29931331Y-20549310D01*
X-30061953Y-20221473D01*
X-30061962Y-20221455D01*
X-30227266Y-19909660D01*
X-30227267Y-19909657D01*
X-30425308Y-19617569D01*
X-30425316Y-19617559D01*
X-30653769Y-19348603D01*
X-30653774Y-19348597D01*
X-30909987Y-19105900D01*
X-30909996Y-19105892D01*
X-31190938Y-18892327D01*
X-31190954Y-18892316D01*
X-31493321Y-18710389D01*
X-31493334Y-18710382D01*
X-31582780Y-18669000D01*
X-19836307Y-18669000D01*
X-19817149Y-18826782D01*
X-19760787Y-18975395D01*
X-19670498Y-19106201D01*
X-19551529Y-19211599D01*
X-19410793Y-19285463D01*
X-19307911Y-19310820D01*
X-19256472Y-19323500D01*
X-19256471Y-19323500D01*
X-19097528Y-19323500D01*
X-19020368Y-19304481D01*
X-18943207Y-19285463D01*
X-18802471Y-19211599D01*
X-18802469Y-19211598D01*
X-18683506Y-19106205D01*
X-18683504Y-19106203D01*
X-18683502Y-19106201D01*
X-18669343Y-19085689D01*
X-18593214Y-18975397D01*
X-18536850Y-18826781D01*
X-18533113Y-18796000D01*
X-16407307Y-18796000D01*
X-16388149Y-18953782D01*
X-16331787Y-19102395D01*
X-16241498Y-19233201D01*
X-16122529Y-19338599D01*
X-15981793Y-19412463D01*
X-15878911Y-19437820D01*
X-15827472Y-19450500D01*
X-15827471Y-19450500D01*
X-15668528Y-19450500D01*
X-15591368Y-19431481D01*
X-15514207Y-19412463D01*
X-15373471Y-19338599D01*
X-15373469Y-19338598D01*
X-15254506Y-19233205D01*
X-15254504Y-19233203D01*
X-15254502Y-19233201D01*
X-15239591Y-19211599D01*
X-15164214Y-19102397D01*
X-15107850Y-18953781D01*
X-15104113Y-18923000D01*
X-5231307Y-18923000D01*
X-5212149Y-19080782D01*
X-5155787Y-19229395D01*
X-5065498Y-19360201D01*
X-4946529Y-19465599D01*
X-4805793Y-19539463D01*
X-4702911Y-19564821D01*
X-4651472Y-19577500D01*
X-4651471Y-19577500D01*
X-4492528Y-19577500D01*
X-4415368Y-19558481D01*
X-4338207Y-19539463D01*
X-4197471Y-19465599D01*
X-4197469Y-19465598D01*
X-4078506Y-19360205D01*
X-4078504Y-19360203D01*
X-4078502Y-19360201D01*
X-4063591Y-19338599D01*
X-3988214Y-19229397D01*
X-3981463Y-19211598D01*
X-3972427Y-19187773D01*
X-3931850Y-19080781D01*
X-3912693Y-18923000D01*
X-3912693Y-18922999D01*
X-3928113Y-18796000D01*
X6198693Y-18796000D01*
X6217850Y-18953781D01*
X6274214Y-19102397D01*
X6349591Y-19211599D01*
X6364502Y-19233201D01*
X6364504Y-19233203D01*
X6364506Y-19233205D01*
X6483469Y-19338598D01*
X6483471Y-19338599D01*
X6624207Y-19412463D01*
X6701368Y-19431481D01*
X6778528Y-19450500D01*
X6778529Y-19450500D01*
X6937472Y-19450500D01*
X6988911Y-19437820D01*
X7091793Y-19412463D01*
X7232529Y-19338599D01*
X7351498Y-19233201D01*
X7441787Y-19102395D01*
X7498149Y-18953782D01*
X7517307Y-18796000D01*
X7513569Y-18765218D01*
X7498149Y-18638218D01*
X7489951Y-18616602D01*
X7441787Y-18489605D01*
X7439156Y-18485794D01*
X7351499Y-18358801D01*
X7351498Y-18358799D01*
X7351495Y-18358796D01*
X7351493Y-18358794D01*
X7232530Y-18253401D01*
X7091791Y-18179536D01*
X6937472Y-18141500D01*
X6937471Y-18141500D01*
X6778529Y-18141500D01*
X6778528Y-18141500D01*
X6624208Y-18179536D01*
X6483469Y-18253401D01*
X6364506Y-18358794D01*
X6364500Y-18358801D01*
X6274214Y-18489602D01*
X6217850Y-18638218D01*
X6198693Y-18795999D01*
X6198693Y-18796000D01*
X-3928113Y-18796000D01*
X-3931850Y-18765218D01*
X-3988214Y-18616602D01*
X-4078500Y-18485801D01*
X-4078506Y-18485794D01*
X-4197469Y-18380401D01*
X-4338208Y-18306536D01*
X-4492528Y-18268500D01*
X-4492529Y-18268500D01*
X-4651471Y-18268500D01*
X-4651472Y-18268500D01*
X-4805791Y-18306536D01*
X-4946530Y-18380401D01*
X-5065493Y-18485794D01*
X-5065495Y-18485796D01*
X-5065498Y-18485799D01*
X-5155787Y-18616605D01*
X-5212149Y-18765218D01*
X-5231307Y-18923000D01*
X-15104113Y-18923000D01*
X-15088693Y-18796000D01*
X-15088693Y-18795999D01*
X-15107850Y-18638218D01*
X-15164214Y-18489602D01*
X-15254500Y-18358801D01*
X-15254506Y-18358794D01*
X-15373469Y-18253401D01*
X-15514208Y-18179536D01*
X-15668528Y-18141500D01*
X-15668529Y-18141500D01*
X-15827471Y-18141500D01*
X-15827472Y-18141500D01*
X-15981791Y-18179536D01*
X-16122530Y-18253401D01*
X-16241493Y-18358794D01*
X-16241495Y-18358796D01*
X-16241498Y-18358799D01*
X-16241499Y-18358801D01*
X-16329156Y-18485794D01*
X-16331787Y-18489605D01*
X-16379951Y-18616602D01*
X-16388149Y-18638218D01*
X-16403569Y-18765218D01*
X-16407307Y-18796000D01*
X-18533113Y-18796000D01*
X-18532497Y-18790928D01*
X-18504874Y-18726750D01*
X-18446939Y-18687694D01*
X-18379723Y-18685480D01*
X-18367472Y-18688500D01*
X-18367471Y-18688500D01*
X-18208528Y-18688500D01*
X-18131367Y-18669481D01*
X-18054207Y-18650463D01*
X-17913471Y-18576599D01*
X-17913469Y-18576598D01*
X-17794506Y-18471205D01*
X-17794504Y-18471203D01*
X-17794502Y-18471201D01*
X-17727171Y-18373656D01*
X-17704214Y-18340397D01*
X-17647850Y-18191781D01*
X-17628693Y-18034000D01*
X-17628693Y-18033999D01*
X-17647850Y-17876218D01*
X-17704214Y-17727602D01*
X-17794500Y-17596801D01*
X-17794506Y-17596794D01*
X-17913469Y-17491401D01*
X-18054208Y-17417536D01*
X-18208528Y-17379500D01*
X-18208529Y-17379500D01*
X-18367471Y-17379500D01*
X-18367472Y-17379500D01*
X-18521791Y-17417536D01*
X-18662530Y-17491401D01*
X-18781493Y-17596794D01*
X-18781495Y-17596796D01*
X-18781498Y-17596799D01*
X-18871787Y-17727605D01*
X-18928149Y-17876217D01*
X-18928149Y-17876218D01*
X-18932502Y-17912069D01*
X-18960123Y-17976247D01*
X-19018057Y-18015304D01*
X-19085268Y-18017521D01*
X-19097525Y-18014500D01*
X-19097529Y-18014500D01*
X-19256471Y-18014500D01*
X-19256472Y-18014500D01*
X-19410791Y-18052536D01*
X-19551530Y-18126401D01*
X-19670493Y-18231794D01*
X-19670495Y-18231796D01*
X-19670498Y-18231799D01*
X-19670499Y-18231801D01*
X-19758156Y-18358794D01*
X-19760787Y-18362605D01*
X-19808951Y-18489602D01*
X-19817149Y-18511218D01*
X-19832569Y-18638218D01*
X-19836307Y-18669000D01*
X-31582780Y-18669000D01*
X-31813605Y-18562209D01*
X-31813613Y-18562206D01*
X-31813616Y-18562205D01*
X-31889525Y-18536628D01*
X-32148050Y-18449520D01*
X-32492708Y-18373655D01*
X-32843544Y-18335500D01*
X-32843546Y-18335500D01*
X-33196454Y-18335500D01*
X-33196455Y-18335500D01*
X-33547291Y-18373655D01*
X-33891949Y-18449520D01*
X-34063366Y-18507278D01*
X-34226384Y-18562205D01*
X-34226389Y-18562207D01*
X-34226394Y-18562209D01*
X-34546665Y-18710382D01*
X-34546678Y-18710389D01*
X-34849045Y-18892316D01*
X-34849060Y-18892326D01*
X-34849066Y-18892330D01*
X-34958336Y-18975395D01*
X-35130003Y-19105892D01*
X-35130006Y-19105894D01*
X-35130013Y-19105900D01*
X-35375669Y-19338598D01*
X-35386225Y-19348597D01*
X-35386230Y-19348603D01*
X-35614683Y-19617559D01*
X-35614691Y-19617569D01*
X-35812732Y-19909657D01*
X-35812733Y-19909660D01*
X-35812737Y-19909666D01*
X-35978037Y-20221455D01*
X-35978046Y-20221473D01*
X-36108668Y-20549310D01*
X-36108669Y-20549312D01*
X-36160563Y-20736222D01*
X-36203080Y-20889351D01*
X-36203081Y-20889362D01*
X-36203082Y-20889363D01*
X-36254934Y-21205644D01*
X-36285205Y-21268616D01*
X-36344715Y-21305225D01*
X-36414571Y-21303849D01*
X-36472594Y-21264924D01*
X-36500362Y-21200809D01*
X-36501300Y-21185583D01*
X-36501300Y-16408400D01*
X-35396892Y-16408400D01*
X-35377761Y-16627074D01*
X-35320947Y-16839103D01*
X-35228179Y-17038046D01*
X-35102274Y-17217857D01*
X-34947057Y-17373074D01*
X-34767246Y-17498979D01*
X-34568303Y-17591747D01*
X-34356274Y-17648561D01*
X-34192268Y-17662909D01*
X-34137602Y-17667692D01*
X-34137600Y-17667692D01*
X-34137598Y-17667692D01*
X-34075121Y-17662225D01*
X-33918926Y-17648561D01*
X-33706897Y-17591747D01*
X-33507954Y-17498979D01*
X-33507951Y-17498977D01*
X-33507949Y-17498976D01*
X-33328147Y-17373077D01*
X-33328141Y-17373072D01*
X-33172927Y-17217858D01*
X-33172922Y-17217852D01*
X-33047023Y-17038050D01*
X-33047019Y-17038042D01*
X-32954255Y-16839108D01*
X-32954254Y-16839106D01*
X-32954253Y-16839103D01*
X-32897439Y-16627074D01*
X-32878308Y-16408400D01*
X-32878308Y-16408397D01*
X-32897438Y-16189731D01*
X-32897439Y-16189724D01*
X-32954255Y-15977691D01*
X-33047019Y-15778757D01*
X-33047023Y-15778749D01*
X-33172922Y-15598947D01*
X-33172927Y-15598941D01*
X-33328141Y-15443727D01*
X-33328147Y-15443722D01*
X-33507949Y-15317823D01*
X-33507957Y-15317819D01*
X-33706891Y-15225055D01*
X-33706895Y-15225053D01*
X-33706897Y-15225053D01*
X-33796502Y-15201042D01*
X-33918924Y-15168239D01*
X-33918931Y-15168238D01*
X-34137598Y-15149108D01*
X-34137602Y-15149108D01*
X-34356268Y-15168238D01*
X-34356275Y-15168239D01*
X-34417485Y-15184640D01*
X-34568303Y-15225053D01*
X-34568306Y-15225054D01*
X-34568308Y-15225055D01*
X-34767242Y-15317819D01*
X-34767250Y-15317823D01*
X-34947052Y-15443722D01*
X-34947058Y-15443727D01*
X-35102272Y-15598941D01*
X-35102277Y-15598947D01*
X-35228176Y-15778749D01*
X-35228177Y-15778751D01*
X-35228179Y-15778754D01*
X-35320947Y-15977697D01*
X-35377761Y-16189726D01*
X-35396892Y-16408400D01*
X-36501300Y-16408400D01*
X-36501300Y-14478000D01*
X-28345307Y-14478000D01*
X-28326149Y-14635782D01*
X-28269787Y-14784395D01*
X-28179498Y-14915201D01*
X-28060529Y-15020599D01*
X-27919793Y-15094463D01*
X-27816911Y-15119820D01*
X-27765472Y-15132500D01*
X-27765471Y-15132500D01*
X-27606528Y-15132500D01*
X-27529368Y-15113481D01*
X-27452207Y-15094463D01*
X-27311471Y-15020599D01*
X-27311469Y-15020598D01*
X-27192506Y-14915205D01*
X-27192504Y-14915203D01*
X-27192502Y-14915201D01*
X-27102213Y-14784395D01*
X-27086427Y-14742773D01*
X-27045850Y-14635781D01*
X-27026693Y-14478000D01*
X-27026693Y-14477999D01*
X-27045850Y-14320218D01*
X-27102214Y-14171602D01*
X-27192500Y-14040801D01*
X-27192506Y-14040794D01*
X-27311469Y-13935401D01*
X-27452208Y-13861536D01*
X-27606528Y-13823500D01*
X-27606529Y-13823500D01*
X-27765471Y-13823500D01*
X-27765472Y-13823500D01*
X-27919791Y-13861536D01*
X-28060530Y-13935401D01*
X-28179493Y-14040794D01*
X-28179495Y-14040796D01*
X-28179498Y-14040799D01*
X-28269787Y-14171605D01*
X-28326149Y-14320218D01*
X-28345307Y-14478000D01*
X-36501300Y-14478000D01*
X-36501300Y-10922000D01*
X-35422292Y-10922000D01*
X-35403161Y-11140674D01*
X-35346347Y-11352703D01*
X-35253579Y-11551646D01*
X-35127674Y-11731457D01*
X-34972457Y-11886674D01*
X-34792646Y-12012579D01*
X-34593703Y-12105347D01*
X-34381674Y-12162161D01*
X-34217668Y-12176509D01*
X-34163002Y-12181292D01*
X-34163000Y-12181292D01*
X-34162998Y-12181292D01*
X-34100521Y-12175825D01*
X-33944326Y-12162161D01*
X-33732297Y-12105347D01*
X-33533354Y-12012579D01*
X-33533351Y-12012577D01*
X-33533349Y-12012576D01*
X-33353547Y-11886677D01*
X-33353541Y-11886672D01*
X-33198327Y-11731458D01*
X-33198322Y-11731452D01*
X-33072423Y-11551650D01*
X-33072419Y-11551642D01*
X-32979655Y-11352708D01*
X-32979654Y-11352706D01*
X-32979653Y-11352703D01*
X-32922839Y-11140674D01*
X-32903708Y-10922000D01*
X-32905136Y-10905675D01*
X-32922838Y-10703331D01*
X-32922839Y-10703324D01*
X-32960157Y-10564055D01*
X-32979653Y-10491297D01*
X-32979653Y-10491295D01*
X-32979655Y-10491291D01*
X-33072419Y-10292357D01*
X-33072423Y-10292349D01*
X-33164970Y-10160179D01*
X-23119500Y-10160179D01*
X-23119222Y-10168668D01*
X-23118136Y-10185244D01*
X-23117303Y-10193696D01*
X-23100991Y-10317592D01*
X-23097676Y-10334256D01*
X-23097675Y-10334259D01*
X-23097675Y-10334260D01*
X-23084904Y-10381923D01*
X-23084904Y-10381924D01*
X-23079444Y-10398010D01*
X-23079444Y-10398008D01*
X-23079440Y-10398020D01*
X-23048073Y-10473745D01*
X-23034685Y-10506069D01*
X-23034685Y-10506068D01*
X-23027171Y-10521306D01*
X-23027170Y-10521307D01*
X-23002491Y-10564054D01*
X-23002490Y-10564055D01*
X-22993049Y-10578185D01*
X-22993049Y-10578184D01*
X-22921847Y-10670976D01*
X-22910645Y-10683749D01*
X-22875749Y-10718645D01*
X-22862976Y-10729847D01*
X-22770184Y-10801049D01*
X-22770185Y-10801049D01*
X-22760785Y-10807328D01*
X-22756056Y-10810489D01*
X-22756054Y-10810490D01*
X-22756055Y-10810490D01*
X-22713307Y-10835170D01*
X-22713306Y-10835171D01*
X-22698068Y-10842685D01*
X-22698069Y-10842685D01*
X-22665745Y-10856073D01*
X-22590020Y-10887440D01*
X-22590008Y-10887444D01*
X-22590010Y-10887444D01*
X-22573924Y-10892904D01*
X-22573923Y-10892904D01*
X-22526260Y-10905675D01*
X-22526256Y-10905676D01*
X-22509592Y-10908991D01*
X-22385696Y-10925303D01*
X-22377246Y-10926135D01*
X-22366196Y-10926859D01*
X-22360673Y-10927222D01*
X-22356426Y-10927361D01*
X-22352181Y-10927500D01*
X-22352180Y-10927500D01*
X-9143820Y-10927500D01*
X-9135330Y-10927222D01*
X-9118755Y-10926135D01*
X-9110303Y-10925303D01*
X-8986407Y-10908991D01*
X-8969743Y-10905676D01*
X-8969739Y-10905675D01*
X-8922076Y-10892904D01*
X-8922075Y-10892904D01*
X-8905989Y-10887444D01*
X-8905991Y-10887444D01*
X-8905979Y-10887440D01*
X-8830253Y-10856073D01*
X-8797930Y-10842685D01*
X-8797931Y-10842685D01*
X-8782693Y-10835171D01*
X-8782692Y-10835170D01*
X-8739944Y-10810490D01*
X-8739945Y-10810490D01*
X-8739943Y-10810489D01*
X-8735213Y-10807328D01*
X-8725814Y-10801049D01*
X-8725815Y-10801049D01*
X-8633023Y-10729847D01*
X-8620250Y-10718645D01*
X-8585354Y-10683749D01*
X-8574152Y-10670976D01*
X-8502950Y-10578184D01*
X-8502950Y-10578185D01*
X-8493509Y-10564055D01*
X-8493508Y-10564054D01*
X-8468829Y-10521307D01*
X-8468828Y-10521306D01*
X-8461314Y-10506068D01*
X-8461314Y-10506069D01*
X-8416563Y-10398030D01*
X-8416563Y-10398029D01*
X-8416562Y-10398027D01*
X-8416559Y-10398019D01*
X-8411098Y-10381931D01*
X-8411097Y-10381929D01*
X-8398324Y-10334257D01*
X-8398324Y-10334256D01*
X-8395009Y-10317594D01*
X-8395008Y-10317589D01*
X-8378697Y-10193694D01*
X-8377864Y-10185242D01*
X-8376778Y-10168665D01*
X-8376500Y-10160177D01*
X-8376500Y-5197500D01*
X-8356815Y-5130461D01*
X-8304011Y-5084706D01*
X-8234853Y-5074762D01*
X-8171297Y-5103787D01*
X-8137939Y-5150048D01*
X-8083934Y-5280427D01*
X-8083931Y-5280434D01*
X-7953823Y-5492752D01*
X-7792102Y-5682102D01*
X-7602752Y-5843823D01*
X-7390434Y-5973931D01*
X-7160377Y-6069224D01*
X-6918245Y-6127355D01*
X-6670000Y-6146892D01*
X-6421755Y-6127355D01*
X-6179623Y-6069224D01*
X-6021188Y-6003598D01*
X-5949570Y-5973933D01*
X-5949568Y-5973931D01*
X-5949566Y-5973931D01*
X-5737248Y-5843823D01*
X-5547898Y-5682102D01*
X-5386177Y-5492752D01*
X-5256069Y-5280434D01*
X-5256068Y-5280433D01*
X-5256066Y-5280429D01*
X-5160776Y-5050377D01*
X-5102644Y-4808241D01*
X-5083108Y-4560000D01*
X-5102644Y-4311758D01*
X-5160776Y-4069622D01*
X-5256066Y-3839570D01*
X-5386177Y-3627247D01*
X-5547898Y-3437898D01*
X-5737247Y-3276177D01*
X-5949570Y-3146066D01*
X-6179623Y-3050776D01*
X-6179621Y-3050776D01*
X-6421759Y-2992644D01*
X-6421757Y-2992644D01*
X-6670000Y-2973108D01*
X-6918241Y-2992644D01*
X-7160377Y-3050776D01*
X-7390429Y-3146066D01*
X-7390433Y-3146068D01*
X-7390434Y-3146069D01*
X-7602752Y-3276177D01*
X-7792102Y-3437898D01*
X-7953823Y-3627248D01*
X-8077171Y-3828536D01*
X-8083933Y-3839570D01*
X-8137939Y-3969952D01*
X-8181780Y-4024355D01*
X-8248074Y-4046420D01*
X-8315773Y-4029141D01*
X-8363384Y-3978004D01*
X-8376500Y-3922499D01*
X-8376500Y-558623D01*
X-8376778Y-550134D01*
X-8377864Y-533559D01*
X-8378697Y-525109D01*
X-8378697Y-525106D01*
X-8378697Y-525105D01*
X-8395008Y-401210D01*
X-8395010Y-401198D01*
X-8395011Y-401197D01*
X-8398322Y-384546D01*
X-8398323Y-384544D01*
X-8411094Y-336882D01*
X-8416556Y-320791D01*
X-8416558Y-320783D01*
X-8461316Y-212726D01*
X-8468828Y-197493D01*
X-8468828Y-197492D01*
X-8468829Y-197491D01*
X-8493507Y-154747D01*
X-8502953Y-140611D01*
X-8502954Y-140610D01*
X-8567648Y-56300D01*
X-8574150Y-47826D01*
X-8574153Y-47823D01*
X-8574152Y-47823D01*
X-8585354Y-35050D01*
X-8620250Y-154D01*
X-8633023Y11048D01*
X-8633023Y11047D01*
X-8633026Y11050D01*
X-8725814Y82249D01*
X-8739941Y91689D01*
X-8739946Y91692D01*
X-8739947Y91693D01*
X-8739945Y91692D01*
X-8778286Y113828D01*
X-8782687Y116369D01*
X-8797926Y123884D01*
X-8797930Y123886D01*
X-8905989Y168644D01*
X-8916204Y172111D01*
X-8922067Y174102D01*
X-8969739Y186877D01*
X-8972635Y187453D01*
X-8986404Y190192D01*
X-9017381Y194270D01*
X-9110312Y206505D01*
X-9118780Y207339D01*
X-9127068Y207881D01*
X-9135355Y208423D01*
X-9143828Y208700D01*
X-9143829Y208700D01*
X-22352171Y208700D01*
X-22352172Y208700D01*
X-22360646Y208423D01*
X-22368932Y207881D01*
X-22377220Y207339D01*
X-22385688Y206505D01*
X-22509591Y190192D01*
X-22526245Y186880D01*
X-22526244Y186880D01*
X-22526249Y186878D01*
X-22526252Y186878D01*
X-22526259Y186876D01*
X-22573922Y174106D01*
X-22573922Y174105D01*
X-22573928Y174104D01*
X-22589607Y168781D01*
X-22590021Y168641D01*
X-22590019Y168642D01*
X-22698078Y123883D01*
X-22698078Y123882D01*
X-22713312Y116370D01*
X-22756058Y91689D01*
X-22756057Y91690D01*
X-22770188Y82247D01*
X-22793660Y64236D01*
X-22862973Y11050D01*
X-22862976Y11047D01*
X-22862976Y11048D01*
X-22875749Y-154D01*
X-22910645Y-35050D01*
X-22921847Y-47823D01*
X-22993049Y-140615D01*
X-22993049Y-140614D01*
X-22999328Y-150013D01*
X-23002489Y-154743D01*
X-23002490Y-154745D01*
X-23002490Y-154744D01*
X-23027170Y-197492D01*
X-23027171Y-197493D01*
X-23034685Y-212730D01*
X-23034685Y-212731D01*
X-23079440Y-320779D01*
X-23079444Y-320791D01*
X-23079444Y-320789D01*
X-23084904Y-336875D01*
X-23084904Y-336876D01*
X-23097675Y-384539D01*
X-23097676Y-384543D01*
X-23100991Y-401207D01*
X-23117303Y-525103D01*
X-23118136Y-533555D01*
X-23119222Y-550131D01*
X-23119500Y-558620D01*
X-23119500Y-10160179D01*
X-33164970Y-10160179D01*
X-33198322Y-10112547D01*
X-33198327Y-10112541D01*
X-33353541Y-9957327D01*
X-33353547Y-9957322D01*
X-33533349Y-9831423D01*
X-33533357Y-9831419D01*
X-33732291Y-9738655D01*
X-33732295Y-9738653D01*
X-33732297Y-9738653D01*
X-33821902Y-9714642D01*
X-33944324Y-9681839D01*
X-33944331Y-9681838D01*
X-34162998Y-9662708D01*
X-34163002Y-9662708D01*
X-34381668Y-9681838D01*
X-34381675Y-9681839D01*
X-34442885Y-9698240D01*
X-34593703Y-9738653D01*
X-34593706Y-9738654D01*
X-34593708Y-9738655D01*
X-34792642Y-9831419D01*
X-34792650Y-9831423D01*
X-34972452Y-9957322D01*
X-34972458Y-9957327D01*
X-35127672Y-10112541D01*
X-35127677Y-10112547D01*
X-35253576Y-10292349D01*
X-35253577Y-10292351D01*
X-35253579Y-10292354D01*
X-35346347Y-10491297D01*
X-35403161Y-10703326D01*
X-35403161Y-10703331D01*
X-35419746Y-10892904D01*
X-35422292Y-10922000D01*
X-36501300Y-10922000D01*
X-36501300Y-7874000D01*
X-26186307Y-7874000D01*
X-26167149Y-8031782D01*
X-26110787Y-8180395D01*
X-26020498Y-8311201D01*
X-25901529Y-8416599D01*
X-25760793Y-8490463D01*
X-25657911Y-8515820D01*
X-25606472Y-8528500D01*
X-25606471Y-8528500D01*
X-25447528Y-8528500D01*
X-25370368Y-8509481D01*
X-25293207Y-8490463D01*
X-25152471Y-8416599D01*
X-25152469Y-8416598D01*
X-25033506Y-8311205D01*
X-25033504Y-8311203D01*
X-25033502Y-8311201D01*
X-24943213Y-8180395D01*
X-24927427Y-8138773D01*
X-24886850Y-8031781D01*
X-24867693Y-7874000D01*
X-24867693Y-7873999D01*
X-24886850Y-7716218D01*
X-24943214Y-7567602D01*
X-25033500Y-7436801D01*
X-25033506Y-7436794D01*
X-25152469Y-7331401D01*
X-25293208Y-7257536D01*
X-25447528Y-7219500D01*
X-25447529Y-7219500D01*
X-25606471Y-7219500D01*
X-25606472Y-7219500D01*
X-25760791Y-7257536D01*
X-25901530Y-7331401D01*
X-26020493Y-7436794D01*
X-26020495Y-7436796D01*
X-26020498Y-7436799D01*
X-26110787Y-7567605D01*
X-26167149Y-7716218D01*
X-26186307Y-7874000D01*
X-36501300Y-7874000D01*
X-36501300Y-6604000D01*
X-28091307Y-6604000D01*
X-28072149Y-6761782D01*
X-28015787Y-6910395D01*
X-27925498Y-7041201D01*
X-27806529Y-7146599D01*
X-27665793Y-7220463D01*
X-27562911Y-7245820D01*
X-27511472Y-7258500D01*
X-27511471Y-7258500D01*
X-27352528Y-7258500D01*
X-27275368Y-7239481D01*
X-27198207Y-7220463D01*
X-27057471Y-7146599D01*
X-27057469Y-7146598D01*
X-26938506Y-7041205D01*
X-26938504Y-7041203D01*
X-26938502Y-7041201D01*
X-26924343Y-7020689D01*
X-26848214Y-6910397D01*
X-26791850Y-6761781D01*
X-26772693Y-6604000D01*
X-26772693Y-6603999D01*
X-26791850Y-6446218D01*
X-26848214Y-6297602D01*
X-26938500Y-6166801D01*
X-26938506Y-6166794D01*
X-27057468Y-6061402D01*
X-27098911Y-6039651D01*
X-27145317Y-6015295D01*
X-27195528Y-5966712D01*
X-27211503Y-5898693D01*
X-27188168Y-5832835D01*
X-27145317Y-5795704D01*
X-27057471Y-5749599D01*
X-27057469Y-5749597D01*
X-27057468Y-5749597D01*
X-26938506Y-5644205D01*
X-26938504Y-5644203D01*
X-26938502Y-5644201D01*
X-26924343Y-5623689D01*
X-26848214Y-5513397D01*
X-26847929Y-5512647D01*
X-26828342Y-5460999D01*
X-26791850Y-5364781D01*
X-26772693Y-5207000D01*
X-26772693Y-5206999D01*
X-26791850Y-5049218D01*
X-26848214Y-4900602D01*
X-26938500Y-4769801D01*
X-26938506Y-4769794D01*
X-27057469Y-4664401D01*
X-27198208Y-4590536D01*
X-27352528Y-4552500D01*
X-27352529Y-4552500D01*
X-27511471Y-4552500D01*
X-27511472Y-4552500D01*
X-27665791Y-4590536D01*
X-27806530Y-4664401D01*
X-27925493Y-4769794D01*
X-27925495Y-4769796D01*
X-27925498Y-4769799D01*
X-28015787Y-4900605D01*
X-28072149Y-5049217D01*
X-28072149Y-5049218D01*
X-28088917Y-5187320D01*
X-28091307Y-5207000D01*
X-28072149Y-5364782D01*
X-28015787Y-5513395D01*
X-27925498Y-5644201D01*
X-27806529Y-5749599D01*
X-27718682Y-5795704D01*
X-27668471Y-5844288D01*
X-27652496Y-5912306D01*
X-27675831Y-5978164D01*
X-27718682Y-6015295D01*
X-27767061Y-6040686D01*
X-27806530Y-6061401D01*
X-27925493Y-6166794D01*
X-27925495Y-6166796D01*
X-27925498Y-6166799D01*
X-28015787Y-6297605D01*
X-28072149Y-6446218D01*
X-28091307Y-6604000D01*
X-36501300Y-6604000D01*
X-36501300Y-4318000D01*
X-26186307Y-4318000D01*
X-26167149Y-4475782D01*
X-26110787Y-4624395D01*
X-26020498Y-4755201D01*
X-25901529Y-4860599D01*
X-25760793Y-4934463D01*
X-25657911Y-4959821D01*
X-25606472Y-4972500D01*
X-25606471Y-4972500D01*
X-25447528Y-4972500D01*
X-25360487Y-4951046D01*
X-25293207Y-4934463D01*
X-25152471Y-4860599D01*
X-25152469Y-4860598D01*
X-25033506Y-4755205D01*
X-25033504Y-4755203D01*
X-25033502Y-4755201D01*
X-24943213Y-4624395D01*
X-24918791Y-4560000D01*
X-24886850Y-4475781D01*
X-24867693Y-4318000D01*
X-24867693Y-4317999D01*
X-24886850Y-4160218D01*
X-24943214Y-4011602D01*
X-25033500Y-3880801D01*
X-25033506Y-3880794D01*
X-25152469Y-3775401D01*
X-25293208Y-3701536D01*
X-25447528Y-3663500D01*
X-25447529Y-3663500D01*
X-25606471Y-3663500D01*
X-25606472Y-3663500D01*
X-25760791Y-3701536D01*
X-25901530Y-3775401D01*
X-26020493Y-3880794D01*
X-26020495Y-3880796D01*
X-26020498Y-3880799D01*
X-26020499Y-3880801D01*
X-26108156Y-4007794D01*
X-26110787Y-4011605D01*
X-26158951Y-4138602D01*
X-26167149Y-4160218D01*
X-26182569Y-4287218D01*
X-26186307Y-4318000D01*
X-36501300Y-4318000D01*
X-36501300Y711021D01*
X-4704500Y711021D01*
X-4704222Y702531D01*
X-4703136Y685957D01*
X-4702303Y677506D01*
X-4685990Y553603D01*
X-4685990Y553604D01*
X-4682675Y536940D01*
X-4682675Y536939D01*
X-4669904Y489276D01*
X-4669904Y489275D01*
X-4664444Y473189D01*
X-4664444Y473191D01*
X-4664440Y473179D01*
X-4633073Y397453D01*
X-4619685Y365130D01*
X-4619685Y365131D01*
X-4612171Y349893D01*
X-4612170Y349892D01*
X-4587491Y307145D01*
X-4587489Y307143D01*
X-4584328Y302413D01*
X-4578049Y293014D01*
X-4578049Y293015D01*
X-4506847Y200223D01*
X-4495645Y187450D01*
X-4460749Y152554D01*
X-4447976Y141352D01*
X-4447976Y141353D01*
X-4447973Y141350D01*
X-4412104Y113826D01*
X-4370903Y57400D01*
X-4366748Y-12346D01*
X-4389216Y-60033D01*
X-4451049Y-140615D01*
X-4451049Y-140614D01*
X-4457328Y-150013D01*
X-4460489Y-154743D01*
X-4460490Y-154745D01*
X-4460490Y-154744D01*
X-4485170Y-197492D01*
X-4485171Y-197493D01*
X-4492685Y-212730D01*
X-4492685Y-212731D01*
X-4537440Y-320779D01*
X-4537444Y-320791D01*
X-4537444Y-320789D01*
X-4542904Y-336875D01*
X-4542904Y-336876D01*
X-4555675Y-384539D01*
X-4555676Y-384543D01*
X-4558991Y-401207D01*
X-4575303Y-525103D01*
X-4576136Y-533555D01*
X-4577222Y-550131D01*
X-4577500Y-558620D01*
X-4577500Y-10160179D01*
X-4577222Y-10168668D01*
X-4576136Y-10185244D01*
X-4575303Y-10193696D01*
X-4558991Y-10317592D01*
X-4555676Y-10334256D01*
X-4555675Y-10334259D01*
X-4555675Y-10334260D01*
X-4542904Y-10381923D01*
X-4542904Y-10381924D01*
X-4537444Y-10398010D01*
X-4537444Y-10398008D01*
X-4537440Y-10398020D01*
X-4506073Y-10473745D01*
X-4492685Y-10506069D01*
X-4492685Y-10506068D01*
X-4485171Y-10521306D01*
X-4485170Y-10521307D01*
X-4460491Y-10564054D01*
X-4460490Y-10564055D01*
X-4451049Y-10578185D01*
X-4451049Y-10578184D01*
X-4379847Y-10670976D01*
X-4368645Y-10683749D01*
X-4333749Y-10718645D01*
X-4320976Y-10729847D01*
X-4228184Y-10801049D01*
X-4228185Y-10801049D01*
X-4218785Y-10807328D01*
X-4214056Y-10810489D01*
X-4214054Y-10810490D01*
X-4214055Y-10810490D01*
X-4171307Y-10835170D01*
X-4171306Y-10835171D01*
X-4156068Y-10842685D01*
X-4156069Y-10842685D01*
X-4123745Y-10856073D01*
X-4048020Y-10887440D01*
X-4048008Y-10887444D01*
X-4048010Y-10887444D01*
X-4031924Y-10892904D01*
X-4031923Y-10892904D01*
X-3984260Y-10905675D01*
X-3984256Y-10905676D01*
X-3967592Y-10908991D01*
X-3843696Y-10925303D01*
X-3835246Y-10926135D01*
X-3824196Y-10926859D01*
X-3818673Y-10927222D01*
X-3814426Y-10927361D01*
X-3810181Y-10927500D01*
X-3810180Y-10927500D01*
X-584020Y-10927500D01*
X-575530Y-10927222D01*
X-558955Y-10926135D01*
X-550503Y-10925303D01*
X-426607Y-10908991D01*
X-409943Y-10905676D01*
X-409939Y-10905675D01*
X-362276Y-10892904D01*
X-362275Y-10892904D01*
X-346189Y-10887444D01*
X-346191Y-10887444D01*
X-346179Y-10887440D01*
X-270453Y-10856073D01*
X-238130Y-10842685D01*
X-238131Y-10842685D01*
X-222893Y-10835171D01*
X-222892Y-10835170D01*
X-180144Y-10810490D01*
X-180145Y-10810490D01*
X-180143Y-10810489D01*
X-175413Y-10807328D01*
X-166014Y-10801049D01*
X-166015Y-10801049D01*
X-73223Y-10729847D01*
X-60450Y-10718645D01*
X-25556Y-10683751D01*
X-22653Y-10680441D01*
X-17028Y-10674026D01*
X41972Y-10636603D01*
X111840Y-10637017D01*
X169428Y-10674026D01*
X175053Y-10680441D01*
X177956Y-10683751D01*
X212850Y-10718645D01*
X225623Y-10729847D01*
X318415Y-10801049D01*
X318414Y-10801049D01*
X327813Y-10807328D01*
X332543Y-10810489D01*
X332545Y-10810490D01*
X332544Y-10810490D01*
X375292Y-10835170D01*
X375293Y-10835171D01*
X390531Y-10842685D01*
X390530Y-10842685D01*
X422853Y-10856073D01*
X498579Y-10887440D01*
X498591Y-10887444D01*
X498589Y-10887444D01*
X514675Y-10892904D01*
X514676Y-10892904D01*
X562339Y-10905675D01*
X562343Y-10905676D01*
X579007Y-10908991D01*
X702903Y-10925303D01*
X711355Y-10926135D01*
X727930Y-10927222D01*
X736420Y-10927500D01*
X3962580Y-10927500D01*
X3962581Y-10927500D01*
X3966826Y-10927361D01*
X3971073Y-10927222D01*
X3976596Y-10926859D01*
X3987646Y-10926135D01*
X3996096Y-10925303D01*
X4119992Y-10908991D01*
X4136656Y-10905676D01*
X4136660Y-10905675D01*
X4184323Y-10892904D01*
X4184324Y-10892904D01*
X4200410Y-10887444D01*
X4200408Y-10887444D01*
X4200420Y-10887440D01*
X4276145Y-10856073D01*
X4308469Y-10842685D01*
X4308468Y-10842685D01*
X4323706Y-10835171D01*
X4323707Y-10835170D01*
X4366455Y-10810490D01*
X4366454Y-10810490D01*
X4366456Y-10810489D01*
X4371185Y-10807328D01*
X4380585Y-10801049D01*
X4380584Y-10801049D01*
X4473376Y-10729847D01*
X4486149Y-10718645D01*
X4521045Y-10683749D01*
X4532247Y-10670976D01*
X4603449Y-10578184D01*
X4603449Y-10578185D01*
X4612890Y-10564055D01*
X4612891Y-10564054D01*
X4637570Y-10521307D01*
X4637571Y-10521306D01*
X4645085Y-10506068D01*
X4645085Y-10506069D01*
X4658473Y-10473745D01*
X4689840Y-10398020D01*
X4689844Y-10398008D01*
X4689844Y-10398010D01*
X4695304Y-10381924D01*
X4695304Y-10381923D01*
X4708075Y-10334260D01*
X4708075Y-10334259D01*
X4708076Y-10334256D01*
X4711391Y-10317592D01*
X4727703Y-10193696D01*
X4728536Y-10185244D01*
X4729622Y-10168668D01*
X4729900Y-10160179D01*
X4729900Y-558620D01*
X4729622Y-550131D01*
X4728536Y-533555D01*
X4727703Y-525103D01*
X4711391Y-401207D01*
X4708076Y-384543D01*
X4708075Y-384539D01*
X4695304Y-336876D01*
X4695304Y-336875D01*
X4689844Y-320789D01*
X4689844Y-320791D01*
X4689840Y-320779D01*
X4645085Y-212731D01*
X4645082Y-212725D01*
X4637571Y-197493D01*
X4637570Y-197492D01*
X4612890Y-154744D01*
X4612890Y-154745D01*
X4612889Y-154743D01*
X4609728Y-150013D01*
X4603449Y-140614D01*
X4603449Y-140615D01*
X4587146Y-119368D01*
X4561951Y-54199D01*
X4575989Y14246D01*
X4624803Y64236D01*
X4692894Y79900D01*
X4751026Y61405D01*
X4752152Y60704D01*
X4781091Y43995D01*
X4794887Y36031D01*
X4794889Y36030D01*
X4794891Y36029D01*
X4810130Y28514D01*
X4918189Y-16244D01*
X4928404Y-19711D01*
X4934267Y-21702D01*
X4981939Y-34477D01*
X4998604Y-37792D01*
X5029581Y-41870D01*
X5122512Y-54105D01*
X5130980Y-54939D01*
X5139268Y-55481D01*
X5147555Y-56023D01*
X5156028Y-56300D01*
X5156029Y-56300D01*
X8086531Y-56300D01*
X8153570Y-75985D01*
X8199325Y-128789D01*
X8209269Y-197947D01*
X8201091Y-227752D01*
X8162558Y-320783D01*
X8162556Y-320791D01*
X8157094Y-336882D01*
X8144323Y-384544D01*
X8144322Y-384546D01*
X8141010Y-401197D01*
X8141010Y-401198D01*
X8141008Y-401210D01*
X8124697Y-525105D01*
X8124697Y-525106D01*
X8124697Y-525109D01*
X8123864Y-533559D01*
X8122778Y-550134D01*
X8122500Y-558623D01*
X8122500Y-3488627D01*
X8102815Y-3555666D01*
X8050011Y-3601421D01*
X7980853Y-3611365D01*
X7917297Y-3582340D01*
X7904210Y-3569159D01*
X7892686Y-3555666D01*
X7792102Y-3437898D01*
X7602752Y-3276177D01*
X7390434Y-3146069D01*
X7390433Y-3146068D01*
X7390429Y-3146066D01*
X7231322Y-3080162D01*
X7160377Y-3050776D01*
X7160378Y-3050776D01*
X7028402Y-3019091D01*
X6918245Y-2992645D01*
X6918243Y-2992644D01*
X6918242Y-2992644D01*
X6670000Y-2973108D01*
X6421758Y-2992644D01*
X6179622Y-3050776D01*
X5949570Y-3146066D01*
X5737247Y-3276177D01*
X5547898Y-3437898D01*
X5386177Y-3627247D01*
X5256066Y-3839570D01*
X5160776Y-4069622D01*
X5102644Y-4311758D01*
X5083108Y-4560000D01*
X5102644Y-4808241D01*
X5160776Y-5050377D01*
X5256066Y-5280429D01*
X5256068Y-5280433D01*
X5256069Y-5280434D01*
X5386177Y-5492752D01*
X5547898Y-5682102D01*
X5737248Y-5843823D01*
X5949566Y-5973931D01*
X5949568Y-5973931D01*
X5949570Y-5973933D01*
X6008343Y-5998277D01*
X6179623Y-6069224D01*
X6421755Y-6127355D01*
X6670000Y-6146892D01*
X6918245Y-6127355D01*
X7160377Y-6069224D01*
X7390434Y-5973931D01*
X7602752Y-5843823D01*
X7792102Y-5682102D01*
X7904212Y-5550838D01*
X7962717Y-5512647D01*
X8032585Y-5512148D01*
X8091631Y-5549502D01*
X8121109Y-5612849D01*
X8122500Y-5631371D01*
X8122500Y-10160177D01*
X8122778Y-10168665D01*
X8123864Y-10185242D01*
X8124697Y-10193694D01*
X8141008Y-10317589D01*
X8141009Y-10317594D01*
X8144324Y-10334256D01*
X8144324Y-10334257D01*
X8157097Y-10381929D01*
X8157098Y-10381931D01*
X8162559Y-10398019D01*
X8162562Y-10398027D01*
X8162563Y-10398029D01*
X8162563Y-10398030D01*
X8207314Y-10506069D01*
X8207314Y-10506068D01*
X8214828Y-10521306D01*
X8214829Y-10521307D01*
X8239508Y-10564054D01*
X8239509Y-10564055D01*
X8248950Y-10578185D01*
X8248950Y-10578184D01*
X8320152Y-10670976D01*
X8331354Y-10683749D01*
X8366250Y-10718645D01*
X8379023Y-10729847D01*
X8471815Y-10801049D01*
X8471814Y-10801049D01*
X8481213Y-10807328D01*
X8485943Y-10810489D01*
X8485945Y-10810490D01*
X8485944Y-10810490D01*
X8528692Y-10835170D01*
X8528693Y-10835171D01*
X8543931Y-10842685D01*
X8543930Y-10842685D01*
X8576253Y-10856073D01*
X8651979Y-10887440D01*
X8651991Y-10887444D01*
X8651989Y-10887444D01*
X8668075Y-10892904D01*
X8668076Y-10892904D01*
X8715739Y-10905675D01*
X8715743Y-10905676D01*
X8732407Y-10908991D01*
X8856303Y-10925303D01*
X8864755Y-10926135D01*
X8881330Y-10927222D01*
X8889820Y-10927500D01*
X21844180Y-10927500D01*
X21844181Y-10927500D01*
X21848426Y-10927361D01*
X21852673Y-10927222D01*
X21858196Y-10926859D01*
X21869246Y-10926135D01*
X21877696Y-10925303D01*
X22001592Y-10908991D01*
X22018256Y-10905676D01*
X22018260Y-10905675D01*
X22065923Y-10892904D01*
X22065924Y-10892904D01*
X22082010Y-10887444D01*
X22082008Y-10887444D01*
X22082020Y-10887440D01*
X22157745Y-10856073D01*
X22190069Y-10842685D01*
X22190068Y-10842685D01*
X22205306Y-10835171D01*
X22205307Y-10835170D01*
X22248055Y-10810490D01*
X22248054Y-10810490D01*
X22248056Y-10810489D01*
X22252785Y-10807328D01*
X22262185Y-10801049D01*
X22262184Y-10801049D01*
X22354976Y-10729847D01*
X22367749Y-10718645D01*
X22402645Y-10683749D01*
X22413847Y-10670976D01*
X22485049Y-10578184D01*
X22485049Y-10578185D01*
X22494490Y-10564055D01*
X22494491Y-10564054D01*
X22519170Y-10521307D01*
X22519171Y-10521306D01*
X22526685Y-10506068D01*
X22526685Y-10506069D01*
X22540073Y-10473745D01*
X22571440Y-10398020D01*
X22571444Y-10398008D01*
X22571444Y-10398010D01*
X22576904Y-10381924D01*
X22576904Y-10381923D01*
X22589675Y-10334260D01*
X22589675Y-10334259D01*
X22589676Y-10334256D01*
X22592991Y-10317592D01*
X22609303Y-10193696D01*
X22610136Y-10185244D01*
X22611222Y-10168668D01*
X22611500Y-10160179D01*
X22611500Y-4445000D01*
X23343693Y-4445000D01*
X23362850Y-4602781D01*
X23419214Y-4751397D01*
X23494591Y-4860599D01*
X23509502Y-4882201D01*
X23509504Y-4882203D01*
X23509506Y-4882205D01*
X23628469Y-4987598D01*
X23628471Y-4987599D01*
X23769207Y-5061463D01*
X23823163Y-5074762D01*
X23923528Y-5099500D01*
X23923529Y-5099500D01*
X24082472Y-5099500D01*
X24133911Y-5086820D01*
X24236793Y-5061463D01*
X24377529Y-4987599D01*
X24496498Y-4882201D01*
X24586787Y-4751395D01*
X24643149Y-4602782D01*
X24662307Y-4445000D01*
X25121693Y-4445000D01*
X25140850Y-4602781D01*
X25197214Y-4751397D01*
X25272591Y-4860599D01*
X25287502Y-4882201D01*
X25287504Y-4882203D01*
X25287506Y-4882205D01*
X25406469Y-4987598D01*
X25406471Y-4987599D01*
X25547207Y-5061463D01*
X25601163Y-5074762D01*
X25701528Y-5099500D01*
X25701529Y-5099500D01*
X25860472Y-5099500D01*
X25911911Y-5086820D01*
X26014793Y-5061463D01*
X26155529Y-4987599D01*
X26163238Y-4980768D01*
X26226467Y-4951046D01*
X26295731Y-4960226D01*
X26349037Y-5005396D01*
X26369459Y-5072214D01*
X26350516Y-5139467D01*
X26347519Y-5144019D01*
X26340215Y-5154601D01*
X26340214Y-5154601D01*
X26283850Y-5303218D01*
X26264693Y-5460999D01*
X26264693Y-5461000D01*
X26283850Y-5618781D01*
X26307865Y-5682101D01*
X26333463Y-5749598D01*
X26340214Y-5767397D01*
X26393288Y-5844288D01*
X26430502Y-5898201D01*
X26430504Y-5898203D01*
X26430506Y-5898205D01*
X26549469Y-6003598D01*
X26549471Y-6003599D01*
X26637317Y-6049704D01*
X26687528Y-6098286D01*
X26703503Y-6166305D01*
X26680169Y-6232163D01*
X26637317Y-6269295D01*
X26549469Y-6315401D01*
X26430506Y-6420794D01*
X26430500Y-6420801D01*
X26340214Y-6551602D01*
X26283850Y-6700218D01*
X26264693Y-6857999D01*
X26264693Y-6858000D01*
X26283850Y-7015781D01*
X26324427Y-7122773D01*
X26340213Y-7164395D01*
X26430502Y-7295201D01*
X26430504Y-7295203D01*
X26430506Y-7295205D01*
X26549469Y-7400598D01*
X26549471Y-7400599D01*
X26690207Y-7474463D01*
X26767368Y-7493481D01*
X26844528Y-7512500D01*
X26844529Y-7512500D01*
X27003472Y-7512500D01*
X27054911Y-7499820D01*
X27157793Y-7474463D01*
X27298529Y-7400599D01*
X27417498Y-7295201D01*
X27507787Y-7164395D01*
X27564149Y-7015782D01*
X27583307Y-6858000D01*
X27564149Y-6700218D01*
X27507787Y-6551605D01*
X27417498Y-6420799D01*
X27417495Y-6420796D01*
X27417493Y-6420794D01*
X27298530Y-6315401D01*
X27259061Y-6294686D01*
X27210682Y-6269295D01*
X27160471Y-6220712D01*
X27144496Y-6152694D01*
X27167831Y-6086836D01*
X27210682Y-6049704D01*
X27298529Y-6003599D01*
X27417498Y-5898201D01*
X27507787Y-5767395D01*
X27564149Y-5618782D01*
X27583307Y-5461000D01*
X27564149Y-5303218D01*
X27507787Y-5154605D01*
X27417498Y-5023799D01*
X27417495Y-5023796D01*
X27417493Y-5023794D01*
X27298530Y-4918401D01*
X27157791Y-4844536D01*
X27003472Y-4806500D01*
X27003471Y-4806500D01*
X26844529Y-4806500D01*
X26844528Y-4806500D01*
X26690208Y-4844536D01*
X26549469Y-4918401D01*
X26541756Y-4925235D01*
X26478522Y-4954954D01*
X26409259Y-4945769D01*
X26355957Y-4900595D01*
X26335539Y-4833775D01*
X26354489Y-4766524D01*
X26357452Y-4762020D01*
X26364787Y-4751395D01*
X26421149Y-4602782D01*
X26440307Y-4445000D01*
X26421149Y-4287218D01*
X26364787Y-4138605D01*
X26274498Y-4007799D01*
X26274495Y-4007796D01*
X26274493Y-4007794D01*
X26155530Y-3902401D01*
X26014791Y-3828536D01*
X25860472Y-3790500D01*
X25860471Y-3790500D01*
X25701529Y-3790500D01*
X25701528Y-3790500D01*
X25547208Y-3828536D01*
X25406469Y-3902401D01*
X25287506Y-4007794D01*
X25287500Y-4007801D01*
X25197214Y-4138602D01*
X25140850Y-4287218D01*
X25121693Y-4444999D01*
X25121693Y-4445000D01*
X24662307Y-4445000D01*
X24643149Y-4287218D01*
X24586787Y-4138605D01*
X24496498Y-4007799D01*
X24496495Y-4007796D01*
X24496493Y-4007794D01*
X24377530Y-3902401D01*
X24236791Y-3828536D01*
X24082472Y-3790500D01*
X24082471Y-3790500D01*
X23923529Y-3790500D01*
X23923528Y-3790500D01*
X23769208Y-3828536D01*
X23628469Y-3902401D01*
X23509506Y-4007794D01*
X23509500Y-4007801D01*
X23419214Y-4138602D01*
X23362850Y-4287218D01*
X23343693Y-4444999D01*
X23343693Y-4445000D01*
X22611500Y-4445000D01*
X22611500Y-558620D01*
X22611222Y-550131D01*
X22610136Y-533555D01*
X22609303Y-525103D01*
X22592991Y-401207D01*
X22589676Y-384543D01*
X22589675Y-384539D01*
X22576904Y-336876D01*
X22576904Y-336875D01*
X22571444Y-320789D01*
X22571444Y-320791D01*
X22571440Y-320779D01*
X22526685Y-212731D01*
X22526682Y-212725D01*
X22519171Y-197493D01*
X22519170Y-197492D01*
X22494490Y-154744D01*
X22494490Y-154745D01*
X22494489Y-154743D01*
X22491328Y-150013D01*
X22485049Y-140614D01*
X22485049Y-140615D01*
X22413847Y-47823D01*
X22402645Y-35050D01*
X22367749Y-154D01*
X22354976Y11048D01*
X22354976Y11047D01*
X22354973Y11050D01*
X22285660Y64236D01*
X22262188Y82247D01*
X22248057Y91690D01*
X22248058Y91689D01*
X22205312Y116370D01*
X22190078Y123882D01*
X22190078Y123883D01*
X22082019Y168642D01*
X22082021Y168641D01*
X22081607Y168781D01*
X22065928Y174104D01*
X22065922Y174105D01*
X22065922Y174106D01*
X22018259Y186876D01*
X22018252Y186878D01*
X22018249Y186878D01*
X22018244Y186880D01*
X22018245Y186880D01*
X22001591Y190192D01*
X21877688Y206505D01*
X21869220Y207339D01*
X21860932Y207881D01*
X21852646Y208423D01*
X21844172Y208700D01*
X21844171Y208700D01*
X13630468Y208700D01*
X13563429Y228385D01*
X13517674Y281189D01*
X13507730Y350347D01*
X13515907Y380152D01*
X13519200Y388104D01*
X13554440Y473179D01*
X13554444Y473191D01*
X13554444Y473189D01*
X13559904Y489275D01*
X13559904Y489276D01*
X13572675Y536939D01*
X13572675Y536940D01*
X13575990Y553604D01*
X13575991Y553607D01*
X13592303Y677503D01*
X13593136Y685955D01*
X13594222Y702531D01*
X13594500Y711020D01*
X13594500Y10210979D01*
X13594222Y10219468D01*
X13593136Y10236044D01*
X13592303Y10244496D01*
X13575991Y10368392D01*
X13572676Y10385056D01*
X13572675Y10385060D01*
X13559904Y10432723D01*
X13559904Y10432724D01*
X13554444Y10448810D01*
X13554444Y10448808D01*
X13554440Y10448820D01*
X13509685Y10556868D01*
X13509685Y10556869D01*
X13502171Y10572106D01*
X13502170Y10572107D01*
X13477490Y10614855D01*
X13477490Y10614854D01*
X13477489Y10614856D01*
X13472110Y10622907D01*
X13468049Y10628985D01*
X13468049Y10628984D01*
X13396847Y10721776D01*
X13385645Y10734549D01*
X13350749Y10769445D01*
X13337976Y10780647D01*
X13245184Y10851849D01*
X13245185Y10851849D01*
X13235785Y10858128D01*
X13231056Y10861289D01*
X13231054Y10861290D01*
X13231055Y10861290D01*
X13188307Y10885970D01*
X13188306Y10885971D01*
X13173068Y10893485D01*
X13173069Y10893485D01*
X13128154Y10912089D01*
X13065020Y10938240D01*
X13065008Y10938244D01*
X13065010Y10938244D01*
X13048924Y10943704D01*
X13048923Y10943704D01*
X13001260Y10956475D01*
X13001256Y10956476D01*
X12984592Y10959791D01*
X12860696Y10976103D01*
X12852246Y10976935D01*
X12841196Y10977659D01*
X12835673Y10978022D01*
X12831426Y10978161D01*
X12827181Y10978300D01*
X9626420Y10978300D01*
X9617930Y10978022D01*
X9601355Y10976935D01*
X9592903Y10976103D01*
X9469007Y10959791D01*
X9452343Y10956476D01*
X9452339Y10956475D01*
X9404676Y10943704D01*
X9404675Y10943704D01*
X9388589Y10938244D01*
X9388591Y10938244D01*
X9388579Y10938240D01*
X9325445Y10912089D01*
X9280530Y10893485D01*
X9280531Y10893485D01*
X9265293Y10885971D01*
X9265292Y10885970D01*
X9222544Y10861290D01*
X9222545Y10861290D01*
X9222543Y10861289D01*
X9217813Y10858128D01*
X9208414Y10851849D01*
X9208415Y10851849D01*
X9115623Y10780647D01*
X9102850Y10769445D01*
X9079280Y10745875D01*
X9017957Y10712390D01*
X8948265Y10717374D01*
X8903916Y10745877D01*
X8880348Y10769445D01*
X8879098Y10770541D01*
X8872344Y10776465D01*
X8867576Y10780647D01*
X8774784Y10851849D01*
X8774785Y10851849D01*
X8765385Y10858128D01*
X8760656Y10861289D01*
X8760654Y10861290D01*
X8760655Y10861290D01*
X8717907Y10885970D01*
X8717906Y10885971D01*
X8702668Y10893485D01*
X8702669Y10893485D01*
X8657754Y10912089D01*
X8594620Y10938240D01*
X8594608Y10938244D01*
X8594610Y10938244D01*
X8578524Y10943704D01*
X8578523Y10943704D01*
X8530860Y10956475D01*
X8530856Y10956476D01*
X8514192Y10959791D01*
X8390296Y10976103D01*
X8381846Y10976935D01*
X8370796Y10977659D01*
X8365273Y10978022D01*
X8361026Y10978161D01*
X8356781Y10978300D01*
X5156020Y10978300D01*
X5147530Y10978022D01*
X5130955Y10976935D01*
X5122503Y10976103D01*
X4998607Y10959791D01*
X4981943Y10956476D01*
X4981939Y10956475D01*
X4934276Y10943704D01*
X4934275Y10943704D01*
X4918189Y10938244D01*
X4918191Y10938244D01*
X4918179Y10938240D01*
X4855045Y10912089D01*
X4810130Y10893485D01*
X4810131Y10893485D01*
X4794893Y10885971D01*
X4794892Y10885970D01*
X4752144Y10861290D01*
X4752145Y10861290D01*
X4752143Y10861289D01*
X4747413Y10858128D01*
X4738014Y10851849D01*
X4738015Y10851849D01*
X4645223Y10780647D01*
X4632450Y10769445D01*
X4633546Y10770541D01*
X4572223Y10737056D01*
X4502531Y10742040D01*
X4452636Y10776463D01*
X4448560Y10781111D01*
X4444845Y10785349D01*
X4409949Y10820245D01*
X4397176Y10831447D01*
X4304384Y10902649D01*
X4304385Y10902649D01*
X4294985Y10908928D01*
X4290256Y10912089D01*
X4290254Y10912090D01*
X4290255Y10912090D01*
X4247507Y10936770D01*
X4247506Y10936771D01*
X4232268Y10944285D01*
X4232269Y10944285D01*
X4194833Y10959791D01*
X4124220Y10989040D01*
X4124208Y10989044D01*
X4124210Y10989044D01*
X4108124Y10994504D01*
X4108123Y10994504D01*
X4060460Y11007275D01*
X4060456Y11007276D01*
X4043792Y11010591D01*
X3919896Y11026903D01*
X3911446Y11027735D01*
X3900396Y11028459D01*
X3894873Y11028822D01*
X3890626Y11028961D01*
X3886381Y11029100D01*
X584020Y11029100D01*
X575530Y11028822D01*
X558955Y11027735D01*
X550503Y11026903D01*
X426607Y11010591D01*
X409943Y11007276D01*
X409939Y11007275D01*
X362276Y10994504D01*
X362275Y10994504D01*
X346189Y10989044D01*
X346191Y10989044D01*
X346179Y10989040D01*
X275566Y10959791D01*
X238130Y10944285D01*
X238131Y10944285D01*
X222893Y10936771D01*
X222892Y10936770D01*
X180144Y10912090D01*
X180145Y10912090D01*
X180143Y10912089D01*
X175413Y10908928D01*
X166014Y10902649D01*
X166015Y10902649D01*
X73223Y10831447D01*
X60450Y10820245D01*
X25556Y10785351D01*
X25552Y10785346D01*
X17028Y10775626D01*
X-41972Y10738203D01*
X-111840Y10738617D01*
X-169428Y10775626D01*
X-174048Y10780894D01*
X-177954Y10785349D01*
X-212850Y10820245D01*
X-225623Y10831447D01*
X-318415Y10902649D01*
X-318414Y10902649D01*
X-327813Y10908928D01*
X-332543Y10912089D01*
X-332545Y10912090D01*
X-332544Y10912090D01*
X-375292Y10936770D01*
X-375293Y10936771D01*
X-390531Y10944285D01*
X-390530Y10944285D01*
X-427966Y10959791D01*
X-498579Y10989040D01*
X-498591Y10989044D01*
X-498589Y10989044D01*
X-514675Y10994504D01*
X-514676Y10994504D01*
X-562339Y11007275D01*
X-562343Y11007276D01*
X-579007Y11010591D01*
X-702903Y11026903D01*
X-711355Y11027735D01*
X-727930Y11028822D01*
X-736420Y11029100D01*
X-3937181Y11029100D01*
X-3941426Y11028961D01*
X-3945673Y11028822D01*
X-3951196Y11028459D01*
X-3962246Y11027735D01*
X-3970696Y11026903D01*
X-4094592Y11010591D01*
X-4111256Y11007276D01*
X-4111260Y11007275D01*
X-4158923Y10994504D01*
X-4158924Y10994504D01*
X-4175010Y10989044D01*
X-4175008Y10989044D01*
X-4175020Y10989040D01*
X-4245633Y10959791D01*
X-4283069Y10944285D01*
X-4283068Y10944285D01*
X-4298306Y10936771D01*
X-4298307Y10936770D01*
X-4341055Y10912090D01*
X-4341054Y10912090D01*
X-4341056Y10912089D01*
X-4345785Y10908928D01*
X-4355185Y10902649D01*
X-4355184Y10902649D01*
X-4447976Y10831447D01*
X-4460749Y10820245D01*
X-4495645Y10785349D01*
X-4506847Y10772576D01*
X-4578049Y10679784D01*
X-4578049Y10679785D01*
X-4584328Y10670385D01*
X-4587489Y10665656D01*
X-4587490Y10665654D01*
X-4587490Y10665655D01*
X-4612170Y10622907D01*
X-4612171Y10622906D01*
X-4619685Y10607669D01*
X-4619685Y10607668D01*
X-4664440Y10499620D01*
X-4664444Y10499608D01*
X-4664444Y10499610D01*
X-4669904Y10483524D01*
X-4669904Y10483523D01*
X-4682676Y10435856D01*
X-4685991Y10419192D01*
X-4692679Y10368392D01*
X-4702303Y10295293D01*
X-4703136Y10286842D01*
X-4704222Y10270268D01*
X-4704500Y10261778D01*
X-4704500Y711021D01*
X-36501300Y711021D01*
X-36501300Y5912567D01*
X-12692000Y5912567D01*
X-12691999Y3207434D01*
X-12677234Y3133199D01*
X-12677233Y3133198D01*
X-12620984Y3049015D01*
X-12570519Y3015296D01*
X-12536801Y2992766D01*
X-12536799Y2992765D01*
X-12536796Y2992764D01*
X-12462569Y2978000D01*
X-12462567Y2978000D01*
X-9757436Y2978000D01*
X-9683198Y2992766D01*
X-9599015Y3049015D01*
X-9542766Y3133199D01*
X-9542764Y3133203D01*
X-9528000Y3207428D01*
X-9528000Y4560000D01*
X-8256892Y4560000D01*
X-8237355Y4311755D01*
X-8179224Y4069623D01*
X-8083931Y3839566D01*
X-7953823Y3627248D01*
X-7792102Y3437898D01*
X-7602752Y3276177D01*
X-7390429Y3146066D01*
X-7231322Y3080162D01*
X-7160377Y3050776D01*
X-7160378Y3050776D01*
X-7028402Y3019091D01*
X-6918245Y2992645D01*
X-6918243Y2992644D01*
X-6918242Y2992644D01*
X-6670000Y2973108D01*
X-6421758Y2992644D01*
X-6179622Y3050776D01*
X-5949570Y3146066D01*
X-5737247Y3276177D01*
X-5547898Y3437898D01*
X-5386177Y3627247D01*
X-5256066Y3839570D01*
X-5160776Y4069622D01*
X-5102644Y4311758D01*
X-5083108Y4560000D01*
X-5102644Y4808241D01*
X-5160776Y5050377D01*
X-5256066Y5280429D01*
X-5386177Y5492752D01*
X-5547898Y5682102D01*
X-5737248Y5843823D01*
X-5949566Y5973931D01*
X-5949568Y5973931D01*
X-5949570Y5973933D01*
X-6008343Y5998277D01*
X-6179623Y6069224D01*
X-6421755Y6127355D01*
X-6670000Y6146892D01*
X-6918245Y6127355D01*
X-7160377Y6069224D01*
X-7390434Y5973931D01*
X-7602752Y5843823D01*
X-7792102Y5682102D01*
X-7953823Y5492752D01*
X-8083931Y5280434D01*
X-8179224Y5050377D01*
X-8237355Y4808245D01*
X-8256892Y4560000D01*
X-9528000Y4560000D01*
X-9528000Y5912563D01*
X-9542766Y5986801D01*
X-9599015Y6070984D01*
X-9632734Y6093514D01*
X-9683199Y6127234D01*
X-9683202Y6127234D01*
X-9683203Y6127235D01*
X-9708166Y6132200D01*
X-9757433Y6142000D01*
X-12462566Y6141999D01*
X-12536801Y6127234D01*
X-12620984Y6070984D01*
X-12677234Y5986801D01*
X-12692000Y5912567D01*
X-36501300Y5912567D01*
X-36501300Y8715200D01*
X-9574707Y8715200D01*
X-9555549Y8557418D01*
X-9499187Y8408805D01*
X-9408898Y8277999D01*
X-9408895Y8277996D01*
X-9408893Y8277994D01*
X-9289930Y8172601D01*
X-9149191Y8098736D01*
X-8994872Y8060700D01*
X-8994871Y8060700D01*
X-8835928Y8060700D01*
X-8681608Y8098736D01*
X-8540869Y8172601D01*
X-8421906Y8277994D01*
X-8421900Y8278001D01*
X-8331614Y8408802D01*
X-8275250Y8557418D01*
X-8256093Y8715199D01*
X-8256093Y8715200D01*
X-8275250Y8872981D01*
X-8331614Y9021597D01*
X-8421900Y9152398D01*
X-8421902Y9152401D01*
X-8421904Y9152403D01*
X-8421906Y9152405D01*
X-8540869Y9257798D01*
X-8553039Y9264185D01*
X-8681607Y9331663D01*
X-8758768Y9350681D01*
X-8835928Y9369700D01*
X-8835929Y9369700D01*
X-8994871Y9369700D01*
X-8994872Y9369700D01*
X-9046311Y9357021D01*
X-9149193Y9331663D01*
X-9289929Y9257799D01*
X-9408898Y9152401D01*
X-9499187Y9021595D01*
X-9555549Y8872982D01*
X-9574707Y8715200D01*
X-36501300Y8715200D01*
X-36501300Y15621000D01*
X-35422292Y15621000D01*
X-35403161Y15402326D01*
X-35346347Y15190297D01*
X-35253579Y14991354D01*
X-35253577Y14991351D01*
X-35253576Y14991349D01*
X-35127677Y14811547D01*
X-35127672Y14811541D01*
X-34972458Y14656327D01*
X-34972452Y14656322D01*
X-34792650Y14530423D01*
X-34792642Y14530419D01*
X-34593708Y14437655D01*
X-34593706Y14437654D01*
X-34593703Y14437653D01*
X-34442885Y14397240D01*
X-34381675Y14380839D01*
X-34381668Y14380838D01*
X-34163002Y14361708D01*
X-34163000Y14361708D01*
X-34162998Y14361708D01*
X-33944331Y14380838D01*
X-33944324Y14380839D01*
X-33821902Y14413642D01*
X-33732297Y14437653D01*
X-33732295Y14437653D01*
X-33732291Y14437655D01*
X-33533357Y14530419D01*
X-33533349Y14530423D01*
X-33353547Y14656322D01*
X-33353541Y14656327D01*
X-33198327Y14811541D01*
X-33198322Y14811547D01*
X-33072423Y14991349D01*
X-33072419Y14991357D01*
X-32979655Y15190291D01*
X-32922839Y15402324D01*
X-32922838Y15402331D01*
X-32903708Y15620997D01*
X-32903708Y15621002D01*
X-32922838Y15839668D01*
X-32922839Y15839675D01*
X-32939240Y15900885D01*
X-32979653Y16051703D01*
X-33072421Y16250646D01*
X-33072423Y16250650D01*
X-33198322Y16430452D01*
X-33198327Y16430458D01*
X-33353541Y16585672D01*
X-33353547Y16585677D01*
X-33533349Y16711576D01*
X-33533351Y16711577D01*
X-33533354Y16711579D01*
X-33732297Y16804347D01*
X-33944326Y16861161D01*
X-34100521Y16874825D01*
X-34162998Y16880292D01*
X-34163002Y16880292D01*
X-34217668Y16875509D01*
X-34381674Y16861161D01*
X-34593703Y16804347D01*
X-34792646Y16711579D01*
X-34972457Y16585674D01*
X-35127674Y16430457D01*
X-35253579Y16250646D01*
X-35346347Y16051703D01*
X-35403161Y15839674D01*
X-35417509Y15675668D01*
X-35421819Y15626401D01*
X-35422292Y15621000D01*
X-36501300Y15621000D01*
X-36501300Y21590000D01*
X-24341280Y21590000D01*
X-24322174Y21237610D01*
X-24322172Y21237599D01*
X-24322172Y21237595D01*
X-24314287Y21189500D01*
X-24265080Y20889351D01*
X-24222563Y20736222D01*
X-24170669Y20549312D01*
X-24170668Y20549310D01*
X-24170667Y20549307D01*
X-24040042Y20221464D01*
X-23874737Y19909666D01*
X-23874733Y19909660D01*
X-23874732Y19909657D01*
X-23676691Y19617569D01*
X-23676683Y19617559D01*
X-23448230Y19348603D01*
X-23448223Y19348595D01*
X-23192013Y19105900D01*
X-23192006Y19105894D01*
X-23192003Y19105892D01*
X-23098705Y19034969D01*
X-22911066Y18892330D01*
X-22911061Y18892327D01*
X-22911045Y18892316D01*
X-22608678Y18710389D01*
X-22608665Y18710382D01*
X-22288394Y18562209D01*
X-22288389Y18562207D01*
X-22288384Y18562205D01*
X-22125366Y18507278D01*
X-21953949Y18449520D01*
X-21609291Y18373655D01*
X-21258455Y18335500D01*
X-21258454Y18335500D01*
X-20905544Y18335500D01*
X-20554708Y18373655D01*
X-20210050Y18449520D01*
X-19951525Y18536628D01*
X-19875616Y18562205D01*
X-19875613Y18562206D01*
X-19875605Y18562209D01*
X-19555334Y18710382D01*
X-19555321Y18710389D01*
X-19252954Y18892316D01*
X-19252938Y18892327D01*
X-18971996Y19105892D01*
X-18971987Y19105900D01*
X-18715774Y19348597D01*
X-18715769Y19348603D01*
X-18487316Y19617559D01*
X-18487308Y19617569D01*
X-18289267Y19909657D01*
X-18289266Y19909660D01*
X-18123962Y20221455D01*
X-18123953Y20221473D01*
X-17993331Y20549310D01*
X-17993330Y20549312D01*
X-17898922Y20889342D01*
X-17898917Y20889363D01*
X-17841827Y21237595D01*
X-17841826Y21237612D01*
X-17822720Y21589997D01*
X-17822720Y21590002D01*
X-17836491Y21843999D01*
X-17841826Y21942390D01*
X-17841826Y21942391D01*
X-17841827Y21942404D01*
X-17898917Y22290636D01*
X-17898922Y22290657D01*
X-17993330Y22630687D01*
X-17993331Y22630689D01*
X-18123953Y22958526D01*
X-18123962Y22958544D01*
X-18251200Y23198540D01*
X-18289263Y23270334D01*
X-18289266Y23270339D01*
X-18289267Y23270342D01*
X-18487308Y23562430D01*
X-18487316Y23562440D01*
X-18715769Y23831396D01*
X-18715774Y23831402D01*
X-18788171Y23899980D01*
X-18971987Y24074100D01*
X-19252934Y24287670D01*
X-19252942Y24287675D01*
X-19252954Y24287683D01*
X-19555321Y24469610D01*
X-19555326Y24469613D01*
X-19555330Y24469614D01*
X-19555334Y24469617D01*
X-19875605Y24617790D01*
X-19875616Y24617795D01*
X-20210050Y24730479D01*
X-20554707Y24806344D01*
X-20905546Y24844500D01*
X-21258454Y24844500D01*
X-21609293Y24806344D01*
X-21953950Y24730479D01*
X-22288384Y24617795D01*
X-22608674Y24469613D01*
X-22795928Y24356945D01*
X-22911045Y24287683D01*
X-22911049Y24287680D01*
X-22911066Y24287670D01*
X-23192013Y24074100D01*
X-23448223Y23831405D01*
X-23676690Y23562432D01*
X-23676691Y23562430D01*
X-23825826Y23342472D01*
X-23874737Y23270334D01*
X-24040042Y22958536D01*
X-24170667Y22630693D01*
X-24265080Y22290649D01*
X-24265082Y22290636D01*
X-24312437Y22001781D01*
X-24322174Y21942390D01*
X-24341280Y21590000D01*
X-36501300Y21590000D01*
X-36501300Y23367999D01*
X-35487107Y23367999D01*
X-35466724Y23148032D01*
X-35466723Y23148029D01*
X-35406271Y22935559D01*
X-35406269Y22935555D01*
X-35307801Y22737804D01*
X-35174673Y22561514D01*
X-35011418Y22412688D01*
X-34913404Y22352000D01*
X-34823595Y22296393D01*
X-34823594Y22296392D01*
X-34661244Y22233498D01*
X-34617604Y22216592D01*
X-34400455Y22176000D01*
X-34400453Y22176000D01*
X-34179547Y22176000D01*
X-34179545Y22176000D01*
X-33962396Y22216592D01*
X-33962393Y22216593D01*
X-33756405Y22296392D01*
X-33756404Y22296393D01*
X-33568586Y22412685D01*
X-33568584Y22412686D01*
X-33568582Y22412688D01*
X-33405327Y22561514D01*
X-33353085Y22630693D01*
X-33272199Y22737803D01*
X-33173731Y22935553D01*
X-33173728Y22935559D01*
X-33139266Y23056685D01*
X-33101987Y23115778D01*
X-33038678Y23145336D01*
X-32969438Y23135974D01*
X-32916252Y23090665D01*
X-32900734Y23056685D01*
X-32866271Y22935559D01*
X-32866269Y22935555D01*
X-32767801Y22737804D01*
X-32634673Y22561514D01*
X-32471418Y22412688D01*
X-32373404Y22352000D01*
X-32283595Y22296393D01*
X-32283594Y22296392D01*
X-32121244Y22233498D01*
X-32077604Y22216592D01*
X-31860455Y22176000D01*
X-31860453Y22176000D01*
X-31639547Y22176000D01*
X-31639545Y22176000D01*
X-31422396Y22216592D01*
X-31422393Y22216593D01*
X-31216405Y22296392D01*
X-31216404Y22296393D01*
X-31028586Y22412685D01*
X-31028584Y22412686D01*
X-31028582Y22412688D01*
X-30865327Y22561514D01*
X-30813085Y22630693D01*
X-30732199Y22737803D01*
X-30633731Y22935553D01*
X-30633728Y22935559D01*
X-30599266Y23056685D01*
X-30561987Y23115778D01*
X-30498678Y23145336D01*
X-30429438Y23135974D01*
X-30376252Y23090665D01*
X-30360734Y23056685D01*
X-30326271Y22935559D01*
X-30326269Y22935555D01*
X-30227801Y22737804D01*
X-30094673Y22561514D01*
X-29931418Y22412688D01*
X-29833404Y22352000D01*
X-29743595Y22296393D01*
X-29743594Y22296392D01*
X-29581244Y22233498D01*
X-29537604Y22216592D01*
X-29320455Y22176000D01*
X-29320453Y22176000D01*
X-29099547Y22176000D01*
X-29099545Y22176000D01*
X-28882396Y22216592D01*
X-28882393Y22216593D01*
X-28676405Y22296392D01*
X-28676404Y22296393D01*
X-28488586Y22412685D01*
X-28488584Y22412686D01*
X-28488582Y22412688D01*
X-28325327Y22561514D01*
X-28273085Y22630693D01*
X-28192199Y22737803D01*
X-28093731Y22935553D01*
X-28093728Y22935559D01*
X-28059266Y23056685D01*
X-28021987Y23115778D01*
X-27958678Y23145336D01*
X-27889438Y23135974D01*
X-27836252Y23090665D01*
X-27820734Y23056685D01*
X-27786271Y22935559D01*
X-27786269Y22935555D01*
X-27687801Y22737804D01*
X-27554673Y22561514D01*
X-27391418Y22412688D01*
X-27293404Y22352000D01*
X-27203595Y22296393D01*
X-27203594Y22296392D01*
X-27041244Y22233498D01*
X-26997604Y22216592D01*
X-26780455Y22176000D01*
X-26780453Y22176000D01*
X-26559547Y22176000D01*
X-26559545Y22176000D01*
X-26342396Y22216592D01*
X-26342393Y22216593D01*
X-26136405Y22296392D01*
X-26136404Y22296393D01*
X-25948586Y22412685D01*
X-25948584Y22412686D01*
X-25948582Y22412688D01*
X-25785327Y22561514D01*
X-25733085Y22630693D01*
X-25652199Y22737803D01*
X-25553731Y22935553D01*
X-25553728Y22935559D01*
X-25493276Y23148029D01*
X-25493275Y23148032D01*
X-25472893Y23367999D01*
X-25472893Y23368000D01*
X-25493275Y23587967D01*
X-25493276Y23587970D01*
X-25553728Y23800440D01*
X-25553731Y23800446D01*
X-25652199Y23998196D01*
X-25709519Y24074100D01*
X-25785327Y24174486D01*
X-25948582Y24323312D01*
X-26136403Y24439606D01*
X-26136404Y24439606D01*
X-26136405Y24439607D01*
X-26193189Y24461605D01*
X-26342396Y24519408D01*
X-26559545Y24560000D01*
X-26780455Y24560000D01*
X-26997604Y24519408D01*
X-27203597Y24439606D01*
X-27391418Y24323312D01*
X-27554673Y24174486D01*
X-27687801Y23998196D01*
X-27786269Y23800445D01*
X-27820734Y23679311D01*
X-27858013Y23620221D01*
X-27921322Y23590663D01*
X-27990562Y23600025D01*
X-28043748Y23645334D01*
X-28059264Y23679309D01*
X-28093731Y23800445D01*
X-28109143Y23831396D01*
X-28192199Y23998196D01*
X-28249519Y24074100D01*
X-28325327Y24174486D01*
X-28488582Y24323312D01*
X-28676403Y24439606D01*
X-28676404Y24439606D01*
X-28676405Y24439607D01*
X-28733189Y24461605D01*
X-28882396Y24519408D01*
X-29099545Y24560000D01*
X-29320455Y24560000D01*
X-29537604Y24519408D01*
X-29743597Y24439606D01*
X-29931418Y24323312D01*
X-30094673Y24174486D01*
X-30227801Y23998196D01*
X-30326269Y23800445D01*
X-30360734Y23679311D01*
X-30398013Y23620221D01*
X-30461322Y23590663D01*
X-30530562Y23600025D01*
X-30583748Y23645334D01*
X-30599264Y23679309D01*
X-30633731Y23800445D01*
X-30649143Y23831396D01*
X-30732199Y23998196D01*
X-30789519Y24074100D01*
X-30865327Y24174486D01*
X-31028582Y24323312D01*
X-31216403Y24439606D01*
X-31216404Y24439606D01*
X-31216405Y24439607D01*
X-31273189Y24461605D01*
X-31422396Y24519408D01*
X-31639545Y24560000D01*
X-31860455Y24560000D01*
X-32077604Y24519408D01*
X-32283597Y24439606D01*
X-32471418Y24323312D01*
X-32634673Y24174486D01*
X-32767801Y23998196D01*
X-32866269Y23800445D01*
X-32900734Y23679311D01*
X-32938013Y23620221D01*
X-33001322Y23590663D01*
X-33070562Y23600025D01*
X-33123748Y23645334D01*
X-33139264Y23679309D01*
X-33173731Y23800445D01*
X-33189143Y23831396D01*
X-33272199Y23998196D01*
X-33329519Y24074100D01*
X-33405327Y24174486D01*
X-33568582Y24323312D01*
X-33756403Y24439606D01*
X-33756404Y24439606D01*
X-33756405Y24439607D01*
X-33813189Y24461605D01*
X-33962396Y24519408D01*
X-34179545Y24560000D01*
X-34400455Y24560000D01*
X-34617604Y24519408D01*
X-34823597Y24439606D01*
X-35011418Y24323312D01*
X-35174673Y24174486D01*
X-35307801Y23998196D01*
X-35406269Y23800445D01*
X-35406271Y23800440D01*
X-35422168Y23744567D01*
X-35466724Y23587968D01*
X-35484631Y23394722D01*
X-35487107Y23368000D01*
X-35487107Y23367999D01*
X-36501300Y23367999D01*
X-36501300Y23383686D01*
X-36481615Y23450725D01*
X-36464981Y23471367D01*
X-34799767Y25136581D01*
X-34738444Y25170066D01*
X-34712086Y25172900D01*
X-16849914Y25172900D01*
X-16782875Y25153215D01*
X-16762233Y25136581D01*
X-14741419Y23115767D01*
X-14707934Y23054444D01*
X-14705100Y23028086D01*
X-14705100Y15828207D01*
X-14724785Y15761168D01*
X-14746873Y15735392D01*
X-14750928Y15731799D01*
X-14750929Y15731799D01*
X-14869898Y15626401D01*
X-14960187Y15495595D01*
X-15016549Y15346982D01*
X-15035707Y15189200D01*
X-15016549Y15031418D01*
X-14960187Y14882805D01*
X-14869898Y14751999D01*
X-14869895Y14751996D01*
X-14869893Y14751994D01*
X-14750930Y14646601D01*
X-14610191Y14572736D01*
X-14455872Y14534700D01*
X-14455871Y14534700D01*
X-14296928Y14534700D01*
X-14142608Y14572736D01*
X-14001869Y14646601D01*
X-13882906Y14751994D01*
X-13882900Y14752001D01*
X-13792614Y14882802D01*
X-13736250Y15031418D01*
X-13717093Y15189199D01*
X-13717093Y15189200D01*
X-13736250Y15346981D01*
X-13792614Y15495597D01*
X-13882900Y15626398D01*
X-13882902Y15626401D01*
X-13882904Y15626403D01*
X-13882906Y15626405D01*
X-14005927Y15735392D01*
X-14043054Y15794581D01*
X-14047700Y15828207D01*
X-14047700Y17271999D01*
X3404693Y17271999D01*
X3423850Y17114218D01*
X3480214Y16965602D01*
X3570500Y16834801D01*
X3570506Y16834794D01*
X3689469Y16729401D01*
X3830208Y16655536D01*
X3984528Y16617500D01*
X3984529Y16617500D01*
X4143472Y16617500D01*
X4297791Y16655536D01*
X4438530Y16729401D01*
X4557493Y16834794D01*
X4557495Y16834796D01*
X4557498Y16834799D01*
X4647787Y16965605D01*
X4704149Y17114218D01*
X4723307Y17272000D01*
X4707887Y17398996D01*
X12294690Y17398996D01*
X12313847Y17241215D01*
X12370211Y17092599D01*
X12460497Y16961798D01*
X12460503Y16961791D01*
X12579466Y16856398D01*
X12720205Y16782533D01*
X12874525Y16744497D01*
X12874526Y16744497D01*
X13033469Y16744497D01*
X13187788Y16782533D01*
X13328527Y16856398D01*
X13447490Y16961791D01*
X13447492Y16961793D01*
X13447495Y16961796D01*
X13537784Y17092602D01*
X13594146Y17241215D01*
X13613304Y17398997D01*
X13594146Y17556779D01*
X13537784Y17705392D01*
X13447495Y17836198D01*
X13328526Y17941596D01*
X13187790Y18015460D01*
X13084908Y18040817D01*
X13033469Y18053497D01*
X13033468Y18053497D01*
X12874526Y18053497D01*
X12874525Y18053497D01*
X12797365Y18034478D01*
X12720204Y18015460D01*
X12591636Y17947982D01*
X12579466Y17941595D01*
X12460503Y17836202D01*
X12460501Y17836200D01*
X12460499Y17836198D01*
X12460497Y17836195D01*
X12370211Y17705394D01*
X12313847Y17556778D01*
X12294690Y17398997D01*
X12294690Y17398996D01*
X4707887Y17398996D01*
X4704149Y17429782D01*
X4647787Y17578395D01*
X4557498Y17709201D01*
X4438529Y17814599D01*
X4297793Y17888463D01*
X4194911Y17913820D01*
X4143472Y17926500D01*
X4143471Y17926500D01*
X3984529Y17926500D01*
X3984528Y17926500D01*
X3907367Y17907481D01*
X3830207Y17888463D01*
X3730619Y17836195D01*
X3689469Y17814598D01*
X3570506Y17709205D01*
X3570504Y17709203D01*
X3570502Y17709201D01*
X3570500Y17709198D01*
X3480214Y17578397D01*
X3423850Y17429781D01*
X3404693Y17272000D01*
X3404693Y17271999D01*
X-14047700Y17271999D01*
X-14047700Y22351999D01*
X1245693Y22351999D01*
X1264850Y22194218D01*
X1321214Y22045602D01*
X1411500Y21914801D01*
X1411506Y21914794D01*
X1530469Y21809401D01*
X1671208Y21735536D01*
X1825528Y21697500D01*
X1825529Y21697500D01*
X1984472Y21697500D01*
X2138791Y21735536D01*
X2279530Y21809401D01*
X2318583Y21843999D01*
X9754693Y21843999D01*
X9773850Y21686218D01*
X9830214Y21537602D01*
X9920500Y21406801D01*
X9920506Y21406794D01*
X10039469Y21301401D01*
X10180208Y21227536D01*
X10334528Y21189500D01*
X10334529Y21189500D01*
X10493472Y21189500D01*
X10647791Y21227536D01*
X10788530Y21301401D01*
X10907493Y21406794D01*
X10907495Y21406796D01*
X10907498Y21406799D01*
X10997787Y21537605D01*
X11017657Y21589997D01*
X23410720Y21589997D01*
X23429826Y21237612D01*
X23429827Y21237595D01*
X23486917Y20889363D01*
X23486922Y20889342D01*
X23581330Y20549312D01*
X23581331Y20549310D01*
X23711953Y20221473D01*
X23711962Y20221455D01*
X23877266Y19909660D01*
X23877267Y19909657D01*
X24075308Y19617569D01*
X24075316Y19617559D01*
X24303769Y19348603D01*
X24303774Y19348597D01*
X24559987Y19105900D01*
X24559996Y19105892D01*
X24840938Y18892327D01*
X24840954Y18892316D01*
X25143321Y18710389D01*
X25143334Y18710382D01*
X25463605Y18562209D01*
X25463613Y18562206D01*
X25463616Y18562205D01*
X25539525Y18536628D01*
X25798050Y18449520D01*
X26142708Y18373655D01*
X26493544Y18335500D01*
X26493546Y18335500D01*
X26846455Y18335500D01*
X27197291Y18373655D01*
X27541949Y18449520D01*
X27713366Y18507278D01*
X27876384Y18562205D01*
X27876389Y18562207D01*
X27876394Y18562209D01*
X28196665Y18710382D01*
X28196678Y18710389D01*
X28499045Y18892316D01*
X28499061Y18892327D01*
X28499066Y18892330D01*
X28686705Y19034969D01*
X28780003Y19105892D01*
X28780006Y19105894D01*
X28780013Y19105900D01*
X29036223Y19348595D01*
X29036230Y19348603D01*
X29264683Y19617559D01*
X29264691Y19617569D01*
X29462732Y19909657D01*
X29462733Y19909660D01*
X29462737Y19909666D01*
X29628042Y20221464D01*
X29758667Y20549307D01*
X29758668Y20549310D01*
X29758669Y20549312D01*
X29810563Y20736222D01*
X29853080Y20889351D01*
X29902287Y21189500D01*
X29910172Y21237595D01*
X29910172Y21237599D01*
X29910174Y21237610D01*
X29929280Y21590000D01*
X29910174Y21942390D01*
X29900437Y22001781D01*
X29853082Y22290636D01*
X29853080Y22290649D01*
X29758667Y22630693D01*
X29628042Y22958536D01*
X29462737Y23270334D01*
X29413826Y23342472D01*
X29264691Y23562430D01*
X29264690Y23562432D01*
X29036223Y23831405D01*
X28780013Y24074100D01*
X28499066Y24287670D01*
X28499049Y24287680D01*
X28499045Y24287683D01*
X28383928Y24356945D01*
X28196674Y24469613D01*
X27876384Y24617795D01*
X27541950Y24730479D01*
X27197293Y24806344D01*
X26846454Y24844500D01*
X26493546Y24844500D01*
X26142707Y24806344D01*
X25798050Y24730479D01*
X25463616Y24617795D01*
X25463605Y24617790D01*
X25143334Y24469617D01*
X25143330Y24469614D01*
X25143326Y24469613D01*
X25143321Y24469610D01*
X24840954Y24287683D01*
X24840942Y24287675D01*
X24840934Y24287670D01*
X24559987Y24074100D01*
X24376171Y23899980D01*
X24303774Y23831402D01*
X24303769Y23831396D01*
X24075316Y23562440D01*
X24075308Y23562430D01*
X23877267Y23270342D01*
X23877266Y23270339D01*
X23877263Y23270334D01*
X23839200Y23198540D01*
X23711962Y22958544D01*
X23711953Y22958526D01*
X23581331Y22630689D01*
X23581330Y22630687D01*
X23486922Y22290657D01*
X23486917Y22290636D01*
X23429827Y21942404D01*
X23429826Y21942391D01*
X23429826Y21942390D01*
X23424491Y21843999D01*
X23410720Y21590002D01*
X23410720Y21589997D01*
X11017657Y21589997D01*
X11054149Y21686218D01*
X11073307Y21844000D01*
X11054149Y22001782D01*
X10997787Y22150395D01*
X10907498Y22281201D01*
X10788529Y22386599D01*
X10647793Y22460463D01*
X10544911Y22485820D01*
X10493472Y22498500D01*
X10493471Y22498500D01*
X10334529Y22498500D01*
X10334528Y22498500D01*
X10257368Y22479481D01*
X10180207Y22460463D01*
X10089174Y22412685D01*
X10039469Y22386598D01*
X9920506Y22281205D01*
X9920504Y22281203D01*
X9920502Y22281201D01*
X9920500Y22281198D01*
X9830214Y22150397D01*
X9773850Y22001781D01*
X9754693Y21844000D01*
X9754693Y21843999D01*
X2318583Y21843999D01*
X2398493Y21914794D01*
X2398495Y21914796D01*
X2398498Y21914799D01*
X2488787Y22045605D01*
X2545149Y22194218D01*
X2564307Y22352000D01*
X2545149Y22509782D01*
X2488787Y22658395D01*
X2398498Y22789201D01*
X2279529Y22894599D01*
X2138793Y22968463D01*
X2035911Y22993820D01*
X1984472Y23006500D01*
X1984471Y23006500D01*
X1825529Y23006500D01*
X1825528Y23006500D01*
X1748368Y22987481D01*
X1671207Y22968463D01*
X1542639Y22900985D01*
X1530469Y22894598D01*
X1411506Y22789205D01*
X1411504Y22789203D01*
X1411502Y22789201D01*
X1411500Y22789198D01*
X1321214Y22658397D01*
X1264850Y22509781D01*
X1245693Y22352000D01*
X1245693Y22351999D01*
X-14047700Y22351999D01*
X-14047700Y23198540D01*
X-14047464Y23203947D01*
X-14043898Y23244690D01*
X-14043898Y23244691D01*
X-14054482Y23284191D01*
X-14055653Y23289471D01*
X-14062758Y23329758D01*
X-14064428Y23334346D01*
X-14071836Y23352230D01*
X-14073901Y23356658D01*
X-14097359Y23390160D01*
X-14100265Y23394722D01*
X-14120717Y23430144D01*
X-14152049Y23456435D01*
X-14156039Y23460091D01*
X-16110367Y25414419D01*
X-16143852Y25475742D01*
X-16138868Y25545434D01*
X-16096996Y25601367D01*
X-16031532Y25625784D01*
X-16022686Y25626100D01*
X-11817341Y25626100D01*
X-11750302Y25606415D01*
X-11704547Y25553611D01*
X-11694603Y25484453D01*
X-11723628Y25420897D01*
X-11782406Y25383123D01*
X-11806534Y25378572D01*
X-11816093Y25377735D01*
X-11902674Y25370161D01*
X-12114703Y25313347D01*
X-12313646Y25220579D01*
X-12493457Y25094674D01*
X-12648674Y24939457D01*
X-12774579Y24759646D01*
X-12867347Y24560703D01*
X-12924161Y24348674D01*
X-12929497Y24287683D01*
X-12943292Y24130002D01*
X-12943292Y24129997D01*
X-12938319Y24073154D01*
X-12924161Y23911326D01*
X-12867347Y23699297D01*
X-12774579Y23500354D01*
X-12774577Y23500351D01*
X-12774576Y23500349D01*
X-12648677Y23320547D01*
X-12648672Y23320541D01*
X-12493458Y23165327D01*
X-12493452Y23165322D01*
X-12313650Y23039423D01*
X-12313642Y23039419D01*
X-12114708Y22946655D01*
X-12114706Y22946654D01*
X-12114703Y22946653D01*
X-11963885Y22906240D01*
X-11902675Y22889839D01*
X-11902668Y22889838D01*
X-11684002Y22870708D01*
X-11684000Y22870708D01*
X-11683998Y22870708D01*
X-11465331Y22889838D01*
X-11465324Y22889839D01*
X-11342902Y22922642D01*
X-11253297Y22946653D01*
X-11253295Y22946653D01*
X-11253291Y22946655D01*
X-11054357Y23039419D01*
X-11054349Y23039423D01*
X-10874547Y23165322D01*
X-10874541Y23165327D01*
X-10719327Y23320541D01*
X-10719322Y23320547D01*
X-10593423Y23500349D01*
X-10593419Y23500357D01*
X-10500655Y23699291D01*
X-10443839Y23911324D01*
X-10443838Y23911331D01*
X-10424708Y24129997D01*
X-10424708Y24130002D01*
X-10443838Y24348668D01*
X-10443839Y24348675D01*
X-10468205Y24439607D01*
X-10500653Y24560703D01*
X-10593421Y24759646D01*
X-10593423Y24759650D01*
X-10719322Y24939452D01*
X-10719327Y24939458D01*
X-10874541Y25094672D01*
X-10874547Y25094677D01*
X-11054349Y25220576D01*
X-11054351Y25220577D01*
X-11054354Y25220579D01*
X-11253297Y25313347D01*
X-11465326Y25370161D01*
X-11550218Y25377587D01*
X-11561466Y25378572D01*
X-11626535Y25404024D01*
X-11667514Y25460615D01*
X-11671392Y25530377D01*
X-11636938Y25591161D01*
X-11575091Y25623669D01*
X-11550659Y25626100D01*
X-10848514Y25626100D01*
X-10781475Y25606415D01*
X-10760833Y25589781D01*
X-10155144Y24984092D01*
X-10121659Y24922769D01*
X-10119729Y24881470D01*
X-10133507Y24768000D01*
X-10114349Y24610218D01*
X-10057987Y24461605D01*
X-9967698Y24330799D01*
X-9967695Y24330796D01*
X-9967693Y24330794D01*
X-9848730Y24225401D01*
X-9707991Y24151536D01*
X-9553672Y24113500D01*
X-9553671Y24113500D01*
X-9394728Y24113500D01*
X-9327796Y24129997D01*
X-8117292Y24129997D01*
X-8112319Y24073154D01*
X-8098161Y23911326D01*
X-8041347Y23699297D01*
X-7948579Y23500354D01*
X-7948577Y23500351D01*
X-7948576Y23500349D01*
X-7822677Y23320547D01*
X-7822672Y23320541D01*
X-7667458Y23165327D01*
X-7667452Y23165322D01*
X-7487650Y23039423D01*
X-7487642Y23039419D01*
X-7288708Y22946655D01*
X-7288706Y22946654D01*
X-7288703Y22946653D01*
X-7137885Y22906240D01*
X-7076675Y22889839D01*
X-7076668Y22889838D01*
X-6858002Y22870708D01*
X-6858000Y22870708D01*
X-6857998Y22870708D01*
X-6639331Y22889838D01*
X-6639324Y22889839D01*
X-6516902Y22922642D01*
X-6427297Y22946653D01*
X-6427295Y22946653D01*
X-6427291Y22946655D01*
X-6228357Y23039419D01*
X-6228349Y23039423D01*
X-6048547Y23165322D01*
X-6048541Y23165327D01*
X-5893327Y23320541D01*
X-5893322Y23320547D01*
X-5767423Y23500349D01*
X-5767419Y23500357D01*
X-5674655Y23699291D01*
X-5617839Y23911324D01*
X-5617838Y23911331D01*
X-5598708Y24129997D01*
X-5598708Y24130002D01*
X-5617838Y24348668D01*
X-5617839Y24348675D01*
X-5642205Y24439607D01*
X-5674653Y24560703D01*
X-5710696Y24637999D01*
X12548693Y24637999D01*
X12567850Y24480218D01*
X12624214Y24331602D01*
X12714500Y24200801D01*
X12714506Y24200794D01*
X12833469Y24095401D01*
X12974208Y24021536D01*
X13128528Y23983500D01*
X13128529Y23983500D01*
X13287472Y23983500D01*
X13441791Y24021536D01*
X13582530Y24095401D01*
X13701493Y24200794D01*
X13701495Y24200796D01*
X13701498Y24200799D01*
X13791787Y24331605D01*
X13848149Y24480218D01*
X13852907Y24519406D01*
X13867307Y24637999D01*
X13867307Y24638000D01*
X13848149Y24795781D01*
X13844143Y24806344D01*
X13791787Y24944395D01*
X13701498Y25075201D01*
X13582529Y25180599D01*
X13441793Y25254463D01*
X13338911Y25279821D01*
X13287472Y25292500D01*
X13287471Y25292500D01*
X13128529Y25292500D01*
X13128528Y25292500D01*
X13051367Y25273481D01*
X12974207Y25254463D01*
X12845639Y25186985D01*
X12833469Y25180598D01*
X12714506Y25075205D01*
X12714504Y25075203D01*
X12714502Y25075201D01*
X12624213Y24944395D01*
X12621970Y24938480D01*
X12567850Y24795781D01*
X12548693Y24638000D01*
X12548693Y24637999D01*
X-5710696Y24637999D01*
X-5767421Y24759646D01*
X-5767423Y24759650D01*
X-5893322Y24939452D01*
X-5893327Y24939458D01*
X-6048541Y25094672D01*
X-6048547Y25094677D01*
X-6228349Y25220576D01*
X-6228351Y25220577D01*
X-6228354Y25220579D01*
X-6427297Y25313347D01*
X-6639326Y25370161D01*
X-6802803Y25384463D01*
X-6857998Y25389292D01*
X-6858002Y25389292D01*
X-6912668Y25384509D01*
X-7076674Y25370161D01*
X-7288703Y25313347D01*
X-7487646Y25220579D01*
X-7667457Y25094674D01*
X-7822674Y24939457D01*
X-7948579Y24759646D01*
X-8041347Y24560703D01*
X-8098161Y24348674D01*
X-8103497Y24287683D01*
X-8117292Y24130002D01*
X-8117292Y24129997D01*
X-9327796Y24129997D01*
X-9240408Y24151536D01*
X-9099669Y24225401D01*
X-8980706Y24330794D01*
X-8980700Y24330801D01*
X-8890414Y24461602D01*
X-8834050Y24610218D01*
X-8814893Y24767999D01*
X-8814893Y24768000D01*
X-8834050Y24925781D01*
X-8890414Y25074397D01*
X-8980700Y25205198D01*
X-8980702Y25205201D01*
X-8980704Y25205203D01*
X-8980706Y25205205D01*
X-9099669Y25310598D01*
X-9111839Y25316985D01*
X-9240407Y25384463D01*
X-9374244Y25417451D01*
X-9394728Y25422500D01*
X-9394729Y25422500D01*
X-9553671Y25422500D01*
X-9553673Y25422500D01*
X-9574156Y25417451D01*
X-9643958Y25420518D01*
X-9691514Y25450166D01*
X-9946148Y25704800D01*
X-1624507Y25704800D01*
X-1605349Y25547018D01*
X-1548987Y25398405D01*
X-1458698Y25267599D01*
X-1458695Y25267596D01*
X-1458693Y25267594D01*
X-1339730Y25162201D01*
X-1198991Y25088336D01*
X-1044672Y25050300D01*
X-1044671Y25050300D01*
X-885728Y25050300D01*
X-731408Y25088336D01*
X-590669Y25162201D01*
X-471706Y25267594D01*
X-471700Y25267601D01*
X-381414Y25398402D01*
X-325050Y25547018D01*
X-305893Y25704799D01*
X-305893Y25704800D01*
X-325050Y25862581D01*
X-381414Y26011197D01*
X-471700Y26141998D01*
X-471702Y26142001D01*
X-471704Y26142003D01*
X-471706Y26142005D01*
X-494274Y26161999D01*
X26010693Y26161999D01*
X26029850Y26004218D01*
X26086214Y25855602D01*
X26176500Y25724801D01*
X26176506Y25724794D01*
X26295469Y25619401D01*
X26436208Y25545536D01*
X26590528Y25507500D01*
X26590529Y25507500D01*
X26749472Y25507500D01*
X26903791Y25545536D01*
X27044530Y25619401D01*
X27163493Y25724794D01*
X27163495Y25724796D01*
X27163498Y25724799D01*
X27253787Y25855605D01*
X27310149Y26004218D01*
X27329307Y26162000D01*
X27310149Y26319782D01*
X27253787Y26468395D01*
X27163498Y26599201D01*
X27044529Y26704599D01*
X26903793Y26778463D01*
X26800911Y26803820D01*
X26749472Y26816500D01*
X26749471Y26816500D01*
X26590529Y26816500D01*
X26590528Y26816500D01*
X26513368Y26797481D01*
X26436207Y26778463D01*
X26307639Y26710985D01*
X26295469Y26704598D01*
X26176506Y26599205D01*
X26176504Y26599203D01*
X26176502Y26599201D01*
X26176500Y26599198D01*
X26086214Y26468397D01*
X26029850Y26319781D01*
X26010693Y26162000D01*
X26010693Y26161999D01*
X-494274Y26161999D01*
X-590669Y26247398D01*
X-627532Y26266745D01*
X-731407Y26321263D01*
X-808567Y26340281D01*
X-885728Y26359300D01*
X-885729Y26359300D01*
X-1044671Y26359300D01*
X-1044672Y26359300D01*
X-1096111Y26346620D01*
X-1198993Y26321263D01*
X-1339729Y26247399D01*
X-1458698Y26142001D01*
X-1548987Y26011195D01*
X-1605349Y25862582D01*
X-1624507Y25704800D01*
X-9946148Y25704800D01*
X-10416508Y26175160D01*
X-10420164Y26179149D01*
X-10446456Y26210483D01*
X-10446459Y26210485D01*
X-10481872Y26230931D01*
X-10486436Y26233838D01*
X-10505802Y26247398D01*
X-10519942Y26257299D01*
X-10519944Y26257300D01*
X-10524421Y26259387D01*
X-10542217Y26266758D01*
X-10546837Y26268440D01*
X-10546842Y26268440D01*
X-10546844Y26268442D01*
X-10587141Y26275547D01*
X-10592389Y26276711D01*
X-10631910Y26287301D01*
X-10672660Y26283735D01*
X-10678062Y26283500D01*
X-35070271Y26283500D01*
X-35075672Y26283735D01*
X-35116412Y26287300D01*
X-35155922Y26276713D01*
X-35161172Y26275548D01*
X-35201478Y26268442D01*
X-35201481Y26268440D01*
X-35201482Y26268440D01*
X-35206138Y26266745D01*
X-35223876Y26259398D01*
X-35228375Y26257300D01*
X-35228380Y26257299D01*
X-35261896Y26233829D01*
X-35266425Y26230943D01*
X-35301866Y26210483D01*
X-35328158Y26179148D01*
X-35331804Y26175168D01*
X-36412296Y25094677D01*
X-37433819Y24073154D01*
X-37495142Y24039669D01*
X-37564834Y24044653D01*
X-37620767Y24086525D01*
X-37645184Y24151989D01*
X-37645500Y24160835D01*
X-37645500Y30987999D01*
X-35487107Y30987999D01*
X-35466724Y30768032D01*
X-35466723Y30768029D01*
X-35406271Y30555559D01*
X-35406269Y30555555D01*
X-35307801Y30357804D01*
X-35174673Y30181514D01*
X-35011418Y30032688D01*
X-35011413Y30032685D01*
X-34823595Y29916393D01*
X-34823594Y29916392D01*
X-34661244Y29853498D01*
X-34617604Y29836592D01*
X-34400455Y29796000D01*
X-34400453Y29796000D01*
X-34179547Y29796000D01*
X-34179545Y29796000D01*
X-33962396Y29836592D01*
X-33962393Y29836593D01*
X-33756405Y29916392D01*
X-33756404Y29916393D01*
X-33568586Y30032685D01*
X-33568584Y30032686D01*
X-33568582Y30032688D01*
X-33405327Y30181514D01*
X-33405326Y30181515D01*
X-33272199Y30357803D01*
X-33173731Y30555553D01*
X-33173728Y30555559D01*
X-33139266Y30676685D01*
X-33101987Y30735778D01*
X-33038678Y30765336D01*
X-32969438Y30755974D01*
X-32916252Y30710665D01*
X-32900734Y30676685D01*
X-32866271Y30555559D01*
X-32866269Y30555555D01*
X-32767801Y30357804D01*
X-32634673Y30181514D01*
X-32471418Y30032688D01*
X-32471413Y30032685D01*
X-32283595Y29916393D01*
X-32283594Y29916392D01*
X-32121244Y29853498D01*
X-32077604Y29836592D01*
X-31860455Y29796000D01*
X-31860453Y29796000D01*
X-31639547Y29796000D01*
X-31639545Y29796000D01*
X-31422396Y29836592D01*
X-31422393Y29836593D01*
X-31216405Y29916392D01*
X-31216404Y29916393D01*
X-31028586Y30032685D01*
X-31028584Y30032686D01*
X-31028582Y30032688D01*
X-30865327Y30181514D01*
X-30865326Y30181515D01*
X-30732199Y30357803D01*
X-30633731Y30555553D01*
X-30633728Y30555559D01*
X-30599266Y30676685D01*
X-30561987Y30735778D01*
X-30498678Y30765336D01*
X-30429438Y30755974D01*
X-30376252Y30710665D01*
X-30360734Y30676685D01*
X-30326271Y30555559D01*
X-30326269Y30555555D01*
X-30227801Y30357804D01*
X-30094673Y30181514D01*
X-29931418Y30032688D01*
X-29931413Y30032685D01*
X-29743595Y29916393D01*
X-29743594Y29916392D01*
X-29581244Y29853498D01*
X-29537604Y29836592D01*
X-29320455Y29796000D01*
X-29320453Y29796000D01*
X-29099547Y29796000D01*
X-29099545Y29796000D01*
X-28882396Y29836592D01*
X-28882393Y29836593D01*
X-28676405Y29916392D01*
X-28676404Y29916393D01*
X-28488586Y30032685D01*
X-28488584Y30032686D01*
X-28488582Y30032688D01*
X-28325327Y30181514D01*
X-28325326Y30181515D01*
X-28192199Y30357803D01*
X-28093731Y30555553D01*
X-28093728Y30555559D01*
X-28059266Y30676685D01*
X-28021987Y30735778D01*
X-27958678Y30765336D01*
X-27889438Y30755974D01*
X-27836252Y30710665D01*
X-27820734Y30676685D01*
X-27786271Y30555559D01*
X-27786269Y30555555D01*
X-27687801Y30357804D01*
X-27554673Y30181514D01*
X-27391418Y30032688D01*
X-27391413Y30032685D01*
X-27203595Y29916393D01*
X-27203594Y29916392D01*
X-27041244Y29853498D01*
X-26997604Y29836592D01*
X-26780455Y29796000D01*
X-26780453Y29796000D01*
X-26559547Y29796000D01*
X-26559545Y29796000D01*
X-26342396Y29836592D01*
X-26342393Y29836593D01*
X-26136405Y29916392D01*
X-26136404Y29916393D01*
X-25948586Y30032685D01*
X-25948584Y30032686D01*
X-25948582Y30032688D01*
X-25785327Y30181514D01*
X-25785326Y30181515D01*
X-25652199Y30357803D01*
X-25553731Y30555553D01*
X-25553728Y30555559D01*
X-25493276Y30768029D01*
X-25493275Y30768032D01*
X-25472893Y30987999D01*
X-25472893Y30988000D01*
X-25493275Y31207967D01*
X-25493276Y31207970D01*
X-25553728Y31420440D01*
X-25553731Y31420446D01*
X-25652199Y31618196D01*
X-25652198Y31618196D01*
X-25785327Y31794486D01*
X-25948582Y31943312D01*
X-26136403Y32059606D01*
X-26136404Y32059606D01*
X-26136405Y32059607D01*
X-26180043Y32076512D01*
X-26342396Y32139408D01*
X-26559545Y32180000D01*
X-26780455Y32180000D01*
X-26997604Y32139408D01*
X-27203597Y32059606D01*
X-27391418Y31943312D01*
X-27554673Y31794486D01*
X-27687801Y31618196D01*
X-27786269Y31420445D01*
X-27820734Y31299311D01*
X-27858013Y31240221D01*
X-27921322Y31210663D01*
X-27990562Y31220025D01*
X-28043748Y31265334D01*
X-28059264Y31299309D01*
X-28093731Y31420445D01*
X-28192199Y31618196D01*
X-28325327Y31794486D01*
X-28488582Y31943312D01*
X-28676403Y32059606D01*
X-28676404Y32059606D01*
X-28676405Y32059607D01*
X-28720043Y32076512D01*
X-28882396Y32139408D01*
X-29099545Y32180000D01*
X-29320455Y32180000D01*
X-29537604Y32139408D01*
X-29743597Y32059606D01*
X-29931418Y31943312D01*
X-30094673Y31794486D01*
X-30227801Y31618196D01*
X-30326269Y31420445D01*
X-30360734Y31299311D01*
X-30398013Y31240221D01*
X-30461322Y31210663D01*
X-30530562Y31220025D01*
X-30583748Y31265334D01*
X-30599264Y31299309D01*
X-30633731Y31420445D01*
X-30732199Y31618196D01*
X-30865327Y31794486D01*
X-31028582Y31943312D01*
X-31216403Y32059606D01*
X-31216404Y32059606D01*
X-31216405Y32059607D01*
X-31260043Y32076512D01*
X-31422396Y32139408D01*
X-31639545Y32180000D01*
X-31860455Y32180000D01*
X-32077604Y32139408D01*
X-32283597Y32059606D01*
X-32471418Y31943312D01*
X-32634673Y31794486D01*
X-32767801Y31618196D01*
X-32866269Y31420445D01*
X-32900734Y31299311D01*
X-32938013Y31240221D01*
X-33001322Y31210663D01*
X-33070562Y31220025D01*
X-33123748Y31265334D01*
X-33139264Y31299309D01*
X-33173731Y31420445D01*
X-33272199Y31618196D01*
X-33405327Y31794486D01*
X-33568582Y31943312D01*
X-33756403Y32059606D01*
X-33756404Y32059606D01*
X-33756405Y32059607D01*
X-33800043Y32076512D01*
X-33962396Y32139408D01*
X-34179545Y32180000D01*
X-34400455Y32180000D01*
X-34617604Y32139408D01*
X-34823597Y32059606D01*
X-35011418Y31943312D01*
X-35174673Y31794486D01*
X-35307801Y31618196D01*
X-35406269Y31420445D01*
X-35406271Y31420440D01*
X-35466723Y31207970D01*
X-35466724Y31207967D01*
X-35487107Y30988000D01*
X-35487107Y30987999D01*
X-37645500Y30987999D01*
X-37645500Y32949500D01*
X-37625815Y33016539D01*
X-37573011Y33062294D01*
X-37521500Y33073500D01*
X34219500Y33073500D01*
X34286539Y33053815D01*
G37*
G04 #@! TD.AperFunction*
M02*
