M48
; DRILL file {KiCad (6.0.0)} date Sat Apr 16 22:28:57 2022
; FORMAT={-:-/ absolute / inch / decimal}
; #@! TF.CreationDate,2022-04-16T22:28:57-04:00
; #@! TF.GenerationSoftware,Kicad,Pcbnew,(6.0.0)
; #@! TF.FileFunction,MixedPlating,1,4
FMAT,2
INCH
; #@! TA.AperFunction,Plated,PTH,ViaDrill
T1C0.0157
; #@! TA.AperFunction,Plated,PTH,ComponentDrill
T2C0.0157
; #@! TA.AperFunction,Plated,PTH,ComponentDrill
T3C0.0236
; #@! TA.AperFunction,Plated,PTH,ComponentDrill
T4C0.0394
; #@! TA.AperFunction,Plated,PTH,ComponentDrill
T5C0.0509
; #@! TA.AperFunction,Plated,PTH,ComponentDrill
T6C0.0581
; #@! TA.AperFunction,Plated,PTH,ComponentDrill
T7C0.1181
%
G90
G05
T1
X4.495Y-4.065
X4.535Y-4.63
X4.555Y-4.27
X4.64Y-3.865
X4.645Y-3.715
X4.66Y-3.98
X4.695Y-3.67
X4.78Y-3.965
X4.785Y-2.555
X4.785Y-2.64
X4.785Y-2.725
X4.785Y-2.81
X4.785Y-2.895
X4.785Y-2.98
X4.785Y-3.065
X4.785Y-2.47
X4.795Y-3.21
X4.8Y-2.085
X4.8Y-2.13
X4.805Y-4.2375
X4.81Y-4.04
X4.83Y-3.935
X4.845Y-2.265
X4.85Y-3.805
X4.885Y-3.93
X4.925Y-2.265
X4.935Y-4.355
X4.9465Y-1.9665
X4.965Y-3.455
X4.965Y-3.6
X4.97Y-3.325
X4.97Y-3.735
X4.9765Y-4.4256
X4.98Y-3.87
X4.9889Y-4.2702
X5.005Y-4.48
X5.025Y-4.265
X5.03Y-4.135
X5.09Y-3.95
X5.09Y-4.69
X5.1Y-3.74
X5.1Y-3.795
X5.1154Y-4.3054
X5.12Y-4.39
X5.12Y-4.435
X5.1446Y-4.3346
X5.17Y-2.665
X5.1729Y-1.727
X5.1729Y-1.773
X5.1729Y-1.819
X5.1729Y-1.865
X5.1729Y-1.911
X5.1729Y-1.957
X5.1729Y-2.0015
X5.1729Y-2.049
X5.18Y-3.59
X5.18Y-3.72
X5.205Y-3.69
X5.21Y-3.62
X5.21Y-3.95
X5.21Y-4.135
X5.226Y-3.8
X5.235Y-2.2925
X5.26Y-3.765
X5.29Y-1.74
X5.32Y-1.63
X5.335Y-3.325
X5.335Y-3.585
X5.335Y-4.075
X5.34Y-3.455
X5.345Y-3.93
X5.35Y-1.74
X5.35Y-4.31
X5.36Y-1.78
X5.37Y-3.49
X5.37Y-3.615
X5.375Y-3.325
X5.375Y-3.764
X5.375Y-4.1325
X5.375Y-4.2
X5.3751Y-4.08
X5.39Y-2.295
X5.455Y-3.27
X5.455Y-3.91
X5.455Y-3.96
X5.52Y-3.76
X5.525Y-3.625
X5.54Y-2.055
X5.58Y-3.325
X5.58Y-3.62
X5.585Y-3.49
X5.62Y-2.11
X5.62Y-4.34
X5.655Y-4.0163
X5.715Y-4.005
X5.72Y-3.325
X5.755Y-3.24
X5.805Y-4.66
X5.815Y-2.845
X5.815Y-3.31
X5.83Y-2.415
X5.83Y-2.46
X5.855Y-4.31
X5.875Y-2.765
X5.875Y-4.135
X5.94Y-3.39
X5.95Y-3.485
X5.95Y-3.635
X5.955Y-4.66
X5.96Y-3.9
X6.0Y-4.31
X6.015Y-2.27
X6.05Y-4.045
X6.08Y-3.975
X6.095Y-2.36
X6.1Y-3.855
X6.1Y-4.66
X6.12Y-2.19
X6.125Y-3.345
X6.13Y-2.39
X6.145Y-2.965
X6.145Y-3.0
X6.145Y-3.105
X6.145Y-3.14
X6.145Y-4.31
X6.1492Y-2.2942
X6.175Y-2.32
X6.195Y-3.82
X6.2Y-3.47
X6.22Y-2.115
X6.22Y-2.405
X6.255Y-4.18
X6.27Y-2.405
X6.27Y-2.45
X6.27Y-4.135
X6.3285Y-2.2648
X6.335Y-3.82
X6.34Y-3.47
X6.365Y-2.265
X6.37Y-3.35
X6.38Y-3.875
X6.445Y-3.4144
X6.455Y-2.7
X6.465Y-3.91
X6.47Y-2.435
X6.48Y-3.515
X6.5Y-3.28
X6.5Y-3.32
X6.51Y-2.51
X6.51Y-3.875
X6.515Y-4.325
X6.525Y-3.515
X6.53Y-3.13
X6.55Y-2.115
X6.555Y-2.645
X6.555Y-3.945
X6.56Y-4.665
X6.57Y-3.515
X6.575Y-1.94
X6.5763Y-2.8641
X6.5763Y-3.28
X6.63Y-3.62
X6.675Y-4.195
X6.6868Y-3.6118
X6.695Y-2.6
X6.7Y-4.445
X6.7005Y-3.8355
X6.7025Y-4.065
X6.71Y-2.305
X6.735Y-3.43
X6.745Y-3.84
X6.76Y-2.385
X6.7675Y-4.1425
X6.78Y-2.705
X6.825Y-2.495
X6.8399Y-3.7767
X6.945Y-2.035
X6.98Y-3.96
X7.01Y-4.5875
X7.04Y-2.725
X7.05Y-2.42
X7.155Y-1.7675
X7.17Y-4.39
X7.175Y-3.465
X7.225Y-2.025
X7.25Y-3.73
X7.31Y-3.03
X7.31Y-3.09
X7.46Y-1.77
X7.46Y-1.805
X7.46Y-1.84
X7.46Y-1.875
X7.46Y-1.91
X7.46Y-2.075
X7.46Y-2.11
X7.46Y-2.145
X7.46Y-2.18
X7.46Y-2.215
X7.46Y-2.335
X7.46Y-2.37
X7.46Y-2.405
X7.46Y-2.44
X7.46Y-2.475
X7.46Y-2.705
X7.46Y-2.74
X7.46Y-2.775
X7.46Y-2.81
X7.46Y-2.845
X7.46Y-3.545
X7.46Y-3.58
X7.46Y-3.615
X7.46Y-3.65
X7.46Y-3.685
X7.46Y-3.915
X7.46Y-3.95
X7.46Y-3.985
X7.46Y-4.02
X7.46Y-4.055
X7.46Y-4.175
X7.46Y-4.21
X7.46Y-4.245
X7.46Y-4.28
X7.46Y-4.315
X7.46Y-4.48
X7.46Y-4.515
X7.46Y-4.55
X7.46Y-4.585
X7.46Y-4.62
X7.48Y-3.03
X7.48Y-3.095
X7.495Y-1.77
X7.495Y-1.805
X7.495Y-1.84
X7.495Y-1.875
X7.495Y-1.91
X7.495Y-2.075
X7.495Y-2.11
X7.495Y-2.145
X7.495Y-2.18
X7.495Y-2.215
X7.495Y-2.335
X7.495Y-2.37
X7.495Y-2.405
X7.495Y-2.44
X7.495Y-2.475
X7.495Y-2.705
X7.495Y-2.74
X7.495Y-2.775
X7.495Y-2.81
X7.495Y-2.845
X7.495Y-3.545
X7.495Y-3.58
X7.495Y-3.615
X7.495Y-3.65
X7.495Y-3.685
X7.495Y-3.915
X7.495Y-3.95
X7.495Y-3.985
X7.495Y-4.02
X7.495Y-4.055
X7.495Y-4.175
X7.495Y-4.21
X7.495Y-4.245
X7.495Y-4.28
X7.495Y-4.315
X7.495Y-4.48
X7.495Y-4.515
X7.495Y-4.55
X7.495Y-4.585
X7.495Y-4.62
X7.52Y-3.195
X7.53Y-1.77
X7.53Y-1.805
X7.53Y-1.84
X7.53Y-1.875
X7.53Y-1.91
X7.53Y-2.075
X7.53Y-2.11
X7.53Y-2.145
X7.53Y-2.18
X7.53Y-2.215
X7.53Y-2.335
X7.53Y-2.37
X7.53Y-2.405
X7.53Y-2.44
X7.53Y-2.475
X7.53Y-2.705
X7.53Y-2.74
X7.53Y-2.775
X7.53Y-2.81
X7.53Y-2.845
X7.53Y-3.545
X7.53Y-3.58
X7.53Y-3.615
X7.53Y-3.65
X7.53Y-3.685
X7.53Y-3.915
X7.53Y-3.95
X7.53Y-3.985
X7.53Y-4.02
X7.53Y-4.055
X7.53Y-4.175
X7.53Y-4.21
X7.53Y-4.245
X7.53Y-4.28
X7.53Y-4.315
X7.53Y-4.48
X7.53Y-4.515
X7.53Y-4.55
X7.53Y-4.585
X7.53Y-4.62
X7.65Y-1.74
X7.65Y-1.775
X7.65Y-1.81
X7.65Y-1.87
X7.65Y-1.905
X7.65Y-1.94
X7.65Y-2.04
X7.65Y-2.075
X7.65Y-2.11
X7.65Y-2.175
X7.65Y-2.21
X7.65Y-2.245
X7.65Y-2.335
X7.65Y-2.37
X7.65Y-2.405
X7.65Y-2.44
X7.65Y-2.475
X7.65Y-2.7
X7.65Y-2.735
X7.65Y-2.77
X7.65Y-2.805
X7.65Y-2.84
X7.65Y-3.55
X7.65Y-3.585
X7.65Y-3.62
X7.65Y-3.655
X7.65Y-3.69
X7.65Y-3.92
X7.65Y-3.955
X7.65Y-3.99
X7.65Y-4.025
X7.65Y-4.06
X7.65Y-4.145
X7.65Y-4.18
X7.65Y-4.215
X7.65Y-4.28
X7.65Y-4.315
X7.65Y-4.35
X7.65Y-4.455
X7.65Y-4.49
X7.65Y-4.525
X7.65Y-4.58
X7.65Y-4.615
X7.65Y-4.65
X7.66Y-3.17
X7.685Y-1.74
X7.685Y-1.775
X7.685Y-1.81
X7.685Y-1.87
X7.685Y-1.905
X7.685Y-1.94
X7.685Y-2.04
X7.685Y-2.075
X7.685Y-2.11
X7.685Y-2.175
X7.685Y-2.21
X7.685Y-2.245
X7.685Y-2.335
X7.685Y-2.37
X7.685Y-2.405
X7.685Y-2.44
X7.685Y-2.475
X7.685Y-2.7
X7.685Y-2.735
X7.685Y-2.77
X7.685Y-2.805
X7.685Y-2.84
X7.685Y-3.55
X7.685Y-3.585
X7.685Y-3.62
X7.685Y-3.655
X7.685Y-3.69
X7.685Y-3.92
X7.685Y-3.955
X7.685Y-3.99
X7.685Y-4.025
X7.685Y-4.06
X7.685Y-4.145
X7.685Y-4.18
X7.685Y-4.215
X7.685Y-4.28
X7.685Y-4.315
X7.685Y-4.35
X7.685Y-4.455
X7.685Y-4.49
X7.685Y-4.525
X7.685Y-4.58
X7.685Y-4.615
X7.685Y-4.65
X7.6925Y-3.1925
X7.71Y-2.635
X7.71Y-3.02
X7.71Y-3.37
X7.71Y-3.745
X7.72Y-2.335
X7.72Y-2.37
X7.72Y-2.405
X7.72Y-2.44
X7.72Y-2.475
X7.72Y-2.7
X7.72Y-2.735
X7.72Y-2.77
X7.72Y-2.805
X7.72Y-2.84
X7.72Y-3.55
X7.72Y-3.585
X7.72Y-3.62
X7.72Y-3.655
X7.72Y-3.69
X7.72Y-3.92
X7.72Y-3.955
X7.72Y-3.99
X7.72Y-4.025
X7.72Y-4.06
X7.78Y-2.54
X7.78Y-3.855
X7.915Y-3.385
X8.1075Y-2.895
T2
X4.4269Y-4.175
X4.4269Y-4.2085
X4.4269Y-4.2419
X4.4269Y-4.2754
X4.4269Y-4.3089
X4.4269Y-4.3423
X4.4269Y-4.3758
X4.4269Y-4.4093
X4.48Y-4.175
X4.48Y-4.2085
X4.48Y-4.2419
X4.48Y-4.2754
X4.48Y-4.3089
X4.48Y-4.3423
X4.48Y-4.3758
X4.48Y-4.4093
T4
X4.73Y-4.48
X4.84Y-3.5525
X5.31Y-2.52
X5.69Y-1.985
X5.75Y-4.2
X5.94Y-2.99
X6.23Y-4.3
X6.36Y-4.125
X6.425Y-4.25
X6.47Y-1.8
X6.59Y-2.32
T5
X7.9122Y-1.6999
X7.9122Y-1.8649
X7.9122Y-2.0298
X7.9122Y-2.1948
X7.9122Y-2.3598
X7.9122Y-2.5247
X7.9122Y-3.8653
X7.9122Y-4.0302
X7.9122Y-4.1952
X7.9122Y-4.3602
X7.9122Y-4.5251
X7.9122Y-4.6901
X8.1622Y-1.6999
X8.1622Y-1.8649
X8.1622Y-2.0298
X8.1622Y-2.1948
X8.1622Y-2.3598
X8.1622Y-2.5247
X8.1622Y-3.8653
X8.1622Y-4.0302
X8.1622Y-4.1952
X8.1622Y-4.3602
X8.1622Y-4.5251
X8.1622Y-4.6901
T6
X6.86Y-3.045
X6.86Y-3.345
X6.96Y-3.045
X6.96Y-3.345
X7.06Y-3.045
X7.06Y-3.345
X7.16Y-3.045
X7.16Y-3.345
T7
X6.3Y-1.9
X6.3Y-4.49
X8.085Y-3.195
T3
G00X4.3241Y-4.1219
M15
G01X4.2926Y-4.1219
M16
G05
G00X4.3241Y-4.4624
M15
G01X4.2926Y-4.4624
M16
G05
G00X4.4709Y-4.1219
M15
G01X4.4119Y-4.1219
M16
G05
G00X4.4709Y-4.4624
M15
G01X4.4119Y-4.4624
M16
G05
T0
M30
