M48
; DRILL file {KiCad 7.0.6} date Mon Sep  4 22:35:17 2023
; FORMAT={-:-/ absolute / metric / decimal}
; #@! TF.CreationDate,2023-09-04T22:35:17-04:00
; #@! TF.GenerationSoftware,Kicad,Pcbnew,7.0.6
; #@! TF.FileFunction,Plated,1,4,PTH
FMAT,2
METRIC
; #@! TA.AperFunction,Plated,PTH,ViaDrill
T1C0.400
; #@! TA.AperFunction,Plated,PTH,ComponentDrill
T2C0.400
; #@! TA.AperFunction,Plated,PTH,ComponentDrill
T3C0.600
; #@! TA.AperFunction,Plated,PTH,ComponentDrill
T4C1.000
; #@! TA.AperFunction,Plated,PTH,ComponentDrill
T5C1.475
; #@! TA.AperFunction,Plated,PTH,ComponentDrill
T6C1.770
; #@! TA.AperFunction,Plated,PTH,ComponentDrill
T7C3.000
%
G90
G05
T1
X-35.712Y-37.44
X-34.671Y-32.131
X-34.671Y-35.941
X-33.528Y-32.131
X-33.528Y-35.941
X-32.893Y-48.26
X-32.385Y-32.131
X-31.369Y-34.798
X-27.686Y-14.478
X-27.432Y-5.207
X-27.432Y-6.604
X-25.527Y-4.318
X-25.527Y-7.874
X-21.844Y-4.445
X-20.701Y-47.498
X-20.701Y-48.641
X-20.32Y-1.524
X-20.32Y-4.445
X-20.32Y-8.89
X-19.685Y-46.355
X-19.304Y-5.334
X-19.304Y-6.731
X-19.177Y-18.669
X-18.542Y-46.355
X-18.288Y-18.034
X-16.51Y-3.81
X-16.51Y-8.89
X-15.748Y-18.796
X-14.478Y-45.11
X-14.376Y15.189
X-13.843Y-9.271
X-13.843Y-10.16
X-13.462Y-8.382
X-13.36Y-45.11
X-12.954Y-6.731
X-12.802Y-32.614
X-12.573Y-8.382
X-12.294Y-52.74
X-12.192Y-11.811
X-12.192Y-12.7
X-12.192Y-13.589
X-11.811Y-8.382
X-11.811Y-43.053
X-11.811Y-44.069
X-11.811Y-45.085
X-11.303Y-6.731
X-11.303Y-11.811
X-11.303Y-12.7
X-11.303Y-13.589
X-11.176Y-1.524
X-10.922Y-8.382
X-10.886Y-43.053
X-10.886Y-44.069
X-10.886Y-45.085
X-10.465Y-21.438
X-10.414Y-11.811
X-10.414Y-12.7
X-10.414Y-13.589
X-10.033Y-8.382
X-9.652Y-6.731
X-9.525Y-11.811
X-9.525Y-12.7
X-9.525Y-13.589
X-9.474Y24.768
X-9.144Y-8.382
X-9.093Y-26.01
X-9.042Y-31.496
X-8.915Y8.715
X-7.874Y-29.845
X-7.256Y-43.942
X-6.483Y-36.319
X-6.34Y-38.491
X-6.206Y-43.942
X-5.598Y-39.233
X-5.207Y-45.212
X-4.699Y-40.132
X-4.572Y-18.923
X-3.556Y-46.736
X-3.175Y-1.524
X-3.048Y1.778
X-3.048Y-6.858
X-3.048Y-29.972
X-2.997Y6.96
X-2.87Y10.262
X-2.87Y9.373
X-2.794Y-9.271
X-2.794Y-10.16
X-2.489Y8.484
X-2.413Y-8.382
X-1.6Y8.484
X-1.524Y-8.382
X-1.321Y13.564
X-1.321Y12.675
X-1.321Y11.786
X-1.27Y1.778
X-1.27Y-1.524
X-1.27Y-11.811
X-1.27Y-12.7
X-1.27Y-13.589
X-1.219Y6.96
X-1.143Y-6.858
X-1.021Y-43.693
X-1.016Y-24.13
X-1.016Y-42.672
X-0.965Y25.705
X-0.939Y-45.186
X-0.939Y-46.19
X-0.838Y-51.816
X-0.711Y8.484
X-0.711Y-25.649
X-0.635Y-8.382
X-0.432Y13.564
X-0.432Y12.675
X-0.432Y11.786
X-0.381Y-11.811
X-0.381Y-12.7
X-0.381Y-13.589
X-0.051Y-33.985
X0.457Y13.564
X0.457Y12.675
X0.457Y11.786
X0.508Y-11.811
X0.508Y-12.7
X0.508Y-13.589
X0.508Y-32.131
X0.686Y8.484
X0.762Y-8.382
X1.143Y1.778
X1.194Y6.96
X1.27Y-1.524
X1.27Y-6.858
X1.346Y13.564
X1.346Y12.675
X1.346Y11.786
X1.397Y-11.811
X1.397Y-12.7
X1.397Y-13.589
X1.575Y8.484
X1.651Y-8.382
X1.651Y-31.369
X1.778Y-53.569
X1.778Y-55.601
X1.778Y-57.506
X1.778Y-60.808
X1.905Y22.352
X2.211Y-36.042
X2.413Y-50.292
X2.464Y8.484
X2.54Y-8.382
X2.845Y10.262
X2.845Y9.373
X2.921Y-9.271
X2.921Y-10.16
X3.048Y1.778
X3.048Y-1.524
X3.048Y-6.858
X3.099Y6.96
X3.302Y-53.569
X3.81Y-60.808
X4.064Y17.272
X4.826Y-50.648
X4.826Y-51.918
X4.826Y-53.569
X5.842Y1.778
X5.944Y6.909
X5.969Y-60.808
X6.071Y10.211
X6.071Y9.322
X6.325Y-33.359
X6.452Y8.433
X6.604Y-46.736
X6.858Y-18.796
X6.984Y-50.648
X6.985Y-51.918
X6.985Y-53.569
X7.112Y-34.417
X7.341Y8.433
X7.595Y13.437
X7.595Y12.548
X7.595Y11.659
X7.62Y1.778
X7.722Y6.909
X7.874Y-60.808
X7.97Y-35.391
X8.23Y8.433
X8.382Y-52.324
X8.484Y13.437
X8.484Y12.548
X8.484Y11.659
X8.509Y-53.569
X9.144Y-8.509
X9.373Y13.437
X9.373Y12.548
X9.373Y11.659
X9.398Y-51.816
X9.5Y-24.028
X9.627Y8.433
X9.652Y-6.858
X9.779Y-11.811
X9.779Y-12.7
X9.779Y-13.589
X10.033Y1.778
X10.033Y-8.509
X10.033Y-53.569
X10.033Y-55.601
X10.033Y-57.633
X10.033Y-60.808
X10.135Y6.909
X10.262Y13.437
X10.262Y12.548
X10.262Y11.659
X10.414Y21.844
X10.516Y8.433
X10.668Y-11.811
X10.668Y-12.7
X10.668Y-13.589
X10.922Y-8.509
X11.176Y-1.524
X11.176Y-6.858
X11.405Y8.433
X11.557Y-11.811
X11.557Y-12.7
X11.557Y-13.589
X11.786Y10.211
X11.786Y9.322
X11.811Y-8.509
X11.878Y-57.912
X11.938Y1.778
X12.04Y6.909
X12.192Y-36.627
X12.446Y-11.811
X12.446Y-12.7
X12.446Y-13.589
X12.573Y-28.448
X12.7Y-8.509
X12.954Y17.399
X12.954Y-6.858
X13.208Y24.638
X13.589Y-8.509
X13.716Y-25.654
X13.716Y-56.515
X13.97Y-9.271
X13.97Y-10.16
X14.478Y-60.96
X14.732Y-30.353
X15.24Y-35.433
X16.129Y-55.372
X16.51Y-3.81
X16.51Y-8.89
X18.796Y-5.461
X18.796Y-6.731
X19.812Y-1.524
X19.812Y-4.445
X19.812Y-8.89
X20.193Y-45.974
X20.193Y-46.99
X21.463Y-24.638
X21.59Y-4.445
X22.098Y-56.007
X22.315Y-54.864
X23.749Y-27.813
X24.003Y-4.445
X24.13Y-50.292
X24.384Y-29.591
X25.286Y-50.269
X25.781Y-4.445
X25.908Y-56.388
X26.67Y26.162
X26.924Y-5.461
X26.924Y-6.858
X28.829Y-38.608
X29.718Y-51.054
X30.48Y-43.942
X31.115Y-54.737
X31.115Y-55.753
T2
X-17.097Y-55.741
X-17.097Y-57.091
X-16.247Y-55.741
X-16.247Y-57.091
X-15.397Y-55.741
X-15.397Y-57.091
X-14.547Y-55.741
X-14.547Y-57.091
X-13.697Y-55.741
X-13.697Y-57.091
X-12.847Y-55.741
X-12.847Y-57.091
X-11.997Y-55.741
X-11.997Y-57.091
X-11.147Y-55.741
X-11.147Y-57.091
T4
X-34.163Y15.621
X-34.163Y-10.922
X-34.138Y-16.408
X-11.684Y24.13
X-6.858Y24.13
X-1.397Y-36.017
X-1.372Y-39.421
X-0.686Y-54.889
T5
X-34.29Y30.988
X-34.29Y23.368
X-31.75Y30.988
X-31.75Y23.368
X-29.21Y30.988
X-29.21Y23.368
X-28.448Y-23.368
X-28.448Y-30.988
X-26.67Y30.988
X-26.67Y23.368
X-25.908Y-23.368
X-25.908Y-30.988
X-23.368Y-23.368
X-23.368Y-30.988
X-20.828Y-23.368
X-20.828Y-30.988
T6
X-11.11Y4.56
X-11.11Y-4.56
X-6.67Y4.56
X-6.67Y-4.56
X-2.22Y4.56
X-2.22Y-4.56
X2.22Y4.56
X2.22Y-4.56
X6.67Y4.56
X6.67Y-4.56
X11.11Y4.56
X11.11Y-4.56
T7
X-33.02Y-21.59
X-21.082Y21.59
X26.67Y21.59
X26.67Y-21.59
T3
X-18.447Y-55.971G85X-18.447Y-57.471
G05
X-18.447Y-59.701G85X-18.447Y-60.501
G05
X-9.797Y-55.971G85X-9.797Y-57.471
G05
X-9.797Y-59.701G85X-9.797Y-60.501
G05
T0
M30
