%TF.GenerationSoftware,KiCad,Pcbnew,(6.0.6)*%
%TF.CreationDate,2023-02-09T00:37:25-05:00*%
%TF.ProjectId,DingoPDM,44696e67-6f50-4444-9d2e-6b696361645f,v3*%
%TF.SameCoordinates,Original*%
%TF.FileFunction,Soldermask,Bot*%
%TF.FilePolarity,Negative*%
%FSLAX46Y46*%
G04 Gerber Fmt 4.6, Leading zero omitted, Abs format (unit mm)*
G04 Created by KiCad (PCBNEW (6.0.6)) date 2023-02-09 00:37:25*
%MOMM*%
%LPD*%
G01*
G04 APERTURE LIST*
%ADD10C,0.100000*%
%ADD11C,1.875000*%
%ADD12C,6.000000*%
%ADD13C,2.000000*%
%ADD14C,0.700000*%
%ADD15O,1.700000X0.900000*%
%ADD16O,2.400000X0.900000*%
%ADD17R,2.625000X2.625000*%
%ADD18C,2.625000*%
G04 APERTURE END LIST*
D10*
G36*
X191770000Y-49022000D02*
G01*
X188976000Y-49022000D01*
X188976000Y-44450000D01*
X191770000Y-44450000D01*
X191770000Y-49022000D01*
G37*
X191770000Y-49022000D02*
X188976000Y-49022000D01*
X188976000Y-44450000D01*
X191770000Y-44450000D01*
X191770000Y-49022000D01*
G36*
X191770000Y-56769000D02*
G01*
X188976000Y-56769000D01*
X188976000Y-52197000D01*
X191770000Y-52197000D01*
X191770000Y-56769000D01*
G37*
X191770000Y-56769000D02*
X188976000Y-56769000D01*
X188976000Y-52197000D01*
X191770000Y-52197000D01*
X191770000Y-56769000D01*
G36*
X191770000Y-63373000D02*
G01*
X188976000Y-63373000D01*
X188976000Y-58801000D01*
X191770000Y-58801000D01*
X191770000Y-63373000D01*
G37*
X191770000Y-63373000D02*
X188976000Y-63373000D01*
X188976000Y-58801000D01*
X191770000Y-58801000D01*
X191770000Y-63373000D01*
G36*
X191770000Y-72771000D02*
G01*
X188976000Y-72771000D01*
X188976000Y-68199000D01*
X191770000Y-68199000D01*
X191770000Y-72771000D01*
G37*
X191770000Y-72771000D02*
X188976000Y-72771000D01*
X188976000Y-68199000D01*
X191770000Y-68199000D01*
X191770000Y-72771000D01*
G36*
X191770000Y-94107000D02*
G01*
X188976000Y-94107000D01*
X188976000Y-89535000D01*
X191770000Y-89535000D01*
X191770000Y-94107000D01*
G37*
X191770000Y-94107000D02*
X188976000Y-94107000D01*
X188976000Y-89535000D01*
X191770000Y-89535000D01*
X191770000Y-94107000D01*
G36*
X191770000Y-103505000D02*
G01*
X188976000Y-103505000D01*
X188976000Y-98933000D01*
X191770000Y-98933000D01*
X191770000Y-103505000D01*
G37*
X191770000Y-103505000D02*
X188976000Y-103505000D01*
X188976000Y-98933000D01*
X191770000Y-98933000D01*
X191770000Y-103505000D01*
G36*
X191770000Y-110109000D02*
G01*
X188976000Y-110109000D01*
X188976000Y-105537000D01*
X191770000Y-105537000D01*
X191770000Y-110109000D01*
G37*
X191770000Y-110109000D02*
X188976000Y-110109000D01*
X188976000Y-105537000D01*
X191770000Y-105537000D01*
X191770000Y-110109000D01*
G36*
X191770000Y-117856000D02*
G01*
X188976000Y-117856000D01*
X188976000Y-113284000D01*
X191770000Y-113284000D01*
X191770000Y-117856000D01*
G37*
X191770000Y-117856000D02*
X188976000Y-117856000D01*
X188976000Y-113284000D01*
X191770000Y-113284000D01*
X191770000Y-117856000D01*
D11*
X174244000Y-77343000D03*
X179324000Y-77343000D03*
X174244000Y-84963000D03*
X181864000Y-77343000D03*
X176784000Y-77343000D03*
X179324000Y-84963000D03*
X181864000Y-84963000D03*
X176784000Y-84963000D03*
D12*
X160020000Y-114046000D03*
X160020000Y-48260000D03*
D13*
X158242000Y-109220000D03*
X163195000Y-107950000D03*
X161544000Y-104775000D03*
X144526000Y-50419000D03*
X167386000Y-58928000D03*
X122936000Y-90233500D03*
D14*
X113792000Y-106045000D03*
X113792000Y-106895000D03*
X113792000Y-107745000D03*
X113792000Y-108595000D03*
X113792000Y-109445000D03*
X113792000Y-110295000D03*
X113792000Y-111145000D03*
X113792000Y-111995000D03*
X112442000Y-111995000D03*
X112442000Y-111145000D03*
X112442000Y-110295000D03*
X112442000Y-109445000D03*
X112442000Y-108595000D03*
X112442000Y-107745000D03*
X112442000Y-106895000D03*
X112442000Y-106045000D03*
D15*
X109432000Y-104695000D03*
X109432000Y-113345000D03*
D16*
X112812000Y-104695000D03*
X112812000Y-113345000D03*
D13*
X120142000Y-113792000D03*
X146050000Y-106680000D03*
D17*
X201740000Y-63755007D03*
D18*
X201740000Y-59755007D03*
X201740000Y-55755007D03*
X201740000Y-51755007D03*
X201740000Y-47755007D03*
X205740000Y-61755007D03*
X205740000Y-57755007D03*
X205740000Y-53755007D03*
X205740000Y-49755007D03*
X209740000Y-63755007D03*
X209740000Y-59755007D03*
X209740000Y-55755007D03*
X209740000Y-51755007D03*
X209740000Y-47755007D03*
D17*
X201740000Y-114047007D03*
D18*
X201740000Y-110047007D03*
X201740000Y-106047007D03*
X201740000Y-102047007D03*
X201740000Y-98047007D03*
X205740000Y-112047007D03*
X205740000Y-108047007D03*
X205740000Y-104047007D03*
X205740000Y-100047007D03*
X209740000Y-114047007D03*
X209740000Y-110047007D03*
X209740000Y-106047007D03*
X209740000Y-102047007D03*
X209740000Y-98047007D03*
D13*
X134874000Y-64008000D03*
D12*
X205486000Y-81026000D03*
D13*
X150876000Y-75946000D03*
M02*
