%TF.GenerationSoftware,KiCad,Pcbnew,(6.0.0)*%
%TF.CreationDate,2022-04-16T22:28:55-04:00*%
%TF.ProjectId,DingoPDM,44696e67-6f50-4444-9d2e-6b696361645f,v3*%
%TF.SameCoordinates,Original*%
%TF.FileFunction,Copper,L3,Inr*%
%TF.FilePolarity,Positive*%
%FSLAX46Y46*%
G04 Gerber Fmt 4.6, Leading zero omitted, Abs format (unit mm)*
G04 Created by KiCad (PCBNEW (6.0.0)) date 2022-04-16 22:28:55*
%MOMM*%
%LPD*%
G01*
G04 APERTURE LIST*
%TA.AperFunction,ComponentPad*%
%ADD10C,2.000000*%
%TD*%
%TA.AperFunction,ComponentPad*%
%ADD11C,1.875000*%
%TD*%
%TA.AperFunction,ComponentPad*%
%ADD12C,6.000000*%
%TD*%
%TA.AperFunction,ComponentPad*%
%ADD13C,5.000000*%
%TD*%
%TA.AperFunction,ComponentPad*%
%ADD14R,2.056000X2.056000*%
%TD*%
%TA.AperFunction,ComponentPad*%
%ADD15C,2.056000*%
%TD*%
%TA.AperFunction,ComponentPad*%
%ADD16C,0.700000*%
%TD*%
%TA.AperFunction,ComponentPad*%
%ADD17O,1.700000X0.900000*%
%TD*%
%TA.AperFunction,ComponentPad*%
%ADD18O,2.400000X0.900000*%
%TD*%
%TA.AperFunction,ViaPad*%
%ADD19C,0.800000*%
%TD*%
%TA.AperFunction,Conductor*%
%ADD20C,0.508000*%
%TD*%
%TA.AperFunction,Conductor*%
%ADD21C,0.152400*%
%TD*%
G04 APERTURE END LIST*
D10*
X150876000Y-75946000D03*
X134874000Y-64008000D03*
X164338000Y-45720000D03*
D11*
X176784000Y-77343000D03*
X181864000Y-77343000D03*
X176784000Y-84963000D03*
X174244000Y-84963000D03*
X179324000Y-84963000D03*
X181864000Y-84963000D03*
X174244000Y-77343000D03*
X179324000Y-77343000D03*
D12*
X160020000Y-114046000D03*
X160020000Y-48260000D03*
D13*
X205359000Y-81153000D03*
D14*
X207319000Y-98178000D03*
D15*
X207319000Y-102368000D03*
X207319000Y-106558000D03*
X207319000Y-110748000D03*
X207319000Y-114938000D03*
X207319000Y-119128000D03*
X200969000Y-119128000D03*
X200969000Y-114938000D03*
X200969000Y-110748000D03*
X200969000Y-106558000D03*
X200969000Y-102368000D03*
X200969000Y-98178000D03*
D14*
X200969000Y-64128000D03*
D15*
X200969000Y-59938000D03*
X200969000Y-55748000D03*
X200969000Y-51558000D03*
X200969000Y-47368000D03*
X200969000Y-43178000D03*
X207319000Y-43178000D03*
X207319000Y-47368000D03*
X207319000Y-51558000D03*
X207319000Y-55748000D03*
X207319000Y-59938000D03*
X207319000Y-64128000D03*
D10*
X158242000Y-109220000D03*
X163195000Y-107950000D03*
X161544000Y-104775000D03*
X144526000Y-50419000D03*
X167386000Y-58928000D03*
X122936000Y-90233500D03*
D16*
X113792000Y-106045000D03*
X113792000Y-106895000D03*
X113792000Y-107745000D03*
X113792000Y-108595000D03*
X113792000Y-109445000D03*
X113792000Y-110295000D03*
X113792000Y-111145000D03*
X113792000Y-111995000D03*
X112442000Y-111995000D03*
X112442000Y-111145000D03*
X112442000Y-110295000D03*
X112442000Y-109445000D03*
X112442000Y-108595000D03*
X112442000Y-107745000D03*
X112442000Y-106895000D03*
X112442000Y-106045000D03*
D17*
X109432000Y-104695000D03*
X109432000Y-113345000D03*
D18*
X112812000Y-104695000D03*
X112812000Y-113345000D03*
D10*
X120142000Y-113792000D03*
X146050000Y-106680000D03*
D19*
X165862000Y-79502000D03*
X134366000Y-44196000D03*
X185674000Y-78486000D03*
X185674000Y-76962000D03*
X189992000Y-76962000D03*
X171704000Y-60579000D03*
X167005000Y-49276000D03*
X133604000Y-95631000D03*
X136398000Y-91821000D03*
X135509000Y-91059000D03*
X131572000Y-94488000D03*
X131572000Y-91186000D03*
X129540000Y-94996000D03*
X132334000Y-91948000D03*
X141732000Y-84455000D03*
X141859000Y-88646000D03*
X141732000Y-91948000D03*
X136525000Y-95605600D03*
X140208000Y-95504000D03*
X140335000Y-92075000D03*
X132207000Y-93726000D03*
X132334000Y-105029000D03*
X127762000Y-105029000D03*
X129286000Y-100330000D03*
X132334000Y-100330000D03*
X195834000Y-85598000D03*
X195834000Y-76708000D03*
X123190000Y-96647000D03*
X138557000Y-83058000D03*
X183515000Y-51435000D03*
X157988000Y-61087000D03*
X159258000Y-61087000D03*
X159258000Y-62230000D03*
X129540000Y-96393000D03*
X132740400Y-96520000D03*
X147701000Y-84074000D03*
X131318000Y-67691000D03*
X135509000Y-84455000D03*
X195834000Y-95123000D03*
X135890000Y-44196000D03*
X151130000Y-88519000D03*
X135636000Y-87757000D03*
X126111000Y-87757000D03*
X163702791Y-86725210D03*
X184150000Y-94742000D03*
X168402002Y-91948000D03*
X158877000Y-106172000D03*
X136398000Y-88646000D03*
X147701000Y-72263000D03*
X149225000Y-70231000D03*
X126238000Y-94869000D03*
X126111000Y-91440000D03*
X178054000Y-116522500D03*
X166497000Y-100203000D03*
X189992000Y-78613000D03*
X125095000Y-57531000D03*
X195834000Y-66929000D03*
X179070000Y-61468000D03*
X182245000Y-88011000D03*
X178816000Y-69215000D03*
X125641823Y-49949823D03*
X177292000Y-100584000D03*
X126238000Y-84455000D03*
X171894500Y-105219500D03*
X197612000Y-64516000D03*
X197612000Y-97917000D03*
X155448000Y-55626000D03*
X173733916Y-95927428D03*
X162052000Y-98425000D03*
X182118000Y-111506000D03*
X136525000Y-84455000D03*
X189484000Y-61976000D03*
X189484000Y-61087000D03*
X189484000Y-60198000D03*
X189484000Y-59309000D03*
X190373000Y-59309000D03*
X190373000Y-60198000D03*
X190373000Y-61087000D03*
X190373000Y-61976000D03*
X190373000Y-62865000D03*
X191262000Y-62865000D03*
X191262000Y-61976000D03*
X191262000Y-61087000D03*
X191262000Y-60198000D03*
X191262000Y-59309000D03*
X191262000Y-56261000D03*
X191262000Y-52705000D03*
X189484000Y-56261000D03*
X190373000Y-53594000D03*
X190373000Y-56261000D03*
X191262000Y-54483000D03*
X190373000Y-55372000D03*
X189484000Y-54483000D03*
X189484000Y-53594000D03*
X190373000Y-52705000D03*
X191262000Y-53594000D03*
X189484000Y-52705000D03*
X189484000Y-55372000D03*
X190373000Y-54483000D03*
X191262000Y-55372000D03*
X191262000Y-48514000D03*
X189484000Y-48514000D03*
X189484000Y-46736000D03*
X191262000Y-45847000D03*
X190373000Y-48514000D03*
X190373000Y-44958000D03*
X191262000Y-46736000D03*
X189484000Y-47625000D03*
X190373000Y-47625000D03*
X189484000Y-45847000D03*
X189484000Y-44958000D03*
X191262000Y-47625000D03*
X190373000Y-45847000D03*
X191262000Y-44958000D03*
X189484000Y-72263000D03*
X190373000Y-68707000D03*
X190373000Y-71374000D03*
X191262000Y-70485000D03*
X191262000Y-68707000D03*
X189484000Y-70485000D03*
X190373000Y-72263000D03*
X191262000Y-69596000D03*
X189484000Y-71374000D03*
X191262000Y-72263000D03*
X190373000Y-70485000D03*
X189484000Y-69596000D03*
X190373000Y-69596000D03*
X191262000Y-71374000D03*
X190373000Y-90043000D03*
X190373000Y-92710000D03*
X189484000Y-90932000D03*
X191262000Y-91821000D03*
X190373000Y-91821000D03*
X191262000Y-93599000D03*
X191262000Y-92710000D03*
X189484000Y-92710000D03*
X190373000Y-90932000D03*
X189484000Y-91821000D03*
X190373000Y-93599000D03*
X191262000Y-90043000D03*
X189484000Y-90043000D03*
X189484000Y-93599000D03*
X191262000Y-90932000D03*
X190373000Y-99441000D03*
X190373000Y-102997000D03*
X191262000Y-100330000D03*
X189484000Y-102108000D03*
X191262000Y-101219000D03*
X189484000Y-101219000D03*
X191262000Y-99441000D03*
X191262000Y-102108000D03*
X189484000Y-102997000D03*
X190373000Y-101219000D03*
X190373000Y-102108000D03*
X189484000Y-100330000D03*
X191262000Y-102997000D03*
X189484000Y-99441000D03*
X190373000Y-100330000D03*
X191262000Y-109601000D03*
X190373000Y-107823000D03*
X189484000Y-106934000D03*
X190373000Y-106934000D03*
X191262000Y-108712000D03*
X190373000Y-109601000D03*
X191262000Y-106934000D03*
X189484000Y-107823000D03*
X189484000Y-109601000D03*
X190373000Y-108712000D03*
X189484000Y-106045000D03*
X190373000Y-106045000D03*
X191262000Y-107823000D03*
X189484000Y-108712000D03*
X191262000Y-106045000D03*
X191262000Y-116459000D03*
X191262000Y-117348000D03*
X191262000Y-114681000D03*
X190373000Y-116459000D03*
X190373000Y-113792000D03*
X190373000Y-114681000D03*
X191262000Y-115570000D03*
X191262000Y-113792000D03*
X189484000Y-113792000D03*
X189484000Y-116459000D03*
X189484000Y-114681000D03*
X189484000Y-117348000D03*
X190373000Y-117348000D03*
X189484000Y-115570000D03*
X190373000Y-115570000D03*
X190373000Y-46736000D03*
X172212000Y-68707000D03*
X176403000Y-51689000D03*
X189484000Y-68707000D03*
X173355000Y-63373000D03*
X181737000Y-44894498D03*
X148082000Y-62484000D03*
X189484000Y-62865000D03*
X148082000Y-61341000D03*
X129286000Y-119126000D03*
X131390837Y-52044600D03*
X121539000Y-77851000D03*
X147447000Y-118364000D03*
X151257000Y-118364000D03*
X154940000Y-118364000D03*
X166624000Y-118491000D03*
X157480000Y-88138000D03*
X161036000Y-88138000D03*
X132969000Y-58229500D03*
X138557000Y-99314000D03*
X138557000Y-100584000D03*
X136906000Y-58293000D03*
X122682000Y-99949000D03*
X117983000Y-94361000D03*
X114173000Y-103251000D03*
X121412000Y-100711000D03*
X196088000Y-68580000D03*
X196088000Y-69469000D03*
X196088000Y-70358000D03*
X196088000Y-71247000D03*
X195199000Y-70358000D03*
X195199000Y-71247000D03*
X195199000Y-68580000D03*
X195199000Y-69469000D03*
X194310000Y-72136000D03*
X195199000Y-72136000D03*
X196088000Y-72136000D03*
X194310000Y-71247000D03*
X194310000Y-69469000D03*
X194310000Y-68580000D03*
X194310000Y-70358000D03*
X155702000Y-60706000D03*
X167036790Y-72749358D03*
X196088000Y-61087000D03*
X196088000Y-59309000D03*
X196088000Y-60198000D03*
X196088000Y-61976000D03*
X195199000Y-61087000D03*
X195199000Y-61976000D03*
X195199000Y-60198000D03*
X195199000Y-59309000D03*
X194310000Y-62865000D03*
X196088000Y-62865000D03*
X195199000Y-62865000D03*
X194310000Y-61976000D03*
X194310000Y-59309000D03*
X194310000Y-60198000D03*
X194310000Y-61087000D03*
X170053000Y-66040000D03*
X154813000Y-59944000D03*
X195199000Y-91948000D03*
X194310000Y-91059000D03*
X195199000Y-93726000D03*
X194310000Y-91948000D03*
X194310000Y-92837000D03*
X195199000Y-92837000D03*
X194310000Y-93726000D03*
X195199000Y-91059000D03*
X196088000Y-91059000D03*
X196088000Y-92837000D03*
X196088000Y-91948000D03*
X196088000Y-93726000D03*
X195199000Y-90170000D03*
X196088000Y-90170000D03*
X194310000Y-90170000D03*
X171069000Y-87122000D03*
X169844534Y-91739534D03*
X196088000Y-100457000D03*
X196088000Y-103124000D03*
X195199000Y-102235000D03*
X195199000Y-101346000D03*
X194310000Y-102235000D03*
X194310000Y-103124000D03*
X194310000Y-100457000D03*
X196088000Y-102235000D03*
X196088000Y-101346000D03*
X194310000Y-101346000D03*
X195199000Y-103124000D03*
X195199000Y-100457000D03*
X195199000Y-99568000D03*
X194310000Y-99568000D03*
X196088000Y-99568000D03*
X171323000Y-97536000D03*
X166878000Y-89281000D03*
X165734996Y-89281000D03*
X169545000Y-106553000D03*
X164592002Y-89281000D03*
X170180000Y-112903000D03*
X161671000Y-57531000D03*
X170434000Y-58547000D03*
X166370000Y-53721000D03*
X160743999Y-57526518D03*
X156083000Y-76200000D03*
X156083000Y-78867000D03*
X125349000Y-110617000D03*
X157988000Y-53721000D03*
X167036790Y-83311539D03*
X152400000Y-109474000D03*
X148717000Y-109474000D03*
X123063000Y-57531000D03*
X151130000Y-92329000D03*
X142748000Y-110236000D03*
X160909000Y-97028000D03*
X151384000Y-99060000D03*
X157353000Y-97028000D03*
X118364000Y-101092000D03*
X115189000Y-117602000D03*
X156083000Y-109474000D03*
X135763002Y-99822000D03*
X156083000Y-75311000D03*
X156083000Y-79756000D03*
X170243500Y-103251000D03*
X140716000Y-52197000D03*
X117855998Y-98171000D03*
X165481000Y-109855000D03*
X163957000Y-68580000D03*
X135890000Y-109474000D03*
X135128000Y-41402000D03*
X136144000Y-45212000D03*
X195199000Y-118110000D03*
X194310000Y-116332000D03*
X195199000Y-117221000D03*
X195199000Y-116332000D03*
X194310000Y-117221000D03*
X194310000Y-118110000D03*
X194310000Y-114046000D03*
X194310000Y-113157000D03*
X195199000Y-113157000D03*
X194310000Y-114935000D03*
X195199000Y-114046000D03*
X195199000Y-114935000D03*
X195199000Y-109601000D03*
X194310000Y-108712000D03*
X194310000Y-109601000D03*
X195199000Y-110490000D03*
X195199000Y-108712000D03*
X194310000Y-110490000D03*
X195199000Y-107061000D03*
X195199000Y-105283000D03*
X194310000Y-105283000D03*
X195199000Y-106172000D03*
X194310000Y-107061000D03*
X194310000Y-106172000D03*
X195199000Y-56134000D03*
X195199000Y-55245000D03*
X194310000Y-56134000D03*
X194310000Y-55245000D03*
X195199000Y-57023000D03*
X194310000Y-57023000D03*
X195199000Y-53594000D03*
X194310000Y-51816000D03*
X195199000Y-51816000D03*
X195199000Y-52705000D03*
X194310000Y-53594000D03*
X194310000Y-52705000D03*
X195199000Y-48387000D03*
X194310000Y-49276000D03*
X194310000Y-47498000D03*
X195199000Y-47498000D03*
X194310000Y-48387000D03*
X195199000Y-49276000D03*
X194310000Y-45085000D03*
X194310000Y-45974000D03*
X195199000Y-45085000D03*
X195199000Y-44196000D03*
X195199000Y-45974000D03*
X194310000Y-44196000D03*
X131390837Y-50838189D03*
X121539000Y-75692000D03*
X131390837Y-49707800D03*
X121539000Y-73532992D03*
X131390837Y-48539400D03*
X121539000Y-71374000D03*
X121539000Y-69215000D03*
X131390837Y-47371000D03*
X131390837Y-46202600D03*
X121539000Y-67056004D03*
X131390837Y-45034200D03*
X121539000Y-64897000D03*
X131390837Y-43865800D03*
X121539004Y-62738000D03*
X121793000Y-81534000D03*
X136527345Y-103632670D03*
X126717305Y-108462099D03*
X126401990Y-112410186D03*
X130673232Y-110099232D03*
X115697000Y-108458000D03*
X129930768Y-109356768D03*
X165100000Y-83312000D03*
X154432000Y-100965000D03*
X194564000Y-80518000D03*
X145161000Y-101727000D03*
X164211000Y-99314000D03*
X165100000Y-84328000D03*
X165354000Y-98425000D03*
X191008000Y-81153000D03*
X153670000Y-102743000D03*
X143637000Y-102012790D03*
X164338000Y-61849000D03*
X121920000Y-52959000D03*
X130048000Y-112648998D03*
X142748000Y-53594000D03*
X156189504Y-58272504D03*
X121920000Y-54102000D03*
X156845000Y-58928000D03*
X127127000Y-113792000D03*
X130048000Y-111506000D03*
X165354000Y-63753998D03*
X126492000Y-98298000D03*
X122174000Y-102616000D03*
X122047000Y-107632500D03*
X145288000Y-84455000D03*
X146177000Y-82296000D03*
X201041000Y-85979000D03*
X155575000Y-84963000D03*
X150876000Y-86106000D03*
X159258000Y-105029000D03*
X166497000Y-67183000D03*
X136525000Y-104965500D03*
X170191500Y-97420500D03*
X149225000Y-105029000D03*
X127635000Y-108331000D03*
X154940000Y-97917000D03*
X161798000Y-85090000D03*
X135509000Y-103505000D03*
X152781000Y-57658000D03*
X119253000Y-93218000D03*
X124079000Y-99822000D03*
X136525000Y-106680000D03*
X205930500Y-73533000D03*
X195389500Y-81089500D03*
D20*
X135890000Y-40640000D02*
X135128000Y-41402000D01*
X204744000Y-40640000D02*
X135890000Y-40640000D01*
X204744000Y-40640000D02*
X204762500Y-40621500D01*
X136144000Y-45212000D02*
X139954000Y-41402000D01*
X205486000Y-43116500D02*
X205486000Y-45535000D01*
X139954000Y-41402000D02*
X203771500Y-41402000D01*
X203771500Y-41402000D02*
X205486000Y-43116500D01*
X205486000Y-45535000D02*
X207319000Y-47368000D01*
X207319000Y-43178000D02*
X204762500Y-40621500D01*
D21*
X133096000Y-64008000D02*
X132969000Y-63881000D01*
X132969000Y-63881000D02*
X132969000Y-65468500D01*
X134874000Y-64008000D02*
X133096000Y-64008000D01*
X132969000Y-58229500D02*
X132969000Y-63881000D01*
X149606000Y-75946000D02*
X148780500Y-76771500D01*
X148780500Y-76771500D02*
X149860000Y-77851000D01*
X136906000Y-64897000D02*
X148780500Y-76771500D01*
X150876000Y-75946000D02*
X149606000Y-75946000D01*
X164338000Y-45720000D02*
X164338000Y-41402000D01*
X205930500Y-118582792D02*
X202771062Y-121742230D01*
X147846999Y-118763999D02*
X147447000Y-118364000D01*
X202771062Y-121742230D02*
X150825230Y-121742230D01*
X150825230Y-121742230D02*
X147846999Y-118763999D01*
X207319000Y-114938000D02*
X205930500Y-116326500D01*
X205930500Y-116326500D02*
X205930500Y-118582792D01*
X151656999Y-118763999D02*
X151257000Y-118364000D01*
X205486000Y-118632146D02*
X202655326Y-121462820D01*
X207319000Y-110748000D02*
X205486000Y-112581000D01*
X154355820Y-121462820D02*
X151656999Y-118763999D01*
X205486000Y-112581000D02*
X205486000Y-118632146D01*
X202655326Y-121462820D02*
X154355820Y-121462820D01*
X155339999Y-118763999D02*
X154940000Y-118364000D01*
X204978000Y-118745000D02*
X202539590Y-121183410D01*
X204978000Y-108899000D02*
X204978000Y-118745000D01*
X202539590Y-121183410D02*
X157759410Y-121183410D01*
X207319000Y-106558000D02*
X204978000Y-108899000D01*
X157759410Y-121183410D02*
X155339999Y-118763999D01*
X202412600Y-120904000D02*
X169037000Y-120904000D01*
X204343000Y-118973600D02*
X202412600Y-120904000D01*
X169037000Y-120904000D02*
X166624000Y-118491000D01*
X207319000Y-102368000D02*
X204343000Y-105344000D01*
X204343000Y-105344000D02*
X204343000Y-118973600D01*
X207319000Y-59938000D02*
X204216000Y-63041000D01*
X200152000Y-74549000D02*
X168656000Y-74549000D01*
X168656000Y-74549000D02*
X157480000Y-85725000D01*
X157480000Y-85725000D02*
X157480000Y-88138000D01*
X204216000Y-63041000D02*
X204216000Y-70485000D01*
X204216000Y-70485000D02*
X200152000Y-74549000D01*
X168783000Y-74930000D02*
X161036000Y-82677000D01*
X204645000Y-66802000D02*
X204645000Y-70564000D01*
X200279000Y-74930000D02*
X168783000Y-74930000D01*
X207319000Y-64128000D02*
X204645000Y-66802000D01*
X204645000Y-70564000D02*
X200279000Y-74930000D01*
X161036000Y-85344000D02*
X161036000Y-88138000D01*
X161036000Y-82677000D02*
X161036000Y-85344000D01*
X148653500Y-96075500D02*
X145415000Y-99314000D01*
X132969000Y-65468500D02*
X148653500Y-81153000D01*
X145415000Y-99314000D02*
X138557000Y-99314000D01*
X148653500Y-81153000D02*
X148653500Y-96075500D01*
X139446000Y-99695000D02*
X138557000Y-100584000D01*
X149860000Y-95885000D02*
X146050000Y-99695000D01*
X149860000Y-77851000D02*
X149860000Y-95885000D01*
X136906000Y-58293000D02*
X136906000Y-64897000D01*
X146050000Y-99695000D02*
X139446000Y-99695000D01*
X122682000Y-99949000D02*
X117983000Y-95250000D01*
X117983000Y-95250000D02*
X117983000Y-94361000D01*
X118872000Y-103251000D02*
X114173000Y-103251000D01*
X121412000Y-100711000D02*
X118872000Y-103251000D01*
X155702000Y-64643000D02*
X163808358Y-72749358D01*
X163808358Y-72749358D02*
X167036790Y-72749358D01*
X155702000Y-60706000D02*
X155702000Y-64643000D01*
X167640000Y-71755000D02*
X170053000Y-69342000D01*
X159258000Y-67437000D02*
X163576000Y-71755000D01*
X163576000Y-71755000D02*
X167640000Y-71755000D01*
X154813000Y-59944000D02*
X155956000Y-59944000D01*
X170053000Y-69342000D02*
X170053000Y-66040000D01*
X155956000Y-59944000D02*
X159258000Y-63246000D01*
X159258000Y-63246000D02*
X159258000Y-67437000D01*
X169844534Y-91739534D02*
X171069000Y-90515068D01*
X171069000Y-88646000D02*
X171069000Y-87122000D01*
X171069000Y-90515068D02*
X171069000Y-88646000D01*
X169862500Y-91721568D02*
X169844534Y-91739534D01*
X171323000Y-97536000D02*
X166878000Y-93091000D01*
X166878000Y-93091000D02*
X166878000Y-89281000D01*
X165734996Y-93725996D02*
X165734996Y-89281000D01*
X169545000Y-106553000D02*
X169545000Y-97536000D01*
X169545000Y-97536000D02*
X165734996Y-93725996D01*
X170180000Y-112903000D02*
X167767000Y-110490000D01*
X167767000Y-97599500D02*
X164592002Y-94424502D01*
X164592002Y-94424502D02*
X164592002Y-89281000D01*
X167767000Y-110490000D02*
X167767000Y-97599500D01*
X162052000Y-57150000D02*
X169037000Y-57150000D01*
X169037000Y-57150000D02*
X170434000Y-58547000D01*
X161671000Y-57531000D02*
X162052000Y-57150000D01*
X164549517Y-53721000D02*
X160743999Y-57526518D01*
X166370000Y-53721000D02*
X164549517Y-53721000D01*
X136527345Y-100200655D02*
X136527345Y-103632670D01*
X138303000Y-98425000D02*
X136527345Y-100200655D01*
X145034000Y-98425000D02*
X138303000Y-98425000D01*
X147828000Y-95631000D02*
X145034000Y-98425000D01*
X147828000Y-85344000D02*
X147828000Y-95631000D01*
X144018000Y-81534000D02*
X147828000Y-85344000D01*
X121793000Y-81534000D02*
X144018000Y-81534000D01*
X113292000Y-108595000D02*
X112442000Y-109445000D01*
X115287000Y-109318000D02*
X115189000Y-109220000D01*
X130248967Y-110099232D02*
X130014199Y-110334000D01*
X115189000Y-109220000D02*
X114554000Y-108585000D01*
X130014199Y-110334000D02*
X126906800Y-110334000D01*
X130673232Y-110099232D02*
X130248967Y-110099232D01*
X113792000Y-108595000D02*
X113292000Y-108595000D01*
X113802000Y-108585000D02*
X113792000Y-108595000D01*
X114554000Y-108585000D02*
X113802000Y-108585000D01*
X126906800Y-110334000D02*
X125890800Y-109318000D01*
X125890800Y-109318000D02*
X115287000Y-109318000D01*
X129827801Y-109884000D02*
X129930768Y-109781033D01*
X115697000Y-108458000D02*
X116107000Y-108868000D01*
X129930768Y-109781033D02*
X129930768Y-109356768D01*
X116107000Y-108868000D02*
X126077200Y-108868000D01*
X126077200Y-108868000D02*
X127093200Y-109884000D01*
X127093200Y-109884000D02*
X129827801Y-109884000D01*
X164211000Y-99314000D02*
X164211000Y-97409000D01*
X194564000Y-80518000D02*
X172339006Y-80518000D01*
X162433000Y-95631000D02*
X162433000Y-85598000D01*
X165735000Y-83312000D02*
X168529000Y-80518000D01*
X165100000Y-83312000D02*
X165735000Y-83312000D01*
X145923000Y-100965000D02*
X154432000Y-100965000D01*
X145161000Y-101727000D02*
X145923000Y-100965000D01*
X154432000Y-100965000D02*
X163449000Y-100965000D01*
X162433000Y-85598000D02*
X164719000Y-83312000D01*
X163449000Y-100965000D02*
X164211000Y-100203000D01*
X164211000Y-100203000D02*
X164211000Y-99314000D01*
X168529000Y-80518000D02*
X172339006Y-80518000D01*
X164211000Y-97409000D02*
X162433000Y-95631000D01*
X164719000Y-83312000D02*
X165100000Y-83312000D01*
X167894000Y-84328000D02*
X165100000Y-84328000D01*
X191008000Y-81153000D02*
X171069000Y-81153000D01*
X171069000Y-81153000D02*
X167894000Y-84328000D01*
X165354000Y-96901000D02*
X162941000Y-94488000D01*
X165354000Y-98425000D02*
X165354000Y-96901000D01*
X153670000Y-102743000D02*
X163195000Y-102743000D01*
X165354000Y-100584000D02*
X165354000Y-98425000D01*
X143637000Y-102012790D02*
X144367210Y-102743000D01*
X162941000Y-85852000D02*
X164465000Y-84328000D01*
X164465000Y-84328000D02*
X165100000Y-84328000D01*
X144367210Y-102743000D02*
X153670000Y-102743000D01*
X162941000Y-94488000D02*
X162941000Y-85852000D01*
X163195000Y-102743000D02*
X165354000Y-100584000D01*
X142748000Y-53594000D02*
X147426504Y-58272504D01*
X142113000Y-52959000D02*
X142748000Y-53594000D01*
X121920000Y-52959000D02*
X142113000Y-52959000D01*
X160761504Y-58272504D02*
X156189504Y-58272504D01*
X147426504Y-58272504D02*
X156189504Y-58272504D01*
X164338000Y-61849000D02*
X160761504Y-58272504D01*
X156845000Y-58928000D02*
X160401000Y-58928000D01*
X165354000Y-63753998D02*
X165354000Y-60960000D01*
X121920000Y-54102000D02*
X140716000Y-54102000D01*
X165354000Y-60960000D02*
X167386000Y-58928000D01*
X127127000Y-113792000D02*
X129413000Y-111506000D01*
X165226998Y-63753998D02*
X165354000Y-63753998D01*
X129413000Y-111506000D02*
X130048000Y-111506000D01*
X140716000Y-54102000D02*
X145542000Y-58928000D01*
X145542000Y-58928000D02*
X156845000Y-58928000D01*
X160401000Y-58928000D02*
X165226998Y-63753998D01*
X122936000Y-90233500D02*
X123126500Y-90233500D01*
X126492000Y-98044000D02*
X123190000Y-94742000D01*
X123190000Y-94742000D02*
X123190000Y-90297000D01*
X123126500Y-90233500D02*
X123190000Y-90297000D01*
X126492000Y-98298000D02*
X126492000Y-98044000D01*
X122174000Y-102616000D02*
X122174000Y-107505500D01*
X122174000Y-107505500D02*
X122047000Y-107632500D01*
X207391000Y-90297000D02*
X207391000Y-98106000D01*
X201089500Y-86027500D02*
X201041000Y-85979000D01*
X203121500Y-86027500D02*
X201089500Y-86027500D01*
X207319000Y-98178000D02*
X207906000Y-98178000D01*
X203121500Y-86027500D02*
X207391000Y-90297000D01*
X207391000Y-98106000D02*
X207319000Y-98178000D01*
X203835000Y-59232000D02*
X203835000Y-70358000D01*
X203835000Y-70358000D02*
X200025000Y-74168000D01*
X155575000Y-84963000D02*
X157734000Y-84963000D01*
X200025000Y-74168000D02*
X168529000Y-74168000D01*
X157734000Y-84963000D02*
X168529000Y-74168000D01*
X207319000Y-55748000D02*
X203835000Y-59232000D01*
X168402000Y-73787000D02*
X199898000Y-73787000D01*
X150876000Y-86106000D02*
X152908000Y-84074000D01*
X203454000Y-55423000D02*
X207319000Y-51558000D01*
X199898000Y-73787000D02*
X203454000Y-70231000D01*
X158115000Y-84074000D02*
X168402000Y-73787000D01*
X152908000Y-84074000D02*
X158115000Y-84074000D01*
X203454000Y-70231000D02*
X203454000Y-55423000D01*
X127635000Y-108331000D02*
X136412146Y-108331000D01*
X144260735Y-100482411D02*
X152374589Y-100482411D01*
X152374589Y-100482411D02*
X154540001Y-98316999D01*
X136412146Y-108331000D02*
X144260735Y-100482411D01*
X154540001Y-98316999D02*
X154940000Y-97917000D01*
X143256000Y-100076000D02*
X151638000Y-100076000D01*
X161798000Y-89916000D02*
X161798000Y-85090000D01*
X139065000Y-104267000D02*
X143256000Y-100076000D01*
X135509000Y-103505000D02*
X136271000Y-104267000D01*
X151638000Y-100076000D02*
X161798000Y-89916000D01*
X136271000Y-104267000D02*
X139065000Y-104267000D01*
X119253000Y-94996000D02*
X119253000Y-93218000D01*
X119253000Y-53467000D02*
X121278601Y-51441399D01*
X147701000Y-56007000D02*
X149352000Y-57658000D01*
X121278601Y-51441399D02*
X143135399Y-51441399D01*
X124079000Y-99822000D02*
X119253000Y-94996000D01*
X143135399Y-51441399D02*
X147701000Y-56007000D01*
X149352000Y-57658000D02*
X152781000Y-57658000D01*
X119253000Y-93218000D02*
X119253000Y-53467000D01*
X198755000Y-81089500D02*
X205930500Y-73914000D01*
X205930500Y-73914000D02*
X205930500Y-73533000D01*
X195389500Y-81089500D02*
X198755000Y-81089500D01*
%TA.AperFunction,Conductor*%
G36*
X198346198Y-99060532D02*
G01*
X198386273Y-99064227D01*
X198514640Y-99076063D01*
X198537385Y-99080294D01*
X198694535Y-99124773D01*
X198716126Y-99133092D01*
X198867721Y-99208146D01*
X198877842Y-99213749D01*
X200279000Y-100076000D01*
X201569303Y-100076000D01*
X201581447Y-100076587D01*
X201758171Y-100093700D01*
X201782007Y-100098359D01*
X201874360Y-100125876D01*
X201946317Y-100147317D01*
X201968815Y-100156464D01*
X202120678Y-100236039D01*
X202141004Y-100249332D01*
X202274773Y-100356560D01*
X202292172Y-100373507D01*
X202402884Y-100504410D01*
X202416708Y-100524380D01*
X202500248Y-100674096D01*
X202509983Y-100696347D01*
X202563245Y-100859303D01*
X202568531Y-100883010D01*
X202590288Y-101059241D01*
X202591193Y-101071364D01*
X202664394Y-103852973D01*
X202664098Y-103865542D01*
X202650615Y-104048637D01*
X202646285Y-104073368D01*
X202611777Y-104196544D01*
X202598465Y-104244062D01*
X202589314Y-104267447D01*
X202508599Y-104425257D01*
X202494992Y-104446365D01*
X202384580Y-104585036D01*
X202367062Y-104603022D01*
X202231336Y-104717049D01*
X202210601Y-104731202D01*
X202054959Y-104816046D01*
X202031830Y-104825805D01*
X201862453Y-104878099D01*
X201837844Y-104883078D01*
X201655172Y-104901373D01*
X201642616Y-104902000D01*
X200572369Y-104902000D01*
X200560802Y-104901468D01*
X200520727Y-104897773D01*
X200392360Y-104885937D01*
X200369615Y-104881706D01*
X200212465Y-104837227D01*
X200190874Y-104828908D01*
X200039279Y-104753854D01*
X200029148Y-104748245D01*
X198875377Y-104038232D01*
X198872912Y-104036715D01*
X198872911Y-104036715D01*
X198628000Y-103886000D01*
X193554187Y-103886000D01*
X193541837Y-103885393D01*
X193362138Y-103867694D01*
X193337915Y-103862876D01*
X193171064Y-103812263D01*
X193148251Y-103802813D01*
X192994486Y-103720623D01*
X192973948Y-103706900D01*
X192839173Y-103596292D01*
X192821708Y-103578827D01*
X192711100Y-103444052D01*
X192697377Y-103423514D01*
X192615187Y-103269749D01*
X192605737Y-103246936D01*
X192555124Y-103080085D01*
X192550306Y-103055862D01*
X192532607Y-102876163D01*
X192532000Y-102863813D01*
X192532000Y-100082187D01*
X192532607Y-100069837D01*
X192550306Y-99890138D01*
X192555124Y-99865913D01*
X192605737Y-99699064D01*
X192615187Y-99676251D01*
X192697377Y-99522486D01*
X192711100Y-99501948D01*
X192821708Y-99367173D01*
X192839173Y-99349708D01*
X192973948Y-99239100D01*
X192994486Y-99225377D01*
X193148251Y-99143187D01*
X193171064Y-99133737D01*
X193337915Y-99083124D01*
X193362138Y-99078306D01*
X193541837Y-99060607D01*
X193554187Y-99060000D01*
X198334631Y-99060000D01*
X198346198Y-99060532D01*
G37*
%TD.AperFunction*%
%TA.AperFunction,Conductor*%
G36*
X199313024Y-89535700D02*
G01*
X199505849Y-89556110D01*
X199531787Y-89561663D01*
X199709718Y-89619912D01*
X199733915Y-89630771D01*
X199853457Y-89700377D01*
X199895700Y-89724974D01*
X199917090Y-89740660D01*
X200055574Y-89866651D01*
X200073207Y-89886467D01*
X200186144Y-90044098D01*
X200193293Y-90055279D01*
X201396470Y-92175161D01*
X202429918Y-93995998D01*
X202434858Y-94005645D01*
X202500891Y-94149555D01*
X202508197Y-94169939D01*
X202547221Y-94317753D01*
X202550929Y-94339089D01*
X202564534Y-94496826D01*
X202565000Y-94507653D01*
X202565000Y-98291813D01*
X202564393Y-98304163D01*
X202546694Y-98483862D01*
X202541876Y-98508085D01*
X202491263Y-98674936D01*
X202481813Y-98697749D01*
X202399623Y-98851514D01*
X202385900Y-98872052D01*
X202275292Y-99006827D01*
X202257827Y-99024292D01*
X202123052Y-99134900D01*
X202102514Y-99148623D01*
X201952287Y-99228922D01*
X201948749Y-99230813D01*
X201925936Y-99240263D01*
X201759085Y-99290876D01*
X201734862Y-99295694D01*
X201555163Y-99313393D01*
X201542813Y-99314000D01*
X200352749Y-99314000D01*
X200339789Y-99313332D01*
X200169215Y-99295694D01*
X200151313Y-99293843D01*
X200125943Y-99288539D01*
X199951670Y-99232885D01*
X199927921Y-99222502D01*
X199768722Y-99132365D01*
X199747600Y-99117342D01*
X199610217Y-98996540D01*
X199592616Y-98977514D01*
X199584673Y-98966923D01*
X199478927Y-98825916D01*
X199471698Y-98815162D01*
X197018963Y-94727272D01*
X196723000Y-94234000D01*
X193554187Y-94234000D01*
X193541837Y-94233393D01*
X193362138Y-94215694D01*
X193337915Y-94210876D01*
X193171064Y-94160263D01*
X193148251Y-94150813D01*
X193145898Y-94149555D01*
X192994486Y-94068623D01*
X192973948Y-94054900D01*
X192839173Y-93944292D01*
X192821708Y-93926827D01*
X192711100Y-93792052D01*
X192697377Y-93771514D01*
X192615187Y-93617749D01*
X192605737Y-93594936D01*
X192555124Y-93428085D01*
X192550306Y-93403862D01*
X192532607Y-93224163D01*
X192532000Y-93211813D01*
X192532000Y-90557187D01*
X192532607Y-90544837D01*
X192550306Y-90365138D01*
X192555124Y-90340913D01*
X192605737Y-90174064D01*
X192615187Y-90151251D01*
X192697377Y-89997486D01*
X192711100Y-89976948D01*
X192821708Y-89842173D01*
X192839173Y-89824708D01*
X192973948Y-89714100D01*
X192994486Y-89700377D01*
X193148251Y-89618187D01*
X193171064Y-89608737D01*
X193337915Y-89558124D01*
X193362138Y-89553306D01*
X193541837Y-89535607D01*
X193554187Y-89535000D01*
X199299761Y-89535000D01*
X199313024Y-89535700D01*
G37*
%TD.AperFunction*%
%TA.AperFunction,Conductor*%
G36*
X201682163Y-57531607D02*
G01*
X201861862Y-57549306D01*
X201886085Y-57554124D01*
X202052936Y-57604737D01*
X202075749Y-57614187D01*
X202229514Y-57696377D01*
X202250052Y-57710100D01*
X202384827Y-57820708D01*
X202402292Y-57838173D01*
X202512900Y-57972948D01*
X202526623Y-57993486D01*
X202608813Y-58147251D01*
X202618263Y-58170064D01*
X202668876Y-58336913D01*
X202673694Y-58361138D01*
X202691393Y-58540837D01*
X202692000Y-58553187D01*
X202692000Y-61334813D01*
X202691393Y-61347163D01*
X202673694Y-61526862D01*
X202668876Y-61551085D01*
X202618263Y-61717936D01*
X202608813Y-61740749D01*
X202526623Y-61894514D01*
X202512900Y-61915052D01*
X202402292Y-62049827D01*
X202384827Y-62067292D01*
X202250052Y-62177900D01*
X202229514Y-62191623D01*
X202075749Y-62273813D01*
X202052936Y-62283263D01*
X201886085Y-62333876D01*
X201861862Y-62338694D01*
X201682163Y-62356393D01*
X201669813Y-62357000D01*
X199390000Y-62357000D01*
X198974865Y-62910514D01*
X198936310Y-62961920D01*
X198928877Y-62970929D01*
X198834188Y-63075420D01*
X198814322Y-63097342D01*
X198797121Y-63113106D01*
X198665893Y-63212682D01*
X198646086Y-63224999D01*
X198516459Y-63289813D01*
X198498751Y-63298667D01*
X198477003Y-63307125D01*
X198318616Y-63352359D01*
X198295683Y-63356662D01*
X198170588Y-63368295D01*
X198125817Y-63372459D01*
X198114150Y-63373000D01*
X193554187Y-63373000D01*
X193541837Y-63372393D01*
X193362138Y-63354694D01*
X193337915Y-63349876D01*
X193171064Y-63299263D01*
X193148251Y-63289813D01*
X192994486Y-63207623D01*
X192973948Y-63193900D01*
X192839173Y-63083292D01*
X192821708Y-63065827D01*
X192711100Y-62931052D01*
X192697377Y-62910514D01*
X192619991Y-62765737D01*
X192615186Y-62756747D01*
X192605737Y-62733936D01*
X192555124Y-62567085D01*
X192550306Y-62542862D01*
X192532607Y-62363163D01*
X192532000Y-62350813D01*
X192532000Y-59569187D01*
X192532607Y-59556837D01*
X192550306Y-59377138D01*
X192555124Y-59352913D01*
X192605737Y-59186064D01*
X192615187Y-59163251D01*
X192697377Y-59009486D01*
X192711100Y-58988948D01*
X192821708Y-58854173D01*
X192839173Y-58836708D01*
X192973948Y-58726100D01*
X192994486Y-58712377D01*
X193148251Y-58630187D01*
X193171064Y-58620737D01*
X193337915Y-58570124D01*
X193362138Y-58565306D01*
X193541837Y-58547607D01*
X193554187Y-58547000D01*
X198628000Y-58547000D01*
X199691241Y-57838173D01*
X199890896Y-57705070D01*
X199901488Y-57698735D01*
X200060539Y-57613897D01*
X200083323Y-57604478D01*
X200189925Y-57572202D01*
X200249903Y-57554042D01*
X200274087Y-57549241D01*
X200453466Y-57531605D01*
X200465794Y-57531000D01*
X201669813Y-57531000D01*
X201682163Y-57531607D01*
G37*
%TD.AperFunction*%
%TA.AperFunction,Conductor*%
G36*
X198235104Y-115824822D02*
G01*
X198443793Y-115848777D01*
X198471782Y-115855289D01*
X198662781Y-115923468D01*
X198688562Y-115936149D01*
X198865254Y-116049763D01*
X198876881Y-116058215D01*
X199125718Y-116261809D01*
X199706923Y-116737341D01*
X199706926Y-116737343D01*
X199987618Y-116967000D01*
X201632431Y-116967000D01*
X201644781Y-116967607D01*
X201824480Y-116985306D01*
X201848703Y-116990124D01*
X202015554Y-117040737D01*
X202038367Y-117050187D01*
X202192132Y-117132377D01*
X202212670Y-117146100D01*
X202347445Y-117256708D01*
X202364910Y-117274173D01*
X202475518Y-117408948D01*
X202489241Y-117429486D01*
X202571431Y-117583251D01*
X202580881Y-117606064D01*
X202631494Y-117772913D01*
X202636312Y-117797138D01*
X202654011Y-117976837D01*
X202654618Y-117989187D01*
X202654618Y-119500813D01*
X202654011Y-119513163D01*
X202636312Y-119692862D01*
X202631494Y-119717085D01*
X202580881Y-119883936D01*
X202571431Y-119906749D01*
X202489241Y-120060514D01*
X202475518Y-120081052D01*
X202364910Y-120215827D01*
X202347445Y-120233292D01*
X202212670Y-120343900D01*
X202192132Y-120357623D01*
X202038367Y-120439813D01*
X202015554Y-120449263D01*
X201848703Y-120499876D01*
X201824480Y-120504694D01*
X201644781Y-120522393D01*
X201632431Y-120523000D01*
X200386231Y-120523000D01*
X200374627Y-120522465D01*
X200205669Y-120506838D01*
X200182855Y-120502581D01*
X200025253Y-120457828D01*
X200003612Y-120449462D01*
X199856887Y-120376560D01*
X199837145Y-120364364D01*
X199701619Y-120262277D01*
X199692672Y-120254867D01*
X199284639Y-119883928D01*
X198881261Y-119517221D01*
X198881262Y-119517221D01*
X198590618Y-119253000D01*
X193516805Y-119253000D01*
X193504455Y-119252393D01*
X193324756Y-119234694D01*
X193300533Y-119229876D01*
X193133682Y-119179263D01*
X193110869Y-119169813D01*
X192957104Y-119087623D01*
X192936566Y-119073900D01*
X192801791Y-118963292D01*
X192784326Y-118945827D01*
X192673718Y-118811052D01*
X192659995Y-118790514D01*
X192577805Y-118636749D01*
X192568355Y-118613936D01*
X192517742Y-118447085D01*
X192512924Y-118422862D01*
X192495225Y-118243163D01*
X192494618Y-118230813D01*
X192494618Y-116783579D01*
X192495410Y-116769471D01*
X192513726Y-116606913D01*
X192520005Y-116579406D01*
X192571679Y-116431730D01*
X192583921Y-116406309D01*
X192667164Y-116273828D01*
X192684756Y-116251769D01*
X192795387Y-116141138D01*
X192817446Y-116123546D01*
X192949927Y-116040303D01*
X192975348Y-116028061D01*
X193123024Y-115976387D01*
X193150531Y-115970108D01*
X193313089Y-115951792D01*
X193327197Y-115951000D01*
X194145618Y-115951000D01*
X194145618Y-115894440D01*
X194184249Y-115846501D01*
X194256110Y-115824000D01*
X198220735Y-115824000D01*
X198235104Y-115824822D01*
G37*
%TD.AperFunction*%
%TA.AperFunction,Conductor*%
G36*
X198323392Y-112014605D02*
G01*
X198502771Y-112032241D01*
X198526955Y-112037042D01*
X198586933Y-112055202D01*
X198693535Y-112087478D01*
X198716319Y-112096897D01*
X198875370Y-112181735D01*
X198885962Y-112188070D01*
X199085617Y-112321173D01*
X200148858Y-113030000D01*
X201666671Y-113030000D01*
X201679021Y-113030607D01*
X201858720Y-113048306D01*
X201882943Y-113053124D01*
X202049794Y-113103737D01*
X202072607Y-113113187D01*
X202226372Y-113195377D01*
X202246910Y-113209100D01*
X202381685Y-113319708D01*
X202399150Y-113337173D01*
X202509758Y-113471948D01*
X202523481Y-113492486D01*
X202605671Y-113646251D01*
X202615121Y-113669064D01*
X202665734Y-113835913D01*
X202670552Y-113860138D01*
X202688251Y-114039837D01*
X202688858Y-114052187D01*
X202688858Y-115563813D01*
X202688251Y-115576163D01*
X202670552Y-115755862D01*
X202665734Y-115780085D01*
X202615121Y-115946936D01*
X202605671Y-115969749D01*
X202523481Y-116123514D01*
X202509758Y-116144052D01*
X202399150Y-116278827D01*
X202381685Y-116296292D01*
X202246910Y-116406900D01*
X202226372Y-116420623D01*
X202072607Y-116502813D01*
X202049794Y-116512263D01*
X201882943Y-116562876D01*
X201858720Y-116567694D01*
X201679021Y-116585393D01*
X201666671Y-116586000D01*
X200391741Y-116586000D01*
X200377372Y-116585178D01*
X200168683Y-116561223D01*
X200140694Y-116554711D01*
X199949694Y-116486531D01*
X199923914Y-116473851D01*
X199747222Y-116360237D01*
X199735591Y-116351782D01*
X199481700Y-116144052D01*
X199255288Y-115958806D01*
X199022340Y-115768212D01*
X198908341Y-115674940D01*
X198908340Y-115674939D01*
X198905553Y-115672659D01*
X198905550Y-115672657D01*
X198624858Y-115443000D01*
X194323449Y-115443000D01*
X194290842Y-115438708D01*
X194276968Y-115434991D01*
X194216344Y-115398042D01*
X194187868Y-115345894D01*
X194179858Y-115316000D01*
X194179858Y-115189000D01*
X193361437Y-115189000D01*
X193347329Y-115188208D01*
X193184771Y-115169892D01*
X193157264Y-115163613D01*
X193009588Y-115111939D01*
X192984167Y-115099697D01*
X192851686Y-115016454D01*
X192829627Y-114998862D01*
X192718996Y-114888231D01*
X192701404Y-114866172D01*
X192618161Y-114733691D01*
X192605919Y-114708270D01*
X192554245Y-114560594D01*
X192547966Y-114533087D01*
X192529650Y-114370529D01*
X192528858Y-114356421D01*
X192528858Y-113036187D01*
X192529465Y-113023837D01*
X192547164Y-112844138D01*
X192551982Y-112819913D01*
X192602595Y-112653064D01*
X192612045Y-112630251D01*
X192694235Y-112476486D01*
X192707958Y-112455948D01*
X192818566Y-112321173D01*
X192836031Y-112303708D01*
X192970806Y-112193100D01*
X192991344Y-112179377D01*
X193145109Y-112097187D01*
X193167922Y-112087737D01*
X193334773Y-112037124D01*
X193358996Y-112032306D01*
X193538695Y-112014607D01*
X193551045Y-112014000D01*
X198311064Y-112014000D01*
X198323392Y-112014605D01*
G37*
%TD.AperFunction*%
%TA.AperFunction,Conductor*%
G36*
X198346198Y-108077532D02*
G01*
X198386273Y-108081227D01*
X198514640Y-108093063D01*
X198537385Y-108097294D01*
X198694535Y-108141773D01*
X198716126Y-108150092D01*
X198867721Y-108225146D01*
X198877842Y-108230749D01*
X200279000Y-109093000D01*
X201669813Y-109093000D01*
X201682163Y-109093607D01*
X201861862Y-109111306D01*
X201886085Y-109116124D01*
X202052936Y-109166737D01*
X202075749Y-109176187D01*
X202229514Y-109258377D01*
X202250052Y-109272100D01*
X202384827Y-109382708D01*
X202402292Y-109400173D01*
X202512900Y-109534948D01*
X202526623Y-109555486D01*
X202608813Y-109709251D01*
X202618263Y-109732064D01*
X202668876Y-109898913D01*
X202673694Y-109923138D01*
X202691393Y-110102837D01*
X202692000Y-110115187D01*
X202692000Y-111626813D01*
X202691393Y-111639163D01*
X202673694Y-111818862D01*
X202668876Y-111843085D01*
X202618263Y-112009936D01*
X202608813Y-112032749D01*
X202526623Y-112186514D01*
X202512900Y-112207052D01*
X202402292Y-112341827D01*
X202384827Y-112359292D01*
X202250052Y-112469900D01*
X202229514Y-112483623D01*
X202075749Y-112565813D01*
X202052936Y-112575263D01*
X201886085Y-112625876D01*
X201861862Y-112630694D01*
X201682163Y-112648393D01*
X201669813Y-112649000D01*
X200465794Y-112649000D01*
X200453466Y-112648395D01*
X200274087Y-112630759D01*
X200249903Y-112625958D01*
X200189925Y-112607798D01*
X200083323Y-112575522D01*
X200060539Y-112566103D01*
X199901488Y-112481265D01*
X199890896Y-112474930D01*
X198886517Y-111805345D01*
X198883955Y-111803637D01*
X198628000Y-111633000D01*
X193554187Y-111633000D01*
X193541837Y-111632393D01*
X193362138Y-111614694D01*
X193337915Y-111609876D01*
X193171064Y-111559263D01*
X193148251Y-111549813D01*
X192994486Y-111467623D01*
X192973948Y-111453900D01*
X192839173Y-111343292D01*
X192821708Y-111325827D01*
X192711100Y-111191052D01*
X192697377Y-111170514D01*
X192615187Y-111016749D01*
X192605737Y-110993936D01*
X192555124Y-110827085D01*
X192550306Y-110802862D01*
X192532607Y-110623163D01*
X192532000Y-110610813D01*
X192532000Y-109036579D01*
X192532792Y-109022471D01*
X192551108Y-108859913D01*
X192557387Y-108832406D01*
X192609061Y-108684730D01*
X192621303Y-108659309D01*
X192704546Y-108526828D01*
X192722138Y-108504769D01*
X192832769Y-108394138D01*
X192854828Y-108376546D01*
X192987309Y-108293303D01*
X193012730Y-108281061D01*
X193160406Y-108229387D01*
X193187913Y-108223108D01*
X193350471Y-108204792D01*
X193364579Y-108204000D01*
X194183000Y-108204000D01*
X194183000Y-108147440D01*
X194221631Y-108099501D01*
X194293492Y-108077000D01*
X198334631Y-108077000D01*
X198346198Y-108077532D01*
G37*
%TD.AperFunction*%
%TA.AperFunction,Conductor*%
G36*
X198346198Y-104267532D02*
G01*
X198386273Y-104271227D01*
X198514640Y-104283063D01*
X198537385Y-104287294D01*
X198694535Y-104331773D01*
X198716126Y-104340092D01*
X198867721Y-104415146D01*
X198877842Y-104420749D01*
X200279000Y-105283000D01*
X201669813Y-105283000D01*
X201682163Y-105283607D01*
X201861862Y-105301306D01*
X201886085Y-105306124D01*
X202052936Y-105356737D01*
X202075749Y-105366187D01*
X202229514Y-105448377D01*
X202250052Y-105462100D01*
X202384827Y-105572708D01*
X202402292Y-105590173D01*
X202512900Y-105724948D01*
X202526623Y-105745486D01*
X202608813Y-105899251D01*
X202618263Y-105922064D01*
X202668876Y-106088913D01*
X202673694Y-106113138D01*
X202691393Y-106292837D01*
X202692000Y-106305187D01*
X202692000Y-107689813D01*
X202691393Y-107702163D01*
X202673694Y-107881862D01*
X202668876Y-107906085D01*
X202618263Y-108072936D01*
X202608813Y-108095749D01*
X202526623Y-108249514D01*
X202512900Y-108270052D01*
X202402292Y-108404827D01*
X202384827Y-108422292D01*
X202250052Y-108532900D01*
X202229514Y-108546623D01*
X202075749Y-108628813D01*
X202052936Y-108638263D01*
X201886085Y-108688876D01*
X201861862Y-108693694D01*
X201682163Y-108711393D01*
X201669813Y-108712000D01*
X200465794Y-108712000D01*
X200453466Y-108711395D01*
X200274087Y-108693759D01*
X200249903Y-108688958D01*
X200189925Y-108670798D01*
X200083323Y-108638522D01*
X200060539Y-108629103D01*
X199901488Y-108544265D01*
X199890896Y-108537930D01*
X198886517Y-107868345D01*
X198883955Y-107866637D01*
X198628000Y-107696000D01*
X194326591Y-107696000D01*
X194293984Y-107691708D01*
X194280110Y-107687991D01*
X194219486Y-107651042D01*
X194191010Y-107598894D01*
X194183000Y-107569000D01*
X194183000Y-107442000D01*
X193364579Y-107442000D01*
X193350471Y-107441208D01*
X193187913Y-107422892D01*
X193160406Y-107416613D01*
X193012730Y-107364939D01*
X192987309Y-107352697D01*
X192854828Y-107269454D01*
X192832769Y-107251862D01*
X192722138Y-107141231D01*
X192704546Y-107119172D01*
X192621303Y-106986691D01*
X192609061Y-106961270D01*
X192557387Y-106813594D01*
X192551108Y-106786087D01*
X192532792Y-106623529D01*
X192532000Y-106609421D01*
X192532000Y-105289187D01*
X192532607Y-105276837D01*
X192550306Y-105097138D01*
X192555124Y-105072913D01*
X192605737Y-104906064D01*
X192615187Y-104883251D01*
X192697377Y-104729486D01*
X192711100Y-104708948D01*
X192821708Y-104574173D01*
X192839173Y-104556708D01*
X192973948Y-104446100D01*
X192994486Y-104432377D01*
X193148251Y-104350187D01*
X193171064Y-104340737D01*
X193337915Y-104290124D01*
X193362138Y-104285306D01*
X193541837Y-104267607D01*
X193554187Y-104267000D01*
X198334631Y-104267000D01*
X198346198Y-104267532D01*
G37*
%TD.AperFunction*%
%TA.AperFunction,Conductor*%
G36*
X201682163Y-53460776D02*
G01*
X201861862Y-53478475D01*
X201886085Y-53483293D01*
X202052936Y-53533906D01*
X202075749Y-53543356D01*
X202229514Y-53625546D01*
X202250052Y-53639269D01*
X202384827Y-53749877D01*
X202402292Y-53767342D01*
X202512900Y-53902117D01*
X202526623Y-53922655D01*
X202608813Y-54076420D01*
X202618263Y-54099233D01*
X202668876Y-54266082D01*
X202673694Y-54290307D01*
X202691393Y-54470006D01*
X202692000Y-54482356D01*
X202692000Y-55866982D01*
X202691393Y-55879332D01*
X202673694Y-56059031D01*
X202668876Y-56083254D01*
X202618263Y-56250105D01*
X202608813Y-56272918D01*
X202526623Y-56426683D01*
X202512900Y-56447221D01*
X202402292Y-56581996D01*
X202384827Y-56599461D01*
X202250052Y-56710069D01*
X202229514Y-56723792D01*
X202075749Y-56805982D01*
X202052936Y-56815432D01*
X201886085Y-56866045D01*
X201861862Y-56870863D01*
X201682163Y-56888562D01*
X201669813Y-56889169D01*
X199898000Y-56889169D01*
X199630806Y-57083492D01*
X199630804Y-57083493D01*
X199121869Y-57453628D01*
X198773535Y-57706962D01*
X198762468Y-57714155D01*
X198595629Y-57810568D01*
X198571552Y-57821298D01*
X198394614Y-57878834D01*
X198368832Y-57884319D01*
X198177182Y-57904478D01*
X198164001Y-57905169D01*
X193554187Y-57905169D01*
X193541837Y-57904562D01*
X193362138Y-57886863D01*
X193337915Y-57882045D01*
X193171064Y-57831432D01*
X193148251Y-57821982D01*
X193146972Y-57821298D01*
X192994486Y-57739792D01*
X192973948Y-57726069D01*
X192839173Y-57615461D01*
X192821708Y-57597996D01*
X192711100Y-57463221D01*
X192697377Y-57442683D01*
X192615187Y-57288918D01*
X192605737Y-57266105D01*
X192555124Y-57099254D01*
X192550306Y-57075031D01*
X192532607Y-56895332D01*
X192532000Y-56882982D01*
X192532000Y-55689748D01*
X192532792Y-55675640D01*
X192551108Y-55513082D01*
X192557387Y-55485575D01*
X192609061Y-55337899D01*
X192621303Y-55312478D01*
X192704546Y-55179997D01*
X192722138Y-55157938D01*
X192832769Y-55047307D01*
X192854828Y-55029715D01*
X192987309Y-54946472D01*
X193012730Y-54934230D01*
X193160406Y-54882556D01*
X193187913Y-54876277D01*
X193350471Y-54857961D01*
X193364579Y-54857169D01*
X194183000Y-54857169D01*
X194183000Y-54730169D01*
X194191010Y-54700274D01*
X194227962Y-54639652D01*
X194280110Y-54611178D01*
X194293984Y-54607461D01*
X194326591Y-54603169D01*
X198628000Y-54603169D01*
X199875663Y-53667422D01*
X199886875Y-53659917D01*
X200056389Y-53559167D01*
X200080919Y-53547947D01*
X200261533Y-53487743D01*
X200287889Y-53482001D01*
X200483942Y-53460893D01*
X200497430Y-53460169D01*
X201669813Y-53460169D01*
X201682163Y-53460776D01*
G37*
%TD.AperFunction*%
%TA.AperFunction,Conductor*%
G36*
X201682163Y-49403607D02*
G01*
X201861862Y-49421306D01*
X201886085Y-49426124D01*
X202052936Y-49476737D01*
X202075749Y-49486187D01*
X202229514Y-49568377D01*
X202250052Y-49582100D01*
X202384827Y-49692708D01*
X202402292Y-49710173D01*
X202512900Y-49844948D01*
X202526623Y-49865486D01*
X202608813Y-50019251D01*
X202618263Y-50042064D01*
X202668876Y-50208913D01*
X202673694Y-50233138D01*
X202691393Y-50412837D01*
X202692000Y-50425187D01*
X202692000Y-52063813D01*
X202691393Y-52076163D01*
X202673694Y-52255862D01*
X202668876Y-52280085D01*
X202618263Y-52446936D01*
X202608813Y-52469749D01*
X202526623Y-52623514D01*
X202512900Y-52644052D01*
X202402292Y-52778827D01*
X202384827Y-52796292D01*
X202250052Y-52906900D01*
X202229514Y-52920623D01*
X202075749Y-53002813D01*
X202052936Y-53012263D01*
X201886085Y-53062876D01*
X201861862Y-53067694D01*
X201682163Y-53085393D01*
X201669813Y-53086000D01*
X200025000Y-53086000D01*
X199754067Y-53289200D01*
X198777337Y-54021747D01*
X198766125Y-54029252D01*
X198619290Y-54116523D01*
X198596613Y-54130001D01*
X198572081Y-54141222D01*
X198391467Y-54201426D01*
X198365111Y-54207168D01*
X198169058Y-54228276D01*
X198155570Y-54229000D01*
X194293492Y-54229000D01*
X194225371Y-54208998D01*
X194183000Y-54158297D01*
X194183000Y-54102000D01*
X193364579Y-54102000D01*
X193350471Y-54101208D01*
X193187913Y-54082892D01*
X193160406Y-54076613D01*
X193012730Y-54024939D01*
X192987309Y-54012697D01*
X192854828Y-53929454D01*
X192832769Y-53911862D01*
X192722138Y-53801231D01*
X192704546Y-53779172D01*
X192621303Y-53646691D01*
X192609061Y-53621270D01*
X192557387Y-53473594D01*
X192551108Y-53446087D01*
X192532792Y-53283529D01*
X192532000Y-53269421D01*
X192532000Y-51695187D01*
X192532607Y-51682837D01*
X192550306Y-51503138D01*
X192555124Y-51478913D01*
X192605737Y-51312064D01*
X192615187Y-51289251D01*
X192697377Y-51135486D01*
X192711100Y-51114948D01*
X192821708Y-50980173D01*
X192839173Y-50962708D01*
X192973948Y-50852100D01*
X192994486Y-50838377D01*
X193148251Y-50756187D01*
X193171064Y-50746737D01*
X193337915Y-50696124D01*
X193362138Y-50691306D01*
X193541837Y-50673607D01*
X193554187Y-50673000D01*
X198628000Y-50673000D01*
X198910582Y-50437515D01*
X198910585Y-50437513D01*
X199610151Y-49854541D01*
X199863808Y-49643160D01*
X199875527Y-49634492D01*
X200053652Y-49518058D01*
X200079698Y-49505051D01*
X200272876Y-49435111D01*
X200301213Y-49428429D01*
X200512587Y-49403844D01*
X200527144Y-49403000D01*
X201669813Y-49403000D01*
X201682163Y-49403607D01*
G37*
%TD.AperFunction*%
%TA.AperFunction,Conductor*%
G36*
X201682163Y-45593607D02*
G01*
X201861862Y-45611306D01*
X201886085Y-45616124D01*
X202052936Y-45666737D01*
X202075749Y-45676187D01*
X202229514Y-45758377D01*
X202250052Y-45772100D01*
X202384827Y-45882708D01*
X202402292Y-45900173D01*
X202512900Y-46034948D01*
X202526623Y-46055486D01*
X202608813Y-46209251D01*
X202618263Y-46232064D01*
X202668876Y-46398913D01*
X202673694Y-46423138D01*
X202691393Y-46602837D01*
X202692000Y-46615187D01*
X202692000Y-47999813D01*
X202691393Y-48012163D01*
X202673694Y-48191862D01*
X202668876Y-48216085D01*
X202618263Y-48382936D01*
X202608813Y-48405749D01*
X202526623Y-48559514D01*
X202512900Y-48580052D01*
X202402292Y-48714827D01*
X202384827Y-48732292D01*
X202250052Y-48842900D01*
X202229514Y-48856623D01*
X202075749Y-48938813D01*
X202052936Y-48948263D01*
X201886085Y-48998876D01*
X201861862Y-49003694D01*
X201682163Y-49021393D01*
X201669813Y-49022000D01*
X200025000Y-49022000D01*
X199742418Y-49257485D01*
X199742415Y-49257487D01*
X199739607Y-49259827D01*
X198789196Y-50051837D01*
X198777473Y-50060508D01*
X198599348Y-50176942D01*
X198573302Y-50189949D01*
X198380124Y-50259889D01*
X198351787Y-50266571D01*
X198140413Y-50291156D01*
X198125856Y-50292000D01*
X193554187Y-50292000D01*
X193541837Y-50291393D01*
X193362138Y-50273694D01*
X193337915Y-50268876D01*
X193171064Y-50218263D01*
X193148251Y-50208813D01*
X192994486Y-50126623D01*
X192973948Y-50112900D01*
X192839173Y-50002292D01*
X192821708Y-49984827D01*
X192711100Y-49850052D01*
X192697377Y-49829514D01*
X192615187Y-49675749D01*
X192605737Y-49652936D01*
X192555124Y-49486085D01*
X192550306Y-49461862D01*
X192532607Y-49282163D01*
X192532000Y-49269813D01*
X192532000Y-47949579D01*
X192532792Y-47935471D01*
X192551108Y-47772913D01*
X192557387Y-47745406D01*
X192609061Y-47597730D01*
X192621303Y-47572309D01*
X192704546Y-47439828D01*
X192722138Y-47417769D01*
X192832769Y-47307138D01*
X192854828Y-47289546D01*
X192987309Y-47206303D01*
X193012730Y-47194061D01*
X193160406Y-47142387D01*
X193187913Y-47136108D01*
X193350471Y-47117792D01*
X193364579Y-47117000D01*
X194183000Y-47117000D01*
X194183000Y-46990000D01*
X194191010Y-46960105D01*
X194227962Y-46899483D01*
X194280110Y-46871009D01*
X194293984Y-46867292D01*
X194326591Y-46863000D01*
X198628000Y-46863000D01*
X198910582Y-46627515D01*
X198910585Y-46627513D01*
X199610151Y-46044541D01*
X199863808Y-45833160D01*
X199875527Y-45824492D01*
X200053652Y-45708058D01*
X200079698Y-45695051D01*
X200272876Y-45625111D01*
X200301213Y-45618429D01*
X200512587Y-45593844D01*
X200527144Y-45593000D01*
X201669813Y-45593000D01*
X201682163Y-45593607D01*
G37*
%TD.AperFunction*%
%TA.AperFunction,Conductor*%
G36*
X201682163Y-42037607D02*
G01*
X201861862Y-42055306D01*
X201886085Y-42060124D01*
X202052936Y-42110737D01*
X202075749Y-42120187D01*
X202229514Y-42202377D01*
X202250052Y-42216100D01*
X202384827Y-42326708D01*
X202402292Y-42344173D01*
X202512900Y-42478948D01*
X202526623Y-42499486D01*
X202608813Y-42653251D01*
X202618263Y-42676064D01*
X202668876Y-42842913D01*
X202673694Y-42867138D01*
X202691393Y-43046837D01*
X202692000Y-43059187D01*
X202692000Y-44189813D01*
X202691393Y-44202163D01*
X202673694Y-44381862D01*
X202668876Y-44406085D01*
X202618263Y-44572936D01*
X202608813Y-44595749D01*
X202526623Y-44749514D01*
X202512900Y-44770052D01*
X202402292Y-44904827D01*
X202384827Y-44922292D01*
X202250052Y-45032900D01*
X202229514Y-45046623D01*
X202075749Y-45128813D01*
X202052936Y-45138263D01*
X201886085Y-45188876D01*
X201861862Y-45193694D01*
X201682163Y-45211393D01*
X201669813Y-45212000D01*
X199898000Y-45212000D01*
X199607356Y-45476221D01*
X199607357Y-45476221D01*
X199346690Y-45713191D01*
X198795946Y-46213867D01*
X198786999Y-46221277D01*
X198651473Y-46323364D01*
X198631731Y-46335560D01*
X198485006Y-46408462D01*
X198463365Y-46416828D01*
X198305763Y-46461581D01*
X198282949Y-46465838D01*
X198113991Y-46481465D01*
X198102387Y-46482000D01*
X194293492Y-46482000D01*
X194225371Y-46461998D01*
X194183000Y-46411297D01*
X194183000Y-46355000D01*
X193364579Y-46355000D01*
X193350471Y-46354208D01*
X193187913Y-46335892D01*
X193160406Y-46329613D01*
X193012730Y-46277939D01*
X192987309Y-46265697D01*
X192854828Y-46182454D01*
X192832769Y-46164862D01*
X192722138Y-46054231D01*
X192704546Y-46032172D01*
X192621303Y-45899691D01*
X192609061Y-45874270D01*
X192557387Y-45726594D01*
X192551108Y-45699087D01*
X192532792Y-45536529D01*
X192532000Y-45522421D01*
X192532000Y-44075187D01*
X192532607Y-44062837D01*
X192550306Y-43883138D01*
X192555124Y-43858913D01*
X192605737Y-43692064D01*
X192615187Y-43669251D01*
X192697377Y-43515486D01*
X192711100Y-43494948D01*
X192821708Y-43360173D01*
X192839173Y-43342708D01*
X192973948Y-43232100D01*
X192994486Y-43218377D01*
X193148251Y-43136187D01*
X193171064Y-43126737D01*
X193337915Y-43076124D01*
X193362138Y-43071306D01*
X193541837Y-43053607D01*
X193554187Y-43053000D01*
X198628000Y-43053000D01*
X199478013Y-42297433D01*
X199486900Y-42290229D01*
X199621351Y-42190997D01*
X199640894Y-42179149D01*
X199785913Y-42108353D01*
X199807262Y-42100236D01*
X199962677Y-42056807D01*
X199985153Y-42052677D01*
X200133181Y-42039195D01*
X200151585Y-42037519D01*
X200163014Y-42037000D01*
X201669813Y-42037000D01*
X201682163Y-42037607D01*
G37*
%TD.AperFunction*%
%TA.AperFunction,Conductor*%
G36*
X201682163Y-62865607D02*
G01*
X201861862Y-62883306D01*
X201886085Y-62888124D01*
X202052936Y-62938737D01*
X202075749Y-62948187D01*
X202229514Y-63030377D01*
X202250052Y-63044100D01*
X202384827Y-63154708D01*
X202402292Y-63172173D01*
X202512900Y-63306948D01*
X202526623Y-63327486D01*
X202608813Y-63481251D01*
X202618263Y-63504064D01*
X202668876Y-63670913D01*
X202673694Y-63695138D01*
X202691393Y-63874837D01*
X202692000Y-63887187D01*
X202692000Y-67787123D01*
X202691497Y-67798372D01*
X202676810Y-67962217D01*
X202672809Y-67984354D01*
X202631969Y-68132948D01*
X202630713Y-68137519D01*
X202622836Y-68158596D01*
X202551721Y-68306937D01*
X202546405Y-68316863D01*
X200196698Y-72268644D01*
X200189470Y-72279483D01*
X200075898Y-72432063D01*
X200058290Y-72451219D01*
X199920714Y-72572872D01*
X199899547Y-72588003D01*
X199739913Y-72678807D01*
X199716095Y-72689265D01*
X199581446Y-72732443D01*
X199541219Y-72745342D01*
X199515755Y-72750687D01*
X199326558Y-72770327D01*
X199313548Y-72771000D01*
X193554187Y-72771000D01*
X193541837Y-72770393D01*
X193362138Y-72752694D01*
X193337915Y-72747876D01*
X193171064Y-72697263D01*
X193148251Y-72687813D01*
X193143498Y-72685272D01*
X192994486Y-72605623D01*
X192973948Y-72591900D01*
X192839173Y-72481292D01*
X192821708Y-72463827D01*
X192711100Y-72329052D01*
X192697377Y-72308514D01*
X192615187Y-72154749D01*
X192605737Y-72131936D01*
X192555124Y-71965085D01*
X192550306Y-71940862D01*
X192532607Y-71761163D01*
X192532000Y-71748813D01*
X192532000Y-68713187D01*
X192532607Y-68700837D01*
X192550306Y-68521138D01*
X192555124Y-68496913D01*
X192605737Y-68330064D01*
X192615187Y-68307251D01*
X192697377Y-68153486D01*
X192711100Y-68132948D01*
X192821708Y-67998173D01*
X192839173Y-67980708D01*
X192973948Y-67870100D01*
X192994486Y-67856377D01*
X193148251Y-67774187D01*
X193171064Y-67764737D01*
X193337915Y-67714124D01*
X193362138Y-67709306D01*
X193541837Y-67691607D01*
X193554187Y-67691000D01*
X196469000Y-67691000D01*
X199071609Y-63887187D01*
X199464932Y-63312331D01*
X199472318Y-63302587D01*
X199586952Y-63165691D01*
X199604374Y-63148573D01*
X199738483Y-63040230D01*
X199758880Y-63026795D01*
X199911372Y-62946362D01*
X199933978Y-62937114D01*
X200099128Y-62887611D01*
X200123094Y-62882899D01*
X200286193Y-62867016D01*
X200300810Y-62865593D01*
X200313021Y-62865000D01*
X201669813Y-62865000D01*
X201682163Y-62865607D01*
G37*
%TD.AperFunction*%
M02*
