G04 #@! TF.GenerationSoftware,KiCad,Pcbnew,(5.1.6)-1*
G04 #@! TF.CreationDate,2020-10-18T20:37:43-05:00*
G04 #@! TF.ProjectId,DingoPDM,44696e67-6f50-4444-9d2e-6b696361645f,v2*
G04 #@! TF.SameCoordinates,Original*
G04 #@! TF.FileFunction,Legend,Top*
G04 #@! TF.FilePolarity,Positive*
%FSLAX46Y46*%
G04 Gerber Fmt 4.6, Leading zero omitted, Abs format (unit mm)*
G04 Created by KiCad (PCBNEW (5.1.6)-1) date 2020-10-18 20:37:43*
%MOMM*%
%LPD*%
G01*
G04 APERTURE LIST*
%ADD10C,0.149860*%
%ADD11C,0.150000*%
%ADD12C,0.120000*%
%ADD13C,0.127000*%
%ADD14C,0.010000*%
%ADD15C,0.400000*%
%ADD16C,0.100000*%
%ADD17C,0.200000*%
%ADD18C,0.250000*%
%ADD19C,0.300000*%
G04 APERTURE END LIST*
D10*
X121702285Y-112505671D02*
X121749457Y-112458500D01*
X121796628Y-112505671D01*
X121749457Y-112552842D01*
X121702285Y-112505671D01*
X121796628Y-112505671D01*
X120853200Y-112694357D02*
X120806028Y-112600014D01*
X120806028Y-112364157D01*
X120853200Y-112269814D01*
X120947542Y-112222642D01*
X121041885Y-112222642D01*
X121136228Y-112269814D01*
X121183400Y-112316985D01*
X121230571Y-112411328D01*
X121277742Y-112458500D01*
X121372085Y-112505671D01*
X121419257Y-112505671D01*
X144625785Y-113013671D02*
X144672957Y-112966500D01*
X144720128Y-113013671D01*
X144672957Y-113060842D01*
X144625785Y-113013671D01*
X144720128Y-113013671D01*
X143776700Y-113202357D02*
X143729528Y-113108014D01*
X143729528Y-112872157D01*
X143776700Y-112777814D01*
X143871042Y-112730642D01*
X143965385Y-112730642D01*
X144059728Y-112777814D01*
X144106900Y-112824985D01*
X144154071Y-112919328D01*
X144201242Y-112966500D01*
X144295585Y-113013671D01*
X144342757Y-113013671D01*
X125131285Y-90280671D02*
X125178457Y-90233500D01*
X125225628Y-90280671D01*
X125178457Y-90327842D01*
X125131285Y-90280671D01*
X125225628Y-90280671D01*
X124282200Y-90469357D02*
X124235028Y-90375014D01*
X124235028Y-90139157D01*
X124282200Y-90044814D01*
X124376542Y-89997642D01*
X124470885Y-89997642D01*
X124565228Y-90044814D01*
X124612400Y-90091985D01*
X124659571Y-90186328D01*
X124706742Y-90233500D01*
X124801085Y-90280671D01*
X124848257Y-90280671D01*
X198029648Y-75031600D02*
X198029648Y-74465542D01*
X199020248Y-74748571D02*
X198029648Y-74748571D01*
X198973077Y-73757971D02*
X199020248Y-73852314D01*
X199020248Y-74041000D01*
X198973077Y-74135342D01*
X198878734Y-74182514D01*
X198501362Y-74182514D01*
X198407020Y-74135342D01*
X198359848Y-74041000D01*
X198359848Y-73852314D01*
X198407020Y-73757971D01*
X198501362Y-73710800D01*
X198595705Y-73710800D01*
X198690048Y-74182514D01*
X199020248Y-73286257D02*
X198359848Y-73286257D01*
X198454191Y-73286257D02*
X198407020Y-73239085D01*
X198359848Y-73144742D01*
X198359848Y-73003228D01*
X198407020Y-72908885D01*
X198501362Y-72861714D01*
X199020248Y-72861714D01*
X198501362Y-72861714D02*
X198407020Y-72814542D01*
X198359848Y-72720200D01*
X198359848Y-72578685D01*
X198407020Y-72484342D01*
X198501362Y-72437171D01*
X199020248Y-72437171D01*
X198359848Y-71965457D02*
X199350448Y-71965457D01*
X198407020Y-71965457D02*
X198359848Y-71871114D01*
X198359848Y-71682428D01*
X198407020Y-71588085D01*
X198454191Y-71540914D01*
X198548534Y-71493742D01*
X198831562Y-71493742D01*
X198925905Y-71540914D01*
X198973077Y-71588085D01*
X199020248Y-71682428D01*
X199020248Y-71871114D01*
X198973077Y-71965457D01*
X200561665Y-73545700D02*
X200608837Y-73498528D01*
X200656008Y-73545700D01*
X200608837Y-73592871D01*
X200561665Y-73545700D01*
X200656008Y-73545700D01*
X200042780Y-73545700D02*
X200089951Y-73498528D01*
X200137122Y-73545700D01*
X200089951Y-73592871D01*
X200042780Y-73545700D01*
X200137122Y-73545700D01*
X201033380Y-72790957D02*
X200986208Y-72838128D01*
X200844694Y-72932471D01*
X200750351Y-72979642D01*
X200608837Y-73026814D01*
X200372980Y-73073985D01*
X200184294Y-73073985D01*
X199948437Y-73026814D01*
X199806922Y-72979642D01*
X199712580Y-72932471D01*
X199571065Y-72838128D01*
X199523894Y-72790957D01*
D11*
X198699380Y-44767476D02*
X198699380Y-45338904D01*
X198699380Y-45053190D02*
X197699380Y-45053190D01*
X197842238Y-45148428D01*
X197937476Y-45243666D01*
X197985095Y-45338904D01*
X197794619Y-44386523D02*
X197747000Y-44338904D01*
X197699380Y-44243666D01*
X197699380Y-44005571D01*
X197747000Y-43910333D01*
X197794619Y-43862714D01*
X197889857Y-43815095D01*
X197985095Y-43815095D01*
X198127952Y-43862714D01*
X198699380Y-44434142D01*
X198699380Y-43815095D01*
X198032714Y-109791523D02*
X198699380Y-109791523D01*
X197651761Y-110029619D02*
X198366047Y-110267714D01*
X198366047Y-109648666D01*
X197699380Y-113680904D02*
X197699380Y-114157095D01*
X198175571Y-114204714D01*
X198127952Y-114157095D01*
X198080333Y-114061857D01*
X198080333Y-113823761D01*
X198127952Y-113728523D01*
X198175571Y-113680904D01*
X198270809Y-113633285D01*
X198508904Y-113633285D01*
X198604142Y-113680904D01*
X198651761Y-113728523D01*
X198699380Y-113823761D01*
X198699380Y-114061857D01*
X198651761Y-114157095D01*
X198604142Y-114204714D01*
X198699380Y-52387476D02*
X198699380Y-52958904D01*
X198699380Y-52673190D02*
X197699380Y-52673190D01*
X197842238Y-52768428D01*
X197937476Y-52863666D01*
X197985095Y-52958904D01*
X197699380Y-51768428D02*
X197699380Y-51673190D01*
X197747000Y-51577952D01*
X197794619Y-51530333D01*
X197889857Y-51482714D01*
X198080333Y-51435095D01*
X198318428Y-51435095D01*
X198508904Y-51482714D01*
X198604142Y-51530333D01*
X198651761Y-51577952D01*
X198699380Y-51673190D01*
X198699380Y-51768428D01*
X198651761Y-51863666D01*
X198604142Y-51911285D01*
X198508904Y-51958904D01*
X198318428Y-52006523D01*
X198080333Y-52006523D01*
X197889857Y-51958904D01*
X197794619Y-51911285D01*
X197747000Y-51863666D01*
X197699380Y-51768428D01*
X197699380Y-117411523D02*
X197699380Y-117602000D01*
X197747000Y-117697238D01*
X197794619Y-117744857D01*
X197937476Y-117840095D01*
X198127952Y-117887714D01*
X198508904Y-117887714D01*
X198604142Y-117840095D01*
X198651761Y-117792476D01*
X198699380Y-117697238D01*
X198699380Y-117506761D01*
X198651761Y-117411523D01*
X198604142Y-117363904D01*
X198508904Y-117316285D01*
X198270809Y-117316285D01*
X198175571Y-117363904D01*
X198127952Y-117411523D01*
X198080333Y-117506761D01*
X198080333Y-117697238D01*
X198127952Y-117792476D01*
X198175571Y-117840095D01*
X198270809Y-117887714D01*
X198699380Y-56324476D02*
X198699380Y-56134000D01*
X198651761Y-56038761D01*
X198604142Y-55991142D01*
X198461285Y-55895904D01*
X198270809Y-55848285D01*
X197889857Y-55848285D01*
X197794619Y-55895904D01*
X197747000Y-55943523D01*
X197699380Y-56038761D01*
X197699380Y-56229238D01*
X197747000Y-56324476D01*
X197794619Y-56372095D01*
X197889857Y-56419714D01*
X198127952Y-56419714D01*
X198223190Y-56372095D01*
X198270809Y-56324476D01*
X198318428Y-56229238D01*
X198318428Y-56038761D01*
X198270809Y-55943523D01*
X198223190Y-55895904D01*
X198127952Y-55848285D01*
X198699380Y-96361285D02*
X198699380Y-96932714D01*
X198699380Y-96647000D02*
X197699380Y-96647000D01*
X197842238Y-96742238D01*
X197937476Y-96837476D01*
X197985095Y-96932714D01*
X197699380Y-66500333D02*
X197699380Y-65833666D01*
X198699380Y-66262238D01*
X198127952Y-61182238D02*
X198080333Y-61277476D01*
X198032714Y-61325095D01*
X197937476Y-61372714D01*
X197889857Y-61372714D01*
X197794619Y-61325095D01*
X197747000Y-61277476D01*
X197699380Y-61182238D01*
X197699380Y-60991761D01*
X197747000Y-60896523D01*
X197794619Y-60848904D01*
X197889857Y-60801285D01*
X197937476Y-60801285D01*
X198032714Y-60848904D01*
X198080333Y-60896523D01*
X198127952Y-60991761D01*
X198127952Y-61182238D01*
X198175571Y-61277476D01*
X198223190Y-61325095D01*
X198318428Y-61372714D01*
X198508904Y-61372714D01*
X198604142Y-61325095D01*
X198651761Y-61277476D01*
X198699380Y-61182238D01*
X198699380Y-60991761D01*
X198651761Y-60896523D01*
X198604142Y-60848904D01*
X198508904Y-60801285D01*
X198318428Y-60801285D01*
X198223190Y-60848904D01*
X198175571Y-60896523D01*
X198127952Y-60991761D01*
X197794619Y-101631714D02*
X197747000Y-101584095D01*
X197699380Y-101488857D01*
X197699380Y-101250761D01*
X197747000Y-101155523D01*
X197794619Y-101107904D01*
X197889857Y-101060285D01*
X197985095Y-101060285D01*
X198127952Y-101107904D01*
X198699380Y-101679333D01*
X198699380Y-101060285D01*
X198699380Y-48450476D02*
X198699380Y-49021904D01*
X198699380Y-48736190D02*
X197699380Y-48736190D01*
X197842238Y-48831428D01*
X197937476Y-48926666D01*
X197985095Y-49021904D01*
X198699380Y-47498095D02*
X198699380Y-48069523D01*
X198699380Y-47783809D02*
X197699380Y-47783809D01*
X197842238Y-47879047D01*
X197937476Y-47974285D01*
X197985095Y-48069523D01*
X197699380Y-106505333D02*
X197699380Y-105886285D01*
X198080333Y-106219619D01*
X198080333Y-106076761D01*
X198127952Y-105981523D01*
X198175571Y-105933904D01*
X198270809Y-105886285D01*
X198508904Y-105886285D01*
X198604142Y-105933904D01*
X198651761Y-105981523D01*
X198699380Y-106076761D01*
X198699380Y-106362476D01*
X198651761Y-106457714D01*
X198604142Y-106505333D01*
D12*
X119380000Y-55118000D02*
X120777000Y-55118000D01*
X119380000Y-57277000D02*
X120777000Y-57277000D01*
X119380000Y-59563000D02*
X120777000Y-59563000D01*
X119380000Y-61595000D02*
X120777000Y-61595000D01*
X119380000Y-63754000D02*
X120777000Y-63754000D01*
X119380000Y-65913000D02*
X120777000Y-65913000D01*
X119380000Y-68072000D02*
X120777000Y-68072000D01*
X119380000Y-70231000D02*
X120777000Y-70231000D01*
X119380000Y-72390000D02*
X120777000Y-72390000D01*
X119380000Y-74549000D02*
X120777000Y-74549000D01*
X119380000Y-76708000D02*
X120777000Y-76708000D01*
X120777000Y-53086000D02*
X119380000Y-53086000D01*
X120777000Y-78867000D02*
X119380000Y-78867000D01*
X120777000Y-53086000D02*
X120777000Y-78867000D01*
D13*
X119525142Y-45538571D02*
X119271142Y-45538571D01*
X119271142Y-45937714D02*
X119271142Y-45175714D01*
X119634000Y-45175714D01*
X120250857Y-45937714D02*
X120250857Y-45538571D01*
X120214571Y-45466000D01*
X120142000Y-45429714D01*
X119996857Y-45429714D01*
X119924285Y-45466000D01*
X120250857Y-45901428D02*
X120178285Y-45937714D01*
X119996857Y-45937714D01*
X119924285Y-45901428D01*
X119888000Y-45828857D01*
X119888000Y-45756285D01*
X119924285Y-45683714D01*
X119996857Y-45647428D01*
X120178285Y-45647428D01*
X120250857Y-45611142D01*
X120940285Y-45429714D02*
X120940285Y-45937714D01*
X120613714Y-45429714D02*
X120613714Y-45828857D01*
X120650000Y-45901428D01*
X120722571Y-45937714D01*
X120831428Y-45937714D01*
X120904000Y-45901428D01*
X120940285Y-45865142D01*
X121412000Y-45937714D02*
X121339428Y-45901428D01*
X121303142Y-45828857D01*
X121303142Y-45175714D01*
X121593428Y-45429714D02*
X121883714Y-45429714D01*
X121702285Y-45175714D02*
X121702285Y-45828857D01*
X121738571Y-45901428D01*
X121811142Y-45937714D01*
X121883714Y-45937714D01*
X119779142Y-48024142D02*
X119742857Y-48060428D01*
X119634000Y-48096714D01*
X119561428Y-48096714D01*
X119452571Y-48060428D01*
X119380000Y-47987857D01*
X119343714Y-47915285D01*
X119307428Y-47770142D01*
X119307428Y-47661285D01*
X119343714Y-47516142D01*
X119380000Y-47443571D01*
X119452571Y-47371000D01*
X119561428Y-47334714D01*
X119634000Y-47334714D01*
X119742857Y-47371000D01*
X119779142Y-47407285D01*
X120069428Y-47879000D02*
X120432285Y-47879000D01*
X119996857Y-48096714D02*
X120250857Y-47334714D01*
X120504857Y-48096714D01*
X120758857Y-48096714D02*
X120758857Y-47334714D01*
X121194285Y-48096714D01*
X121194285Y-47334714D01*
X119307428Y-49430214D02*
X119307428Y-50047071D01*
X119343714Y-50119642D01*
X119380000Y-50155928D01*
X119452571Y-50192214D01*
X119597714Y-50192214D01*
X119670285Y-50155928D01*
X119706571Y-50119642D01*
X119742857Y-50047071D01*
X119742857Y-49430214D01*
X120069428Y-50155928D02*
X120178285Y-50192214D01*
X120359714Y-50192214D01*
X120432285Y-50155928D01*
X120468571Y-50119642D01*
X120504857Y-50047071D01*
X120504857Y-49974500D01*
X120468571Y-49901928D01*
X120432285Y-49865642D01*
X120359714Y-49829357D01*
X120214571Y-49793071D01*
X120142000Y-49756785D01*
X120105714Y-49720500D01*
X120069428Y-49647928D01*
X120069428Y-49575357D01*
X120105714Y-49502785D01*
X120142000Y-49466500D01*
X120214571Y-49430214D01*
X120396000Y-49430214D01*
X120504857Y-49466500D01*
X121085428Y-49793071D02*
X121194285Y-49829357D01*
X121230571Y-49865642D01*
X121266857Y-49938214D01*
X121266857Y-50047071D01*
X121230571Y-50119642D01*
X121194285Y-50155928D01*
X121121714Y-50192214D01*
X120831428Y-50192214D01*
X120831428Y-49430214D01*
X121085428Y-49430214D01*
X121158000Y-49466500D01*
X121194285Y-49502785D01*
X121230571Y-49575357D01*
X121230571Y-49647928D01*
X121194285Y-49720500D01*
X121158000Y-49756785D01*
X121085428Y-49793071D01*
X120831428Y-49793071D01*
D10*
X122139528Y-71731414D02*
X122139528Y-71542728D01*
X122186700Y-71448385D01*
X122281042Y-71354042D01*
X122469728Y-71306871D01*
X122799928Y-71306871D01*
X122988614Y-71354042D01*
X123082957Y-71448385D01*
X123130128Y-71542728D01*
X123130128Y-71731414D01*
X123082957Y-71825757D01*
X122988614Y-71920100D01*
X122799928Y-71967271D01*
X122469728Y-71967271D01*
X122281042Y-71920100D01*
X122186700Y-71825757D01*
X122139528Y-71731414D01*
X122469728Y-70457785D02*
X123130128Y-70457785D01*
X122469728Y-70882328D02*
X122988614Y-70882328D01*
X123082957Y-70835157D01*
X123130128Y-70740814D01*
X123130128Y-70599300D01*
X123082957Y-70504957D01*
X123035785Y-70457785D01*
X122469728Y-70127585D02*
X122469728Y-69750214D01*
X122139528Y-69986071D02*
X122988614Y-69986071D01*
X123082957Y-69938900D01*
X123130128Y-69844557D01*
X123130128Y-69750214D01*
X122469728Y-69420014D02*
X123460328Y-69420014D01*
X122516900Y-69420014D02*
X122469728Y-69325671D01*
X122469728Y-69136985D01*
X122516900Y-69042642D01*
X122564071Y-68995471D01*
X122658414Y-68948300D01*
X122941442Y-68948300D01*
X123035785Y-68995471D01*
X123082957Y-69042642D01*
X123130128Y-69136985D01*
X123130128Y-69325671D01*
X123082957Y-69420014D01*
X122469728Y-68099214D02*
X123130128Y-68099214D01*
X122469728Y-68523757D02*
X122988614Y-68523757D01*
X123082957Y-68476585D01*
X123130128Y-68382242D01*
X123130128Y-68240728D01*
X123082957Y-68146385D01*
X123035785Y-68099214D01*
X122469728Y-67769014D02*
X122469728Y-67391642D01*
X122139528Y-67627500D02*
X122988614Y-67627500D01*
X123082957Y-67580328D01*
X123130128Y-67485985D01*
X123130128Y-67391642D01*
X123035785Y-65740642D02*
X123082957Y-65787814D01*
X123130128Y-65929328D01*
X123130128Y-66023671D01*
X123082957Y-66165185D01*
X122988614Y-66259528D01*
X122894271Y-66306700D01*
X122705585Y-66353871D01*
X122564071Y-66353871D01*
X122375385Y-66306700D01*
X122281042Y-66259528D01*
X122186700Y-66165185D01*
X122139528Y-66023671D01*
X122139528Y-65929328D01*
X122186700Y-65787814D01*
X122233871Y-65740642D01*
X123130128Y-65316100D02*
X122139528Y-65316100D01*
X123130128Y-64891557D02*
X122611242Y-64891557D01*
X122516900Y-64938728D01*
X122469728Y-65033071D01*
X122469728Y-65174585D01*
X122516900Y-65268928D01*
X122564071Y-65316100D01*
X123130128Y-63995300D02*
X122611242Y-63995300D01*
X122516900Y-64042471D01*
X122469728Y-64136814D01*
X122469728Y-64325500D01*
X122516900Y-64419842D01*
X123082957Y-63995300D02*
X123130128Y-64089642D01*
X123130128Y-64325500D01*
X123082957Y-64419842D01*
X122988614Y-64467014D01*
X122894271Y-64467014D01*
X122799928Y-64419842D01*
X122752757Y-64325500D01*
X122752757Y-64089642D01*
X122705585Y-63995300D01*
X122469728Y-63523585D02*
X123130128Y-63523585D01*
X122564071Y-63523585D02*
X122516900Y-63476414D01*
X122469728Y-63382071D01*
X122469728Y-63240557D01*
X122516900Y-63146214D01*
X122611242Y-63099042D01*
X123130128Y-63099042D01*
X122469728Y-62627328D02*
X123130128Y-62627328D01*
X122564071Y-62627328D02*
X122516900Y-62580157D01*
X122469728Y-62485814D01*
X122469728Y-62344300D01*
X122516900Y-62249957D01*
X122611242Y-62202785D01*
X123130128Y-62202785D01*
X123082957Y-61353700D02*
X123130128Y-61448042D01*
X123130128Y-61636728D01*
X123082957Y-61731071D01*
X122988614Y-61778242D01*
X122611242Y-61778242D01*
X122516900Y-61731071D01*
X122469728Y-61636728D01*
X122469728Y-61448042D01*
X122516900Y-61353700D01*
X122611242Y-61306528D01*
X122705585Y-61306528D01*
X122799928Y-61778242D01*
X123130128Y-60740471D02*
X123082957Y-60834814D01*
X122988614Y-60881985D01*
X122139528Y-60881985D01*
X123082957Y-60410271D02*
X123130128Y-60315928D01*
X123130128Y-60127242D01*
X123082957Y-60032900D01*
X122988614Y-59985728D01*
X122941442Y-59985728D01*
X122847100Y-60032900D01*
X122799928Y-60127242D01*
X122799928Y-60268757D01*
X122752757Y-60363100D01*
X122658414Y-60410271D01*
X122611242Y-60410271D01*
X122516900Y-60363100D01*
X122469728Y-60268757D01*
X122469728Y-60127242D01*
X122516900Y-60032900D01*
X154443248Y-67934114D02*
X153452648Y-67934114D01*
X153452648Y-67556742D01*
X153499820Y-67462400D01*
X153546991Y-67415228D01*
X153641334Y-67368057D01*
X153782848Y-67368057D01*
X153877191Y-67415228D01*
X153924362Y-67462400D01*
X153971534Y-67556742D01*
X153971534Y-67934114D01*
X154443248Y-66802000D02*
X154396077Y-66896342D01*
X154348905Y-66943514D01*
X154254562Y-66990685D01*
X153971534Y-66990685D01*
X153877191Y-66943514D01*
X153830020Y-66896342D01*
X153782848Y-66802000D01*
X153782848Y-66660485D01*
X153830020Y-66566142D01*
X153877191Y-66518971D01*
X153971534Y-66471800D01*
X154254562Y-66471800D01*
X154348905Y-66518971D01*
X154396077Y-66566142D01*
X154443248Y-66660485D01*
X154443248Y-66802000D01*
X153782848Y-66141600D02*
X154443248Y-65952914D01*
X153971534Y-65764228D01*
X154443248Y-65575542D01*
X153782848Y-65386857D01*
X154396077Y-64632114D02*
X154443248Y-64726457D01*
X154443248Y-64915142D01*
X154396077Y-65009485D01*
X154301734Y-65056657D01*
X153924362Y-65056657D01*
X153830020Y-65009485D01*
X153782848Y-64915142D01*
X153782848Y-64726457D01*
X153830020Y-64632114D01*
X153924362Y-64584942D01*
X154018705Y-64584942D01*
X154113048Y-65056657D01*
X154443248Y-64160400D02*
X153782848Y-64160400D01*
X153971534Y-64160400D02*
X153877191Y-64113228D01*
X153830020Y-64066057D01*
X153782848Y-63971714D01*
X153782848Y-63877371D01*
X155984665Y-66306700D02*
X156031837Y-66259528D01*
X156079008Y-66306700D01*
X156031837Y-66353871D01*
X155984665Y-66306700D01*
X156079008Y-66306700D01*
X155465780Y-66306700D02*
X155512951Y-66259528D01*
X155560122Y-66306700D01*
X155512951Y-66353871D01*
X155465780Y-66306700D01*
X155560122Y-66306700D01*
X156456380Y-65929328D02*
X156409208Y-65882157D01*
X156267694Y-65787814D01*
X156173351Y-65740642D01*
X156031837Y-65693471D01*
X155795980Y-65646300D01*
X155607294Y-65646300D01*
X155371437Y-65693471D01*
X155229922Y-65740642D01*
X155135580Y-65787814D01*
X154994065Y-65882157D01*
X154946894Y-65929328D01*
X164031748Y-94858114D02*
X163041148Y-94858114D01*
X163041148Y-94480742D01*
X163088320Y-94386400D01*
X163135491Y-94339228D01*
X163229834Y-94292057D01*
X163371348Y-94292057D01*
X163465691Y-94339228D01*
X163512862Y-94386400D01*
X163560034Y-94480742D01*
X163560034Y-94858114D01*
X164031748Y-93726000D02*
X163984577Y-93820342D01*
X163937405Y-93867514D01*
X163843062Y-93914685D01*
X163560034Y-93914685D01*
X163465691Y-93867514D01*
X163418520Y-93820342D01*
X163371348Y-93726000D01*
X163371348Y-93584485D01*
X163418520Y-93490142D01*
X163465691Y-93442971D01*
X163560034Y-93395800D01*
X163843062Y-93395800D01*
X163937405Y-93442971D01*
X163984577Y-93490142D01*
X164031748Y-93584485D01*
X164031748Y-93726000D01*
X163371348Y-93065600D02*
X164031748Y-92876914D01*
X163560034Y-92688228D01*
X164031748Y-92499542D01*
X163371348Y-92310857D01*
X163984577Y-91556114D02*
X164031748Y-91650457D01*
X164031748Y-91839142D01*
X163984577Y-91933485D01*
X163890234Y-91980657D01*
X163512862Y-91980657D01*
X163418520Y-91933485D01*
X163371348Y-91839142D01*
X163371348Y-91650457D01*
X163418520Y-91556114D01*
X163512862Y-91508942D01*
X163607205Y-91508942D01*
X163701548Y-91980657D01*
X164031748Y-91084400D02*
X163371348Y-91084400D01*
X163560034Y-91084400D02*
X163465691Y-91037228D01*
X163418520Y-90990057D01*
X163371348Y-90895714D01*
X163371348Y-90801371D01*
X165573165Y-93230700D02*
X165620337Y-93183528D01*
X165667508Y-93230700D01*
X165620337Y-93277871D01*
X165573165Y-93230700D01*
X165667508Y-93230700D01*
X165054280Y-93230700D02*
X165101451Y-93183528D01*
X165148622Y-93230700D01*
X165101451Y-93277871D01*
X165054280Y-93230700D01*
X165148622Y-93230700D01*
X166044880Y-92475957D02*
X165997708Y-92523128D01*
X165856194Y-92617471D01*
X165761851Y-92664642D01*
X165620337Y-92711814D01*
X165384480Y-92758985D01*
X165195794Y-92758985D01*
X164959937Y-92711814D01*
X164818422Y-92664642D01*
X164724080Y-92617471D01*
X164582565Y-92523128D01*
X164535394Y-92475957D01*
X126758700Y-82606242D02*
X126711528Y-82700585D01*
X126711528Y-82842100D01*
X126758700Y-82983614D01*
X126853042Y-83077957D01*
X126947385Y-83125128D01*
X127136071Y-83172300D01*
X127277585Y-83172300D01*
X127466271Y-83125128D01*
X127560614Y-83077957D01*
X127654957Y-82983614D01*
X127702128Y-82842100D01*
X127702128Y-82747757D01*
X127654957Y-82606242D01*
X127607785Y-82559071D01*
X127277585Y-82559071D01*
X127277585Y-82747757D01*
X127702128Y-82134528D02*
X126711528Y-82134528D01*
X127702128Y-81568471D01*
X126711528Y-81568471D01*
X127702128Y-81096757D02*
X126711528Y-81096757D01*
X126711528Y-80860900D01*
X126758700Y-80719385D01*
X126853042Y-80625042D01*
X126947385Y-80577871D01*
X127136071Y-80530700D01*
X127277585Y-80530700D01*
X127466271Y-80577871D01*
X127560614Y-80625042D01*
X127654957Y-80719385D01*
X127702128Y-80860900D01*
X127702128Y-81096757D01*
X131283528Y-83478914D02*
X132274128Y-83148714D01*
X131283528Y-82818514D01*
X131755242Y-82158114D02*
X131802414Y-82016600D01*
X131849585Y-81969428D01*
X131943928Y-81922257D01*
X132085442Y-81922257D01*
X132179785Y-81969428D01*
X132226957Y-82016600D01*
X132274128Y-82110942D01*
X132274128Y-82488314D01*
X131283528Y-82488314D01*
X131283528Y-82158114D01*
X131330700Y-82063771D01*
X131377871Y-82016600D01*
X131472214Y-81969428D01*
X131566557Y-81969428D01*
X131660900Y-82016600D01*
X131708071Y-82063771D01*
X131755242Y-82158114D01*
X131755242Y-82488314D01*
X131991100Y-81544885D02*
X131991100Y-81073171D01*
X132274128Y-81639228D02*
X131283528Y-81309028D01*
X132274128Y-80978828D01*
X131283528Y-80790142D02*
X131283528Y-80224085D01*
X132274128Y-80507114D02*
X131283528Y-80507114D01*
X129099128Y-111707385D02*
X128108528Y-111707385D01*
X128816100Y-111377185D01*
X128108528Y-111046985D01*
X129099128Y-111046985D01*
X129004785Y-110009214D02*
X129051957Y-110056385D01*
X129099128Y-110197900D01*
X129099128Y-110292242D01*
X129051957Y-110433757D01*
X128957614Y-110528100D01*
X128863271Y-110575271D01*
X128674585Y-110622442D01*
X128533071Y-110622442D01*
X128344385Y-110575271D01*
X128250042Y-110528100D01*
X128155700Y-110433757D01*
X128108528Y-110292242D01*
X128108528Y-110197900D01*
X128155700Y-110056385D01*
X128202871Y-110009214D01*
X128108528Y-109395985D02*
X128108528Y-109207300D01*
X128155700Y-109112957D01*
X128250042Y-109018614D01*
X128438728Y-108971442D01*
X128768928Y-108971442D01*
X128957614Y-109018614D01*
X129051957Y-109112957D01*
X129099128Y-109207300D01*
X129099128Y-109395985D01*
X129051957Y-109490328D01*
X128957614Y-109584671D01*
X128768928Y-109631842D01*
X128438728Y-109631842D01*
X128250042Y-109584671D01*
X128155700Y-109490328D01*
X128108528Y-109395985D01*
X166945128Y-60403014D02*
X165954528Y-60403014D01*
X166048871Y-59978471D02*
X166001700Y-59931300D01*
X165954528Y-59836957D01*
X165954528Y-59601100D01*
X166001700Y-59506757D01*
X166048871Y-59459585D01*
X166143214Y-59412414D01*
X166237557Y-59412414D01*
X166379071Y-59459585D01*
X166945128Y-60025642D01*
X166945128Y-59412414D01*
X166945128Y-58987871D02*
X165954528Y-58987871D01*
X165954528Y-58752014D01*
X166001700Y-58610500D01*
X166096042Y-58516157D01*
X166190385Y-58468985D01*
X166379071Y-58421814D01*
X166520585Y-58421814D01*
X166709271Y-58468985D01*
X166803614Y-58516157D01*
X166897957Y-58610500D01*
X166945128Y-58752014D01*
X166945128Y-58987871D01*
X169993128Y-58371014D02*
X169002528Y-58371014D01*
X169096871Y-57946471D02*
X169049700Y-57899300D01*
X169002528Y-57804957D01*
X169002528Y-57569100D01*
X169049700Y-57474757D01*
X169096871Y-57427585D01*
X169191214Y-57380414D01*
X169285557Y-57380414D01*
X169427071Y-57427585D01*
X169993128Y-57993642D01*
X169993128Y-57380414D01*
X169898785Y-56389814D02*
X169945957Y-56436985D01*
X169993128Y-56578500D01*
X169993128Y-56672842D01*
X169945957Y-56814357D01*
X169851614Y-56908700D01*
X169757271Y-56955871D01*
X169568585Y-57003042D01*
X169427071Y-57003042D01*
X169238385Y-56955871D01*
X169144042Y-56908700D01*
X169049700Y-56814357D01*
X169002528Y-56672842D01*
X169002528Y-56578500D01*
X169049700Y-56436985D01*
X169096871Y-56389814D01*
X158690128Y-98376014D02*
X157699528Y-98376014D01*
X158690128Y-97385414D02*
X158690128Y-97951471D01*
X158690128Y-97668442D02*
X157699528Y-97668442D01*
X157841042Y-97762785D01*
X157935385Y-97857128D01*
X157982557Y-97951471D01*
X158595785Y-96394814D02*
X158642957Y-96441985D01*
X158690128Y-96583500D01*
X158690128Y-96677842D01*
X158642957Y-96819357D01*
X158548614Y-96913700D01*
X158454271Y-96960871D01*
X158265585Y-97008042D01*
X158124071Y-97008042D01*
X157935385Y-96960871D01*
X157841042Y-96913700D01*
X157746700Y-96819357D01*
X157699528Y-96677842D01*
X157699528Y-96583500D01*
X157746700Y-96441985D01*
X157793871Y-96394814D01*
X155515128Y-98376014D02*
X154524528Y-98376014D01*
X155515128Y-97385414D02*
X155515128Y-97951471D01*
X155515128Y-97668442D02*
X154524528Y-97668442D01*
X154666042Y-97762785D01*
X154760385Y-97857128D01*
X154807557Y-97951471D01*
X155515128Y-96960871D02*
X154524528Y-96960871D01*
X154524528Y-96725014D01*
X154571700Y-96583500D01*
X154666042Y-96489157D01*
X154760385Y-96441985D01*
X154949071Y-96394814D01*
X155090585Y-96394814D01*
X155279271Y-96441985D01*
X155373614Y-96489157D01*
X155467957Y-96583500D01*
X155515128Y-96725014D01*
X155515128Y-96960871D01*
X116107028Y-105861757D02*
X116908942Y-105861757D01*
X117003285Y-105814585D01*
X117050457Y-105767414D01*
X117097628Y-105673071D01*
X117097628Y-105484385D01*
X117050457Y-105390042D01*
X117003285Y-105342871D01*
X116908942Y-105295700D01*
X116107028Y-105295700D01*
X116720257Y-104823985D02*
X116720257Y-104069242D01*
X117097628Y-104446614D02*
X116342885Y-104446614D01*
X116043528Y-113926257D02*
X116845442Y-113926257D01*
X116939785Y-113879085D01*
X116986957Y-113831914D01*
X117034128Y-113737571D01*
X117034128Y-113548885D01*
X116986957Y-113454542D01*
X116939785Y-113407371D01*
X116845442Y-113360200D01*
X116043528Y-113360200D01*
X116656757Y-112888485D02*
X116656757Y-112133742D01*
X138720285Y-56894185D02*
X138767457Y-56941357D01*
X138814628Y-57082871D01*
X138814628Y-57177214D01*
X138767457Y-57318728D01*
X138673114Y-57413071D01*
X138578771Y-57460242D01*
X138390085Y-57507414D01*
X138248571Y-57507414D01*
X138059885Y-57460242D01*
X137965542Y-57413071D01*
X137871200Y-57318728D01*
X137824028Y-57177214D01*
X137824028Y-57082871D01*
X137871200Y-56941357D01*
X137918371Y-56894185D01*
X138814628Y-55903585D02*
X138342914Y-56233785D01*
X138814628Y-56469642D02*
X137824028Y-56469642D01*
X137824028Y-56092271D01*
X137871200Y-55997928D01*
X137918371Y-55950757D01*
X138012714Y-55903585D01*
X138154228Y-55903585D01*
X138248571Y-55950757D01*
X138295742Y-55997928D01*
X138342914Y-56092271D01*
X138342914Y-56469642D01*
X131481285Y-62745257D02*
X131528457Y-62792428D01*
X131575628Y-62933942D01*
X131575628Y-63028285D01*
X131528457Y-63169800D01*
X131434114Y-63264142D01*
X131339771Y-63311314D01*
X131151085Y-63358485D01*
X131009571Y-63358485D01*
X130820885Y-63311314D01*
X130726542Y-63264142D01*
X130632200Y-63169800D01*
X130585028Y-63028285D01*
X130585028Y-62933942D01*
X130632200Y-62792428D01*
X130679371Y-62745257D01*
X130585028Y-62462228D02*
X130585028Y-61896171D01*
X131575628Y-62179200D02*
X130585028Y-62179200D01*
D12*
X143793981Y-109601000D02*
G75*
G03*
X143793981Y-109601000I-283981J0D01*
G01*
D11*
X144025880Y-97694785D02*
X144025880Y-98266214D01*
X144025880Y-97980500D02*
X143025880Y-97980500D01*
X143168738Y-98075738D01*
X143263976Y-98170976D01*
X143311595Y-98266214D01*
X149439380Y-98028119D02*
X149439380Y-97932880D01*
X149487000Y-97837642D01*
X149534619Y-97790023D01*
X149629857Y-97742404D01*
X149820333Y-97694785D01*
X150058428Y-97694785D01*
X150248904Y-97742404D01*
X150344142Y-97790023D01*
X150391761Y-97837642D01*
X150439380Y-97932880D01*
X150439380Y-98028119D01*
X150391761Y-98123357D01*
X150344142Y-98170976D01*
X150248904Y-98218595D01*
X150058428Y-98266214D01*
X149820333Y-98266214D01*
X149629857Y-98218595D01*
X149534619Y-98170976D01*
X149487000Y-98123357D01*
X149439380Y-98028119D01*
X147883571Y-104560547D02*
X147931190Y-104417690D01*
X147978809Y-104370071D01*
X148074047Y-104322452D01*
X148216904Y-104322452D01*
X148312142Y-104370071D01*
X148359761Y-104417690D01*
X148407380Y-104512928D01*
X148407380Y-104893880D01*
X147407380Y-104893880D01*
X147407380Y-104560547D01*
X147455000Y-104465309D01*
X147502619Y-104417690D01*
X147597857Y-104370071D01*
X147693095Y-104370071D01*
X147788333Y-104417690D01*
X147835952Y-104465309D01*
X147883571Y-104560547D01*
X147883571Y-104893880D01*
X148407380Y-103751023D02*
X148359761Y-103846261D01*
X148312142Y-103893880D01*
X148216904Y-103941500D01*
X147931190Y-103941500D01*
X147835952Y-103893880D01*
X147788333Y-103846261D01*
X147740714Y-103751023D01*
X147740714Y-103608166D01*
X147788333Y-103512928D01*
X147835952Y-103465309D01*
X147931190Y-103417690D01*
X148216904Y-103417690D01*
X148312142Y-103465309D01*
X148359761Y-103512928D01*
X148407380Y-103608166D01*
X148407380Y-103751023D01*
X148407380Y-102846261D02*
X148359761Y-102941500D01*
X148312142Y-102989119D01*
X148216904Y-103036738D01*
X147931190Y-103036738D01*
X147835952Y-102989119D01*
X147788333Y-102941500D01*
X147740714Y-102846261D01*
X147740714Y-102703404D01*
X147788333Y-102608166D01*
X147835952Y-102560547D01*
X147931190Y-102512928D01*
X148216904Y-102512928D01*
X148312142Y-102560547D01*
X148359761Y-102608166D01*
X148407380Y-102703404D01*
X148407380Y-102846261D01*
X147740714Y-102227214D02*
X147740714Y-101846261D01*
X147407380Y-102084357D02*
X148264523Y-102084357D01*
X148359761Y-102036738D01*
X148407380Y-101941500D01*
X148407380Y-101846261D01*
X151455380Y-95281428D02*
X150455380Y-95281428D01*
X150455380Y-94900476D01*
X150503000Y-94805238D01*
X150550619Y-94757619D01*
X150645857Y-94710000D01*
X150788714Y-94710000D01*
X150883952Y-94757619D01*
X150931571Y-94805238D01*
X150979190Y-94900476D01*
X150979190Y-95281428D01*
X151455380Y-94281428D02*
X150455380Y-94281428D01*
X150455380Y-94043333D01*
X150503000Y-93900476D01*
X150598238Y-93805238D01*
X150693476Y-93757619D01*
X150883952Y-93710000D01*
X151026809Y-93710000D01*
X151217285Y-93757619D01*
X151312523Y-93805238D01*
X151407761Y-93900476D01*
X151455380Y-94043333D01*
X151455380Y-94281428D01*
X151455380Y-93281428D02*
X150455380Y-93281428D01*
X151169666Y-92948095D01*
X150455380Y-92614761D01*
X151455380Y-92614761D01*
X150788714Y-91471904D02*
X151455380Y-91233809D01*
X150788714Y-90995714D01*
X150550619Y-90662380D02*
X150503000Y-90614761D01*
X150455380Y-90519523D01*
X150455380Y-90281428D01*
X150503000Y-90186190D01*
X150550619Y-90138571D01*
X150645857Y-90090952D01*
X150741095Y-90090952D01*
X150883952Y-90138571D01*
X151455380Y-90710000D01*
X151455380Y-90090952D01*
X168886666Y-81382904D02*
X168886666Y-80906714D01*
X169172380Y-81478142D02*
X168172380Y-81144809D01*
X169172380Y-80811476D01*
X169172380Y-80335285D02*
X169124761Y-80430523D01*
X169029523Y-80478142D01*
X168172380Y-80478142D01*
X168505714Y-80049571D02*
X169172380Y-79859095D01*
X168696190Y-79668619D01*
X169172380Y-79478142D01*
X168505714Y-79287666D01*
X169172380Y-78478142D02*
X168648571Y-78478142D01*
X168553333Y-78525761D01*
X168505714Y-78621000D01*
X168505714Y-78811476D01*
X168553333Y-78906714D01*
X169124761Y-78478142D02*
X169172380Y-78573380D01*
X169172380Y-78811476D01*
X169124761Y-78906714D01*
X169029523Y-78954333D01*
X168934285Y-78954333D01*
X168839047Y-78906714D01*
X168791428Y-78811476D01*
X168791428Y-78573380D01*
X168743809Y-78478142D01*
X168505714Y-78097190D02*
X169172380Y-77859095D01*
X168505714Y-77621000D02*
X169172380Y-77859095D01*
X169410476Y-77954333D01*
X169458095Y-78001952D01*
X169505714Y-78097190D01*
X169124761Y-77287666D02*
X169172380Y-77192428D01*
X169172380Y-77001952D01*
X169124761Y-76906714D01*
X169029523Y-76859095D01*
X168981904Y-76859095D01*
X168886666Y-76906714D01*
X168839047Y-77001952D01*
X168839047Y-77144809D01*
X168791428Y-77240047D01*
X168696190Y-77287666D01*
X168648571Y-77287666D01*
X168553333Y-77240047D01*
X168505714Y-77144809D01*
X168505714Y-77001952D01*
X168553333Y-76906714D01*
X169822380Y-79668619D02*
X169822380Y-79478142D01*
X169870000Y-79382904D01*
X169965238Y-79287666D01*
X170155714Y-79240047D01*
X170489047Y-79240047D01*
X170679523Y-79287666D01*
X170774761Y-79382904D01*
X170822380Y-79478142D01*
X170822380Y-79668619D01*
X170774761Y-79763857D01*
X170679523Y-79859095D01*
X170489047Y-79906714D01*
X170155714Y-79906714D01*
X169965238Y-79859095D01*
X169870000Y-79763857D01*
X169822380Y-79668619D01*
X170155714Y-78811476D02*
X170822380Y-78811476D01*
X170250952Y-78811476D02*
X170203333Y-78763857D01*
X170155714Y-78668619D01*
X170155714Y-78525761D01*
X170203333Y-78430523D01*
X170298571Y-78382904D01*
X170822380Y-78382904D01*
X121991380Y-88233095D02*
X121515190Y-88566428D01*
X121991380Y-88804523D02*
X120991380Y-88804523D01*
X120991380Y-88423571D01*
X121039000Y-88328333D01*
X121086619Y-88280714D01*
X121181857Y-88233095D01*
X121324714Y-88233095D01*
X121419952Y-88280714D01*
X121467571Y-88328333D01*
X121515190Y-88423571D01*
X121515190Y-88804523D01*
X121943761Y-87423571D02*
X121991380Y-87518809D01*
X121991380Y-87709285D01*
X121943761Y-87804523D01*
X121848523Y-87852142D01*
X121467571Y-87852142D01*
X121372333Y-87804523D01*
X121324714Y-87709285D01*
X121324714Y-87518809D01*
X121372333Y-87423571D01*
X121467571Y-87375952D01*
X121562809Y-87375952D01*
X121658047Y-87852142D01*
X121943761Y-86995000D02*
X121991380Y-86899761D01*
X121991380Y-86709285D01*
X121943761Y-86614047D01*
X121848523Y-86566428D01*
X121800904Y-86566428D01*
X121705666Y-86614047D01*
X121658047Y-86709285D01*
X121658047Y-86852142D01*
X121610428Y-86947380D01*
X121515190Y-86995000D01*
X121467571Y-86995000D01*
X121372333Y-86947380D01*
X121324714Y-86852142D01*
X121324714Y-86709285D01*
X121372333Y-86614047D01*
X121943761Y-85756904D02*
X121991380Y-85852142D01*
X121991380Y-86042619D01*
X121943761Y-86137857D01*
X121848523Y-86185476D01*
X121467571Y-86185476D01*
X121372333Y-86137857D01*
X121324714Y-86042619D01*
X121324714Y-85852142D01*
X121372333Y-85756904D01*
X121467571Y-85709285D01*
X121562809Y-85709285D01*
X121658047Y-86185476D01*
X121324714Y-85423571D02*
X121324714Y-85042619D01*
X120991380Y-85280714D02*
X121848523Y-85280714D01*
X121943761Y-85233095D01*
X121991380Y-85137857D01*
X121991380Y-85042619D01*
X137247380Y-49569619D02*
X137247380Y-49379142D01*
X137295000Y-49283904D01*
X137390238Y-49188666D01*
X137580714Y-49141047D01*
X137914047Y-49141047D01*
X138104523Y-49188666D01*
X138199761Y-49283904D01*
X138247380Y-49379142D01*
X138247380Y-49569619D01*
X138199761Y-49664857D01*
X138104523Y-49760095D01*
X137914047Y-49807714D01*
X137580714Y-49807714D01*
X137390238Y-49760095D01*
X137295000Y-49664857D01*
X137247380Y-49569619D01*
X137580714Y-48712476D02*
X138247380Y-48712476D01*
X137675952Y-48712476D02*
X137628333Y-48664857D01*
X137580714Y-48569619D01*
X137580714Y-48426761D01*
X137628333Y-48331523D01*
X137723571Y-48283904D01*
X138247380Y-48283904D01*
X142280142Y-45193976D02*
X142327761Y-45241595D01*
X142375380Y-45384452D01*
X142375380Y-45479690D01*
X142327761Y-45622547D01*
X142232523Y-45717785D01*
X142137285Y-45765404D01*
X141946809Y-45813023D01*
X141803952Y-45813023D01*
X141613476Y-45765404D01*
X141518238Y-45717785D01*
X141423000Y-45622547D01*
X141375380Y-45479690D01*
X141375380Y-45384452D01*
X141423000Y-45241595D01*
X141470619Y-45193976D01*
X142089666Y-44813023D02*
X142089666Y-44336833D01*
X142375380Y-44908261D02*
X141375380Y-44574928D01*
X142375380Y-44241595D01*
X142375380Y-43908261D02*
X141375380Y-43908261D01*
X142375380Y-43336833D01*
X141375380Y-43336833D01*
X143025380Y-45908261D02*
X143025380Y-45336833D01*
X144025380Y-45622547D02*
X143025380Y-45622547D01*
X143977761Y-44622547D02*
X144025380Y-44717785D01*
X144025380Y-44908261D01*
X143977761Y-45003500D01*
X143882523Y-45051119D01*
X143501571Y-45051119D01*
X143406333Y-45003500D01*
X143358714Y-44908261D01*
X143358714Y-44717785D01*
X143406333Y-44622547D01*
X143501571Y-44574928D01*
X143596809Y-44574928D01*
X143692047Y-45051119D01*
X144025380Y-44146357D02*
X143358714Y-44146357D01*
X143549190Y-44146357D02*
X143453952Y-44098738D01*
X143406333Y-44051119D01*
X143358714Y-43955880D01*
X143358714Y-43860642D01*
X144025380Y-43527309D02*
X143358714Y-43527309D01*
X143453952Y-43527309D02*
X143406333Y-43479690D01*
X143358714Y-43384452D01*
X143358714Y-43241595D01*
X143406333Y-43146357D01*
X143501571Y-43098738D01*
X144025380Y-43098738D01*
X143501571Y-43098738D02*
X143406333Y-43051119D01*
X143358714Y-42955880D01*
X143358714Y-42813023D01*
X143406333Y-42717785D01*
X143501571Y-42670166D01*
X144025380Y-42670166D01*
D13*
X119262071Y-52314928D02*
X119370928Y-52351214D01*
X119552357Y-52351214D01*
X119624928Y-52314928D01*
X119661214Y-52278642D01*
X119697500Y-52206071D01*
X119697500Y-52133500D01*
X119661214Y-52060928D01*
X119624928Y-52024642D01*
X119552357Y-51988357D01*
X119407214Y-51952071D01*
X119334642Y-51915785D01*
X119298357Y-51879500D01*
X119262071Y-51806928D01*
X119262071Y-51734357D01*
X119298357Y-51661785D01*
X119334642Y-51625500D01*
X119407214Y-51589214D01*
X119588642Y-51589214D01*
X119697500Y-51625500D01*
X119915214Y-51843214D02*
X120205500Y-51843214D01*
X120024071Y-51589214D02*
X120024071Y-52242357D01*
X120060357Y-52314928D01*
X120132928Y-52351214D01*
X120205500Y-52351214D01*
X120786071Y-52351214D02*
X120786071Y-51952071D01*
X120749785Y-51879500D01*
X120677214Y-51843214D01*
X120532071Y-51843214D01*
X120459500Y-51879500D01*
X120786071Y-52314928D02*
X120713500Y-52351214D01*
X120532071Y-52351214D01*
X120459500Y-52314928D01*
X120423214Y-52242357D01*
X120423214Y-52169785D01*
X120459500Y-52097214D01*
X120532071Y-52060928D01*
X120713500Y-52060928D01*
X120786071Y-52024642D01*
X121040071Y-51843214D02*
X121330357Y-51843214D01*
X121148928Y-51589214D02*
X121148928Y-52242357D01*
X121185214Y-52314928D01*
X121257785Y-52351214D01*
X121330357Y-52351214D01*
X121874642Y-52314928D02*
X121802071Y-52351214D01*
X121656928Y-52351214D01*
X121584357Y-52314928D01*
X121548071Y-52242357D01*
X121548071Y-51952071D01*
X121584357Y-51879500D01*
X121656928Y-51843214D01*
X121802071Y-51843214D01*
X121874642Y-51879500D01*
X121910928Y-51952071D01*
X121910928Y-52024642D01*
X121548071Y-52097214D01*
D11*
X120340380Y-54292476D02*
X120340380Y-54863904D01*
X120340380Y-54578190D02*
X119340380Y-54578190D01*
X119483238Y-54673428D01*
X119578476Y-54768666D01*
X119626095Y-54863904D01*
X119435619Y-53911523D02*
X119388000Y-53863904D01*
X119340380Y-53768666D01*
X119340380Y-53530571D01*
X119388000Y-53435333D01*
X119435619Y-53387714D01*
X119530857Y-53340095D01*
X119626095Y-53340095D01*
X119768952Y-53387714D01*
X120340380Y-53959142D01*
X120340380Y-53340095D01*
X120340380Y-56324476D02*
X120340380Y-56895904D01*
X120340380Y-56610190D02*
X119340380Y-56610190D01*
X119483238Y-56705428D01*
X119578476Y-56800666D01*
X119626095Y-56895904D01*
X120340380Y-55372095D02*
X120340380Y-55943523D01*
X120340380Y-55657809D02*
X119340380Y-55657809D01*
X119483238Y-55753047D01*
X119578476Y-55848285D01*
X119626095Y-55943523D01*
X120340380Y-58610476D02*
X120340380Y-59181904D01*
X120340380Y-58896190D02*
X119340380Y-58896190D01*
X119483238Y-58991428D01*
X119578476Y-59086666D01*
X119626095Y-59181904D01*
X119340380Y-57991428D02*
X119340380Y-57896190D01*
X119388000Y-57800952D01*
X119435619Y-57753333D01*
X119530857Y-57705714D01*
X119721333Y-57658095D01*
X119959428Y-57658095D01*
X120149904Y-57705714D01*
X120245142Y-57753333D01*
X120292761Y-57800952D01*
X120340380Y-57896190D01*
X120340380Y-57991428D01*
X120292761Y-58086666D01*
X120245142Y-58134285D01*
X120149904Y-58181904D01*
X119959428Y-58229523D01*
X119721333Y-58229523D01*
X119530857Y-58181904D01*
X119435619Y-58134285D01*
X119388000Y-58086666D01*
X119340380Y-57991428D01*
X120340380Y-60769476D02*
X120340380Y-60579000D01*
X120292761Y-60483761D01*
X120245142Y-60436142D01*
X120102285Y-60340904D01*
X119911809Y-60293285D01*
X119530857Y-60293285D01*
X119435619Y-60340904D01*
X119388000Y-60388523D01*
X119340380Y-60483761D01*
X119340380Y-60674238D01*
X119388000Y-60769476D01*
X119435619Y-60817095D01*
X119530857Y-60864714D01*
X119768952Y-60864714D01*
X119864190Y-60817095D01*
X119911809Y-60769476D01*
X119959428Y-60674238D01*
X119959428Y-60483761D01*
X119911809Y-60388523D01*
X119864190Y-60340904D01*
X119768952Y-60293285D01*
X119768952Y-62833238D02*
X119721333Y-62928476D01*
X119673714Y-62976095D01*
X119578476Y-63023714D01*
X119530857Y-63023714D01*
X119435619Y-62976095D01*
X119388000Y-62928476D01*
X119340380Y-62833238D01*
X119340380Y-62642761D01*
X119388000Y-62547523D01*
X119435619Y-62499904D01*
X119530857Y-62452285D01*
X119578476Y-62452285D01*
X119673714Y-62499904D01*
X119721333Y-62547523D01*
X119768952Y-62642761D01*
X119768952Y-62833238D01*
X119816571Y-62928476D01*
X119864190Y-62976095D01*
X119959428Y-63023714D01*
X120149904Y-63023714D01*
X120245142Y-62976095D01*
X120292761Y-62928476D01*
X120340380Y-62833238D01*
X120340380Y-62642761D01*
X120292761Y-62547523D01*
X120245142Y-62499904D01*
X120149904Y-62452285D01*
X119959428Y-62452285D01*
X119864190Y-62499904D01*
X119816571Y-62547523D01*
X119768952Y-62642761D01*
X119340380Y-65230333D02*
X119340380Y-64563666D01*
X120340380Y-64992238D01*
X119340380Y-66865523D02*
X119340380Y-67056000D01*
X119388000Y-67151238D01*
X119435619Y-67198857D01*
X119578476Y-67294095D01*
X119768952Y-67341714D01*
X120149904Y-67341714D01*
X120245142Y-67294095D01*
X120292761Y-67246476D01*
X120340380Y-67151238D01*
X120340380Y-66960761D01*
X120292761Y-66865523D01*
X120245142Y-66817904D01*
X120149904Y-66770285D01*
X119911809Y-66770285D01*
X119816571Y-66817904D01*
X119768952Y-66865523D01*
X119721333Y-66960761D01*
X119721333Y-67151238D01*
X119768952Y-67246476D01*
X119816571Y-67294095D01*
X119911809Y-67341714D01*
X119340380Y-68976904D02*
X119340380Y-69453095D01*
X119816571Y-69500714D01*
X119768952Y-69453095D01*
X119721333Y-69357857D01*
X119721333Y-69119761D01*
X119768952Y-69024523D01*
X119816571Y-68976904D01*
X119911809Y-68929285D01*
X120149904Y-68929285D01*
X120245142Y-68976904D01*
X120292761Y-69024523D01*
X120340380Y-69119761D01*
X120340380Y-69357857D01*
X120292761Y-69453095D01*
X120245142Y-69500714D01*
X119673714Y-71183523D02*
X120340380Y-71183523D01*
X119292761Y-71421619D02*
X120007047Y-71659714D01*
X120007047Y-71040666D01*
X119340380Y-73866333D02*
X119340380Y-73247285D01*
X119721333Y-73580619D01*
X119721333Y-73437761D01*
X119768952Y-73342523D01*
X119816571Y-73294904D01*
X119911809Y-73247285D01*
X120149904Y-73247285D01*
X120245142Y-73294904D01*
X120292761Y-73342523D01*
X120340380Y-73437761D01*
X120340380Y-73723476D01*
X120292761Y-73818714D01*
X120245142Y-73866333D01*
X119435619Y-75977714D02*
X119388000Y-75930095D01*
X119340380Y-75834857D01*
X119340380Y-75596761D01*
X119388000Y-75501523D01*
X119435619Y-75453904D01*
X119530857Y-75406285D01*
X119626095Y-75406285D01*
X119768952Y-75453904D01*
X120340380Y-76025333D01*
X120340380Y-75406285D01*
X120340380Y-77565285D02*
X120340380Y-78136714D01*
X120340380Y-77851000D02*
X119340380Y-77851000D01*
X119483238Y-77946238D01*
X119578476Y-78041476D01*
X119626095Y-78136714D01*
D12*
X143448000Y-112903000D02*
G75*
G03*
X143448000Y-112903000I-700000J0D01*
G01*
X120461000Y-112395000D02*
G75*
G03*
X120461000Y-112395000I-700000J0D01*
G01*
X123826500Y-90233500D02*
G75*
G03*
X123826500Y-90233500I-700000J0D01*
G01*
X133987000Y-85957000D02*
X128237000Y-85957000D01*
X133987000Y-89557000D02*
X133987000Y-85957000D01*
X128237000Y-89557000D02*
X133987000Y-89557000D01*
X138390000Y-87997000D02*
X139740000Y-87997000D01*
X138390000Y-86247000D02*
X139740000Y-86247000D01*
X198680000Y-77020922D02*
X198680000Y-77538078D01*
X200100000Y-77020922D02*
X200100000Y-77538078D01*
X204694500Y-72192000D02*
X202009500Y-72192000D01*
X204694500Y-74112000D02*
X204694500Y-72192000D01*
X202009500Y-74112000D02*
X204694500Y-74112000D01*
X146981500Y-61856000D02*
X147681500Y-61856000D01*
X146981500Y-62856000D02*
X147681500Y-62856000D01*
X146981500Y-63856000D02*
X147681500Y-63856000D01*
X144781500Y-63856000D02*
X144081500Y-63856000D01*
X144781500Y-62856000D02*
X144081500Y-62856000D01*
X144781500Y-61856000D02*
X144081500Y-61856000D01*
X146981500Y-64356000D02*
X146981500Y-61356000D01*
X144781500Y-64356000D02*
X146981500Y-64356000D01*
X144781500Y-61356000D02*
X144781500Y-64356000D01*
X146981500Y-61356000D02*
X144781500Y-61356000D01*
X150381500Y-69056000D02*
X150381500Y-65156000D01*
X148481500Y-69056000D02*
X150381500Y-69056000D01*
X148481500Y-65156000D02*
X148481500Y-69056000D01*
X150381500Y-65156000D02*
X148481500Y-65156000D01*
X148181500Y-69056000D02*
X148181500Y-65156000D01*
X146281500Y-69056000D02*
X148181500Y-69056000D01*
X146281500Y-65156000D02*
X146281500Y-69056000D01*
X148181500Y-65156000D02*
X146281500Y-65156000D01*
X144181500Y-72656000D02*
X144181500Y-71456000D01*
X141381500Y-72656000D02*
X144181500Y-72656000D01*
X141381500Y-71456000D02*
X141381500Y-72656000D01*
X144181500Y-71456000D02*
X141381500Y-71456000D01*
X145369948Y-67056000D02*
G75*
G03*
X145369948Y-67056000I-2594224J0D01*
G01*
X139431500Y-60806000D02*
X148681500Y-60806000D01*
X137331500Y-71206000D02*
X137331500Y-62906000D01*
X148731500Y-73306000D02*
X139431500Y-73306000D01*
X150831500Y-62906000D02*
X150831500Y-71206000D01*
X158317000Y-62552078D02*
X158317000Y-62034922D01*
X156897000Y-62552078D02*
X156897000Y-62034922D01*
X158567000Y-67598000D02*
X158567000Y-64913000D01*
X156647000Y-67598000D02*
X158567000Y-67598000D01*
X156647000Y-64913000D02*
X156647000Y-67598000D01*
X161088000Y-88704922D02*
X161088000Y-89222078D01*
X162508000Y-88704922D02*
X162508000Y-89222078D01*
X162758000Y-94331500D02*
X162758000Y-91646500D01*
X160838000Y-94331500D02*
X162758000Y-94331500D01*
X160838000Y-91646500D02*
X160838000Y-94331500D01*
X121534422Y-104723000D02*
X122051578Y-104723000D01*
X121534422Y-103303000D02*
X122051578Y-103303000D01*
X119765578Y-105525500D02*
X119248422Y-105525500D01*
X119765578Y-106945500D02*
X119248422Y-106945500D01*
X128140000Y-82788000D02*
X128140000Y-80788000D01*
X130940000Y-82788000D02*
X128140000Y-82788000D01*
X130940000Y-80788000D02*
X130940000Y-82788000D01*
X128140000Y-80788000D02*
X130940000Y-80788000D01*
X139447500Y-58674000D02*
G75*
G03*
X139447500Y-58674000I-700000J0D01*
G01*
X131827500Y-60896500D02*
G75*
G03*
X131827500Y-60896500I-700000J0D01*
G01*
X117349500Y-107061000D02*
G75*
G03*
X117349500Y-107061000I-700000J0D01*
G01*
X117286000Y-110998000D02*
G75*
G03*
X117286000Y-110998000I-700000J0D01*
G01*
X168721000Y-59436000D02*
G75*
G03*
X168721000Y-59436000I-700000J0D01*
G01*
X168721000Y-57340500D02*
G75*
G03*
X168721000Y-57340500I-700000J0D01*
G01*
X154306500Y-97599500D02*
G75*
G03*
X154306500Y-97599500I-700000J0D01*
G01*
X157418000Y-97599500D02*
G75*
G03*
X157418000Y-97599500I-700000J0D01*
G01*
D14*
G36*
X144877642Y-83902011D02*
G01*
X144909440Y-83815454D01*
X144963079Y-83695822D01*
X144969105Y-83682952D01*
X145017930Y-83570901D01*
X145063617Y-83452586D01*
X145095402Y-83356450D01*
X145127623Y-83265320D01*
X145159285Y-83216945D01*
X145174409Y-83210400D01*
X145201580Y-83232416D01*
X145211415Y-83291049D01*
X145203940Y-83375173D01*
X145179186Y-83473667D01*
X145173700Y-83489800D01*
X145143158Y-83602279D01*
X145142629Y-83698917D01*
X145173647Y-83801466D01*
X145199662Y-83858100D01*
X145249711Y-83987637D01*
X145259933Y-84090533D01*
X145230290Y-84164814D01*
X145206148Y-84186860D01*
X145118133Y-84222161D01*
X145103004Y-84220049D01*
X145103004Y-84046025D01*
X145097675Y-84020574D01*
X145095866Y-84015755D01*
X145075745Y-83984652D01*
X145064305Y-83984428D01*
X145067154Y-84011298D01*
X145081648Y-84029974D01*
X145103004Y-84046025D01*
X145103004Y-84220049D01*
X145030258Y-84209889D01*
X144949818Y-84152764D01*
X144892087Y-84069723D01*
X144871087Y-84018497D01*
X144865565Y-83966143D01*
X144877642Y-83902011D01*
G37*
X144877642Y-83902011D02*
X144909440Y-83815454D01*
X144963079Y-83695822D01*
X144969105Y-83682952D01*
X145017930Y-83570901D01*
X145063617Y-83452586D01*
X145095402Y-83356450D01*
X145127623Y-83265320D01*
X145159285Y-83216945D01*
X145174409Y-83210400D01*
X145201580Y-83232416D01*
X145211415Y-83291049D01*
X145203940Y-83375173D01*
X145179186Y-83473667D01*
X145173700Y-83489800D01*
X145143158Y-83602279D01*
X145142629Y-83698917D01*
X145173647Y-83801466D01*
X145199662Y-83858100D01*
X145249711Y-83987637D01*
X145259933Y-84090533D01*
X145230290Y-84164814D01*
X145206148Y-84186860D01*
X145118133Y-84222161D01*
X145103004Y-84220049D01*
X145103004Y-84046025D01*
X145097675Y-84020574D01*
X145095866Y-84015755D01*
X145075745Y-83984652D01*
X145064305Y-83984428D01*
X145067154Y-84011298D01*
X145081648Y-84029974D01*
X145103004Y-84046025D01*
X145103004Y-84220049D01*
X145030258Y-84209889D01*
X144949818Y-84152764D01*
X144892087Y-84069723D01*
X144871087Y-84018497D01*
X144865565Y-83966143D01*
X144877642Y-83902011D01*
G36*
X145156327Y-88321110D02*
G01*
X145161532Y-88283112D01*
X145191948Y-88139636D01*
X145239495Y-88039464D01*
X145311187Y-87976116D01*
X145414036Y-87943111D01*
X145539440Y-87933993D01*
X145621856Y-87925547D01*
X145689404Y-87905313D01*
X145705604Y-87895893D01*
X145785984Y-87860996D01*
X145866872Y-87870446D01*
X145942221Y-87918217D01*
X146005987Y-87998279D01*
X146052125Y-88104606D01*
X146074587Y-88231170D01*
X146075794Y-88265000D01*
X146084714Y-88333969D01*
X146107457Y-88429541D01*
X146139112Y-88531100D01*
X146139325Y-88531700D01*
X146175191Y-88635642D01*
X146194400Y-88704088D01*
X146197738Y-88749253D01*
X146185991Y-88783352D01*
X146159945Y-88818600D01*
X146157950Y-88821012D01*
X146128940Y-88846746D01*
X146084685Y-88865826D01*
X146014910Y-88880896D01*
X145909339Y-88894602D01*
X145846800Y-88901089D01*
X145714381Y-88915349D01*
X145581049Y-88931604D01*
X145467274Y-88947284D01*
X145422889Y-88954314D01*
X145414630Y-88955389D01*
X145414630Y-88752921D01*
X145624365Y-88734663D01*
X145769710Y-88717608D01*
X145866116Y-88695524D01*
X145915274Y-88667541D01*
X145918875Y-88632785D01*
X145888687Y-88598344D01*
X145843889Y-88577901D01*
X145770675Y-88559392D01*
X145756469Y-88557047D01*
X145756469Y-88440588D01*
X145820612Y-88430550D01*
X145868575Y-88386921D01*
X145893925Y-88318254D01*
X145890228Y-88233099D01*
X145865475Y-88165406D01*
X145825270Y-88108544D01*
X145780279Y-88098196D01*
X145720590Y-88132961D01*
X145708374Y-88143165D01*
X145657161Y-88211286D01*
X145636581Y-88290773D01*
X145648290Y-88364577D01*
X145682581Y-88408486D01*
X145756469Y-88440588D01*
X145756469Y-88557047D01*
X145735120Y-88553521D01*
X145614223Y-88522758D01*
X145533835Y-88466237D01*
X145488011Y-88378759D01*
X145477067Y-88327798D01*
X145460244Y-88249104D01*
X145438198Y-88218866D01*
X145406904Y-88234758D01*
X145378340Y-88270652D01*
X145350076Y-88344518D01*
X145340076Y-88446592D01*
X145348421Y-88557649D01*
X145375191Y-88658464D01*
X145376715Y-88662176D01*
X145414630Y-88752921D01*
X145414630Y-88955389D01*
X145335844Y-88965649D01*
X145267368Y-88968221D01*
X145236148Y-88962850D01*
X145189047Y-88905989D01*
X145156798Y-88806859D01*
X145140118Y-88671986D01*
X145139722Y-88507895D01*
X145156327Y-88321110D01*
G37*
X145156327Y-88321110D02*
X145161532Y-88283112D01*
X145191948Y-88139636D01*
X145239495Y-88039464D01*
X145311187Y-87976116D01*
X145414036Y-87943111D01*
X145539440Y-87933993D01*
X145621856Y-87925547D01*
X145689404Y-87905313D01*
X145705604Y-87895893D01*
X145785984Y-87860996D01*
X145866872Y-87870446D01*
X145942221Y-87918217D01*
X146005987Y-87998279D01*
X146052125Y-88104606D01*
X146074587Y-88231170D01*
X146075794Y-88265000D01*
X146084714Y-88333969D01*
X146107457Y-88429541D01*
X146139112Y-88531100D01*
X146139325Y-88531700D01*
X146175191Y-88635642D01*
X146194400Y-88704088D01*
X146197738Y-88749253D01*
X146185991Y-88783352D01*
X146159945Y-88818600D01*
X146157950Y-88821012D01*
X146128940Y-88846746D01*
X146084685Y-88865826D01*
X146014910Y-88880896D01*
X145909339Y-88894602D01*
X145846800Y-88901089D01*
X145714381Y-88915349D01*
X145581049Y-88931604D01*
X145467274Y-88947284D01*
X145422889Y-88954314D01*
X145414630Y-88955389D01*
X145414630Y-88752921D01*
X145624365Y-88734663D01*
X145769710Y-88717608D01*
X145866116Y-88695524D01*
X145915274Y-88667541D01*
X145918875Y-88632785D01*
X145888687Y-88598344D01*
X145843889Y-88577901D01*
X145770675Y-88559392D01*
X145756469Y-88557047D01*
X145756469Y-88440588D01*
X145820612Y-88430550D01*
X145868575Y-88386921D01*
X145893925Y-88318254D01*
X145890228Y-88233099D01*
X145865475Y-88165406D01*
X145825270Y-88108544D01*
X145780279Y-88098196D01*
X145720590Y-88132961D01*
X145708374Y-88143165D01*
X145657161Y-88211286D01*
X145636581Y-88290773D01*
X145648290Y-88364577D01*
X145682581Y-88408486D01*
X145756469Y-88440588D01*
X145756469Y-88557047D01*
X145735120Y-88553521D01*
X145614223Y-88522758D01*
X145533835Y-88466237D01*
X145488011Y-88378759D01*
X145477067Y-88327798D01*
X145460244Y-88249104D01*
X145438198Y-88218866D01*
X145406904Y-88234758D01*
X145378340Y-88270652D01*
X145350076Y-88344518D01*
X145340076Y-88446592D01*
X145348421Y-88557649D01*
X145375191Y-88658464D01*
X145376715Y-88662176D01*
X145414630Y-88752921D01*
X145414630Y-88955389D01*
X145335844Y-88965649D01*
X145267368Y-88968221D01*
X145236148Y-88962850D01*
X145189047Y-88905989D01*
X145156798Y-88806859D01*
X145140118Y-88671986D01*
X145139722Y-88507895D01*
X145156327Y-88321110D01*
G36*
X145765950Y-93345000D02*
G01*
X145773034Y-93281504D01*
X145781629Y-93194462D01*
X145785286Y-93154500D01*
X145806305Y-92935164D01*
X145827419Y-92758959D01*
X145850610Y-92618255D01*
X145877862Y-92505420D01*
X145911158Y-92412820D01*
X145952483Y-92332823D01*
X146003819Y-92257799D01*
X146025543Y-92230026D01*
X146118965Y-92142318D01*
X146248091Y-92070184D01*
X146418817Y-92010672D01*
X146509409Y-91987543D01*
X146601297Y-91968991D01*
X146677920Y-91963219D01*
X146761522Y-91970214D01*
X146860748Y-91987346D01*
X147005015Y-92011723D01*
X147103065Y-92019300D01*
X147157218Y-92008276D01*
X147169792Y-91976847D01*
X147143107Y-91923210D01*
X147079482Y-91845564D01*
X147064423Y-91829048D01*
X147000618Y-91751321D01*
X146971704Y-91690961D01*
X146969173Y-91648625D01*
X146988389Y-91589877D01*
X147025690Y-91577343D01*
X147079028Y-91610597D01*
X147143089Y-91684756D01*
X147198091Y-91759259D01*
X147245669Y-91823533D01*
X147266860Y-91852041D01*
X147291543Y-91904561D01*
X147314374Y-91984671D01*
X147323432Y-92031599D01*
X147347935Y-92122302D01*
X147389365Y-92216714D01*
X147439406Y-92300052D01*
X147489738Y-92357534D01*
X147515633Y-92373152D01*
X147552955Y-92363363D01*
X147591128Y-92330712D01*
X147642052Y-92290985D01*
X147684697Y-92278200D01*
X147713122Y-92283346D01*
X147723565Y-92307278D01*
X147719057Y-92362741D01*
X147713376Y-92398850D01*
X147703060Y-92499100D01*
X147698689Y-92626801D01*
X147699845Y-92766252D01*
X147706113Y-92901749D01*
X147717076Y-93017589D01*
X147731869Y-93096544D01*
X147746032Y-93168896D01*
X147734122Y-93217684D01*
X147689562Y-93248276D01*
X147605779Y-93266039D01*
X147514324Y-93274100D01*
X147396549Y-93283671D01*
X147324390Y-93296675D01*
X147292660Y-93316947D01*
X147296176Y-93348324D01*
X147329754Y-93394640D01*
X147338197Y-93404410D01*
X147392321Y-93472345D01*
X147455325Y-93560004D01*
X147493205Y-93616894D01*
X147564327Y-93710896D01*
X147634436Y-93764834D01*
X147664576Y-93777354D01*
X147752528Y-93825331D01*
X147810573Y-93895299D01*
X147828000Y-93963006D01*
X147819848Y-93995302D01*
X147785921Y-93998469D01*
X147758150Y-93991871D01*
X147665287Y-93972844D01*
X147606183Y-93978676D01*
X147569462Y-94010915D01*
X147565194Y-94018100D01*
X147516841Y-94104572D01*
X147486015Y-94153722D01*
X147465372Y-94172520D01*
X147447568Y-94167938D01*
X147427295Y-94148982D01*
X147403295Y-94112517D01*
X147400617Y-94061369D01*
X147411960Y-93999997D01*
X147423232Y-93848252D01*
X147385313Y-93709001D01*
X147298294Y-93582416D01*
X147162267Y-93468671D01*
X147114475Y-93438592D01*
X146952625Y-93342528D01*
X146751703Y-93362614D01*
X146751703Y-93167200D01*
X146858068Y-93163199D01*
X146982576Y-93152371D01*
X147113540Y-93136478D01*
X147239269Y-93117284D01*
X147348075Y-93096552D01*
X147428268Y-93076045D01*
X147466050Y-93059456D01*
X147484978Y-93018709D01*
X147495993Y-92940777D01*
X147497800Y-92885174D01*
X147496051Y-92801150D01*
X147487195Y-92754376D01*
X147465819Y-92731331D01*
X147431571Y-92719746D01*
X147368625Y-92713348D01*
X147271361Y-92713700D01*
X147155642Y-92719624D01*
X147037326Y-92729941D01*
X146932276Y-92743473D01*
X146856352Y-92759043D01*
X146842818Y-92763475D01*
X146730897Y-92831850D01*
X146636440Y-92942416D01*
X146606328Y-92994739D01*
X146568553Y-93074936D01*
X146558800Y-93125507D01*
X146582778Y-93153226D01*
X146646197Y-93164865D01*
X146751703Y-93167200D01*
X146751703Y-93362614D01*
X146685042Y-93369279D01*
X146544866Y-93381346D01*
X146396232Y-93390997D01*
X146263173Y-93396779D01*
X146214679Y-93397733D01*
X146171761Y-93398261D01*
X146171761Y-93197901D01*
X146249822Y-93192987D01*
X146305864Y-93160184D01*
X146352419Y-93095090D01*
X146364711Y-93071950D01*
X146476198Y-92884253D01*
X146598652Y-92742825D01*
X146739055Y-92643293D01*
X146904389Y-92581282D01*
X147101637Y-92552418D01*
X147199350Y-92549099D01*
X147290459Y-92543941D01*
X147335895Y-92526259D01*
X147337615Y-92490347D01*
X147297572Y-92430500D01*
X147256287Y-92382910D01*
X147121017Y-92270359D01*
X146956184Y-92197502D01*
X146765941Y-92166040D01*
X146723100Y-92164851D01*
X146530107Y-92182733D01*
X146368029Y-92239300D01*
X146235818Y-92335581D01*
X146132429Y-92472608D01*
X146056813Y-92651412D01*
X146008578Y-92868631D01*
X145991812Y-92995809D01*
X145987546Y-93081988D01*
X145997176Y-93135742D01*
X146022095Y-93165643D01*
X146059151Y-93179332D01*
X146171761Y-93197901D01*
X146171761Y-93398261D01*
X146096994Y-93399182D01*
X145979970Y-93401378D01*
X145888113Y-93403855D01*
X145884900Y-93403968D01*
X145809987Y-93404988D01*
X145773625Y-93397016D01*
X145763650Y-93374022D01*
X145765950Y-93345000D01*
G37*
X145765950Y-93345000D02*
X145773034Y-93281504D01*
X145781629Y-93194462D01*
X145785286Y-93154500D01*
X145806305Y-92935164D01*
X145827419Y-92758959D01*
X145850610Y-92618255D01*
X145877862Y-92505420D01*
X145911158Y-92412820D01*
X145952483Y-92332823D01*
X146003819Y-92257799D01*
X146025543Y-92230026D01*
X146118965Y-92142318D01*
X146248091Y-92070184D01*
X146418817Y-92010672D01*
X146509409Y-91987543D01*
X146601297Y-91968991D01*
X146677920Y-91963219D01*
X146761522Y-91970214D01*
X146860748Y-91987346D01*
X147005015Y-92011723D01*
X147103065Y-92019300D01*
X147157218Y-92008276D01*
X147169792Y-91976847D01*
X147143107Y-91923210D01*
X147079482Y-91845564D01*
X147064423Y-91829048D01*
X147000618Y-91751321D01*
X146971704Y-91690961D01*
X146969173Y-91648625D01*
X146988389Y-91589877D01*
X147025690Y-91577343D01*
X147079028Y-91610597D01*
X147143089Y-91684756D01*
X147198091Y-91759259D01*
X147245669Y-91823533D01*
X147266860Y-91852041D01*
X147291543Y-91904561D01*
X147314374Y-91984671D01*
X147323432Y-92031599D01*
X147347935Y-92122302D01*
X147389365Y-92216714D01*
X147439406Y-92300052D01*
X147489738Y-92357534D01*
X147515633Y-92373152D01*
X147552955Y-92363363D01*
X147591128Y-92330712D01*
X147642052Y-92290985D01*
X147684697Y-92278200D01*
X147713122Y-92283346D01*
X147723565Y-92307278D01*
X147719057Y-92362741D01*
X147713376Y-92398850D01*
X147703060Y-92499100D01*
X147698689Y-92626801D01*
X147699845Y-92766252D01*
X147706113Y-92901749D01*
X147717076Y-93017589D01*
X147731869Y-93096544D01*
X147746032Y-93168896D01*
X147734122Y-93217684D01*
X147689562Y-93248276D01*
X147605779Y-93266039D01*
X147514324Y-93274100D01*
X147396549Y-93283671D01*
X147324390Y-93296675D01*
X147292660Y-93316947D01*
X147296176Y-93348324D01*
X147329754Y-93394640D01*
X147338197Y-93404410D01*
X147392321Y-93472345D01*
X147455325Y-93560004D01*
X147493205Y-93616894D01*
X147564327Y-93710896D01*
X147634436Y-93764834D01*
X147664576Y-93777354D01*
X147752528Y-93825331D01*
X147810573Y-93895299D01*
X147828000Y-93963006D01*
X147819848Y-93995302D01*
X147785921Y-93998469D01*
X147758150Y-93991871D01*
X147665287Y-93972844D01*
X147606183Y-93978676D01*
X147569462Y-94010915D01*
X147565194Y-94018100D01*
X147516841Y-94104572D01*
X147486015Y-94153722D01*
X147465372Y-94172520D01*
X147447568Y-94167938D01*
X147427295Y-94148982D01*
X147403295Y-94112517D01*
X147400617Y-94061369D01*
X147411960Y-93999997D01*
X147423232Y-93848252D01*
X147385313Y-93709001D01*
X147298294Y-93582416D01*
X147162267Y-93468671D01*
X147114475Y-93438592D01*
X146952625Y-93342528D01*
X146751703Y-93362614D01*
X146751703Y-93167200D01*
X146858068Y-93163199D01*
X146982576Y-93152371D01*
X147113540Y-93136478D01*
X147239269Y-93117284D01*
X147348075Y-93096552D01*
X147428268Y-93076045D01*
X147466050Y-93059456D01*
X147484978Y-93018709D01*
X147495993Y-92940777D01*
X147497800Y-92885174D01*
X147496051Y-92801150D01*
X147487195Y-92754376D01*
X147465819Y-92731331D01*
X147431571Y-92719746D01*
X147368625Y-92713348D01*
X147271361Y-92713700D01*
X147155642Y-92719624D01*
X147037326Y-92729941D01*
X146932276Y-92743473D01*
X146856352Y-92759043D01*
X146842818Y-92763475D01*
X146730897Y-92831850D01*
X146636440Y-92942416D01*
X146606328Y-92994739D01*
X146568553Y-93074936D01*
X146558800Y-93125507D01*
X146582778Y-93153226D01*
X146646197Y-93164865D01*
X146751703Y-93167200D01*
X146751703Y-93362614D01*
X146685042Y-93369279D01*
X146544866Y-93381346D01*
X146396232Y-93390997D01*
X146263173Y-93396779D01*
X146214679Y-93397733D01*
X146171761Y-93398261D01*
X146171761Y-93197901D01*
X146249822Y-93192987D01*
X146305864Y-93160184D01*
X146352419Y-93095090D01*
X146364711Y-93071950D01*
X146476198Y-92884253D01*
X146598652Y-92742825D01*
X146739055Y-92643293D01*
X146904389Y-92581282D01*
X147101637Y-92552418D01*
X147199350Y-92549099D01*
X147290459Y-92543941D01*
X147335895Y-92526259D01*
X147337615Y-92490347D01*
X147297572Y-92430500D01*
X147256287Y-92382910D01*
X147121017Y-92270359D01*
X146956184Y-92197502D01*
X146765941Y-92166040D01*
X146723100Y-92164851D01*
X146530107Y-92182733D01*
X146368029Y-92239300D01*
X146235818Y-92335581D01*
X146132429Y-92472608D01*
X146056813Y-92651412D01*
X146008578Y-92868631D01*
X145991812Y-92995809D01*
X145987546Y-93081988D01*
X145997176Y-93135742D01*
X146022095Y-93165643D01*
X146059151Y-93179332D01*
X146171761Y-93197901D01*
X146171761Y-93398261D01*
X146096994Y-93399182D01*
X145979970Y-93401378D01*
X145888113Y-93403855D01*
X145884900Y-93403968D01*
X145809987Y-93404988D01*
X145773625Y-93397016D01*
X145763650Y-93374022D01*
X145765950Y-93345000D01*
G36*
X144158329Y-81113487D02*
G01*
X144181767Y-81040517D01*
X144198405Y-81000173D01*
X144250436Y-80903933D01*
X144316168Y-80834533D01*
X144402622Y-80789561D01*
X144516821Y-80766604D01*
X144665787Y-80763247D01*
X144849550Y-80776377D01*
X144978522Y-80788243D01*
X145073467Y-80793055D01*
X145150797Y-80789841D01*
X145226919Y-80777632D01*
X145318243Y-80755459D01*
X145350971Y-80746742D01*
X145501869Y-80712202D01*
X145632302Y-80698808D01*
X145755981Y-80708313D01*
X145886617Y-80742469D01*
X146037920Y-80803028D01*
X146131244Y-80846460D01*
X146271414Y-80917455D01*
X146382129Y-80984151D01*
X146481830Y-81059184D01*
X146588955Y-81155194D01*
X146607600Y-81172947D01*
X146812212Y-81368900D01*
X146812106Y-81551236D01*
X146815417Y-81666131D01*
X146831196Y-81741471D01*
X146867968Y-81784669D01*
X146934258Y-81803136D01*
X147038593Y-81804287D01*
X147099572Y-81801169D01*
X147212564Y-81794904D01*
X147355841Y-81787529D01*
X147508930Y-81780075D01*
X147619982Y-81774960D01*
X147779180Y-81764349D01*
X147956141Y-81747014D01*
X148124914Y-81725725D01*
X148216882Y-81711262D01*
X148410243Y-81682752D01*
X148589610Y-81666463D01*
X148745730Y-81662693D01*
X148869350Y-81671742D01*
X148937596Y-81688016D01*
X149049024Y-81755411D01*
X149137687Y-81865733D01*
X149202246Y-82011853D01*
X149257739Y-82139595D01*
X149349414Y-82297107D01*
X149468310Y-82472261D01*
X149571252Y-82621671D01*
X149643663Y-82739988D01*
X149689225Y-82833670D01*
X149708499Y-82893822D01*
X149727775Y-82975492D01*
X149754848Y-83087503D01*
X149785125Y-83210930D01*
X149798753Y-83265882D01*
X149827721Y-83382944D01*
X149845715Y-83464982D01*
X149853477Y-83526405D01*
X149851747Y-83581621D01*
X149841269Y-83645036D01*
X149822783Y-83731059D01*
X149822718Y-83731360D01*
X149793240Y-83836726D01*
X149747814Y-83963596D01*
X149691582Y-84100772D01*
X149629687Y-84237054D01*
X149567270Y-84361244D01*
X149509474Y-84462142D01*
X149461440Y-84528549D01*
X149452549Y-84537550D01*
X149389948Y-84582771D01*
X149330715Y-84606666D01*
X149319849Y-84607765D01*
X149280011Y-84608152D01*
X149196663Y-84609057D01*
X149077088Y-84610398D01*
X148928572Y-84612092D01*
X148758401Y-84614056D01*
X148577300Y-84616169D01*
X148387740Y-84617593D01*
X148207919Y-84617452D01*
X148046208Y-84615868D01*
X147910976Y-84612963D01*
X147810592Y-84608859D01*
X147756784Y-84604214D01*
X147681137Y-84596528D01*
X147568607Y-84589524D01*
X147433111Y-84583881D01*
X147288566Y-84580277D01*
X147255712Y-84579810D01*
X147090613Y-84578913D01*
X146968495Y-84583177D01*
X146881560Y-84596210D01*
X146822013Y-84621618D01*
X146782058Y-84663008D01*
X146753899Y-84723985D01*
X146729739Y-84808156D01*
X146725452Y-84825100D01*
X146697854Y-84923918D01*
X146668316Y-85012703D01*
X146645731Y-85066859D01*
X146624493Y-85135967D01*
X146611361Y-85236469D01*
X146608551Y-85310989D01*
X146591553Y-85469205D01*
X146544725Y-85616917D01*
X146473628Y-85745006D01*
X146383823Y-85844351D01*
X146280871Y-85905832D01*
X146238748Y-85917505D01*
X146228447Y-85918220D01*
X146228447Y-85726662D01*
X146289534Y-85665575D01*
X146351306Y-85572742D01*
X146391363Y-85445600D01*
X146405458Y-85300130D01*
X146414845Y-85217969D01*
X146439038Y-85114699D01*
X146465409Y-85033430D01*
X146500634Y-84927945D01*
X146529773Y-84820202D01*
X146543147Y-84753571D01*
X146587085Y-84618199D01*
X146671955Y-84510091D01*
X146767863Y-84446867D01*
X146804104Y-84433253D01*
X146851494Y-84423639D01*
X146917419Y-84417700D01*
X147009268Y-84415113D01*
X147134429Y-84415555D01*
X147300292Y-84418701D01*
X147371408Y-84420434D01*
X147676144Y-84427193D01*
X147967925Y-84431812D01*
X148242290Y-84434334D01*
X148494779Y-84434798D01*
X148720932Y-84433247D01*
X148916290Y-84429722D01*
X149076393Y-84424264D01*
X149196781Y-84416913D01*
X149272994Y-84407713D01*
X149292529Y-84402669D01*
X149338655Y-84366187D01*
X149391644Y-84287346D01*
X149444868Y-84182416D01*
X149534968Y-83980647D01*
X149599184Y-83814812D01*
X149638987Y-83678040D01*
X149655848Y-83563462D01*
X149651239Y-83464206D01*
X149626630Y-83373401D01*
X149621084Y-83359552D01*
X149600465Y-83295228D01*
X149576508Y-83198123D01*
X149553376Y-83085698D01*
X149546132Y-83045300D01*
X149524671Y-82931302D01*
X149503892Y-82854613D01*
X149478632Y-82802077D01*
X149443732Y-82760541D01*
X149429047Y-82746850D01*
X149371662Y-82700569D01*
X149327814Y-82680527D01*
X149295753Y-82690678D01*
X149273734Y-82734974D01*
X149260009Y-82817369D01*
X149252831Y-82941816D01*
X149250453Y-83112270D01*
X149250400Y-83151087D01*
X149249021Y-83293204D01*
X149244016Y-83395654D01*
X149234086Y-83469516D01*
X149217928Y-83525869D01*
X149202302Y-83560662D01*
X149129660Y-83670041D01*
X149035525Y-83750065D01*
X148914842Y-83802301D01*
X148762552Y-83828316D01*
X148573599Y-83829678D01*
X148386800Y-83813386D01*
X148174345Y-83796399D01*
X147991943Y-83798339D01*
X147942300Y-83802974D01*
X147857590Y-83808905D01*
X147733677Y-83812241D01*
X147581048Y-83813195D01*
X147410194Y-83811986D01*
X147231604Y-83808827D01*
X147055767Y-83803936D01*
X146893174Y-83797529D01*
X146754312Y-83789820D01*
X146649673Y-83781027D01*
X146608800Y-83775516D01*
X146490327Y-83762617D01*
X146412487Y-83772970D01*
X146370337Y-83807383D01*
X146366592Y-83815136D01*
X146346653Y-83881470D01*
X146324404Y-83984519D01*
X146302009Y-84110398D01*
X146281632Y-84245217D01*
X146265437Y-84375092D01*
X146255589Y-84486134D01*
X146253617Y-84540062D01*
X146243115Y-84689333D01*
X146209026Y-84801910D01*
X146146244Y-84888421D01*
X146053044Y-84957517D01*
X145935700Y-85026500D01*
X145447744Y-85026500D01*
X145447744Y-84829030D01*
X145590664Y-84826899D01*
X145710808Y-84822363D01*
X145798979Y-84815282D01*
X145840371Y-84807672D01*
X145931493Y-84755949D01*
X145984627Y-84675114D01*
X145998038Y-84571639D01*
X145969995Y-84451992D01*
X145948400Y-84404200D01*
X145912078Y-84327315D01*
X145903040Y-84276549D01*
X145924123Y-84233491D01*
X145978163Y-84179729D01*
X145983773Y-84174617D01*
X146037537Y-84117073D01*
X146068149Y-84055036D01*
X146085712Y-83966824D01*
X146087631Y-83951751D01*
X146117744Y-83796897D01*
X146168086Y-83686130D01*
X146244176Y-83615057D01*
X146351532Y-83579286D01*
X146495673Y-83574427D01*
X146555740Y-83579206D01*
X146636451Y-83584808D01*
X146755361Y-83589593D01*
X146906156Y-83593565D01*
X147082521Y-83596726D01*
X147278139Y-83599079D01*
X147486697Y-83600627D01*
X147701880Y-83601371D01*
X147917371Y-83601316D01*
X148126857Y-83600463D01*
X148324021Y-83598816D01*
X148502549Y-83596376D01*
X148656126Y-83593148D01*
X148778437Y-83589133D01*
X148863167Y-83584334D01*
X148904000Y-83578754D01*
X148905334Y-83578200D01*
X148939711Y-83556443D01*
X148966011Y-83525489D01*
X148985329Y-83478820D01*
X148998762Y-83409920D01*
X149007407Y-83312272D01*
X149012360Y-83179360D01*
X149014718Y-83004666D01*
X149015163Y-82925491D01*
X149015254Y-82739312D01*
X149013287Y-82594435D01*
X149008619Y-82481385D01*
X149000603Y-82390686D01*
X148988596Y-82312859D01*
X148971952Y-82238428D01*
X148967138Y-82219800D01*
X148925604Y-82087713D01*
X148878064Y-81998799D01*
X148816518Y-81945469D01*
X148732966Y-81920137D01*
X148645733Y-81914931D01*
X148557131Y-81917378D01*
X148436996Y-81924016D01*
X148304313Y-81933688D01*
X148228050Y-81940331D01*
X148076538Y-81954482D01*
X147903117Y-81970708D01*
X147736453Y-81986326D01*
X147672763Y-81992303D01*
X147497458Y-82011362D01*
X147351434Y-82032494D01*
X147240010Y-82054634D01*
X147168504Y-82076717D01*
X147142234Y-82097682D01*
X147142200Y-82098424D01*
X147152956Y-82134636D01*
X147179018Y-82191900D01*
X147180761Y-82195294D01*
X147242315Y-82264344D01*
X147329902Y-82293073D01*
X147408315Y-82285717D01*
X147465000Y-82281761D01*
X147552250Y-82286743D01*
X147647577Y-82299049D01*
X147778451Y-82328977D01*
X147891041Y-82370341D01*
X147978769Y-82418797D01*
X148035058Y-82469997D01*
X148053329Y-82519597D01*
X148035814Y-82555546D01*
X148005879Y-82571598D01*
X147962479Y-82561527D01*
X147909385Y-82533767D01*
X147835952Y-82502431D01*
X147734113Y-82472431D01*
X147626637Y-82450392D01*
X147526516Y-82436508D01*
X147463492Y-82433314D01*
X147424891Y-82441335D01*
X147399327Y-82459787D01*
X147377149Y-82490229D01*
X147382845Y-82523376D01*
X147416540Y-82573989D01*
X147462670Y-82651617D01*
X147467633Y-82702951D01*
X147431473Y-82726425D01*
X147412325Y-82727800D01*
X147326695Y-82702686D01*
X147244931Y-82628389D01*
X147168657Y-82506474D01*
X147156266Y-82480940D01*
X147100634Y-82383307D01*
X147026300Y-82280881D01*
X146943938Y-82185939D01*
X146864222Y-82110760D01*
X146797828Y-82067619D01*
X146796409Y-82067049D01*
X146745394Y-82059687D01*
X146661685Y-82060230D01*
X146562745Y-82068506D01*
X146555606Y-82069383D01*
X146466358Y-82076607D01*
X146466358Y-81876900D01*
X146522162Y-81853799D01*
X146574489Y-81793507D01*
X146616825Y-81709542D01*
X146642654Y-81615424D01*
X146645463Y-81524670D01*
X146643104Y-81510150D01*
X146619381Y-81445031D01*
X146580700Y-81377810D01*
X146516892Y-81305750D01*
X146441824Y-81245764D01*
X146371478Y-81209465D01*
X146341282Y-81203800D01*
X146313797Y-81211881D01*
X146307113Y-81244911D01*
X146314402Y-81299050D01*
X146347185Y-81483280D01*
X146372713Y-81623492D01*
X146392564Y-81725695D01*
X146408320Y-81795898D01*
X146421559Y-81840109D01*
X146433863Y-81864335D01*
X146446811Y-81874586D01*
X146461983Y-81876870D01*
X146466358Y-81876900D01*
X146466358Y-82076607D01*
X146408713Y-82081274D01*
X146298226Y-82071458D01*
X146218527Y-82034598D01*
X146164000Y-81965357D01*
X146129026Y-81858399D01*
X146107989Y-81708387D01*
X146102473Y-81638874D01*
X146076928Y-81423770D01*
X146033078Y-81253550D01*
X145971269Y-81129178D01*
X145891846Y-81051615D01*
X145891464Y-81051383D01*
X145864088Y-81037328D01*
X145829911Y-81026819D01*
X145782252Y-81019536D01*
X145714431Y-81015160D01*
X145619767Y-81013370D01*
X145491581Y-81013846D01*
X145323191Y-81016270D01*
X145203768Y-81018454D01*
X145027347Y-81022786D01*
X144863732Y-81028615D01*
X144721133Y-81035504D01*
X144607759Y-81043020D01*
X144531818Y-81050724D01*
X144506938Y-81055464D01*
X144456027Y-81078232D01*
X144423454Y-81114544D01*
X144408150Y-81171937D01*
X144409048Y-81257947D01*
X144425079Y-81380110D01*
X144444999Y-81492587D01*
X144470778Y-81648905D01*
X144492194Y-81822282D01*
X144509622Y-82018581D01*
X144523441Y-82243664D01*
X144534030Y-82503393D01*
X144541766Y-82803631D01*
X144545910Y-83058000D01*
X144548306Y-83237322D01*
X144550692Y-83408816D01*
X144552926Y-83562869D01*
X144554868Y-83689871D01*
X144556377Y-83780212D01*
X144556897Y-83807300D01*
X144551471Y-83908610D01*
X144534030Y-84035072D01*
X144507902Y-84163411D01*
X144503351Y-84181732D01*
X144469404Y-84359932D01*
X144462608Y-84516475D01*
X144482178Y-84645313D01*
X144527332Y-84740398D01*
X144581934Y-84788421D01*
X144626830Y-84799187D01*
X144713315Y-84808533D01*
X144832194Y-84816317D01*
X144974272Y-84822400D01*
X145130353Y-84826640D01*
X145291242Y-84828897D01*
X145447744Y-84829030D01*
X145447744Y-85026500D01*
X145271088Y-85026500D01*
X145092230Y-85027121D01*
X144930300Y-85028868D01*
X144792175Y-85031572D01*
X144684729Y-85035062D01*
X144614836Y-85039168D01*
X144589580Y-85043375D01*
X144586924Y-85079420D01*
X144617382Y-85139581D01*
X144675507Y-85214901D01*
X144726532Y-85268711D01*
X144793059Y-85337972D01*
X144871652Y-85425450D01*
X144929995Y-85493906D01*
X144999306Y-85568578D01*
X145069516Y-85629558D01*
X145120495Y-85661132D01*
X145176007Y-85673566D01*
X145276444Y-85685358D01*
X145415935Y-85696025D01*
X145588604Y-85705086D01*
X145713773Y-85709818D01*
X146228447Y-85726662D01*
X146228447Y-85918220D01*
X146176316Y-85921843D01*
X146078716Y-85920268D01*
X145961176Y-85913277D01*
X145877787Y-85905701D01*
X145725954Y-85892846D01*
X145555261Y-85883034D01*
X145394730Y-85877800D01*
X145341798Y-85877331D01*
X145195415Y-85873970D01*
X145086779Y-85859996D01*
X145003074Y-85829706D01*
X144931482Y-85777395D01*
X144859190Y-85697360D01*
X144818100Y-85644266D01*
X144748395Y-85556348D01*
X144661724Y-85453529D01*
X144576377Y-85357483D01*
X144573167Y-85353999D01*
X144464777Y-85233000D01*
X144387253Y-85134563D01*
X144334448Y-85046457D01*
X144300215Y-84956448D01*
X144278408Y-84852303D01*
X144264699Y-84740063D01*
X144250412Y-84583711D01*
X144244306Y-84462607D01*
X144247076Y-84361752D01*
X144259415Y-84266148D01*
X144282018Y-84160799D01*
X144293660Y-84114244D01*
X144317274Y-84014250D01*
X144328179Y-83936017D01*
X144327115Y-83858307D01*
X144314825Y-83759881D01*
X144307631Y-83714270D01*
X144291485Y-83605720D01*
X144279321Y-83507427D01*
X144273274Y-83437129D01*
X144272970Y-83426300D01*
X144272824Y-83382491D01*
X144272612Y-83294764D01*
X144272347Y-83169999D01*
X144272043Y-83015080D01*
X144271713Y-82836886D01*
X144271371Y-82642300D01*
X144271225Y-82555467D01*
X144270679Y-82331380D01*
X144269584Y-82151086D01*
X144267511Y-82007578D01*
X144264029Y-81893848D01*
X144258711Y-81802889D01*
X144251126Y-81727695D01*
X144240845Y-81661257D01*
X144227439Y-81596570D01*
X144210478Y-81526625D01*
X144207449Y-81514649D01*
X144173297Y-81372885D01*
X144153874Y-81267130D01*
X144148958Y-81184845D01*
X144158329Y-81113487D01*
G37*
X144158329Y-81113487D02*
X144181767Y-81040517D01*
X144198405Y-81000173D01*
X144250436Y-80903933D01*
X144316168Y-80834533D01*
X144402622Y-80789561D01*
X144516821Y-80766604D01*
X144665787Y-80763247D01*
X144849550Y-80776377D01*
X144978522Y-80788243D01*
X145073467Y-80793055D01*
X145150797Y-80789841D01*
X145226919Y-80777632D01*
X145318243Y-80755459D01*
X145350971Y-80746742D01*
X145501869Y-80712202D01*
X145632302Y-80698808D01*
X145755981Y-80708313D01*
X145886617Y-80742469D01*
X146037920Y-80803028D01*
X146131244Y-80846460D01*
X146271414Y-80917455D01*
X146382129Y-80984151D01*
X146481830Y-81059184D01*
X146588955Y-81155194D01*
X146607600Y-81172947D01*
X146812212Y-81368900D01*
X146812106Y-81551236D01*
X146815417Y-81666131D01*
X146831196Y-81741471D01*
X146867968Y-81784669D01*
X146934258Y-81803136D01*
X147038593Y-81804287D01*
X147099572Y-81801169D01*
X147212564Y-81794904D01*
X147355841Y-81787529D01*
X147508930Y-81780075D01*
X147619982Y-81774960D01*
X147779180Y-81764349D01*
X147956141Y-81747014D01*
X148124914Y-81725725D01*
X148216882Y-81711262D01*
X148410243Y-81682752D01*
X148589610Y-81666463D01*
X148745730Y-81662693D01*
X148869350Y-81671742D01*
X148937596Y-81688016D01*
X149049024Y-81755411D01*
X149137687Y-81865733D01*
X149202246Y-82011853D01*
X149257739Y-82139595D01*
X149349414Y-82297107D01*
X149468310Y-82472261D01*
X149571252Y-82621671D01*
X149643663Y-82739988D01*
X149689225Y-82833670D01*
X149708499Y-82893822D01*
X149727775Y-82975492D01*
X149754848Y-83087503D01*
X149785125Y-83210930D01*
X149798753Y-83265882D01*
X149827721Y-83382944D01*
X149845715Y-83464982D01*
X149853477Y-83526405D01*
X149851747Y-83581621D01*
X149841269Y-83645036D01*
X149822783Y-83731059D01*
X149822718Y-83731360D01*
X149793240Y-83836726D01*
X149747814Y-83963596D01*
X149691582Y-84100772D01*
X149629687Y-84237054D01*
X149567270Y-84361244D01*
X149509474Y-84462142D01*
X149461440Y-84528549D01*
X149452549Y-84537550D01*
X149389948Y-84582771D01*
X149330715Y-84606666D01*
X149319849Y-84607765D01*
X149280011Y-84608152D01*
X149196663Y-84609057D01*
X149077088Y-84610398D01*
X148928572Y-84612092D01*
X148758401Y-84614056D01*
X148577300Y-84616169D01*
X148387740Y-84617593D01*
X148207919Y-84617452D01*
X148046208Y-84615868D01*
X147910976Y-84612963D01*
X147810592Y-84608859D01*
X147756784Y-84604214D01*
X147681137Y-84596528D01*
X147568607Y-84589524D01*
X147433111Y-84583881D01*
X147288566Y-84580277D01*
X147255712Y-84579810D01*
X147090613Y-84578913D01*
X146968495Y-84583177D01*
X146881560Y-84596210D01*
X146822013Y-84621618D01*
X146782058Y-84663008D01*
X146753899Y-84723985D01*
X146729739Y-84808156D01*
X146725452Y-84825100D01*
X146697854Y-84923918D01*
X146668316Y-85012703D01*
X146645731Y-85066859D01*
X146624493Y-85135967D01*
X146611361Y-85236469D01*
X146608551Y-85310989D01*
X146591553Y-85469205D01*
X146544725Y-85616917D01*
X146473628Y-85745006D01*
X146383823Y-85844351D01*
X146280871Y-85905832D01*
X146238748Y-85917505D01*
X146228447Y-85918220D01*
X146228447Y-85726662D01*
X146289534Y-85665575D01*
X146351306Y-85572742D01*
X146391363Y-85445600D01*
X146405458Y-85300130D01*
X146414845Y-85217969D01*
X146439038Y-85114699D01*
X146465409Y-85033430D01*
X146500634Y-84927945D01*
X146529773Y-84820202D01*
X146543147Y-84753571D01*
X146587085Y-84618199D01*
X146671955Y-84510091D01*
X146767863Y-84446867D01*
X146804104Y-84433253D01*
X146851494Y-84423639D01*
X146917419Y-84417700D01*
X147009268Y-84415113D01*
X147134429Y-84415555D01*
X147300292Y-84418701D01*
X147371408Y-84420434D01*
X147676144Y-84427193D01*
X147967925Y-84431812D01*
X148242290Y-84434334D01*
X148494779Y-84434798D01*
X148720932Y-84433247D01*
X148916290Y-84429722D01*
X149076393Y-84424264D01*
X149196781Y-84416913D01*
X149272994Y-84407713D01*
X149292529Y-84402669D01*
X149338655Y-84366187D01*
X149391644Y-84287346D01*
X149444868Y-84182416D01*
X149534968Y-83980647D01*
X149599184Y-83814812D01*
X149638987Y-83678040D01*
X149655848Y-83563462D01*
X149651239Y-83464206D01*
X149626630Y-83373401D01*
X149621084Y-83359552D01*
X149600465Y-83295228D01*
X149576508Y-83198123D01*
X149553376Y-83085698D01*
X149546132Y-83045300D01*
X149524671Y-82931302D01*
X149503892Y-82854613D01*
X149478632Y-82802077D01*
X149443732Y-82760541D01*
X149429047Y-82746850D01*
X149371662Y-82700569D01*
X149327814Y-82680527D01*
X149295753Y-82690678D01*
X149273734Y-82734974D01*
X149260009Y-82817369D01*
X149252831Y-82941816D01*
X149250453Y-83112270D01*
X149250400Y-83151087D01*
X149249021Y-83293204D01*
X149244016Y-83395654D01*
X149234086Y-83469516D01*
X149217928Y-83525869D01*
X149202302Y-83560662D01*
X149129660Y-83670041D01*
X149035525Y-83750065D01*
X148914842Y-83802301D01*
X148762552Y-83828316D01*
X148573599Y-83829678D01*
X148386800Y-83813386D01*
X148174345Y-83796399D01*
X147991943Y-83798339D01*
X147942300Y-83802974D01*
X147857590Y-83808905D01*
X147733677Y-83812241D01*
X147581048Y-83813195D01*
X147410194Y-83811986D01*
X147231604Y-83808827D01*
X147055767Y-83803936D01*
X146893174Y-83797529D01*
X146754312Y-83789820D01*
X146649673Y-83781027D01*
X146608800Y-83775516D01*
X146490327Y-83762617D01*
X146412487Y-83772970D01*
X146370337Y-83807383D01*
X146366592Y-83815136D01*
X146346653Y-83881470D01*
X146324404Y-83984519D01*
X146302009Y-84110398D01*
X146281632Y-84245217D01*
X146265437Y-84375092D01*
X146255589Y-84486134D01*
X146253617Y-84540062D01*
X146243115Y-84689333D01*
X146209026Y-84801910D01*
X146146244Y-84888421D01*
X146053044Y-84957517D01*
X145935700Y-85026500D01*
X145447744Y-85026500D01*
X145447744Y-84829030D01*
X145590664Y-84826899D01*
X145710808Y-84822363D01*
X145798979Y-84815282D01*
X145840371Y-84807672D01*
X145931493Y-84755949D01*
X145984627Y-84675114D01*
X145998038Y-84571639D01*
X145969995Y-84451992D01*
X145948400Y-84404200D01*
X145912078Y-84327315D01*
X145903040Y-84276549D01*
X145924123Y-84233491D01*
X145978163Y-84179729D01*
X145983773Y-84174617D01*
X146037537Y-84117073D01*
X146068149Y-84055036D01*
X146085712Y-83966824D01*
X146087631Y-83951751D01*
X146117744Y-83796897D01*
X146168086Y-83686130D01*
X146244176Y-83615057D01*
X146351532Y-83579286D01*
X146495673Y-83574427D01*
X146555740Y-83579206D01*
X146636451Y-83584808D01*
X146755361Y-83589593D01*
X146906156Y-83593565D01*
X147082521Y-83596726D01*
X147278139Y-83599079D01*
X147486697Y-83600627D01*
X147701880Y-83601371D01*
X147917371Y-83601316D01*
X148126857Y-83600463D01*
X148324021Y-83598816D01*
X148502549Y-83596376D01*
X148656126Y-83593148D01*
X148778437Y-83589133D01*
X148863167Y-83584334D01*
X148904000Y-83578754D01*
X148905334Y-83578200D01*
X148939711Y-83556443D01*
X148966011Y-83525489D01*
X148985329Y-83478820D01*
X148998762Y-83409920D01*
X149007407Y-83312272D01*
X149012360Y-83179360D01*
X149014718Y-83004666D01*
X149015163Y-82925491D01*
X149015254Y-82739312D01*
X149013287Y-82594435D01*
X149008619Y-82481385D01*
X149000603Y-82390686D01*
X148988596Y-82312859D01*
X148971952Y-82238428D01*
X148967138Y-82219800D01*
X148925604Y-82087713D01*
X148878064Y-81998799D01*
X148816518Y-81945469D01*
X148732966Y-81920137D01*
X148645733Y-81914931D01*
X148557131Y-81917378D01*
X148436996Y-81924016D01*
X148304313Y-81933688D01*
X148228050Y-81940331D01*
X148076538Y-81954482D01*
X147903117Y-81970708D01*
X147736453Y-81986326D01*
X147672763Y-81992303D01*
X147497458Y-82011362D01*
X147351434Y-82032494D01*
X147240010Y-82054634D01*
X147168504Y-82076717D01*
X147142234Y-82097682D01*
X147142200Y-82098424D01*
X147152956Y-82134636D01*
X147179018Y-82191900D01*
X147180761Y-82195294D01*
X147242315Y-82264344D01*
X147329902Y-82293073D01*
X147408315Y-82285717D01*
X147465000Y-82281761D01*
X147552250Y-82286743D01*
X147647577Y-82299049D01*
X147778451Y-82328977D01*
X147891041Y-82370341D01*
X147978769Y-82418797D01*
X148035058Y-82469997D01*
X148053329Y-82519597D01*
X148035814Y-82555546D01*
X148005879Y-82571598D01*
X147962479Y-82561527D01*
X147909385Y-82533767D01*
X147835952Y-82502431D01*
X147734113Y-82472431D01*
X147626637Y-82450392D01*
X147526516Y-82436508D01*
X147463492Y-82433314D01*
X147424891Y-82441335D01*
X147399327Y-82459787D01*
X147377149Y-82490229D01*
X147382845Y-82523376D01*
X147416540Y-82573989D01*
X147462670Y-82651617D01*
X147467633Y-82702951D01*
X147431473Y-82726425D01*
X147412325Y-82727800D01*
X147326695Y-82702686D01*
X147244931Y-82628389D01*
X147168657Y-82506474D01*
X147156266Y-82480940D01*
X147100634Y-82383307D01*
X147026300Y-82280881D01*
X146943938Y-82185939D01*
X146864222Y-82110760D01*
X146797828Y-82067619D01*
X146796409Y-82067049D01*
X146745394Y-82059687D01*
X146661685Y-82060230D01*
X146562745Y-82068506D01*
X146555606Y-82069383D01*
X146466358Y-82076607D01*
X146466358Y-81876900D01*
X146522162Y-81853799D01*
X146574489Y-81793507D01*
X146616825Y-81709542D01*
X146642654Y-81615424D01*
X146645463Y-81524670D01*
X146643104Y-81510150D01*
X146619381Y-81445031D01*
X146580700Y-81377810D01*
X146516892Y-81305750D01*
X146441824Y-81245764D01*
X146371478Y-81209465D01*
X146341282Y-81203800D01*
X146313797Y-81211881D01*
X146307113Y-81244911D01*
X146314402Y-81299050D01*
X146347185Y-81483280D01*
X146372713Y-81623492D01*
X146392564Y-81725695D01*
X146408320Y-81795898D01*
X146421559Y-81840109D01*
X146433863Y-81864335D01*
X146446811Y-81874586D01*
X146461983Y-81876870D01*
X146466358Y-81876900D01*
X146466358Y-82076607D01*
X146408713Y-82081274D01*
X146298226Y-82071458D01*
X146218527Y-82034598D01*
X146164000Y-81965357D01*
X146129026Y-81858399D01*
X146107989Y-81708387D01*
X146102473Y-81638874D01*
X146076928Y-81423770D01*
X146033078Y-81253550D01*
X145971269Y-81129178D01*
X145891846Y-81051615D01*
X145891464Y-81051383D01*
X145864088Y-81037328D01*
X145829911Y-81026819D01*
X145782252Y-81019536D01*
X145714431Y-81015160D01*
X145619767Y-81013370D01*
X145491581Y-81013846D01*
X145323191Y-81016270D01*
X145203768Y-81018454D01*
X145027347Y-81022786D01*
X144863732Y-81028615D01*
X144721133Y-81035504D01*
X144607759Y-81043020D01*
X144531818Y-81050724D01*
X144506938Y-81055464D01*
X144456027Y-81078232D01*
X144423454Y-81114544D01*
X144408150Y-81171937D01*
X144409048Y-81257947D01*
X144425079Y-81380110D01*
X144444999Y-81492587D01*
X144470778Y-81648905D01*
X144492194Y-81822282D01*
X144509622Y-82018581D01*
X144523441Y-82243664D01*
X144534030Y-82503393D01*
X144541766Y-82803631D01*
X144545910Y-83058000D01*
X144548306Y-83237322D01*
X144550692Y-83408816D01*
X144552926Y-83562869D01*
X144554868Y-83689871D01*
X144556377Y-83780212D01*
X144556897Y-83807300D01*
X144551471Y-83908610D01*
X144534030Y-84035072D01*
X144507902Y-84163411D01*
X144503351Y-84181732D01*
X144469404Y-84359932D01*
X144462608Y-84516475D01*
X144482178Y-84645313D01*
X144527332Y-84740398D01*
X144581934Y-84788421D01*
X144626830Y-84799187D01*
X144713315Y-84808533D01*
X144832194Y-84816317D01*
X144974272Y-84822400D01*
X145130353Y-84826640D01*
X145291242Y-84828897D01*
X145447744Y-84829030D01*
X145447744Y-85026500D01*
X145271088Y-85026500D01*
X145092230Y-85027121D01*
X144930300Y-85028868D01*
X144792175Y-85031572D01*
X144684729Y-85035062D01*
X144614836Y-85039168D01*
X144589580Y-85043375D01*
X144586924Y-85079420D01*
X144617382Y-85139581D01*
X144675507Y-85214901D01*
X144726532Y-85268711D01*
X144793059Y-85337972D01*
X144871652Y-85425450D01*
X144929995Y-85493906D01*
X144999306Y-85568578D01*
X145069516Y-85629558D01*
X145120495Y-85661132D01*
X145176007Y-85673566D01*
X145276444Y-85685358D01*
X145415935Y-85696025D01*
X145588604Y-85705086D01*
X145713773Y-85709818D01*
X146228447Y-85726662D01*
X146228447Y-85918220D01*
X146176316Y-85921843D01*
X146078716Y-85920268D01*
X145961176Y-85913277D01*
X145877787Y-85905701D01*
X145725954Y-85892846D01*
X145555261Y-85883034D01*
X145394730Y-85877800D01*
X145341798Y-85877331D01*
X145195415Y-85873970D01*
X145086779Y-85859996D01*
X145003074Y-85829706D01*
X144931482Y-85777395D01*
X144859190Y-85697360D01*
X144818100Y-85644266D01*
X144748395Y-85556348D01*
X144661724Y-85453529D01*
X144576377Y-85357483D01*
X144573167Y-85353999D01*
X144464777Y-85233000D01*
X144387253Y-85134563D01*
X144334448Y-85046457D01*
X144300215Y-84956448D01*
X144278408Y-84852303D01*
X144264699Y-84740063D01*
X144250412Y-84583711D01*
X144244306Y-84462607D01*
X144247076Y-84361752D01*
X144259415Y-84266148D01*
X144282018Y-84160799D01*
X144293660Y-84114244D01*
X144317274Y-84014250D01*
X144328179Y-83936017D01*
X144327115Y-83858307D01*
X144314825Y-83759881D01*
X144307631Y-83714270D01*
X144291485Y-83605720D01*
X144279321Y-83507427D01*
X144273274Y-83437129D01*
X144272970Y-83426300D01*
X144272824Y-83382491D01*
X144272612Y-83294764D01*
X144272347Y-83169999D01*
X144272043Y-83015080D01*
X144271713Y-82836886D01*
X144271371Y-82642300D01*
X144271225Y-82555467D01*
X144270679Y-82331380D01*
X144269584Y-82151086D01*
X144267511Y-82007578D01*
X144264029Y-81893848D01*
X144258711Y-81802889D01*
X144251126Y-81727695D01*
X144240845Y-81661257D01*
X144227439Y-81596570D01*
X144210478Y-81526625D01*
X144207449Y-81514649D01*
X144173297Y-81372885D01*
X144153874Y-81267130D01*
X144148958Y-81184845D01*
X144158329Y-81113487D01*
G36*
X144172212Y-89430565D02*
G01*
X144222471Y-89363531D01*
X144292444Y-89294723D01*
X144348270Y-89238489D01*
X144376020Y-89188607D01*
X144385199Y-89122538D01*
X144385786Y-89073410D01*
X144381285Y-88988398D01*
X144369633Y-88872293D01*
X144352885Y-88743957D01*
X144342568Y-88676953D01*
X144322122Y-88536322D01*
X144313207Y-88423423D01*
X144315141Y-88316680D01*
X144327238Y-88194516D01*
X144327259Y-88194353D01*
X144338946Y-88066780D01*
X144346899Y-87914031D01*
X144349961Y-87761661D01*
X144349482Y-87702351D01*
X144348584Y-87569467D01*
X144354967Y-87469670D01*
X144373374Y-87387424D01*
X144408551Y-87307193D01*
X144465243Y-87213440D01*
X144526719Y-87122000D01*
X144586120Y-87023401D01*
X144639056Y-86915835D01*
X144665174Y-86848520D01*
X144685887Y-86792173D01*
X144712623Y-86742359D01*
X144752354Y-86690989D01*
X144812054Y-86629974D01*
X144898694Y-86551224D01*
X144989390Y-86472343D01*
X145097557Y-86381309D01*
X145200123Y-86298937D01*
X145287309Y-86232814D01*
X145349331Y-86190526D01*
X145361856Y-86183475D01*
X145558350Y-86106583D01*
X145771358Y-86062856D01*
X145896576Y-86055200D01*
X145994960Y-86059277D01*
X146079017Y-86075098D01*
X146169771Y-86108053D01*
X146253916Y-86146790D01*
X146362829Y-86196301D01*
X146473294Y-86241571D01*
X146563154Y-86273573D01*
X146570700Y-86275857D01*
X146667854Y-86314253D01*
X146762167Y-86366549D01*
X146791460Y-86387467D01*
X146869232Y-86440882D01*
X146933407Y-86460681D01*
X146993239Y-86444120D01*
X147057982Y-86388452D01*
X147136893Y-86290934D01*
X147142561Y-86283313D01*
X147225727Y-86181678D01*
X147322158Y-86079417D01*
X147412440Y-85996966D01*
X147421369Y-85989820D01*
X147502515Y-85917912D01*
X147598303Y-85820781D01*
X147693497Y-85714288D01*
X147737670Y-85660524D01*
X147859402Y-85514454D01*
X147967902Y-85403704D01*
X148074595Y-85319179D01*
X148190906Y-85251784D01*
X148323300Y-85194341D01*
X148521666Y-85134143D01*
X148696041Y-85118042D01*
X148849383Y-85147194D01*
X148984651Y-85222752D01*
X149104803Y-85345870D01*
X149212798Y-85517702D01*
X149227858Y-85547200D01*
X149271216Y-85643220D01*
X149299457Y-85733461D01*
X149317482Y-85837705D01*
X149328545Y-85953600D01*
X149341420Y-86075017D01*
X149359910Y-86191512D01*
X149380764Y-86283901D01*
X149388816Y-86309200D01*
X149441865Y-86480427D01*
X149462249Y-86625092D01*
X149449115Y-86756240D01*
X149401613Y-86886916D01*
X149344351Y-86990145D01*
X149287105Y-87090308D01*
X149233330Y-87196601D01*
X149203730Y-87263920D01*
X149162627Y-87354667D01*
X149104952Y-87464300D01*
X149037053Y-87582593D01*
X148965273Y-87699319D01*
X148895960Y-87804251D01*
X148835458Y-87887161D01*
X148790114Y-87937822D01*
X148781408Y-87944569D01*
X148715474Y-87971046D01*
X148630526Y-87985239D01*
X148609943Y-87985975D01*
X148502818Y-87997966D01*
X148419821Y-88029838D01*
X148372134Y-88076631D01*
X148366126Y-88094114D01*
X148377960Y-88139470D01*
X148430933Y-88164108D01*
X148519290Y-88166848D01*
X148630033Y-88148268D01*
X148736229Y-88130220D01*
X148863518Y-88118867D01*
X148971000Y-88116624D01*
X149081020Y-88116007D01*
X149157855Y-88106136D01*
X149218746Y-88083889D01*
X149250400Y-88066044D01*
X149352938Y-88023468D01*
X149460226Y-88012362D01*
X149552037Y-88034732D01*
X149554294Y-88035916D01*
X149590345Y-88067546D01*
X149644694Y-88129389D01*
X149707138Y-88209609D01*
X149723978Y-88232766D01*
X149784484Y-88319301D01*
X149821263Y-88383245D01*
X149840574Y-88443014D01*
X149848677Y-88517022D01*
X149851493Y-88607900D01*
X149857023Y-88714672D01*
X149867607Y-88810225D01*
X149881116Y-88876196D01*
X149883339Y-88882604D01*
X149908367Y-89016854D01*
X149890371Y-89175148D01*
X149858826Y-89281000D01*
X149813903Y-89387753D01*
X149756789Y-89500157D01*
X149728860Y-89547700D01*
X149663260Y-89654690D01*
X149613344Y-89744471D01*
X149567248Y-89839677D01*
X149521868Y-89942560D01*
X149435148Y-90101611D01*
X149419263Y-90119873D01*
X149419263Y-89730821D01*
X149445898Y-89715267D01*
X149489005Y-89664102D01*
X149542448Y-89587205D01*
X149600088Y-89494456D01*
X149655787Y-89395736D01*
X149703409Y-89300922D01*
X149736816Y-89219895D01*
X149736993Y-89219376D01*
X149760125Y-89136499D01*
X149770913Y-89066381D01*
X149769869Y-89039700D01*
X149757997Y-88984711D01*
X149740862Y-88904734D01*
X149732908Y-88867458D01*
X149720355Y-88782406D01*
X149718738Y-88708805D01*
X149721912Y-88686719D01*
X149725330Y-88594442D01*
X149699094Y-88496723D01*
X149650742Y-88414123D01*
X149608209Y-88376565D01*
X149546681Y-88323140D01*
X149496888Y-88252348D01*
X149495024Y-88248545D01*
X149456243Y-88187501D01*
X149410605Y-88167145D01*
X149346799Y-88185524D01*
X149295463Y-88214106D01*
X149239259Y-88241042D01*
X149170357Y-88256810D01*
X149074302Y-88263852D01*
X148994714Y-88264906D01*
X148871090Y-88268338D01*
X148745467Y-88277310D01*
X148642524Y-88289988D01*
X148631456Y-88291930D01*
X148481598Y-88306067D01*
X148351785Y-88291041D01*
X148268003Y-88278177D01*
X148199852Y-88275621D01*
X148174809Y-88279715D01*
X148142467Y-88306010D01*
X148088656Y-88364199D01*
X148021595Y-88444953D01*
X147966923Y-88515554D01*
X147895024Y-88612731D01*
X147851273Y-88677117D01*
X147832196Y-88715676D01*
X147834318Y-88735373D01*
X147853421Y-88743058D01*
X147915689Y-88745837D01*
X148016231Y-88742520D01*
X148143039Y-88734251D01*
X148284108Y-88722177D01*
X148427430Y-88707444D01*
X148560997Y-88691196D01*
X148672803Y-88674580D01*
X148750841Y-88658742D01*
X148758082Y-88656741D01*
X148896897Y-88629584D01*
X149036535Y-88625048D01*
X149161927Y-88642206D01*
X149258004Y-88680133D01*
X149269791Y-88688172D01*
X149316087Y-88729424D01*
X149351917Y-88780275D01*
X149378126Y-88846708D01*
X149395556Y-88934709D01*
X149405054Y-89050262D01*
X149407461Y-89199350D01*
X149403624Y-89387958D01*
X149396096Y-89583516D01*
X149397587Y-89672473D01*
X149410445Y-89722912D01*
X149419263Y-89730821D01*
X149419263Y-90119873D01*
X149330439Y-90221993D01*
X149212583Y-90298361D01*
X149192066Y-90306412D01*
X149133410Y-90318802D01*
X149031409Y-90331057D01*
X148893519Y-90342749D01*
X148727193Y-90353448D01*
X148539887Y-90362726D01*
X148339055Y-90370155D01*
X148132151Y-90375304D01*
X147955000Y-90377583D01*
X147948561Y-90378048D01*
X147948561Y-90222413D01*
X148301030Y-90208082D01*
X148527940Y-90198625D01*
X148709684Y-90190260D01*
X148851865Y-90182337D01*
X148960087Y-90174208D01*
X149039954Y-90165222D01*
X149097068Y-90154732D01*
X149137035Y-90142087D01*
X149165457Y-90126639D01*
X149187938Y-90107738D01*
X149190710Y-90104999D01*
X149238071Y-90031275D01*
X149246574Y-89939489D01*
X149216350Y-89823215D01*
X149197404Y-89777252D01*
X149173576Y-89718991D01*
X149159996Y-89667179D01*
X149155772Y-89607911D01*
X149160010Y-89527277D01*
X149171818Y-89411372D01*
X149173150Y-89399374D01*
X149185616Y-89223219D01*
X149182657Y-89067625D01*
X149165076Y-88941173D01*
X149133673Y-88852443D01*
X149120220Y-88832670D01*
X149067174Y-88805191D01*
X148981341Y-88801155D01*
X148874866Y-88820297D01*
X148815443Y-88839298D01*
X148729485Y-88862109D01*
X148601105Y-88882567D01*
X148428511Y-88900839D01*
X148209913Y-88917093D01*
X147943521Y-88931496D01*
X147739100Y-88940130D01*
X147582751Y-88945485D01*
X147469005Y-88947401D01*
X147389753Y-88945435D01*
X147336887Y-88939146D01*
X147302297Y-88928090D01*
X147281900Y-88915169D01*
X147246924Y-88883255D01*
X147251570Y-88860514D01*
X147280404Y-88836500D01*
X147338044Y-88806210D01*
X147376368Y-88798400D01*
X147417988Y-88779808D01*
X147484273Y-88728820D01*
X147568046Y-88652626D01*
X147662129Y-88558412D01*
X147759344Y-88453366D01*
X147852514Y-88344675D01*
X147934407Y-88239600D01*
X148111121Y-88024646D01*
X148307505Y-87840133D01*
X148389640Y-87775127D01*
X148465250Y-87728389D01*
X148542400Y-87710582D01*
X148602770Y-87710116D01*
X148692308Y-87705329D01*
X148749279Y-87676525D01*
X148783764Y-87614432D01*
X148803411Y-87525538D01*
X148827043Y-87432163D01*
X148863620Y-87337096D01*
X148870072Y-87323882D01*
X148902644Y-87253732D01*
X148915943Y-87196835D01*
X148909297Y-87136640D01*
X148882033Y-87056592D01*
X148856700Y-86995000D01*
X148828534Y-86922003D01*
X148810068Y-86853680D01*
X148799336Y-86776033D01*
X148794370Y-86675061D01*
X148793200Y-86543176D01*
X148786347Y-86331848D01*
X148764927Y-86163609D01*
X148727644Y-86032511D01*
X148673201Y-85932607D01*
X148655283Y-85910084D01*
X148608704Y-85864596D01*
X148568017Y-85854587D01*
X148530232Y-85865217D01*
X148488363Y-85894232D01*
X148420542Y-85956339D01*
X148332645Y-86045045D01*
X148230552Y-86153851D01*
X148120140Y-86276261D01*
X148007289Y-86405778D01*
X147897875Y-86535906D01*
X147797779Y-86660149D01*
X147726314Y-86753700D01*
X147593926Y-86920130D01*
X147465256Y-87052697D01*
X147326031Y-87165043D01*
X147226027Y-87231861D01*
X147154282Y-87289972D01*
X147075268Y-87373864D01*
X147014571Y-87453125D01*
X146928314Y-87565728D01*
X146860770Y-87624902D01*
X146860770Y-87245473D01*
X146908388Y-87229089D01*
X146932127Y-87199766D01*
X146968107Y-87163487D01*
X147035132Y-87112565D01*
X147119831Y-87057013D01*
X147135087Y-87047793D01*
X147239992Y-86984349D01*
X147312719Y-86936134D01*
X147364977Y-86892792D01*
X147408473Y-86843965D01*
X147454917Y-86779296D01*
X147479068Y-86743503D01*
X147557642Y-86634330D01*
X147656875Y-86511295D01*
X147780874Y-86369752D01*
X147933743Y-86205054D01*
X148119587Y-86012554D01*
X148171278Y-85959950D01*
X148282744Y-85847210D01*
X148365476Y-85765639D01*
X148426367Y-85710194D01*
X148472311Y-85675831D01*
X148510202Y-85657507D01*
X148546933Y-85650180D01*
X148589397Y-85648805D01*
X148596586Y-85648800D01*
X148686598Y-85657063D01*
X148756622Y-85689100D01*
X148802888Y-85725764D01*
X148860884Y-85786359D01*
X148905640Y-85858590D01*
X148939231Y-85950145D01*
X148963733Y-86068715D01*
X148981222Y-86221990D01*
X148993774Y-86417659D01*
X148994666Y-86436210D01*
X149003963Y-86604898D01*
X149014838Y-86730834D01*
X149029025Y-86822066D01*
X149048257Y-86886641D01*
X149074267Y-86932608D01*
X149108790Y-86968015D01*
X149109313Y-86968450D01*
X149150914Y-86985546D01*
X149193077Y-86963205D01*
X149240409Y-86897684D01*
X149273887Y-86834711D01*
X149308163Y-86751564D01*
X149322420Y-86671521D01*
X149316325Y-86580946D01*
X149289548Y-86466206D01*
X149262775Y-86378083D01*
X149218617Y-86203142D01*
X149200482Y-86043081D01*
X149200247Y-86022483D01*
X149196371Y-85937058D01*
X149181665Y-85851386D01*
X149152623Y-85751351D01*
X149105738Y-85622839D01*
X149092553Y-85589019D01*
X149025261Y-85428087D01*
X148963098Y-85311420D01*
X148897920Y-85234251D01*
X148821585Y-85191809D01*
X148725948Y-85179326D01*
X148602867Y-85192032D01*
X148463635Y-85220665D01*
X148367528Y-85243835D01*
X148290414Y-85267723D01*
X148224982Y-85298215D01*
X148163918Y-85341200D01*
X148099909Y-85402568D01*
X148025643Y-85488207D01*
X147933808Y-85604005D01*
X147846164Y-85717893D01*
X147758190Y-85826924D01*
X147667215Y-85929922D01*
X147584308Y-86014888D01*
X147523561Y-86067635D01*
X147436430Y-86142384D01*
X147348095Y-86234887D01*
X147302734Y-86291398D01*
X147218887Y-86400178D01*
X147131885Y-86501773D01*
X147049223Y-86588513D01*
X146978397Y-86652731D01*
X146926900Y-86686757D01*
X146912975Y-86690200D01*
X146873607Y-86671661D01*
X146818432Y-86623856D01*
X146776921Y-86577929D01*
X146689428Y-86490727D01*
X146588345Y-86435115D01*
X146551611Y-86421962D01*
X146463330Y-86388860D01*
X146351969Y-86341347D01*
X146239334Y-86288800D01*
X146222013Y-86280233D01*
X146069574Y-86214942D01*
X145934302Y-86184676D01*
X145798340Y-86187664D01*
X145643832Y-86222136D01*
X145641860Y-86222714D01*
X145437481Y-86302650D01*
X145273698Y-86410081D01*
X145186400Y-86498388D01*
X145117656Y-86573719D01*
X145043950Y-86641856D01*
X145012119Y-86666487D01*
X144943676Y-86723018D01*
X144891284Y-86782308D01*
X144863518Y-86832901D01*
X144866353Y-86861221D01*
X144895362Y-86858613D01*
X144957569Y-86836712D01*
X145041208Y-86799868D01*
X145069764Y-86786034D01*
X145308866Y-86694831D01*
X145457455Y-86662995D01*
X145559693Y-86649326D01*
X145642656Y-86645142D01*
X145725489Y-86651372D01*
X145827336Y-86668944D01*
X145901914Y-86684536D01*
X146029706Y-86715539D01*
X146137224Y-86751629D01*
X146243787Y-86800694D01*
X146368717Y-86870622D01*
X146392914Y-86884998D01*
X146522555Y-86968295D01*
X146633485Y-87050775D01*
X146713771Y-87123361D01*
X146729444Y-87141050D01*
X146802329Y-87216476D01*
X146860770Y-87245473D01*
X146860770Y-87624902D01*
X146854436Y-87630452D01*
X146791432Y-87648286D01*
X146747179Y-87628905D01*
X146715043Y-87589371D01*
X146671315Y-87519485D01*
X146628910Y-87441020D01*
X146565124Y-87319866D01*
X146509789Y-87233625D01*
X146451943Y-87170271D01*
X146380619Y-87117774D01*
X146285766Y-87064582D01*
X146048451Y-86959165D01*
X145818678Y-86893359D01*
X145601956Y-86867977D01*
X145403796Y-86883831D01*
X145286159Y-86917163D01*
X145142910Y-86982097D01*
X144986736Y-87069939D01*
X144836007Y-87169189D01*
X144709091Y-87268352D01*
X144674838Y-87299800D01*
X144611749Y-87369304D01*
X144568104Y-87441957D01*
X144541127Y-87528391D01*
X144528043Y-87639236D01*
X144526075Y-87785123D01*
X144527985Y-87862216D01*
X144528411Y-87980342D01*
X144524039Y-88121380D01*
X144515790Y-88257763D01*
X144514137Y-88277700D01*
X144505884Y-88420380D01*
X144510451Y-88539697D01*
X144529352Y-88661814D01*
X144538947Y-88706986D01*
X144566814Y-88885761D01*
X144571778Y-89058507D01*
X144555254Y-89216279D01*
X144518658Y-89350133D01*
X144463404Y-89451125D01*
X144413821Y-89497846D01*
X144361961Y-89550954D01*
X144353471Y-89617127D01*
X144388648Y-89701012D01*
X144430749Y-89761662D01*
X144491114Y-89841607D01*
X144563029Y-89938941D01*
X144616882Y-90013123D01*
X144673998Y-90089433D01*
X144716169Y-90132557D01*
X144756470Y-90151679D01*
X144807976Y-90155987D01*
X144820082Y-90155889D01*
X144895220Y-90149568D01*
X144997928Y-90134305D01*
X145106463Y-90113351D01*
X145110412Y-90112485D01*
X145238767Y-90089206D01*
X145347453Y-90083356D01*
X145464000Y-90093576D01*
X145471663Y-90094645D01*
X145603838Y-90106015D01*
X145728495Y-90097745D01*
X145822361Y-90080898D01*
X145943958Y-90057018D01*
X146027880Y-90047021D01*
X146085697Y-90052315D01*
X146128982Y-90074309D01*
X146169302Y-90114411D01*
X146177530Y-90124131D01*
X146245261Y-90205261D01*
X146389382Y-90173008D01*
X146497249Y-90156982D01*
X146635082Y-90151650D01*
X146812043Y-90156721D01*
X146845372Y-90158523D01*
X147157243Y-90176290D01*
X147275435Y-90073995D01*
X147396100Y-89992293D01*
X147519597Y-89949674D01*
X147635238Y-89949498D01*
X147655478Y-89954551D01*
X147702488Y-89981555D01*
X147767784Y-90035024D01*
X147831130Y-90097109D01*
X147948561Y-90222413D01*
X147948561Y-90378048D01*
X147895816Y-90381866D01*
X147808296Y-90392503D01*
X147734989Y-90403460D01*
X147619293Y-90416038D01*
X147613258Y-90415619D01*
X147613258Y-90261454D01*
X147676121Y-90245922D01*
X147720518Y-90203171D01*
X147716178Y-90147486D01*
X147694650Y-90112745D01*
X147628736Y-90063658D01*
X147548202Y-90055411D01*
X147471014Y-90089815D01*
X147430224Y-90126774D01*
X147426502Y-90153827D01*
X147455440Y-90190693D01*
X147529444Y-90243843D01*
X147613258Y-90261454D01*
X147613258Y-90415619D01*
X147521148Y-90409212D01*
X147442889Y-90391106D01*
X147297751Y-90360566D01*
X147117092Y-90337736D01*
X146915716Y-90323388D01*
X146708428Y-90318296D01*
X146510030Y-90323232D01*
X146367500Y-90334940D01*
X146259937Y-90341627D01*
X146171642Y-90329952D01*
X146083433Y-90300414D01*
X146024155Y-90279772D01*
X145960520Y-90265070D01*
X145882278Y-90255241D01*
X145779179Y-90249219D01*
X145640971Y-90245939D01*
X145550033Y-90244949D01*
X145386330Y-90244618D01*
X145261790Y-90247383D01*
X145164816Y-90254240D01*
X145083815Y-90266184D01*
X145007193Y-90284211D01*
X144970580Y-90294714D01*
X144854317Y-90326967D01*
X144761802Y-90342884D01*
X144685616Y-90338251D01*
X144618342Y-90308849D01*
X144552562Y-90250462D01*
X144480857Y-90158873D01*
X144395810Y-90029866D01*
X144336092Y-89934045D01*
X144246099Y-89783658D01*
X144185273Y-89666291D01*
X144153055Y-89573770D01*
X144148887Y-89497920D01*
X144172212Y-89430565D01*
G37*
X144172212Y-89430565D02*
X144222471Y-89363531D01*
X144292444Y-89294723D01*
X144348270Y-89238489D01*
X144376020Y-89188607D01*
X144385199Y-89122538D01*
X144385786Y-89073410D01*
X144381285Y-88988398D01*
X144369633Y-88872293D01*
X144352885Y-88743957D01*
X144342568Y-88676953D01*
X144322122Y-88536322D01*
X144313207Y-88423423D01*
X144315141Y-88316680D01*
X144327238Y-88194516D01*
X144327259Y-88194353D01*
X144338946Y-88066780D01*
X144346899Y-87914031D01*
X144349961Y-87761661D01*
X144349482Y-87702351D01*
X144348584Y-87569467D01*
X144354967Y-87469670D01*
X144373374Y-87387424D01*
X144408551Y-87307193D01*
X144465243Y-87213440D01*
X144526719Y-87122000D01*
X144586120Y-87023401D01*
X144639056Y-86915835D01*
X144665174Y-86848520D01*
X144685887Y-86792173D01*
X144712623Y-86742359D01*
X144752354Y-86690989D01*
X144812054Y-86629974D01*
X144898694Y-86551224D01*
X144989390Y-86472343D01*
X145097557Y-86381309D01*
X145200123Y-86298937D01*
X145287309Y-86232814D01*
X145349331Y-86190526D01*
X145361856Y-86183475D01*
X145558350Y-86106583D01*
X145771358Y-86062856D01*
X145896576Y-86055200D01*
X145994960Y-86059277D01*
X146079017Y-86075098D01*
X146169771Y-86108053D01*
X146253916Y-86146790D01*
X146362829Y-86196301D01*
X146473294Y-86241571D01*
X146563154Y-86273573D01*
X146570700Y-86275857D01*
X146667854Y-86314253D01*
X146762167Y-86366549D01*
X146791460Y-86387467D01*
X146869232Y-86440882D01*
X146933407Y-86460681D01*
X146993239Y-86444120D01*
X147057982Y-86388452D01*
X147136893Y-86290934D01*
X147142561Y-86283313D01*
X147225727Y-86181678D01*
X147322158Y-86079417D01*
X147412440Y-85996966D01*
X147421369Y-85989820D01*
X147502515Y-85917912D01*
X147598303Y-85820781D01*
X147693497Y-85714288D01*
X147737670Y-85660524D01*
X147859402Y-85514454D01*
X147967902Y-85403704D01*
X148074595Y-85319179D01*
X148190906Y-85251784D01*
X148323300Y-85194341D01*
X148521666Y-85134143D01*
X148696041Y-85118042D01*
X148849383Y-85147194D01*
X148984651Y-85222752D01*
X149104803Y-85345870D01*
X149212798Y-85517702D01*
X149227858Y-85547200D01*
X149271216Y-85643220D01*
X149299457Y-85733461D01*
X149317482Y-85837705D01*
X149328545Y-85953600D01*
X149341420Y-86075017D01*
X149359910Y-86191512D01*
X149380764Y-86283901D01*
X149388816Y-86309200D01*
X149441865Y-86480427D01*
X149462249Y-86625092D01*
X149449115Y-86756240D01*
X149401613Y-86886916D01*
X149344351Y-86990145D01*
X149287105Y-87090308D01*
X149233330Y-87196601D01*
X149203730Y-87263920D01*
X149162627Y-87354667D01*
X149104952Y-87464300D01*
X149037053Y-87582593D01*
X148965273Y-87699319D01*
X148895960Y-87804251D01*
X148835458Y-87887161D01*
X148790114Y-87937822D01*
X148781408Y-87944569D01*
X148715474Y-87971046D01*
X148630526Y-87985239D01*
X148609943Y-87985975D01*
X148502818Y-87997966D01*
X148419821Y-88029838D01*
X148372134Y-88076631D01*
X148366126Y-88094114D01*
X148377960Y-88139470D01*
X148430933Y-88164108D01*
X148519290Y-88166848D01*
X148630033Y-88148268D01*
X148736229Y-88130220D01*
X148863518Y-88118867D01*
X148971000Y-88116624D01*
X149081020Y-88116007D01*
X149157855Y-88106136D01*
X149218746Y-88083889D01*
X149250400Y-88066044D01*
X149352938Y-88023468D01*
X149460226Y-88012362D01*
X149552037Y-88034732D01*
X149554294Y-88035916D01*
X149590345Y-88067546D01*
X149644694Y-88129389D01*
X149707138Y-88209609D01*
X149723978Y-88232766D01*
X149784484Y-88319301D01*
X149821263Y-88383245D01*
X149840574Y-88443014D01*
X149848677Y-88517022D01*
X149851493Y-88607900D01*
X149857023Y-88714672D01*
X149867607Y-88810225D01*
X149881116Y-88876196D01*
X149883339Y-88882604D01*
X149908367Y-89016854D01*
X149890371Y-89175148D01*
X149858826Y-89281000D01*
X149813903Y-89387753D01*
X149756789Y-89500157D01*
X149728860Y-89547700D01*
X149663260Y-89654690D01*
X149613344Y-89744471D01*
X149567248Y-89839677D01*
X149521868Y-89942560D01*
X149435148Y-90101611D01*
X149419263Y-90119873D01*
X149419263Y-89730821D01*
X149445898Y-89715267D01*
X149489005Y-89664102D01*
X149542448Y-89587205D01*
X149600088Y-89494456D01*
X149655787Y-89395736D01*
X149703409Y-89300922D01*
X149736816Y-89219895D01*
X149736993Y-89219376D01*
X149760125Y-89136499D01*
X149770913Y-89066381D01*
X149769869Y-89039700D01*
X149757997Y-88984711D01*
X149740862Y-88904734D01*
X149732908Y-88867458D01*
X149720355Y-88782406D01*
X149718738Y-88708805D01*
X149721912Y-88686719D01*
X149725330Y-88594442D01*
X149699094Y-88496723D01*
X149650742Y-88414123D01*
X149608209Y-88376565D01*
X149546681Y-88323140D01*
X149496888Y-88252348D01*
X149495024Y-88248545D01*
X149456243Y-88187501D01*
X149410605Y-88167145D01*
X149346799Y-88185524D01*
X149295463Y-88214106D01*
X149239259Y-88241042D01*
X149170357Y-88256810D01*
X149074302Y-88263852D01*
X148994714Y-88264906D01*
X148871090Y-88268338D01*
X148745467Y-88277310D01*
X148642524Y-88289988D01*
X148631456Y-88291930D01*
X148481598Y-88306067D01*
X148351785Y-88291041D01*
X148268003Y-88278177D01*
X148199852Y-88275621D01*
X148174809Y-88279715D01*
X148142467Y-88306010D01*
X148088656Y-88364199D01*
X148021595Y-88444953D01*
X147966923Y-88515554D01*
X147895024Y-88612731D01*
X147851273Y-88677117D01*
X147832196Y-88715676D01*
X147834318Y-88735373D01*
X147853421Y-88743058D01*
X147915689Y-88745837D01*
X148016231Y-88742520D01*
X148143039Y-88734251D01*
X148284108Y-88722177D01*
X148427430Y-88707444D01*
X148560997Y-88691196D01*
X148672803Y-88674580D01*
X148750841Y-88658742D01*
X148758082Y-88656741D01*
X148896897Y-88629584D01*
X149036535Y-88625048D01*
X149161927Y-88642206D01*
X149258004Y-88680133D01*
X149269791Y-88688172D01*
X149316087Y-88729424D01*
X149351917Y-88780275D01*
X149378126Y-88846708D01*
X149395556Y-88934709D01*
X149405054Y-89050262D01*
X149407461Y-89199350D01*
X149403624Y-89387958D01*
X149396096Y-89583516D01*
X149397587Y-89672473D01*
X149410445Y-89722912D01*
X149419263Y-89730821D01*
X149419263Y-90119873D01*
X149330439Y-90221993D01*
X149212583Y-90298361D01*
X149192066Y-90306412D01*
X149133410Y-90318802D01*
X149031409Y-90331057D01*
X148893519Y-90342749D01*
X148727193Y-90353448D01*
X148539887Y-90362726D01*
X148339055Y-90370155D01*
X148132151Y-90375304D01*
X147955000Y-90377583D01*
X147948561Y-90378048D01*
X147948561Y-90222413D01*
X148301030Y-90208082D01*
X148527940Y-90198625D01*
X148709684Y-90190260D01*
X148851865Y-90182337D01*
X148960087Y-90174208D01*
X149039954Y-90165222D01*
X149097068Y-90154732D01*
X149137035Y-90142087D01*
X149165457Y-90126639D01*
X149187938Y-90107738D01*
X149190710Y-90104999D01*
X149238071Y-90031275D01*
X149246574Y-89939489D01*
X149216350Y-89823215D01*
X149197404Y-89777252D01*
X149173576Y-89718991D01*
X149159996Y-89667179D01*
X149155772Y-89607911D01*
X149160010Y-89527277D01*
X149171818Y-89411372D01*
X149173150Y-89399374D01*
X149185616Y-89223219D01*
X149182657Y-89067625D01*
X149165076Y-88941173D01*
X149133673Y-88852443D01*
X149120220Y-88832670D01*
X149067174Y-88805191D01*
X148981341Y-88801155D01*
X148874866Y-88820297D01*
X148815443Y-88839298D01*
X148729485Y-88862109D01*
X148601105Y-88882567D01*
X148428511Y-88900839D01*
X148209913Y-88917093D01*
X147943521Y-88931496D01*
X147739100Y-88940130D01*
X147582751Y-88945485D01*
X147469005Y-88947401D01*
X147389753Y-88945435D01*
X147336887Y-88939146D01*
X147302297Y-88928090D01*
X147281900Y-88915169D01*
X147246924Y-88883255D01*
X147251570Y-88860514D01*
X147280404Y-88836500D01*
X147338044Y-88806210D01*
X147376368Y-88798400D01*
X147417988Y-88779808D01*
X147484273Y-88728820D01*
X147568046Y-88652626D01*
X147662129Y-88558412D01*
X147759344Y-88453366D01*
X147852514Y-88344675D01*
X147934407Y-88239600D01*
X148111121Y-88024646D01*
X148307505Y-87840133D01*
X148389640Y-87775127D01*
X148465250Y-87728389D01*
X148542400Y-87710582D01*
X148602770Y-87710116D01*
X148692308Y-87705329D01*
X148749279Y-87676525D01*
X148783764Y-87614432D01*
X148803411Y-87525538D01*
X148827043Y-87432163D01*
X148863620Y-87337096D01*
X148870072Y-87323882D01*
X148902644Y-87253732D01*
X148915943Y-87196835D01*
X148909297Y-87136640D01*
X148882033Y-87056592D01*
X148856700Y-86995000D01*
X148828534Y-86922003D01*
X148810068Y-86853680D01*
X148799336Y-86776033D01*
X148794370Y-86675061D01*
X148793200Y-86543176D01*
X148786347Y-86331848D01*
X148764927Y-86163609D01*
X148727644Y-86032511D01*
X148673201Y-85932607D01*
X148655283Y-85910084D01*
X148608704Y-85864596D01*
X148568017Y-85854587D01*
X148530232Y-85865217D01*
X148488363Y-85894232D01*
X148420542Y-85956339D01*
X148332645Y-86045045D01*
X148230552Y-86153851D01*
X148120140Y-86276261D01*
X148007289Y-86405778D01*
X147897875Y-86535906D01*
X147797779Y-86660149D01*
X147726314Y-86753700D01*
X147593926Y-86920130D01*
X147465256Y-87052697D01*
X147326031Y-87165043D01*
X147226027Y-87231861D01*
X147154282Y-87289972D01*
X147075268Y-87373864D01*
X147014571Y-87453125D01*
X146928314Y-87565728D01*
X146860770Y-87624902D01*
X146860770Y-87245473D01*
X146908388Y-87229089D01*
X146932127Y-87199766D01*
X146968107Y-87163487D01*
X147035132Y-87112565D01*
X147119831Y-87057013D01*
X147135087Y-87047793D01*
X147239992Y-86984349D01*
X147312719Y-86936134D01*
X147364977Y-86892792D01*
X147408473Y-86843965D01*
X147454917Y-86779296D01*
X147479068Y-86743503D01*
X147557642Y-86634330D01*
X147656875Y-86511295D01*
X147780874Y-86369752D01*
X147933743Y-86205054D01*
X148119587Y-86012554D01*
X148171278Y-85959950D01*
X148282744Y-85847210D01*
X148365476Y-85765639D01*
X148426367Y-85710194D01*
X148472311Y-85675831D01*
X148510202Y-85657507D01*
X148546933Y-85650180D01*
X148589397Y-85648805D01*
X148596586Y-85648800D01*
X148686598Y-85657063D01*
X148756622Y-85689100D01*
X148802888Y-85725764D01*
X148860884Y-85786359D01*
X148905640Y-85858590D01*
X148939231Y-85950145D01*
X148963733Y-86068715D01*
X148981222Y-86221990D01*
X148993774Y-86417659D01*
X148994666Y-86436210D01*
X149003963Y-86604898D01*
X149014838Y-86730834D01*
X149029025Y-86822066D01*
X149048257Y-86886641D01*
X149074267Y-86932608D01*
X149108790Y-86968015D01*
X149109313Y-86968450D01*
X149150914Y-86985546D01*
X149193077Y-86963205D01*
X149240409Y-86897684D01*
X149273887Y-86834711D01*
X149308163Y-86751564D01*
X149322420Y-86671521D01*
X149316325Y-86580946D01*
X149289548Y-86466206D01*
X149262775Y-86378083D01*
X149218617Y-86203142D01*
X149200482Y-86043081D01*
X149200247Y-86022483D01*
X149196371Y-85937058D01*
X149181665Y-85851386D01*
X149152623Y-85751351D01*
X149105738Y-85622839D01*
X149092553Y-85589019D01*
X149025261Y-85428087D01*
X148963098Y-85311420D01*
X148897920Y-85234251D01*
X148821585Y-85191809D01*
X148725948Y-85179326D01*
X148602867Y-85192032D01*
X148463635Y-85220665D01*
X148367528Y-85243835D01*
X148290414Y-85267723D01*
X148224982Y-85298215D01*
X148163918Y-85341200D01*
X148099909Y-85402568D01*
X148025643Y-85488207D01*
X147933808Y-85604005D01*
X147846164Y-85717893D01*
X147758190Y-85826924D01*
X147667215Y-85929922D01*
X147584308Y-86014888D01*
X147523561Y-86067635D01*
X147436430Y-86142384D01*
X147348095Y-86234887D01*
X147302734Y-86291398D01*
X147218887Y-86400178D01*
X147131885Y-86501773D01*
X147049223Y-86588513D01*
X146978397Y-86652731D01*
X146926900Y-86686757D01*
X146912975Y-86690200D01*
X146873607Y-86671661D01*
X146818432Y-86623856D01*
X146776921Y-86577929D01*
X146689428Y-86490727D01*
X146588345Y-86435115D01*
X146551611Y-86421962D01*
X146463330Y-86388860D01*
X146351969Y-86341347D01*
X146239334Y-86288800D01*
X146222013Y-86280233D01*
X146069574Y-86214942D01*
X145934302Y-86184676D01*
X145798340Y-86187664D01*
X145643832Y-86222136D01*
X145641860Y-86222714D01*
X145437481Y-86302650D01*
X145273698Y-86410081D01*
X145186400Y-86498388D01*
X145117656Y-86573719D01*
X145043950Y-86641856D01*
X145012119Y-86666487D01*
X144943676Y-86723018D01*
X144891284Y-86782308D01*
X144863518Y-86832901D01*
X144866353Y-86861221D01*
X144895362Y-86858613D01*
X144957569Y-86836712D01*
X145041208Y-86799868D01*
X145069764Y-86786034D01*
X145308866Y-86694831D01*
X145457455Y-86662995D01*
X145559693Y-86649326D01*
X145642656Y-86645142D01*
X145725489Y-86651372D01*
X145827336Y-86668944D01*
X145901914Y-86684536D01*
X146029706Y-86715539D01*
X146137224Y-86751629D01*
X146243787Y-86800694D01*
X146368717Y-86870622D01*
X146392914Y-86884998D01*
X146522555Y-86968295D01*
X146633485Y-87050775D01*
X146713771Y-87123361D01*
X146729444Y-87141050D01*
X146802329Y-87216476D01*
X146860770Y-87245473D01*
X146860770Y-87624902D01*
X146854436Y-87630452D01*
X146791432Y-87648286D01*
X146747179Y-87628905D01*
X146715043Y-87589371D01*
X146671315Y-87519485D01*
X146628910Y-87441020D01*
X146565124Y-87319866D01*
X146509789Y-87233625D01*
X146451943Y-87170271D01*
X146380619Y-87117774D01*
X146285766Y-87064582D01*
X146048451Y-86959165D01*
X145818678Y-86893359D01*
X145601956Y-86867977D01*
X145403796Y-86883831D01*
X145286159Y-86917163D01*
X145142910Y-86982097D01*
X144986736Y-87069939D01*
X144836007Y-87169189D01*
X144709091Y-87268352D01*
X144674838Y-87299800D01*
X144611749Y-87369304D01*
X144568104Y-87441957D01*
X144541127Y-87528391D01*
X144528043Y-87639236D01*
X144526075Y-87785123D01*
X144527985Y-87862216D01*
X144528411Y-87980342D01*
X144524039Y-88121380D01*
X144515790Y-88257763D01*
X144514137Y-88277700D01*
X144505884Y-88420380D01*
X144510451Y-88539697D01*
X144529352Y-88661814D01*
X144538947Y-88706986D01*
X144566814Y-88885761D01*
X144571778Y-89058507D01*
X144555254Y-89216279D01*
X144518658Y-89350133D01*
X144463404Y-89451125D01*
X144413821Y-89497846D01*
X144361961Y-89550954D01*
X144353471Y-89617127D01*
X144388648Y-89701012D01*
X144430749Y-89761662D01*
X144491114Y-89841607D01*
X144563029Y-89938941D01*
X144616882Y-90013123D01*
X144673998Y-90089433D01*
X144716169Y-90132557D01*
X144756470Y-90151679D01*
X144807976Y-90155987D01*
X144820082Y-90155889D01*
X144895220Y-90149568D01*
X144997928Y-90134305D01*
X145106463Y-90113351D01*
X145110412Y-90112485D01*
X145238767Y-90089206D01*
X145347453Y-90083356D01*
X145464000Y-90093576D01*
X145471663Y-90094645D01*
X145603838Y-90106015D01*
X145728495Y-90097745D01*
X145822361Y-90080898D01*
X145943958Y-90057018D01*
X146027880Y-90047021D01*
X146085697Y-90052315D01*
X146128982Y-90074309D01*
X146169302Y-90114411D01*
X146177530Y-90124131D01*
X146245261Y-90205261D01*
X146389382Y-90173008D01*
X146497249Y-90156982D01*
X146635082Y-90151650D01*
X146812043Y-90156721D01*
X146845372Y-90158523D01*
X147157243Y-90176290D01*
X147275435Y-90073995D01*
X147396100Y-89992293D01*
X147519597Y-89949674D01*
X147635238Y-89949498D01*
X147655478Y-89954551D01*
X147702488Y-89981555D01*
X147767784Y-90035024D01*
X147831130Y-90097109D01*
X147948561Y-90222413D01*
X147948561Y-90378048D01*
X147895816Y-90381866D01*
X147808296Y-90392503D01*
X147734989Y-90403460D01*
X147619293Y-90416038D01*
X147613258Y-90415619D01*
X147613258Y-90261454D01*
X147676121Y-90245922D01*
X147720518Y-90203171D01*
X147716178Y-90147486D01*
X147694650Y-90112745D01*
X147628736Y-90063658D01*
X147548202Y-90055411D01*
X147471014Y-90089815D01*
X147430224Y-90126774D01*
X147426502Y-90153827D01*
X147455440Y-90190693D01*
X147529444Y-90243843D01*
X147613258Y-90261454D01*
X147613258Y-90415619D01*
X147521148Y-90409212D01*
X147442889Y-90391106D01*
X147297751Y-90360566D01*
X147117092Y-90337736D01*
X146915716Y-90323388D01*
X146708428Y-90318296D01*
X146510030Y-90323232D01*
X146367500Y-90334940D01*
X146259937Y-90341627D01*
X146171642Y-90329952D01*
X146083433Y-90300414D01*
X146024155Y-90279772D01*
X145960520Y-90265070D01*
X145882278Y-90255241D01*
X145779179Y-90249219D01*
X145640971Y-90245939D01*
X145550033Y-90244949D01*
X145386330Y-90244618D01*
X145261790Y-90247383D01*
X145164816Y-90254240D01*
X145083815Y-90266184D01*
X145007193Y-90284211D01*
X144970580Y-90294714D01*
X144854317Y-90326967D01*
X144761802Y-90342884D01*
X144685616Y-90338251D01*
X144618342Y-90308849D01*
X144552562Y-90250462D01*
X144480857Y-90158873D01*
X144395810Y-90029866D01*
X144336092Y-89934045D01*
X144246099Y-89783658D01*
X144185273Y-89666291D01*
X144153055Y-89573770D01*
X144148887Y-89497920D01*
X144172212Y-89430565D01*
G36*
X144164696Y-93923563D02*
G01*
X144193356Y-93862911D01*
X144213564Y-93821872D01*
X144227929Y-93769543D01*
X144237687Y-93696295D01*
X144244069Y-93592499D01*
X144248310Y-93448526D01*
X144248673Y-93431111D01*
X144249857Y-93292017D01*
X144248024Y-93161773D01*
X144243556Y-93053545D01*
X144236832Y-92980497D01*
X144235379Y-92971929D01*
X144227563Y-92908121D01*
X144234107Y-92848482D01*
X144258708Y-92775854D01*
X144295305Y-92693808D01*
X144337195Y-92599358D01*
X144359417Y-92528343D01*
X144365928Y-92459222D01*
X144360681Y-92370456D01*
X144358621Y-92348978D01*
X144356784Y-92186772D01*
X144390155Y-92051414D01*
X144463756Y-91928895D01*
X144538829Y-91846273D01*
X144602167Y-91780657D01*
X144636405Y-91729847D01*
X144650397Y-91674880D01*
X144652999Y-91601787D01*
X144676651Y-91464730D01*
X144742249Y-91344423D01*
X144841758Y-91248532D01*
X144967142Y-91184725D01*
X145110366Y-91160668D01*
X145115327Y-91160640D01*
X145199750Y-91154114D01*
X145261326Y-91127215D01*
X145318527Y-91077496D01*
X145396979Y-91002962D01*
X145459090Y-90956779D01*
X145522631Y-90929655D01*
X145605372Y-90912295D01*
X145645928Y-90906271D01*
X145745503Y-90886268D01*
X145834012Y-90852129D01*
X145931622Y-90795242D01*
X145976292Y-90765182D01*
X146061922Y-90708185D01*
X146130057Y-90671335D01*
X146198412Y-90648415D01*
X146284702Y-90633207D01*
X146384999Y-90621741D01*
X146551509Y-90610004D01*
X146688032Y-90614161D01*
X146777818Y-90627091D01*
X146871215Y-90641485D01*
X146952933Y-90643101D01*
X147045076Y-90631083D01*
X147130624Y-90613433D01*
X147321043Y-90582012D01*
X147486738Y-90581853D01*
X147641047Y-90615799D01*
X147797305Y-90686695D01*
X147958452Y-90789972D01*
X148072487Y-90854468D01*
X148195342Y-90885472D01*
X148217998Y-90888130D01*
X148407290Y-90932350D01*
X148578509Y-91023987D01*
X148731409Y-91162890D01*
X148798840Y-91247156D01*
X148879212Y-91353398D01*
X148975929Y-91474895D01*
X149071132Y-91589339D01*
X149093430Y-91615182D01*
X149224657Y-91787621D01*
X149334226Y-91974979D01*
X149415471Y-92163802D01*
X149461728Y-92340632D01*
X149465345Y-92366163D01*
X149484740Y-92475193D01*
X149513625Y-92586123D01*
X149531450Y-92637987D01*
X149577714Y-92771070D01*
X149619697Y-92920207D01*
X149653604Y-93069017D01*
X149675639Y-93201117D01*
X149682200Y-93288670D01*
X149688816Y-93366055D01*
X149706683Y-93475751D01*
X149732828Y-93601299D01*
X149755134Y-93692368D01*
X149793951Y-93855833D01*
X149814156Y-93982069D01*
X149817166Y-94080530D01*
X149815899Y-94097012D01*
X149813385Y-94169267D01*
X149823152Y-94240397D01*
X149848699Y-94325725D01*
X149893524Y-94440576D01*
X149895365Y-94445029D01*
X149960038Y-94633865D01*
X149986362Y-94794400D01*
X149974087Y-94924745D01*
X149962750Y-94957900D01*
X149935677Y-95000803D01*
X149882696Y-95069322D01*
X149813271Y-95152613D01*
X149736866Y-95239833D01*
X149662948Y-95320139D01*
X149600981Y-95382687D01*
X149564841Y-95413746D01*
X149513773Y-95439458D01*
X149433275Y-95469819D01*
X149363597Y-95491571D01*
X149263547Y-95526065D01*
X149168301Y-95568876D01*
X149120549Y-95596435D01*
X149039232Y-95640274D01*
X148954773Y-95669857D01*
X148939149Y-95673007D01*
X148863274Y-95678974D01*
X148863274Y-95526810D01*
X148958603Y-95510931D01*
X149041394Y-95467017D01*
X149120481Y-95425363D01*
X149221945Y-95385341D01*
X149287862Y-95365319D01*
X149377089Y-95337022D01*
X149451214Y-95298094D01*
X149527854Y-95237701D01*
X149589161Y-95180053D01*
X149703262Y-95062980D01*
X149779682Y-94965369D01*
X149821061Y-94875786D01*
X149830040Y-94782795D01*
X149809263Y-94674962D01*
X149761369Y-94540851D01*
X149745700Y-94502436D01*
X149698294Y-94378984D01*
X149670824Y-94279836D01*
X149658665Y-94184829D01*
X149656781Y-94114788D01*
X149647939Y-93986511D01*
X149623932Y-93835732D01*
X149595748Y-93713300D01*
X149564245Y-93574535D01*
X149537110Y-93418109D01*
X149519558Y-93274709D01*
X149518065Y-93256100D01*
X149493066Y-93044699D01*
X149451827Y-92855612D01*
X149397210Y-92701289D01*
X149384323Y-92674490D01*
X149363368Y-92616256D01*
X149339660Y-92524047D01*
X149317214Y-92414236D01*
X149309602Y-92369759D01*
X149279488Y-92224518D01*
X149238868Y-92085337D01*
X149199581Y-91986170D01*
X149156332Y-91911105D01*
X149094416Y-91822867D01*
X149022012Y-91730972D01*
X148947299Y-91644936D01*
X148878454Y-91574274D01*
X148823656Y-91528503D01*
X148795673Y-91516200D01*
X148769624Y-91533001D01*
X148779448Y-91580981D01*
X148824017Y-91656514D01*
X148850350Y-91692363D01*
X148930978Y-91797905D01*
X148985908Y-91873944D01*
X149020066Y-91931506D01*
X149038383Y-91981616D01*
X149045786Y-92035299D01*
X149047205Y-92103581D01*
X149047200Y-92132704D01*
X149049679Y-92231683D01*
X149061636Y-92302830D01*
X149089848Y-92368359D01*
X149141093Y-92450483D01*
X149146761Y-92458989D01*
X149206317Y-92557337D01*
X149240809Y-92644364D01*
X149259677Y-92746033D01*
X149263350Y-92779692D01*
X149285116Y-92931471D01*
X149320428Y-93103340D01*
X149364683Y-93276987D01*
X149413274Y-93434100D01*
X149455087Y-93542179D01*
X149488329Y-93622283D01*
X149501082Y-93679558D01*
X149495543Y-93736628D01*
X149479757Y-93796179D01*
X149458754Y-93881513D01*
X149446464Y-93956911D01*
X149445109Y-93980000D01*
X149447947Y-94030734D01*
X149455345Y-94119811D01*
X149466088Y-94235107D01*
X149478962Y-94364494D01*
X149492755Y-94495846D01*
X149506251Y-94617036D01*
X149518237Y-94715938D01*
X149520492Y-94733060D01*
X149513733Y-94860287D01*
X149461326Y-94975831D01*
X149367996Y-95074566D01*
X149238470Y-95151366D01*
X149091596Y-95198201D01*
X148965263Y-95235289D01*
X148862438Y-95284676D01*
X148788461Y-95341243D01*
X148748674Y-95399871D01*
X148748419Y-95455443D01*
X148781609Y-95495253D01*
X148863274Y-95526810D01*
X148863274Y-95678974D01*
X148862615Y-95679026D01*
X148791407Y-95667670D01*
X148718324Y-95634543D01*
X148636169Y-95575251D01*
X148537741Y-95485398D01*
X148415844Y-95360587D01*
X148400013Y-95343812D01*
X148298159Y-95236011D01*
X148223902Y-95159913D01*
X148170026Y-95110230D01*
X148129314Y-95081671D01*
X148094547Y-95068946D01*
X148058508Y-95066765D01*
X148025041Y-95068966D01*
X147884790Y-95077030D01*
X147768465Y-95074441D01*
X147654795Y-95059103D01*
X147522511Y-95028923D01*
X147465652Y-95013863D01*
X147335141Y-94980815D01*
X147240676Y-94966155D01*
X147169997Y-94972544D01*
X147110847Y-95002644D01*
X147050966Y-95059115D01*
X147003327Y-95114233D01*
X146908888Y-95227212D01*
X146739139Y-95210486D01*
X146620397Y-95204385D01*
X146531256Y-95214740D01*
X146474795Y-95233284D01*
X146413186Y-95264344D01*
X146386221Y-95301069D01*
X146379848Y-95363592D01*
X146379811Y-95369354D01*
X146378084Y-95424167D01*
X146369224Y-95467767D01*
X146346934Y-95511576D01*
X146304916Y-95567019D01*
X146236874Y-95645518D01*
X146212355Y-95673123D01*
X146108697Y-95789627D01*
X146032689Y-95873468D01*
X145977876Y-95929638D01*
X145937804Y-95963126D01*
X145906020Y-95978920D01*
X145876070Y-95982012D01*
X145841500Y-95977390D01*
X145822971Y-95974166D01*
X145750976Y-95969426D01*
X145676234Y-95983830D01*
X145579644Y-96021289D01*
X145568346Y-96026320D01*
X145494321Y-96058444D01*
X145437089Y-96077113D01*
X145380707Y-96083893D01*
X145316025Y-96080685D01*
X145316025Y-95899216D01*
X145373637Y-95887717D01*
X145435842Y-95861737D01*
X145471004Y-95844263D01*
X145601244Y-95794341D01*
X145742551Y-95765159D01*
X145756074Y-95763778D01*
X145834075Y-95754761D01*
X145891123Y-95739240D01*
X145942302Y-95709074D01*
X146002694Y-95656121D01*
X146059864Y-95599800D01*
X146209900Y-95449764D01*
X146205437Y-95301022D01*
X146208169Y-95202088D01*
X146222722Y-95143840D01*
X146232242Y-95132955D01*
X146276898Y-95117085D01*
X146356890Y-95098360D01*
X146457055Y-95079444D01*
X146562230Y-95063000D01*
X146657251Y-95051690D01*
X146715205Y-95048137D01*
X146786528Y-95036774D01*
X146857841Y-94999394D01*
X146925316Y-94946052D01*
X147007884Y-94884447D01*
X147094856Y-94834484D01*
X147142733Y-94815040D01*
X147196024Y-94802269D01*
X147248146Y-94800083D01*
X147312728Y-94810166D01*
X147403395Y-94834200D01*
X147476982Y-94856323D01*
X147590441Y-94889719D01*
X147670013Y-94908175D01*
X147729797Y-94913418D01*
X147783894Y-94907180D01*
X147820275Y-94898435D01*
X147914726Y-94879351D01*
X148009031Y-94869407D01*
X148026484Y-94869000D01*
X148107938Y-94857818D01*
X148164767Y-94828689D01*
X148183600Y-94792575D01*
X148170224Y-94762203D01*
X148148160Y-94728644D01*
X148127099Y-94709007D01*
X148090915Y-94693094D01*
X148031803Y-94679336D01*
X147941957Y-94666165D01*
X147813570Y-94652012D01*
X147722710Y-94643147D01*
X147568440Y-94629930D01*
X147414301Y-94619220D01*
X147275504Y-94611913D01*
X147167264Y-94608903D01*
X147142200Y-94608984D01*
X146828017Y-94614290D01*
X146556162Y-94620089D01*
X146328119Y-94626330D01*
X146145372Y-94632961D01*
X146009403Y-94639931D01*
X145921698Y-94647189D01*
X145889554Y-94652484D01*
X145843487Y-94669922D01*
X145827327Y-94698989D01*
X145832458Y-94757527D01*
X145834092Y-94767356D01*
X145830452Y-94894197D01*
X145810150Y-94958347D01*
X145785032Y-95052745D01*
X145775360Y-95165068D01*
X145775833Y-95190562D01*
X145775862Y-95275342D01*
X145762215Y-95331281D01*
X145727648Y-95379930D01*
X145703849Y-95404675D01*
X145614896Y-95468951D01*
X145514228Y-95495085D01*
X145433294Y-95512303D01*
X145329671Y-95545084D01*
X145228183Y-95585323D01*
X145128556Y-95626681D01*
X145050905Y-95648339D01*
X145006084Y-95651902D01*
X145006084Y-95481108D01*
X145149471Y-95440447D01*
X145190447Y-95418833D01*
X145281891Y-95375210D01*
X145379293Y-95343117D01*
X145409588Y-95336816D01*
X145508426Y-95304300D01*
X145566089Y-95246775D01*
X145579673Y-95167459D01*
X145577201Y-95151059D01*
X145577828Y-95086713D01*
X145594640Y-95003437D01*
X145604656Y-94971826D01*
X145632763Y-94839336D01*
X145629603Y-94717826D01*
X145622870Y-94625797D01*
X145630664Y-94560328D01*
X145659974Y-94516204D01*
X145717788Y-94488210D01*
X145811095Y-94471132D01*
X145946882Y-94459757D01*
X145978081Y-94457808D01*
X146157388Y-94452175D01*
X146334288Y-94455908D01*
X146482795Y-94468259D01*
X146595754Y-94481044D01*
X146679129Y-94483796D01*
X146753393Y-94475120D01*
X146839023Y-94453620D01*
X146880999Y-94441131D01*
X146984041Y-94412390D01*
X147063790Y-94399581D01*
X147144566Y-94400923D01*
X147248303Y-94414278D01*
X147369816Y-94429719D01*
X147517686Y-94442761D01*
X147699481Y-94453939D01*
X147922772Y-94463786D01*
X147980400Y-94465905D01*
X148047135Y-94462919D01*
X148131176Y-94452664D01*
X148148480Y-94449792D01*
X148253061Y-94431416D01*
X148271308Y-94528680D01*
X148293437Y-94613715D01*
X148322801Y-94690071D01*
X148325477Y-94695411D01*
X148346000Y-94760701D01*
X148359003Y-94851286D01*
X148361400Y-94906733D01*
X148374024Y-95034521D01*
X148414525Y-95124105D01*
X148486842Y-95182086D01*
X148537395Y-95201661D01*
X148589838Y-95214041D01*
X148637152Y-95212982D01*
X148694427Y-95195141D01*
X148776750Y-95157181D01*
X148807641Y-95141843D01*
X148908385Y-95095712D01*
X149006528Y-95057794D01*
X149081600Y-95035961D01*
X149084422Y-95035426D01*
X149213432Y-94999809D01*
X149298388Y-94946615D01*
X149343917Y-94872792D01*
X149346969Y-94862331D01*
X149357913Y-94812707D01*
X149360112Y-94766486D01*
X149351915Y-94709436D01*
X149331671Y-94627326D01*
X149311120Y-94553240D01*
X149292876Y-94461397D01*
X149280118Y-94345326D01*
X149276693Y-94262117D01*
X149276693Y-93726000D01*
X149316326Y-93707856D01*
X149325659Y-93663700D01*
X149303788Y-93608953D01*
X149284871Y-93586300D01*
X149248319Y-93558792D01*
X149217771Y-93570587D01*
X149206191Y-93581523D01*
X149186495Y-93630527D01*
X149202726Y-93683019D01*
X149245436Y-93719639D01*
X149276693Y-93726000D01*
X149276693Y-94262117D01*
X149275800Y-94240421D01*
X149273174Y-94130496D01*
X149260978Y-94049513D01*
X149232732Y-93978888D01*
X149181960Y-93900039D01*
X149135376Y-93837627D01*
X149070116Y-93746330D01*
X149037889Y-93677667D01*
X149037600Y-93616644D01*
X149068152Y-93548268D01*
X149109576Y-93484693D01*
X149159174Y-93410390D01*
X149183397Y-93361596D01*
X149186241Y-93322373D01*
X149171702Y-93276783D01*
X149165485Y-93261721D01*
X149147222Y-93197073D01*
X149129471Y-93098553D01*
X149115030Y-92983038D01*
X149110271Y-92928851D01*
X149099348Y-92807480D01*
X149085121Y-92720125D01*
X149063016Y-92650015D01*
X149028460Y-92580381D01*
X149003796Y-92538367D01*
X148938051Y-92406925D01*
X148906613Y-92280583D01*
X148903638Y-92252800D01*
X148892601Y-92141635D01*
X148878063Y-92063490D01*
X148853401Y-92000681D01*
X148811989Y-91935524D01*
X148758144Y-91864405D01*
X148687913Y-91760618D01*
X148619422Y-91637731D01*
X148575115Y-91540539D01*
X148508626Y-91403592D01*
X148422051Y-91289879D01*
X148306502Y-91190822D01*
X148153089Y-91097838D01*
X148076324Y-91059063D01*
X147963623Y-91003529D01*
X147850972Y-90946373D01*
X147758555Y-90897875D01*
X147739536Y-90887514D01*
X147612972Y-90817700D01*
X147041036Y-90815323D01*
X146808572Y-90815347D01*
X146620042Y-90818128D01*
X146468617Y-90824531D01*
X146347466Y-90835417D01*
X146249760Y-90851648D01*
X146168668Y-90874089D01*
X146097360Y-90903602D01*
X146029006Y-90941048D01*
X146024600Y-90943719D01*
X145919318Y-90998593D01*
X145800674Y-91047174D01*
X145733601Y-91068248D01*
X145640102Y-91098470D01*
X145557740Y-91134994D01*
X145517701Y-91160018D01*
X145412324Y-91244484D01*
X145336464Y-91301364D01*
X145280494Y-91335447D01*
X145234785Y-91351526D01*
X145189711Y-91354392D01*
X145137708Y-91349107D01*
X145060908Y-91343147D01*
X145011580Y-91355101D01*
X144967782Y-91391095D01*
X144960755Y-91398495D01*
X144918454Y-91458968D01*
X144912767Y-91522889D01*
X144916086Y-91542581D01*
X144921551Y-91600233D01*
X144909645Y-91655107D01*
X144875212Y-91716564D01*
X144813099Y-91793965D01*
X144725129Y-91889348D01*
X144619893Y-92009065D01*
X144551815Y-92112307D01*
X144515808Y-92210814D01*
X144506786Y-92316327D01*
X144511564Y-92382315D01*
X144517109Y-92475052D01*
X144507522Y-92557854D01*
X144479256Y-92653922D01*
X144463419Y-92697302D01*
X144431204Y-92789891D01*
X144408103Y-92869643D01*
X144399005Y-92919632D01*
X144398999Y-92920343D01*
X144416671Y-92991083D01*
X144462875Y-93078874D01*
X144527398Y-93167915D01*
X144600024Y-93242405D01*
X144614985Y-93254444D01*
X144667901Y-93302201D01*
X144695658Y-93342063D01*
X144696824Y-93353668D01*
X144668040Y-93373049D01*
X144605434Y-93389681D01*
X144562130Y-93395800D01*
X144437100Y-93408500D01*
X144445376Y-93624400D01*
X144448193Y-93732556D01*
X144444746Y-93804765D01*
X144432260Y-93855763D01*
X144407960Y-93900283D01*
X144388226Y-93927785D01*
X144335878Y-94008435D01*
X144323523Y-94060654D01*
X144352222Y-94088643D01*
X144423030Y-94096600D01*
X144430750Y-94096493D01*
X144538700Y-94094300D01*
X144535601Y-94221300D01*
X144532953Y-94309184D01*
X144528799Y-94424993D01*
X144523964Y-94545906D01*
X144523182Y-94564200D01*
X144521551Y-94687312D01*
X144525165Y-94833753D01*
X144533072Y-94986990D01*
X144544315Y-95130493D01*
X144557941Y-95247729D01*
X144565099Y-95290080D01*
X144594816Y-95335231D01*
X144661420Y-95387555D01*
X144702943Y-95412183D01*
X144856664Y-95471678D01*
X145006084Y-95481108D01*
X145006084Y-95651902D01*
X144972422Y-95654578D01*
X144881091Y-95650468D01*
X144789874Y-95645310D01*
X144739544Y-95647426D01*
X144720491Y-95658544D01*
X144722600Y-95678996D01*
X144768825Y-95757510D01*
X144847954Y-95816529D01*
X144965395Y-95858759D01*
X145126558Y-95886909D01*
X145141391Y-95888621D01*
X145244710Y-95898696D01*
X145316025Y-95899216D01*
X145316025Y-96080685D01*
X145309232Y-96080348D01*
X145206723Y-96068045D01*
X145179687Y-96064485D01*
X145061151Y-96046238D01*
X144948608Y-96024460D01*
X144860931Y-96002946D01*
X144839153Y-95996019D01*
X144733729Y-95937352D01*
X144625564Y-95839355D01*
X144524274Y-95711969D01*
X144457764Y-95601542D01*
X144426081Y-95536001D01*
X144404145Y-95472764D01*
X144389344Y-95398637D01*
X144379060Y-95300424D01*
X144370680Y-95164931D01*
X144370480Y-95161100D01*
X144356148Y-94931120D01*
X144338848Y-94745305D01*
X144317410Y-94597051D01*
X144290664Y-94479757D01*
X144257439Y-94386819D01*
X144221133Y-94318705D01*
X144162165Y-94187690D01*
X144143082Y-94051535D01*
X144164696Y-93923563D01*
G37*
X144164696Y-93923563D02*
X144193356Y-93862911D01*
X144213564Y-93821872D01*
X144227929Y-93769543D01*
X144237687Y-93696295D01*
X144244069Y-93592499D01*
X144248310Y-93448526D01*
X144248673Y-93431111D01*
X144249857Y-93292017D01*
X144248024Y-93161773D01*
X144243556Y-93053545D01*
X144236832Y-92980497D01*
X144235379Y-92971929D01*
X144227563Y-92908121D01*
X144234107Y-92848482D01*
X144258708Y-92775854D01*
X144295305Y-92693808D01*
X144337195Y-92599358D01*
X144359417Y-92528343D01*
X144365928Y-92459222D01*
X144360681Y-92370456D01*
X144358621Y-92348978D01*
X144356784Y-92186772D01*
X144390155Y-92051414D01*
X144463756Y-91928895D01*
X144538829Y-91846273D01*
X144602167Y-91780657D01*
X144636405Y-91729847D01*
X144650397Y-91674880D01*
X144652999Y-91601787D01*
X144676651Y-91464730D01*
X144742249Y-91344423D01*
X144841758Y-91248532D01*
X144967142Y-91184725D01*
X145110366Y-91160668D01*
X145115327Y-91160640D01*
X145199750Y-91154114D01*
X145261326Y-91127215D01*
X145318527Y-91077496D01*
X145396979Y-91002962D01*
X145459090Y-90956779D01*
X145522631Y-90929655D01*
X145605372Y-90912295D01*
X145645928Y-90906271D01*
X145745503Y-90886268D01*
X145834012Y-90852129D01*
X145931622Y-90795242D01*
X145976292Y-90765182D01*
X146061922Y-90708185D01*
X146130057Y-90671335D01*
X146198412Y-90648415D01*
X146284702Y-90633207D01*
X146384999Y-90621741D01*
X146551509Y-90610004D01*
X146688032Y-90614161D01*
X146777818Y-90627091D01*
X146871215Y-90641485D01*
X146952933Y-90643101D01*
X147045076Y-90631083D01*
X147130624Y-90613433D01*
X147321043Y-90582012D01*
X147486738Y-90581853D01*
X147641047Y-90615799D01*
X147797305Y-90686695D01*
X147958452Y-90789972D01*
X148072487Y-90854468D01*
X148195342Y-90885472D01*
X148217998Y-90888130D01*
X148407290Y-90932350D01*
X148578509Y-91023987D01*
X148731409Y-91162890D01*
X148798840Y-91247156D01*
X148879212Y-91353398D01*
X148975929Y-91474895D01*
X149071132Y-91589339D01*
X149093430Y-91615182D01*
X149224657Y-91787621D01*
X149334226Y-91974979D01*
X149415471Y-92163802D01*
X149461728Y-92340632D01*
X149465345Y-92366163D01*
X149484740Y-92475193D01*
X149513625Y-92586123D01*
X149531450Y-92637987D01*
X149577714Y-92771070D01*
X149619697Y-92920207D01*
X149653604Y-93069017D01*
X149675639Y-93201117D01*
X149682200Y-93288670D01*
X149688816Y-93366055D01*
X149706683Y-93475751D01*
X149732828Y-93601299D01*
X149755134Y-93692368D01*
X149793951Y-93855833D01*
X149814156Y-93982069D01*
X149817166Y-94080530D01*
X149815899Y-94097012D01*
X149813385Y-94169267D01*
X149823152Y-94240397D01*
X149848699Y-94325725D01*
X149893524Y-94440576D01*
X149895365Y-94445029D01*
X149960038Y-94633865D01*
X149986362Y-94794400D01*
X149974087Y-94924745D01*
X149962750Y-94957900D01*
X149935677Y-95000803D01*
X149882696Y-95069322D01*
X149813271Y-95152613D01*
X149736866Y-95239833D01*
X149662948Y-95320139D01*
X149600981Y-95382687D01*
X149564841Y-95413746D01*
X149513773Y-95439458D01*
X149433275Y-95469819D01*
X149363597Y-95491571D01*
X149263547Y-95526065D01*
X149168301Y-95568876D01*
X149120549Y-95596435D01*
X149039232Y-95640274D01*
X148954773Y-95669857D01*
X148939149Y-95673007D01*
X148863274Y-95678974D01*
X148863274Y-95526810D01*
X148958603Y-95510931D01*
X149041394Y-95467017D01*
X149120481Y-95425363D01*
X149221945Y-95385341D01*
X149287862Y-95365319D01*
X149377089Y-95337022D01*
X149451214Y-95298094D01*
X149527854Y-95237701D01*
X149589161Y-95180053D01*
X149703262Y-95062980D01*
X149779682Y-94965369D01*
X149821061Y-94875786D01*
X149830040Y-94782795D01*
X149809263Y-94674962D01*
X149761369Y-94540851D01*
X149745700Y-94502436D01*
X149698294Y-94378984D01*
X149670824Y-94279836D01*
X149658665Y-94184829D01*
X149656781Y-94114788D01*
X149647939Y-93986511D01*
X149623932Y-93835732D01*
X149595748Y-93713300D01*
X149564245Y-93574535D01*
X149537110Y-93418109D01*
X149519558Y-93274709D01*
X149518065Y-93256100D01*
X149493066Y-93044699D01*
X149451827Y-92855612D01*
X149397210Y-92701289D01*
X149384323Y-92674490D01*
X149363368Y-92616256D01*
X149339660Y-92524047D01*
X149317214Y-92414236D01*
X149309602Y-92369759D01*
X149279488Y-92224518D01*
X149238868Y-92085337D01*
X149199581Y-91986170D01*
X149156332Y-91911105D01*
X149094416Y-91822867D01*
X149022012Y-91730972D01*
X148947299Y-91644936D01*
X148878454Y-91574274D01*
X148823656Y-91528503D01*
X148795673Y-91516200D01*
X148769624Y-91533001D01*
X148779448Y-91580981D01*
X148824017Y-91656514D01*
X148850350Y-91692363D01*
X148930978Y-91797905D01*
X148985908Y-91873944D01*
X149020066Y-91931506D01*
X149038383Y-91981616D01*
X149045786Y-92035299D01*
X149047205Y-92103581D01*
X149047200Y-92132704D01*
X149049679Y-92231683D01*
X149061636Y-92302830D01*
X149089848Y-92368359D01*
X149141093Y-92450483D01*
X149146761Y-92458989D01*
X149206317Y-92557337D01*
X149240809Y-92644364D01*
X149259677Y-92746033D01*
X149263350Y-92779692D01*
X149285116Y-92931471D01*
X149320428Y-93103340D01*
X149364683Y-93276987D01*
X149413274Y-93434100D01*
X149455087Y-93542179D01*
X149488329Y-93622283D01*
X149501082Y-93679558D01*
X149495543Y-93736628D01*
X149479757Y-93796179D01*
X149458754Y-93881513D01*
X149446464Y-93956911D01*
X149445109Y-93980000D01*
X149447947Y-94030734D01*
X149455345Y-94119811D01*
X149466088Y-94235107D01*
X149478962Y-94364494D01*
X149492755Y-94495846D01*
X149506251Y-94617036D01*
X149518237Y-94715938D01*
X149520492Y-94733060D01*
X149513733Y-94860287D01*
X149461326Y-94975831D01*
X149367996Y-95074566D01*
X149238470Y-95151366D01*
X149091596Y-95198201D01*
X148965263Y-95235289D01*
X148862438Y-95284676D01*
X148788461Y-95341243D01*
X148748674Y-95399871D01*
X148748419Y-95455443D01*
X148781609Y-95495253D01*
X148863274Y-95526810D01*
X148863274Y-95678974D01*
X148862615Y-95679026D01*
X148791407Y-95667670D01*
X148718324Y-95634543D01*
X148636169Y-95575251D01*
X148537741Y-95485398D01*
X148415844Y-95360587D01*
X148400013Y-95343812D01*
X148298159Y-95236011D01*
X148223902Y-95159913D01*
X148170026Y-95110230D01*
X148129314Y-95081671D01*
X148094547Y-95068946D01*
X148058508Y-95066765D01*
X148025041Y-95068966D01*
X147884790Y-95077030D01*
X147768465Y-95074441D01*
X147654795Y-95059103D01*
X147522511Y-95028923D01*
X147465652Y-95013863D01*
X147335141Y-94980815D01*
X147240676Y-94966155D01*
X147169997Y-94972544D01*
X147110847Y-95002644D01*
X147050966Y-95059115D01*
X147003327Y-95114233D01*
X146908888Y-95227212D01*
X146739139Y-95210486D01*
X146620397Y-95204385D01*
X146531256Y-95214740D01*
X146474795Y-95233284D01*
X146413186Y-95264344D01*
X146386221Y-95301069D01*
X146379848Y-95363592D01*
X146379811Y-95369354D01*
X146378084Y-95424167D01*
X146369224Y-95467767D01*
X146346934Y-95511576D01*
X146304916Y-95567019D01*
X146236874Y-95645518D01*
X146212355Y-95673123D01*
X146108697Y-95789627D01*
X146032689Y-95873468D01*
X145977876Y-95929638D01*
X145937804Y-95963126D01*
X145906020Y-95978920D01*
X145876070Y-95982012D01*
X145841500Y-95977390D01*
X145822971Y-95974166D01*
X145750976Y-95969426D01*
X145676234Y-95983830D01*
X145579644Y-96021289D01*
X145568346Y-96026320D01*
X145494321Y-96058444D01*
X145437089Y-96077113D01*
X145380707Y-96083893D01*
X145316025Y-96080685D01*
X145316025Y-95899216D01*
X145373637Y-95887717D01*
X145435842Y-95861737D01*
X145471004Y-95844263D01*
X145601244Y-95794341D01*
X145742551Y-95765159D01*
X145756074Y-95763778D01*
X145834075Y-95754761D01*
X145891123Y-95739240D01*
X145942302Y-95709074D01*
X146002694Y-95656121D01*
X146059864Y-95599800D01*
X146209900Y-95449764D01*
X146205437Y-95301022D01*
X146208169Y-95202088D01*
X146222722Y-95143840D01*
X146232242Y-95132955D01*
X146276898Y-95117085D01*
X146356890Y-95098360D01*
X146457055Y-95079444D01*
X146562230Y-95063000D01*
X146657251Y-95051690D01*
X146715205Y-95048137D01*
X146786528Y-95036774D01*
X146857841Y-94999394D01*
X146925316Y-94946052D01*
X147007884Y-94884447D01*
X147094856Y-94834484D01*
X147142733Y-94815040D01*
X147196024Y-94802269D01*
X147248146Y-94800083D01*
X147312728Y-94810166D01*
X147403395Y-94834200D01*
X147476982Y-94856323D01*
X147590441Y-94889719D01*
X147670013Y-94908175D01*
X147729797Y-94913418D01*
X147783894Y-94907180D01*
X147820275Y-94898435D01*
X147914726Y-94879351D01*
X148009031Y-94869407D01*
X148026484Y-94869000D01*
X148107938Y-94857818D01*
X148164767Y-94828689D01*
X148183600Y-94792575D01*
X148170224Y-94762203D01*
X148148160Y-94728644D01*
X148127099Y-94709007D01*
X148090915Y-94693094D01*
X148031803Y-94679336D01*
X147941957Y-94666165D01*
X147813570Y-94652012D01*
X147722710Y-94643147D01*
X147568440Y-94629930D01*
X147414301Y-94619220D01*
X147275504Y-94611913D01*
X147167264Y-94608903D01*
X147142200Y-94608984D01*
X146828017Y-94614290D01*
X146556162Y-94620089D01*
X146328119Y-94626330D01*
X146145372Y-94632961D01*
X146009403Y-94639931D01*
X145921698Y-94647189D01*
X145889554Y-94652484D01*
X145843487Y-94669922D01*
X145827327Y-94698989D01*
X145832458Y-94757527D01*
X145834092Y-94767356D01*
X145830452Y-94894197D01*
X145810150Y-94958347D01*
X145785032Y-95052745D01*
X145775360Y-95165068D01*
X145775833Y-95190562D01*
X145775862Y-95275342D01*
X145762215Y-95331281D01*
X145727648Y-95379930D01*
X145703849Y-95404675D01*
X145614896Y-95468951D01*
X145514228Y-95495085D01*
X145433294Y-95512303D01*
X145329671Y-95545084D01*
X145228183Y-95585323D01*
X145128556Y-95626681D01*
X145050905Y-95648339D01*
X145006084Y-95651902D01*
X145006084Y-95481108D01*
X145149471Y-95440447D01*
X145190447Y-95418833D01*
X145281891Y-95375210D01*
X145379293Y-95343117D01*
X145409588Y-95336816D01*
X145508426Y-95304300D01*
X145566089Y-95246775D01*
X145579673Y-95167459D01*
X145577201Y-95151059D01*
X145577828Y-95086713D01*
X145594640Y-95003437D01*
X145604656Y-94971826D01*
X145632763Y-94839336D01*
X145629603Y-94717826D01*
X145622870Y-94625797D01*
X145630664Y-94560328D01*
X145659974Y-94516204D01*
X145717788Y-94488210D01*
X145811095Y-94471132D01*
X145946882Y-94459757D01*
X145978081Y-94457808D01*
X146157388Y-94452175D01*
X146334288Y-94455908D01*
X146482795Y-94468259D01*
X146595754Y-94481044D01*
X146679129Y-94483796D01*
X146753393Y-94475120D01*
X146839023Y-94453620D01*
X146880999Y-94441131D01*
X146984041Y-94412390D01*
X147063790Y-94399581D01*
X147144566Y-94400923D01*
X147248303Y-94414278D01*
X147369816Y-94429719D01*
X147517686Y-94442761D01*
X147699481Y-94453939D01*
X147922772Y-94463786D01*
X147980400Y-94465905D01*
X148047135Y-94462919D01*
X148131176Y-94452664D01*
X148148480Y-94449792D01*
X148253061Y-94431416D01*
X148271308Y-94528680D01*
X148293437Y-94613715D01*
X148322801Y-94690071D01*
X148325477Y-94695411D01*
X148346000Y-94760701D01*
X148359003Y-94851286D01*
X148361400Y-94906733D01*
X148374024Y-95034521D01*
X148414525Y-95124105D01*
X148486842Y-95182086D01*
X148537395Y-95201661D01*
X148589838Y-95214041D01*
X148637152Y-95212982D01*
X148694427Y-95195141D01*
X148776750Y-95157181D01*
X148807641Y-95141843D01*
X148908385Y-95095712D01*
X149006528Y-95057794D01*
X149081600Y-95035961D01*
X149084422Y-95035426D01*
X149213432Y-94999809D01*
X149298388Y-94946615D01*
X149343917Y-94872792D01*
X149346969Y-94862331D01*
X149357913Y-94812707D01*
X149360112Y-94766486D01*
X149351915Y-94709436D01*
X149331671Y-94627326D01*
X149311120Y-94553240D01*
X149292876Y-94461397D01*
X149280118Y-94345326D01*
X149276693Y-94262117D01*
X149276693Y-93726000D01*
X149316326Y-93707856D01*
X149325659Y-93663700D01*
X149303788Y-93608953D01*
X149284871Y-93586300D01*
X149248319Y-93558792D01*
X149217771Y-93570587D01*
X149206191Y-93581523D01*
X149186495Y-93630527D01*
X149202726Y-93683019D01*
X149245436Y-93719639D01*
X149276693Y-93726000D01*
X149276693Y-94262117D01*
X149275800Y-94240421D01*
X149273174Y-94130496D01*
X149260978Y-94049513D01*
X149232732Y-93978888D01*
X149181960Y-93900039D01*
X149135376Y-93837627D01*
X149070116Y-93746330D01*
X149037889Y-93677667D01*
X149037600Y-93616644D01*
X149068152Y-93548268D01*
X149109576Y-93484693D01*
X149159174Y-93410390D01*
X149183397Y-93361596D01*
X149186241Y-93322373D01*
X149171702Y-93276783D01*
X149165485Y-93261721D01*
X149147222Y-93197073D01*
X149129471Y-93098553D01*
X149115030Y-92983038D01*
X149110271Y-92928851D01*
X149099348Y-92807480D01*
X149085121Y-92720125D01*
X149063016Y-92650015D01*
X149028460Y-92580381D01*
X149003796Y-92538367D01*
X148938051Y-92406925D01*
X148906613Y-92280583D01*
X148903638Y-92252800D01*
X148892601Y-92141635D01*
X148878063Y-92063490D01*
X148853401Y-92000681D01*
X148811989Y-91935524D01*
X148758144Y-91864405D01*
X148687913Y-91760618D01*
X148619422Y-91637731D01*
X148575115Y-91540539D01*
X148508626Y-91403592D01*
X148422051Y-91289879D01*
X148306502Y-91190822D01*
X148153089Y-91097838D01*
X148076324Y-91059063D01*
X147963623Y-91003529D01*
X147850972Y-90946373D01*
X147758555Y-90897875D01*
X147739536Y-90887514D01*
X147612972Y-90817700D01*
X147041036Y-90815323D01*
X146808572Y-90815347D01*
X146620042Y-90818128D01*
X146468617Y-90824531D01*
X146347466Y-90835417D01*
X146249760Y-90851648D01*
X146168668Y-90874089D01*
X146097360Y-90903602D01*
X146029006Y-90941048D01*
X146024600Y-90943719D01*
X145919318Y-90998593D01*
X145800674Y-91047174D01*
X145733601Y-91068248D01*
X145640102Y-91098470D01*
X145557740Y-91134994D01*
X145517701Y-91160018D01*
X145412324Y-91244484D01*
X145336464Y-91301364D01*
X145280494Y-91335447D01*
X145234785Y-91351526D01*
X145189711Y-91354392D01*
X145137708Y-91349107D01*
X145060908Y-91343147D01*
X145011580Y-91355101D01*
X144967782Y-91391095D01*
X144960755Y-91398495D01*
X144918454Y-91458968D01*
X144912767Y-91522889D01*
X144916086Y-91542581D01*
X144921551Y-91600233D01*
X144909645Y-91655107D01*
X144875212Y-91716564D01*
X144813099Y-91793965D01*
X144725129Y-91889348D01*
X144619893Y-92009065D01*
X144551815Y-92112307D01*
X144515808Y-92210814D01*
X144506786Y-92316327D01*
X144511564Y-92382315D01*
X144517109Y-92475052D01*
X144507522Y-92557854D01*
X144479256Y-92653922D01*
X144463419Y-92697302D01*
X144431204Y-92789891D01*
X144408103Y-92869643D01*
X144399005Y-92919632D01*
X144398999Y-92920343D01*
X144416671Y-92991083D01*
X144462875Y-93078874D01*
X144527398Y-93167915D01*
X144600024Y-93242405D01*
X144614985Y-93254444D01*
X144667901Y-93302201D01*
X144695658Y-93342063D01*
X144696824Y-93353668D01*
X144668040Y-93373049D01*
X144605434Y-93389681D01*
X144562130Y-93395800D01*
X144437100Y-93408500D01*
X144445376Y-93624400D01*
X144448193Y-93732556D01*
X144444746Y-93804765D01*
X144432260Y-93855763D01*
X144407960Y-93900283D01*
X144388226Y-93927785D01*
X144335878Y-94008435D01*
X144323523Y-94060654D01*
X144352222Y-94088643D01*
X144423030Y-94096600D01*
X144430750Y-94096493D01*
X144538700Y-94094300D01*
X144535601Y-94221300D01*
X144532953Y-94309184D01*
X144528799Y-94424993D01*
X144523964Y-94545906D01*
X144523182Y-94564200D01*
X144521551Y-94687312D01*
X144525165Y-94833753D01*
X144533072Y-94986990D01*
X144544315Y-95130493D01*
X144557941Y-95247729D01*
X144565099Y-95290080D01*
X144594816Y-95335231D01*
X144661420Y-95387555D01*
X144702943Y-95412183D01*
X144856664Y-95471678D01*
X145006084Y-95481108D01*
X145006084Y-95651902D01*
X144972422Y-95654578D01*
X144881091Y-95650468D01*
X144789874Y-95645310D01*
X144739544Y-95647426D01*
X144720491Y-95658544D01*
X144722600Y-95678996D01*
X144768825Y-95757510D01*
X144847954Y-95816529D01*
X144965395Y-95858759D01*
X145126558Y-95886909D01*
X145141391Y-95888621D01*
X145244710Y-95898696D01*
X145316025Y-95899216D01*
X145316025Y-96080685D01*
X145309232Y-96080348D01*
X145206723Y-96068045D01*
X145179687Y-96064485D01*
X145061151Y-96046238D01*
X144948608Y-96024460D01*
X144860931Y-96002946D01*
X144839153Y-95996019D01*
X144733729Y-95937352D01*
X144625564Y-95839355D01*
X144524274Y-95711969D01*
X144457764Y-95601542D01*
X144426081Y-95536001D01*
X144404145Y-95472764D01*
X144389344Y-95398637D01*
X144379060Y-95300424D01*
X144370680Y-95164931D01*
X144370480Y-95161100D01*
X144356148Y-94931120D01*
X144338848Y-94745305D01*
X144317410Y-94597051D01*
X144290664Y-94479757D01*
X144257439Y-94386819D01*
X144221133Y-94318705D01*
X144162165Y-94187690D01*
X144143082Y-94051535D01*
X144164696Y-93923563D01*
D12*
X137049000Y-78958000D02*
X139049000Y-78958000D01*
X139049000Y-78958000D02*
X139049000Y-75058000D01*
X137049000Y-78958000D02*
X137049000Y-75058000D01*
X119248422Y-107748000D02*
X119765578Y-107748000D01*
X119248422Y-109168000D02*
X119765578Y-109168000D01*
X153233000Y-91946000D02*
X153233000Y-90486000D01*
X156393000Y-91946000D02*
X156393000Y-89786000D01*
X156393000Y-91946000D02*
X155463000Y-91946000D01*
X153233000Y-91946000D02*
X154163000Y-91946000D01*
X143637000Y-53635000D02*
X142137000Y-53635000D01*
X143637000Y-53635000D02*
X145137000Y-53635000D01*
X143637000Y-56855000D02*
X142137000Y-56855000D01*
X143637000Y-56855000D02*
X146562000Y-56855000D01*
X154940000Y-104226000D02*
X156440000Y-104226000D01*
X154940000Y-104226000D02*
X153440000Y-104226000D01*
X154940000Y-101006000D02*
X156440000Y-101006000D01*
X154940000Y-101006000D02*
X152015000Y-101006000D01*
X154559000Y-58252000D02*
X156059000Y-58252000D01*
X154559000Y-58252000D02*
X153059000Y-58252000D01*
X154559000Y-55032000D02*
X156059000Y-55032000D01*
X154559000Y-55032000D02*
X151634000Y-55032000D01*
X167259000Y-88224000D02*
X168759000Y-88224000D01*
X167259000Y-88224000D02*
X165759000Y-88224000D01*
X167259000Y-85004000D02*
X168759000Y-85004000D01*
X167259000Y-85004000D02*
X164334000Y-85004000D01*
X155706578Y-54431000D02*
X155189422Y-54431000D01*
X155706578Y-53011000D02*
X155189422Y-53011000D01*
X169540422Y-82475000D02*
X170057578Y-82475000D01*
X169540422Y-83895000D02*
X170057578Y-83895000D01*
X127837000Y-116209578D02*
X127837000Y-115692422D01*
X126417000Y-116209578D02*
X126417000Y-115692422D01*
X130123000Y-116209578D02*
X130123000Y-115692422D01*
X128703000Y-116209578D02*
X128703000Y-115692422D01*
X105062000Y-104425000D02*
X105062000Y-113615000D01*
X114472000Y-104545000D02*
X114472000Y-113495000D01*
X107792000Y-113615000D02*
X105062000Y-113615000D01*
X107792000Y-104425000D02*
X105062000Y-104425000D01*
X111392000Y-113615000D02*
X110492000Y-113615000D01*
X111392000Y-104425000D02*
X110492000Y-104425000D01*
X173054000Y-76153000D02*
X183054000Y-76153000D01*
X183054000Y-76153000D02*
X183054000Y-86153000D01*
X183054000Y-86153000D02*
X173054000Y-86153000D01*
X173054000Y-86153000D02*
X173054000Y-76153000D01*
X141924000Y-117729000D02*
G75*
G03*
X141924000Y-117729000I-700000J0D01*
G01*
X127700000Y-110236000D02*
G75*
G03*
X127700000Y-110236000I-700000J0D01*
G01*
X159069000Y-91948000D02*
G75*
G03*
X159069000Y-91948000I-700000J0D01*
G01*
X153227000Y-80772000D02*
G75*
G03*
X153227000Y-80772000I-700000J0D01*
G01*
X149163000Y-77978000D02*
G75*
G03*
X149163000Y-77978000I-700000J0D01*
G01*
D13*
X210269000Y-131653000D02*
X210269000Y-121653000D01*
X210269000Y-121653000D02*
X210269000Y-95653000D01*
X210269000Y-95653000D02*
X210269000Y-85903000D01*
X210269000Y-85903000D02*
X210269000Y-84833000D01*
X210269000Y-84833000D02*
X210269000Y-77473000D01*
X210269000Y-77473000D02*
X210269000Y-76403000D01*
X210269000Y-76403000D02*
X210269000Y-66653000D01*
X210269000Y-66653000D02*
X210269000Y-40653000D01*
X210269000Y-40653000D02*
X210269000Y-30653000D01*
X210269000Y-30653000D02*
X222129000Y-30653000D01*
X222129000Y-30653000D02*
X222129000Y-131653000D01*
X222129000Y-131653000D02*
X210269000Y-131653000D01*
X210269000Y-85903000D02*
X203839000Y-85903000D01*
X203839000Y-85903000D02*
X203839000Y-84833000D01*
X203839000Y-84833000D02*
X203839000Y-82778000D01*
X203839000Y-79528000D02*
X203839000Y-77473000D01*
X203839000Y-77473000D02*
X203839000Y-76403000D01*
X203839000Y-76403000D02*
X210269000Y-76403000D01*
X210269000Y-84833000D02*
X203839000Y-84833000D01*
X210269000Y-77473000D02*
X203839000Y-77473000D01*
X222129000Y-131653000D02*
X237879000Y-131653000D01*
X237879000Y-131653000D02*
X237879000Y-30653000D01*
X237879000Y-30653000D02*
X222129000Y-30653000D01*
X203839000Y-82778000D02*
X207214000Y-82778000D01*
X207214000Y-79528000D02*
X203839000Y-79528000D01*
X210269000Y-121653000D02*
X198969000Y-121653000D01*
X198969000Y-121653000D02*
X198969000Y-95653000D01*
X198969000Y-95653000D02*
X210269000Y-95653000D01*
X210269000Y-66653000D02*
X198969000Y-66653000D01*
X198969000Y-66653000D02*
X198969000Y-40653000D01*
X198969000Y-40653000D02*
X210269000Y-40653000D01*
D15*
X207559000Y-94903000D02*
G75*
G03*
X207559000Y-94903000I-200000J0D01*
G01*
D13*
X207214000Y-82778000D02*
G75*
G03*
X208839000Y-81153000I0J1625000D01*
G01*
X208839000Y-81153000D02*
G75*
G03*
X207214000Y-79528000I-1625000J0D01*
G01*
D16*
G36*
X145885000Y-98876000D02*
G01*
X146285000Y-98876000D01*
X146285000Y-99576000D01*
X145885000Y-99576000D01*
X145885000Y-98876000D01*
G37*
X145885000Y-98876000D02*
X146285000Y-98876000D01*
X146285000Y-99576000D01*
X145885000Y-99576000D01*
X145885000Y-98876000D01*
G36*
X145885000Y-100576000D02*
G01*
X146285000Y-100576000D01*
X146285000Y-101276000D01*
X145885000Y-101276000D01*
X145885000Y-100576000D01*
G37*
X145885000Y-100576000D02*
X146285000Y-100576000D01*
X146285000Y-101276000D01*
X145885000Y-101276000D01*
X145885000Y-100576000D01*
D12*
X147985000Y-99576000D02*
X147985000Y-100576000D01*
X145385000Y-99576000D02*
X147985000Y-99576000D01*
X145385000Y-100576000D02*
X145385000Y-99576000D01*
X147985000Y-100576000D02*
X145385000Y-100576000D01*
X149385000Y-98826000D02*
X149385000Y-101326000D01*
X143985000Y-98826000D02*
X149385000Y-98826000D01*
X143985000Y-101326000D02*
X143985000Y-98826000D01*
X149385000Y-101326000D02*
X143985000Y-101326000D01*
X137339000Y-93594422D02*
X137339000Y-94111578D01*
X138759000Y-93594422D02*
X138759000Y-94111578D01*
X137212000Y-90038422D02*
X137212000Y-90555578D01*
X138632000Y-90038422D02*
X138632000Y-90555578D01*
X139625000Y-90038422D02*
X139625000Y-90555578D01*
X141045000Y-90038422D02*
X141045000Y-90555578D01*
D16*
X133478000Y-44768000D02*
X133778000Y-44768000D01*
X133478000Y-45143000D02*
X133478000Y-44768000D01*
X136778000Y-44768000D02*
X136778000Y-45218000D01*
X136478000Y-44768000D02*
X136778000Y-44768000D01*
X136553000Y-44768000D02*
X136428000Y-44768000D01*
X136778000Y-46418000D02*
X136428000Y-46418000D01*
X136778000Y-45943000D02*
X136778000Y-46418000D01*
X133803000Y-46418000D02*
X133803000Y-47193000D01*
X133753000Y-46418000D02*
X133803000Y-46418000D01*
X133478000Y-46043000D02*
X133753000Y-46418000D01*
X133478000Y-45768000D02*
X133478000Y-46043000D01*
G36*
X140995500Y-47758500D02*
G01*
X141395500Y-47758500D01*
X141395500Y-48458500D01*
X140995500Y-48458500D01*
X140995500Y-47758500D01*
G37*
X140995500Y-47758500D02*
X141395500Y-47758500D01*
X141395500Y-48458500D01*
X140995500Y-48458500D01*
X140995500Y-47758500D01*
G36*
X140995500Y-49458500D02*
G01*
X141395500Y-49458500D01*
X141395500Y-50158500D01*
X140995500Y-50158500D01*
X140995500Y-49458500D01*
G37*
X140995500Y-49458500D02*
X141395500Y-49458500D01*
X141395500Y-50158500D01*
X140995500Y-50158500D01*
X140995500Y-49458500D01*
D12*
X143095500Y-48458500D02*
X143095500Y-49458500D01*
X140495500Y-48458500D02*
X143095500Y-48458500D01*
X140495500Y-49458500D02*
X140495500Y-48458500D01*
X143095500Y-49458500D02*
X140495500Y-49458500D01*
X144495500Y-47708500D02*
X144495500Y-50208500D01*
X139095500Y-47708500D02*
X144495500Y-47708500D01*
X139095500Y-50208500D02*
X139095500Y-47708500D01*
X144495500Y-50208500D02*
X139095500Y-50208500D01*
D16*
X154459000Y-78483000D02*
X154459000Y-78183000D01*
X154834000Y-78483000D02*
X154459000Y-78483000D01*
X161009000Y-78483000D02*
X161009000Y-78083000D01*
X160509000Y-78483000D02*
X161009000Y-78483000D01*
X154459000Y-74933000D02*
X154909000Y-74933000D01*
X154459000Y-75408000D02*
X154459000Y-74933000D01*
X160709000Y-74933000D02*
X160709000Y-74738000D01*
X161009000Y-75258000D02*
X160709000Y-74933000D01*
X161009000Y-75733000D02*
X161009000Y-75258000D01*
D11*
X155209000Y-87419000D02*
X155209000Y-88819000D01*
X160309000Y-87419000D02*
X160309000Y-83269000D01*
X155159000Y-87419000D02*
X155159000Y-83269000D01*
X160309000Y-87419000D02*
X160164000Y-87419000D01*
X160309000Y-83269000D02*
X160164000Y-83269000D01*
X155159000Y-83269000D02*
X155304000Y-83269000D01*
X155159000Y-87419000D02*
X155209000Y-87419000D01*
D16*
X117533000Y-100769000D02*
X117133000Y-100769000D01*
X117533000Y-100769000D02*
X117533000Y-100344000D01*
X112058000Y-100794000D02*
X112483000Y-100794000D01*
X112058000Y-100794000D02*
X112058000Y-100319000D01*
X112058000Y-95319000D02*
X112058000Y-95719000D01*
X112058000Y-95319000D02*
X112458000Y-95319000D01*
X117108000Y-95294000D02*
X117108000Y-94244000D01*
X117558000Y-95294000D02*
X117108000Y-95294000D01*
X117558000Y-95794000D02*
X117558000Y-95294000D01*
D12*
X134813000Y-75644000D02*
X134813000Y-67244000D01*
X132413000Y-78044000D02*
X134813000Y-75644000D01*
X126413000Y-78044000D02*
X132413000Y-78044000D01*
X124013000Y-75644000D02*
X126413000Y-78044000D01*
X124013000Y-67244000D02*
X124013000Y-75644000D01*
X134813000Y-67244000D02*
X124013000Y-67244000D01*
X134663000Y-72644000D02*
G75*
G03*
X134663000Y-72644000I-5250000J0D01*
G01*
D16*
G36*
X165646000Y-80321000D02*
G01*
X165246000Y-80321000D01*
X165246000Y-79621000D01*
X165646000Y-79621000D01*
X165646000Y-80321000D01*
G37*
X165646000Y-80321000D02*
X165246000Y-80321000D01*
X165246000Y-79621000D01*
X165646000Y-79621000D01*
X165646000Y-80321000D01*
G36*
X165646000Y-78621000D02*
G01*
X165246000Y-78621000D01*
X165246000Y-77921000D01*
X165646000Y-77921000D01*
X165646000Y-78621000D01*
G37*
X165646000Y-78621000D02*
X165246000Y-78621000D01*
X165246000Y-77921000D01*
X165646000Y-77921000D01*
X165646000Y-78621000D01*
D12*
X163546000Y-79621000D02*
X163546000Y-78621000D01*
X166146000Y-79621000D02*
X163546000Y-79621000D01*
X166146000Y-78621000D02*
X166146000Y-79621000D01*
X163546000Y-78621000D02*
X166146000Y-78621000D01*
X162146000Y-80371000D02*
X162146000Y-77871000D01*
X167546000Y-80371000D02*
X162146000Y-80371000D01*
X167546000Y-77871000D02*
X167546000Y-80371000D01*
X162146000Y-77871000D02*
X167546000Y-77871000D01*
X162508000Y-85085422D02*
X162508000Y-85602578D01*
X161088000Y-85085422D02*
X161088000Y-85602578D01*
X113776000Y-79665000D02*
X111776000Y-79665000D01*
X111776000Y-79665000D02*
X111776000Y-83565000D01*
X113776000Y-79665000D02*
X113776000Y-83565000D01*
X135076000Y-79887578D02*
X135076000Y-79370422D01*
X133656000Y-79887578D02*
X133656000Y-79370422D01*
X138466000Y-79645000D02*
X142366000Y-79645000D01*
X138466000Y-81645000D02*
X142366000Y-81645000D01*
X138466000Y-79645000D02*
X138466000Y-81645000D01*
X136196000Y-81275422D02*
X136196000Y-81792578D01*
X137616000Y-81275422D02*
X137616000Y-81792578D01*
X139060422Y-45414000D02*
X139577578Y-45414000D01*
X139060422Y-43994000D02*
X139577578Y-43994000D01*
X153723078Y-45327500D02*
X153205922Y-45327500D01*
X153723078Y-46747500D02*
X153205922Y-46747500D01*
X151896578Y-52947500D02*
X151379422Y-52947500D01*
X151896578Y-54367500D02*
X151379422Y-54367500D01*
X146816578Y-113971000D02*
X146299422Y-113971000D01*
X146816578Y-115391000D02*
X146299422Y-115391000D01*
X165993578Y-114098000D02*
X165476422Y-114098000D01*
X165993578Y-115518000D02*
X165476422Y-115518000D01*
X154309578Y-113971000D02*
X153792422Y-113971000D01*
X154309578Y-115391000D02*
X153792422Y-115391000D01*
X150626578Y-113971000D02*
X150109422Y-113971000D01*
X150626578Y-115391000D02*
X150109422Y-115391000D01*
X172564000Y-98869500D02*
X172564000Y-95269500D01*
X172564000Y-98869500D02*
X172564000Y-101069500D01*
X164494000Y-98869500D02*
X164494000Y-96669500D01*
X164494000Y-98869500D02*
X164494000Y-101069500D01*
X154380000Y-85085422D02*
X154380000Y-85602578D01*
X152960000Y-85085422D02*
X152960000Y-85602578D01*
X200100000Y-84767922D02*
X200100000Y-85285078D01*
X198680000Y-84767922D02*
X198680000Y-85285078D01*
D16*
X138916000Y-102872000D02*
X139416000Y-102872000D01*
X138916000Y-103072000D02*
X138916000Y-102872000D01*
X142516000Y-102872000D02*
X142016000Y-102872000D01*
X142516000Y-103072000D02*
X142516000Y-102872000D01*
X142516000Y-109472000D02*
X141916000Y-109472000D01*
X142516000Y-109272000D02*
X142516000Y-109472000D01*
X138916000Y-109272000D02*
X138916000Y-109472000D01*
X138916000Y-109472000D02*
X139416000Y-109472000D01*
D12*
X161850000Y-75188578D02*
X161850000Y-74671422D01*
X163270000Y-75188578D02*
X163270000Y-74671422D01*
X154817578Y-71703000D02*
X154300422Y-71703000D01*
X154817578Y-70283000D02*
X154300422Y-70283000D01*
X141727422Y-74093000D02*
X142244578Y-74093000D01*
X141727422Y-75513000D02*
X142244578Y-75513000D01*
X152856000Y-64892422D02*
X152856000Y-65409578D01*
X151436000Y-64892422D02*
X151436000Y-65409578D01*
D16*
X189633000Y-84753000D02*
X189633000Y-84353000D01*
X186033000Y-84753000D02*
X186033000Y-84353000D01*
X190933000Y-77553000D02*
X190933000Y-78053000D01*
X190933000Y-77553000D02*
X190433000Y-77553000D01*
X190933000Y-84753000D02*
X189633000Y-84753000D01*
X190933000Y-84753000D02*
X190933000Y-84253000D01*
X184733000Y-84753000D02*
X186033000Y-84753000D01*
X184733000Y-84753000D02*
X184733000Y-84253000D01*
X184733000Y-77553000D02*
X185233000Y-77553000D01*
X184733000Y-77553000D02*
X184733000Y-78053000D01*
X184733000Y-84653000D02*
X186033000Y-84653000D01*
X184733000Y-84553000D02*
X186033000Y-84553000D01*
X184733000Y-84453000D02*
X186033000Y-84453000D01*
X184733000Y-84353000D02*
X186033000Y-84353000D01*
X190933000Y-84653000D02*
X189633000Y-84653000D01*
X190933000Y-84553000D02*
X189633000Y-84553000D01*
X190933000Y-84453000D02*
X189633000Y-84453000D01*
X190933000Y-84353000D02*
X189633000Y-84353000D01*
D12*
X128548000Y-54342000D02*
X129838000Y-54342000D01*
X128548000Y-54617000D02*
X128548000Y-54342000D01*
X126238000Y-54617000D02*
X128548000Y-54617000D01*
X123928000Y-54617000D02*
X123928000Y-54342000D01*
X126238000Y-54617000D02*
X123928000Y-54617000D01*
X128548000Y-44697000D02*
X128548000Y-44972000D01*
X126238000Y-44697000D02*
X128548000Y-44697000D01*
X123928000Y-44697000D02*
X123928000Y-44972000D01*
X126238000Y-44697000D02*
X123928000Y-44697000D01*
X124337578Y-116003000D02*
X123820422Y-116003000D01*
X124337578Y-117423000D02*
X123820422Y-117423000D01*
X120137422Y-117423000D02*
X120654578Y-117423000D01*
X120137422Y-116003000D02*
X120654578Y-116003000D01*
X125979000Y-113245000D02*
X122829000Y-113245000D01*
X125979000Y-111545000D02*
X122829000Y-111545000D01*
X125979000Y-113245000D02*
X125979000Y-111545000D01*
X172725000Y-47537000D02*
X175875000Y-47537000D01*
X172725000Y-49237000D02*
X175875000Y-49237000D01*
X172725000Y-47537000D02*
X172725000Y-49237000D01*
X176535000Y-55792000D02*
X179685000Y-55792000D01*
X176535000Y-57492000D02*
X179685000Y-57492000D01*
X176535000Y-55792000D02*
X176535000Y-57492000D01*
X172681500Y-115609000D02*
X175831500Y-115609000D01*
X172681500Y-117309000D02*
X175831500Y-117309000D01*
X172681500Y-115609000D02*
X172681500Y-117309000D01*
X173169500Y-107798500D02*
X176319500Y-107798500D01*
X173169500Y-109498500D02*
X176319500Y-109498500D01*
X173169500Y-107798500D02*
X173169500Y-109498500D01*
X178567000Y-97003500D02*
X181717000Y-97003500D01*
X178567000Y-98703500D02*
X181717000Y-98703500D01*
X178567000Y-97003500D02*
X178567000Y-98703500D01*
X178811000Y-91401000D02*
X175661000Y-91401000D01*
X178811000Y-89701000D02*
X175661000Y-89701000D01*
X178811000Y-91401000D02*
X178811000Y-89701000D01*
X178948000Y-65444000D02*
X182098000Y-65444000D01*
X178948000Y-67144000D02*
X182098000Y-67144000D01*
X178948000Y-65444000D02*
X178948000Y-67144000D01*
X178821000Y-73191000D02*
X181971000Y-73191000D01*
X178821000Y-74891000D02*
X181971000Y-74891000D01*
X178821000Y-73191000D02*
X178821000Y-74891000D01*
X192829922Y-84911000D02*
X193347078Y-84911000D01*
X192829922Y-83491000D02*
X193347078Y-83491000D01*
X124337578Y-113844000D02*
X123820422Y-113844000D01*
X124337578Y-115264000D02*
X123820422Y-115264000D01*
D16*
X197236080Y-100373180D02*
X196776340Y-100373180D01*
X196776340Y-100373180D02*
X196776340Y-100296980D01*
X196776340Y-100296980D02*
X197236080Y-100296980D01*
X197236080Y-100296980D02*
X197236080Y-100373180D01*
X194434460Y-100373180D02*
X194899280Y-100373180D01*
X194899280Y-100373180D02*
X194899280Y-100296980D01*
X194899280Y-100296980D02*
X194434460Y-100296980D01*
X194434460Y-100296980D02*
X194434460Y-100373180D01*
X197234000Y-96683000D02*
X197234000Y-97083000D01*
X197234000Y-96683000D02*
X196834000Y-96683000D01*
X197234000Y-101183000D02*
X197234000Y-100783000D01*
X197234000Y-101183000D02*
X196834000Y-101183000D01*
X194434000Y-101183000D02*
X194834000Y-101183000D01*
X194434000Y-101183000D02*
X194434000Y-100783000D01*
X194434000Y-96683000D02*
X194434000Y-97083000D01*
X194434000Y-96683000D02*
X194834000Y-96683000D01*
X197236080Y-90848180D02*
X196776340Y-90848180D01*
X196776340Y-90848180D02*
X196776340Y-90771980D01*
X196776340Y-90771980D02*
X197236080Y-90771980D01*
X197236080Y-90771980D02*
X197236080Y-90848180D01*
X194434460Y-90848180D02*
X194899280Y-90848180D01*
X194899280Y-90848180D02*
X194899280Y-90771980D01*
X194899280Y-90771980D02*
X194434460Y-90771980D01*
X194434460Y-90771980D02*
X194434460Y-90848180D01*
X197234000Y-87158000D02*
X197234000Y-87558000D01*
X197234000Y-87158000D02*
X196834000Y-87158000D01*
X197234000Y-91658000D02*
X197234000Y-91258000D01*
X197234000Y-91658000D02*
X196834000Y-91658000D01*
X194434000Y-91658000D02*
X194834000Y-91658000D01*
X194434000Y-91658000D02*
X194434000Y-91258000D01*
X194434000Y-87158000D02*
X194434000Y-87558000D01*
X194434000Y-87158000D02*
X194834000Y-87158000D01*
X194431920Y-61805820D02*
X194891660Y-61805820D01*
X194891660Y-61805820D02*
X194891660Y-61882020D01*
X194891660Y-61882020D02*
X194431920Y-61882020D01*
X194431920Y-61882020D02*
X194431920Y-61805820D01*
X197233540Y-61805820D02*
X196768720Y-61805820D01*
X196768720Y-61805820D02*
X196768720Y-61882020D01*
X196768720Y-61882020D02*
X197233540Y-61882020D01*
X197233540Y-61882020D02*
X197233540Y-61805820D01*
X194434000Y-65496000D02*
X194434000Y-65096000D01*
X194434000Y-65496000D02*
X194834000Y-65496000D01*
X194434000Y-60996000D02*
X194434000Y-61396000D01*
X194434000Y-60996000D02*
X194834000Y-60996000D01*
X197234000Y-60996000D02*
X196834000Y-60996000D01*
X197234000Y-60996000D02*
X197234000Y-61396000D01*
X197234000Y-65496000D02*
X197234000Y-65096000D01*
X197234000Y-65496000D02*
X196834000Y-65496000D01*
X194431920Y-71457820D02*
X194891660Y-71457820D01*
X194891660Y-71457820D02*
X194891660Y-71534020D01*
X194891660Y-71534020D02*
X194431920Y-71534020D01*
X194431920Y-71534020D02*
X194431920Y-71457820D01*
X197233540Y-71457820D02*
X196768720Y-71457820D01*
X196768720Y-71457820D02*
X196768720Y-71534020D01*
X196768720Y-71534020D02*
X197233540Y-71534020D01*
X197233540Y-71534020D02*
X197233540Y-71457820D01*
X194434000Y-75148000D02*
X194434000Y-74748000D01*
X194434000Y-75148000D02*
X194834000Y-75148000D01*
X194434000Y-70648000D02*
X194434000Y-71048000D01*
X194434000Y-70648000D02*
X194834000Y-70648000D01*
X197234000Y-70648000D02*
X196834000Y-70648000D01*
X197234000Y-70648000D02*
X197234000Y-71048000D01*
X197234000Y-75148000D02*
X197234000Y-74748000D01*
X197234000Y-75148000D02*
X196834000Y-75148000D01*
D12*
X137561000Y-53975000D02*
X137561000Y-52025000D01*
X137561000Y-53975000D02*
X137561000Y-55925000D01*
X132441000Y-53975000D02*
X132441000Y-52025000D01*
X132441000Y-53975000D02*
X132441000Y-57425000D01*
X194919600Y-82432800D02*
X196419600Y-82432800D01*
X194919600Y-82432800D02*
X193419600Y-82432800D01*
X194919600Y-79212800D02*
X196419600Y-79212800D01*
X194919600Y-79212800D02*
X191994600Y-79212800D01*
X130354000Y-58170578D02*
X130354000Y-57653422D01*
X131774000Y-58170578D02*
X131774000Y-57653422D01*
X119455000Y-103119422D02*
X119455000Y-103636578D01*
X118035000Y-103119422D02*
X118035000Y-103636578D01*
X118543000Y-97794578D02*
X118543000Y-97277422D01*
X119963000Y-97794578D02*
X119963000Y-97277422D01*
X120702000Y-97794578D02*
X120702000Y-97277422D01*
X122122000Y-97794578D02*
X122122000Y-97277422D01*
X124576578Y-109803000D02*
X124059422Y-109803000D01*
X124576578Y-108383000D02*
X124059422Y-108383000D01*
X141092422Y-99643000D02*
X141609578Y-99643000D01*
X141092422Y-98223000D02*
X141609578Y-98223000D01*
X135076000Y-108150922D02*
X135076000Y-108668078D01*
X133656000Y-108150922D02*
X133656000Y-108668078D01*
X124591578Y-107771000D02*
X124074422Y-107771000D01*
X124591578Y-106351000D02*
X124074422Y-106351000D01*
X135504422Y-97715000D02*
X136021578Y-97715000D01*
X135504422Y-99135000D02*
X136021578Y-99135000D01*
X139775000Y-52319422D02*
X139775000Y-52836578D01*
X138355000Y-52319422D02*
X138355000Y-52836578D01*
X161158422Y-104342000D02*
X161675578Y-104342000D01*
X161158422Y-102922000D02*
X161675578Y-102922000D01*
X142371578Y-58749000D02*
X141854422Y-58749000D01*
X142371578Y-57329000D02*
X141854422Y-57329000D01*
X140727500Y-112390422D02*
X140727500Y-112907578D01*
X139307500Y-112390422D02*
X139307500Y-112907578D01*
X123820422Y-55170000D02*
X124337578Y-55170000D01*
X123820422Y-56590000D02*
X124337578Y-56590000D01*
X200100000Y-80564222D02*
X200100000Y-81081378D01*
X198680000Y-80564222D02*
X198680000Y-81081378D01*
X164841422Y-69521000D02*
X165358578Y-69521000D01*
X164841422Y-70941000D02*
X165358578Y-70941000D01*
X173089500Y-99445578D02*
X173089500Y-98928422D01*
X174509500Y-99445578D02*
X174509500Y-98928422D01*
D16*
X120600000Y-83743000D02*
X120600000Y-84118000D01*
X120225000Y-83743000D02*
X120600000Y-83743000D01*
X120600000Y-89993000D02*
X120200000Y-89993000D01*
X120600000Y-89593000D02*
X120600000Y-89993000D01*
X114350000Y-83743000D02*
X114350000Y-84243000D01*
X114900000Y-83743000D02*
X114350000Y-83743000D01*
X114450000Y-90293000D02*
X114450000Y-91943000D01*
X114675000Y-90293000D02*
X114450000Y-90293000D01*
X114675000Y-89993000D02*
X114675000Y-90293000D01*
X114350000Y-89643000D02*
X114675000Y-89993000D01*
X114350000Y-89643000D02*
X114350000Y-89343000D01*
D12*
X124074422Y-99008000D02*
X124591578Y-99008000D01*
X124074422Y-97588000D02*
X124591578Y-97588000D01*
X113279422Y-46176000D02*
X113796578Y-46176000D01*
X113279422Y-44756000D02*
X113796578Y-44756000D01*
X113279422Y-48335000D02*
X113796578Y-48335000D01*
X113279422Y-46915000D02*
X113796578Y-46915000D01*
X113279422Y-50494000D02*
X113796578Y-50494000D01*
X113279422Y-49074000D02*
X113796578Y-49074000D01*
X113279422Y-52653000D02*
X113796578Y-52653000D01*
X113279422Y-51233000D02*
X113796578Y-51233000D01*
X113279422Y-54812000D02*
X113796578Y-54812000D01*
X113279422Y-53392000D02*
X113796578Y-53392000D01*
X113279422Y-56971000D02*
X113796578Y-56971000D01*
X113279422Y-55551000D02*
X113796578Y-55551000D01*
X113279422Y-59130000D02*
X113796578Y-59130000D01*
X113279422Y-57710000D02*
X113796578Y-57710000D01*
X113279422Y-61289000D02*
X113796578Y-61289000D01*
X113279422Y-59869000D02*
X113796578Y-59869000D01*
X113279422Y-63448000D02*
X113796578Y-63448000D01*
X113279422Y-62028000D02*
X113796578Y-62028000D01*
X113279422Y-65607000D02*
X113796578Y-65607000D01*
X113279422Y-64187000D02*
X113796578Y-64187000D01*
X113279422Y-67766000D02*
X113796578Y-67766000D01*
X113279422Y-66346000D02*
X113796578Y-66346000D01*
X113279422Y-69925000D02*
X113796578Y-69925000D01*
X113279422Y-68505000D02*
X113796578Y-68505000D01*
X113279422Y-72084000D02*
X113796578Y-72084000D01*
X113279422Y-70664000D02*
X113796578Y-70664000D01*
X113279422Y-74243000D02*
X113796578Y-74243000D01*
X113279422Y-72823000D02*
X113796578Y-72823000D01*
X113279422Y-76402000D02*
X113796578Y-76402000D01*
X113279422Y-74982000D02*
X113796578Y-74982000D01*
X113327922Y-78561000D02*
X113845078Y-78561000D01*
X113327922Y-77141000D02*
X113845078Y-77141000D01*
X119033000Y-44506000D02*
X116348000Y-44506000D01*
X119033000Y-46426000D02*
X119033000Y-44506000D01*
X116348000Y-46426000D02*
X119033000Y-46426000D01*
X119033000Y-46665000D02*
X116348000Y-46665000D01*
X119033000Y-48585000D02*
X119033000Y-46665000D01*
X116348000Y-48585000D02*
X119033000Y-48585000D01*
X119033000Y-48824000D02*
X116348000Y-48824000D01*
X119033000Y-50744000D02*
X119033000Y-48824000D01*
X116348000Y-50744000D02*
X119033000Y-50744000D01*
X119033000Y-50983000D02*
X116348000Y-50983000D01*
X119033000Y-52903000D02*
X119033000Y-50983000D01*
X116348000Y-52903000D02*
X119033000Y-52903000D01*
X119033000Y-53142000D02*
X116348000Y-53142000D01*
X119033000Y-55062000D02*
X119033000Y-53142000D01*
X116348000Y-55062000D02*
X119033000Y-55062000D01*
X119033000Y-55301000D02*
X116348000Y-55301000D01*
X119033000Y-57221000D02*
X119033000Y-55301000D01*
X116348000Y-57221000D02*
X119033000Y-57221000D01*
X119033000Y-57460000D02*
X116348000Y-57460000D01*
X119033000Y-59380000D02*
X119033000Y-57460000D01*
X116348000Y-59380000D02*
X119033000Y-59380000D01*
X119033000Y-59619000D02*
X116348000Y-59619000D01*
X119033000Y-61539000D02*
X119033000Y-59619000D01*
X116348000Y-61539000D02*
X119033000Y-61539000D01*
X119033000Y-61778000D02*
X116348000Y-61778000D01*
X119033000Y-63698000D02*
X119033000Y-61778000D01*
X116348000Y-63698000D02*
X119033000Y-63698000D01*
X119033000Y-63937000D02*
X116348000Y-63937000D01*
X119033000Y-65857000D02*
X119033000Y-63937000D01*
X116348000Y-65857000D02*
X119033000Y-65857000D01*
X119033000Y-66096000D02*
X116348000Y-66096000D01*
X119033000Y-68016000D02*
X119033000Y-66096000D01*
X116348000Y-68016000D02*
X119033000Y-68016000D01*
X119033000Y-68255000D02*
X116348000Y-68255000D01*
X119033000Y-70175000D02*
X119033000Y-68255000D01*
X116348000Y-70175000D02*
X119033000Y-70175000D01*
X119033000Y-70414000D02*
X116348000Y-70414000D01*
X119033000Y-72334000D02*
X119033000Y-70414000D01*
X116348000Y-72334000D02*
X119033000Y-72334000D01*
X119033000Y-72573000D02*
X116348000Y-72573000D01*
X119033000Y-74493000D02*
X119033000Y-72573000D01*
X116348000Y-74493000D02*
X119033000Y-74493000D01*
X119033000Y-74732000D02*
X116348000Y-74732000D01*
X119033000Y-76652000D02*
X119033000Y-74732000D01*
X116348000Y-76652000D02*
X119033000Y-76652000D01*
X119033000Y-76891000D02*
X116348000Y-76891000D01*
X119033000Y-78811000D02*
X119033000Y-76891000D01*
X116348000Y-78811000D02*
X119033000Y-78811000D01*
X134366000Y-116034500D02*
X137816000Y-116034500D01*
X134366000Y-116034500D02*
X132416000Y-116034500D01*
X134366000Y-110914500D02*
X136316000Y-110914500D01*
X134366000Y-110914500D02*
X132416000Y-110914500D01*
X165227000Y-68932000D02*
X168827000Y-68932000D01*
X165227000Y-68932000D02*
X163027000Y-68932000D01*
X165227000Y-60862000D02*
X167427000Y-60862000D01*
X165227000Y-60862000D02*
X163027000Y-60862000D01*
D17*
X188823000Y-49186000D02*
X191923000Y-49186000D01*
X188823000Y-44286000D02*
X191923000Y-44286000D01*
D18*
X186398000Y-44786000D02*
G75*
G03*
X186398000Y-44786000I-125000J0D01*
G01*
D17*
X188823000Y-56933000D02*
X191923000Y-56933000D01*
X188823000Y-52033000D02*
X191923000Y-52033000D01*
D18*
X186398000Y-52533000D02*
G75*
G03*
X186398000Y-52533000I-125000J0D01*
G01*
D17*
X188823000Y-118020000D02*
X191923000Y-118020000D01*
X188823000Y-113120000D02*
X191923000Y-113120000D01*
D18*
X186398000Y-113620000D02*
G75*
G03*
X186398000Y-113620000I-125000J0D01*
G01*
D17*
X188823000Y-110273000D02*
X191923000Y-110273000D01*
X188823000Y-105373000D02*
X191923000Y-105373000D01*
D18*
X186398000Y-105873000D02*
G75*
G03*
X186398000Y-105873000I-125000J0D01*
G01*
D17*
X188823000Y-103669000D02*
X191923000Y-103669000D01*
X188823000Y-98769000D02*
X191923000Y-98769000D01*
D18*
X186398000Y-99269000D02*
G75*
G03*
X186398000Y-99269000I-125000J0D01*
G01*
D17*
X188823000Y-94271000D02*
X191923000Y-94271000D01*
X188823000Y-89371000D02*
X191923000Y-89371000D01*
D18*
X186398000Y-89871000D02*
G75*
G03*
X186398000Y-89871000I-125000J0D01*
G01*
D17*
X188823000Y-63537000D02*
X191923000Y-63537000D01*
X188823000Y-58637000D02*
X191923000Y-58637000D01*
D18*
X186398000Y-59137000D02*
G75*
G03*
X186398000Y-59137000I-125000J0D01*
G01*
D17*
X188823000Y-72935000D02*
X191923000Y-72935000D01*
X188823000Y-68035000D02*
X191923000Y-68035000D01*
D18*
X186398000Y-68535000D02*
G75*
G03*
X186398000Y-68535000I-125000J0D01*
G01*
D12*
X153205922Y-47359500D02*
X153723078Y-47359500D01*
X153205922Y-48779500D02*
X153723078Y-48779500D01*
X153157422Y-50852000D02*
X153674578Y-50852000D01*
X153157422Y-52272000D02*
X153674578Y-52272000D01*
X146299422Y-116257000D02*
X146816578Y-116257000D01*
X146299422Y-117677000D02*
X146816578Y-117677000D01*
X150109422Y-116257000D02*
X150626578Y-116257000D01*
X150109422Y-117677000D02*
X150626578Y-117677000D01*
X153792422Y-116257000D02*
X154309578Y-116257000D01*
X153792422Y-117677000D02*
X154309578Y-117677000D01*
X165476422Y-117804000D02*
X165993578Y-117804000D01*
X165476422Y-116384000D02*
X165993578Y-116384000D01*
X159310000Y-64589922D02*
X159310000Y-65107078D01*
X160730000Y-64589922D02*
X160730000Y-65107078D01*
X152014422Y-100278000D02*
X152531578Y-100278000D01*
X152014422Y-98858000D02*
X152531578Y-98858000D01*
X158373578Y-98858000D02*
X157856422Y-98858000D01*
X158373578Y-100278000D02*
X157856422Y-100278000D01*
X169239000Y-51820578D02*
X169239000Y-51303422D01*
X167819000Y-51820578D02*
X167819000Y-51303422D01*
X183510422Y-48589000D02*
X184027578Y-48589000D01*
X183510422Y-47169000D02*
X184027578Y-47169000D01*
X173768936Y-45868000D02*
X174973064Y-45868000D01*
X173768936Y-44048000D02*
X174973064Y-44048000D01*
X179534078Y-47677000D02*
X179016922Y-47677000D01*
X179534078Y-49097000D02*
X179016922Y-49097000D01*
X173867578Y-50598000D02*
X173350422Y-50598000D01*
X173867578Y-52018000D02*
X173350422Y-52018000D01*
X171398000Y-51820578D02*
X171398000Y-51303422D01*
X169978000Y-51820578D02*
X169978000Y-51303422D01*
X170311578Y-46915000D02*
X169794422Y-46915000D01*
X170311578Y-48335000D02*
X169794422Y-48335000D01*
X169041578Y-44629000D02*
X168524422Y-44629000D01*
X169041578Y-46049000D02*
X168524422Y-46049000D01*
X174239422Y-57352000D02*
X174756578Y-57352000D01*
X174239422Y-55932000D02*
X174756578Y-55932000D01*
X183764422Y-55320000D02*
X184281578Y-55320000D01*
X183764422Y-53900000D02*
X184281578Y-53900000D01*
X182912936Y-52345000D02*
X184117064Y-52345000D01*
X182912936Y-50525000D02*
X184117064Y-50525000D01*
X183265578Y-55932000D02*
X182748422Y-55932000D01*
X183265578Y-57352000D02*
X182748422Y-57352000D01*
X179328578Y-58345000D02*
X178811422Y-58345000D01*
X179328578Y-59765000D02*
X178811422Y-59765000D01*
X175128422Y-59765000D02*
X175645578Y-59765000D01*
X175128422Y-58345000D02*
X175645578Y-58345000D01*
X179661078Y-53519000D02*
X179143922Y-53519000D01*
X179661078Y-54939000D02*
X179143922Y-54939000D01*
X175709078Y-53519000D02*
X175191922Y-53519000D01*
X175709078Y-54939000D02*
X175191922Y-54939000D01*
X170873922Y-115137000D02*
X171391078Y-115137000D01*
X170873922Y-113717000D02*
X171391078Y-113717000D01*
X174493422Y-115073500D02*
X175010578Y-115073500D01*
X174493422Y-113653500D02*
X175010578Y-113653500D01*
X181515936Y-112416000D02*
X182720064Y-112416000D01*
X181515936Y-110596000D02*
X182720064Y-110596000D01*
X179519078Y-113717000D02*
X179001922Y-113717000D01*
X179519078Y-115137000D02*
X179001922Y-115137000D01*
X184345078Y-116511000D02*
X183827922Y-116511000D01*
X184345078Y-117931000D02*
X183827922Y-117931000D01*
X182699922Y-115772000D02*
X183217078Y-115772000D01*
X182699922Y-114352000D02*
X183217078Y-114352000D01*
X174566078Y-111431000D02*
X174048922Y-111431000D01*
X174566078Y-112851000D02*
X174048922Y-112851000D01*
X178185578Y-110859500D02*
X177668422Y-110859500D01*
X178185578Y-112279500D02*
X177668422Y-112279500D01*
X171587422Y-107326500D02*
X172104578Y-107326500D01*
X171587422Y-105906500D02*
X172104578Y-105906500D01*
X175143422Y-107326500D02*
X175660578Y-107326500D01*
X175143422Y-105906500D02*
X175660578Y-105906500D01*
X179166436Y-103208500D02*
X180370564Y-103208500D01*
X179166436Y-101388500D02*
X180370564Y-101388500D01*
X179963578Y-105906500D02*
X179446422Y-105906500D01*
X179963578Y-107326500D02*
X179446422Y-107326500D01*
X184154578Y-108510000D02*
X183637422Y-108510000D01*
X184154578Y-109930000D02*
X183637422Y-109930000D01*
X179382922Y-109549000D02*
X179900078Y-109549000D01*
X179382922Y-108129000D02*
X179900078Y-108129000D01*
X175694078Y-103684000D02*
X175176922Y-103684000D01*
X175694078Y-105104000D02*
X175176922Y-105104000D01*
X175694078Y-101588500D02*
X175176922Y-101588500D01*
X175694078Y-103008500D02*
X175176922Y-103008500D01*
X176398422Y-97611000D02*
X176915578Y-97611000D01*
X176398422Y-96191000D02*
X176915578Y-96191000D01*
X181287922Y-100659000D02*
X181805078Y-100659000D01*
X181287922Y-99239000D02*
X181805078Y-99239000D01*
X183547936Y-95588500D02*
X184752064Y-95588500D01*
X183547936Y-93768500D02*
X184752064Y-93768500D01*
X185114000Y-99176578D02*
X185114000Y-98659422D01*
X183694000Y-99176578D02*
X183694000Y-98659422D01*
X178947578Y-94095500D02*
X178430422Y-94095500D01*
X178947578Y-95515500D02*
X178430422Y-95515500D01*
X177169578Y-92063500D02*
X176652422Y-92063500D01*
X177169578Y-93483500D02*
X176652422Y-93483500D01*
X172778922Y-91642000D02*
X173296078Y-91642000D01*
X172778922Y-90222000D02*
X173296078Y-90222000D01*
X180970422Y-91896000D02*
X181487578Y-91896000D01*
X180970422Y-90476000D02*
X181487578Y-90476000D01*
X181642936Y-88921000D02*
X182847064Y-88921000D01*
X181642936Y-87101000D02*
X182847064Y-87101000D01*
X184980078Y-91682500D02*
X184462922Y-91682500D01*
X184980078Y-93102500D02*
X184462922Y-93102500D01*
X173296078Y-88190000D02*
X172778922Y-88190000D01*
X173296078Y-89610000D02*
X172778922Y-89610000D01*
X178297578Y-87237500D02*
X177780422Y-87237500D01*
X178297578Y-88657500D02*
X177780422Y-88657500D01*
X176652422Y-67004000D02*
X177169578Y-67004000D01*
X176652422Y-65584000D02*
X177169578Y-65584000D01*
X184526422Y-67004000D02*
X185043578Y-67004000D01*
X184526422Y-65584000D02*
X185043578Y-65584000D01*
X178467936Y-62378000D02*
X179672064Y-62378000D01*
X178467936Y-60558000D02*
X179672064Y-60558000D01*
X188082422Y-67004000D02*
X188599578Y-67004000D01*
X188082422Y-65584000D02*
X188599578Y-65584000D01*
X182884578Y-63552000D02*
X182367422Y-63552000D01*
X182884578Y-64972000D02*
X182367422Y-64972000D01*
X178820578Y-63044000D02*
X178303422Y-63044000D01*
X178820578Y-64464000D02*
X178303422Y-64464000D01*
X176525422Y-74751000D02*
X177042578Y-74751000D01*
X176525422Y-73331000D02*
X177042578Y-73331000D01*
X184350922Y-74751000D02*
X184868078Y-74751000D01*
X184350922Y-73331000D02*
X184868078Y-73331000D01*
X178213936Y-70125000D02*
X179418064Y-70125000D01*
X178213936Y-68305000D02*
X179418064Y-68305000D01*
X188130922Y-75132000D02*
X188648078Y-75132000D01*
X188130922Y-73712000D02*
X188648078Y-73712000D01*
X183265578Y-71172000D02*
X182748422Y-71172000D01*
X183265578Y-72592000D02*
X182748422Y-72592000D01*
X178566578Y-70791000D02*
X178049422Y-70791000D01*
X178566578Y-72211000D02*
X178049422Y-72211000D01*
X146248000Y-48067500D02*
X147178000Y-48067500D01*
X149408000Y-48067500D02*
X148478000Y-48067500D01*
X149408000Y-48067500D02*
X149408000Y-45907500D01*
X146248000Y-48067500D02*
X146248000Y-46607500D01*
X146248000Y-51623500D02*
X147178000Y-51623500D01*
X149408000Y-51623500D02*
X148478000Y-51623500D01*
X149408000Y-51623500D02*
X149408000Y-49463500D01*
X146248000Y-51623500D02*
X146248000Y-50163500D01*
X147703000Y-105481000D02*
X147703000Y-106411000D01*
X147703000Y-108641000D02*
X147703000Y-107711000D01*
X147703000Y-108641000D02*
X149863000Y-108641000D01*
X147703000Y-105481000D02*
X149163000Y-105481000D01*
X152021000Y-105481000D02*
X152021000Y-106411000D01*
X152021000Y-108641000D02*
X152021000Y-107711000D01*
X152021000Y-108641000D02*
X154181000Y-108641000D01*
X152021000Y-105481000D02*
X153481000Y-105481000D01*
X156339000Y-105481000D02*
X156339000Y-106411000D01*
X156339000Y-108641000D02*
X156339000Y-107711000D01*
X156339000Y-108641000D02*
X158499000Y-108641000D01*
X156339000Y-105481000D02*
X157799000Y-105481000D01*
X160657000Y-105481000D02*
X160657000Y-106411000D01*
X160657000Y-108641000D02*
X160657000Y-107711000D01*
X160657000Y-108641000D02*
X162817000Y-108641000D01*
X160657000Y-105481000D02*
X162117000Y-105481000D01*
X128909578Y-90095000D02*
X128392422Y-90095000D01*
X128909578Y-91515000D02*
X128392422Y-91515000D01*
X132837422Y-91515000D02*
X133354578Y-91515000D01*
X132837422Y-90095000D02*
X133354578Y-90095000D01*
X113613000Y-91190578D02*
X113613000Y-90673422D01*
X112193000Y-91190578D02*
X112193000Y-90673422D01*
X149975500Y-47566078D02*
X149975500Y-47048922D01*
X151395500Y-47566078D02*
X151395500Y-47048922D01*
X149975500Y-51137078D02*
X149975500Y-50619922D01*
X151395500Y-51137078D02*
X151395500Y-50619922D01*
X146299422Y-111685000D02*
X146816578Y-111685000D01*
X146299422Y-113105000D02*
X146816578Y-113105000D01*
X150109422Y-111685000D02*
X150626578Y-111685000D01*
X150109422Y-113105000D02*
X150626578Y-113105000D01*
X153792422Y-111685000D02*
X154309578Y-111685000D01*
X153792422Y-113105000D02*
X154309578Y-113105000D01*
X165476422Y-111812000D02*
X165993578Y-111812000D01*
X165476422Y-113232000D02*
X165993578Y-113232000D01*
X165660000Y-51303422D02*
X165660000Y-51820578D01*
X167080000Y-51303422D02*
X167080000Y-51820578D01*
X179319422Y-45414000D02*
X179836578Y-45414000D01*
X179319422Y-43994000D02*
X179836578Y-43994000D01*
X184203078Y-43994000D02*
X183685922Y-43994000D01*
X184203078Y-45414000D02*
X183685922Y-45414000D01*
X172414000Y-58678578D02*
X172414000Y-58161422D01*
X170994000Y-58678578D02*
X170994000Y-58161422D01*
X178820578Y-50725000D02*
X178303422Y-50725000D01*
X178820578Y-52145000D02*
X178303422Y-52145000D01*
X188082422Y-51256000D02*
X188599578Y-51256000D01*
X188082422Y-49836000D02*
X188599578Y-49836000D01*
X171010078Y-115749000D02*
X170492922Y-115749000D01*
X171010078Y-117169000D02*
X170492922Y-117169000D01*
X190319922Y-112406500D02*
X190837078Y-112406500D01*
X190319922Y-110986500D02*
X190837078Y-110986500D01*
X186050422Y-112406500D02*
X186567578Y-112406500D01*
X186050422Y-110986500D02*
X186567578Y-110986500D01*
X171503078Y-107938500D02*
X170985922Y-107938500D01*
X171503078Y-109358500D02*
X170985922Y-109358500D01*
X184710000Y-103007422D02*
X184710000Y-103524578D01*
X186130000Y-103007422D02*
X186130000Y-103524578D01*
X183971000Y-103494578D02*
X183971000Y-102977422D01*
X182551000Y-103494578D02*
X182551000Y-102977422D01*
X176915578Y-98223000D02*
X176398422Y-98223000D01*
X176915578Y-99643000D02*
X176398422Y-99643000D01*
X192457000Y-96261422D02*
X192457000Y-96778578D01*
X193877000Y-96261422D02*
X193877000Y-96778578D01*
X190361500Y-96276422D02*
X190361500Y-96793578D01*
X191781500Y-96276422D02*
X191781500Y-96793578D01*
X188018922Y-97992000D02*
X188536078Y-97992000D01*
X188018922Y-96572000D02*
X188536078Y-96572000D01*
X173359578Y-92254000D02*
X172842422Y-92254000D01*
X173359578Y-93674000D02*
X172842422Y-93674000D01*
X192457000Y-86863422D02*
X192457000Y-87380578D01*
X193877000Y-86863422D02*
X193877000Y-87380578D01*
X190456078Y-86983500D02*
X189938922Y-86983500D01*
X190456078Y-88403500D02*
X189938922Y-88403500D01*
X186304422Y-88403500D02*
X186821578Y-88403500D01*
X186304422Y-86983500D02*
X186821578Y-86983500D01*
X173096422Y-67004000D02*
X173613578Y-67004000D01*
X173096422Y-65584000D02*
X173613578Y-65584000D01*
X193877000Y-66044578D02*
X193877000Y-65527422D01*
X192457000Y-66044578D02*
X192457000Y-65527422D01*
X174169000Y-62098422D02*
X174169000Y-62615578D01*
X175589000Y-62098422D02*
X175589000Y-62615578D01*
X183129422Y-60400000D02*
X183646578Y-60400000D01*
X183129422Y-58980000D02*
X183646578Y-58980000D01*
X172969422Y-74751000D02*
X173486578Y-74751000D01*
X172969422Y-73331000D02*
X173486578Y-73331000D01*
X193877000Y-75442578D02*
X193877000Y-74925422D01*
X192457000Y-75442578D02*
X192457000Y-74925422D01*
X174756578Y-68632000D02*
X174239422Y-68632000D01*
X174756578Y-70052000D02*
X174239422Y-70052000D01*
X182621422Y-69417000D02*
X183138578Y-69417000D01*
X182621422Y-67997000D02*
X183138578Y-67997000D01*
X126438000Y-105903000D02*
X126438000Y-106353000D01*
X126438000Y-106353000D02*
X126888000Y-106353000D01*
X126438000Y-99583000D02*
X126438000Y-99133000D01*
X126438000Y-99133000D02*
X126888000Y-99133000D01*
X133658000Y-105903000D02*
X133658000Y-106353000D01*
X133658000Y-106353000D02*
X133208000Y-106353000D01*
X133658000Y-99583000D02*
X133658000Y-99133000D01*
X133658000Y-99133000D02*
X133208000Y-99133000D01*
X133208000Y-99133000D02*
X133208000Y-97843000D01*
X141609578Y-101802000D02*
X141092422Y-101802000D01*
X141609578Y-100382000D02*
X141092422Y-100382000D01*
X130377000Y-93340422D02*
X130377000Y-93857578D01*
X128957000Y-93340422D02*
X128957000Y-93857578D01*
D11*
X150233880Y-63220285D02*
X150233880Y-63791714D01*
X150233880Y-63506000D02*
X149233880Y-63506000D01*
X149376738Y-63601238D01*
X149471976Y-63696476D01*
X149519595Y-63791714D01*
X142438500Y-118490904D02*
X142390880Y-118586142D01*
X142390880Y-118729000D01*
X142438500Y-118871857D01*
X142533738Y-118967095D01*
X142628976Y-119014714D01*
X142819452Y-119062333D01*
X142962309Y-119062333D01*
X143152785Y-119014714D01*
X143248023Y-118967095D01*
X143343261Y-118871857D01*
X143390880Y-118729000D01*
X143390880Y-118633761D01*
X143343261Y-118490904D01*
X143295642Y-118443285D01*
X142962309Y-118443285D01*
X142962309Y-118633761D01*
X143390880Y-118014714D02*
X142390880Y-118014714D01*
X143390880Y-117443285D01*
X142390880Y-117443285D01*
X143390880Y-116967095D02*
X142390880Y-116967095D01*
X142390880Y-116729000D01*
X142438500Y-116586142D01*
X142533738Y-116490904D01*
X142628976Y-116443285D01*
X142819452Y-116395666D01*
X142962309Y-116395666D01*
X143152785Y-116443285D01*
X143248023Y-116490904D01*
X143343261Y-116586142D01*
X143390880Y-116729000D01*
X143390880Y-116967095D01*
X159408880Y-93249595D02*
X159408880Y-92630547D01*
X159789833Y-92963880D01*
X159789833Y-92821023D01*
X159837452Y-92725785D01*
X159885071Y-92678166D01*
X159980309Y-92630547D01*
X160218404Y-92630547D01*
X160313642Y-92678166D01*
X160361261Y-92725785D01*
X160408880Y-92821023D01*
X160408880Y-93106738D01*
X160361261Y-93201976D01*
X160313642Y-93249595D01*
X159408880Y-92344833D02*
X160408880Y-92011500D01*
X159408880Y-91678166D01*
X159408880Y-91440071D02*
X159408880Y-90821023D01*
X159789833Y-91154357D01*
X159789833Y-91011500D01*
X159837452Y-90916261D01*
X159885071Y-90868642D01*
X159980309Y-90821023D01*
X160218404Y-90821023D01*
X160313642Y-90868642D01*
X160361261Y-90916261D01*
X160408880Y-91011500D01*
X160408880Y-91297214D01*
X160361261Y-91392452D01*
X160313642Y-91440071D01*
X150328380Y-82446595D02*
X150328380Y-81827547D01*
X150709333Y-82160880D01*
X150709333Y-82018023D01*
X150756952Y-81922785D01*
X150804571Y-81875166D01*
X150899809Y-81827547D01*
X151137904Y-81827547D01*
X151233142Y-81875166D01*
X151280761Y-81922785D01*
X151328380Y-82018023D01*
X151328380Y-82303738D01*
X151280761Y-82398976D01*
X151233142Y-82446595D01*
X150328380Y-81541833D02*
X151328380Y-81208500D01*
X150328380Y-80875166D01*
X150328380Y-80637071D02*
X150328380Y-80018023D01*
X150709333Y-80351357D01*
X150709333Y-80208500D01*
X150756952Y-80113261D01*
X150804571Y-80065642D01*
X150899809Y-80018023D01*
X151137904Y-80018023D01*
X151233142Y-80065642D01*
X151280761Y-80113261D01*
X151328380Y-80208500D01*
X151328380Y-80494214D01*
X151280761Y-80589452D01*
X151233142Y-80637071D01*
X150804571Y-79256119D02*
X150852190Y-79113261D01*
X150899809Y-79065642D01*
X150995047Y-79018023D01*
X151137904Y-79018023D01*
X151233142Y-79065642D01*
X151280761Y-79113261D01*
X151328380Y-79208500D01*
X151328380Y-79589452D01*
X150328380Y-79589452D01*
X150328380Y-79256119D01*
X150376000Y-79160880D01*
X150423619Y-79113261D01*
X150518857Y-79065642D01*
X150614095Y-79065642D01*
X150709333Y-79113261D01*
X150756952Y-79160880D01*
X150804571Y-79256119D01*
X150804571Y-79589452D01*
X146391380Y-78168476D02*
X146391380Y-78644666D01*
X146867571Y-78692285D01*
X146819952Y-78644666D01*
X146772333Y-78549428D01*
X146772333Y-78311333D01*
X146819952Y-78216095D01*
X146867571Y-78168476D01*
X146962809Y-78120857D01*
X147200904Y-78120857D01*
X147296142Y-78168476D01*
X147343761Y-78216095D01*
X147391380Y-78311333D01*
X147391380Y-78549428D01*
X147343761Y-78644666D01*
X147296142Y-78692285D01*
X146391380Y-77835142D02*
X147391380Y-77501809D01*
X146391380Y-77168476D01*
D19*
X132055857Y-76705904D02*
X132055857Y-75182095D01*
X132817761Y-75944000D02*
X131293952Y-75944000D01*
M02*
