0
SECTION
2
HEADER
9
$INSUNITS
70
4
9
$ACADVER
1
AC1014
9
$HANDSEED
5
FFFF
0
ENDSEC
0
SECTION
2
TABLES
0
TABLE
2
VPORT
5
8
100
AcDbSymbolTable
0
ENDTAB
0
TABLE
2
LTYPE
5
5
100
AcDbSymbolTable
0
LTYPE
5
14
100
AcDbSymbolTableRecord
100
AcDbLinetypeTableRecord
2
BYBLOCK
70
0
0
LTYPE
5
15
100
AcDbSymbolTableRecord
100
AcDbLinetypeTableRecord
2
BYLAYER
70
0
0
LTYPE
5
16
100
AcDbSymbolTableRecord
100
AcDbLinetypeTableRecord
2
DASHED
70
0
3
Dashed __ __ __ __ __ __ __ __ __ __ __ __ __ _
72
65
73
2
40
0.75
49
0.5
74
0
49
-0.25
74
0
0
ENDTAB
0
TABLE
2
LAYER
5
2
100
AcDbSymbolTable
70
2
0
LAYER
5
50
100
AcDbSymbolTableRecord
100
AcDbLayerTableRecord
2
0
70
0
62
7
6
CONTINUOUS
0
ENDTAB
0
TABLE
2
STYLE
5
3
100
AcDbSymbolTable
70
1
0
STYLE
5
11
100
AcDbSymbolTableRecord
100
AcDbTextStyleTableRecord
2
STANDARD
70
0
0
ENDTAB
0
TABLE
2
VIEW
5
6
100
AcDbSymbolTable
70
0
0
ENDTAB
0
TABLE
2
UCS
5
7
100
AcDbSymbolTable
70
0
0
ENDTAB
0
TABLE
2
APPID
5
9
100
AcDbSymbolTable
70
2
0
APPID
5
12
100
AcDbSymbolTableRecord
100
AcDbRegAppTableRecord
2
ACAD
70
0
0
ENDTAB
0
TABLE
2
DIMSTYLE
5
A
100
AcDbSymbolTable
70
1
0
ENDTAB
0
TABLE
2
BLOCK_RECORD
5
1
100
AcDbSymbolTable
70
1
0
BLOCK_RECORD
5
1F
100
AcDbSymbolTableRecord
100
AcDbBlockTableRecord
2
*MODEL_SPACE
0
BLOCK_RECORD
5
1B
100
AcDbSymbolTableRecord
100
AcDbBlockTableRecord
2
*PAPER_SPACE
0
ENDTAB
0
ENDSEC
0
SECTION
2
BLOCKS
0
BLOCK
5
20
100
AcDbEntity
100
AcDbBlockBegin
2
*MODEL_SPACE
0
ENDBLK
5
21
100
AcDbEntity
100
AcDbBlockEnd
0
BLOCK
5
1C
100
AcDbEntity
100
AcDbBlockBegin
2
*PAPER_SPACE
0
ENDBLK
5
1D
100
AcDbEntity
100
AcDbBlockEnd
0
ENDSEC
0
SECTION
2
ENTITIES
0
CIRCLE
5
100
100
AcDbEntity
8
0
100
AcDbCircle
10
57.65090951846549
20
14.350999999999994
30
0
40
1.8985000000000003
210
0
220
0
230
1
0
CIRCLE
5
101
100
AcDbEntity
8
0
100
AcDbCircle
10
57.650909518465497
20
49.350999999999999
30
0
40
1.8985000000000003
210
0
220
0
230
1
0
CIRCLE
5
102
100
AcDbEntity
8
0
100
AcDbCircle
10
-34.34890951846414
20
-20.649000000000022
30
0
40
1.8985000000000003
210
0
220
0
230
1
0
CIRCLE
5
103
100
AcDbEntity
8
0
100
AcDbCircle
10
-34.348909518464112
20
49.350999999999999
30
0
40
1.8985000000000003
210
0
220
0
230
1
0
CIRCLE
5
104
100
AcDbEntity
8
0
100
AcDbCircle
10
57.650909518465511
20
-20.649000000000012
30
0
40
1.8985000000000003
210
0
220
0
230
1
0
CIRCLE
5
105
100
AcDbEntity
8
0
100
AcDbCircle
10
-34.348909518464119
20
14.350999999999994
30
0
40
1.8985000000000003
210
0
220
0
230
1
0
CIRCLE
5
106
100
AcDbEntity
8
0
100
AcDbCircle
10
55.198409518465503
20
58.92686097386742
30
0
40
3.100000000000005
210
0
220
-0
230
1
0
CIRCLE
5
107
100
AcDbEntity
8
0
100
AcDbCircle
10
-31.896409518464139
20
58.92686097386742
30
0
40
3.100000000000005
210
0
220
-0
230
1
0
CIRCLE
5
108
100
AcDbEntity
8
0
100
AcDbCircle
10
55.198409518465503
20
-30.073139026132587
30
0
40
3.100000000000005
210
0
220
-0
230
1
0
CIRCLE
5
109
100
AcDbEntity
8
0
100
AcDbCircle
10
-31.896409518464139
20
-30.073139026132587
30
0
40
3.100000000000005
210
0
220
-0
230
1
0
SPLINE
5
110
100
AcDbEntity
8
0
100
AcDbSpline
70
0
71
3
72
10
73
6
74
0
42
0.000000001
43
0.0000000001
44
0.0000000001
40
-0.28934277820671972
40
-0.28934277820671972
40
-0.28934277820671972
40
-0.28934277820671972
40
-0.14476037347270806
40
-0.14476037347270806
40
0
40
0
40
0
40
0
10
-31.186297531668707
20
-12.660799383489358
30
0
10
-31.140044318586583
20
-12.181083459971278
30
0
10
-31.105314360156939
20
-11.700326119812459
30
0
10
-31.058941765853788
20
-10.736966593874529
30
0
10
-31.047334398071612
20
-10.254504262691754
30
0
10
-31.047334398071612
20
-9.7719696844493935
30
0
0
SPLINE
5
111
100
AcDbEntity
8
0
100
AcDbSpline
70
0
71
3
72
14
73
10
74
0
42
0.000000001
43
0.0000000001
44
0.0000000001
40
-0.59506150330334562
40
-0.59506150330334562
40
-0.59506150330334562
40
-0.59506150330334562
40
-0.47313721705175071
40
-0.47313721705175071
40
-0.3510883478432304
40
-0.3510883478432304
40
-0.17552821081162562
40
-0.17552821081162562
40
0
40
0
40
0
40
0
10
-34.969421396028665
20
-16.672372912118988
30
0
10
-34.567839996710674
20
-16.609710252890718
30
0
10
-34.1766237676553
20
-16.492949052282061
30
0
10
-33.435858758579869
20
-16.157373728689471
30
0
10
-33.089793974243079
20
-15.94000773599552
30
0
10
-32.328744436210528
20
-15.303701438848325
30
0
10
-31.957406543543605
20
-14.844306664560028
30
0
10
-31.411651712707314
20
-13.809060292917263
30
0
10
-31.242450700805755
20
-13.243192594820394
30
0
10
-31.186297531668746
20
-12.660799383489778
30
0
0
ARC
5
112
100
AcDbEntity
8
0
100
AcDbCircle
10
-34.34890951846414
20
-20.649000000000022
30
0
40
4.0247481891750505
210
0
220
0
230
1
100
AcDbArc
50
98.868899161035188
51
218.56633206026532
0
SPLINE
5
113
100
AcDbEntity
8
0
100
AcDbSpline
70
0
71
3
72
12
73
8
74
0
42
0.000000001
43
0.0000000001
44
0.0000000001
40
-0.49505880755191223
40
-0.49505880755191223
40
-0.49505880755191223
40
-0.49505880755191223
40
-0.33525088056686136
40
-0.33525088056686136
40
-0.17531377044152696
40
-0.17531377044152696
40
0
40
0
40
0
40
0
10
-36.911462686173508
20
-27.814988959142305
30
0
10
-36.692741521956059
20
-27.329238129962128
30
0
10
-36.56186620151275
20
-26.808532025334124
30
0
10
-36.487985382526077
20
-25.745279497992474
30
0
10
-36.545718093595696
20
-25.211055608602763
30
0
10
-36.859681253141005
20
-24.138580862278832
30
0
10
-37.131493710319731
20
-23.615028032836921
30
0
10
-37.495807561768935
20
-23.158109541513113
30
0
0
ARC
5
114
100
AcDbEntity
8
0
100
AcDbCircle
10
-31.896409518464139
20
-30.073139026132587
30
0
40
5.5
210
0
220
0
230
1
100
AcDbArc
50
155.75918152426379
51
256.68032034212439
0
SPLINE
5
115
100
AcDbEntity
8
0
100
AcDbSpline
70
0
71
3
72
10
73
6
74
0
42
0.000000001
43
0.0000000001
44
0.0000000001
40
-0.47818654487677459
40
-0.47818654487677459
40
-0.47818654487677459
40
-0.47818654487677459
40
-0.23909322843860442
40
-0.23909322843860442
40
0
40
0
40
0
40
0
10
-28.611861714588159
20
-36.874439524036553
30
0
10
-29.350780576474097
20
-36.575822484768665
30
0
10
-30.100805122409668
20
-36.305325151298284
30
0
10
-31.619633407733666
20
-35.821740979637433
30
0
10
-32.387982866583826
20
-35.60879875776034
30
0
10
-33.163521441767074
20
-35.42518792107213
30
0
0
ELLIPSE
5
116
100
AcDbEntity
8
0
100
AcDbEllipse
10
-26.547315398981382
20
-31.773981000909771
30
0
11
3.8912846735199125
21
3.8912846735084594
31
0.0
40
0.99922360561794343
41
3.5426525474990007
42
3.9266024690616264
0
LINE
5
117
100
AcDbEntity
8
0
100
AcDbLine
10
-26.55158798045289
20
-37.274952685163314
30
0
11
49.853587980445567
21
-37.274952685163321
31
0
0
ELLIPSE
5
118
100
AcDbEntity
8
0
100
AcDbEllipse
10
49.849315398981382
20
-31.773981000909771
30
0
11
-3.8912846735141926
21
3.8912846735141882
31
0.0
40
0.99922360561793899
41
2.3565828381180971
42
2.7405327596820022
0
SPLINE
5
119
100
AcDbEntity
8
0
100
AcDbSpline
70
0
71
3
72
10
73
6
74
0
42
0.000000001
43
0.0000000001
44
0.0000000001
40
-0.47818644405130711
40
-0.47818644405130711
40
-0.47818644405130711
40
-0.47818644405130711
40
-0.23909327506114214
40
-0.23909327506114214
40
0
40
0
40
0
40
0
10
56.46552144176794
20
-35.425187921072244
30
0
10
55.689982895915684
20
-35.608798750816192
30
0
10
54.921633465852871
20
-35.821740963530345
30
0
10
53.402805179382469
20
-36.305325130761183
30
0
10
52.65278060443385
20
-36.575822473469415
30
0
10
51.913861714587874
20
-36.874439524036667
30
0
0
ARC
5
120
100
AcDbEntity
8
0
100
AcDbCircle
10
55.198409518465503
20
-30.073139026132587
30
0
40
5.5
210
0
220
0
230
1
100
AcDbArc
50
-76.680320342129676
51
24.240818475736166
0
SPLINE
5
121
100
AcDbEntity
8
0
100
AcDbSpline
70
0
71
3
72
12
73
8
74
0
42
0.000000001
43
0.0000000001
44
0.0000000001
40
-0.4950618596270201
40
-0.4950618596270201
40
-0.4950618596270201
40
-0.4950618596270201
40
-0.33541290532589041
40
-0.33541290532589041
40
-0.175633566252446
40
-0.175633566252446
40
0
40
0
40
0
40
0
10
60.797807561770291
20
-23.158109541513102
30
0
10
60.466034450052319
20
-23.574215789093195
30
0
10
60.21071926387161
20
-24.045913626426358
30
0
10
59.876516555971719
20
-25.056845232385164
30
0
10
59.800392050097628
20
-25.58821372033783
30
0
10
59.83902078571802
20
-26.705564678518755
30
0
10
59.973094838054465
20
-27.281163702905697
30
0
10
60.213462686174893
20
-27.814988959142319
30
0
0
ARC
5
122
100
AcDbEntity
8
0
100
AcDbCircle
10
57.650909518465511
20
-20.649000000000012
30
0
40
4.0247481891750088
210
-0
220
0
230
1
100
AcDbArc
50
-38.566332060265495
51
81.131100838972984
0
SPLINE
5
123
100
AcDbEntity
8
0
100
AcDbSpline
70
0
71
3
72
14
73
10
74
0
42
0.000000001
43
0.0000000001
44
0.0000000001
40
-0.5950641060790306
40
-0.5950641060790306
40
-0.5950641060790306
40
-0.5950641060790306
40
-0.47317594804666013
40
-0.47317594804666013
40
-0.35116309664854517
40
-0.35116309664854517
40
-0.17557628030330344
40
-0.17557628030330344
40
0
40
0
40
0
40
0
10
54.488297531668941
20
-12.660799383489906
30
0
10
54.527293011742444
20
-13.065241433981418
30
0
10
54.620883430550862
20
-13.462508807398288
30
0
10
54.912343984627043
20
-14.221451529406346
30
0
10
55.108972614350662
20
-14.579563151347493
30
0
10
55.699486808048235
20
-15.376621269299912
30
0
10
56.13637354367782
20
-15.774326970814796
30
0
10
57.138035647248685
20
-16.379995317755068
30
0
10
57.693164604609642
20
-16.582141869723316
30
0
10
58.271421396029467
20
-16.672372912118902
30
0
0
SPLINE
5
124
100
AcDbEntity
8
0
100
AcDbSpline
70
0
71
3
72
10
73
6
74
0
42
0.000000001
43
0.0000000001
44
0.0000000001
40
-0.28934231921061249
40
-0.28934231921061249
40
-0.28934231921061249
40
-0.28934231921061249
40
-0.14458216467492951
40
-0.14458216467492951
40
0
40
0
40
0
40
0
10
54.349334398071576
20
-9.7719696844474075
30
0
10
54.349334398071576
20
-10.254504298537219
30
0
10
54.36094176752006
20
-10.736966665037684
30
0
10
54.407314365259211
20
-11.700326191063157
30
0
10
54.442044321997791
20
-12.181083495400514
30
0
10
54.488297531668906
20
-12.660799383489486
30
0
0
LINE
5
125
100
AcDbEntity
8
0
100
AcDbLine
10
54.349334398071576
20
-9.7719696844474075
30
0
11
54.349334398071605
21
5.9144560466297103
31
0
0
SPLINE
5
126
100
AcDbEntity
8
0
100
AcDbSpline
70
0
71
3
72
14
73
10
74
0
42
0.000000001
43
0.0000000001
44
0.0000000001
40
-0.64478463471993019
40
-0.64478463471993019
40
-0.64478463471993019
40
-0.64478463471993019
40
-0.49789009023915703
40
-0.49789009023915703
40
-0.35092795187596104
40
-0.35092795187596104
40
-0.1754161960302858
40
-0.1754161960302858
40
0
40
0
40
0
40
0
10
58.215684429055592
20
10.366074996109017
30
0
10
57.730795997377591
20
10.297352794215699
30
0
10
57.260374063722509
20
10.150009810470703
30
0
10
56.385412482109352
20
9.7094498689837447
30
0
10
55.986783522503373
20
9.4191175990829343
30
0
10
55.232174197475189
20
8.6535354220259304
30
0
10
54.906811062924028
20
8.1607032934092469
30
0
10
54.463312791756941
20
7.0782969852147692
30
0
10
54.349334398071605
20
6.4991767000639964
30
0
10
54.349334398071605
20
5.9144560466297103
30
0
0
ARC
5
127
100
AcDbEntity
8
0
100
AcDbCircle
10
57.65090951846549
20
14.350999999999994
30
0
40
4.0247481891750159
210
-0
220
0
230
1
100
AcDbArc
50
-81.933316478179165
51
81.933316478179307
0
SPLINE
5
128
100
AcDbEntity
8
0
100
AcDbSpline
70
0
71
3
72
14
73
10
74
0
42
0.000000001
43
0.0000000001
44
0.0000000001
40
-0.64478829828412731
40
-0.64478829828412731
40
-0.64478829828412731
40
-0.64478829828412731
40
-0.49803668018487901
40
-0.49803668018487901
40
-0.35121641645962387
40
-0.35121641645962387
40
-0.17559644629973589
40
-0.17559644629973589
40
0
40
0
40
0
40
0
10
54.349334398071605
20
22.787543953370296
30
0
10
54.349334398071605
20
22.298294917667569
30
0
10
54.429131224658782
20
21.81234645674391
30
0
10
54.742216854592243
20
20.885127194917189
30
0
10
54.973477495944252
20
20.450121675902125
30
0
10
55.625341821499305
20
19.595516731944894
30
0
10
56.067917168098745
20
19.20392308201685
30
0
10
57.07816721074758
20
18.612378334039178
30
0
10
57.636154450562159
20
18.418060550097834
30
0
10
58.215684429055585
20
18.335925003890988
30
0
0
LINE
5
129
100
AcDbEntity
8
0
100
AcDbLine
10
54.349334398071605
20
22.787543953370296
30
0
11
54.349334398071605
21
38.625691632182232
31
0
0
SPLINE
5
130
100
AcDbEntity
8
0
100
AcDbSpline
70
0
71
3
72
10
73
6
74
0
42
0.000000001
43
0.0000000001
44
0.0000000001
40
-0.27116917572807075
40
-0.27116917572807075
40
-0.27116917572807075
40
-0.27116917572807075
40
-0.13566505899797079
40
-0.13566505899797079
40
0
40
0
40
0
40
0
10
54.47140408119742
20
41.333597905167736
30
0
10
54.43076897082463
20
40.883749693751774
30
0
10
54.400260980965889
20
40.43304413074641
30
0
10
54.359529000107464
20
39.530065827122762
30
0
10
54.349334398071605
20
39.077908495508801
30
0
10
54.349334398071605
20
38.625691632182232
30
0
0
SPLINE
5
131
100
AcDbEntity
8
0
100
AcDbSpline
70
0
71
3
72
14
73
10
74
0
42
0.000000001
43
0.0000000001
44
0.0000000001
40
-0.59855195191530441
40
-0.59855195191530441
40
-0.59855195191530441
40
-0.59855195191530441
40
-0.4748818383329404
40
-0.4748818383329404
40
-0.35108879556826811
40
-0.35108879556826811
40
-0.17552114728906865
40
-0.17552114728906865
40
0
40
0
40
0
40
0
10
58.264635685049583
20
45.373320000462876
30
0
10
57.857191010001621
20
45.310454345472692
30
0
10
57.460341646212385
20
45.191916400326718
30
0
10
56.709705870838
20
44.849919354105452
30
0
10
56.359549554961561
20
44.627983513774787
30
0
10
55.5978788612125
20
43.98333012700634
30
0
10
55.229300904851762
20
43.521680271971647
30
0
10
54.689812370792545
20
42.483152108244155
30
0
10
54.524039582758846
20
41.916295925905764
30
0
10
54.471404081197434
20
41.333597905167991
30
0
0
ARC
5
132
100
AcDbEntity
8
0
100
AcDbCircle
10
57.650909518465497
20
49.350999999999999
30
0
40
4.0247481891750283
210
0
220
0
230
1
100
AcDbArc
50
-81.22885731268056
51
39.040951333586719
0
SPLINE
5
133
100
AcDbEntity
8
0
100
AcDbSpline
70
0
71
3
72
12
73
8
74
0
42
0.000000001
43
0.0000000001
44
0.0000000001
40
-0.50363528166980143
40
-0.50363528166980143
40
-0.50363528166980143
40
-0.50363528166980143
40
-0.33950796688591661
40
-0.33950796688591661
40
-0.17527969974655921
40
-0.17527969974655921
40
0
40
0
40
0
40
0
10
60.189151398751505
20
56.615477084428136
30
0
10
59.959227057499866
20
56.119024269114924
30
0
10
59.82161171848098
20
55.584822045657774
30
0
10
59.744515289519605
20
54.493029752182593
30
0
10
59.805799743182234
20
53.944459911312627
30
0
10
60.132799161962964
20
52.861058530819889
30
0
10
60.408900462378909
20
52.339887804488079
30
0
10
60.776915198362424
20
51.886091019178558
30
0
0
ARC
5
134
100
AcDbEntity
8
0
100
AcDbCircle
10
55.198409518465503
20
58.92686097386742
30
0
40
5.5000000000000107
210
0
220
0
230
1
100
AcDbArc
50
-24.850474092606323
51
78.127026038463683
0
SPLINE
5
135
100
AcDbEntity
8
0
100
AcDbSpline
70
0
71
3
72
10
73
6
74
0
42
0.000000001
43
0.0000000001
44
0.0000000001
40
-0.47455032135928543
40
-0.47455032135928543
40
-0.47455032135928543
40
-0.47455032135928543
40
-0.23727511107772592
40
-0.23727511107772592
40
0
40
0
40
0
40
0
10
51.777012623458418
20
65.629628938399335
30
0
10
52.517966099669536
20
65.352973976072391
30
0
10
53.269096370403162
20
65.104235077079224
30
0
10
54.788332913919277
20
64.663644109729319
30
0
10
55.555997583387615
20
64.471920084023481
30
0
10
56.329993853049736
20
64.309194751488775
30
0
0
ELLIPSE
5
136
100
AcDbEntity
8
0
100
AcDbEllipse
10
49.849315398981382
20
60.475981000909762
30
0
11
3.8912846735104805
21
3.8912846735178879
31
0.0
40
0.99922360561794332
41
0.4277579418961121
42
0.78500981546941273
0
LINE
5
137
100
AcDbEntity
8
0
100
AcDbLine
10
49.853587980452872
20
65.976952685163312
30
0
11
-26.551587980446048
21
65.976952685163312
31
0
0
ELLIPSE
5
138
100
AcDbEntity
8
0
100
AcDbEllipse
10
-26.547315398981372
20
60.475981000909762
30
0
11
-3.8912846735118354
21
3.8912846735165472
31
0.0
40
0.99922360561794221
41
5.4981754917085865
42
5.8554273652831776
0
SPLINE
5
139
100
AcDbEntity
8
0
100
AcDbSpline
70
0
71
3
72
10
73
6
74
0
42
0.000000001
43
0.0000000001
44
0.0000000001
40
-0.47455022264688895
40
-0.47455022264688895
40
-0.47455022264688895
40
-0.47455022264688895
40
-0.23727516828292688
40
-0.23727516828292688
40
0
40
0
40
0
40
0
10
-33.027993853048834
20
64.309194751488661
30
0
10
-32.253997607406724
20
64.471920078973469
30
0
10
-31.486332961564294
20
64.663644097829774
30
0
10
-29.967096417218233
20
65.104235061584248
30
0
10
-29.215966122672683
20
65.352973967483493
30
0
10
-28.475012623458653
20
65.629628938399222
30
0
0
ARC
5
140
100
AcDbEntity
8
0
100
AcDbCircle
10
-31.896409518464139
20
58.92686097386742
30
0
40
5.4999999999999991
210
0
220
0
230
1
100
AcDbArc
50
101.87297396154128
51
204.85047409260628
0
SPLINE
5
141
100
AcDbEntity
8
0
100
AcDbSpline
70
0
71
3
72
12
73
8
74
0
42
0.000000001
43
0.0000000001
44
0.0000000001
40
-0.50363981250630352
40
-0.50363981250630352
40
-0.50363981250630352
40
-0.50363981250630352
40
-0.33967045423121378
40
-0.33967045423121378
40
-0.17559969608128129
40
-0.17559969608128129
40
0
40
0
40
0
40
0
10
-37.47491519836106
20
51.886091019178551
30
0
10
-37.130641878659198
20
52.310612405070927
30
0
10
-36.866607443966878
20
52.794344350612334
30
0
10
-36.524691244552471
20
53.832949404341129
30
0
10
-36.449753379089231
20
54.37927311544091
30
0
10
-36.500983556106178
20
55.510320687250271
30
0
10
-36.641164545106065
20
56.084342079944292
30
0
10
-36.887151398750134
20
56.615477084428143
30
0
0
ARC
5
142
100
AcDbEntity
8
0
100
AcDbCircle
10
-34.348909518464112
20
49.350999999999999
30
0
40
4.0247481891750319
210
0
220
0
230
1
100
AcDbArc
50
140.95904866641354
51
261.22885731267206
0
SPLINE
5
143
100
AcDbEntity
8
0
100
AcDbSpline
70
0
71
3
72
14
73
10
74
0
42
0.000000001
43
0.0000000001
44
0.0000000001
40
-0.59855497512013567
40
-0.59855497512013567
40
-0.59855497512013567
40
-0.59855497512013567
40
-0.47492707469089429
40
-0.47492707469089429
40
-0.35117609400284122
40
-0.35117609400284122
40
-0.1755771610997858
40
-0.1755771610997858
40
0
40
0
40
0
40
0
10
-31.169404081197271
20
41.333597905167856
30
0
10
-31.206480374455147
20
41.744048685663834
30
0
10
-31.299764073353042
20
42.147430516265125
30
0
10
-31.593707417825733
20
42.917845400827098
30
0
10
-31.793075163929196
20
43.281158596165454
30
0
10
-32.388413978237345
20
44.081912381593121
30
0
10
-32.826010063270708
20
44.478904239931111
30
0
10
-33.82874551780538
20
45.082878647088378
30
0
10
-34.384222884002412
20
45.284075246955631
30
0
10
-34.962635685048788
20
45.373320000462954
30
0
0
SPLINE
5
144
100
AcDbEntity
8
0
100
AcDbSpline
70
0
71
3
72
10
73
6
74
0
42
0.000000001
43
0.0000000001
44
0.0000000001
40
-0.27116881132342796
40
-0.27116881132342796
40
-0.27116881132342796
40
-0.27116881132342796
40
-0.13550392522783
40
-0.13550392522783
40
0
40
0
40
0
40
0
10
-31.047334398071619
20
38.625691632184214
30
0
10
-31.047334398071619
20
39.077908527014273
30
0
10
-31.057529001476382
20
39.530065889690732
30
0
10
-31.098260985160472
20
40.433044193403298
30
0
10
-31.128768973624869
20
40.883749724912647
30
0
10
-31.169404081197236
20
41.333597905167593
30
0
0
LINE
5
145
100
AcDbEntity
8
0
100
AcDbLine
10
-31.047334398071619
20
38.625691632184214
30
0
11
-31.047334398071609
21
22.787543953370076
31
0
0
SPLINE
5
146
100
AcDbEntity
8
0
100
AcDbSpline
70
0
71
3
72
14
73
10
74
0
42
0.000000001
43
0.0000000001
44
0.0000000001
40
-0.64478463472030578
40
-0.64478463472030578
40
-0.64478463472030578
40
-0.64478463472030578
40
-0.49789009023942687
40
-0.49789009023942687
40
-0.35092795187611447
40
-0.35092795187611447
40
-0.17541619603033451
40
-0.17541619603033451
40
0
40
0
40
0
40
0
10
-34.913684429054868
20
18.335925003890882
30
0
10
-34.428795997376852
20
18.404647205784283
30
0
10
-33.958374063721855
20
18.551990189529352
30
0
10
-33.083412482108791
20
18.992550131016422
30
0
10
-32.684783522502904
20
19.282882400917252
30
0
10
-31.93017419747498
20
20.048464577974219
30
0
10
-31.604811062923872
20
20.54129670659087
30
0
10
-31.161312791757013
20
21.623703014785054
30
0
10
-31.047334398071612
20
22.202823299935616
30
0
10
-31.047334398071612
20
22.787543953370065
30
0
0
ARC
5
147
100
AcDbEntity
8
0
100
AcDbCircle
10
-34.348909518464119
20
14.350999999999994
30
0
40
4.0247481891750176
210
0
220
0
230
1
100
AcDbArc
50
98.0666835218301
51
261.9333164781699
0
SPLINE
5
148
100
AcDbEntity
8
0
100
AcDbSpline
70
0
71
3
72
14
73
10
74
0
42
0.000000001
43
0.0000000001
44
0.0000000001
40
-0.64478829828357376
40
-0.64478829828357376
40
-0.64478829828357376
40
-0.64478829828357376
40
-0.49803668018462177
40
-0.49803668018462177
40
-0.35121641645956558
40
-0.35121641645956558
40
-0.17559644629970669
40
-0.17559644629970669
40
0
40
0
40
0
40
0
10
-31.047334398071619
20
5.9144560466298923
30
0
10
-31.047334398071619
20
6.4037050823323742
30
0
10
-31.127131224658719
20
6.8896535432558101
30
0
10
-31.440216854591956
20
7.8168728050824452
30
0
10
-31.671477495943762
20
8.2518783240971505
30
0
10
-32.323341821498495
20
9.1064832680545251
30
0
10
-32.765917168098042
20
9.4980769179827735
30
0
10
-33.776167210746969
20
10.089621665960761
30
0
10
-34.334154450561549
20
10.28393944990216
30
0
10
-34.913684429054868
20
10.366074996109088
30
0
0
LINE
5
149
100
AcDbEntity
8
0
100
AcDbLine
10
-31.047334398071619
20
5.9144560466298923
30
0
11
-31.047334398071612
21
-9.7719696844493917
31
0
0
CIRCLE
5
150
100
AcDbEntity
8
0
100
AcDbCircle
10
-16.670000000000002
20
21.590000000000003
30
0
40
1.2645
210
0
220
-0
230
1
0
CIRCLE
5
151
100
AcDbEntity
8
0
100
AcDbCircle
10
31.082000000000004
20
-21.590000000000003
30
0
40
1.2645
210
0
220
-0
230
1
0
CIRCLE
5
152
100
AcDbEntity
8
0
100
AcDbCircle
10
43.020000000000003
20
21.590000000000003
30
0
40
1.2645
210
0
220
-0
230
1
0
CIRCLE
5
153
100
AcDbEntity
8
0
100
AcDbCircle
10
-16.670000000000002
20
-21.590000000000003
30
0
40
1.2645
210
0
220
-0
230
1
0
ENDSEC
0
SECTION
2
OBJECTS
0
DICTIONARY
5
C
100
AcDbDictionary
3
ACAD_GROUP
350
D
3
ACAD_MLINESTYLE
350
17
0
DICTIONARY
5
D
100
AcDbDictionary
0
DICTIONARY
5
1A
330
C
100
AcDbDictionary
0
DICTIONARY
5
17
100
AcDbDictionary
0
ENDSEC
0
EOF
