0
SECTION
2
HEADER
9
$INSUNITS
70
4
9
$ACADVER
1
AC1014
9
$HANDSEED
5
FFFF
0
ENDSEC
0
SECTION
2
TABLES
0
TABLE
2
VPORT
5
8
100
AcDbSymbolTable
0
ENDTAB
0
TABLE
2
LTYPE
5
5
100
AcDbSymbolTable
0
LTYPE
5
14
100
AcDbSymbolTableRecord
100
AcDbLinetypeTableRecord
2
BYBLOCK
70
0
0
LTYPE
5
15
100
AcDbSymbolTableRecord
100
AcDbLinetypeTableRecord
2
BYLAYER
70
0
0
LTYPE
5
16
100
AcDbSymbolTableRecord
100
AcDbLinetypeTableRecord
2
DASHED
70
0
3
Dashed __ __ __ __ __ __ __ __ __ __ __ __ __ _
72
65
73
2
40
0.75
49
0.5
74
0
49
-0.25
74
0
0
ENDTAB
0
TABLE
2
LAYER
5
2
100
AcDbSymbolTable
70
2
0
LAYER
5
50
100
AcDbSymbolTableRecord
100
AcDbLayerTableRecord
2
0
70
0
62
7
6
CONTINUOUS
0
ENDTAB
0
TABLE
2
STYLE
5
3
100
AcDbSymbolTable
70
1
0
STYLE
5
11
100
AcDbSymbolTableRecord
100
AcDbTextStyleTableRecord
2
STANDARD
70
0
0
ENDTAB
0
TABLE
2
VIEW
5
6
100
AcDbSymbolTable
70
0
0
ENDTAB
0
TABLE
2
UCS
5
7
100
AcDbSymbolTable
70
0
0
ENDTAB
0
TABLE
2
APPID
5
9
100
AcDbSymbolTable
70
2
0
APPID
5
12
100
AcDbSymbolTableRecord
100
AcDbRegAppTableRecord
2
ACAD
70
0
0
ENDTAB
0
TABLE
2
DIMSTYLE
5
A
100
AcDbSymbolTable
70
1
0
ENDTAB
0
TABLE
2
BLOCK_RECORD
5
1
100
AcDbSymbolTable
70
1
0
BLOCK_RECORD
5
1F
100
AcDbSymbolTableRecord
100
AcDbBlockTableRecord
2
*MODEL_SPACE
0
BLOCK_RECORD
5
1B
100
AcDbSymbolTableRecord
100
AcDbBlockTableRecord
2
*PAPER_SPACE
0
ENDTAB
0
ENDSEC
0
SECTION
2
BLOCKS
0
BLOCK
5
20
100
AcDbEntity
100
AcDbBlockBegin
2
*MODEL_SPACE
0
ENDBLK
5
21
100
AcDbEntity
100
AcDbBlockEnd
0
BLOCK
5
1C
100
AcDbEntity
100
AcDbBlockBegin
2
*PAPER_SPACE
0
ENDBLK
5
1D
100
AcDbEntity
100
AcDbBlockEnd
0
ENDSEC
0
SECTION
2
ENTITIES
0
LWPOLYLINE
5
100
100
AcDbEntity
8
0
100
AcDbPolyline
90
12
70
1
43
0.0
10
-23.273999999999994
20
-25.923999999999971
42
0.41421356237309243
10
-22.273999999999994
20
-26.923999999999971
10
33.670000000000002
20
-26.923999999999996
42
0.41421356237309243
10
34.670000000000002
20
-25.923999999999996
10
34.670000000000002
20
-22.367999999999995
42
-0.41421356237309503
10
35.670000000000002
20
-21.367999999999995
10
45.576000000000008
20
-21.368000000000002
42
0.41421356237309503
10
46.576000000000008
20
-20.367999999999995
10
46.576000000000008
20
48.276000000000003
42
0.41421356237309503
10
45.576000000000008
20
49.275999999999996
10
-22.273999999999994
20
49.275999999999996
42
0.41421356237309503
10
-23.27399999999999
20
48.276000000000003
0
LWPOLYLINE
5
101
100
AcDbEntity
8
0
100
AcDbPolyline
90
8
70
1
43
0.0
10
23.109999999999999
20
4.9725000000000019
10
23.110000000000003
20
-4.9724999999999975
42
-0.41421356237309681
10
21.522500000000004
20
-6.5599999999999969
10
-1.5225
20
-6.5599999999999969
42
-0.41421356237309503
10
-3.1099999999999994
20
-4.9724999999999975
10
-3.1099999999999994
20
4.972500000000001
42
-0.41421356237309548
10
-1.5225
20
6.5600000000000014
10
21.522500000000004
20
6.5599999999999969
42
-0.41421356237309664
0
LWPOLYLINE
5
102
100
AcDbEntity
8
0
100
AcDbPolyline
90
8
70
1
43
0.0
10
38.860500000000002
20
21.368000000000006
10
30.415500000000005
20
21.368000000000002
42
-0.41421356237309748
10
28.828000000000003
20
22.955500000000004
10
28.82800000000001
20
31.400500000000005
42
-0.41421356237309748
10
30.415500000000005
20
32.988000000000007
10
38.860500000000002
20
32.988000000000007
42
-0.41421356237309837
10
40.448000000000008
20
31.400500000000005
10
40.447999999999993
20
22.955500000000004
42
-0.41421356237309837
0
CIRCLE
5
103
100
AcDbEntity
8
0
100
AcDbCircle
10
43.020000000000003
20
21.590000000000003
30
0
40
1.2645
210
0
220
-0
230
1
0
CIRCLE
5
104
100
AcDbEntity
8
0
100
AcDbCircle
10
-16.670000000000002
20
-21.590000000000003
30
0
40
1.2645
210
0
220
-0
230
1
0
CIRCLE
5
105
100
AcDbEntity
8
0
100
AcDbCircle
10
-16.670000000000002
20
21.590000000000003
30
0
40
1.2645
210
0
220
-0
230
1
0
CIRCLE
5
106
100
AcDbEntity
8
0
100
AcDbCircle
10
31.082000000000004
20
-21.590000000000003
30
0
40
1.2645
210
0
220
-0
230
1
0
LWPOLYLINE
5
107
100
AcDbEntity
8
0
100
AcDbPolyline
90
8
70
1
43
0.0
10
29.181999999999981
20
47.204000000000015
10
36.66999999999998
20
47.204000000000065
42
-0.41421356237308776
10
39.170000000000066
20
44.704000000000079
10
39.170000000000009
20
39.624000000000009
42
-0.41421356237309348
10
36.670000000000009
20
37.124000000000002
10
29.181999999999974
20
37.124000000000002
42
-0.41421356237309243
10
26.681999999999992
20
39.624000000000009
10
26.681999999999988
20
44.704000000000008
42
-0.41421356237309293
0
ENDSEC
0
SECTION
2
OBJECTS
0
DICTIONARY
5
C
100
AcDbDictionary
3
ACAD_GROUP
350
D
3
ACAD_MLINESTYLE
350
17
0
DICTIONARY
5
D
100
AcDbDictionary
0
DICTIONARY
5
1A
330
C
100
AcDbDictionary
0
DICTIONARY
5
17
100
AcDbDictionary
0
ENDSEC
0
EOF
