ISO-10303-21;
HEADER;
FILE_DESCRIPTION((''),'2;1');
FILE_NAME('C-0460-202-20141','2019-03-25T01:11:21',('workeradm'),(
'TE Connectivity Ltd.'),'CREO PARAMETRIC BY PTC INC, 2018190',
'CREO PARAMETRIC BY PTC INC, 2018190','');
FILE_SCHEMA(('AUTOMOTIVE_DESIGN { 1 0 10303 214 1 1 1 1 }'));
ENDSEC;
DATA;
#4=CARTESIAN_POINT('',(0.E0,0.E0,0.E0));
#5=DIRECTION('',(0.E0,0.E0,-1.E0));
#6=DIRECTION('',(0.E0,1.E0,0.E0));
#7=AXIS2_PLACEMENT_3D('',#4,#5,#6);
#9=DRAUGHTING_PRE_DEFINED_CURVE_FONT('continuous');
#10=CURVE_STYLE('',#9,POSITIVE_LENGTH_MEASURE(2.E-2),#1);
#11=PRESENTATION_STYLE_ASSIGNMENT((#10));
#12=STYLED_ITEM('',(#11),#8);
#13=CARTESIAN_POINT('',(0.E0,0.E0,0.E0));
#14=DIRECTION('',(0.E0,0.E0,-1.E0));
#15=DIRECTION('',(0.E0,-1.E0,0.E0));
#16=AXIS2_PLACEMENT_3D('',#13,#14,#15);
#18=CURVE_STYLE('',#9,POSITIVE_LENGTH_MEASURE(2.E-2),#1);
#19=PRESENTATION_STYLE_ASSIGNMENT((#18));
#20=STYLED_ITEM('',(#19),#17);
#21=CARTESIAN_POINT('',(-6.561010970629E-10,2.453E-1,-2.5E-1));
#22=DIRECTION('',(1.E0,2.674688533155E-9,0.E0));
#23=DIRECTION('',(-2.674688533155E-9,1.E0,0.E0));
#24=AXIS2_PLACEMENT_3D('',#21,#22,#23);
#26=CURVE_STYLE('',#9,POSITIVE_LENGTH_MEASURE(2.E-2),#1);
#27=PRESENTATION_STYLE_ASSIGNMENT((#26));
#28=STYLED_ITEM('',(#27),#25);
#29=CARTESIAN_POINT('',(0.E0,0.E0,-2.5E-1));
#30=DIRECTION('',(0.E0,0.E0,-1.E0));
#31=DIRECTION('',(0.E0,1.E0,0.E0));
#32=AXIS2_PLACEMENT_3D('',#29,#30,#31);
#34=CURVE_STYLE('',#9,POSITIVE_LENGTH_MEASURE(2.E-2),#1);
#35=PRESENTATION_STYLE_ASSIGNMENT((#34));
#36=STYLED_ITEM('',(#35),#33);
#37=CARTESIAN_POINT('',(0.E0,0.E0,-2.5E-1));
#38=DIRECTION('',(0.E0,0.E0,-1.E0));
#39=DIRECTION('',(0.E0,-1.E0,0.E0));
#40=AXIS2_PLACEMENT_3D('',#37,#38,#39);
#42=CURVE_STYLE('',#9,POSITIVE_LENGTH_MEASURE(2.E-2),#1);
#43=PRESENTATION_STYLE_ASSIGNMENT((#42));
#44=STYLED_ITEM('',(#43),#41);
#45=DIRECTION('',(3.573813462467E-12,0.E0,-1.E0));
#46=VECTOR('',#45,8.609248775786E0);
#47=CARTESIAN_POINT('',(-3.076778851988E-11,-4.953E-1,-2.5E-1));
#48=LINE('',#47,#46);
#49=CURVE_STYLE('',#9,POSITIVE_LENGTH_MEASURE(2.E-2),#1);
#50=PRESENTATION_STYLE_ASSIGNMENT((#49));
#51=STYLED_ITEM('',(#50),#48);
#52=DIRECTION('',(-3.573811701083E-12,0.E0,-1.E0));
#53=VECTOR('',#52,8.609248775786E0);
#54=CARTESIAN_POINT('',(3.076777335569E-11,4.953E-1,-2.5E-1));
#55=LINE('',#54,#53);
#56=CURVE_STYLE('',#9,POSITIVE_LENGTH_MEASURE(2.E-2),#1);
#57=PRESENTATION_STYLE_ASSIGNMENT((#56));
#58=STYLED_ITEM('',(#57),#55);
#59=CARTESIAN_POINT('',(6.561011144102E-10,-2.453E-1,-2.5E-1));
#60=DIRECTION('',(-1.E0,-2.674688602544E-9,0.E0));
#61=DIRECTION('',(2.674688602544E-9,-1.E0,0.E0));
#62=AXIS2_PLACEMENT_3D('',#59,#60,#61);
#64=CURVE_STYLE('',#9,POSITIVE_LENGTH_MEASURE(2.E-2),#1);
#65=PRESENTATION_STYLE_ASSIGNMENT((#64));
#66=STYLED_ITEM('',(#65),#63);
#67=CARTESIAN_POINT('',(0.E0,-1.7653E0,-8.859248775786E0));
#68=DIRECTION('',(-1.E0,0.E0,0.E0));
#69=DIRECTION('',(0.E0,1.E0,0.E0));
#70=AXIS2_PLACEMENT_3D('',#67,#68,#69);
#72=CURVE_STYLE('',#9,POSITIVE_LENGTH_MEASURE(2.E-2),#1);
#73=PRESENTATION_STYLE_ASSIGNMENT((#72));
#74=STYLED_ITEM('',(#73),#71);
#75=CARTESIAN_POINT('',(0.E0,1.7653E0,-8.859248775786E0));
#76=DIRECTION('',(1.E0,0.E0,0.E0));
#77=DIRECTION('',(0.E0,-1.E0,0.E0));
#78=AXIS2_PLACEMENT_3D('',#75,#76,#77);
#80=CURVE_STYLE('',#9,POSITIVE_LENGTH_MEASURE(2.E-2),#1);
#81=PRESENTATION_STYLE_ASSIGNMENT((#80));
#82=STYLED_ITEM('',(#81),#79);
#83=CARTESIAN_POINT('',(0.E0,0.E0,-8.859248775786E0));
#84=DIRECTION('',(0.E0,0.E0,-1.E0));
#85=DIRECTION('',(0.E0,-1.E0,0.E0));
#86=AXIS2_PLACEMENT_3D('',#83,#84,#85);
#88=CURVE_STYLE('',#9,POSITIVE_LENGTH_MEASURE(2.E-2),#1);
#89=PRESENTATION_STYLE_ASSIGNMENT((#88));
#90=STYLED_ITEM('',(#89),#87);
#91=CARTESIAN_POINT('',(0.E0,0.E0,-8.859248775786E0));
#92=DIRECTION('',(0.E0,0.E0,1.E0));
#93=DIRECTION('',(0.E0,-1.E0,0.E0));
#94=AXIS2_PLACEMENT_3D('',#91,#92,#93);
#96=CURVE_STYLE('',#9,POSITIVE_LENGTH_MEASURE(2.E-2),#1);
#97=PRESENTATION_STYLE_ASSIGNMENT((#96));
#98=STYLED_ITEM('',(#97),#95);
#99=CARTESIAN_POINT('',(0.E0,0.E0,-9.831768542495E0));
#100=DIRECTION('',(0.E0,0.E0,-1.E0));
#101=DIRECTION('',(0.E0,1.E0,0.E0));
#102=AXIS2_PLACEMENT_3D('',#99,#100,#101);
#104=CURVE_STYLE('',#9,POSITIVE_LENGTH_MEASURE(2.E-2),#1);
#105=PRESENTATION_STYLE_ASSIGNMENT((#104));
#106=STYLED_ITEM('',(#105),#103);
#107=CARTESIAN_POINT('',(0.E0,0.E0,-9.757274387893E0));
#108=DIRECTION('',(0.E0,0.E0,1.E0));
#109=DIRECTION('',(0.E0,-1.E0,0.E0));
#110=AXIS2_PLACEMENT_3D('',#107,#108,#109);
#112=CURVE_STYLE('',#9,POSITIVE_LENGTH_MEASURE(2.E-2),#1);
#113=PRESENTATION_STYLE_ASSIGNMENT((#112));
#114=STYLED_ITEM('',(#113),#111);
#115=CARTESIAN_POINT('',(-1.994851853149E-10,8.852E-1,-9.888337084990E0));
#116=DIRECTION('',(1.E0,2.253560532628E-10,0.E0));
#117=DIRECTION('',(-2.253560532628E-10,1.E0,3.501643419668E-11));
#118=AXIS2_PLACEMENT_3D('',#115,#116,#117);
#120=CURVE_STYLE('',#9,POSITIVE_LENGTH_MEASURE(2.E-2),#1);
#121=PRESENTATION_STYLE_ASSIGNMENT((#120));
#122=STYLED_ITEM('',(#121),#119);
#123=CARTESIAN_POINT('',(0.E0,0.E0,-9.888337084990E0));
#124=DIRECTION('',(0.E0,0.E0,-1.E0));
#125=DIRECTION('',(0.E0,1.E0,0.E0));
#126=AXIS2_PLACEMENT_3D('',#123,#124,#125);
#128=CURVE_STYLE('',#9,POSITIVE_LENGTH_MEASURE(2.E-2),#1);
#129=PRESENTATION_STYLE_ASSIGNMENT((#128));
#130=STYLED_ITEM('',(#129),#127);
#131=CARTESIAN_POINT('',(0.E0,0.E0,-9.888337084990E0));
#132=DIRECTION('',(0.E0,0.E0,-1.E0));
#133=DIRECTION('',(0.E0,-1.E0,0.E0));
#134=AXIS2_PLACEMENT_3D('',#131,#132,#133);
#136=CURVE_STYLE('',#9,POSITIVE_LENGTH_MEASURE(2.E-2),#1);
#137=PRESENTATION_STYLE_ASSIGNMENT((#136));
#138=STYLED_ITEM('',(#137),#135);
#139=DIRECTION('',(3.697235142415E-11,0.E0,-1.E0));
#140=VECTOR('',#139,3.192662915011E0);
#141=CARTESIAN_POINT('',(-1.180401764707E-10,-9.652E-1,-9.888337084989E0));
#142=LINE('',#141,#140);
#143=CURVE_STYLE('',#9,POSITIVE_LENGTH_MEASURE(2.E-2),#1);
#144=PRESENTATION_STYLE_ASSIGNMENT((#143));
#145=STYLED_ITEM('',(#144),#142);
#146=DIRECTION('',(-3.697234216833E-11,0.E0,-1.E0));
#147=VECTOR('',#146,3.192662915011E0);
#148=CARTESIAN_POINT('',(1.180401469200E-10,9.652E-1,-9.888337084989E0));
#149=LINE('',#148,#147);
#150=CURVE_STYLE('',#9,POSITIVE_LENGTH_MEASURE(2.E-2),#1);
#151=PRESENTATION_STYLE_ASSIGNMENT((#150));
#152=STYLED_ITEM('',(#151),#149);
#153=CARTESIAN_POINT('',(1.994854038900E-10,-8.852E-1,-9.888337084990E0));
#154=DIRECTION('',(-1.E0,-2.253563030630E-10,0.E0));
#155=DIRECTION('',(2.253563030630E-10,-1.E0,3.501643419668E-11));
#156=AXIS2_PLACEMENT_3D('',#153,#154,#155);
#158=CURVE_STYLE('',#9,POSITIVE_LENGTH_MEASURE(2.E-2),#1);
#159=PRESENTATION_STYLE_ASSIGNMENT((#158));
#160=STYLED_ITEM('',(#159),#157);
#161=CARTESIAN_POINT('',(0.E0,0.E0,-9.831768542495E0));
#162=DIRECTION('',(0.E0,0.E0,-1.E0));
#163=DIRECTION('',(0.E0,-1.E0,0.E0));
#164=AXIS2_PLACEMENT_3D('',#161,#162,#163);
#166=CURVE_STYLE('',#9,POSITIVE_LENGTH_MEASURE(2.E-2),#1);
#167=PRESENTATION_STYLE_ASSIGNMENT((#166));
#168=STYLED_ITEM('',(#167),#165);
#169=DIRECTION('',(-1.486493187447E-10,7.071067811865E-1,-7.071067811866E-1));
#170=VECTOR('',#169,1.053506437295E-1);
#171=CARTESIAN_POINT('',(0.E0,8.672743878931E-1,-9.757274387893E0));
#172=LINE('',#171,#170);
#173=CURVE_STYLE('',#9,POSITIVE_LENGTH_MEASURE(2.E-2),#1);
#174=PRESENTATION_STYLE_ASSIGNMENT((#173));
#175=STYLED_ITEM('',(#174),#172);
#176=CARTESIAN_POINT('',(0.E0,0.E0,-9.757274387893E0));
#177=DIRECTION('',(0.E0,0.E0,-1.E0));
#178=DIRECTION('',(0.E0,-1.E0,0.E0));
#179=AXIS2_PLACEMENT_3D('',#176,#177,#178);
#181=CURVE_STYLE('',#9,POSITIVE_LENGTH_MEASURE(2.E-2),#1);
#182=PRESENTATION_STYLE_ASSIGNMENT((#181));
#183=STYLED_ITEM('',(#182),#180);
#184=DIRECTION('',(1.486481147158E-10,-7.071067811865E-1,-7.071067811866E-1));
#185=VECTOR('',#184,1.053506437295E-1);
#186=CARTESIAN_POINT('',(0.E0,-8.672743878931E-1,-9.757274387893E0));
#187=LINE('',#186,#185);
#188=CURVE_STYLE('',#9,POSITIVE_LENGTH_MEASURE(2.E-2),#1);
#189=PRESENTATION_STYLE_ASSIGNMENT((#188));
#190=STYLED_ITEM('',(#189),#187);
#191=CARTESIAN_POINT('',(0.E0,0.E0,-1.3081E1));
#192=DIRECTION('',(0.E0,0.E0,1.E0));
#193=DIRECTION('',(0.E0,-1.E0,0.E0));
#194=AXIS2_PLACEMENT_3D('',#191,#192,#193);
#196=CURVE_STYLE('',#9,POSITIVE_LENGTH_MEASURE(2.E-2),#1);
#197=PRESENTATION_STYLE_ASSIGNMENT((#196));
#198=STYLED_ITEM('',(#197),#195);
#199=CARTESIAN_POINT('',(0.E0,0.E0,-1.3081E1));
#200=DIRECTION('',(0.E0,0.E0,-1.E0));
#201=DIRECTION('',(0.E0,-1.E0,0.E0));
#202=AXIS2_PLACEMENT_3D('',#199,#200,#201);
#204=CURVE_STYLE('',#9,POSITIVE_LENGTH_MEASURE(2.E-2),#1);
#205=PRESENTATION_STYLE_ASSIGNMENT((#204));
#206=STYLED_ITEM('',(#205),#203);
#207=CARTESIAN_POINT('',(0.E0,0.E0,-1.3081E1));
#208=DIRECTION('',(0.E0,0.E0,-1.E0));
#209=DIRECTION('',(0.E0,-1.E0,0.E0));
#210=AXIS2_PLACEMENT_3D('',#207,#208,#209);
#212=CURVE_STYLE('',#9,POSITIVE_LENGTH_MEASURE(2.E-2),#1);
#213=PRESENTATION_STYLE_ASSIGNMENT((#212));
#214=STYLED_ITEM('',(#213),#211);
#215=CARTESIAN_POINT('',(0.E0,0.E0,-1.3081E1));
#216=DIRECTION('',(0.E0,0.E0,-1.E0));
#217=DIRECTION('',(0.E0,1.E0,0.E0));
#218=AXIS2_PLACEMENT_3D('',#215,#216,#217);
#220=CURVE_STYLE('',#9,POSITIVE_LENGTH_MEASURE(2.E-2),#1);
#221=PRESENTATION_STYLE_ASSIGNMENT((#220));
#222=STYLED_ITEM('',(#221),#219);
#223=CARTESIAN_POINT('',(2.930416950764E-10,-1.1827E0,-1.3181E1));
#224=DIRECTION('',(-1.E0,-2.477734822870E-10,0.E0));
#225=DIRECTION('',(2.477734822870E-10,-1.E0,0.E0));
#226=AXIS2_PLACEMENT_3D('',#223,#224,#225);
#228=CURVE_STYLE('',#9,POSITIVE_LENGTH_MEASURE(2.E-2),#1);
#229=PRESENTATION_STYLE_ASSIGNMENT((#228));
#230=STYLED_ITEM('',(#229),#227);
#231=CARTESIAN_POINT('',(0.E0,0.E0,-1.3743E1));
#232=DIRECTION('',(0.E0,0.E0,-1.E0));
#233=DIRECTION('',(0.E0,-1.E0,0.E0));
#234=AXIS2_PLACEMENT_3D('',#231,#232,#233);
#236=CURVE_STYLE('',#9,POSITIVE_LENGTH_MEASURE(2.E-2),#1);
#237=PRESENTATION_STYLE_ASSIGNMENT((#236));
#238=STYLED_ITEM('',(#237),#235);
#239=DIRECTION('',(-6.459142900131E-10,0.E0,-1.E0));
#240=VECTOR('',#239,5.62E-1);
#241=CARTESIAN_POINT('',(1.225883211748E-11,1.2827E0,-1.3181E1));
#242=LINE('',#241,#240);
#243=CURVE_STYLE('',#9,POSITIVE_LENGTH_MEASURE(2.E-2),#1);
#244=PRESENTATION_STYLE_ASSIGNMENT((#243));
#245=STYLED_ITEM('',(#244),#242);
#246=CARTESIAN_POINT('',(0.E0,0.E0,-1.3181E1));
#247=DIRECTION('',(0.E0,0.E0,-1.E0));
#248=DIRECTION('',(0.E0,-1.E0,0.E0));
#249=AXIS2_PLACEMENT_3D('',#246,#247,#248);
#251=CURVE_STYLE('',#9,POSITIVE_LENGTH_MEASURE(2.E-2),#1);
#252=PRESENTATION_STYLE_ASSIGNMENT((#251));
#253=STYLED_ITEM('',(#252),#250);
#254=DIRECTION('',(6.459140955512E-10,0.E0,-1.E0));
#255=VECTOR('',#254,5.62E-1);
#256=CARTESIAN_POINT('',(-1.225887138884E-11,-1.2827E0,-1.3181E1));
#257=LINE('',#256,#255);
#258=CURVE_STYLE('',#9,POSITIVE_LENGTH_MEASURE(2.E-2),#1);
#259=PRESENTATION_STYLE_ASSIGNMENT((#258));
#260=STYLED_ITEM('',(#259),#257);
#261=CARTESIAN_POINT('',(0.E0,-1.1827E0,-1.3743E1));
#262=DIRECTION('',(-1.E0,0.E0,0.E0));
#263=DIRECTION('',(0.E0,3.774758283726E-14,-1.E0));
#264=AXIS2_PLACEMENT_3D('',#261,#262,#263);
#266=CURVE_STYLE('',#9,POSITIVE_LENGTH_MEASURE(2.E-2),#1);
#267=PRESENTATION_STYLE_ASSIGNMENT((#266));
#268=STYLED_ITEM('',(#267),#265);
#269=CARTESIAN_POINT('',(0.E0,0.E0,-1.3843E1));
#270=DIRECTION('',(0.E0,0.E0,1.E0));
#271=DIRECTION('',(0.E0,1.E0,0.E0));
#272=AXIS2_PLACEMENT_3D('',#269,#270,#271);
#274=CURVE_STYLE('',#9,POSITIVE_LENGTH_MEASURE(2.E-2),#1);
#275=PRESENTATION_STYLE_ASSIGNMENT((#274));
#276=STYLED_ITEM('',(#275),#273);
#277=CARTESIAN_POINT('',(0.E0,0.E0,-1.3843E1));
#278=DIRECTION('',(0.E0,0.E0,1.E0));
#279=DIRECTION('',(0.E0,-1.E0,0.E0));
#280=AXIS2_PLACEMENT_3D('',#277,#278,#279);
#282=CURVE_STYLE('',#9,POSITIVE_LENGTH_MEASURE(2.E-2),#1);
#283=PRESENTATION_STYLE_ASSIGNMENT((#282));
#284=STYLED_ITEM('',(#283),#281);
#285=CARTESIAN_POINT('',(0.E0,0.E0,-1.3843E1));
#286=DIRECTION('',(0.E0,0.E0,-1.E0));
#287=DIRECTION('',(0.E0,-1.E0,0.E0));
#288=AXIS2_PLACEMENT_3D('',#285,#286,#287);
#290=CURVE_STYLE('',#9,POSITIVE_LENGTH_MEASURE(2.E-2),#1);
#291=PRESENTATION_STYLE_ASSIGNMENT((#290));
#292=STYLED_ITEM('',(#291),#289);
#293=CARTESIAN_POINT('',(0.E0,0.E0,-1.3843E1));
#294=DIRECTION('',(0.E0,0.E0,-1.E0));
#295=DIRECTION('',(0.E0,1.E0,0.E0));
#296=AXIS2_PLACEMENT_3D('',#293,#294,#295);
#298=CURVE_STYLE('',#9,POSITIVE_LENGTH_MEASURE(2.E-2),#1);
#299=PRESENTATION_STYLE_ASSIGNMENT((#298));
#300=STYLED_ITEM('',(#299),#297);
#301=CARTESIAN_POINT('',(7.372812221851E-10,1.0652E0,-1.3943E1));
#302=DIRECTION('',(-1.E0,6.921528558634E-10,0.E0));
#303=DIRECTION('',(-6.921528558634E-10,-1.E0,0.E0));
#304=AXIS2_PLACEMENT_3D('',#301,#302,#303);
#306=CURVE_STYLE('',#9,POSITIVE_LENGTH_MEASURE(2.E-2),#1);
#307=PRESENTATION_STYLE_ASSIGNMENT((#306));
#308=STYLED_ITEM('',(#307),#305);
#309=CARTESIAN_POINT('',(0.E0,0.E0,-1.3943E1));
#310=DIRECTION('',(0.E0,0.E0,1.E0));
#311=DIRECTION('',(0.E0,1.E0,0.E0));
#312=AXIS2_PLACEMENT_3D('',#309,#310,#311);
#314=CURVE_STYLE('',#9,POSITIVE_LENGTH_MEASURE(2.E-2),#1);
#315=PRESENTATION_STYLE_ASSIGNMENT((#314));
#316=STYLED_ITEM('',(#315),#313);
#317=DIRECTION('',(4.858840755300E-12,0.E0,-1.E0));
#318=VECTOR('',#317,4.1164E0);
#319=CARTESIAN_POINT('',(-2.000085328318E-11,-9.652E-1,-1.3943E1));
#320=LINE('',#319,#318);
#321=CURVE_STYLE('',#9,POSITIVE_LENGTH_MEASURE(2.E-2),#1);
#322=PRESENTATION_STYLE_ASSIGNMENT((#321));
#323=STYLED_ITEM('',(#322),#320);
#324=DIRECTION('',(0.E0,0.E0,-1.E0));
#325=VECTOR('',#324,3.0861E0);
#326=CARTESIAN_POINT('',(0.E0,9.652E-1,-1.49733E1));
#327=LINE('',#326,#325);
#328=CURVE_STYLE('',#9,POSITIVE_LENGTH_MEASURE(2.E-2),#1);
#329=PRESENTATION_STYLE_ASSIGNMENT((#328));
#330=STYLED_ITEM('',(#329),#327);
#331=CARTESIAN_POINT('',(-3.683E-1,8.921693505159E-1,-1.4605E1));
#332=CARTESIAN_POINT('',(-3.683E-1,8.921693505159E-1,-1.463214925219E1));
#333=CARTESIAN_POINT('',(-3.625572572486E-1,8.945820439550E-1,
-1.468534644915E1));
#334=CARTESIAN_POINT('',(-3.352165567383E-1,9.053716693737E-1,
-1.476495496932E1));
#335=CARTESIAN_POINT('',(-2.916578340654E-1,9.206258601413E-1,
-1.483502658741E1));
#336=CARTESIAN_POINT('',(-2.318273005569E-1,9.377350611866E-1,
-1.489518915567E1));
#337=CARTESIAN_POINT('',(-1.621572600383E-1,9.525332112768E-1,
-1.493924192539E1));
#338=CARTESIAN_POINT('',(-8.094359788755E-2,9.629733275405E-1,
-1.496754819580E1));
#339=CARTESIAN_POINT('',(-2.727559604230E-2,9.652E-1,-1.49733E1));
#340=CARTESIAN_POINT('',(0.E0,9.652E-1,-1.49733E1));
#342=CURVE_STYLE('',#9,POSITIVE_LENGTH_MEASURE(2.E-2),#1);
#343=PRESENTATION_STYLE_ASSIGNMENT((#342));
#344=STYLED_ITEM('',(#343),#341);
#345=CARTESIAN_POINT('',(0.E0,9.652E-1,-1.42367E1));
#346=CARTESIAN_POINT('',(-2.725628361470E-2,9.652E-1,-1.42367E1));
#347=CARTESIAN_POINT('',(-8.087605556327E-2,9.629704874732E-1,
-1.424246064618E1));
#348=CARTESIAN_POINT('',(-1.617262875633E-1,9.526017985191E-1,
-1.427057012994E1));
#349=CARTESIAN_POINT('',(-2.315466640490E-1,9.378119911980E-1,
-1.431455391418E1));
#350=CARTESIAN_POINT('',(-2.916169208441E-1,9.206408618628E-1,
-1.437491372018E1));
#351=CARTESIAN_POINT('',(-3.351835075927E-1,9.053844760920E-1,
-1.444493700593E1));
#352=CARTESIAN_POINT('',(-3.626398426535E-1,8.945490338692E-1,
-1.452495529519E1));
#353=CARTESIAN_POINT('',(-3.683E-1,8.921693505159E-1,-1.457798343651E1));
#354=CARTESIAN_POINT('',(-3.683E-1,8.921693505159E-1,-1.4605E1));
#356=CURVE_STYLE('',#9,POSITIVE_LENGTH_MEASURE(2.E-2),#1);
#357=PRESENTATION_STYLE_ASSIGNMENT((#356));
#358=STYLED_ITEM('',(#357),#355);
#359=DIRECTION('',(-6.810002751622E-11,0.E0,-1.E0));
#360=VECTOR('',#359,2.937E-1);
#361=CARTESIAN_POINT('',(2.000083732674E-11,9.652E-1,-1.3943E1));
#362=LINE('',#361,#360);
#363=CURVE_STYLE('',#9,POSITIVE_LENGTH_MEASURE(2.E-2),#1);
#364=PRESENTATION_STYLE_ASSIGNMENT((#363));
#365=STYLED_ITEM('',(#364),#362);
#366=CARTESIAN_POINT('',(0.E0,0.E0,-1.3943E1));
#367=DIRECTION('',(0.E0,0.E0,1.E0));
#368=DIRECTION('',(0.E0,-1.E0,0.E0));
#369=AXIS2_PLACEMENT_3D('',#366,#367,#368);
#371=CURVE_STYLE('',#9,POSITIVE_LENGTH_MEASURE(2.E-2),#1);
#372=PRESENTATION_STYLE_ASSIGNMENT((#371));
#373=STYLED_ITEM('',(#372),#370);
#374=CARTESIAN_POINT('',(3.683E-1,8.921693505159E-1,-1.4605E1));
#375=CARTESIAN_POINT('',(3.683E-1,8.921693505159E-1,-1.457783373641E1));
#376=CARTESIAN_POINT('',(3.625493757874E-1,8.945853401598E-1,
-1.452460804259E1));
#377=CARTESIAN_POINT('',(3.351887693489E-1,9.053823508875E-1,
-1.444498208404E1));
#378=CARTESIAN_POINT('',(2.915965424717E-1,9.206460067310E-1,
-1.437489218389E1));
#379=CARTESIAN_POINT('',(2.317343850216E-1,9.377585724951E-1,
-1.431473592576E1));
#380=CARTESIAN_POINT('',(1.620488858785E-1,9.525519270913E-1,
-1.427070570811E1));
#381=CARTESIAN_POINT('',(8.084227493519E-2,9.629805944869E-1,
-1.424243299732E1));
#382=CARTESIAN_POINT('',(2.723485336426E-2,9.652E-1,-1.42367E1));
#383=CARTESIAN_POINT('',(0.E0,9.652E-1,-1.42367E1));
#385=CURVE_STYLE('',#9,POSITIVE_LENGTH_MEASURE(2.E-2),#1);
#386=PRESENTATION_STYLE_ASSIGNMENT((#385));
#387=STYLED_ITEM('',(#386),#384);
#388=CARTESIAN_POINT('',(0.E0,9.652E-1,-1.49733E1));
#389=CARTESIAN_POINT('',(2.721389411044E-2,9.652E-1,-1.49733E1));
#390=CARTESIAN_POINT('',(8.077096768252E-2,9.629781252622E-1,
-1.496755921928E1));
#391=CARTESIAN_POINT('',(1.616179943621E-1,9.526204613448E-1,
-1.493948185664E1));
#392=CARTESIAN_POINT('',(2.314539917503E-1,9.378356462231E-1,
-1.489552219977E1));
#393=CARTESIAN_POINT('',(2.915695495267E-1,9.206566526359E-1,
-1.483515032840E1));
#394=CARTESIAN_POINT('',(3.351580013678E-1,9.053941497241E-1,
-1.476511958146E1));
#395=CARTESIAN_POINT('',(3.626348346781E-1,8.945512042303E-1,
-1.468507835551E1));
#396=CARTESIAN_POINT('',(3.683E-1,8.921693505159E-1,-1.463202900906E1));
#397=CARTESIAN_POINT('',(3.683E-1,8.921693505159E-1,-1.4605E1));
#399=CURVE_STYLE('',#9,POSITIVE_LENGTH_MEASURE(2.E-2),#1);
#400=PRESENTATION_STYLE_ASSIGNMENT((#399));
#401=STYLED_ITEM('',(#400),#398);
#402=CARTESIAN_POINT('',(-7.372812846351E-10,-1.0652E0,-1.3943E1));
#403=DIRECTION('',(1.E0,-6.921529183135E-10,0.E0));
#404=DIRECTION('',(6.921529183135E-10,1.E0,0.E0));
#405=AXIS2_PLACEMENT_3D('',#402,#403,#404);
#407=CURVE_STYLE('',#9,POSITIVE_LENGTH_MEASURE(2.E-2),#1);
#408=PRESENTATION_STYLE_ASSIGNMENT((#407));
#409=STYLED_ITEM('',(#408),#406);
#410=DIRECTION('',(0.E0,1.E0,0.E0));
#411=VECTOR('',#410,3.748878894138E-1);
#412=CARTESIAN_POINT('',(-3.683E-1,5.172814611022E-1,-1.4605E1));
#413=LINE('',#412,#411);
#414=CURVE_STYLE('',#9,POSITIVE_LENGTH_MEASURE(2.E-2),#1);
#415=PRESENTATION_STYLE_ASSIGNMENT((#414));
#416=STYLED_ITEM('',(#415),#413);
#417=DIRECTION('',(0.E0,1.E0,0.E0));
#418=VECTOR('',#417,3.748878894138E-1);
#419=CARTESIAN_POINT('',(3.683E-1,5.172814611022E-1,-1.4605E1));
#420=LINE('',#419,#418);
#421=CURVE_STYLE('',#9,POSITIVE_LENGTH_MEASURE(2.E-2),#1);
#422=PRESENTATION_STYLE_ASSIGNMENT((#421));
#423=STYLED_ITEM('',(#422),#420);
#424=CARTESIAN_POINT('',(3.683E-1,5.172814611022E-1,-1.4605E1));
#425=CARTESIAN_POINT('',(3.683E-1,5.172814611022E-1,-1.463424803083E1));
#426=CARTESIAN_POINT('',(3.618476252495E-1,5.220144657322E-1,
-1.469266821820E1));
#427=CARTESIAN_POINT('',(3.258151929285E-1,5.460310139959E-1,
-1.478658722437E1));
#428=CARTESIAN_POINT('',(2.648133707412E-1,5.789036348691E-1,
-1.486737408204E1));
#429=CARTESIAN_POINT('',(1.859773689041E-1,6.093650090478E-1,
-1.492795324404E1));
#430=CARTESIAN_POINT('',(9.516185000091E-2,6.302153527847E-1,
-1.496514170593E1));
#431=CARTESIAN_POINT('',(8.550621665446E-5,6.373907928630E-1,
-1.497737681740E1));
#432=CARTESIAN_POINT('',(-9.513080783132E-2,6.302214574981E-1,
-1.496515099297E1));
#433=CARTESIAN_POINT('',(-1.858419180473E-1,6.094053390074E-1,
-1.492803030754E1));
#434=CARTESIAN_POINT('',(-2.647981620337E-1,5.789141731156E-1,
-1.486739551817E1));
#435=CARTESIAN_POINT('',(-3.257621863799E-1,5.460613547180E-1,
-1.478667639671E1));
#436=CARTESIAN_POINT('',(-3.618482642391E-1,5.220156763902E-1,
-1.469269626866E1));
#437=CARTESIAN_POINT('',(-3.683E-1,5.172814611022E-1,-1.463425947872E1));
#438=CARTESIAN_POINT('',(-3.683E-1,5.172814611022E-1,-1.4605E1));
#440=CURVE_STYLE('',#9,POSITIVE_LENGTH_MEASURE(2.E-2),#1);
#441=PRESENTATION_STYLE_ASSIGNMENT((#440));
#442=STYLED_ITEM('',(#441),#439);
#443=CARTESIAN_POINT('',(-3.683E-1,5.172814611022E-1,-1.4605E1));
#444=CARTESIAN_POINT('',(-3.683E-1,5.172814611022E-1,-1.457575196917E1));
#445=CARTESIAN_POINT('',(-3.618476252495E-1,5.220144657322E-1,
-1.451733178180E1));
#446=CARTESIAN_POINT('',(-3.258151929285E-1,5.460310139959E-1,
-1.442341277563E1));
#447=CARTESIAN_POINT('',(-2.648133707412E-1,5.789036348691E-1,
-1.434262591796E1));
#448=CARTESIAN_POINT('',(-1.859773689041E-1,6.093650090478E-1,
-1.428204675596E1));
#449=CARTESIAN_POINT('',(-9.516185000091E-2,6.302153527847E-1,
-1.424485829407E1));
#450=CARTESIAN_POINT('',(-8.550621665691E-5,6.373907928630E-1,
-1.423262318260E1));
#451=CARTESIAN_POINT('',(9.513080783132E-2,6.302214574981E-1,
-1.424484900703E1));
#452=CARTESIAN_POINT('',(1.858419180473E-1,6.094053390074E-1,
-1.428196969246E1));
#453=CARTESIAN_POINT('',(2.647981620337E-1,5.789141731156E-1,
-1.434260448183E1));
#454=CARTESIAN_POINT('',(3.257621863799E-1,5.460613547180E-1,
-1.442332360329E1));
#455=CARTESIAN_POINT('',(3.618482642391E-1,5.220156763902E-1,
-1.451730373134E1));
#456=CARTESIAN_POINT('',(3.683E-1,5.172814611022E-1,-1.457574052128E1));
#457=CARTESIAN_POINT('',(3.683E-1,5.172814611022E-1,-1.4605E1));
#459=CURVE_STYLE('',#9,POSITIVE_LENGTH_MEASURE(2.E-2),#1);
#460=PRESENTATION_STYLE_ASSIGNMENT((#459));
#461=STYLED_ITEM('',(#460),#458);
#462=CARTESIAN_POINT('',(0.E0,0.E0,-1.80594E1));
#463=DIRECTION('',(0.E0,0.E0,-1.E0));
#464=DIRECTION('',(0.E0,-1.E0,0.E0));
#465=AXIS2_PLACEMENT_3D('',#462,#463,#464);
#467=CURVE_STYLE('',#9,POSITIVE_LENGTH_MEASURE(2.E-2),#1);
#468=PRESENTATION_STYLE_ASSIGNMENT((#467));
#469=STYLED_ITEM('',(#468),#466);
#470=CARTESIAN_POINT('',(0.E0,0.E0,-1.80594E1));
#471=DIRECTION('',(0.E0,0.E0,1.E0));
#472=DIRECTION('',(0.E0,-1.E0,0.E0));
#473=AXIS2_PLACEMENT_3D('',#470,#471,#472);
#475=CURVE_STYLE('',#9,POSITIVE_LENGTH_MEASURE(2.E-2),#1);
#476=PRESENTATION_STYLE_ASSIGNMENT((#475));
#477=STYLED_ITEM('',(#476),#474);
#478=CARTESIAN_POINT('',(0.E0,0.E0,-1.80594E1));
#479=DIRECTION('',(0.E0,0.E0,1.E0));
#480=DIRECTION('',(1.E0,0.E0,0.E0));
#481=AXIS2_PLACEMENT_3D('',#478,#479,#480);
#483=CURVE_STYLE('',#9,POSITIVE_LENGTH_MEASURE(2.E-2),#1);
#484=PRESENTATION_STYLE_ASSIGNMENT((#483));
#485=STYLED_ITEM('',(#484),#482);
#486=CARTESIAN_POINT('',(0.E0,0.E0,-1.80594E1));
#487=DIRECTION('',(0.E0,0.E0,1.E0));
#488=DIRECTION('',(-1.E0,0.E0,0.E0));
#489=AXIS2_PLACEMENT_3D('',#486,#487,#488);
#491=CURVE_STYLE('',#9,POSITIVE_LENGTH_MEASURE(2.E-2),#1);
#492=PRESENTATION_STYLE_ASSIGNMENT((#491));
#493=STYLED_ITEM('',(#492),#490);
#494=DIRECTION('',(-7.071067811866E-1,-1.756452844858E-8,7.071067811865E-1));
#495=VECTOR('',#494,2.514471704047E-1);
#496=CARTESIAN_POINT('',(8.127999983175E-1,1.066638421659E-8,
-1.805939999832E1));
#497=LINE('',#496,#495);
#498=CURVE_STYLE('',#9,POSITIVE_LENGTH_MEASURE(2.E-2),#1);
#499=PRESENTATION_STYLE_ASSIGNMENT((#498));
#500=STYLED_ITEM('',(#499),#497);
#501=DIRECTION('',(7.071067811865E-1,1.756452859977E-8,7.071067811865E-1));
#502=VECTOR('',#501,2.514471704047E-1);
#503=CARTESIAN_POINT('',(-8.127999983175E-1,-1.066639076800E-8,
-1.805939999832E1));
#504=LINE('',#503,#502);
#505=CURVE_STYLE('',#9,POSITIVE_LENGTH_MEASURE(2.E-2),#1);
#506=PRESENTATION_STYLE_ASSIGNMENT((#505));
#507=STYLED_ITEM('',(#506),#504);
#508=CARTESIAN_POINT('',(0.E0,0.E0,-1.78816E1));
#509=DIRECTION('',(0.E0,0.E0,1.E0));
#510=DIRECTION('',(-1.E0,0.E0,0.E0));
#511=AXIS2_PLACEMENT_3D('',#508,#509,#510);
#513=CURVE_STYLE('',#9,POSITIVE_LENGTH_MEASURE(2.E-2),#1);
#514=PRESENTATION_STYLE_ASSIGNMENT((#513));
#515=STYLED_ITEM('',(#514),#512);
#516=DIRECTION('',(1.199007245368E-9,-7.601357701508E-9,1.E0));
#517=VECTOR('',#516,8.221999990153E-1);
#518=CARTESIAN_POINT('',(6.349999990142E-1,6.249833238699E-9,
-1.788159999901E1));
#519=LINE('',#518,#517);
#520=CURVE_STYLE('',#9,POSITIVE_LENGTH_MEASURE(2.E-2),#1);
#521=PRESENTATION_STYLE_ASSIGNMENT((#520));
#522=STYLED_ITEM('',(#521),#519);
#523=CARTESIAN_POINT('',(0.E0,0.E0,-1.78816E1));
#524=DIRECTION('',(0.E0,0.E0,1.E0));
#525=DIRECTION('',(1.E0,0.E0,0.E0));
#526=AXIS2_PLACEMENT_3D('',#523,#524,#525);
#528=CURVE_STYLE('',#9,POSITIVE_LENGTH_MEASURE(2.E-2),#1);
#529=PRESENTATION_STYLE_ASSIGNMENT((#528));
#530=STYLED_ITEM('',(#529),#527);
#531=DIRECTION('',(-1.199004949845E-9,7.601358000559E-9,1.E0));
#532=VECTOR('',#531,8.221999990153E-1);
#533=CARTESIAN_POINT('',(-6.349999990142E-1,-6.249839752100E-9,
-1.788159999901E1));
#534=LINE('',#533,#532);
#535=CURVE_STYLE('',#9,POSITIVE_LENGTH_MEASURE(2.E-2),#1);
#536=PRESENTATION_STYLE_ASSIGNMENT((#535));
#537=STYLED_ITEM('',(#536),#534);
#538=CARTESIAN_POINT('',(0.E0,0.E0,-1.70594E1));
#539=DIRECTION('',(0.E0,0.E0,-1.E0));
#540=DIRECTION('',(1.E0,0.E0,0.E0));
#541=AXIS2_PLACEMENT_3D('',#538,#539,#540);
#543=CURVE_STYLE('',#9,POSITIVE_LENGTH_MEASURE(2.E-2),#1);
#544=PRESENTATION_STYLE_ASSIGNMENT((#543));
#545=STYLED_ITEM('',(#544),#542);
#546=CARTESIAN_POINT('',(0.E0,0.E0,-1.70594E1));
#547=DIRECTION('',(0.E0,0.E0,-1.E0));
#548=DIRECTION('',(-1.E0,0.E0,0.E0));
#549=AXIS2_PLACEMENT_3D('',#546,#547,#548);
#551=CURVE_STYLE('',#9,POSITIVE_LENGTH_MEASURE(2.E-2),#1);
#552=PRESENTATION_STYLE_ASSIGNMENT((#551));
#553=STYLED_ITEM('',(#552),#550);
#554=CARTESIAN_POINT('',(0.E0,1.1827E0,-1.3743E1));
#555=DIRECTION('',(1.E0,0.E0,0.E0));
#556=DIRECTION('',(0.E0,-4.218847493576E-14,-1.E0));
#557=AXIS2_PLACEMENT_3D('',#554,#555,#556);
#559=CURVE_STYLE('',#9,POSITIVE_LENGTH_MEASURE(2.E-2),#1);
#560=PRESENTATION_STYLE_ASSIGNMENT((#559));
#561=STYLED_ITEM('',(#560),#558);
#562=CARTESIAN_POINT('',(0.E0,0.E0,-1.3743E1));
#563=DIRECTION('',(0.E0,0.E0,-1.E0));
#564=DIRECTION('',(0.E0,1.E0,0.E0));
#565=AXIS2_PLACEMENT_3D('',#562,#563,#564);
#567=CURVE_STYLE('',#9,POSITIVE_LENGTH_MEASURE(2.E-2),#1);
#568=PRESENTATION_STYLE_ASSIGNMENT((#567));
#569=STYLED_ITEM('',(#568),#566);
#570=CARTESIAN_POINT('',(0.E0,0.E0,-1.3181E1));
#571=DIRECTION('',(0.E0,0.E0,-1.E0));
#572=DIRECTION('',(0.E0,1.E0,0.E0));
#573=AXIS2_PLACEMENT_3D('',#570,#571,#572);
#575=CURVE_STYLE('',#9,POSITIVE_LENGTH_MEASURE(2.E-2),#1);
#576=PRESENTATION_STYLE_ASSIGNMENT((#575));
#577=STYLED_ITEM('',(#576),#574);
#578=CARTESIAN_POINT('',(-2.930417228320E-10,1.1827E0,-1.3181E1));
#579=DIRECTION('',(1.E0,2.477735065731E-10,0.E0));
#580=DIRECTION('',(-2.477735065731E-10,1.E0,0.E0));
#581=AXIS2_PLACEMENT_3D('',#578,#579,#580);
#583=CURVE_STYLE('',#9,POSITIVE_LENGTH_MEASURE(2.E-2),#1);
#584=PRESENTATION_STYLE_ASSIGNMENT((#583));
#585=STYLED_ITEM('',(#584),#582);
#586=CARTESIAN_POINT('',(0.E0,-4.953E-1,-8.859248775786E0));
#587=CARTESIAN_POINT('',(0.E0,-8.672743878931E-1,-9.757274387893E0));
#588=VERTEX_POINT('',#586);
#589=VERTEX_POINT('',#587);
#590=CARTESIAN_POINT('',(0.E0,4.953E-1,-8.859248775786E0));
#591=CARTESIAN_POINT('',(0.E0,8.672743878931E-1,-9.757274387893E0));
#592=VERTEX_POINT('',#590);
#593=VERTEX_POINT('',#591);
#594=CARTESIAN_POINT('',(0.E0,-9.652E-1,-1.3081E1));
#595=CARTESIAN_POINT('',(0.E0,9.652E-1,-1.3081E1));
#596=VERTEX_POINT('',#594);
#597=VERTEX_POINT('',#595);
#598=CARTESIAN_POINT('',(0.E0,-9.652E-1,-1.80594E1));
#599=CARTESIAN_POINT('',(0.E0,9.652E-1,-1.80594E1));
#600=VERTEX_POINT('',#598);
#601=VERTEX_POINT('',#599);
#602=CARTESIAN_POINT('',(6.35E-1,0.E0,-1.70594E1));
#603=CARTESIAN_POINT('',(-6.35E-1,0.E0,-1.70594E1));
#604=VERTEX_POINT('',#602);
#605=VERTEX_POINT('',#603);
#606=CARTESIAN_POINT('',(8.128E-1,0.E0,-1.80594E1));
#607=CARTESIAN_POINT('',(-8.128E-1,0.E0,-1.80594E1));
#608=VERTEX_POINT('',#606);
#609=VERTEX_POINT('',#607);
#610=CARTESIAN_POINT('',(6.35E-1,0.E0,-1.78816E1));
#611=CARTESIAN_POINT('',(-6.35E-1,0.E0,-1.78816E1));
#612=VERTEX_POINT('',#610);
#613=VERTEX_POINT('',#611);
#614=VERTEX_POINT('',#424);
#615=VERTEX_POINT('',#438);
#616=VERTEX_POINT('',#388);
#617=VERTEX_POINT('',#397);
#618=VERTEX_POINT('',#383);
#619=VERTEX_POINT('',#331);
#620=CARTESIAN_POINT('',(0.E0,9.652E-1,-1.3943E1));
#621=CARTESIAN_POINT('',(0.E0,-9.652E-1,-1.3943E1));
#622=VERTEX_POINT('',#620);
#623=VERTEX_POINT('',#621);
#624=CARTESIAN_POINT('',(0.E0,1.0652E0,-1.3843E1));
#625=CARTESIAN_POINT('',(0.E0,-1.0652E0,-1.3843E1));
#626=VERTEX_POINT('',#624);
#627=VERTEX_POINT('',#625);
#628=CARTESIAN_POINT('',(0.E0,-1.1827E0,-1.3843E1));
#629=CARTESIAN_POINT('',(0.E0,1.1827E0,-1.3843E1));
#630=VERTEX_POINT('',#628);
#631=VERTEX_POINT('',#629);
#632=CARTESIAN_POINT('',(0.E0,-1.2827E0,-1.3743E1));
#633=CARTESIAN_POINT('',(0.E0,1.2827E0,-1.3743E1));
#634=VERTEX_POINT('',#632);
#635=VERTEX_POINT('',#633);
#636=CARTESIAN_POINT('',(0.E0,-1.2827E0,-1.3181E1));
#637=CARTESIAN_POINT('',(0.E0,1.2827E0,-1.3181E1));
#638=VERTEX_POINT('',#636);
#639=VERTEX_POINT('',#637);
#640=CARTESIAN_POINT('',(0.E0,-1.1827E0,-1.3081E1));
#641=CARTESIAN_POINT('',(0.E0,1.1827E0,-1.3081E1));
#642=VERTEX_POINT('',#640);
#643=VERTEX_POINT('',#641);
#644=CARTESIAN_POINT('',(0.E0,-9.652E-1,-9.888337084990E0));
#645=CARTESIAN_POINT('',(0.E0,9.652E-1,-9.888337084990E0));
#646=VERTEX_POINT('',#644);
#647=VERTEX_POINT('',#645);
#648=CARTESIAN_POINT('',(0.E0,-9.417685424949E-1,-9.831768542495E0));
#649=CARTESIAN_POINT('',(0.E0,9.417685424949E-1,-9.831768542495E0));
#650=VERTEX_POINT('',#648);
#651=VERTEX_POINT('',#649);
#652=CARTESIAN_POINT('',(0.E0,4.953E-1,-2.5E-1));
#653=CARTESIAN_POINT('',(0.E0,-4.953E-1,-2.5E-1));
#654=VERTEX_POINT('',#652);
#655=VERTEX_POINT('',#653);
#656=CARTESIAN_POINT('',(0.E0,2.453E-1,0.E0));
#657=CARTESIAN_POINT('',(0.E0,-2.453E-1,0.E0));
#658=VERTEX_POINT('',#656);
#659=VERTEX_POINT('',#657);
#660=CARTESIAN_POINT('',(0.E0,0.E0,0.E0));
#661=DIRECTION('',(0.E0,0.E0,1.E0));
#662=DIRECTION('',(0.E0,1.E0,0.E0));
#663=AXIS2_PLACEMENT_3D('',#660,#661,#662);
#664=PLANE('',#663);
#666=ORIENTED_EDGE('',*,*,#665,.T.);
#668=ORIENTED_EDGE('',*,*,#667,.T.);
#669=EDGE_LOOP('',(#666,#668));
#670=FACE_OUTER_BOUND('',#669,.F.);
#672=CARTESIAN_POINT('',(-4.804673162539E-2,-4.918182714529E-1,
-2.738517165320E-1));
#673=CARTESIAN_POINT('',(-4.962080927550E-2,-5.079309210093E-1,
-1.049382507915E-1));
#674=CARTESIAN_POINT('',(-3.795455268746E-2,-3.885122226847E-1,
1.504894457670E-2));
#675=CARTESIAN_POINT('',(-2.153123496212E-2,-2.203990657238E-1,
-1.140409832219E-3));
#676=CARTESIAN_POINT('',(2.628137270100E-1,-5.221868646832E-1,
-2.738517165320E-1));
#677=CARTESIAN_POINT('',(2.714238696739E-1,-5.392944315265E-1,
-1.049382507915E-1));
#678=CARTESIAN_POINT('',(2.076099062588E-1,-4.125019163186E-1,
1.504894457670E-2));
#679=CARTESIAN_POINT('',(1.177750060429E-1,-2.340081769826E-1,
-1.140409832219E-3));
#680=CARTESIAN_POINT('',(4.941595865754E-1,-3.123403268044E-1,
-2.738517165320E-1));
#681=CARTESIAN_POINT('',(5.103489408666E-1,-3.225730296547E-1,
-1.049382507915E-1));
#682=CARTESIAN_POINT('',(3.903617463707E-1,-2.467334819472E-1,
1.504894457670E-2));
#683=CARTESIAN_POINT('',(2.214482818581E-1,-1.399694159637E-1,
-1.140409832219E-3));
#684=CARTESIAN_POINT('',(4.941595901678E-1,-5.683645502050E-9,
-2.738517165320E-1));
#685=CARTESIAN_POINT('',(5.103489445767E-1,-5.869849872938E-9,
-1.049382507915E-1));
#686=CARTESIAN_POINT('',(3.903617492085E-1,-4.489799659031E-9,
1.504894457670E-2));
#687=CARTESIAN_POINT('',(2.214482834680E-1,-2.547016560316E-9,
-1.140409832219E-3));
#688=CARTESIAN_POINT('',(4.941595937602E-1,3.123403154371E-1,
-2.738517165320E-1));
#689=CARTESIAN_POINT('',(5.103489482868E-1,3.225730179150E-1,
-1.049382507915E-1));
#690=CARTESIAN_POINT('',(3.903617520463E-1,2.467334729676E-1,
1.504894457670E-2));
#691=CARTESIAN_POINT('',(2.214482850779E-1,1.399694108697E-1,
-1.140409832219E-3));
#692=CARTESIAN_POINT('',(2.628137390220E-1,5.221868586376E-1,
-2.738517165320E-1));
#693=CARTESIAN_POINT('',(2.714238820795E-1,5.392944252829E-1,
-1.049382507915E-1));
#694=CARTESIAN_POINT('',(2.076099157477E-1,4.125019115429E-1,
1.504894457670E-2));
#695=CARTESIAN_POINT('',(1.177750114259E-1,2.340081742734E-1,
-1.140409832219E-3));
#696=CARTESIAN_POINT('',(-4.804672031195E-2,4.918182725581E-1,
-2.738517165320E-1));
#697=CARTESIAN_POINT('',(-4.962079759142E-2,5.079309221508E-1,
-1.049382507915E-1));
#698=CARTESIAN_POINT('',(-3.795454375040E-2,3.885122235578E-1,
1.504894457670E-2));
#699=CARTESIAN_POINT('',(-2.153122989222E-2,2.203990662191E-1,
-1.140409832219E-3));
#700=(BOUNDED_SURFACE()B_SPLINE_SURFACE(3,3,((#672,#673,#674,#675),(#676,#677,
#678,#679),(#680,#681,#682,#683),(#684,#685,#686,#687),(#688,#689,#690,#691),(
#692,#693,#694,#695),(#696,#697,#698,#699)),.UNSPECIFIED.,.F.,.F.,.F.)B_SPLINE_SURFACE_WITH_KNOTS((4,3,4),(4,4),(0.E0,1.E0,2.E0),(0.E0,1.E0),.UNSPECIFIED.)GEOMETRIC_REPRESENTATION_ITEM()RATIONAL_B_SPLINE_SURFACE(((1.462068620375E0,
1.107681095258E0,1.107681095258E0,1.462068620375E0),(1.142218913206E0,
8.653590393592E-1,8.653590393592E-1,1.142218913206E0),(1.142218913206E0,
8.653590393592E-1,8.653590393592E-1,1.142218913206E0),(1.462068620375E0,
1.107681095258E0,1.107681095258E0,1.462068620375E0),(1.142218913206E0,
8.653590393592E-1,8.653590393592E-1,1.142218913206E0),(1.142218913206E0,
8.653590393592E-1,8.653590393592E-1,1.142218913206E0),(1.462068620375E0,
1.107681095258E0,1.107681095258E0,1.462068620375E0)))REPRESENTATION_ITEM('')SURFACE());
#702=ORIENTED_EDGE('',*,*,#701,.T.);
#704=ORIENTED_EDGE('',*,*,#703,.T.);
#705=ORIENTED_EDGE('',*,*,#665,.F.);
#707=ORIENTED_EDGE('',*,*,#706,.F.);
#708=EDGE_LOOP('',(#702,#704,#705,#707));
#709=FACE_OUTER_BOUND('',#708,.F.);
#711=CARTESIAN_POINT('',(0.E0,0.E0,-1.896237E1));
#712=DIRECTION('',(0.E0,0.E0,1.E0));
#713=DIRECTION('',(0.E0,1.E0,0.E0));
#714=AXIS2_PLACEMENT_3D('',#711,#712,#713);
#715=CYLINDRICAL_SURFACE('',#714,4.953E-1);
#716=ORIENTED_EDGE('',*,*,#701,.F.);
#718=ORIENTED_EDGE('',*,*,#717,.T.);
#720=ORIENTED_EDGE('',*,*,#719,.F.);
#722=ORIENTED_EDGE('',*,*,#721,.F.);
#723=EDGE_LOOP('',(#716,#718,#720,#722));
#724=FACE_OUTER_BOUND('',#723,.F.);
#726=CARTESIAN_POINT('',(0.E0,0.E0,-1.896237E1));
#727=DIRECTION('',(0.E0,0.E0,1.E0));
#728=DIRECTION('',(0.E0,1.E0,0.E0));
#729=AXIS2_PLACEMENT_3D('',#726,#727,#728);
#730=CYLINDRICAL_SURFACE('',#729,4.953E-1);
#732=ORIENTED_EDGE('',*,*,#731,.F.);
#733=ORIENTED_EDGE('',*,*,#721,.T.);
#735=ORIENTED_EDGE('',*,*,#734,.T.);
#736=ORIENTED_EDGE('',*,*,#717,.F.);
#737=EDGE_LOOP('',(#732,#733,#735,#736));
#738=FACE_OUTER_BOUND('',#737,.F.);
#740=CARTESIAN_POINT('',(4.804673162539E-2,4.918182714529E-1,
-2.738517165320E-1));
#741=CARTESIAN_POINT('',(4.962080927550E-2,5.079309210093E-1,
-1.049382507915E-1));
#742=CARTESIAN_POINT('',(3.795455268746E-2,3.885122226847E-1,
1.504894457670E-2));
#743=CARTESIAN_POINT('',(2.153123496212E-2,2.203990657238E-1,
-1.140409832219E-3));
#744=CARTESIAN_POINT('',(-2.628137270100E-1,5.221868646832E-1,
-2.738517165320E-1));
#745=CARTESIAN_POINT('',(-2.714238696739E-1,5.392944315265E-1,
-1.049382507915E-1));
#746=CARTESIAN_POINT('',(-2.076099062588E-1,4.125019163187E-1,
1.504894457670E-2));
#747=CARTESIAN_POINT('',(-1.177750060429E-1,2.340081769826E-1,
-1.140409832219E-3));
#748=CARTESIAN_POINT('',(-4.941595865754E-1,3.123403268044E-1,
-2.738517165320E-1));
#749=CARTESIAN_POINT('',(-5.103489408666E-1,3.225730296547E-1,
-1.049382507915E-1));
#750=CARTESIAN_POINT('',(-3.903617463707E-1,2.467334819472E-1,
1.504894457670E-2));
#751=CARTESIAN_POINT('',(-2.214482818581E-1,1.399694159637E-1,
-1.140409832219E-3));
#752=CARTESIAN_POINT('',(-4.941595901678E-1,5.683652164168E-9,
-2.738517165320E-1));
#753=CARTESIAN_POINT('',(-5.103489445767E-1,5.869856381003E-9,
-1.049382507915E-1));
#754=CARTESIAN_POINT('',(-3.903617492085E-1,4.489806195676E-9,
1.504894457670E-2));
#755=CARTESIAN_POINT('',(-2.214482834680E-1,2.547023209604E-9,
-1.140409832219E-3));
#756=CARTESIAN_POINT('',(-4.941595937602E-1,-3.123403154371E-1,
-2.738517165320E-1));
#757=CARTESIAN_POINT('',(-5.103489482868E-1,-3.225730179150E-1,
-1.049382507915E-1));
#758=CARTESIAN_POINT('',(-3.903617520463E-1,-2.467334729676E-1,
1.504894457670E-2));
#759=CARTESIAN_POINT('',(-2.214482850779E-1,-1.399694108697E-1,
-1.140409832219E-3));
#760=CARTESIAN_POINT('',(-2.628137390220E-1,-5.221868586376E-1,
-2.738517165320E-1));
#761=CARTESIAN_POINT('',(-2.714238820795E-1,-5.392944252829E-1,
-1.049382507915E-1));
#762=CARTESIAN_POINT('',(-2.076099157477E-1,-4.125019115429E-1,
1.504894457670E-2));
#763=CARTESIAN_POINT('',(-1.177750114259E-1,-2.340081742734E-1,
-1.140409832219E-3));
#764=CARTESIAN_POINT('',(4.804672031195E-2,-4.918182725581E-1,
-2.738517165320E-1));
#765=CARTESIAN_POINT('',(4.962079759142E-2,-5.079309221508E-1,
-1.049382507915E-1));
#766=CARTESIAN_POINT('',(3.795454375040E-2,-3.885122235578E-1,
1.504894457670E-2));
#767=CARTESIAN_POINT('',(2.153122989222E-2,-2.203990662191E-1,
-1.140409832219E-3));
#768=(BOUNDED_SURFACE()B_SPLINE_SURFACE(3,3,((#740,#741,#742,#743),(#744,#745,
#746,#747),(#748,#749,#750,#751),(#752,#753,#754,#755),(#756,#757,#758,#759),(
#760,#761,#762,#763),(#764,#765,#766,#767)),.UNSPECIFIED.,.F.,.F.,.F.)B_SPLINE_SURFACE_WITH_KNOTS((4,3,4),(4,4),(0.E0,1.E0,2.E0),(0.E0,1.E0),.UNSPECIFIED.)GEOMETRIC_REPRESENTATION_ITEM()RATIONAL_B_SPLINE_SURFACE(((1.462068620375E0,
1.107681095258E0,1.107681095258E0,1.462068620375E0),(1.142218913206E0,
8.653590393592E-1,8.653590393592E-1,1.142218913206E0),(1.142218913206E0,
8.653590393592E-1,8.653590393592E-1,1.142218913206E0),(1.462068620375E0,
1.107681095258E0,1.107681095258E0,1.462068620375E0),(1.142218913206E0,
8.653590393592E-1,8.653590393592E-1,1.142218913206E0),(1.142218913206E0,
8.653590393592E-1,8.653590393592E-1,1.142218913206E0),(1.462068620375E0,
1.107681095258E0,1.107681095258E0,1.462068620375E0)))REPRESENTATION_ITEM('')SURFACE());
#769=ORIENTED_EDGE('',*,*,#731,.T.);
#770=ORIENTED_EDGE('',*,*,#706,.T.);
#771=ORIENTED_EDGE('',*,*,#667,.F.);
#772=ORIENTED_EDGE('',*,*,#703,.F.);
#773=EDGE_LOOP('',(#769,#770,#771,#772));
#774=FACE_OUTER_BOUND('',#773,.F.);
#776=CARTESIAN_POINT('',(0.E0,0.E0,-8.859248775786E0));
#777=DIRECTION('',(0.E0,0.E0,1.E0));
#778=DIRECTION('',(0.E0,1.E0,0.E0));
#779=AXIS2_PLACEMENT_3D('',#776,#777,#778);
#780=TOROIDAL_SURFACE('',#779,1.7653E0,1.27E0);
#782=ORIENTED_EDGE('',*,*,#781,.T.);
#784=ORIENTED_EDGE('',*,*,#783,.T.);
#786=ORIENTED_EDGE('',*,*,#785,.F.);
#787=ORIENTED_EDGE('',*,*,#734,.F.);
#788=EDGE_LOOP('',(#782,#784,#786,#787));
#789=FACE_OUTER_BOUND('',#788,.F.);
#791=CARTESIAN_POINT('',(0.E0,0.E0,-8.859248775786E0));
#792=DIRECTION('',(0.E0,0.E0,1.E0));
#793=DIRECTION('',(0.E0,1.E0,0.E0));
#794=AXIS2_PLACEMENT_3D('',#791,#792,#793);
#795=TOROIDAL_SURFACE('',#794,1.7653E0,1.27E0);
#796=ORIENTED_EDGE('',*,*,#781,.F.);
#797=ORIENTED_EDGE('',*,*,#719,.T.);
#798=ORIENTED_EDGE('',*,*,#785,.T.);
#800=ORIENTED_EDGE('',*,*,#799,.F.);
#801=EDGE_LOOP('',(#796,#797,#798,#800));
#802=FACE_OUTER_BOUND('',#801,.F.);
#804=CARTESIAN_POINT('',(0.E0,0.E0,-9.794521465194E0));
#805=DIRECTION('',(0.E0,0.E0,-1.E0));
#806=DIRECTION('',(0.E0,-1.E0,0.E0));
#807=AXIS2_PLACEMENT_3D('',#804,#805,#806);
#808=CONICAL_SURFACE('',#807,9.045214651940E-1,4.5E1);
#810=ORIENTED_EDGE('',*,*,#809,.T.);
#812=ORIENTED_EDGE('',*,*,#811,.F.);
#813=ORIENTED_EDGE('',*,*,#799,.T.);
#815=ORIENTED_EDGE('',*,*,#814,.T.);
#816=EDGE_LOOP('',(#810,#812,#813,#815));
#817=FACE_OUTER_BOUND('',#816,.F.);
#819=CARTESIAN_POINT('',(0.E0,0.E0,-9.888337084990E0));
#820=DIRECTION('',(0.E0,0.E0,1.E0));
#821=DIRECTION('',(-3.048770109816E-2,9.995351419944E-1,0.E0));
#822=AXIS2_PLACEMENT_3D('',#819,#820,#821);
#823=TOROIDAL_SURFACE('',#822,8.852E-1,8.E-2);
#825=ORIENTED_EDGE('',*,*,#824,.T.);
#827=ORIENTED_EDGE('',*,*,#826,.T.);
#828=ORIENTED_EDGE('',*,*,#809,.F.);
#830=ORIENTED_EDGE('',*,*,#829,.F.);
#831=EDGE_LOOP('',(#825,#827,#828,#830));
#832=FACE_OUTER_BOUND('',#831,.F.);
#834=CARTESIAN_POINT('',(0.E0,0.E0,-1.896237E1));
#835=DIRECTION('',(0.E0,0.E0,1.E0));
#836=DIRECTION('',(0.E0,1.E0,0.E0));
#837=AXIS2_PLACEMENT_3D('',#834,#835,#836);
#838=CYLINDRICAL_SURFACE('',#837,9.652E-1);
#839=ORIENTED_EDGE('',*,*,#824,.F.);
#841=ORIENTED_EDGE('',*,*,#840,.T.);
#843=ORIENTED_EDGE('',*,*,#842,.F.);
#845=ORIENTED_EDGE('',*,*,#844,.F.);
#846=EDGE_LOOP('',(#839,#841,#843,#845));
#847=FACE_OUTER_BOUND('',#846,.F.);
#849=CARTESIAN_POINT('',(0.E0,0.E0,-1.896237E1));
#850=DIRECTION('',(0.E0,0.E0,1.E0));
#851=DIRECTION('',(0.E0,1.E0,0.E0));
#852=AXIS2_PLACEMENT_3D('',#849,#850,#851);
#853=CYLINDRICAL_SURFACE('',#852,9.652E-1);
#855=ORIENTED_EDGE('',*,*,#854,.F.);
#856=ORIENTED_EDGE('',*,*,#844,.T.);
#858=ORIENTED_EDGE('',*,*,#857,.T.);
#859=ORIENTED_EDGE('',*,*,#840,.F.);
#860=EDGE_LOOP('',(#855,#856,#858,#859));
#861=FACE_OUTER_BOUND('',#860,.F.);
#863=CARTESIAN_POINT('',(0.E0,0.E0,-9.888337084990E0));
#864=DIRECTION('',(0.E0,0.E0,1.E0));
#865=DIRECTION('',(3.048770109816E-2,-9.995351419944E-1,0.E0));
#866=AXIS2_PLACEMENT_3D('',#863,#864,#865);
#867=TOROIDAL_SURFACE('',#866,8.852E-1,8.E-2);
#868=ORIENTED_EDGE('',*,*,#854,.T.);
#869=ORIENTED_EDGE('',*,*,#829,.T.);
#871=ORIENTED_EDGE('',*,*,#870,.F.);
#872=ORIENTED_EDGE('',*,*,#826,.F.);
#873=EDGE_LOOP('',(#868,#869,#871,#872));
#874=FACE_OUTER_BOUND('',#873,.F.);
#876=CARTESIAN_POINT('',(0.E0,0.E0,-9.794521465194E0));
#877=DIRECTION('',(0.E0,0.E0,-1.E0));
#878=DIRECTION('',(0.E0,-1.E0,0.E0));
#879=AXIS2_PLACEMENT_3D('',#876,#877,#878);
#880=CONICAL_SURFACE('',#879,9.045214651940E-1,4.5E1);
#881=ORIENTED_EDGE('',*,*,#870,.T.);
#882=ORIENTED_EDGE('',*,*,#814,.F.);
#883=ORIENTED_EDGE('',*,*,#783,.F.);
#884=ORIENTED_EDGE('',*,*,#811,.T.);
#885=EDGE_LOOP('',(#881,#882,#883,#884));
#886=FACE_OUTER_BOUND('',#885,.F.);
#888=CARTESIAN_POINT('',(0.E0,0.E0,-1.3081E1));
#889=DIRECTION('',(0.E0,0.E0,1.E0));
#890=DIRECTION('',(0.E0,1.E0,0.E0));
#891=AXIS2_PLACEMENT_3D('',#888,#889,#890);
#892=PLANE('',#891);
#894=ORIENTED_EDGE('',*,*,#893,.T.);
#896=ORIENTED_EDGE('',*,*,#895,.T.);
#897=EDGE_LOOP('',(#894,#896));
#898=FACE_OUTER_BOUND('',#897,.F.);
#899=ORIENTED_EDGE('',*,*,#842,.T.);
#900=ORIENTED_EDGE('',*,*,#857,.F.);
#901=EDGE_LOOP('',(#899,#900));
#902=FACE_BOUND('',#901,.F.);
#904=CARTESIAN_POINT('',(0.E0,0.E0,-1.3181E1));
#905=DIRECTION('',(0.E0,0.E0,1.E0));
#906=DIRECTION('',(2.294278268397E-2,-9.997367797189E-1,0.E0));
#907=AXIS2_PLACEMENT_3D('',#904,#905,#906);
#908=TOROIDAL_SURFACE('',#907,1.1827E0,1.E-1);
#910=ORIENTED_EDGE('',*,*,#909,.T.);
#912=ORIENTED_EDGE('',*,*,#911,.T.);
#913=ORIENTED_EDGE('',*,*,#893,.F.);
#915=ORIENTED_EDGE('',*,*,#914,.F.);
#916=EDGE_LOOP('',(#910,#912,#913,#915));
#917=FACE_OUTER_BOUND('',#916,.F.);
#919=CARTESIAN_POINT('',(0.E0,0.E0,-1.896237E1));
#920=DIRECTION('',(0.E0,0.E0,1.E0));
#921=DIRECTION('',(0.E0,1.E0,0.E0));
#922=AXIS2_PLACEMENT_3D('',#919,#920,#921);
#923=CYLINDRICAL_SURFACE('',#922,1.2827E0);
#925=ORIENTED_EDGE('',*,*,#924,.T.);
#927=ORIENTED_EDGE('',*,*,#926,.F.);
#928=ORIENTED_EDGE('',*,*,#909,.F.);
#930=ORIENTED_EDGE('',*,*,#929,.T.);
#931=EDGE_LOOP('',(#925,#927,#928,#930));
#932=FACE_OUTER_BOUND('',#931,.F.);
#934=CARTESIAN_POINT('',(0.E0,0.E0,-1.3743E1));
#935=DIRECTION('',(0.E0,0.E0,1.E0));
#936=DIRECTION('',(3.389206507895E-2,-9.994254989366E-1,0.E0));
#937=AXIS2_PLACEMENT_3D('',#934,#935,#936);
#938=TOROIDAL_SURFACE('',#937,1.1827E0,1.E-1);
#940=ORIENTED_EDGE('',*,*,#939,.T.);
#942=ORIENTED_EDGE('',*,*,#941,.T.);
#943=ORIENTED_EDGE('',*,*,#924,.F.);
#945=ORIENTED_EDGE('',*,*,#944,.F.);
#946=EDGE_LOOP('',(#940,#942,#943,#945));
#947=FACE_OUTER_BOUND('',#946,.F.);
#949=CARTESIAN_POINT('',(0.E0,0.E0,-1.3843E1));
#950=DIRECTION('',(0.E0,0.E0,1.E0));
#951=DIRECTION('',(0.E0,1.E0,0.E0));
#952=AXIS2_PLACEMENT_3D('',#949,#950,#951);
#953=PLANE('',#952);
#954=ORIENTED_EDGE('',*,*,#939,.F.);
#956=ORIENTED_EDGE('',*,*,#955,.F.);
#957=EDGE_LOOP('',(#954,#956));
#958=FACE_OUTER_BOUND('',#957,.F.);
#960=ORIENTED_EDGE('',*,*,#959,.F.);
#962=ORIENTED_EDGE('',*,*,#961,.F.);
#963=EDGE_LOOP('',(#960,#962));
#964=FACE_BOUND('',#963,.F.);
#966=CARTESIAN_POINT('',(0.E0,0.E0,-1.3943E1));
#967=DIRECTION('',(0.E0,0.E0,1.E0));
#968=DIRECTION('',(3.323584449715E-2,9.994475367124E-1,0.E0));
#969=AXIS2_PLACEMENT_3D('',#966,#967,#968);
#970=TOROIDAL_SURFACE('',#969,1.0652E0,1.E-1);
#972=ORIENTED_EDGE('',*,*,#971,.F.);
#974=ORIENTED_EDGE('',*,*,#973,.T.);
#975=ORIENTED_EDGE('',*,*,#959,.T.);
#977=ORIENTED_EDGE('',*,*,#976,.F.);
#978=EDGE_LOOP('',(#972,#974,#975,#977));
#979=FACE_OUTER_BOUND('',#978,.F.);
#981=CARTESIAN_POINT('',(0.E0,0.E0,-1.896237E1));
#982=DIRECTION('',(0.E0,0.E0,1.E0));
#983=DIRECTION('',(0.E0,1.E0,0.E0));
#984=AXIS2_PLACEMENT_3D('',#981,#982,#983);
#985=CYLINDRICAL_SURFACE('',#984,9.652E-1);
#986=ORIENTED_EDGE('',*,*,#971,.T.);
#988=ORIENTED_EDGE('',*,*,#987,.T.);
#990=ORIENTED_EDGE('',*,*,#989,.T.);
#992=ORIENTED_EDGE('',*,*,#991,.F.);
#994=ORIENTED_EDGE('',*,*,#993,.F.);
#996=ORIENTED_EDGE('',*,*,#995,.F.);
#998=ORIENTED_EDGE('',*,*,#997,.F.);
#999=EDGE_LOOP('',(#986,#988,#990,#992,#994,#996,#998));
#1000=FACE_OUTER_BOUND('',#999,.F.);
#1002=CARTESIAN_POINT('',(0.E0,0.E0,-1.896237E1));
#1003=DIRECTION('',(0.E0,0.E0,1.E0));
#1004=DIRECTION('',(0.E0,1.E0,0.E0));
#1005=AXIS2_PLACEMENT_3D('',#1002,#1003,#1004);
#1006=CYLINDRICAL_SURFACE('',#1005,9.652E-1);
#1008=ORIENTED_EDGE('',*,*,#1007,.T.);
#1009=ORIENTED_EDGE('',*,*,#997,.T.);
#1011=ORIENTED_EDGE('',*,*,#1010,.F.);
#1013=ORIENTED_EDGE('',*,*,#1012,.F.);
#1014=ORIENTED_EDGE('',*,*,#991,.T.);
#1016=ORIENTED_EDGE('',*,*,#1015,.F.);
#1017=ORIENTED_EDGE('',*,*,#987,.F.);
#1018=EDGE_LOOP('',(#1008,#1009,#1011,#1013,#1014,#1016,#1017));
#1019=FACE_OUTER_BOUND('',#1018,.F.);
#1021=CARTESIAN_POINT('',(0.E0,0.E0,-1.3943E1));
#1022=DIRECTION('',(0.E0,0.E0,1.E0));
#1023=DIRECTION('',(-3.323584449715E-2,-9.994475367124E-1,0.E0));
#1024=AXIS2_PLACEMENT_3D('',#1021,#1022,#1023);
#1025=TOROIDAL_SURFACE('',#1024,1.0652E0,1.E-1);
#1026=ORIENTED_EDGE('',*,*,#1007,.F.);
#1027=ORIENTED_EDGE('',*,*,#976,.T.);
#1028=ORIENTED_EDGE('',*,*,#961,.T.);
#1029=ORIENTED_EDGE('',*,*,#973,.F.);
#1030=EDGE_LOOP('',(#1026,#1027,#1028,#1029));
#1031=FACE_OUTER_BOUND('',#1030,.F.);
#1033=CARTESIAN_POINT('',(0.E0,6.35E-1,-1.4605E1));
#1034=DIRECTION('',(0.E0,1.E0,0.E0));
#1035=DIRECTION('',(1.E0,0.E0,0.E0));
#1036=AXIS2_PLACEMENT_3D('',#1033,#1034,#1035);
#1037=CYLINDRICAL_SURFACE('',#1036,3.683E-1);
#1038=ORIENTED_EDGE('',*,*,#1010,.T.);
#1039=ORIENTED_EDGE('',*,*,#995,.T.);
#1041=ORIENTED_EDGE('',*,*,#1040,.F.);
#1043=ORIENTED_EDGE('',*,*,#1042,.T.);
#1045=ORIENTED_EDGE('',*,*,#1044,.T.);
#1046=EDGE_LOOP('',(#1038,#1039,#1041,#1043,#1045));
#1047=FACE_OUTER_BOUND('',#1046,.F.);
#1049=CARTESIAN_POINT('',(0.E0,6.35E-1,-1.4605E1));
#1050=DIRECTION('',(0.E0,1.E0,0.E0));
#1051=DIRECTION('',(1.E0,0.E0,0.E0));
#1052=AXIS2_PLACEMENT_3D('',#1049,#1050,#1051);
#1053=CYLINDRICAL_SURFACE('',#1052,3.683E-1);
#1054=ORIENTED_EDGE('',*,*,#1012,.T.);
#1055=ORIENTED_EDGE('',*,*,#1044,.F.);
#1057=ORIENTED_EDGE('',*,*,#1056,.T.);
#1058=ORIENTED_EDGE('',*,*,#1040,.T.);
#1059=ORIENTED_EDGE('',*,*,#993,.T.);
#1060=EDGE_LOOP('',(#1054,#1055,#1057,#1058,#1059));
#1061=FACE_OUTER_BOUND('',#1060,.F.);
#1063=CARTESIAN_POINT('',(0.E0,0.E0,-1.80594E1));
#1064=DIRECTION('',(0.E0,0.E0,-1.E0));
#1065=DIRECTION('',(1.E0,0.E0,0.E0));
#1066=AXIS2_PLACEMENT_3D('',#1063,#1064,#1065);
#1067=CYLINDRICAL_SURFACE('',#1066,6.35E-1);
#1068=ORIENTED_EDGE('',*,*,#1056,.F.);
#1069=ORIENTED_EDGE('',*,*,#1042,.F.);
#1070=EDGE_LOOP('',(#1068,#1069));
#1071=FACE_OUTER_BOUND('',#1070,.F.);
#1073=CARTESIAN_POINT('',(0.E0,0.E0,-1.80594E1));
#1074=DIRECTION('',(0.E0,0.E0,1.E0));
#1075=DIRECTION('',(0.E0,1.E0,0.E0));
#1076=AXIS2_PLACEMENT_3D('',#1073,#1074,#1075);
#1077=PLANE('',#1076);
#1078=ORIENTED_EDGE('',*,*,#989,.F.);
#1079=ORIENTED_EDGE('',*,*,#1015,.T.);
#1080=EDGE_LOOP('',(#1078,#1079));
#1081=FACE_OUTER_BOUND('',#1080,.F.);
#1083=ORIENTED_EDGE('',*,*,#1082,.F.);
#1085=ORIENTED_EDGE('',*,*,#1084,.F.);
#1086=EDGE_LOOP('',(#1083,#1085));
#1087=FACE_BOUND('',#1086,.F.);
#1089=CARTESIAN_POINT('',(0.E0,0.E0,-1.797049999905E1));
#1090=DIRECTION('',(0.E0,0.E0,-1.E0));
#1091=DIRECTION('',(0.E0,-1.E0,0.E0));
#1092=AXIS2_PLACEMENT_3D('',#1089,#1090,#1091);
#1093=CONICAL_SURFACE('',#1092,7.238999990519E-1,4.5E1);
#1094=ORIENTED_EDGE('',*,*,#1082,.T.);
#1096=ORIENTED_EDGE('',*,*,#1095,.T.);
#1098=ORIENTED_EDGE('',*,*,#1097,.F.);
#1100=ORIENTED_EDGE('',*,*,#1099,.F.);
#1101=EDGE_LOOP('',(#1094,#1096,#1098,#1100));
#1102=FACE_OUTER_BOUND('',#1101,.F.);
#1104=CARTESIAN_POINT('',(0.E0,0.E0,-1.797049999905E1));
#1105=DIRECTION('',(0.E0,0.E0,-1.E0));
#1106=DIRECTION('',(0.E0,-1.E0,0.E0));
#1107=AXIS2_PLACEMENT_3D('',#1104,#1105,#1106);
#1108=CONICAL_SURFACE('',#1107,7.238999990519E-1,4.5E1);
#1109=ORIENTED_EDGE('',*,*,#1084,.T.);
#1110=ORIENTED_EDGE('',*,*,#1099,.T.);
#1112=ORIENTED_EDGE('',*,*,#1111,.F.);
#1113=ORIENTED_EDGE('',*,*,#1095,.F.);
#1114=EDGE_LOOP('',(#1109,#1110,#1112,#1113));
#1115=FACE_OUTER_BOUND('',#1114,.F.);
#1117=CARTESIAN_POINT('',(0.E0,0.E0,-1.80594E1));
#1118=DIRECTION('',(0.E0,0.E0,-1.E0));
#1119=DIRECTION('',(1.E0,0.E0,0.E0));
#1120=AXIS2_PLACEMENT_3D('',#1117,#1118,#1119);
#1121=CYLINDRICAL_SURFACE('',#1120,6.35E-1);
#1122=ORIENTED_EDGE('',*,*,#1111,.T.);
#1124=ORIENTED_EDGE('',*,*,#1123,.T.);
#1126=ORIENTED_EDGE('',*,*,#1125,.T.);
#1128=ORIENTED_EDGE('',*,*,#1127,.F.);
#1129=EDGE_LOOP('',(#1122,#1124,#1126,#1128));
#1130=FACE_OUTER_BOUND('',#1129,.F.);
#1132=CARTESIAN_POINT('',(0.E0,0.E0,-1.80594E1));
#1133=DIRECTION('',(0.E0,0.E0,-1.E0));
#1134=DIRECTION('',(1.E0,0.E0,0.E0));
#1135=AXIS2_PLACEMENT_3D('',#1132,#1133,#1134);
#1136=CYLINDRICAL_SURFACE('',#1135,6.35E-1);
#1137=ORIENTED_EDGE('',*,*,#1097,.T.);
#1138=ORIENTED_EDGE('',*,*,#1127,.T.);
#1140=ORIENTED_EDGE('',*,*,#1139,.T.);
#1141=ORIENTED_EDGE('',*,*,#1123,.F.);
#1142=EDGE_LOOP('',(#1137,#1138,#1140,#1141));
#1143=FACE_OUTER_BOUND('',#1142,.F.);
#1145=CARTESIAN_POINT('',(0.E0,0.E0,-1.70594E1));
#1146=DIRECTION('',(0.E0,0.E0,-1.E0));
#1147=DIRECTION('',(1.E0,0.E0,0.E0));
#1148=AXIS2_PLACEMENT_3D('',#1145,#1146,#1147);
#1149=PLANE('',#1148);
#1150=ORIENTED_EDGE('',*,*,#1125,.F.);
#1151=ORIENTED_EDGE('',*,*,#1139,.F.);
#1152=EDGE_LOOP('',(#1150,#1151));
#1153=FACE_OUTER_BOUND('',#1152,.F.);
#1155=CARTESIAN_POINT('',(0.E0,0.E0,-1.3743E1));
#1156=DIRECTION('',(0.E0,0.E0,1.E0));
#1157=DIRECTION('',(-3.389206507895E-2,9.994254989366E-1,0.E0));
#1158=AXIS2_PLACEMENT_3D('',#1155,#1156,#1157);
#1159=TOROIDAL_SURFACE('',#1158,1.1827E0,1.E-1);
#1160=ORIENTED_EDGE('',*,*,#955,.T.);
#1161=ORIENTED_EDGE('',*,*,#944,.T.);
#1163=ORIENTED_EDGE('',*,*,#1162,.F.);
#1164=ORIENTED_EDGE('',*,*,#941,.F.);
#1165=EDGE_LOOP('',(#1160,#1161,#1163,#1164));
#1166=FACE_OUTER_BOUND('',#1165,.F.);
#1168=CARTESIAN_POINT('',(0.E0,0.E0,-1.896237E1));
#1169=DIRECTION('',(0.E0,0.E0,1.E0));
#1170=DIRECTION('',(0.E0,1.E0,0.E0));
#1171=AXIS2_PLACEMENT_3D('',#1168,#1169,#1170);
#1172=CYLINDRICAL_SURFACE('',#1171,1.2827E0);
#1173=ORIENTED_EDGE('',*,*,#1162,.T.);
#1174=ORIENTED_EDGE('',*,*,#929,.F.);
#1176=ORIENTED_EDGE('',*,*,#1175,.F.);
#1177=ORIENTED_EDGE('',*,*,#926,.T.);
#1178=EDGE_LOOP('',(#1173,#1174,#1176,#1177));
#1179=FACE_OUTER_BOUND('',#1178,.F.);
#1181=CARTESIAN_POINT('',(0.E0,0.E0,-1.3181E1));
#1182=DIRECTION('',(0.E0,0.E0,1.E0));
#1183=DIRECTION('',(-2.294278268397E-2,9.997367797189E-1,0.E0));
#1184=AXIS2_PLACEMENT_3D('',#1181,#1182,#1183);
#1185=TOROIDAL_SURFACE('',#1184,1.1827E0,1.E-1);
#1186=ORIENTED_EDGE('',*,*,#1175,.T.);
#1187=ORIENTED_EDGE('',*,*,#914,.T.);
#1188=ORIENTED_EDGE('',*,*,#895,.F.);
#1189=ORIENTED_EDGE('',*,*,#911,.F.);
#1190=EDGE_LOOP('',(#1186,#1187,#1188,#1189));
#1191=FACE_OUTER_BOUND('',#1190,.F.);
#1193=CLOSED_SHELL('',(#671,#710,#725,#739,#775,#790,#803,#818,#833,#848,#862,
#875,#887,#903,#918,#933,#948,#965,#980,#1001,#1020,#1032,#1048,#1062,#1072,
#1088,#1103,#1116,#1131,#1144,#1154,#1167,#1180,#1192));
#1194=MANIFOLD_SOLID_BREP('',#1193);
#1195=FILL_AREA_STYLE_COLOUR('',#1);
#1196=FILL_AREA_STYLE('',(#1195));
#1197=SURFACE_STYLE_FILL_AREA(#1196);
#1198=SURFACE_SIDE_STYLE('',(#1197));
#1199=SURFACE_STYLE_USAGE(.BOTH.,#1198);
#1200=PRESENTATION_STYLE_ASSIGNMENT((#1199));
#3=STYLED_ITEM('',(#1200),#1194);
#1203=PLANE_ANGLE_MEASURE_WITH_UNIT(PLANE_ANGLE_MEASURE(1.745329251994E-2),
#1202);
#1204=(CONVERSION_BASED_UNIT('DEGREE',#1203)NAMED_UNIT(*)PLANE_ANGLE_UNIT());
#1206=UNCERTAINTY_MEASURE_WITH_UNIT(LENGTH_MEASURE(1.990591246528E-3),#1201,
'distance_accuracy_value',
'Maximum model space distance between geometric entities at asserted connectivities');
#1209=MECHANICAL_DESIGN_GEOMETRIC_PRESENTATION_REPRESENTATION('',(#12,#20,#28,
#36,#44,#51,#58,#66,#74,#82,#90,#98,#106,#114,#122,#130,#138,#145,#152,#160,
#168,#175,#183,#190,#198,#206,#214,#222,#230,#238,#245,#253,#260,#268,#276,#284,
#292,#300,#308,#316,#323,#330,#344,#358,#365,#373,#387,#401,#409,#416,#423,#442,
#461,#469,#477,#485,#493,#500,#507,#515,#522,#530,#537,#545,#553,#561,#569,#577,
#585,#3),#1207);
#1210=APPLICATION_CONTEXT('automotive_design');
#1211=APPLICATION_PROTOCOL_DEFINITION('international standard',
'automotive_design',2001,#1210);
#1212=PRODUCT_DEFINITION_CONTEXT('part definition',#1210,'design');
#1213=PRODUCT_CONTEXT('',#1210,'mechanical');
#1214=PRODUCT('C-0460-202-20141','C-0460-202-20141','NOT SPECIFIED',(#1213));
#1215=PRODUCT_DEFINITION_FORMATION('1','LAST_VERSION',#1214);
#1223=DERIVED_UNIT_ELEMENT(#1222,2.E0);
#1224=DERIVED_UNIT((#1223));
#1225=MEASURE_REPRESENTATION_ITEM('surface area measure',AREA_MEASURE(
9.482304944224E1),#1224);
#1230=DERIVED_UNIT_ELEMENT(#1229,3.E0);
#1231=DERIVED_UNIT((#1230));
#1232=MEASURE_REPRESENTATION_ITEM('volume measure',VOLUME_MEASURE(
3.235317277173E1),#1231);
#1236=CARTESIAN_POINT('centre point',(2.626697263164E-8,-3.479815849038E-3,
-1.159813614017E1));
#1241=DERIVED_UNIT_ELEMENT(#1240,2.E0);
#1242=DERIVED_UNIT((#1241));
#1243=MEASURE_REPRESENTATION_ITEM('surface area measure',AREA_MEASURE(
9.482304944224E1),#1242);
#1248=DERIVED_UNIT_ELEMENT(#1247,3.E0);
#1249=DERIVED_UNIT((#1248));
#1250=MEASURE_REPRESENTATION_ITEM('volume measure',VOLUME_MEASURE(
3.235317277173E1),#1249);
#1254=CARTESIAN_POINT('centre point',(2.626697263164E-8,-3.479815849038E-3,
-1.159813614017E1));
#1259=PRODUCT_RELATED_PRODUCT_CATEGORY('part','',(#1214));
#1=COLOUR_RGB('',6.952E-1,7.426E-1,7.9E-1);
#2=COLOUR_RGB('',8.784E-1,9.49E-1,1.E0);
#8=CIRCLE('',#7,2.453E-1);
#17=CIRCLE('',#16,2.453E-1);
#25=CIRCLE('',#24,2.5E-1);
#33=CIRCLE('',#32,4.953E-1);
#41=CIRCLE('',#40,4.953E-1);
#63=CIRCLE('',#62,2.5E-1);
#71=CIRCLE('',#70,1.27E0);
#79=CIRCLE('',#78,1.27E0);
#87=CIRCLE('',#86,4.953E-1);
#95=CIRCLE('',#94,4.953E-1);
#103=CIRCLE('',#102,9.417685424949E-1);
#111=CIRCLE('',#110,8.672743878931E-1);
#119=CIRCLE('',#118,8.E-2);
#127=CIRCLE('',#126,9.652E-1);
#135=CIRCLE('',#134,9.652E-1);
#157=CIRCLE('',#156,8.E-2);
#165=CIRCLE('',#164,9.417685424949E-1);
#180=CIRCLE('',#179,8.672743878931E-1);
#195=CIRCLE('',#194,9.652E-1);
#203=CIRCLE('',#202,9.652E-1);
#211=CIRCLE('',#210,1.1827E0);
#219=CIRCLE('',#218,1.1827E0);
#227=CIRCLE('',#226,1.E-1);
#235=CIRCLE('',#234,1.2827E0);
#250=CIRCLE('',#249,1.2827E0);
#265=CIRCLE('',#264,1.E-1);
#273=CIRCLE('',#272,1.0652E0);
#281=CIRCLE('',#280,1.0652E0);
#289=CIRCLE('',#288,1.1827E0);
#297=CIRCLE('',#296,1.1827E0);
#305=CIRCLE('',#304,1.E-1);
#313=CIRCLE('',#312,9.652E-1);
#341=B_SPLINE_CURVE_WITH_KNOTS('',3,(#331,#332,#333,#334,#335,#336,#337,#338,
#339,#340),.UNSPECIFIED.,.F.,.F.,(4,1,1,1,1,1,1,4),(0.E0,1.428571428571E-1,
2.857142857143E-1,4.285714285714E-1,5.714285714286E-1,7.142857142857E-1,
8.571428571429E-1,1.E0),.UNSPECIFIED.);
#355=B_SPLINE_CURVE_WITH_KNOTS('',3,(#345,#346,#347,#348,#349,#350,#351,#352,
#353,#354),.UNSPECIFIED.,.F.,.F.,(4,1,1,1,1,1,1,4),(0.E0,1.428571428571E-1,
2.857142857143E-1,4.285714285714E-1,5.714285714286E-1,7.142857142857E-1,
8.571428571429E-1,1.E0),.UNSPECIFIED.);
#370=CIRCLE('',#369,9.652E-1);
#384=B_SPLINE_CURVE_WITH_KNOTS('',3,(#374,#375,#376,#377,#378,#379,#380,#381,
#382,#383),.UNSPECIFIED.,.F.,.F.,(4,1,1,1,1,1,1,4),(0.E0,1.428571428571E-1,
2.857142857143E-1,4.285714285714E-1,5.714285714286E-1,7.142857142857E-1,
8.571428571429E-1,1.E0),.UNSPECIFIED.);
#398=B_SPLINE_CURVE_WITH_KNOTS('',3,(#388,#389,#390,#391,#392,#393,#394,#395,
#396,#397),.UNSPECIFIED.,.F.,.F.,(4,1,1,1,1,1,1,4),(0.E0,1.428571428571E-1,
2.857142857143E-1,4.285714285714E-1,5.714285714286E-1,7.142857142857E-1,
8.571428571429E-1,1.E0),.UNSPECIFIED.);
#406=CIRCLE('',#405,1.E-1);
#439=B_SPLINE_CURVE_WITH_KNOTS('',3,(#424,#425,#426,#427,#428,#429,#430,#431,
#432,#433,#434,#435,#436,#437,#438),.UNSPECIFIED.,.F.,.F.,(4,1,1,1,1,1,1,1,1,1,
1,1,4),(0.E0,8.333333333333E-2,1.666666666667E-1,2.5E-1,3.333333333333E-1,
4.166666666667E-1,5.E-1,5.833333333333E-1,6.666666666667E-1,7.5E-1,
8.333333333333E-1,9.166666666667E-1,1.E0),.UNSPECIFIED.);
#458=B_SPLINE_CURVE_WITH_KNOTS('',3,(#443,#444,#445,#446,#447,#448,#449,#450,
#451,#452,#453,#454,#455,#456,#457),.UNSPECIFIED.,.F.,.F.,(4,1,1,1,1,1,1,1,1,1,
1,1,4),(0.E0,8.333333333333E-2,1.666666666667E-1,2.5E-1,3.333333333333E-1,
4.166666666667E-1,5.E-1,5.833333333333E-1,6.666666666667E-1,7.5E-1,
8.333333333333E-1,9.166666666667E-1,1.E0),.UNSPECIFIED.);
#466=CIRCLE('',#465,9.652E-1);
#474=CIRCLE('',#473,9.652E-1);
#482=CIRCLE('',#481,8.128E-1);
#490=CIRCLE('',#489,8.128E-1);
#512=CIRCLE('',#511,6.35E-1);
#527=CIRCLE('',#526,6.35E-1);
#542=CIRCLE('',#541,6.35E-1);
#550=CIRCLE('',#549,6.35E-1);
#558=CIRCLE('',#557,1.E-1);
#566=CIRCLE('',#565,1.2827E0);
#574=CIRCLE('',#573,1.2827E0);
#582=CIRCLE('',#581,1.E-1);
#665=EDGE_CURVE('',#658,#659,#8,.T.);
#667=EDGE_CURVE('',#659,#658,#17,.T.);
#671=ADVANCED_FACE('',(#670),#664,.T.);
#701=EDGE_CURVE('',#654,#655,#33,.T.);
#703=EDGE_CURVE('',#655,#659,#63,.T.);
#706=EDGE_CURVE('',#654,#658,#25,.T.);
#710=ADVANCED_FACE('',(#709),#700,.T.);
#717=EDGE_CURVE('',#654,#592,#55,.T.);
#719=EDGE_CURVE('',#588,#592,#95,.T.);
#721=EDGE_CURVE('',#655,#588,#48,.T.);
#725=ADVANCED_FACE('',(#724),#715,.T.);
#731=EDGE_CURVE('',#655,#654,#41,.T.);
#734=EDGE_CURVE('',#588,#592,#87,.T.);
#739=ADVANCED_FACE('',(#738),#730,.T.);
#775=ADVANCED_FACE('',(#774),#768,.T.);
#781=EDGE_CURVE('',#588,#589,#71,.T.);
#783=EDGE_CURVE('',#589,#593,#180,.T.);
#785=EDGE_CURVE('',#592,#593,#79,.T.);
#790=ADVANCED_FACE('',(#789),#780,.F.);
#799=EDGE_CURVE('',#589,#593,#111,.T.);
#803=ADVANCED_FACE('',(#802),#795,.F.);
#809=EDGE_CURVE('',#651,#650,#103,.T.);
#811=EDGE_CURVE('',#589,#650,#187,.T.);
#814=EDGE_CURVE('',#593,#651,#172,.T.);
#818=ADVANCED_FACE('',(#817),#808,.T.);
#824=EDGE_CURVE('',#647,#646,#127,.T.);
#826=EDGE_CURVE('',#646,#650,#157,.T.);
#829=EDGE_CURVE('',#647,#651,#119,.T.);
#833=ADVANCED_FACE('',(#832),#823,.T.);
#840=EDGE_CURVE('',#647,#597,#149,.T.);
#842=EDGE_CURVE('',#596,#597,#195,.T.);
#844=EDGE_CURVE('',#646,#596,#142,.T.);
#848=ADVANCED_FACE('',(#847),#838,.T.);
#854=EDGE_CURVE('',#646,#647,#135,.T.);
#857=EDGE_CURVE('',#596,#597,#203,.T.);
#862=ADVANCED_FACE('',(#861),#853,.T.);
#870=EDGE_CURVE('',#650,#651,#165,.T.);
#875=ADVANCED_FACE('',(#874),#867,.T.);
#887=ADVANCED_FACE('',(#886),#880,.T.);
#893=EDGE_CURVE('',#642,#643,#211,.T.);
#895=EDGE_CURVE('',#643,#642,#219,.T.);
#903=ADVANCED_FACE('',(#898,#902),#892,.T.);
#909=EDGE_CURVE('',#638,#639,#250,.T.);
#911=EDGE_CURVE('',#639,#643,#582,.T.);
#914=EDGE_CURVE('',#638,#642,#227,.T.);
#918=ADVANCED_FACE('',(#917),#908,.T.);
#924=EDGE_CURVE('',#634,#635,#235,.T.);
#926=EDGE_CURVE('',#639,#635,#242,.T.);
#929=EDGE_CURVE('',#638,#634,#257,.T.);
#933=ADVANCED_FACE('',(#932),#923,.T.);
#939=EDGE_CURVE('',#630,#631,#289,.T.);
#941=EDGE_CURVE('',#631,#635,#558,.T.);
#944=EDGE_CURVE('',#630,#634,#265,.T.);
#948=ADVANCED_FACE('',(#947),#938,.T.);
#955=EDGE_CURVE('',#631,#630,#297,.T.);
#959=EDGE_CURVE('',#626,#627,#273,.T.);
#961=EDGE_CURVE('',#627,#626,#281,.T.);
#965=ADVANCED_FACE('',(#958,#964),#953,.F.);
#971=EDGE_CURVE('',#622,#623,#313,.T.);
#973=EDGE_CURVE('',#622,#626,#305,.T.);
#976=EDGE_CURVE('',#623,#627,#406,.T.);
#980=ADVANCED_FACE('',(#979),#970,.F.);
#987=EDGE_CURVE('',#623,#600,#320,.T.);
#989=EDGE_CURVE('',#600,#601,#466,.T.);
#991=EDGE_CURVE('',#616,#601,#327,.T.);
#993=EDGE_CURVE('',#619,#616,#341,.T.);
#995=EDGE_CURVE('',#618,#619,#355,.T.);
#997=EDGE_CURVE('',#622,#618,#362,.T.);
#1001=ADVANCED_FACE('',(#1000),#985,.T.);
#1007=EDGE_CURVE('',#623,#622,#370,.T.);
#1010=EDGE_CURVE('',#617,#618,#384,.T.);
#1012=EDGE_CURVE('',#616,#617,#398,.T.);
#1015=EDGE_CURVE('',#600,#601,#474,.T.);
#1020=ADVANCED_FACE('',(#1019),#1006,.T.);
#1032=ADVANCED_FACE('',(#1031),#1025,.F.);
#1040=EDGE_CURVE('',#615,#619,#413,.T.);
#1042=EDGE_CURVE('',#615,#614,#458,.T.);
#1044=EDGE_CURVE('',#614,#617,#420,.T.);
#1048=ADVANCED_FACE('',(#1047),#1037,.F.);
#1056=EDGE_CURVE('',#614,#615,#439,.T.);
#1062=ADVANCED_FACE('',(#1061),#1053,.F.);
#1072=ADVANCED_FACE('',(#1071),#1067,.T.);
#1082=EDGE_CURVE('',#608,#609,#482,.T.);
#1084=EDGE_CURVE('',#609,#608,#490,.T.);
#1088=ADVANCED_FACE('',(#1081,#1087),#1077,.F.);
#1095=EDGE_CURVE('',#609,#613,#504,.T.);
#1097=EDGE_CURVE('',#612,#613,#527,.T.);
#1099=EDGE_CURVE('',#608,#612,#497,.T.);
#1103=ADVANCED_FACE('',(#1102),#1093,.F.);
#1111=EDGE_CURVE('',#613,#612,#512,.T.);
#1116=ADVANCED_FACE('',(#1115),#1108,.F.);
#1123=EDGE_CURVE('',#612,#604,#519,.T.);
#1125=EDGE_CURVE('',#604,#605,#542,.T.);
#1127=EDGE_CURVE('',#613,#605,#534,.T.);
#1131=ADVANCED_FACE('',(#1130),#1121,.F.);
#1139=EDGE_CURVE('',#605,#604,#550,.T.);
#1144=ADVANCED_FACE('',(#1143),#1136,.F.);
#1154=ADVANCED_FACE('',(#1153),#1149,.T.);
#1162=EDGE_CURVE('',#635,#634,#566,.T.);
#1167=ADVANCED_FACE('',(#1166),#1159,.T.);
#1175=EDGE_CURVE('',#639,#638,#574,.T.);
#1180=ADVANCED_FACE('',(#1179),#1172,.T.);
#1192=ADVANCED_FACE('',(#1191),#1185,.T.);
#1201=(LENGTH_UNIT()NAMED_UNIT(*)SI_UNIT(.MILLI.,.METRE.));
#1202=(NAMED_UNIT(*)PLANE_ANGLE_UNIT()SI_UNIT($,.RADIAN.));
#1205=(NAMED_UNIT(*)SI_UNIT($,.STERADIAN.)SOLID_ANGLE_UNIT());
#1207=(GEOMETRIC_REPRESENTATION_CONTEXT(3)GLOBAL_UNCERTAINTY_ASSIGNED_CONTEXT((
#1206))GLOBAL_UNIT_ASSIGNED_CONTEXT((#1201,#1204,#1205))REPRESENTATION_CONTEXT(
'ID1','3'));
#1208=ADVANCED_BREP_SHAPE_REPRESENTATION('',(#1194),#1207);
#1216=PRODUCT_DEFINITION('part definition','',#1215,#1212);
#1217=PRODUCT_DEFINITION_SHAPE('','SHAPE FOR C-0460-202-20141.',#1216);
#1218=SHAPE_ASPECT('','solid data associated with C-0460-202-20141',#1217,.F.);
#1219=PROPERTY_DEFINITION('',
'shape for solid data with which properties are associated',#1218);
#1220=SHAPE_REPRESENTATION('',(#1194),#1207);
#1221=SHAPE_DEFINITION_REPRESENTATION(#1219,#1220);
#1222=(LENGTH_UNIT()NAMED_UNIT(*)SI_UNIT(.MILLI.,.METRE.));
#1226=PROPERTY_DEFINITION('geometric validation property',
'area of C-0460-202-20141',#1218);
#1227=REPRESENTATION('surface area',(#1225),#1207);
#1228=PROPERTY_DEFINITION_REPRESENTATION(#1226,#1227);
#1229=(LENGTH_UNIT()NAMED_UNIT(*)SI_UNIT(.MILLI.,.METRE.));
#1233=PROPERTY_DEFINITION('geometric validation property',
'volume of C-0460-202-20141',#1218);
#1234=REPRESENTATION('volume',(#1232),#1207);
#1235=PROPERTY_DEFINITION_REPRESENTATION(#1233,#1234);
#1237=PROPERTY_DEFINITION('geometric validation property',
'centroid of C-0460-202-20141',#1218);
#1238=REPRESENTATION('centroid',(#1236),#1207);
#1239=PROPERTY_DEFINITION_REPRESENTATION(#1237,#1238);
#1240=(LENGTH_UNIT()NAMED_UNIT(*)SI_UNIT(.MILLI.,.METRE.));
#1244=PROPERTY_DEFINITION('geometric validation property',
'area of C-0460-202-20141',#1217);
#1245=REPRESENTATION('surface area',(#1243),#1207);
#1246=PROPERTY_DEFINITION_REPRESENTATION(#1244,#1245);
#1247=(LENGTH_UNIT()NAMED_UNIT(*)SI_UNIT(.MILLI.,.METRE.));
#1251=PROPERTY_DEFINITION('geometric validation property',
'volume of C-0460-202-20141',#1217);
#1252=REPRESENTATION('volume',(#1250),#1207);
#1253=PROPERTY_DEFINITION_REPRESENTATION(#1251,#1252);
#1255=PROPERTY_DEFINITION('geometric validation property',
'centroid of C-0460-202-20141',#1217);
#1256=REPRESENTATION('centroid',(#1254),#1207);
#1257=PROPERTY_DEFINITION_REPRESENTATION(#1255,#1256);
#1258=SHAPE_DEFINITION_REPRESENTATION(#1217,#1208);
ENDSEC;
END-ISO-10303-21;
