<?xml version="1.0" encoding="UTF-8" standalone="no"?>
<svg
   xmlns:dc="http://purl.org/dc/elements/1.1/"
   xmlns:cc="http://creativecommons.org/ns#"
   xmlns:rdf="http://www.w3.org/1999/02/22-rdf-syntax-ns#"
   xmlns:svg="http://www.w3.org/2000/svg"
   xmlns="http://www.w3.org/2000/svg"
   xmlns:sodipodi="http://sodipodi.sourceforge.net/DTD/sodipodi-0.dtd"
   xmlns:inkscape="http://www.inkscape.org/namespaces/inkscape"
   version="1.1"
   id="svg35565"
   xml:space="preserve"
   width="163.03806"
   height="208.24805"
   viewBox="0 0 163.03806 208.24805"
   sodipodi:docname="bootSwitchBlack.svg"
   inkscape:version="1.0 (4035a4fb49, 2020-05-01)"><metadata
     id="metadata35571"><rdf:RDF><cc:Work
         rdf:about=""><dc:format>image/svg+xml</dc:format><dc:type
           rdf:resource="http://purl.org/dc/dcmitype/StillImage" /><dc:title></dc:title></cc:Work></rdf:RDF></metadata><defs
     id="defs35569" /><sodipodi:namedview
     scale-x="1"
     inkscape:document-rotation="0"
     pagecolor="#ffffff"
     bordercolor="#666666"
     borderopacity="1"
     objecttolerance="10"
     gridtolerance="10"
     guidetolerance="10"
     inkscape:pageopacity="0"
     inkscape:pageshadow="2"
     inkscape:window-width="1920"
     inkscape:window-height="1017"
     id="namedview35567"
     showgrid="false"
     inkscape:zoom="1"
     inkscape:cx="103.95205"
     inkscape:cy="110.80807"
     inkscape:window-x="1592"
     inkscape:window-y="-8"
     inkscape:window-maximized="1"
     inkscape:current-layer="g37923"
     fit-margin-top="0"
     fit-margin-left="0"
     fit-margin-right="0"
     fit-margin-bottom="0" /><g
     id="g35573"
     inkscape:groupmode="layer"
     inkscape:label="DingoPDM_V7_Connections"
     transform="translate(-217.3817,-662.63284)"><g
       id="g40023"
       transform="matrix(0,-1.7660101,1.7660101,0,-1249.7559,1256.9722)"><g
         transform="matrix(8,0,0,8,-839.2164,-6368.516)"
         id="g37919"><path
           d="m 141.11999,906.88 h -1.44 v 2.08002 h 1.44 z"
           style="fill:none;stroke:#000000;stroke-width:0.5;stroke-linecap:round;stroke-linejoin:round;stroke-miterlimit:10;stroke-dasharray:none;stroke-opacity:1"
           id="path37921" /></g><path
         id="path37917"
         style="fill:none;stroke:#000000;stroke-width:4;stroke-linecap:round;stroke-linejoin:round;stroke-miterlimit:10;stroke-dasharray:none;stroke-opacity:1"
         d="m 334.54358,850.68343 h -44.8 m -69.12008,0 h 10.24008 47.36 11.52 m 34.56,52.48 h 10.24 v -10.24 m -113.92008,-32 10.24008,-10.24 m 103.68,42.24 -10.24,10.24 m -46.08,-35.84 h -32 m -25.60008,-6.4 v 42.24 h 57.60008 m 0,-16.64 h -32 v -19.2 m 43.52,0 h 19.2 v 19.2 h -19.2 m 34.56,16.64 h -34.56 m 44.8,-10.24 v -42.24"
         sodipodi:nodetypes="ccccccccccccccccccccccccccccc" /><g
         transform="matrix(8,0,0,8,-839.2164,-6368.516)"
         id="g37927"><path
           d="m 139.67999,904.96002 v 0.15998 0"
           style="fill:none;stroke:#000000;stroke-width:0.5;stroke-linecap:round;stroke-linejoin:round;stroke-miterlimit:10;stroke-dasharray:none;stroke-opacity:1"
           id="path37929" /></g><g
         transform="matrix(8,0,0,8,-839.2164,-6368.516)"
         id="g37931"><path
           d="M 139.67999,906.40002 V 905.12"
           style="fill:none;stroke:#000000;stroke-width:0.5;stroke-linecap:round;stroke-linejoin:round;stroke-miterlimit:10;stroke-dasharray:none;stroke-opacity:1"
           id="path37933" /></g><g
         transform="matrix(8,0,0,8,-839.2164,-6368.516)"
         id="g37935"><path
           d="m 139.67999,906.40002 v 0 0.15998"
           style="fill:none;stroke:#000000;stroke-width:0.5;stroke-linecap:round;stroke-linejoin:round;stroke-miterlimit:10;stroke-dasharray:none;stroke-opacity:1"
           id="path37937" /></g><g
         transform="matrix(8,0,0,8,-839.2164,-6368.516)"
         id="g37939"><path
           d="m 139.67999,906.56 0.16001,-0.15998 m 1.12001,-1.60003 H 139.84 m 1.27999,1.60003 V 905.12"
           style="fill:none;stroke:#000000;stroke-width:0.5;stroke-linecap:round;stroke-linejoin:round;stroke-miterlimit:10;stroke-dasharray:none;stroke-opacity:1"
           id="path37941" /></g><g
         transform="matrix(8,0,0,8,-839.2164,-6368.516)"
         id="g37943"><path
           d="m 141.11999,905.12 v 0 -0.15998"
           style="fill:none;stroke:#000000;stroke-width:0.5;stroke-linecap:round;stroke-linejoin:round;stroke-miterlimit:10;stroke-dasharray:none;stroke-opacity:1"
           id="path37945" /></g><g
         transform="matrix(8,0,0,8,-839.2164,-6368.516)"
         id="g37947"><path
           d="m 140.96001,905.12 v -0.15998 h 0.15998 v -0.16003 m -0.15998,1.60003 0.15998,0.15998"
           style="fill:none;stroke:#000000;stroke-width:0.5;stroke-linecap:round;stroke-linejoin:round;stroke-miterlimit:10;stroke-dasharray:none;stroke-opacity:1"
           id="path37949" /></g><g
         transform="matrix(8,0,0,8,-839.2164,-6368.516)"
         id="g37951"><path
           d="m 141.11999,906.56 v -0.15998 0"
           style="fill:none;stroke:#000000;stroke-width:0.5;stroke-linecap:round;stroke-linejoin:round;stroke-miterlimit:10;stroke-dasharray:none;stroke-opacity:1"
           id="path37953" /></g><g
         transform="matrix(8,0,0,8,-839.2164,-6368.516)"
         id="g37955"><path
           d="m 139.84,904.96002 v 0 h -0.16001"
           style="fill:none;stroke:#000000;stroke-width:0.5;stroke-linecap:round;stroke-linejoin:round;stroke-miterlimit:10;stroke-dasharray:none;stroke-opacity:1"
           id="path37957" /></g><g
         transform="matrix(8,0,0,8,-839.2164,-6368.516)"
         id="g37959"><path
           d="m 141.11999,904.96002 h -0.15998 v 0"
           style="fill:none;stroke:#000000;stroke-width:0.5;stroke-linecap:round;stroke-linejoin:round;stroke-miterlimit:10;stroke-dasharray:none;stroke-opacity:1"
           id="path37961" /></g><g
         transform="matrix(8,0,0,8,-839.2164,-6368.516)"
         id="g37963"><path
           d="M 140.96001,906.56 H 139.84"
           style="fill:none;stroke:#000000;stroke-width:0.5;stroke-linecap:round;stroke-linejoin:round;stroke-miterlimit:10;stroke-dasharray:none;stroke-opacity:1"
           id="path37965" /></g><g
         transform="matrix(8,0,0,8,-839.2164,-6368.516)"
         id="g37967"><path
           d="m 140.96001,906.56 v 0 h 0.15998"
           style="fill:none;stroke:#000000;stroke-width:0.5;stroke-linecap:round;stroke-linejoin:round;stroke-miterlimit:10;stroke-dasharray:none;stroke-opacity:1"
           id="path37969" /></g><g
         transform="matrix(8,0,0,8,-839.2164,-6368.516)"
         id="g37971"><path
           d="M 139.67999,906.56 H 139.84 v 0"
           style="fill:none;stroke:#000000;stroke-width:0.5;stroke-linecap:round;stroke-linejoin:round;stroke-miterlimit:10;stroke-dasharray:none;stroke-opacity:1"
           id="path37973" /></g><g
         id="g37923"
         transform="translate(277.66354,873.64399)"><path
           d="m 0.55998,-22.96 v 16.64 m -14.08,16.64 V -3.76 m 26.88,0 v 14.08 l 17.92,2.56 m -17.92,-16.64 17.92,-2.56 m -44.8,16.64 -17.92,2.56 m 0,-19.2 17.92,2.56 m 26.88,0 h -2.56 m -8.96,0 h -15.36 m 26.88,14.08 h -2.56 m -8.96,0 h -15.36 m -43.52,-33.28 v 10.24 m 87.04,42.24 v 2.56 1.28 m 0,14.08 V 39.76 38.48 37.2 33.36 m -72.96,6.4 v 7.68 h 12.8 v -7.68 m 72.96,-10.24 v 2.56 1.28 3.84 m 0,2.56 V 38.48 37.2 m 0,2.56 v 7.68 h -12.8 m -29.44,-53.76 h 11.52 v -16.64 m -55.04,52.48 v 2.56 1.28 m 12.8,-3.84 v 2.56 1.28 m -12.8,0 v 3.84 m 12.8,-3.84 v 3.84 m -12.8,2.56 V 38.48 37.2 m 12.8,2.56 V 38.48 37.2 m 35.84,-78.08 h -11.52 v 8.96 m 11.52,-8.96 v 8.96 m -11.52,1.28 v -1.28 m 11.52,1.28 v -1.28 m -11.52,1.28 v 5.12 m 11.52,-5.12 v 5.12 m -11.52,0 v 1.28 1.28 m 11.52,-2.56 v 1.28 1.28 m -5.12,19.2 v 1.28 h 1.28 v 1.28"
           style="fill:none;stroke:#000000;stroke-width:4;stroke-linecap:round;stroke-linejoin:round;stroke-miterlimit:10;stroke-dasharray:none;stroke-opacity:1"
           id="path37925" /><path
           style="fill:none;stroke:#7fff00;stroke-width:4.53px;stroke-linecap:butt;stroke-linejoin:miter;stroke-opacity:1"
           d="m 6.4036972,-17.368837 c 0,41.505243 0,41.505243 0,41.505243"
           id="path1628" /></g></g></g></svg>
