<?xml version="1.0" encoding="UTF-8" standalone="no"?>
<svg
   xmlns:dc="http://purl.org/dc/elements/1.1/"
   xmlns:cc="http://creativecommons.org/ns#"
   xmlns:rdf="http://www.w3.org/1999/02/22-rdf-syntax-ns#"
   xmlns:svg="http://www.w3.org/2000/svg"
   xmlns="http://www.w3.org/2000/svg"
   xmlns:sodipodi="http://sodipodi.sourceforge.net/DTD/sodipodi-0.dtd"
   xmlns:inkscape="http://www.inkscape.org/namespaces/inkscape"
   inkscape:version="1.0 (4035a4fb49, 2020-05-01)"
   sodipodi:docname="bootSwitchWhite.svg"
   viewBox="0 0 20.379758 26.031006"
   height="26.031006"
   width="20.379757"
   xml:space="preserve"
   id="svg35565"
   version="1.1"><metadata
     id="metadata35571"><rdf:RDF><cc:Work
         rdf:about=""><dc:format>image/svg+xml</dc:format><dc:type
           rdf:resource="http://purl.org/dc/dcmitype/StillImage" /><dc:title></dc:title></cc:Work></rdf:RDF></metadata><defs
     id="defs35569" /><sodipodi:namedview
     fit-margin-bottom="0"
     fit-margin-right="0"
     fit-margin-left="0"
     fit-margin-top="0"
     inkscape:current-layer="g37923"
     inkscape:window-maximized="1"
     inkscape:window-y="-8"
     inkscape:window-x="1592"
     inkscape:cy="21.742626"
     inkscape:cx="25.906173"
     inkscape:zoom="17.13537"
     showgrid="false"
     id="namedview35567"
     inkscape:window-height="1017"
     inkscape:window-width="1920"
     inkscape:pageshadow="2"
     inkscape:pageopacity="0"
     guidetolerance="10"
     gridtolerance="10"
     objecttolerance="10"
     borderopacity="1"
     bordercolor="#666666"
     pagecolor="#ffffff"
     inkscape:document-rotation="0" /><g
     transform="translate(-288.71084,-753.74135)"
     inkscape:label="DingoPDM_V7_Connections"
     inkscape:groupmode="layer"
     id="g35573"><g
       transform="matrix(0,-1.7660101,1.7660101,0,-1249.7559,1256.9722)"
       id="g40023"><g
         style="stroke:#ffffff"
         id="g37919"
         transform="translate(137.98355,-28.756006)"><path
           id="path37921"
           style="fill:none;stroke:#ffffff;stroke-width:0.5;stroke-linecap:round;stroke-linejoin:round;stroke-miterlimit:10;stroke-dasharray:none;stroke-opacity:1"
           d="m 141.11999,906.88 h -1.44 v 2.08002 h 1.44 z" /></g><path
         sodipodi:nodetypes="ccccccccccccccccccccccccccccc"
         d="m 284.70355,873.64392 h -5.6 m -8.64001,0 h 1.28001 5.92 1.44 m 4.32,6.56 h 1.28 v -1.28 m -14.24001,-4 1.28001,-1.28 m 12.96,5.28 -1.28,1.28 m -5.76,-4.48 h -4 m -3.20001,-0.8 v 5.28 h 7.20001 m 0,-2.08 h -4 v -2.4 m 5.44,0 h 2.4 v 2.4 h -2.4 m 4.32,2.08 h -4.32 m 5.6,-1.28 v -5.28"
         style="fill:none;stroke:#ffffff;stroke-width:0.5;stroke-linecap:round;stroke-linejoin:round;stroke-miterlimit:10;stroke-dasharray:none;stroke-opacity:1"
         id="path37917" /><g
         style="stroke:#ffffff"
         id="g37927"
         transform="translate(137.98355,-28.756006)"><path
           id="path37929"
           style="fill:none;stroke:#ffffff;stroke-width:0.5;stroke-linecap:round;stroke-linejoin:round;stroke-miterlimit:10;stroke-dasharray:none;stroke-opacity:1"
           d="m 139.67999,904.96002 v 0.15998 0" /></g><g
         style="stroke:#ffffff"
         id="g37931"
         transform="translate(137.98355,-28.756006)"><path
           id="path37933"
           style="fill:none;stroke:#ffffff;stroke-width:0.5;stroke-linecap:round;stroke-linejoin:round;stroke-miterlimit:10;stroke-dasharray:none;stroke-opacity:1"
           d="M 139.67999,906.40002 V 905.12" /></g><g
         style="stroke:#ffffff"
         id="g37935"
         transform="translate(137.98355,-28.756006)"><path
           id="path37937"
           style="fill:none;stroke:#ffffff;stroke-width:0.5;stroke-linecap:round;stroke-linejoin:round;stroke-miterlimit:10;stroke-dasharray:none;stroke-opacity:1"
           d="m 139.67999,906.40002 v 0 0.15998" /></g><g
         style="stroke:#ffffff"
         id="g37939"
         transform="translate(137.98355,-28.756006)"><path
           id="path37941"
           style="fill:none;stroke:#ffffff;stroke-width:0.5;stroke-linecap:round;stroke-linejoin:round;stroke-miterlimit:10;stroke-dasharray:none;stroke-opacity:1"
           d="m 139.67999,906.56 0.16001,-0.15998 m 1.12001,-1.60003 H 139.84 m 1.27999,1.60003 V 905.12" /></g><g
         style="stroke:#ffffff"
         id="g37943"
         transform="translate(137.98355,-28.756006)"><path
           id="path37945"
           style="fill:none;stroke:#ffffff;stroke-width:0.5;stroke-linecap:round;stroke-linejoin:round;stroke-miterlimit:10;stroke-dasharray:none;stroke-opacity:1"
           d="m 141.11999,905.12 v 0 -0.15998" /></g><g
         style="stroke:#ffffff"
         id="g37947"
         transform="translate(137.98355,-28.756006)"><path
           id="path37949"
           style="fill:none;stroke:#ffffff;stroke-width:0.5;stroke-linecap:round;stroke-linejoin:round;stroke-miterlimit:10;stroke-dasharray:none;stroke-opacity:1"
           d="m 140.96001,905.12 v -0.15998 h 0.15998 v -0.16003 m -0.15998,1.60003 0.15998,0.15998" /></g><g
         style="stroke:#ffffff"
         id="g37951"
         transform="translate(137.98355,-28.756006)"><path
           id="path37953"
           style="fill:none;stroke:#ffffff;stroke-width:0.5;stroke-linecap:round;stroke-linejoin:round;stroke-miterlimit:10;stroke-dasharray:none;stroke-opacity:1"
           d="m 141.11999,906.56 v -0.15998 0" /></g><g
         style="stroke:#ffffff"
         id="g37955"
         transform="translate(137.98355,-28.756006)"><path
           id="path37957"
           style="fill:none;stroke:#ffffff;stroke-width:0.5;stroke-linecap:round;stroke-linejoin:round;stroke-miterlimit:10;stroke-dasharray:none;stroke-opacity:1"
           d="m 139.84,904.96002 v 0 h -0.16001" /></g><g
         style="stroke:#ffffff"
         id="g37959"
         transform="translate(137.98355,-28.756006)"><path
           id="path37961"
           style="fill:none;stroke:#ffffff;stroke-width:0.5;stroke-linecap:round;stroke-linejoin:round;stroke-miterlimit:10;stroke-dasharray:none;stroke-opacity:1"
           d="m 141.11999,904.96002 h -0.15998 v 0" /></g><g
         style="stroke:#ffffff"
         id="g37963"
         transform="translate(137.98355,-28.756006)"><path
           id="path37965"
           style="fill:none;stroke:#ffffff;stroke-width:0.5;stroke-linecap:round;stroke-linejoin:round;stroke-miterlimit:10;stroke-dasharray:none;stroke-opacity:1"
           d="M 140.96001,906.56 H 139.84" /></g><g
         style="stroke:#ffffff"
         id="g37967"
         transform="translate(137.98355,-28.756006)"><path
           id="path37969"
           style="fill:none;stroke:#ffffff;stroke-width:0.5;stroke-linecap:round;stroke-linejoin:round;stroke-miterlimit:10;stroke-dasharray:none;stroke-opacity:1"
           d="m 140.96001,906.56 v 0 h 0.15998" /></g><g
         style="stroke:#ffffff"
         id="g37971"
         transform="translate(137.98355,-28.756006)"><path
           id="path37973"
           style="fill:none;stroke:#ffffff;stroke-width:0.5;stroke-linecap:round;stroke-linejoin:round;stroke-miterlimit:10;stroke-dasharray:none;stroke-opacity:1"
           d="M 139.67999,906.56 H 139.84 v 0" /></g><g
         transform="translate(277.66354,873.64399)"
         id="g37923"><path
           id="path37925"
           style="fill:none;stroke:#ffffff;stroke-width:0.5;stroke-linecap:round;stroke-linejoin:round;stroke-miterlimit:10;stroke-dasharray:none;stroke-opacity:1"
           d="M 0,0 V 2.08 M -1.76,4.16 V 2.4 m 3.36,0 V 4.16 L 3.84,4.48 M 1.6,2.4 3.84,2.08 M -1.76,4.16 -4,4.48 m 0,-2.4 2.24,0.32 m 3.36,0 H 1.28 m -1.12,0 H -1.76 M 1.6,4.16 H 1.28 m -1.12,0 H -1.76 M -7.2,0 V 1.28 M 3.68,6.56 v 0.32 0.16 m 0,1.76 V 7.84 7.68 7.52 7.04 m -9.12,0.8 V 8.8 h 1.6 V 7.84 M 5.28,6.56 v 0.32 0.16 0.48 m 0,0.32 V 7.68 7.52 m 0,0.32 V 8.8 H 3.68 M 0,2.08 H 1.44 V 0 m -6.88,6.56 v 0.32 0.16 m 1.6,-0.48 v 0.32 0.16 m -1.6,0 v 0.48 m 1.6,-0.48 v 0.48 m -1.6,0.32 V 7.68 7.52 m 1.6,0.32 V 7.68 7.52 M 0.64,-2.24 H -0.8 v 1.12 m 1.44,-1.12 v 1.12 m -1.44,0.16 v -0.16 m 1.44,0.16 v -0.16 m -1.44,0.16 v 0.64 m 1.44,-0.64 v 0.64 m -1.44,0 V -0.16 0 M 0.64,-0.32 V -0.16 0 M 0,2.4 v 0.16 h 0.16 v 0.16" /><path
           id="path1628"
           d="m 0.73046464,0.6988954 c 0,5.1881554 0,5.1881554 0,5.1881554"
           style="fill:none;stroke:#7fff00;stroke-width:0.566248px;stroke-linecap:butt;stroke-linejoin:miter;stroke-opacity:1" /></g></g></g></svg>
