<svg xmlns="http://www.w3.org/2000/svg" width="800" height="273" viewBox="0 0 800 273" class="WaveDrom"><g transform="translate(0.5,0.5)" text-anchor="middle" font-size="14" font-family="sans-serif" font-weight="bold"><g transform="translate(4,21)"><g stroke="black" stroke-width="1" stroke-linecap="round"><line x2="715"/><line y2="31"/><line x2="715" y1="31" y2="31"/><line x1="715" x2="715" y2="31"/><line x1="626" x2="626" y2="3"/><line x1="626" x2="626" y1="31" y2="28"/><line x1="536" x2="536" y2="3"/><line x1="536" x2="536" y1="31" y2="28"/><line x1="447" x2="447" y2="3"/><line x1="447" x2="447" y1="31" y2="28"/><line x1="358" x2="358" y2="3"/><line x1="358" x2="358" y1="31" y2="28"/><line x1="268" x2="268" y2="3"/><line x1="268" x2="268" y1="31" y2="28"/><line x1="179" x2="179" y2="3"/><line x1="179" x2="179" y1="31" y2="28"/><line x1="89" x2="89" y2="3"/><line x1="89" x2="89" y1="31" y2="28"/></g><g><g/><g transform="translate(45,-11)"/><g transform="translate(45,15)"><g transform="translate(313)"><text y="6"><tspan>Counter Message Command (11)</tspan></text></g></g><g transform="translate(45,39)"/></g><g text-anchor="start"><g transform="translate(719,16)"><text y="6"><tspan>0</tspan></text></g></g></g><g transform="translate(4,52)"><g stroke="black" stroke-width="1" stroke-linecap="round"><line x2="715"/><line y2="31"/><line x2="715" y1="31" y2="31"/><line x1="715" x2="715" y2="31"/><line x1="626" x2="626" y2="31"/><line x1="536" x2="536" y2="31"/><line x1="447" x2="447" y2="31"/><line x1="358" x2="358" y2="31"/><line x1="268" x2="268" y2="3"/><line x1="268" x2="268" y1="31" y2="28"/><line x1="179" x2="179" y2="3"/><line x1="179" x2="179" y1="31" y2="28"/><line x1="89" x2="89" y2="3"/><line x1="89" x2="89" y1="31" y2="28"/></g><g><g><rect x="358" width="89" height="31" field="undefined" style="fill-opacity:0.1"/></g><g transform="translate(45,-11)"/><g transform="translate(45,15)"><g transform="translate(626)"><text y="6"><tspan>PwmEnabled</tspan></text></g><g transform="translate(536)"><text y="6"><tspan>Soft Start</tspan></text></g><g transform="translate(447)"><text y="6"><tspan>Variable DC</tspan></text></g><g transform="translate(134)"><text y="6"><tspan>Index</tspan></text></g></g><g transform="translate(45,39)"/></g><g text-anchor="start"><g transform="translate(719,16)"><text y="6"><tspan>1</tspan></text></g></g></g><g transform="translate(4,83)"><g stroke="black" stroke-width="1" stroke-linecap="round"><line x2="715"/><line y2="31"/><line x2="715" y1="31" y2="31"/><line x1="715" x2="715" y2="31"/><line x1="626" x2="626" y2="3"/><line x1="626" x2="626" y1="31" y2="28"/><line x1="536" x2="536" y2="3"/><line x1="536" x2="536" y1="31" y2="28"/><line x1="447" x2="447" y2="3"/><line x1="447" x2="447" y1="31" y2="28"/><line x1="358" x2="358" y2="3"/><line x1="358" x2="358" y1="31" y2="28"/><line x1="268" x2="268" y2="3"/><line x1="268" x2="268" y1="31" y2="28"/><line x1="179" x2="179" y2="3"/><line x1="179" x2="179" y1="31" y2="28"/><line x1="89" x2="89" y2="3"/><line x1="89" x2="89" y1="31" y2="28"/></g><g><g/><g transform="translate(45,-11)"/><g transform="translate(45,15)"><g transform="translate(313)"><text y="6"><tspan>Duty Cycle Input</tspan></text></g></g><g transform="translate(45,39)"/></g><g text-anchor="start"><g transform="translate(719,16)"><text y="6"><tspan>2</tspan></text></g></g></g><g transform="translate(4,114)"><g stroke="black" stroke-width="1" stroke-linecap="round"><line x2="715"/><line y2="31"/><line x2="715" y1="31" y2="31"/><line x1="715" x2="715" y2="31"/><line x1="626" x2="626" y2="3"/><line x1="626" x2="626" y1="31" y2="28"/><line x1="536" x2="536" y2="3"/><line x1="536" x2="536" y1="31" y2="28"/><line x1="447" x2="447" y2="3"/><line x1="447" x2="447" y1="31" y2="28"/><line x1="358" x2="358" y2="3"/><line x1="358" x2="358" y1="31" y2="28"/><line x1="268" x2="268" y2="3"/><line x1="268" x2="268" y1="31" y2="28"/><line x1="179" x2="179" y2="3"/><line x1="179" x2="179" y1="31" y2="28"/><line x1="89" x2="89" y2="3"/><line x1="89" x2="89" y1="31" y2="28"/></g><g><g/><g transform="translate(45,-11)"/><g transform="translate(45,15)"><g transform="translate(313)"><text y="6"><tspan>Frequency</tspan></text></g></g><g transform="translate(45,39)"/></g><g text-anchor="start"><g transform="translate(719,16)"><text y="6"><tspan>3</tspan></text></g></g></g><g transform="translate(4,145)"><g stroke="black" stroke-width="1" stroke-linecap="round"><line x2="715"/><line y2="31"/><line x2="715" y1="31" y2="31"/><line x1="715" x2="715" y2="31"/><line x1="626" x2="626" y2="31"/><line x1="536" x2="536" y2="3"/><line x1="536" x2="536" y1="31" y2="28"/><line x1="447" x2="447" y2="3"/><line x1="447" x2="447" y1="31" y2="28"/><line x1="358" x2="358" y2="3"/><line x1="358" x2="358" y1="31" y2="28"/><line x1="268" x2="268" y2="3"/><line x1="268" x2="268" y1="31" y2="28"/><line x1="179" x2="179" y2="3"/><line x1="179" x2="179" y1="31" y2="28"/><line x1="89" x2="89" y2="3"/><line x1="89" x2="89" y1="31" y2="28"/></g><g><g/><g transform="translate(45,-11)"/><g transform="translate(45,15)"><g transform="translate(626)"><text y="6"><tspan>Frequency</tspan></text></g><g transform="translate(268)"><text y="6"><tspan>Fixed Duty Cycle</tspan></text></g></g><g transform="translate(45,39)"/></g><g text-anchor="start"><g transform="translate(719,16)"><text y="6"><tspan>4</tspan></text></g></g></g><g transform="translate(4,176)"><g stroke="black" stroke-width="1" stroke-linecap="round"><line x2="715"/><line y2="31"/><line x2="715" y1="31" y2="31"/><line x1="715" x2="715" y2="31"/><line x1="626" x2="626" y2="3"/><line x1="626" x2="626" y1="31" y2="28"/><line x1="536" x2="536" y2="3"/><line x1="536" x2="536" y1="31" y2="28"/><line x1="447" x2="447" y2="3"/><line x1="447" x2="447" y1="31" y2="28"/><line x1="358" x2="358" y2="3"/><line x1="358" x2="358" y1="31" y2="28"/><line x1="268" x2="268" y2="3"/><line x1="268" x2="268" y1="31" y2="28"/><line x1="179" x2="179" y2="3"/><line x1="179" x2="179" y1="31" y2="28"/><line x1="89" x2="89" y2="3"/><line x1="89" x2="89" y1="31" y2="28"/></g><g><g/><g transform="translate(45,-11)"/><g transform="translate(45,15)"><g transform="translate(313)"><text y="6"><tspan>Soft Start Ramp Time</tspan></text></g></g><g transform="translate(45,39)"/></g><g text-anchor="start"><g transform="translate(719,16)"><text y="6"><tspan>5</tspan></text></g></g></g><g transform="translate(4,207)"><g stroke="black" stroke-width="1" stroke-linecap="round"><line x2="715"/><line y2="31"/><line x2="715" y1="31" y2="31"/><line x1="715" x2="715" y2="31"/><line x1="626" x2="626" y2="3"/><line x1="626" x2="626" y1="31" y2="28"/><line x1="536" x2="536" y2="3"/><line x1="536" x2="536" y1="31" y2="28"/><line x1="447" x2="447" y2="3"/><line x1="447" x2="447" y1="31" y2="28"/><line x1="358" x2="358" y2="3"/><line x1="358" x2="358" y1="31" y2="28"/><line x1="268" x2="268" y2="3"/><line x1="268" x2="268" y1="31" y2="28"/><line x1="179" x2="179" y2="3"/><line x1="179" x2="179" y1="31" y2="28"/><line x1="89" x2="89" y2="3"/><line x1="89" x2="89" y1="31" y2="28"/></g><g><g/><g transform="translate(45,-11)"/><g transform="translate(45,15)"><g transform="translate(313)"><text y="6"><tspan>Soft Start Ramp Time</tspan></text></g></g><g transform="translate(45,39)"/></g><g text-anchor="start"><g transform="translate(719,16)"><text y="6"><tspan>6</tspan></text></g></g></g><g transform="translate(4,238)"><g stroke="black" stroke-width="1" stroke-linecap="round"><line x2="715"/><line y2="31"/><line x2="715" y1="31" y2="31"/><line x1="715" x2="715" y2="31"/><line x1="626" x2="626" y2="3"/><line x1="626" x2="626" y1="31" y2="28"/><line x1="536" x2="536" y2="3"/><line x1="536" x2="536" y1="31" y2="28"/><line x1="447" x2="447" y2="3"/><line x1="447" x2="447" y1="31" y2="28"/><line x1="358" x2="358" y2="3"/><line x1="358" x2="358" y1="31" y2="28"/><line x1="268" x2="268" y2="3"/><line x1="268" x2="268" y1="31" y2="28"/><line x1="179" x2="179" y2="3"/><line x1="179" x2="179" y1="31" y2="28"/><line x1="89" x2="89" y2="3"/><line x1="89" x2="89" y1="31" y2="28"/></g><g><g/><g transform="translate(45,-11)"/><g transform="translate(45,15)"><g transform="translate(313)"><text y="6"><tspan>Duty Cycle Input Denominator</tspan></text></g></g><g transform="translate(45,39)"/></g><g text-anchor="start"><g transform="translate(719,16)"><text y="6"><tspan>7</tspan></text></g></g></g><g transform="translate(4,-3)"><g transform="translate(45,11)"><text y="6">7</text></g><g transform="translate(313,11)"><text y="6">4</text></g><g transform="translate(402,11)"><text y="6">3</text></g><g transform="translate(492,11)"><text y="6">2</text></g><g transform="translate(581,11)"><text y="6">1</text></g><g transform="translate(670,11)"><text y="6">0</text></g></g></g></svg>