<?xml version="1.0" encoding="UTF-8" standalone="no"?>
<svg
   xmlns:dc="http://purl.org/dc/elements/1.1/"
   xmlns:cc="http://creativecommons.org/ns#"
   xmlns:rdf="http://www.w3.org/1999/02/22-rdf-syntax-ns#"
   xmlns:svg="http://www.w3.org/2000/svg"
   xmlns="http://www.w3.org/2000/svg"
   xmlns:sodipodi="http://sodipodi.sourceforge.net/DTD/sodipodi-0.dtd"
   xmlns:inkscape="http://www.inkscape.org/namespaces/inkscape"
   inkscape:version="1.0 (4035a4fb49, 2020-05-01)"
   sodipodi:docname="log.svg"
   id="svg4"
   version="1.1"
   width="24"
   viewBox="0 -960 960 960"
   height="24">
  <metadata
     id="metadata10">
    <rdf:RDF>
      <cc:Work
         rdf:about="">
        <dc:format>image/svg+xml</dc:format>
        <dc:type
           rdf:resource="http://purl.org/dc/dcmitype/StillImage" />
      </cc:Work>
    </rdf:RDF>
  </metadata>
  <defs
     id="defs8" />
  <sodipodi:namedview
     inkscape:current-layer="svg4"
     inkscape:window-maximized="1"
     inkscape:window-y="-8"
     inkscape:window-x="1592"
     inkscape:cy="12"
     inkscape:cx="12"
     inkscape:zoom="35.416667"
     showgrid="false"
     id="namedview6"
     inkscape:window-height="1017"
     inkscape:window-width="1920"
     inkscape:pageshadow="2"
     inkscape:pageopacity="0"
     guidetolerance="10"
     gridtolerance="10"
     objecttolerance="10"
     borderopacity="1"
     bordercolor="#666666"
     pagecolor="#ffffff" />
  <path
     inkscape:export-ydpi="157.09091"
     inkscape:export-xdpi="157.09091"
     style="fill:#01ff00;fill-opacity:1"
     id="path2"
     d="M80-600v-160q0-33 23.5-56.5T160-840h640q33 0 56.5 23.5T880-760v160h-80v-160H160v160H80Zm80 360q-33 0-56.5-23.5T80-320v-200h80v200h640v-200h80v200q0 33-23.5 56.5T800-240H160ZM40-120v-80h880v80H40Zm440-420ZM80-520v-80h240q11 0 21 6t15 16l47 93 123-215q5-9 14-14.5t20-5.5q11 0 21 5.5t15 16.5l49 98h235v80H620q-11 0-21-5.5T584-542l-26-53-123 215q-5 10-15 15t-21 5q-11 0-20.5-6T364-382l-69-138H80Z" />
</svg>
